<svg width="276" height="171" fill="none" xmlns="http://www.w3.org/2000/svg" style="width:100%;height:100%"><g clip-path="url(#prefix__clip0_35_3372)" stroke="#010101" stroke-width="1.5" stroke-linecap="round" stroke-linejoin="round"><path d="M239.186 57.946c-3.459.041-6.943-.298-10.256-1.292-5.125-1.539-9.809-4.719-12.816-9.145-3.007-4.427-4.236-10.109-2.956-15.306 1.402-5.691 4.025-11.022 8.685-14.576 3.082-2.351 7.053-3.815 11.162-4.476l-1.626-11.854c-6.466.97-12.741 3.242-17.582 6.936-7.13 5.439-11.146 13.597-13.29 22.305-1.958 7.952-.079 16.648 4.523 23.421 4.602 6.774 11.769 11.64 19.612 13.994 5.07 1.522 10.401 2.04 15.694 1.977 3.753-.045 7.538-.401 11.162-1.333l-3.726-11.899c-2.751.895-5.683 1.212-8.586 1.246v.002z" fill="#0066f9"/><path d="M249.358 56.117c-.52.221-1.051.409-1.586.583l3.726 11.899a30.887 30.887 0 004.403-1.466c10.271-4.363 16.744-14.865 18.119-26.005-4.35-.066-8.698-.3-13.029-.716-1.215 6.789-5.32 13.024-11.633 15.705z" fill="#010101"/><path d="M273.057 27.502c-4.265-15.138-17.795-24.668-26.809-26.153-4.68-.771-9.833-.807-14.869-.051l1.626 11.854c3.395-.546 6.884-.544 10.045-.023 5.891.971 14.732 7.198 17.52 17.091.927 3.29 1.027 6.809.422 10.192 4.331.416 8.678.649 13.029.716.563-4.561.276-9.228-.963-13.625l-.001-.001z" fill="#42d242"/><path d="M61.304 169.993L43.085 35.905s45.367-.562 60.319-.562c33.389 0 133.046.562 133.046.562l18.219 134.088H61.304z" fill="#E3E3FF"/><path d="M127.852 128.256l-7.443-73.676s38.95-.765 49.214-.765c16.214 0 56.7.765 56.7.765l7.443 73.676s-49.731.765-64.863.765c-11.346 0-41.051-.765-41.051-.765z" fill="#fff"/><path d="M79.902 141.152c23.137.897 46.308.889 69.445-.023M79.919 151.452l70.92.55M81.037 160.453l29.039.225M171.146 142.334c20.502.385 41.01.479 61.514.283M172.299 151.163c20.313.104 40.628-.159 60.932-.788M175.3 159.59c5.255.618 10.557.832 15.845.641"/><path d="M66.512 169.626a141.018 141.018 0 00-15.622-19.433c-2.329-2.423-4.778-4.788-7.692-6.464-2.914-1.676-6.363-2.619-9.667-2.003-1.305.244-2.622.766-3.465 1.791-1.179 1.431-1.177 3.483-.928 5.321 1.249 9.213 11.887 21.154 11.887 21.154s18.832.335 25.487-.367v.001z" fill="#55D087"/><path d="M35.153 142.969a182.341 182.341 0 0117.539 26.34"/><path d="M41.544 170.073s-8.404-12.248-15.364-15.052c-2.266-.913-4.994-.815-7.172.292-2.515 1.278-3.906 4.265-3.688 7.078.218 2.812 1.855 5.39 3.47 7.626 9.434-.245 22.754.056 22.754.056z" fill="#55D087"/><path d="M21.186 154.951l6.698 14.542M134.261 100.127c8.19-8.29 16.636-16.339 25.785-23.593 9.555 5.01 33.494 17.064 33.494 17.064s13.953-17.963 23.211-26.231"/><path d="M208.317 66.726l9.128.058c.162 2.782.15 5.574-.035 8.355"/><path d="M136.005 104.025c.517 5.023 1.034 7.706 1.55 12.729l5.455-.426c-.545-5.06-1.09-7.78-1.635-12.84-1.789-.109-3.577-.217-5.371.537h.001zM192.873 100.664c.517 5.023 1.274 12.237 1.791 17.261l5.455-.426c-.545-5.06-1.33-12.311-1.875-17.371-1.789-.109-3.577-.218-5.371.536zM154.046 87.719s1.274 24.558 1.791 29.582c1.818-.142 5.455 0 5.455 0l-1.875-30.118-5.371.536zM212.187 79.058s1.755 33.218 2.272 38.242c1.818-.142 5.455 0 5.455 0l-2.356-38.779-5.371.537zM175.042 94.76s-.169 18.141.348 23.164c1.818-.142 5.455 0 5.455 0l-.432-23.701-5.371.537zM.75 82.343c29.331.583 88.119-1.792 88.119-1.792s5.962 25.766 7.644 38.889c-3.796-3.957-7.845-7.672-11.702-11.193-15.434 0-32.44.615-48.811.891-23.209.391-29.375.518-29.375.518S2.644 91.329.75 82.343z" fill="#0066f9"/><path d="M17.3 102.081c1.138-4.483 2.408-9.204 5.702-12.451.765-.754 1.657-1.426 2.697-1.69 2.605-.664 5.152 1.412 6.516 3.728 1.364 2.316 2.089 5.023 3.825 7.075.922 1.089 2.228 1.992 3.653 1.927 2.866-.13 4.146-3.706 6.585-5.217 2.301-1.426 5.308-.803 7.803.245s4.923 2.5 7.626 2.64c4.111.214 7.888-2.654 12.004-2.562 2.732.061 5.844 1.328 7.953-.408"/></g><defs><clipPath id="prefix__clip0_35_3372"><path fill="#fff" d="M0 0h275.046v170.823H0z"/></clipPath></defs></svg>