<svg id="Layer_2" data-name="Layer 2" xmlns="http://www.w3.org/2000/svg" viewBox="0 0 1021.646 637.212" style="width: 100%; height: 100%;">
  <g id="Layer_2-2" data-name="Layer 2">
    <g>
      <path d="m938.781,300.026c-32.282-114.289-203.389-110.204-298.565-141.659C507.782,107.774,387.129-11.525,238.886.902-42.997,24.531-43.901,363.608,74.51,482.018c203.204,203.204,508.058,136.369,745.446,18.098,128.463-64.003,125.92-156.934,118.825-200.09Z" fill="#fff" opacity=".1"></path>
      <path d="m938.781,300.026c-32.282-114.289-203.389-110.204-298.565-141.659C507.782,107.774,387.129-11.525,238.886.902-42.997,24.531-43.901,363.608,74.51,482.018c203.204,203.204,508.058,136.369,745.446,18.098,128.463-64.003,125.92-156.934,118.825-200.09Z" fill="#0066f9" opacity=".1"></path>
      <g>
        <g>
          <rect x="149.285" y="75.748" width="627.105" height="472.854" rx="25.607" ry="25.607" transform="translate(925.676 624.351) rotate(-180)" fill="#fff"></rect>
          <path d="m148.431,522.995V101.355c0-14.59,11.87-26.461,26.461-26.461h575.891c14.59,0,26.461,11.87,26.461,26.461v421.64c0,14.59-11.87,26.461-26.461,26.461H174.892c-14.591,0-26.461-11.87-26.461-26.461Zm26.461-446.394c-13.649,0-24.753,11.104-24.753,24.753v421.64c0,13.649,11.105,24.753,24.753,24.753h575.891c13.649,0,24.753-11.104,24.753-24.753V101.355c0-13.649-11.104-24.753-24.753-24.753H174.892Z" fill="#292a2e"></path>
        </g>
        <path d="m149.286,101.352v25.767s627.102,0,627.102,0v-25.767c0-14.142-11.465-25.607-25.607-25.607H174.893c-14.142,0-25.607,11.465-25.607,25.607Z" fill="#292a2e"></path>
      </g>
      <path d="m492.814,287.441c-12.232,2.67-23.052-7.615-28.561-17.441-6.482-11.562-9.153-25.045-17.27-35.726-7.129-9.381-18.03-15.701-29.649-17.53-5.273-.83-10.885-.928-16.101.345-2.466.602-4.858,1.446-7.184,2.46-10.038,4.379-18.149,12.285-24.452,21.094-7.452,10.417-12.605,22.436-16.129,34.705-4.036,14.048-5.964,28.724-6.043,43.33-.084,15.504,1.944,31.071,6.181,45.99,4.406,15.513,11.248,30.387,20.54,43.586,9.87,14.02,22.393,26.02,36.797,35.32,7.969,5.145,16.474,9.456,25.291,12.948,10.495,4.155,21.803,6.1,33.048,6.587,24.699,1.07,49.777-4.689,72.123-15.075,5.51-2.561,10.866-5.444,16.031-8.645,1.638-1.015.133-3.611-1.514-2.59-20.963,12.994-45.327,20.998-69.914,22.976-11.577.931-23.349.53-34.731-1.89-9.833-2.091-19.129-5.93-28.007-10.592-15.298-8.035-28.996-18.896-40.091-32.16-10.199-12.193-18.07-26.296-23.456-41.236-5.22-14.477-8.205-29.731-9.049-45.09-.798-14.537.256-29.205,3.36-43.436,2.769-12.691,7.13-25.149,13.723-36.377,5.486-9.343,12.689-18.043,21.879-23.738,4.177-2.588,8.459-4.502,13.307-5.486,11.315-2.297,23.721,1.164,32.963,7.822,4.805,3.461,8.706,7.933,11.712,13.019,3.36,5.684,5.691,11.88,8.149,17.986,2.384,5.922,4.849,11.931,8.585,17.151,3.492,4.881,7.921,9.29,13.261,12.119,4.949,2.623,10.485,3.67,15.996,2.467,1.885-.412,1.087-3.304-.798-2.893h0Z" fill="#0066f9"></path>
      <g>
        <g>
          <path d="m791.488,283.467s-12.175-14.739-9.71-41.404c1.908-20.646,17.246-3.323,17.246-3.323,0,0,1.519-14.852,11.664-10.926,10.145,3.926,12.421,20.451,12.421,20.451" fill="#0c0c0c"></path>
          <path d="m864.507,242.414s50.718,17.977,15.104,84.023l-4.679-.788-9.498-1.6" fill="#0c0c0c"></path>
          <path id="sk" d="m788.154,393.767c.235-.031,2.846,43.283,53.163,39.506,34.835-2.61,47.255-39.568,48.053-39.568-3.756-.798-8.397-2.01-10.242-2.425-6.128-1.381-13.779-6.438-15.547-17.09-1.019-6.139.71-37.549.178-43.76l-53.471,11.935c.747,13.119,5.976,43.533-12.352,48.916-3.05.89-6.334,1.709-9.783,2.487Z" fill="#ff9e85"></path>
          <path id="sh" d="m809.539,378.851c.758-2.417,1.208-4.52,1.608-8.299.716-6.758.335-12.971-.35-19.302,10.802-1.438,21.173-5.981,29.553-12.947.993,3.667,6.453,19.689,4.941,23.174-2.858,6.587-16.287,17.375-35.753,17.375Z" fill="#0c0c0c" opacity=".22"></path>
          <path d="m814.689,364.661c20.959,3.048,48.609-4.068,55.598-31.839l6.306-25.058c6.989-27.771-1.931-53.955-28.079-60.535h0c-26.148-6.581-51.358,11.014-58.347,38.785l-2.792,11.094c-.575,2.284-1.366,6.442-1.887,11.619-1.039,10.33-2.579,26.046,1.763,37.96,4.1,11.248,14.047,16.028,27.438,17.975Z" fill="#ff9e85"></path>
          <g>
            <g>
              <circle id="e1_eye" cx="797.984" cy="302.343" r="2.94" transform="translate(419.244 1067.029) rotate(-84.402)" fill="#0a0a0a"></circle>
              <g id="e1_n">
                <path d="m814.234,326.907c.592.058,1.143-.339,1.265-.935.13-.636-.279-1.258-.916-1.388l-6.135-1.256,5.029-12.007c.25-.599-.032-1.288-.632-1.539-.599-.25-1.287.031-1.539.63l-5.581,13.327c-.136.325-.119.693.046,1.004s.459.532.804.603l7.537,1.542c.041.008.082.014.122.018Z" fill="#0a0a0a"></path>
              </g>
              <g id="e1_m">
                <path d="m814.311,340.296c10.609,1.04,14.395-5.062,14.566-5.349.333-.558.151-1.279-.406-1.613-.554-.332-1.273-.152-1.609.4-.159.26-4.016,6.239-15.554,3.699-.647-.145-1.263.262-1.402.896-.139.634.262,1.262.895,1.401,1.245.274,2.414.458,3.509.565Z" fill="#0a0a0a"></path>
              </g>
              <path id="e1_eb" d="m827.735,294.548c-.366.844,2.677,2.459,7.02,4.091,4.343,1.632,8.295,2.89,8.706,1.82.519-1.351-2.484-4.947-6.826-6.579-4.343-1.632-8.323-.659-8.9.668Z" fill="#0a0a0a"></path>
              <circle id="e1_eye-2" data-name="e1_eye" cx="827.143" cy="307.084" r="2.94" transform="translate(440.84 1100.328) rotate(-84.402)" fill="#0a0a0a"></circle>
            </g>
            <path id="e1_eb-2" data-name="e1_eb" d="m792.136,291.677c.008.92,3.445,1.161,8.076.891,4.631-.27,8.754-.724,8.695-1.869-.074-1.446-3.792-3.568-8.424-3.298-4.631.27-8.36,2.829-8.348,4.276Z" fill="#0a0a0a"></path>
          </g>
          <path d="m866.533,340.874c7.946,2,16.527-4.88,18.527-12.826,2-7.946-3.339-13.95-11.285-15.949l-5.435,4.294-8.639,22.763,6.832,1.719Z" fill="#ff9e85"></path>
          <path d="m864.135,326.538c-1.358-.197-2.304-1.448-2.113-2.807,1.233-8.777,4.625-38.401-5.043-42.891-7.574-3.517-29.566,3.176-46.634-4.493-7.467-3.355-15.354-3.188-16.989.327-.648,1.392-.513-20.792,15.537-33.83,12.779-10.381,45.549-6.366,59.077,1.258,37.458,21.111,7.036,70.123,7.036,70.123l-4.317,11.296c-.417,1.091-1.534,1.746-2.69,1.578l-3.864-.562Z" fill="#0c0c0c"></path>
          <ellipse cx="826.348" cy="244.835" rx="16.512" ry="11.218" transform="translate(252.986 888.303) rotate(-64.801)" fill="#0c0c0c"></ellipse>
        </g>
        <path id="b_1_b" d="m842.939,421.382c34.092-1.607,35.527-30.544,35.527-30.544,0,0,16.892,1.092,28.121,2.611,18.384,2.487,30.512,8.721,40.163,18.372,8.978,8.978,14.444,18.692,8.66,80.711-4.188,44.906-1.24,143.679-1.24,143.679h-205.75s-12.338-129.465-14.058-149.679c-3.283-38.589-5.948-72.206,2.064-80.218,16.471-16.471,48.797-15.476,62.958-15.474.231,0-2.873,32.73,43.555,30.541Z" fill="#0066f9"></path>
        <g>
          <path d="m786.572,560.82l-29.929-16.653c-2.755-1.533-6.27-.407-7.588,2.535-1.168,2.608.066,5.683,2.563,7.073l6.418,3.571-25.336-1.966c-2.813-.268-6.436,1.203-6.529,4.378-.244,2.562,1.341,4.872,3.683,5.651-.006.027-.019.052-.019.079-.002.022.007.041.008.062l-4.338-.413c-3.345-.318-6.269,2.476-5.902,6.012.269,2.589,2.484,4.551,5.075,4.797l1.846.176c.02.056.049.108.087.153-2.557.342-4.614,2.483-4.696,5.217-.087,2.898,2.275,5.296,5.162,5.57l4.585.436c-.134.08-.233.214-.25.384-.007.099.022.189.066.271-2.112.908-3.571,3.122-3.241,5.726.322,2.533,2.517,4.421,5.06,4.663l38.686,3.68c11.071,1.053,21.674-4.716,26.803-14.585h0c4.495-8.649,1.293-19.303-7.224-24.042l-4.987-2.775Z" fill="#ff9e85"></path>
          <g fill="none" opacity=".2">
            <path d="m754.923,567.479c-.028.27-.266.469-.537.447l-24.092-1.9c-.275-.022-.481-.262-.459-.538,0-.26.263-.481.538-.459l24.092,1.9c.275.022.481.262.459.538v.012Z" fill="#0c0c0c"></path>
            <path d="m754.378,578.128c-.028.27-.266.469-.537.447l-26.887-2.121c-.275-.022-.481-.262-.459-.538.021-.252.263-.481.538-.459l26.887,2.121c.275.022.481.262.459.538v.012Z" fill="#0c0c0c"></path>
            <path d="m753.854,589.664c-.028.27-.266.469-.537.447l-21.447-1.691c-.275-.022-.481-.262-.459-.538.028-.277.263-.481.538-.459l21.447,1.691c.275.022.481.262.459.538v.012Z" fill="#0c0c0c"></path>
          </g>
        </g>
        <path id="b_4_b" d="m769.576,614.517l186.838,20.975c1.356.147,2.712.22,4.061.22,10.264,0,20.15-4.216,27.274-11.767,8.061-8.545,11.652-20.372,9.703-31.955l-39.842-159.603c-3.437-20.423-22.775-34.19-43.202-30.759-20.423,3.436-34.195,22.778-30.759,43.202l30.555,116.235-135.764-13.546-8.865,66.997Z" fill="#0066f9"></path>
        <g id="b_4_st">
          <path d="m938.559,564.558c.244,0,.457-.178.494-.426.041-.273-.147-.527-.42-.568l-23.288-3.487c-.283-.043-.528.147-.569.42-.041.273.147.527.42.568l23.288,3.487c.025.004.05.006.075.006Z" fill="#0c0c0c"></path>
        </g>
        <g id="b_4_st-2" data-name="b_4_st">
          <path d="m951.213,636.212c.248,0,.462-.184.495-.436.036-.273-.157-.524-.431-.561l-180.654-21.077,8.757-66.001,134.825,12.929c.158.019.315-.035.425-.148.11-.114.16-.274.134-.431l-14.589-67.941c-.045-.272-.298-.461-.576-.41-.272.046-.456.304-.41.576l14.477,67.273-134.661-12.907c-.133-.019-.269.02-.375.103s-.174.206-.188.34l-8.865,66.997c-.029.27.163.515.432.55l181.139,21.141c.022.003.044.004.065.004Z" fill="#0c0c0c"></path>
        </g>
        <g>
          <path d="m567.167,291.567c-.979-2.93-4.219-4.468-7.131-3.323-2.731,1.074-3.981,4.265-3.051,7.049l2.32,6.941-17.375-18.545c-1.896-2.096-5.563-3.455-7.773-1.173-1.908,1.726-2.292,4.498-1.089,6.653-.024.017-.053.027-.073.049-.016.015-.023.035-.037.051l-.094-.11c-2.243-2.48-6.258-2.403-8.381.414-1.577,2.093-1.28,5.063.478,7.007l.956,1.087c-.024.056-.038.116-.041.176-2.1-1.461-4.74-1.001-6.646.914-2.07,2.08-1.935,5.504.034,7.68h0c-.152-.031-.088.259-.214.373-.073.068-.111.154-.134.244-2.12-.737-4.62-.136-6.145,1.888-1.577,2.093-1.28,5.064.479,7.007l26.072,28.817c7.461,8.247,19.18,11.142,29.623,7.318l16.437-6.019-18.213-54.499Z" fill="#ff9e85"></path>
          <path d="m520.905,324.675c.982,1.04,2.271,1.669,3.675,1.802.181.017.364.026.548.027,1.615.005,3.121-.638,4.239-1.81,1.392-1.459,1.805-3.567,1.3-5.506.817.547,1.745.897,2.738.992.187.018.376.027.565.028,1.664.005,3.214-.658,4.367-1.865,1.463-1.533,1.873-3.761,1.304-5.789.777.483,1.642.801,2.568.889.187.018.376.027.565.028,1.664.005,3.214-.658,4.367-1.865,2.167-2.27,2.079-6.077-.193-8.485l-11.558-12.443c-.187-.201-.503-.215-.707-.026-.202.188-.214.504-.026.707l11.56,12.446c1.916,2.03,2.005,5.22.2,7.111-.961,1.007-2.254,1.559-3.64,1.555-1.39-.004-2.676-.561-3.627-1.57-.085-.09-.738-.757-1-1.034l-11.264-12.315c-.183-.205-.499-.225-.706-.041-.206.183-.224.5-.041.706l11.274,12.326c1.916,2.03,2.005,5.219.2,7.111-.961,1.007-2.254,1.559-3.64,1.555-1.388,0-2.675-.561-3.622-1.565l-10.46-11.094c-.185-.204-.501-.218-.706-.034-.204.186-.219.502-.034.706l9.299,9.92c1.849,1.959,1.936,5.038.194,6.863-.927.971-2.175,1.504-3.513,1.501-1.337-.004-2.581-.542-3.495-1.51l-.732.681Z" fill="#0c0c0c" opacity=".2"></path>
          <path d="m542.73,295.138c-1.128,0-2.256-.421-3.13-1.267-3.128-3.029-6.812-6.116-7.883-6.607-4.507-2.016-11.336-3.012-13.588-3.226-2.474-.235-4.29-2.431-4.055-4.905.235-2.474,2.434-4.289,4.905-4.055.391.037,9.645.943,16.414,3.971,3.179,1.423,8.817,6.757,10.469,8.357,1.785,1.729,1.83,4.578.101,6.363-.882.911-2.057,1.369-3.232,1.369Z" fill="#ff9e85"></path>
          <g>
            <polygon points="491.907 294.532 493.316 281.401 592.296 290.711 590.886 303.841 491.907 294.532" fill="#0066f9"></polygon>
            <polygon points="491.907 294.532 493.316 281.401 592.296 290.711 590.886 303.841 491.907 294.532" fill="#fff" opacity=".5"></polygon>
            <polygon points="601.774 304.978 603.183 291.848 592.296 290.711 590.886 303.841 601.774 304.978" fill="#262626"></polygon>
            <path d="m491.907,294.532s-3.272-2.308-6.196-4.384c-2.319-1.647-4.419-3.147-4.492-3.235-.076-.09,2.382-1.222,5.102-2.436,3.304-1.476,6.997-3.076,6.997-3.076l-1.41,13.131Z" fill="#0066f9"></path>
            <path d="m491.907,294.532s-3.272-2.308-6.196-4.384c-2.319-1.647-4.419-3.147-4.492-3.235-.076-.09,2.382-1.222,5.102-2.436,3.304-1.476,6.997-3.076,6.997-3.076l-1.41,13.131Z" fill="#fff" opacity=".9"></path>
            <path d="m485.71,290.148c-2.319-1.647-4.419-3.147-4.492-3.235-.076-.09,2.382-1.222,5.102-2.436l-.61,5.672Z" fill="#262626"></path>
            <polygon points="492.374 290.446 591.331 299.518 591.269 300.117 492.312 291.046 492.374 290.446" fill="#fff"></polygon>
            <polygon points="492.923 285.309 591.88 294.38 591.818 294.98 492.861 285.908 492.923 285.309" fill="#fff"></polygon>
          </g>
          <path d="m560.063,304.816l-3.079-9.523c-.93-2.783.32-5.974,3.051-7.049,2.912-1.146,6.152.392,7.132,3.323l5.38,16.098" fill="#ff9e85"></path>
        </g>
        <path d="m630.055,508.332c-13.496,0-26.304-7.317-32.981-19.662l-74.604-142.613,61.967-33.685,64.277,114.127,110.061-32.039,17.617,73.822-136.033,38.604c-3.419.977-6.883,1.446-10.302,1.446Z" fill="#0066f9"></path>
        <path d="m733.826,480.686c-.25,0-.466-.188-.496-.441l-2.993-25.515c-.032-.274.164-.523.438-.556.269-.029.522.165.555.438l2.993,25.515c.032.274-.164.523-.438.556-.02.002-.039.003-.059.003Z" fill="#0c0c0c"></path>
      </g>
      <rect x="176.549" y="153.078" width="105.652" height="363.346" rx="11.278" ry="11.278" fill="#292a2e"></rect>
      <g>
        <path d="m174.659,617.002c.333,0,.652-.185.808-.504l23.684-48.578c.217-.446.032-.983-.413-1.201-.446-.217-.983-.032-1.201.413l-23.684,48.578c-.217.446-.032.983.413,1.201.127.062.261.091.393.091Z" fill="#292a2e"></path>
        <path d="m134.623,614.183c.399,0,.762-.267.868-.67l27.406-104.634c.126-.48-.161-.971-.641-1.096-.482-.125-.971.162-1.096.641l-27.406,104.634c-.126.48.161.971.641,1.096.076.02.153.029.228.029Z" fill="#292a2e"></path>
        <path d="m82.343,618.814c.117,0,.236-.023.35-.072.457-.194.669-.721.476-1.177l-28.331-66.722c-.194-.457-.722-.67-1.177-.476-.457.194-.669.721-.476,1.177l28.331,66.722c.145.342.477.548.827.548Z" fill="#292a2e"></path>
        <path d="m133.607,634.274c.072,0,.146-.008.219-.027.481-.12.773-.608.653-1.089l-32.921-131.698c-.121-.481-.609-.773-1.089-.653-.481.12-.773.608-.653,1.089l32.921,131.698c.102.408.468.68.87.68Z" fill="#292a2e"></path>
        <ellipse cx="92.741" cy="514.555" rx="37.649" ry="32.325" transform="translate(-411.76 377.272) rotate(-64.56)" fill="#48cf48"></ellipse>
        <ellipse cx="92.741" cy="514.555" rx="37.649" ry="32.325" transform="translate(-411.76 377.272) rotate(-64.56)" fill="#fff" opacity=".4"></ellipse>
        <ellipse cx="48.973" cy="564.722" rx="22.58" ry="18.922" transform="translate(-493.158 399.181) rotate(-68.063)" fill="#48cf48"></ellipse>
        <ellipse cx="171.046" cy="524.954" rx="27.245" ry="33.438" transform="translate(-145.005 72.245) rotate(-16.873)" fill="#48cf48"></ellipse>
        <ellipse cx="202.084" cy="574.077" rx="14.757" ry="20.77" transform="translate(-92.052 41.267) rotate(-9.508)" fill="#48cf48"></ellipse>
        <rect x="55.918" y="600.66" width="139.841" height="34.848" transform="translate(251.678 1236.169) rotate(-180)" fill="#292a2e"></rect>
        <rect x="55.918" y="600.66" width="139.841" height="34.848" transform="translate(251.678 1236.169) rotate(-180)" fill="#fff" opacity=".3"></rect>
        <ellipse cx="100.688" cy="583.235" rx="27.546" ry="23.19" transform="translate(-477.935 458.748) rotate(-68.063)" fill="#48cf48"></ellipse>
        <circle cx="153.236" cy="583.87" r="21.424" fill="#48cf48"></circle>
        <ellipse cx="48.973" cy="564.722" rx="22.58" ry="18.922" transform="translate(-493.158 399.181) rotate(-68.063)" fill="#fff" opacity=".68"></ellipse>
        <ellipse cx="171.046" cy="524.954" rx="27.245" ry="33.438" transform="translate(-145.005 72.245) rotate(-16.873)" fill="#fff" opacity=".68"></ellipse>
        <ellipse cx="202.084" cy="574.077" rx="14.757" ry="20.77" transform="translate(-92.052 41.267) rotate(-9.508)" fill="#fff" opacity=".68"></ellipse>
        <ellipse cx="100.688" cy="583.235" rx="27.546" ry="23.19" transform="translate(-477.935 458.748) rotate(-68.063)" fill="#fff" opacity=".68"></ellipse>
        <circle cx="153.236" cy="583.87" r="21.424" fill="#fff" opacity=".4"></circle>
        <path d="m84.422,565.834c16.261,4.543,24.819-8.746,24.819-8.746l-.009-.018c-8.674-2.586-18.291,1.051-24.81,8.764Z" fill="#292a2e"></path>
        <path d="m187.135,571.275c8.018-2.945,14.412-8.845,18.686-16.468-2.272-1.158-4.723-1.625-7.165-1.212-6.77,1.131-11.368,8.593-11.52,17.68Z" fill="#292a2e"></path>
        <path d="m149.414,562.79c6.627,5.765,14.385,9.41,22.349,10.317-3.717-6.375-10.622-10.658-18.524-10.658-1.311,0-2.586.117-3.825.341Z" fill="#292a2e"></path>
      </g>
      <path d="m1,637.212h1019.646c.552,0,1-.448,1-1,0-.552-.448-1-1-1H1c-.552,0-1,.448-1,1,0,.552.448,1,1,1Z" fill="#292a2e"></path>
      <g>
        <g>
          <rect x="191.734" y="232.874" width="26.854" height="26.854" rx="4.476" ry="4.476" fill="#292a2e"></rect>
          <path d="m214.112,260.228h-17.903c-2.744,0-4.976-2.232-4.976-4.976v-17.903c0-2.744,2.232-4.976,4.976-4.976h17.903c2.744,0,4.976,2.232,4.976,4.976v17.903c0,2.744-2.232,4.976-4.976,4.976Zm-17.903-26.854c-2.192,0-3.976,1.783-3.976,3.976v17.903c0,2.192,1.783,3.976,3.976,3.976h17.903c2.192,0,3.976-1.783,3.976-3.976v-17.903c0-2.192-1.783-3.976-3.976-3.976h-17.903Z" fill="#fff"></path>
        </g>
        <g>
          <rect x="236.236" y="232.386" width="26.854" height="26.854" rx="13.427" ry="13.427" fill="#292a2e"></rect>
          <path d="m249.663,259.74c-7.679,0-13.927-6.248-13.927-13.927s6.248-13.927,13.927-13.927,13.927,6.248,13.927,13.927-6.248,13.927-13.927,13.927Zm0-26.854c-7.128,0-12.927,5.799-12.927,12.927s5.799,12.927,12.927,12.927,12.927-5.799,12.927-12.927-5.799-12.927-12.927-12.927Z" fill="#fff"></path>
        </g>
        <g>
          <polygon points="195.123 171.238 194.721 207.295 205.731 197.183 219.9 197.436 195.123 171.238" fill="#292a2e"></polygon>
          <path d="m194.721,207.795c-.069,0-.138-.014-.204-.043-.182-.081-.298-.263-.296-.462l.402-36.057c.002-.204.128-.386.318-.46.188-.074.405-.026.545.122l24.777,26.198c.138.146.175.361.094.545-.082.184-.255.315-.466.298l-13.969-.25-10.863,9.976c-.094.086-.216.132-.338.132Zm.888-35.315l-.375,33.665,10.16-9.33c.094-.087.221-.128.347-.132l12.979.232-23.11-24.436Z" fill="#fff"></path>
        </g>
        <g>
          <polygon points="239.935 171.238 239.533 207.295 250.544 197.183 264.712 197.436 239.935 171.238" fill="#fff"></polygon>
          <path d="m239.533,207.795c-.069,0-.138-.014-.204-.043-.182-.081-.298-.263-.296-.462l.402-36.057c.002-.204.128-.386.318-.46.188-.074.405-.026.545.122l24.777,26.198c.138.146.175.361.094.545s-.249.315-.466.298l-13.969-.25-10.863,9.976c-.094.086-.216.132-.338.132Zm.888-35.315l-.375,33.665,10.159-9.33c.095-.087.228-.128.347-.132l12.979.232-23.11-24.436Z" fill="#292a2e"></path>
        </g>
        <g>
          <g>
            <polygon points="195.674 285.213 193.653 311.468 199.979 315.035 213.816 309.552 214.493 302.177 195.674 285.213" fill="#292a2e"></polygon>
            <path d="m199.979,315.535c-.085,0-.17-.021-.246-.064l-6.326-3.566c-.169-.095-.268-.28-.253-.474l2.021-26.255c.015-.19.136-.355.313-.426s.378-.035.521.093l18.819,16.964c.117.106.177.26.163.417l-.677,7.375c-.018.188-.139.35-.314.419l-13.838,5.483c-.059.023-.122.035-.184.035Zm-5.803-4.346l5.84,3.293,13.331-5.282.625-6.82-17.877-16.115-1.919,24.924Z" fill="#fff"></path>
          </g>
          <g>
            <line x1="195.674" y1="285.213" x2="201.716" y2="300.482" fill="#292a2e"></line>
            <path d="m201.716,300.982c-.199,0-.387-.12-.465-.316l-6.042-15.269c-.102-.257.024-.547.281-.649.257-.102.547.024.649.281l6.042,15.269c.102.257-.024.547-.281.649-.061.024-.123.035-.184.035Z" fill="#fff"></path>
          </g>
          <g>
            <circle cx="202.639" cy="302.789" r="3.362" fill="#292a2e"></circle>
            <path d="m202.639,306.651c-2.129,0-3.862-1.732-3.862-3.862s1.732-3.861,3.862-3.861,3.861,1.732,3.861,3.861-1.732,3.862-3.861,3.862Zm0-6.723c-1.578,0-2.862,1.284-2.862,2.861s1.284,2.862,2.862,2.862,2.861-1.284,2.861-2.862-1.284-2.861-2.861-2.861Z" fill="#fff"></path>
          </g>
          <path d="m196.706,315.96l19.799-7.846c.721-.286,1.537.054,1.843.767l1.439,3.358c.319.744-.042,1.604-.797,1.898l-19.868,7.726c-.721.281-1.535-.063-1.837-.776l-1.37-3.238c-.313-.74.044-1.592.791-1.888Z" fill="#fff"></path>
        </g>
        <g>
          <g>
            <g>
              <polygon points="243.218 289.149 241.311 313.913 247.278 317.277 260.33 312.105 260.968 305.15 243.218 289.149" fill="#292a2e"></polygon>
              <path d="m247.278,317.777c-.085,0-.169-.021-.246-.064l-5.967-3.364c-.169-.095-.268-.28-.253-.474l1.907-24.764c.015-.19.136-.355.313-.426.177-.07.378-.035.521.093l17.75,16c.117.106.177.26.163.417l-.639,6.956c-.018.188-.139.35-.314.419l-13.052,5.171c-.059.023-.122.035-.184.035Zm-5.444-4.143l5.481,3.09,12.544-4.97.587-6.401-16.809-15.152-1.804,23.433Z" fill="#fff"></path>
            </g>
            <g>
              <line x1="243.218" y1="289.149" x2="248.916" y2="303.551" fill="#292a2e"></line>
              <path d="m248.916,304.051c-.199,0-.387-.12-.465-.316l-5.698-14.402c-.102-.257.024-.547.281-.649.256-.101.547.024.649.281l5.698,14.402c.102.257-.024.547-.281.649-.061.024-.123.035-.184.035Z" fill="#fff"></path>
            </g>
            <g>
              <circle cx="249.787" cy="305.727" r="3.171" fill="#292a2e"></circle>
              <path d="m249.787,309.398c-2.024,0-3.671-1.647-3.671-3.671s1.647-3.671,3.671-3.671,3.671,1.647,3.671,3.671-1.647,3.671-3.671,3.671Zm0-6.342c-1.473,0-2.671,1.198-2.671,2.671s1.198,2.671,2.671,2.671,2.671-1.198,2.671-2.671-1.198-2.671-2.671-2.671Z" fill="#fff"></path>
            </g>
            <path d="m244.191,318.15l18.674-7.401c.68-.269,1.45.051,1.738.723l1.357,3.167c.301.702-.04,1.513-.751,1.79l-18.739,7.288c-.68.265-1.448-.06-1.733-.732l-1.292-3.054c-.295-.698.042-1.502.746-1.781Z" fill="#fff"></path>
          </g>
          <path d="m256.125,291.558c-.276,0-.5-.224-.5-.5v-9.648c0-.276.224-.5.5-.5s.5.224.5.5v9.648c0,.276-.224.5-.5.5Z" fill="#fff"></path>
          <path d="m260.949,286.734h-9.648c-.276,0-.5-.224-.5-.5s.224-.5.5-.5h9.648c.276,0,.5.224.5.5s-.224.5-.5.5Z" fill="#fff"></path>
        </g>
        <g>
          <path d="m196.038,375.935c-.638,0-1.284-.162-1.875-.502h0c-.874-.503-1.499-1.316-1.761-2.289-.262-.973-.129-1.99.374-2.863l10.123-17.588c.138-.239.443-.32.683-.184l5.672,3.265c.115.066.199.175.233.304.034.128.017.264-.05.379l-10.123,17.588c-.697,1.211-1.969,1.89-3.276,1.89Zm-1.376-1.369c1.324.763,3.023.305,3.786-1.02l9.874-17.154-4.806-2.766-9.874,17.155c-.369.642-.467,1.389-.274,2.104.192.715.652,1.312,1.294,1.682h0Z" fill="#fff"></path>
          <rect x="199.828" y="350.613" width="14.342" height="5.037" rx="2.518" ry="2.518" transform="translate(203.75 -56.185) rotate(29.923)" fill="#fff"></rect>
          <path d="m209.288,344.566h0c1.531,0,2.774,1.243,2.774,2.774v6.403h-5.549v-6.403c0-1.531,1.243-2.774,2.774-2.774Z" transform="translate(202.072 -57.857) rotate(29.923)" fill="#fff"></path>
        </g>
        <g>
          <path d="m250.992,374.055c-3.855,0-7.481-1.498-10.213-4.22-.195-.195-.196-.511,0-.707.195-.195.511-.196.707,0,5.262,5.241,13.809,5.227,19.053-.037,5.242-5.263,5.226-13.809-.037-19.052-5.263-5.243-13.81-5.227-19.053.037-.194.196-.51.198-.707,0-.195-.195-.196-.511,0-.707,5.632-5.653,14.813-5.67,20.467-.039,5.653,5.632,5.67,14.813.039,20.466-2.728,2.738-6.359,4.251-10.225,4.258h-.029Z" fill="#fff"></path>
          <path d="m246.58,351.502c-.029,0-.059-.002-.089-.008l-6.024-1.081c-.133-.024-.25-.1-.326-.212-.076-.111-.103-.249-.076-.381l1.163-5.664c.055-.27.315-.444.59-.389.271.056.445.32.389.59l-1.06,5.162,5.52.99c.272.049.453.309.404.581-.043.242-.254.412-.492.412Z" fill="#fff"></path>
        </g>
        <g>
          <path d="m260.193,423.745h-24.075c-.276,0-.5-.224-.5-.5v-24.074c0-.276.224-.5.5-.5h24.075c.276,0,.5.224.5.5v24.074c0,.276-.224.5-.5.5Zm-23.575-1h23.075v-23.074h-23.075v23.074Z" fill="#fff"></path>
          <g>
            <rect x="243.386" y="407.831" width="23.904" height="23.904" rx="5.469" ry="5.469" fill="#292a2e"></rect>
            <path d="m261.822,432.234h-12.967c-3.291,0-5.969-2.677-5.969-5.968v-12.967c0-3.291,2.678-5.969,5.969-5.969h12.967c3.291,0,5.968,2.678,5.968,5.969v12.967c0,3.291-2.677,5.968-5.968,5.968Zm-12.967-23.903c-2.74,0-4.969,2.229-4.969,4.969v12.967c0,2.739,2.229,4.968,4.969,4.968h12.967c2.74,0,4.968-2.229,4.968-4.968v-12.967c0-2.74-2.229-4.969-4.968-4.969h-12.967Z" fill="#fff"></path>
          </g>
        </g>
        <g>
          <g>
            <rect x="190.804" y="402.048" width="20.538" height="20.538" rx="10.269" ry="10.269" fill="#292a2e"></rect>
            <path d="m201.073,423.086c-5.938,0-10.769-4.831-10.769-10.769s4.831-10.769,10.769-10.769,10.769,4.831,10.769,10.769-4.831,10.769-10.769,10.769Zm0-20.537c-5.387,0-9.769,4.382-9.769,9.769s4.382,9.769,9.769,9.769,9.769-4.382,9.769-9.769-4.382-9.769-9.769-9.769Z" fill="#fff"></path>
          </g>
          <rect x="208.932" y="420.394" width="1" height="13.552" transform="translate(-187.552 164.987) rotate(-30.44)" fill="#fff"></rect>
        </g>
        <g>
          <path d="m266.445,489.327h-26.829v-26.829h26.829v26.829Zm-25.829-1h24.829v-24.829h-24.829v24.829Z" fill="#fff"></path>
          <path d="m240.116,463.497c-.276,0-.5-.224-.5-.5v-7.826c0-.276.224-.5.5-.5s.5.224.5.5v7.826c0,.276-.224.5-.5.5Z" fill="#fff"></path>
          <path d="m240.031,463.497h-7.826c-.276,0-.5-.224-.5-.5s.224-.5.5-.5h7.826c.276,0,.5.224.5.5s-.224.5-.5.5Z" fill="#fff"></path>
        </g>
        <path d="m200.369,491.108h2.114l6.743-31.684h9.849l.328-1.649h-21.782l-.36,1.649h9.803l-6.694,31.684Z" fill="#fff"></path>
      </g>
      <g>
        <path d="m671.628,620.132l-41.315-127.002c-1.489-4.578-5.757-7.677-10.571-7.677h-168.321c-7.554,0-12.908,7.372-10.571,14.555l41.315,127.002c1.489,4.578,5.757,7.677,10.571,7.677h168.321c7.554,0,12.908-7.372,10.571-14.555Z" fill="#292a2e"></path>
        <rect x="632.842" y="624.389" width="122.841" height="10.298" rx="5.084" ry="5.084" fill="#292a2e"></rect>
        <circle cx="556.238" cy="566.266" r="17.654" fill="#fff"></circle>
      </g>
    </g>
  </g>
</svg>