<svg xmlns="http://www.w3.org/2000/svg" xmlns:xlink="http://www.w3.org/1999/xlink" viewBox="0 0 761.13 761.14"><defs><style>.cls-1{fill:#0066f9;}.cls-2{fill:#fff;}.cls-3{fill:url(#linear-gradient);}</style><linearGradient id="linear-gradient" x1="476.39" y1="470.71" x2="387.25" y2="409.05" gradientUnits="userSpaceOnUse"><stop offset="0" stop-color="#0066f9" stop-opacity="0"/><stop offset="0.22" stop-color="#005de1" stop-opacity="0.17"/><stop offset="0.64" stop-color="#0045a2" stop-opacity="0.59"/><stop offset="1" stop-color="#002f66"/></linearGradient></defs><g id="Layer_2" data-name="Layer 2"><g id="Layer_1-2" data-name="Layer 1"><path class="cls-1" d="M627,240.85a43.73,43.73,0,0,0-61.25,0A42.18,42.18,0,0,0,553,271.42V296h.4v82.76l0,1a62.88,62.88,0,0,1-1.2,10.82,64.67,64.67,0,0,1-14.55,29.94A65.74,65.74,0,0,1,517.4,436l-2,.9-.1-.21a56.79,56.79,0,0,1-20.15,5A70.61,70.61,0,0,1,474,439.83a59.32,59.32,0,0,1-19.3-9.28,64.67,64.67,0,0,1-15.48-15.83l-.35-.5a52,52,0,0,1-8.69-18.17,67.12,67.12,0,0,1-2.09-21.25,62.19,62.19,0,0,1,2.81-15.42c1.53-4.68,3.73-9.1,5.63-13.63s3.42-9.1,5.48-13.51c1-2.16,2.38-4.37,3-6.7a173.15,173.15,0,0,0,9.79-51.27c.06-2.43.07-4.86,0-7.25a32.11,32.11,0,0,0-14.65-26.26l-2.32-1.25-2.2-1.17a31.74,31.74,0,0,0-13-2.84H393.69a31.86,31.86,0,0,0-22.9,9.61,32.21,32.21,0,0,0-9.27,23.34c0,2,0,4.1-.15,6.31a68.06,68.06,0,0,1-6.58,26.3,81.23,81.23,0,0,1-15.64,22.32,67.1,67.1,0,0,1-9.74,7.42c-4,2.46-8.12,4.78-12.39,6.93a67.28,67.28,0,0,1-28.5,6.11,70.88,70.88,0,0,1-29.65-6.4,74.11,74.11,0,0,1-24.42-17.19,72.1,72.1,0,0,1-19.61-57,25.26,25.26,0,0,0-25.16-27.79h-42.8A25.25,25.25,0,0,0,121.79,259c-.18,2.61-.27,5.36-.27,8.4v219a45.46,45.46,0,0,0,13.65,33,47.18,47.18,0,0,0,66.09,0,45.48,45.48,0,0,0,13.64-33V418.87a164.46,164.46,0,0,0,134,5.67,152.55,152.55,0,0,0,8.65,21.58l.43.86A148.09,148.09,0,0,0,479.3,527.36c3.69.26,7.37.39,11,.39a150.21,150.21,0,0,0,64.17-14.37,153.25,153.25,0,0,0,31.61-20.51,149.15,149.15,0,0,0,25.53-27.57,154.36,154.36,0,0,0,17.76-32.72,148.72,148.72,0,0,0,9.09-35.07c0-.35.1-.71.14-1.06l.07-.52q.43-3.71.68-7.19c.16-2.4.24-4.87.24-7.54V271.42A42.18,42.18,0,0,0,627,240.85Z"/><path class="cls-2" d="M575.59,0H185.52C83.22,0,0,83.23,0,185.53V575.6C0,677.91,83.22,761.14,185.52,761.14H575.59c102.3,0,185.54-83.23,185.54-185.54V185.53C761.13,83.23,677.89,0,575.59,0Zm64,381.2c0,2.67-.08,5.14-.24,7.54s-.39,4.72-.68,7.19l-.07.52c0,.35-.09.71-.14,1.06a148.72,148.72,0,0,1-9.09,35.07,154.36,154.36,0,0,1-17.76,32.72,149.15,149.15,0,0,1-25.53,27.57,153.25,153.25,0,0,1-31.61,20.51,150.21,150.21,0,0,1-64.17,14.37c-3.65,0-7.33-.13-11-.39A148.09,148.09,0,0,1,358,447l-.43-.86a152.55,152.55,0,0,1-8.65-21.58,167.12,167.12,0,0,1-39.56,10.23,166.89,166.89,0,0,1-94.41-15.9v67.46a45.48,45.48,0,0,1-13.64,33,47.18,47.18,0,0,1-66.09,0,45.46,45.46,0,0,1-13.65-33V267.38c0-3,.09-5.79.27-8.4a25.25,25.25,0,0,1,25.09-23.48h42.8a25.26,25.26,0,0,1,25.16,27.79,72.1,72.1,0,0,0,19.61,57,74.11,74.11,0,0,0,24.42,17.19,70.88,70.88,0,0,0,29.65,6.4,67.28,67.28,0,0,0,28.5-6.11c4.27-2.15,8.44-4.47,12.39-6.93a67.1,67.1,0,0,0,9.74-7.42,81.23,81.23,0,0,0,15.64-22.32,68.06,68.06,0,0,0,6.58-26.3c.14-2.21.18-4.28.15-6.31a32.21,32.21,0,0,1,9.27-23.34,31.86,31.86,0,0,1,22.9-9.61h28.88a31.74,31.74,0,0,1,13,2.84l1.93,1,2.59,1.4A32.11,32.11,0,0,1,454.75,267c.05,2.39,0,4.82,0,7.25a173.15,173.15,0,0,1-9.79,51.27c-1.33,3.75-3.26,7.17-4.84,10.8l-1.9,5.15-1.7,4.26c-1.42,2.29-1.75,4.38-2.83,6.64a58.33,58.33,0,0,0-5.61,22.41,67.12,67.12,0,0,0,2.09,21.25,52,52,0,0,0,8.69,18.17l.35.5a64.67,64.67,0,0,0,15.48,15.83,59.32,59.32,0,0,0,19.3,9.28,70.61,70.61,0,0,0,21.15,1.85,56.79,56.79,0,0,0,20.15-5l.1.21,2-.9a65.74,65.74,0,0,0,20.26-15.54,64.67,64.67,0,0,0,14.55-29.94,62.88,62.88,0,0,0,1.2-10.82l0-1V296H553V271.42a43,43,0,0,1,43.29-43.08A42.6,42.6,0,0,1,627,240.85h0a42.18,42.18,0,0,1,12.66,30.57Z"/><path class="cls-3" d="M348.87,424.54s51.4-20.64,82-65.16c0,0-19.62,50.53,34.8,77.49l8,90S386.87,525.25,348.87,424.54Z"/></g></g></svg>