<svg xmlns="http://www.w3.org/2000/svg" xmlns:xlink="http://www.w3.org/1999/xlink" viewBox="0 0 605.86 222.18"><defs><style>.cls-1{fill:#0066f9;}.cls-2{fill:#fff;}.cls-3{fill:url(#linear-gradient);}.cls-4{fill:#d6d6d6;}</style><linearGradient id="linear-gradient" x1="139.06" y1="137.41" x2="113.04" y2="119.41" gradientUnits="userSpaceOnUse"><stop offset="0" stop-color="#0066f9" stop-opacity="0"/><stop offset="0.22" stop-color="#005de1" stop-opacity="0.17"/><stop offset="0.64" stop-color="#0045a2" stop-opacity="0.59"/><stop offset="1" stop-color="#002f66"/></linearGradient></defs><g id="Layer_2" data-name="Layer 2"><g id="Layer_1-2" data-name="Layer 1"><path class="cls-1" d="M183,70.31a12.63,12.63,0,0,0-21.57,8.92V86.4h.11v24.45a19,19,0,0,1-4.6,11.9,19.15,19.15,0,0,1-5.92,4.53l-.59.26,0-.06a16.51,16.51,0,0,1-5.88,1.45,20.39,20.39,0,0,1-6.17-.54,17.28,17.28,0,0,1-5.64-2.71,18.68,18.68,0,0,1-4.51-4.62l-.11-.14a15,15,0,0,1-2.53-5.31,19.36,19.36,0,0,1-.61-6.2,17.68,17.68,0,0,1,.82-4.5c.44-1.37,1.08-2.66,1.64-4s1-2.66,1.6-3.94a12.15,12.15,0,0,0,.86-2,50.41,50.41,0,0,0,2.86-15c0-.71,0-1.42,0-2.11a9.4,9.4,0,0,0-4.28-7.67l-.68-.36-.64-.35a9.33,9.33,0,0,0-3.8-.83h-8.43a9.43,9.43,0,0,0-9.39,9.62c0,.6,0,1.2,0,1.85a20,20,0,0,1-1.92,7.67A23.79,23.79,0,0,1,99,94.4a19.1,19.1,0,0,1-2.84,2.17c-1.16.71-2.37,1.39-3.62,2a19.62,19.62,0,0,1-8.32,1.78,20.64,20.64,0,0,1-8.65-1.87,21.56,21.56,0,0,1-7.13-5,21,21,0,0,1-5.72-16.62,7.39,7.39,0,0,0-7.35-8.12H42.88a7.38,7.38,0,0,0-7.33,6.86c0,.76-.08,1.56-.08,2.45V142a13.25,13.25,0,0,0,4,9.62,13.78,13.78,0,0,0,19.29,0,13.27,13.27,0,0,0,4-9.62v-19.7a48.88,48.88,0,0,0,8.67,3.29,48.09,48.09,0,0,0,18.89,1.35,48.82,48.82,0,0,0,11.55-3,45,45,0,0,0,2.52,6.3l.13.25a43.2,43.2,0,0,0,35.42,23.46c1.08.08,2.15.12,3.22.12a43.79,43.79,0,0,0,18.73-4.2,44.68,44.68,0,0,0,9.23-6,43.3,43.3,0,0,0,7.45-8,45.51,45.51,0,0,0,5.19-9.55A43.83,43.83,0,0,0,186.38,116c0-.1,0-.21,0-.31l0-.15c.09-.72.15-1.43.2-2.1s.07-1.42.07-2.2v-32A12.3,12.3,0,0,0,183,70.31Z"/><path class="cls-2" d="M168,0H54.16A54.21,54.21,0,0,0,0,54.16V168a54.21,54.21,0,0,0,54.16,54.15H168A54.21,54.21,0,0,0,222.18,168V54.16A54.21,54.21,0,0,0,168,0Zm18.69,111.28c0,.78,0,1.5-.07,2.2s-.11,1.38-.2,2.1l0,.15c0,.1,0,.21,0,.31a43.83,43.83,0,0,1-2.65,10.24,45.51,45.51,0,0,1-5.19,9.55,43.3,43.3,0,0,1-7.45,8,44.68,44.68,0,0,1-9.23,6,43.79,43.79,0,0,1-18.73,4.2c-1.07,0-2.14,0-3.22-.12a43.2,43.2,0,0,1-35.42-23.46l-.13-.25a45,45,0,0,1-2.52-6.3,48.82,48.82,0,0,1-11.55,3,48.09,48.09,0,0,1-18.89-1.35,48.88,48.88,0,0,1-8.67-3.29V142a13.27,13.27,0,0,1-4,9.62,13.78,13.78,0,0,1-19.29,0,13.25,13.25,0,0,1-4-9.62V78.05c0-.89,0-1.69.08-2.45a7.38,7.38,0,0,1,7.33-6.86H55.37a7.39,7.39,0,0,1,7.35,8.12,21,21,0,0,0,5.72,16.62,21.56,21.56,0,0,0,7.13,5,20.64,20.64,0,0,0,8.65,1.87,19.62,19.62,0,0,0,8.32-1.78c1.25-.63,2.46-1.31,3.62-2A19.1,19.1,0,0,0,99,94.4a23.79,23.79,0,0,0,4.57-6.52,20,20,0,0,0,1.92-7.67c0-.65.05-1.25,0-1.85a9.43,9.43,0,0,1,9.39-9.62h8.43a9.33,9.33,0,0,1,3.8.83l.56.3.76.41A9.4,9.4,0,0,1,132.75,78c0,.69,0,1.4,0,2.11a50.41,50.41,0,0,1-2.86,15c-.38,1.09-.95,2.09-1.41,3.15l-.56,1.51-.49,1.24a18.84,18.84,0,0,0-.83,1.94,17,17,0,0,0-1.63,6.54,19.36,19.36,0,0,0,.61,6.2,15,15,0,0,0,2.53,5.31l.11.14a18.68,18.68,0,0,0,4.51,4.62,17.28,17.28,0,0,0,5.64,2.71,20.39,20.39,0,0,0,6.17.54,16.51,16.51,0,0,0,5.88-1.45l0,.06.59-.26A18.64,18.64,0,0,0,161.2,114a18.87,18.87,0,0,0,.35-3.16V86.4h-.11V79.23A12.67,12.67,0,0,1,183,70.31h0a12.3,12.3,0,0,1,3.7,8.92Z"/><path class="cls-3" d="M101.84,123.93s15-6,23.94-19c0,0-5.73,14.75,10.15,22.62l2.33,26.26S112.93,153.33,101.84,123.93Z"/><path class="cls-4" d="M329.42,152.78l-10,38.3H308.14L302,165.87l-6.33,25.21H284.41l-9.71-38.3h10l5.51,27.88L297,152.78h10.26l6.54,27.88,5.57-27.88Z"/><path class="cls-4" d="M343.43,160.26V168h12.49v7.2H343.43v8.4h14.13v7.48H334.11v-38.3h23.45v7.48Z"/><path class="cls-4" d="M392.14,174.74a10,10,0,0,1-1.33,13.53q-3.36,2.8-9.36,2.81H363.61v-38.3h17.24q5.83,0,9.14,2.68a8.84,8.84,0,0,1,3.3,7.25,8.71,8.71,0,0,1-1.78,5.62,9.15,9.15,0,0,1-4.71,3.11A8.88,8.88,0,0,1,392.14,174.74Zm-19.2-6.47h6.11a5.43,5.43,0,0,0,3.52-1,3.65,3.65,0,0,0,1.23-3,3.7,3.7,0,0,0-1.23-3,5.32,5.32,0,0,0-3.52-1h-6.11Zm10.5,14.21a3.74,3.74,0,0,0,1.28-3.08,3.94,3.94,0,0,0-1.33-3.16,5.44,5.44,0,0,0-3.68-1.15h-6.77v8.46h6.88A5.5,5.5,0,0,0,383.44,182.48Z"/><path class="cls-4" d="M436.05,155.18a17.21,17.21,0,0,1,7,6.74,21.38,21.38,0,0,1,0,20,17.14,17.14,0,0,1-7,6.77,22.35,22.35,0,0,1-10.56,2.4H411.13v-38.3h14.34A22.23,22.23,0,0,1,436.05,155.18Zm-2.94,24.93c2-1.93,2.94-4.65,2.94-8.18s-1-6.27-2.94-8.24-4.71-2.94-8.24-2.94h-4.42V183h4.42Q430.17,183,433.11,180.11Z"/><path class="cls-4" d="M460.11,160.26V168H472.6v7.2H460.11v8.4h14.13v7.48H450.78v-38.3h23.46v7.48Z"/><path class="cls-4" d="M486.62,190.09a12.29,12.29,0,0,1-5.32-4,11,11,0,0,1-2.1-6.44h9.93a4.41,4.41,0,0,0,4.74,4.36,5.12,5.12,0,0,0,3.28-.95,3.2,3.2,0,0,0,1.2-2.65,3.12,3.12,0,0,0-1-2.34,7.66,7.66,0,0,0-2.34-1.53,38.41,38.41,0,0,0-4-1.36,44.22,44.22,0,0,1-6-2.29,11.24,11.24,0,0,1-4-3.38,9.43,9.43,0,0,1-1.69-5.84,10,10,0,0,1,3.87-8.37,15.93,15.93,0,0,1,10.09-3q6.33,0,10.2,3a10.81,10.81,0,0,1,4.15,8.42H497.53a4,4,0,0,0-1.36-2.92,4.81,4.81,0,0,0-3.22-1.06,4,4,0,0,0-2.73.9,3.26,3.26,0,0,0-1,2.59,3.2,3.2,0,0,0,1.75,2.89,28.54,28.54,0,0,0,5.45,2.24,51.58,51.58,0,0,1,6,2.4,11.37,11.37,0,0,1,4,3.33,8.86,8.86,0,0,1,1.69,5.61,11,11,0,0,1-1.66,6,11.72,11.72,0,0,1-4.83,4.26,16.58,16.58,0,0,1-7.47,1.58A19.7,19.7,0,0,1,486.62,190.09Z"/><path class="cls-4" d="M523.16,152.78v38.3h-9.32v-38.3Z"/><path class="cls-4" d="M555.35,164.89a7.09,7.09,0,0,0-3-2.92,9.79,9.79,0,0,0-4.56-1,9.35,9.35,0,0,0-7.25,3,11.28,11.28,0,0,0-2.73,7.94c0,3.52.95,6.28,2.86,8.26a10.44,10.44,0,0,0,7.88,3,9.55,9.55,0,0,0,5.81-1.74,10,10,0,0,0,3.47-5H546v-6.87h20.29v8.67a18.17,18.17,0,0,1-3.52,6.49,18.39,18.39,0,0,1-6.3,4.85,19.42,19.42,0,0,1-8.62,1.86,20.41,20.41,0,0,1-10.11-2.48,17.68,17.68,0,0,1-6.93-6.9,21.83,21.83,0,0,1,0-20.21,17.55,17.55,0,0,1,6.9-6.93,20.18,20.18,0,0,1,10.09-2.48,19.67,19.67,0,0,1,11.59,3.32,15.73,15.73,0,0,1,6.25,9.22Z"/><path class="cls-4" d="M605.75,191.08h-9.33l-15.6-23.62v23.62H571.5v-38.3h9.32l15.6,23.73V152.78h9.33Z"/><path class="cls-4" d="M341.78,32.09,308.62,96.23v31.65H285.29V96.23L252.13,32.09H278.6l18.56,40.12,18.42-40.12Z"/><path class="cls-4" d="M454.81,125.42a30.61,30.61,0,0,1-13.3-10.09,27.53,27.53,0,0,1-5.26-16.1h24.84q.54,5.33,3.68,8.11a11.83,11.83,0,0,0,8.18,2.8q5.19,0,8.19-2.38a8,8,0,0,0,3-6.62,7.85,7.85,0,0,0-2.39-5.87,19.17,19.17,0,0,0-5.87-3.82A94.14,94.14,0,0,0,466,88a106.18,106.18,0,0,1-15.15-5.74,27.76,27.76,0,0,1-10.09-8.45q-4.25-5.59-4.23-14.6,0-13.38,9.68-21t25.24-7.57q15.84,0,25.52,7.57t10.37,21.08H482.1a9.89,9.89,0,0,0-3.41-7.3,12.06,12.06,0,0,0-8.05-2.66,10,10,0,0,0-6.82,2.25,8.15,8.15,0,0,0-2.6,6.49,8,8,0,0,0,4.37,7.23A72.16,72.16,0,0,0,479.23,71a128.44,128.44,0,0,1,15.09,6,28.59,28.59,0,0,1,10,8.32q4.23,5.46,4.23,14a27.64,27.64,0,0,1-4.16,14.88,29.1,29.1,0,0,1-12.08,10.64,41.33,41.33,0,0,1-18.69,4A49.11,49.11,0,0,1,454.81,125.42Z"/><path class="cls-4" d="M605.86,32.09v95.79H582.53V88.45h-36.3v39.43H522.9V32.09h23.33V69.62h36.3V32.09Z"/><path class="cls-4" d="M393.83,32.09h-27l-34.66,95.79h24.42L362.3,111h35.76l5.73,16.92h24.69ZM380.19,86.92,362.85,95l10.34-22.75,7.12-16,6,14.68L397.77,95Z"/></g></g></svg>