<svg width="276" height="171" viewBox="0 0 276 171" fill="none" xmlns="http://www.w3.org/2000/svg" style="width: 100%; height: 100%;">
<g clip-path="url(#clip0_35_3372)">
<path d="M239.186 57.946C235.727 57.987 232.243 57.648 228.93 56.654C223.805 55.115 219.121 51.935 216.114 47.509C213.107 43.082 211.878 37.4 213.158 32.203C214.56 26.512 217.183 21.181 221.843 17.627C224.925 15.276 228.896 13.812 233.005 13.151C232.463 9.2 231.921 5.248 231.379 1.297C224.913 2.267 218.638 4.539 213.797 8.233C206.667 13.672 202.651 21.83 200.507 30.538C198.549 38.49 200.428 47.186 205.03 53.959C209.632 60.733 216.799 65.599 224.642 67.953C229.712 69.475 235.043 69.993 240.336 69.93C244.089 69.885 247.874 69.529 251.498 68.597C250.256 64.631 249.014 60.665 247.772 56.698C245.021 57.593 242.089 57.91 239.186 57.944V57.946Z" fill="#0066f9" stroke="#010101" stroke-width="1.5" stroke-linecap="round" stroke-linejoin="round"></path>
<path d="M249.358 56.117C248.838 56.338 248.307 56.526 247.772 56.7C249.014 60.666 250.256 64.632 251.498 68.599C252.997 68.214 254.472 67.74 255.901 67.133C266.172 62.77 272.645 52.268 274.02 41.128C269.67 41.062 265.322 40.828 260.991 40.412C259.776 47.201 255.671 53.436 249.358 56.117Z" fill="#010101" stroke="#010101" stroke-width="1.5" stroke-linecap="round" stroke-linejoin="round"></path>
<path d="M273.057 27.502C268.792 12.364 255.262 2.83402 246.248 1.34902C241.568 0.578017 236.415 0.542017 231.379 1.29802C231.921 5.24902 232.463 9.20102 233.005 13.152C236.4 12.606 239.889 12.608 243.05 13.129C248.941 14.1 257.782 20.327 260.57 30.22C261.497 33.51 261.597 37.029 260.992 40.412C265.323 40.828 269.67 41.061 274.021 41.128C274.584 36.567 274.297 31.9 273.058 27.503L273.057 27.502Z" fill="#42d242" stroke="#010101" stroke-width="1.5" stroke-linecap="round" stroke-linejoin="round"></path>
<path d="M61.304 169.993L43.085 35.905C43.085 35.905 88.452 35.343 103.404 35.343C136.793 35.343 236.45 35.905 236.45 35.905L254.669 169.993H61.304Z" fill="#E3E3FF" stroke="#010101" stroke-width="1.5" stroke-linecap="round" stroke-linejoin="round"></path>
<path d="M127.852 128.256L120.409 54.58C120.409 54.58 159.359 53.815 169.623 53.815C185.837 53.815 226.323 54.58 226.323 54.58L233.766 128.256C233.766 128.256 184.035 129.021 168.903 129.021C157.557 129.021 127.852 128.256 127.852 128.256Z" fill="white" stroke="#010101" stroke-width="1.5" stroke-linecap="round" stroke-linejoin="round"></path>
<path d="M79.902 141.152C103.039 142.049 126.21 142.041 149.347 141.129" stroke="#010101" stroke-width="1.5" stroke-linecap="round" stroke-linejoin="round"></path>
<path d="M79.919 151.452C103.559 151.635 127.199 151.819 150.839 152.002" stroke="#010101" stroke-width="1.5" stroke-linecap="round" stroke-linejoin="round"></path>
<path d="M81.037 160.453L110.076 160.678" stroke="#010101" stroke-width="1.5" stroke-linecap="round" stroke-linejoin="round"></path>
<path d="M171.146 142.334C191.648 142.719 212.156 142.813 232.66 142.617" stroke="#010101" stroke-width="1.5" stroke-linecap="round" stroke-linejoin="round"></path>
<path d="M172.299 151.163C192.612 151.267 212.927 151.004 233.231 150.375" stroke="#010101" stroke-width="1.5" stroke-linecap="round" stroke-linejoin="round"></path>
<path d="M175.3 159.59C180.555 160.208 185.857 160.422 191.145 160.231" stroke="#010101" stroke-width="1.5" stroke-linecap="round" stroke-linejoin="round"></path>
<path d="M66.512 169.626C61.892 162.704 56.658 156.193 50.89 150.193C48.561 147.77 46.112 145.405 43.198 143.729C40.284 142.053 36.835 141.11 33.531 141.726C32.226 141.97 30.909 142.492 30.066 143.517C28.887 144.948 28.889 147 29.138 148.838C30.387 158.051 41.025 169.992 41.025 169.992C41.025 169.992 59.857 170.327 66.512 169.625V169.626Z" fill="#55D087" stroke="#010101" stroke-width="1.5" stroke-linecap="round" stroke-linejoin="round"></path>
<path d="M35.153 142.969C41.748 151.219 47.624 160.043 52.692 169.309" stroke="#010101" stroke-width="1.5" stroke-linecap="round" stroke-linejoin="round"></path>
<path d="M41.544 170.073C41.544 170.073 33.14 157.825 26.18 155.021C23.914 154.108 21.186 154.206 19.008 155.313C16.493 156.591 15.102 159.578 15.32 162.391C15.538 165.203 17.175 167.781 18.79 170.017C28.224 169.772 41.544 170.073 41.544 170.073Z" fill="#55D087" stroke="#010101" stroke-width="1.5" stroke-linecap="round" stroke-linejoin="round"></path>
<path d="M21.186 154.951C23.419 159.798 25.651 164.646 27.884 169.493" stroke="#010101" stroke-width="1.5" stroke-linecap="round" stroke-linejoin="round"></path>
<path d="M134.261 100.127C142.451 91.837 150.897 83.788 160.046 76.534C169.601 81.544 193.54 93.598 193.54 93.598C193.54 93.598 207.493 75.635 216.751 67.367" stroke="#010101" stroke-width="1.5" stroke-linecap="round" stroke-linejoin="round"></path>
<path d="M208.317 66.726L217.445 66.784C217.607 69.566 217.595 72.358 217.41 75.139" stroke="#010101" stroke-width="1.5" stroke-linecap="round" stroke-linejoin="round"></path>
<path d="M136.005 104.025C136.522 109.048 137.039 111.731 137.555 116.754C139.373 116.612 141.192 116.47 143.01 116.328C142.465 111.268 141.92 108.548 141.375 103.488C139.586 103.379 137.798 103.271 136.004 104.025H136.005Z" fill="#0066f9" stroke="#010101" stroke-width="1.5" stroke-linecap="round" stroke-linejoin="round"></path>
<path d="M192.873 100.664C193.39 105.687 194.147 112.901 194.664 117.925C196.482 117.783 198.301 117.641 200.119 117.499C199.574 112.439 198.789 105.188 198.244 100.128C196.455 100.019 194.667 99.91 192.873 100.664Z" fill="#0066f9" stroke="#010101" stroke-width="1.5" stroke-linecap="round" stroke-linejoin="round"></path>
<path d="M154.046 87.719C154.046 87.719 155.32 112.277 155.837 117.301C157.655 117.159 161.292 117.301 161.292 117.301L159.417 87.183L154.046 87.719Z" fill="#0066f9" stroke="#010101" stroke-width="1.5" stroke-linecap="round" stroke-linejoin="round"></path>
<path d="M212.187 79.058C212.187 79.058 213.942 112.276 214.459 117.3C216.277 117.158 219.914 117.3 219.914 117.3L217.558 78.521L212.187 79.058Z" fill="#0066f9" stroke="#010101" stroke-width="1.5" stroke-linecap="round" stroke-linejoin="round"></path>
<path d="M175.042 94.76C175.042 94.76 174.873 112.901 175.39 117.924C177.208 117.782 180.845 117.924 180.845 117.924L180.413 94.223L175.042 94.76Z" fill="#0066f9" stroke="#010101" stroke-width="1.5" stroke-linecap="round" stroke-linejoin="round"></path>
<path d="M0.75 82.343C30.081 82.926 88.869 80.551 88.869 80.551C88.869 80.551 94.831 106.317 96.513 119.44C92.717 115.483 88.668 111.768 84.811 108.247C69.377 108.247 52.371 108.862 36 109.138C12.791 109.529 6.625 109.656 6.625 109.656C6.625 109.656 2.644 91.329 0.75 82.343Z" fill="#0066f9" stroke="#010101" stroke-width="1.5" stroke-linecap="round" stroke-linejoin="round"></path>
<path d="M17.3 102.081C18.438 97.598 19.708 92.877 23.002 89.63C23.767 88.876 24.659 88.2041 25.699 87.9391C28.304 87.2761 30.851 89.352 32.215 91.668C33.579 93.984 34.304 96.691 36.04 98.743C36.962 99.832 38.268 100.735 39.693 100.67C42.559 100.54 43.839 96.9641 46.278 95.4531C48.579 94.0271 51.586 94.65 54.081 95.698C56.576 96.746 59.004 98.198 61.707 98.338C65.818 98.552 69.595 95.684 73.711 95.776C76.443 95.837 79.555 97.104 81.664 95.368" stroke="#010101" stroke-width="1.5" stroke-linecap="round" stroke-linejoin="round"></path>
</g>
<defs>
<clipPath id="clip0_35_3372">
<rect width="275.046" height="170.823" fill="white"></rect>
</clipPath>
</defs>
</svg>