<svg width="329" height="152" viewBox="0 0 329 152" fill="none" xmlns="http://www.w3.org/2000/svg" style="width: 100%; height: 100%;">
<g clip-path="url(#clip0_35_3229)">
<path d="M240.642 148.605C259.741 148.605 300.219 148.127 300.219 148.127C300.219 148.127 281.636 48.099 268.783 0.75C259.804 45.384 250.05 91.842 240.642 148.605Z" fill="#0066f9" stroke="#010101" stroke-width="1.5" stroke-linecap="round" stroke-linejoin="round"></path>
<path d="M52.2729 150.643L77.083 2.789L268.783 0.75L243.973 148.604L52.2729 150.643Z" fill="#E3E3FF" stroke="#010101" stroke-width="1.5" stroke-linecap="round" stroke-linejoin="round"></path>
<path d="M225.977 127.17C233.323 92.478 237.029 56.281 244.818 21.686H95.1089C89.0339 55.824 82.8299 90.91 76.4979 125.822C125.447 126.737 177.767 127.182 225.977 127.17Z" fill="white" stroke="#010101" stroke-width="1.5" stroke-linecap="round" stroke-linejoin="round"></path>
<path d="M132.589 21.686L113.65 126.364" stroke="#010101" stroke-width="1.5" stroke-linecap="round" stroke-linejoin="round"></path>
<path d="M207.406 21.686C201.093 56.579 194.78 91.471 188.467 126.364" stroke="#010101" stroke-width="1.5" stroke-linecap="round" stroke-linejoin="round"></path>
<path d="M170.022 21.686C163.709 56.579 157.396 91.471 151.083 126.364" stroke="#010101" stroke-width="1.5" stroke-linecap="round" stroke-linejoin="round"></path>
<path d="M90.64 46.828L239.07 46.548" stroke="#010101" stroke-width="1.5" stroke-linecap="round" stroke-linejoin="round"></path>
<path d="M86.241 74.025L234.649 74.033" stroke="#010101" stroke-width="1.5" stroke-linecap="round" stroke-linejoin="round"></path>
<path d="M80.8889 101.487L229.38 101.518" stroke="#010101" stroke-width="1.5" stroke-linecap="round" stroke-linejoin="round"></path>
<path d="M164.849 65.634C177.558 58.632 190.75 52.508 204.301 47.318C210.127 58.604 216.54 69.588 223.505 80.208C210.189 87.831 196.872 95.453 183.556 103.076C177.271 91.082 171.587 78.775 164.849 65.634Z" fill="#42d242" stroke="#010101" stroke-width="1.5" stroke-linecap="round" stroke-linejoin="round"></path>
<path d="M39.941 31.9L128.06 30.108C128.06 30.108 130.907 55.874 132.588 68.997C128.792 65.04 124.743 61.325 120.886 57.804C105.452 57.804 88.446 58.419 72.075 58.695C48.866 59.086 42.7 59.213 42.7 59.213L39.939 31.9H39.941Z" fill="#0066f9" stroke="#010101" stroke-width="1.5" stroke-linecap="round" stroke-linejoin="round"></path>
<path d="M53.376 51.639C54.514 47.156 55.784 42.435 59.078 39.188C59.843 38.434 60.735 37.762 61.775 37.497C64.38 36.834 66.927 38.91 68.291 41.226C69.655 43.542 70.38 46.249 72.116 48.301C73.038 49.39 74.344 50.293 75.769 50.228C78.635 50.098 79.915 46.522 82.354 45.011C84.655 43.585 87.662 44.208 90.157 45.256C92.652 46.304 95.08 47.756 97.783 47.896C101.894 48.11 105.671 45.242 109.787 45.334C112.519 45.395 115.631 46.662 117.74 44.926" stroke="#010101" stroke-width="1.5" stroke-linecap="round" stroke-linejoin="round"></path>
<path d="M71.264 150.255C62.3 136.534 51.356 122.974 35.828 117.727C30.205 115.827 23.809 115.061 18.478 117.671C17.238 118.278 16.041 119.101 15.37 120.307C14.537 121.804 14.643 123.637 14.922 125.328C16.117 132.585 30.05 147.942 31.975 150.46C48.191 150.46 51.236 150.254 71.264 150.254V150.255Z" fill="#55D087" stroke="#010101" stroke-width="1.5" stroke-linecap="round" stroke-linejoin="round"></path>
<path d="M34.831 150.275C31.587 144.688 26.563 140.153 20.675 137.495C16.429 135.579 11.594 134.633 7.07096 135.747C4.68896 136.334 2.29096 137.644 1.29996 139.888C0.753963 141.125 0.689963 142.523 0.790963 143.871C0.959963 146.128 1.59796 148.408 2.98696 150.621C13.584 150.659 24.18 150.697 34.831 150.275Z" fill="#55D087" stroke="#010101" stroke-width="1.5" stroke-linecap="round" stroke-linejoin="round"></path>
<path d="M23.7529 119.172C34.3679 129.787 43.6529 139.575 52.5889 149.583L23.7529 119.172Z" fill="white"></path>
<path d="M23.7529 119.172C34.3679 129.787 43.6529 139.575 52.5889 149.583" stroke="#010101" stroke-width="1.5" stroke-linecap="round" stroke-linejoin="round"></path>
<path d="M9.23596 135.43C12.087 140.562 15.292 145.497 18.82 150.189L9.23596 135.43Z" fill="white"></path>
<path d="M9.23596 135.43C12.087 140.562 15.292 145.497 18.82 150.189" stroke="#010101" stroke-width="1.5" stroke-linecap="round" stroke-linejoin="round"></path>
<path d="M293.684 90.738C288.512 91.453 283.847 94.433 280.064 98.032C273.493 104.284 269.595 113.618 271.013 122.576C271.631 126.481 273.21 130.202 275.366 133.517C280.46 141.348 288.799 147.906 298.122 148.486C318.486 149.754 327.758 129.751 327.51 120.589C327.207 109.384 320.176 87.075 293.684 90.738Z" fill="white" stroke="#010101" stroke-width="1.5" stroke-linecap="round" stroke-linejoin="round"></path>
<path d="M294.515 95.129C290.134 95.735 286.182 98.259 282.978 101.308C277.412 106.604 274.111 114.51 275.312 122.098C275.836 125.406 277.173 128.558 278.999 131.365C283.314 137.998 290.377 143.553 298.274 144.044C315.523 145.118 323.377 128.175 323.167 120.414C322.91 110.923 316.955 92.027 294.515 95.129Z" fill="white" stroke="#010101" stroke-width="1.5" stroke-linecap="round" stroke-linejoin="round"></path>
<path d="M299.119 120.249C295.092 118.201 291.118 115.967 287.332 113.524L299.119 120.249Z" fill="white"></path>
<path d="M299.119 120.249C295.092 118.201 291.118 115.967 287.332 113.524" stroke="#010101" stroke-width="1.5" stroke-linecap="round" stroke-linejoin="round"></path>
<path d="M314.737 108.082C309.657 111.911 304.014 116.01 298.933 119.839L314.737 108.082Z" fill="white"></path>
<path d="M314.737 108.082C309.657 111.911 304.014 116.01 298.933 119.839" stroke="#010101" stroke-width="1.5" stroke-linecap="round" stroke-linejoin="round"></path>
<path d="M298.933 122.086C300.174 122.086 301.18 121.08 301.18 119.839C301.18 118.598 300.174 117.592 298.933 117.592C297.692 117.592 296.686 118.598 296.686 119.839C296.686 121.08 297.692 122.086 298.933 122.086Z" fill="#010101" stroke="#010101" stroke-width="1.5" stroke-linecap="round" stroke-linejoin="round"></path>
<path d="M186.643 63.123C187.628 63.123 188.427 62.3243 188.427 61.339C188.427 60.3537 187.628 59.555 186.643 59.555C185.658 59.555 184.859 60.3537 184.859 61.339C184.859 62.3243 185.658 63.123 186.643 63.123Z" fill="#010101" stroke="#010101" stroke-width="1.5" stroke-linecap="round" stroke-linejoin="round"></path>
<path d="M178.034 77.46C187.309 72.995 196.583 68.529 205.858 64.064L178.034 77.46Z" fill="#010101"></path>
<path d="M178.034 77.46C187.309 72.995 196.583 68.529 205.858 64.064" stroke="#010101" stroke-width="1.5" stroke-linecap="round" stroke-linejoin="round"></path>
<path d="M181.359 85.803C191.035 81.173 200.711 76.543 210.387 71.913L181.359 85.803Z" fill="#010101"></path>
<path d="M181.359 85.803C191.035 81.173 200.711 76.543 210.387 71.913" stroke="#010101" stroke-width="1.5" stroke-linecap="round" stroke-linejoin="round"></path>
<path d="M186.982 93.048L195.589 87.626L186.982 93.048Z" fill="#010101"></path>
<path d="M186.982 93.048L195.589 87.626" stroke="#010101" stroke-width="1.5" stroke-linecap="round" stroke-linejoin="round"></path>
</g>
<defs>
<clipPath id="clip0_35_3229">
<rect width="328.265" height="151.393" fill="white"></rect>
</clipPath>
</defs>
</svg>