<svg id="Layer_2" data-name="Layer 2" xmlns="http://www.w3.org/2000/svg" viewBox="0 0 1067.35 624.533" style="width: 100%; height: 100%;">
  <g id="Layer_2-2" data-name="Layer 2">
    <g>
      <path d="m600.417,33.857C404.359-47.005,169.208,92.017,114.78,206.688c-130.692,275.351,97.7,402.433,198.173,355.948,41.945-19.406,76.207-52.543,109.321-84.783,48.973-47.681,116.342-75.966,184.675-77.537,53.201-1.223,106.148,13.053,159.197,8.861,53.05-4.192,99.911-77.355,98.472-130.551-2.195-81.193-53.962-158.059-264.202-244.77Z" fill="#f4f4f4"></path>
      <g>
        <rect x="87.189" y="391.06" width="2" height="225.684" transform="translate(-54.293 12.584) rotate(-6.245)" fill="#292a2e"></rect>
        <rect x="75.4" y="548.401" width="120.091" height="2" transform="translate(-424.791 628.908) rotate(-84.228)" fill="#292a2e"></rect>
        <rect x="71.642" y="594.601" width="89.616" height="29.083" fill="#292a2e"></rect>
        <rect x="71.642" y="594.601" width="89.616" height="29.083" fill="#fff" opacity=".2"></rect>
        <ellipse cx="166.468" cy="504.325" rx="51.126" ry="61.09" transform="translate(-336.612 334.129) rotate(-53.042)" fill="#48cf48"></ellipse>
        <ellipse cx="166.468" cy="504.325" rx="51.126" ry="61.09" transform="translate(-336.612 334.129) rotate(-53.042)" fill="#fff" opacity=".2"></ellipse>
        <path d="m215.28,541.054c-1.155,1.539-2.399,2.98-3.723,4.314-18.687,11.939-46.271,10.06-68.154-6.408-26.957-20.281-35.048-55.015-18.07-77.578,1.155-1.539,2.398-2.971,3.714-4.314,18.697-11.948,46.271-10.06,68.163,6.399,26.957,20.289,35.048,55.024,18.07,77.587Z" fill="#fff" opacity=".5"></path>
        <ellipse cx="58.075" cy="413.799" rx="61.09" ry="52.607" transform="translate(-240.749 121.725) rotate(-37.665)" fill="#48cf48"></ellipse>
        <path d="m81.756,449.532c-20.683,15.976-46.969,18.41-66.024,8.01-2.175-1.915-4.189-4.054-6.015-6.417-17.757-22.992-10.498-58.354,16.208-78.965,20.684-15.967,46.97-18.41,66.015-8.019,2.184,1.915,4.197,4.063,6.023,6.426,17.757,22.992,10.498,58.354-16.208,78.965Z" fill="#fff" opacity=".2"></path>
      </g>
      <g>
        <g>
          <rect x="149.894" y="26.643" width="594.477" height="481.398" rx="31.867" ry="31.867" fill="#fff"></rect>
          <path d="m712.505,509.041H181.762c-18.123,0-32.867-14.744-32.867-32.867V58.51c0-18.123,14.744-32.867,32.867-32.867h530.743c18.123,0,32.867,14.744,32.867,32.867v417.664c0,18.123-14.744,32.867-32.867,32.867ZM181.762,27.643c-17.02,0-30.867,13.847-30.867,30.867v417.664c0,17.02,13.847,30.867,30.867,30.867h530.743c17.02,0,30.867-13.847,30.867-30.867V58.51c0-17.02-13.847-30.867-30.867-30.867H181.762Z" fill="#292a2e"></path>
        </g>
        <rect x="652.755" y="113.185" width="57.463" height="57.463" rx="12.437" ry="12.437" fill="#0066f9" opacity=".7"></rect>
        <rect x="653.891" y="185.766" width="57.463" height="57.463" rx="12.562" ry="12.562" fill="#0066f9" opacity=".7"></rect>
        <rect x="653.891" y="266.604" width="57.463" height="57.463" rx="12.562" ry="12.562" fill="#0066f9" opacity=".7"></rect>
        <rect x="652.755" y="343.306" width="57.463" height="57.463" rx="12.562" ry="12.562" fill="#0066f9" opacity=".7"></rect>
        <g fill="none" opacity=".2">
          <rect x="418.438" y="113.185" width="57.463" height="57.463" rx="12.437" ry="12.437" fill="#0066f9"></rect>
          <rect x="340.332" y="113.185" width="57.463" height="57.463" rx="12.437" ry="12.437" fill="#0066f9"></rect>
          <rect x="496.543" y="113.185" width="57.463" height="57.463" rx="12.437" ry="12.437" fill="#0066f9"></rect>
          <rect x="574.649" y="113.185" width="57.463" height="57.463" rx="12.437" ry="12.437" fill="#0066f9"></rect>
          <rect x="419.574" y="185.766" width="57.463" height="57.463" rx="12.562" ry="12.562" fill="#0066f9"></rect>
          <rect x="497.68" y="185.766" width="57.463" height="57.463" rx="12.562" ry="12.562" fill="#0066f9"></rect>
          <rect x="575.786" y="185.766" width="57.463" height="57.463" rx="12.562" ry="12.562" fill="#0066f9"></rect>
          <rect x="185.258" y="185.766" width="57.463" height="57.463" rx="12.562" ry="12.562" fill="#0066f9"></rect>
          <rect x="263.363" y="185.766" width="57.463" height="57.463" rx="12.562" ry="12.562" fill="#0066f9"></rect>
          <rect x="341.469" y="185.766" width="57.463" height="57.463" rx="12.562" ry="12.562" fill="#0066f9"></rect>
          <rect x="419.574" y="266.604" width="57.463" height="57.463" rx="12.562" ry="12.562" fill="#0066f9"></rect>
          <rect x="497.68" y="266.604" width="57.463" height="57.463" rx="12.562" ry="12.562" fill="#0066f9"></rect>
          <rect x="575.786" y="266.604" width="57.463" height="57.463" rx="12.562" ry="12.562" fill="#0066f9"></rect>
          <rect x="185.258" y="266.604" width="57.463" height="57.463" rx="12.562" ry="12.562" fill="#0066f9"></rect>
          <rect x="263.363" y="266.604" width="57.463" height="57.463" rx="12.562" ry="12.562" fill="#0066f9"></rect>
          <rect x="341.469" y="266.604" width="57.463" height="57.463" rx="12.562" ry="12.562" fill="#0066f9"></rect>
          <rect x="419.574" y="344.443" width="57.463" height="57.463" rx="12.562" ry="12.562" fill="#0066f9"></rect>
          <rect x="496.543" y="343.306" width="57.463" height="57.463" rx="12.562" ry="12.562" fill="#0066f9"></rect>
          <rect x="574.649" y="343.306" width="57.463" height="57.463" rx="12.562" ry="12.562" fill="#0066f9"></rect>
          <rect x="185.258" y="344.443" width="57.463" height="57.463" rx="12.562" ry="12.562" fill="#0066f9"></rect>
          <rect x="263.363" y="344.443" width="57.463" height="57.463" rx="12.562" ry="12.562" fill="#0066f9"></rect>
          <rect x="341.469" y="344.443" width="57.463" height="57.463" rx="12.562" ry="12.562" fill="#0066f9"></rect>
          <rect x="418.438" y="414.946" width="57.463" height="57.463" rx="12.562" ry="12.562" fill="#0066f9"></rect>
          <rect x="184.121" y="414.946" width="57.463" height="57.463" rx="12.562" ry="12.562" fill="#0066f9"></rect>
          <rect x="262.227" y="414.946" width="57.463" height="57.463" rx="12.562" ry="12.562" fill="#0066f9"></rect>
          <rect x="340.332" y="414.946" width="57.463" height="57.463" rx="12.562" ry="12.562" fill="#0066f9"></rect>
        </g>
        <path d="m744.371,58.513v20.429H149.897v-20.429c0-17.604,14.26-31.874,31.865-31.874h530.744c17.596,0,31.865,14.269,31.865,31.874Z" fill="#292a2e"></path>
        <g>
          <path d="m257.855,25.643c0-14.139,11.503-25.643,25.643-25.643s25.642,11.503,25.642,25.643-11.503,25.642-25.642,25.642c-1.196,0-2.166-.97-2.166-2.166s.97-2.166,2.166-2.166c11.751,0,21.311-9.56,21.311-21.311s-9.56-21.311-21.311-21.311-21.311,9.56-21.311,21.311" fill="#e5e5e5"></path>
          <path d="m388.763,25.643c0-14.139,11.503-25.643,25.642-25.643s25.643,11.503,25.643,25.643-11.503,25.642-25.643,25.642c-1.196,0-2.166-.97-2.166-2.166s.97-2.166,2.166-2.166c11.751,0,21.311-9.56,21.311-21.311s-9.56-21.311-21.311-21.311-21.311,9.56-21.311,21.311" fill="#e5e5e5"></path>
          <path d="m519.672,25.643c0-14.139,11.503-25.643,25.642-25.643s25.643,11.503,25.643,25.643-11.503,25.642-25.643,25.642c-1.196,0-2.166-.97-2.166-2.166s.97-2.166,2.166-2.166c11.751,0,21.311-9.56,21.311-21.311s-9.56-21.311-21.311-21.311-21.311,9.56-21.311,21.311" fill="#e5e5e5"></path>
          <path d="m585.126,25.643c0-14.139,11.503-25.643,25.643-25.643s25.642,11.503,25.642,25.643-11.503,25.642-25.642,25.642c-1.196,0-2.166-.97-2.166-2.166s.97-2.166,2.166-2.166c11.751,0,21.311-9.56,21.311-21.311s-9.56-21.311-21.311-21.311-21.311,9.56-21.311,21.311" fill="#e5e5e5"></path>
          <path d="m192.4,25.643c0-14.139,11.503-25.643,25.642-25.643s25.643,11.503,25.643,25.643-11.503,25.642-25.643,25.642c-1.196,0-2.166-.97-2.166-2.166s.97-2.166,2.166-2.166c11.751,0,21.311-9.56,21.311-21.311s-9.56-21.311-21.311-21.311-21.311,9.56-21.311,21.311" fill="#e5e5e5"></path>
          <path d="m323.309,25.643c0-14.139,11.503-25.643,25.642-25.643s25.642,11.503,25.642,25.643-11.503,25.642-25.642,25.642c-1.196,0-2.166-.97-2.166-2.166s.97-2.166,2.166-2.166c11.751,0,21.311-9.56,21.311-21.311s-9.56-21.311-21.311-21.311-21.311,9.56-21.311,21.311" fill="#e5e5e5"></path>
          <path d="m454.218,25.643c0-14.139,11.503-25.643,25.643-25.643s25.642,11.503,25.642,25.643-11.503,25.642-25.642,25.642c-1.196,0-2.166-.97-2.166-2.166s.97-2.166,2.166-2.166c11.751,0,21.311-9.56,21.311-21.311s-9.56-21.311-21.311-21.311-21.311,9.56-21.311,21.311" fill="#e5e5e5"></path>
          <path d="m650.581,25.643c0-14.139,11.503-25.643,25.642-25.643s25.642,11.503,25.642,25.643-11.503,25.642-25.642,25.642c-1.196,0-2.166-.97-2.166-2.166s.97-2.166,2.166-2.166c11.751,0,21.311-9.56,21.311-21.311s-9.56-21.311-21.311-21.311-21.311,9.56-21.311,21.311" fill="#e5e5e5"></path>
        </g>
        <path d="m279.732,387.837c-.091,0-.182-.004-.274-.013-.848-.077-1.624-.507-2.14-1.184l-9.153-12.039c-1.014-1.333-.755-3.235.579-4.249,1.333-1.014,3.236-.756,4.249.579l7.145,9.398,27.422-25.03c1.237-1.129,3.155-1.041,4.284.195,1.129,1.237,1.041,3.155-.195,4.284l-29.873,27.266c-.561.512-1.291.793-2.044.793Z" fill="#0066f9"></path>
        <rect x="346.689" y="421.303" width="44.75" height="44.75" rx="6.931" ry="6.931" fill="#0066f9"></rect>
        <g>
          <path d="m585.649,162.792c-.756,0-1.513-.281-2.1-.846-1.208-1.16-1.246-3.08-.086-4.287l35.239-36.673c1.16-1.208,3.081-1.246,4.287-.086,1.208,1.16,1.246,3.08.086,4.287l-35.239,36.673c-.596.62-1.39.932-2.187.932Z" fill="#0a0a0a"></path>
          <path d="m621.605,162.075c-.756,0-1.513-.281-2.101-.846l-36.672-35.239c-1.207-1.16-1.245-3.08-.085-4.288,1.16-1.207,3.08-1.245,4.288-.085l36.672,35.239c1.207,1.16,1.245,3.08.085,4.288-.596.619-1.39.931-2.187.931Z" fill="#0a0a0a"></path>
        </g>
      </g>
      <g>
        <g>
          <path d="m953.471,223.966s-.368,39.678,6.228,51.956c18.989,35.347,23.579,62.419,1.2,81.108-22.379,18.689-157.203,10.586-164.554-36.058-6.189-39.269,12.52-42.287,18.997-73.961,2.93-14.332,10.403-44.302,10.403-44.302" fill="#0a0a0a"></path>
          <path id="sk" d="m834.675,318.376c.233-.033,3.225,42.871,53.06,38.657,34.5-2.912,46.464-39.658,47.255-39.665-3.73-.756-10.009-1.847-11.67-2.714-5.464-2.87-12.219-5.846-14.071-16.386-1.067-6.075.352-37.221-.233-43.372l-52.883,12.329c.863,12.995,6.33,43.089-11.784,48.596-3.014.911-6.262,1.753-9.673,2.556Z" fill="#ff9e85"></path>
          <path id="sh" d="m855.73,303.393c.728-2.403,1.155-4.491,1.516-8.24.647-6.705.211-12.859-.527-19.127,10.692-1.526,20.928-6.126,29.168-13.109,1.018,3.625,6.58,19.453,5.114,22.921-2.771,6.556-15.979,17.372-35.272,17.554Z" fill="#0c0c0c" opacity=".22"></path>
          <path d="m861.4,290.031c20.728,3.32,43.734-3.694,51.05-31.118l11.098-24.401c7.316-27.424-1.157-53.499-26.978-60.387h0c-25.821-6.889-47.494.216-54.811,27.64,0,0-4.423,15.673-5.321,21.019-3.386,20.159-6.489,62.209,24.962,67.247Z" fill="#ff9e85"></path>
          <path id="e1_eb" d="m841.19,217.987c.029.909,3.432,1.066,8.004.689,4.571-.377,8.635-.924,8.55-2.054-.107-1.427-3.919-2.277-8.49-1.9-4.571.377-8.11,1.835-8.064,3.265Z" fill="#0a0a0a"></path>
          <path d="m943.852,244.804l-30.085,5.958c-17.247-8.506-13.425-51.675-13.425-51.675,0,0-23.148,19.454-74.598,3.621,0,0,15.708-69.889,91.456-42.962,24.425,8.683,40.291,37.444,35.585,70.855-3.298,23.414-8.933,14.202-8.933,14.202Z" fill="#0a0a0a"></path>
          <path d="m913.114,267.184c7.847,2.093,16.25-.13,19.369-11.951,2.072-7.853-3.941-14.372-11.788-16.466l-5.446,4.179-8.881,22.437,6.747,1.8Z" fill="#ff9e85"></path>
          <g>
            <circle id="e1_eye" cx="846.842" cy="226.103" r="2.907" transform="translate(559.022 1054.007) rotate(-85.779)" fill="#0a0a0a"></circle>
            <g id="e1_n">
              <path d="m861.964,252.431c.587.043,1.122-.363,1.228-.954.114-.632-.306-1.237-.939-1.35l-6.094-1.095,4.685-11.988c.233-.598-.062-1.272-.661-1.506-.598-.233-1.272.062-1.506.66l-5.199,13.305c-.126.324-.101.688.069.991s.466.515.809.577l7.486,1.346c.04.007.081.012.121.015Z" fill="#0a0a0a"></path>
            </g>
            <g id="e1_m">
              <path d="m864.264,265.517c10.511.776,14.108-5.345,14.27-5.633.316-.559.119-1.268-.44-1.584-.555-.315-1.262-.12-1.58.434-.151.26-3.821,6.262-15.286,4.026-.643-.128-1.242.289-1.365.919-.123.63.289,1.241.918,1.364,1.237.241,2.397.395,3.482.475Z" fill="#0a0a0a"></path>
            </g>
            <path id="e1_eb-2" data-name="e1_eb" d="m876.445,219.979c-.342.843,2.705,2.367,7.036,3.877,4.331,1.51,8.267,2.659,8.648,1.592.481-1.348-2.658-3.671-6.989-5.181-4.331-1.51-8.157-1.614-8.695-.288Z" fill="#0a0a0a"></path>
            <circle id="e1_eye-2" data-name="e1_eye" cx="875.777" cy="230.097" r="2.907" transform="translate(581.845 1086.562) rotate(-85.779)" fill="#0a0a0a"></circle>
          </g>
          <path d="m911.315,227.413c-.15,2.442-6.949,10.758-6.264,13.107,1.08,3.705,6.264,9.932,8.717,10.243,4.319.547,1.126-7.383,6.724-11.182.854-.009,1.723.044,2.59.225,3.49.678,6.394,2.659,8.308,5.34l.453-11.087" fill="#0a0a0a"></path>
        </g>
        <polygon points="990.839 569.245 999.744 623.533 777.645 623.533 785.947 568.917 990.839 569.245" fill="#262626"></polygon>
        <path id="b_1_b" d="m889.378,345.669c34.092-1.607,35.527-30.544,35.527-30.544,0,0,16.892,1.092,28.121,2.611,18.384,2.487,30.543,7.931,40.195,17.582,8.978,8.978,14.413,19.482,8.629,81.501-4.188,44.906-11.01,152.426-11.01,152.426l-204.892-.328s-9.117-137.883-10.837-158.097c-3.283-38.589-8.465-92.979,2.535-95.694,12.815-3.163,54.647,2.037,68.178.002.228-.034-2.873,32.73,43.555,30.541Z" fill="#0066f9"></path>
        <g>
          <path d="m516.248,194.411c-1.252-2.825-4.622-4.05-7.413-2.634-2.617,1.327-3.561,4.622-2.372,7.305l2.965,6.691-19.048-16.821c-2.085-1.907-5.864-2.914-7.849-.434-1.737,1.899-1.857,4.694-.456,6.726-.023.019-.05.032-.068.056-.015.016-.02.037-.032.054l-3.216-2.941c-2.468-2.257-6.457-1.801-8.304,1.203-1.373,2.232-.796,5.162,1.138,6.93l1.369,1.252c-.018.058-.027.119-.024.179-2.228-1.256-5.128-.809-6.845,1.278-1.865,2.266-1.407,5.663.759,7.643l3.364,3.076c-.155-.017-.315.03-.43.156-.066.075-.096.164-.111.255-2.18-.534-4.612.301-5.939,2.46-1.373,2.232-.796,5.162,1.138,6.93l28.677,26.226c8.207,7.505,20.146,9.281,30.182,4.488l15.795-7.544-23.278-52.536Z" fill="#ff9e85"></path>
          <g fill="none" opacity=".2">
            <path d="m500.841,211.991c-.184.199-.494.215-.698.034l-18.094-16.02c-.206-.183-.226-.499-.043-.706.156-.208.5-.226.706-.043l18.094,16.02c.206.183.226.499.043.706l-.008.009Z" fill="#0c0c0c"></path>
          </g>
          <g fill="none" opacity=".2">
            <path d="m493.996,220.167c-.184.199-.494.215-.698.034l-20.193-17.878c-.206-.183-.226-.499-.043-.706.169-.188.499-.225.706-.043l20.193,17.878c.206.183.226.499.043.706l-.008.009Z" fill="#0c0c0c"></path>
          </g>
          <g fill="none" opacity=".2">
            <path d="m486.633,229.064c-.184.199-.494.215-.698.034l-16.108-14.261c-.206-.183-.226-.499-.043-.706.189-.205.499-.225.706-.043l16.108,14.261c.206.183.226.499.043.706l-.008.009Z" fill="#0c0c0c"></path>
          </g>
        </g>
        <path d="m534.513,212.954l108.581,88.949,160.311,13.56c20.637,1.746,35.952,19.89,34.206,40.527-1.655,19.562-18.045,34.342-37.324,34.342-1.061,0-2.127-.045-3.203-.136l-172.109-14.558c-7.679-.649-14.971-3.649-20.885-8.59l-113.72-100.887,44.143-53.207Z" fill="#0066f9"></path>
        <g>
          <polygon points="504.896 229.223 425.107 213.354 437.677 150.155 458.208 136.992 520.766 149.434 504.896 229.223" fill="#48cf48"></polygon>
          <polygon points="458.208 136.992 437.677 150.155 454.951 153.892 458.208 136.992" fill="#fffffa" opacity=".29"></polygon>
          <g fill="none" opacity=".88">
            <path d="m505.956,177.769c-.066,0-.133-.006-.2-.02l-61.509-12.479c-.542-.11-.891-.638-.781-1.179.11-.542.639-.89,1.179-.781l61.509,12.479c.542.11.891.638.781,1.179-.096.474-.513.801-.979.801Z" fill="#fff"></path>
            <path d="m503.692,189.466c-.066,0-.133-.006-.2-.02l-61.509-12.479c-.542-.11-.891-.638-.781-1.179.11-.542.639-.892,1.179-.781l61.509,12.479c.542.11.891.638.781,1.179-.096.474-.513.801-.979.801Z" fill="#fff"></path>
            <path d="m501.255,202.37c-.066,0-.133-.006-.2-.02l-61.509-12.479c-.542-.11-.891-.638-.781-1.179.11-.542.637-.893,1.179-.781l61.509,12.479c.542.11.891.638.781,1.179-.096.474-.513.801-.979.801Z" fill="#fff"></path>
            <path d="m464.96,207.01c-.066,0-.133-.006-.2-.02l-27.283-5.536c-.542-.11-.891-.638-.781-1.179.11-.542.638-.893,1.179-.781l27.283,5.536c.542.11.891.638.781,1.179-.096.474-.513.801-.979.801Z" fill="#fff"></path>
          </g>
        </g>
        <path d="m510.427,208.272l-3.965-9.19c-1.189-2.683-.245-5.978,2.372-7.305,2.791-1.416,6.162-.19,7.413,2.634" fill="#ff9e85"></path>
        <path d="m869.634,444.396l-26.372-21.855c-2.379-1.971-5.942-1.567-7.811.944-1.752,2.354-1.129,5.724,1.131,7.597l5.635,4.67,26.522,13.736.895-5.092Z" fill="#ff9e85"></path>
        <g>
          <path d="m842.217,435.752l-24.547-6.575c-2.717-.779-6.548.003-7.22,3.108-.709,2.474.425,5.036,2.585,6.23-.011.025-.029.047-.034.075-.006.021-.001.042-.004.063l-4.189-1.201c-3.214-.921-6.583,1.264-6.899,4.776-.235,2.61,1.587,4.976,4.106,5.698l1.783.511c.009.059.028.115.057.166-2.554-.132-4.949,1.566-5.557,4.198-.66,2.859,1.263,5.696,4.084,6.505l4.382,1.256c-.146.054-.269.167-.316.331-.026.096-.013.19.015.278-2.189.493-3.995,2.324-4.222,4.848-.234,2.61,1.587,4.976,4.106,5.698l37.357,10.706c10.691,3.064,22.172-.665,29.021-9.427l10.781-13.79-45.289-23.455Z" fill="#ff9e85"></path>
          <g fill="none" opacity=".2">
            <path d="m837.3,445.144c-.077.26-.347.412-.61.342l-23.336-6.282c-.266-.072-.424-.346-.353-.613.047-.256.347-.425.613-.353l23.336,6.282c.266.072.424.346.353.613l-.003.011Z" fill="#0c0c0c"></path>
          </g>
          <g fill="none" opacity=".2">
            <path d="m834.813,455.513c-.077.26-.347.412-.61.342l-26.043-7.011c-.266-.072-.424-.346-.353-.613.067-.243.346-.424.613-.353l26.043,7.011c.266.072.424.346.353.613l-.003.011Z" fill="#0c0c0c"></path>
          </g>
          <g fill="none" opacity=".2">
            <path d="m832.185,466.758c-.077.26-.347.412-.61.342l-20.774-5.592c-.266-.072-.424-.346-.353-.613.078-.268.346-.424.613-.353l20.774,5.592c.266.072.424.346.353.613l-.003.011Z" fill="#0c0c0c"></path>
          </g>
        </g>
        <path d="m850.558,492.123l169.665,48.976c3.188.847,6.421,1.258,9.625,1.258,10.818,0,21.3-4.689,28.527-13.158,9.368-10.979,11.605-26.357,5.753-39.549l-57.844-137.801c-8.399-18.932-30.556-27.471-49.485-19.072-18.932,8.398-27.47,30.553-19.072,49.484l34.781,72.465-105.787-24.456-16.163,61.853Z" fill="#0066f9"></path>
        <path d="m993.19,533.795c-.046,0-.093-.006-.139-.02l-142.632-41.172c-.261-.075-.414-.345-.345-.606l16.163-61.854c.069-.263.339-.423.596-.361l104.773,24.222-34.331-71.526c-.119-.249-.014-.548.234-.668.25-.117.548-.014.668.234l34.781,72.465c.083.174.06.379-.061.529-.121.149-.318.219-.503.175l-105.313-24.347-15.917,60.912,142.163,41.036c.266.077.418.354.342.619-.063.219-.263.361-.48.361Z" fill="#0c0c0c"></path>
        <path d="m989.973,459.024c-.035,0-.07-.004-.106-.012l-17.465-3.799c-.27-.059-.44-.325-.382-.595s.326-.441.595-.382l17.465,3.799c.27.059.44.325.382.595-.051.233-.258.394-.488.394Z" fill="#0c0c0c"></path>
        <path d="m773.205,388.677c-.258,0-.478-.199-.497-.462l-2.228-28.839c-.021-.274.185-.516.46-.536.253-.035.516.184.536.46l2.228,28.839c.021.275-.185.516-.46.536-.013.002-.025.002-.039.002Z" fill="#0c0c0c"></path>
      </g>
      <path d="m1007.979,624.533H31.85c-.552,0-1-.448-1-1s.448-1,1-1h976.129c.552,0,1,.448,1,1s-.448,1-1,1Z" fill="#292a2e"></path>
    </g>
  </g>
</svg>