<svg id="Layer_2" data-name="Layer 2" xmlns="http://www.w3.org/2000/svg" viewBox="0 0 727.97 656.609" style="width: 100%; height: 100%;">
  <g id="Layer_2-2" data-name="Layer 2">
    <g>
      <circle cx="359.76" cy="328.305" r="328.305" fill="#0066f9" opacity=".1"></circle>
      <g>
        <g>
          <path d="m725.762,231.17l-93.35,281.91c-7.51,22.7-32,35-54.7,27.49l-213.19-70.59-13.28-56.91,73.68-44.75-29.44-80.48,5.86-7.68,9.5-12.45,31.68-41.53-30.39-87.78,38.6-43.9,247.55,81.97c22.69,7.51,35,32,27.48,54.7Z" fill="#0066f9"></path>
          <path d="m602.927,468.698c-6.953,20.999-29.823,32.49-50.822,25.537-9.068-3.003-16.075-9.03-21.018-16.492-6.22-10.003-8.47-22.399-4.52-34.33,3.951-11.931,13.312-21.011,24.115-24.848,8.42-3.037,17.639-3.691,26.707-.689,20.999,6.953,32.49,29.823,25.537,50.822Z" fill="#fff"></path>
          <path d="m516.771,473.002c-8.42,3.037-17.639,3.691-26.707.689-20.999-6.953-32.49-29.823-25.537-50.822,6.953-20.999,29.823-32.49,50.822-25.537,9.068,3.003,16.075,9.03,21.018,16.492-10.961,4.314-18.277,13.542-22.227,25.473-3.951,11.931-3.746,24.179,2.632,33.705Z" fill="#262626"></path>
          <path d="m417.342,277.66c-1.03,3.11-3.92,5.08-7.03,5.08-.77,0-1.55-.13-2.32-.38l-6.65-2.2,9.5-12.45,1.8.6c3.88,1.28,5.98,5.47,4.7,9.35Z" fill="#fff"></path>
          <rect x="436.877" y="292.458" width="94.998" height="14.798" rx="7.399" ry="7.399" transform="translate(118.811 -137.06) rotate(18.321)" fill="#fff"></rect>
          <rect x="549.006" y="329.587" width="94.998" height="14.798" rx="7.399" ry="7.399" transform="translate(136.165 -170.424) rotate(18.321)" fill="#fff"></rect>
        </g>
        <g>
          <path d="m282.942,470.7l37.68,44.67-225.94,34.52c-23.64,3.61-45.72-12.62-49.33-36.25L.502,220.07c-3.61-23.63,12.62-45.71,36.25-49.32l190.16-29.05-14.45,56.64,66.94,64.4-9.37,51.39-2.81,15.4-1.73,9.5,62.77,58.34-45.32,73.33Z" fill="#0066f9"></path>
          <rect x="54.528" y="215.449" width="91.999" height="68.371" rx="17.709" ry="17.709" transform="translate(-36.55 18.046) rotate(-8.687)" fill="#fff"></rect>
          <rect x="69.124" y="337.655" width="94.998" height="14.798" rx="7.399" ry="7.399" transform="translate(-50.776 21.572) rotate(-8.687)" fill="#fff"></rect>
          <path d="m270.032,314.13l-2.81,15.4-72.36,11.05c-4.04.62-7.82-2.15-8.43-6.19-.06-.38-.09-.76-.09-1.13,0-3.59,2.62-6.75,6.28-7.3l77.41-11.83Z" fill="#fff"></path>
        </g>
        <polygon points="240.908 101.271 204.299 70.18 236.516 54.521 240.908 101.271" fill="#0066f9"></polygon>
        <polygon points="315.375 110.809 340.5 89.584 342.696 112.959 315.375 110.809" fill="#0066f9"></polygon>
      </g>
    </g>
  </g>
</svg>