<svg id="Layer_2" data-name="Layer 2" xmlns="http://www.w3.org/2000/svg" viewBox="0 0 964.269 801.862" style="width: 100%; height: 100%;">
  <g id="Layer_2-2" data-name="Layer 2">
    <g>
      <g>
        <g>
          <ellipse cx="803.972" cy="480.637" rx="26.681" ry="17.399" transform="translate(88.8 1085.544) rotate(-71.097)" fill="#f4f4f4"></ellipse>
          <ellipse cx="779.987" cy="457.047" rx="12.859" ry="19.654" transform="translate(-118.921 360.942) rotate(-24.266)" fill="#f4f4f4"></ellipse>
        </g>
        <path d="m775.819,497.964h34.632c6.339,0,11.485,5.146,11.485,11.485v15.757c0,6.339-5.146,11.485-11.485,11.485h-34.632v-38.727h0Z" fill="#f4f4f4"></path>
        <g fill="none" opacity=".05">
          <path d="m775.819,497.964h34.632c6.339,0,11.485,5.146,11.485,11.485v15.757c0,6.339-5.146,11.485-11.485,11.485h-34.632v-38.727h0Z" fill="#292a2e"></path>
        </g>
        <g fill="none" opacity=".05">
          <path d="m817.513,471.229c-.014,0-.028,0-.043-.003-.142-.014-.267-.098-.334-.224-.178-.335-.089-.703-.024-.972.199-.837.146-1.751-.144-2.523-.083-.22.03-.466.251-.55.219-.082.467.029.55.251.279.745.375,1.599.281,2.415.511-.461,1.068-.847,1.647-1.138.209-.106.466-.023.573.189.106.21.022.467-.189.573-.82.413-1.594,1.045-2.239,1.826-.082.098-.203.155-.33.155Z" fill="#292a2e"></path>
          <path d="m804.56,461.057c-.055,0-.11-.011-.163-.033-.35-.144-.512-.486-.631-.736-.367-.776-.975-1.442-1.675-1.845-.204-.118-.275-.379-.158-.583.118-.205.38-.275.583-.158.678.39,1.282.98,1.717,1.665.107-.69.295-1.352.558-1.954.095-.216.348-.312.562-.22.216.094.315.346.22.562-.375.857-.578,1.852-.587,2.878-.002.142-.073.274-.191.352-.071.047-.154.071-.236.071Z" fill="#292a2e"></path>
          <path d="m793.64,474.835c-.055,0-.11-.011-.162-.032-.349-.143-.511-.482-.628-.73-.371-.783-.98-1.448-1.68-1.852-.204-.118-.275-.379-.158-.583.118-.205.38-.275.583-.158.678.39,1.282.98,1.718,1.666.105-.691.294-1.352.557-1.955.095-.216.347-.312.562-.22.216.094.315.346.22.562-.375.858-.578,1.852-.587,2.877,0,.142-.073.274-.191.352-.071.048-.154.072-.236.072Z" fill="#292a2e"></path>
          <path d="m805.233,472.752c-.055,0-.11-.011-.162-.032-.35-.144-.512-.485-.63-.734-.37-.778-.978-1.444-1.678-1.847-.204-.118-.275-.38-.157-.584s.378-.274.584-.157c.676.39,1.28.98,1.716,1.665.106-.69.294-1.352.557-1.954.094-.216.349-.313.562-.22.216.094.315.346.22.562-.375.858-.578,1.852-.587,2.877,0,.142-.073.274-.191.352-.071.048-.154.072-.236.072Z" fill="#292a2e"></path>
          <path d="m812.606,484.796c-.067,0-.134-.016-.194-.047-.127-.065-.213-.189-.229-.33-.045-.377.168-.685.324-.911.486-.706.763-1.575.769-2.402.002-.235.193-.424.427-.424h.003c.236.002.426.194.424.431-.007.803-.224,1.639-.608,2.366.645-.239,1.305-.39,1.952-.445.229-.018.442.154.461.39.02.235-.154.442-.39.461-.91.077-1.855.373-2.733.857-.063.036-.135.053-.206.053Z" fill="#292a2e"></path>
          <path d="m794.618,492.219c-.059,0-.119-.013-.175-.038-.345-.155-.496-.502-.607-.756-.344-.787-.932-1.472-1.62-1.897-.201-.124-.263-.388-.139-.588.125-.201.388-.26.588-.139.664.411,1.251,1.02,1.665,1.719.127-.686.335-1.341.617-1.936.102-.214.358-.301.57-.203.213.102.304.356.203.57-.401.844-.634,1.832-.674,2.857-.006.142-.082.272-.202.346-.069.043-.147.064-.225.064Z" fill="#292a2e"></path>
          <path d="m805.321,496.186c-.014,0-.029,0-.043-.003-.143-.014-.268-.099-.335-.225-.176-.334-.088-.7-.025-.967.2-.843.147-1.756-.142-2.527-.083-.221.028-.467.249-.55.219-.084.467.029.55.249.28.745.376,1.6.282,2.416.511-.462,1.068-.848,1.647-1.139.209-.106.466-.023.573.189.106.21.022.467-.189.573-.819.413-1.593,1.045-2.238,1.827-.082.098-.203.155-.33.155Z" fill="#292a2e"></path>
        </g>
        <g fill="none" opacity=".05">
          <path d="m786.133,455.42c-.014,0-.028,0-.043-.003-.142-.014-.267-.098-.334-.224-.178-.335-.089-.703-.024-.972.199-.837.146-1.751-.144-2.523-.083-.22.03-.466.251-.55.219-.083.466.03.55.251.279.745.375,1.599.281,2.415.511-.461,1.068-.847,1.647-1.138.209-.105.466-.023.573.189.106.21.022.467-.189.573-.82.413-1.594,1.045-2.239,1.826-.082.098-.203.155-.33.155Z" fill="#292a2e"></path>
          <path d="m777.153,445.856c-.055,0-.11-.011-.162-.032-.35-.144-.512-.485-.63-.734-.37-.778-.978-1.444-1.678-1.847-.204-.118-.275-.38-.157-.584.118-.204.378-.274.584-.157.676.39,1.28.98,1.716,1.665.106-.69.294-1.352.557-1.954.095-.216.348-.313.562-.22.216.094.315.346.22.562-.375.858-.578,1.852-.587,2.877,0,.142-.073.274-.191.352-.071.048-.154.072-.236.072Z" fill="#292a2e"></path>
          <path d="m775.712,456.031c-.055,0-.11-.011-.163-.033-.35-.144-.512-.486-.631-.736-.367-.776-.975-1.442-1.675-1.845-.204-.118-.275-.379-.158-.583.118-.205.38-.275.583-.158.678.39,1.282.98,1.717,1.665.107-.69.295-1.352.558-1.954.095-.216.348-.314.562-.22.216.094.315.346.22.562-.375.857-.578,1.852-.587,2.878-.002.142-.073.274-.191.352-.071.047-.154.071-.236.071Z" fill="#292a2e"></path>
          <path d="m783.086,468.075c-.067,0-.134-.016-.195-.048-.127-.065-.213-.189-.229-.33-.043-.375.169-.684.324-.909.486-.706.763-1.575.771-2.403.003-.234.193-.423.427-.423h.004c.235.003.426.195.423.431-.008.803-.225,1.639-.609,2.365.646-.24,1.306-.391,1.952-.445.212-.022.441.154.461.39.02.234-.155.441-.39.461-.907.075-1.852.372-2.732.857-.064.036-.135.053-.206.053Z" fill="#292a2e"></path>
          <path d="m774.151,465.422c-.337,0-.607-.205-.809-.358-.679-.515-1.516-.817-2.316-.842-.236-.008-.421-.205-.414-.441s.204-.431.441-.414c.78.025,1.586.264,2.285.668-.22-.668-.354-1.349-.392-2.015-.013-.235.166-.437.402-.451.263-.023.438.167.451.402.054.938.323,1.917.777,2.829.063.125.06.274-.008.396s-.191.204-.33.219c-.029.003-.058.005-.086.005Z" fill="#292a2e"></path>
        </g>
      </g>
      <g>
        <rect x="658.563" y="512.619" width="80.326" height="23.372" fill="#f4f4f4"></rect>
        <rect x="717.577" y="512.619" width="10.525" height="23.372" fill="#292a2e" opacity=".05"></rect>
        <rect x="668.827" y="517.699" width="43.764" height="13.85" fill="#fff"></rect>
      </g>
      <g>
        <rect x="595.767" y="498.392" width="81.445" height="23.372" transform="translate(-150.953 297.399) rotate(-23.594)" fill="#f4f4f4"></rect>
        <rect x="595.767" y="498.392" width="81.445" height="23.372" transform="translate(-150.953 297.399) rotate(-23.594)" fill="#292a2e" opacity=".05"></rect>
        <rect x="608.748" y="508.178" width="10.672" height="23.372" transform="translate(-156.743 289.249) rotate(-23.594)" fill="#fff"></rect>
        <rect x="621.879" y="500.191" width="44.373" height="13.85" transform="translate(-149.135 300.184) rotate(-23.594)" fill="#fff"></rect>
      </g>
      <g>
        <g>
          <rect x="594.352" y="741.712" width="20.186" height="13.481" fill="#292a2e" opacity=".05"></rect>
          <rect x="890.732" y="741.712" width="20.186" height="13.481" fill="#292a2e" opacity=".05"></rect>
        </g>
        <rect x="575.848" y="536.317" width="353.574" height="205.395" fill="#f4f4f4"></rect>
        <rect x="575.848" y="536.317" width="353.574" height="205.395" fill="#292a2e" opacity=".03"></rect>
        <rect x="527.004" y="536.317" width="353.574" height="205.395" fill="#f4f4f4"></rect>
        <g>
          <rect x="545.508" y="741.712" width="20.186" height="13.481" fill="#292a2e" opacity=".05"></rect>
          <rect x="841.888" y="741.712" width="20.186" height="13.481" fill="#292a2e" opacity=".05"></rect>
        </g>
        <rect x="536.897" y="549.016" width="333.786" height="52.094" fill="#fff" opacity=".7"></rect>
        <rect x="536.897" y="613.861" width="333.786" height="52.094" fill="#fff" opacity=".7"></rect>
        <rect x="536.897" y="678.704" width="333.786" height="52.094" fill="#fff" opacity=".7"></rect>
        <g>
          <circle cx="595.934" cy="575.063" r="7.289" fill="#292a2e" opacity=".05"></circle>
          <circle cx="811.647" cy="575.063" r="7.289" fill="#292a2e" opacity=".05"></circle>
        </g>
        <g>
          <circle cx="595.934" cy="639.908" r="7.289" fill="#292a2e" opacity=".05"></circle>
          <circle cx="811.647" cy="639.908" r="7.289" fill="#292a2e" opacity=".05"></circle>
        </g>
        <g>
          <circle cx="595.934" cy="704.752" r="7.289" fill="#292a2e" opacity=".05"></circle>
          <circle cx="811.647" cy="704.752" r="7.289" fill="#292a2e" opacity=".05"></circle>
        </g>
      </g>
      <g>
        <rect x="673.335" y="45.48" width="155.853" height="202.861" fill="#f4f4f4"></rect>
        <rect x="829.187" y="45.48" width="5.056" height="202.861" transform="translate(1663.43 293.821) rotate(180)" fill="#f4f4f4"></rect>
        <rect x="829.187" y="45.48" width="5.056" height="202.861" transform="translate(1663.43 293.821) rotate(180)" fill="#292a2e" opacity=".05"></rect>
        <rect x="701.725" y="82.434" width="99.071" height="128.954" fill="#292a2e" opacity=".05"></rect>
        <rect x="795.633" y="82.434" width="5.163" height="128.954" fill="#292a2e" opacity=".03"></rect>
        <rect x="829.187" y="298.227" width="127.462" height="128.633" fill="#f4f4f4"></rect>
        <rect x="852.406" y="321.659" width="81.024" height="81.768" fill="#292a2e" opacity=".05"></rect>
        <rect x="956.649" y="298.227" width="5.056" height="128.633" transform="translate(1918.354 725.087) rotate(180)" fill="#f4f4f4"></rect>
        <rect x="956.649" y="298.227" width="5.056" height="128.633" transform="translate(1918.354 725.087) rotate(180)" fill="#292a2e" opacity=".05"></rect>
        <rect x="928.267" y="321.659" width="5.163" height="81.768" fill="#292a2e" opacity=".03"></rect>
      </g>
      <g>
        <rect id="c_3_c" x="12.956" y="87.275" width="325.24" height="325.24" fill="#f4f4f4"></rect>
        <rect id="c_3_c-2" data-name="c_3_c" x="338.197" y="87.275" width="3.728" height="325.24" fill="#f4f4f4"></rect>
        <rect id="c_3_c-3" data-name="c_3_c" x="338.197" y="87.275" width="3.728" height="325.24" fill="#292a2e" opacity=".05"></rect>
        <polygon id="c_3_c-4" data-name="c_3_c" points="259.406 311.392 259.406 226.299 189.702 226.299 189.702 275.736 81.73 275.736 81.73 363.272 35.84 363.272 35.84 412.515 81.73 412.515 90.57 412.515 322.551 412.515 322.551 311.392 259.406 311.392" fill="#292a2e" opacity=".05"></polygon>
        <g id="c_3_wh">
          <rect id="c_3_wh-2" data-name="c_3_wh" x="198.649" y="235.538" width="50.759" height="9.239" fill="#fffffa" opacity=".34"></rect>
          <rect id="c_3_wh-3" data-name="c_3_wh" x="198.649" y="254.684" width="50.759" height="9.239" fill="#fffffa" opacity=".34"></rect>
          <rect id="c_3_wh-4" data-name="c_3_wh" x="198.649" y="273.829" width="50.759" height="9.239" fill="#fffffa" opacity=".34"></rect>
        </g>
        <g id="c_3_wh-5" data-name="c_3_wh">
          <rect id="c_3_wh-6" data-name="c_3_wh" x="304.195" y="320.361" width="9.356" height="9.239" fill="#fffffa" opacity=".34"></rect>
          <rect id="c_3_wh-7" data-name="c_3_wh" x="304.195" y="339.506" width="9.356" height="9.239" fill="#fffffa" opacity=".34"></rect>
          <rect id="c_3_wh-8" data-name="c_3_wh" x="304.195" y="358.652" width="9.356" height="9.239" fill="#fffffa" opacity=".34"></rect>
          <rect id="c_3_wh-9" data-name="c_3_wh" x="286.887" y="320.361" width="9.356" height="9.239" fill="#fffffa" opacity=".34"></rect>
          <rect id="c_3_wh-10" data-name="c_3_wh" x="286.887" y="339.506" width="9.356" height="9.239" fill="#fffffa" opacity=".34"></rect>
          <rect id="c_3_wh-11" data-name="c_3_wh" x="286.887" y="358.652" width="9.356" height="9.239" fill="#fffffa" opacity=".34"></rect>
          <rect id="c_3_wh-12" data-name="c_3_wh" x="270.047" y="320.361" width="9.356" height="9.239" fill="#fffffa" opacity=".34"></rect>
          <rect id="c_3_wh-13" data-name="c_3_wh" x="270.047" y="339.506" width="9.356" height="9.239" fill="#fffffa" opacity=".34"></rect>
          <rect id="c_3_wh-14" data-name="c_3_wh" x="270.047" y="358.652" width="9.356" height="9.239" fill="#fffffa" opacity=".34"></rect>
        </g>
        <polygon points="338.197 248.071 272.753 248.071 272.753 87.275 267.341 87.275 267.341 248.071 90.57 248.071 90.57 87.275 85.158 87.275 85.158 248.071 12.956 248.071 12.956 253.483 85.158 253.483 85.158 412.515 90.57 412.515 90.57 253.483 267.341 253.483 267.341 412.515 272.753 412.515 272.753 253.483 338.197 253.483 338.197 248.071" fill="#fff"></polygon>
        <rect id="c_3_c-5" data-name="c_3_c" y="412.123" width="351.153" height="10.816" fill="#f4f4f4"></rect>
        <rect id="c_3_c-6" data-name="c_3_c" y="412.123" width="351.153" height="10.816" fill="#292a2e" opacity=".1"></rect>
        <rect id="c_3_c-7" data-name="c_3_c" x="351.153" y="412.123" width="5.07" height="10.816" fill="#292a2e" opacity=".1"></rect>
        <rect id="c_3_c-8" data-name="c_3_c" x="351.153" y="412.123" width="5.07" height="10.816" fill="#292a2e" opacity=".1"></rect>
      </g>
      <g>
        <g>
          <rect x="115.295" y=".854" width="627.105" height="472.854" rx="25.607" ry="25.607" transform="translate(857.695 474.561) rotate(-180)" fill="#fff"></rect>
          <path d="m114.441,448.101V26.461C114.441,11.87,126.311,0,140.901,0h575.891c14.59,0,26.461,11.87,26.461,26.461v421.64c0,14.59-11.87,26.461-26.461,26.461H140.901c-14.591,0-26.461-11.87-26.461-26.461ZM140.901,1.707c-13.649,0-24.753,11.104-24.753,24.753v421.64c0,13.649,11.105,24.753,24.753,24.753h575.891c13.649,0,24.753-11.104,24.753-24.753V26.461c0-13.649-11.104-24.753-24.753-24.753H140.901Z" fill="#292a2e"></path>
        </g>
        <path d="m115.295,26.457v25.767s627.102,0,627.102,0v-25.767c0-14.142-11.465-25.607-25.607-25.607H140.902c-14.142,0-25.607,11.465-25.607,25.607Z" fill="#292a2e"></path>
      </g>
      <g>
        <path d="m539.524,356.952h143.963s21.739,16.282,21.739,16.282v-84.971c0-6.915-5.605-12.52-12.52-12.52h-153.182c-6.915,0-12.52,5.605-12.52,12.52v56.169c0,6.915,5.605,12.52,12.52,12.52Z" fill="#0066f9"></path>
        <path d="m539.524,356.952h143.963s21.739,16.282,21.739,16.282v-84.971c0-6.915-5.605-12.52-12.52-12.52h-153.182c-6.915,0-12.52,5.605-12.52,12.52v56.169c0,6.915,5.605,12.52,12.52,12.52Z" fill="#fff" opacity=".11"></path>
        <path d="m539.524,356.952h143.963s21.739,16.282,21.739,16.282v-84.971c0-6.915-5.605-12.52-12.52-12.52h-153.182c-6.915,0-12.52,5.605-12.52,12.52v56.169c0,6.915,5.605,12.52,12.52,12.52Z" fill="#fff" opacity=".49"></path>
        <path d="m542.349,309.541h147.532c.301,0,.545-.244.545-.545s-.244-.545-.545-.545h-147.532c-.301,0-.545.244-.545.545,0,.301.244.545.545.545Z" fill="#fff"></path>
        <path d="m542.349,294.042h147.532c.301,0,.545-.244.545-.545s-.244-.545-.545-.545h-147.532c-.301,0-.545.244-.545.545s.244.545.545.545Z" fill="#fff"></path>
        <path d="m542.349,325.881h147.532c.301,0,.545-.244.545-.545s-.244-.545-.545-.545h-147.532c-.301,0-.545.244-.545.545,0,.301.244.545.545.545Z" fill="#fff"></path>
        <path d="m542.349,342.221h87.62c.301,0,.545-.244.545-.545s-.244-.545-.545-.545h-87.62c-.301,0-.545.244-.545.545s.244.545.545.545Z" fill="#fff"></path>
      </g>
      <g>
        <path d="m530.758,234.647h154.203s20.265,15.178,20.265,15.178v-64.21c0-6.446-5.225-11.671-11.671-11.671h-162.797c-6.446,0-11.671,5.225-11.671,11.671v37.36c0,6.446,5.225,11.671,11.671,11.671Z" fill="#0066f9"></path>
        <path d="m530.758,234.647h154.203s20.265,15.178,20.265,15.178v-64.21c0-6.446-5.225-11.671-11.671-11.671h-162.797c-6.446,0-11.671,5.225-11.671,11.671v37.36c0,6.446,5.225,11.671,11.671,11.671Z" fill="#fff" opacity=".11"></path>
        <path d="m530.758,234.647h154.203s20.265,15.178,20.265,15.178v-64.21c0-6.446-5.225-11.671-11.671-11.671h-162.797c-6.446,0-11.671,5.225-11.671,11.671v37.36c0,6.446,5.225,11.671,11.671,11.671Z" fill="#fff" opacity=".49"></path>
        <path d="m533.391,190.45h157.53c.281,0,.508-.227.508-.508s-.227-.508-.508-.508h-157.53c-.281,0-.508.227-.508.508,0,.281.227.508.508.508Z" fill="#fff"></path>
        <path d="m533.391,205.682h157.53c.281,0,.508-.227.508-.508s-.227-.508-.508-.508h-157.53c-.281,0-.508.227-.508.508s.227.508.508.508Z" fill="#fff"></path>
        <path d="m533.391,220.914h101.679c.281,0,.508-.227.508-.508,0-.281-.227-.508-.508-.508h-101.679c-.281,0-.508.227-.508.508s.227.508.508.508Z" fill="#fff"></path>
      </g>
      <g>
        <g>
          <path d="m883.109,757.69s-4.515,23.404-26.428,24.708c-21.913,1.304-17.161,18.761-17.161,18.761h83.739v-41.837s-40.15-1.632-40.15-1.632Z" fill="#0066f9"></path>
          <path d="m928.938,330.76s-.263-7.036-.207,8.924c.207,59.529-1.776,432.943-1.776,432.943l-55.026-.462-33.333-443.823,90.342,2.419Z" fill="#262626"></path>
          <path d="m789.147,757.69s-4.515,23.404-26.428,24.708c-21.913,1.304-17.161,18.761-17.161,18.761h83.739v-41.837s-40.15-1.632-40.15-1.632Z" fill="#0066f9"></path>
          <path d="m778.504,335.382s-6.874,203.456-6.16,213.4l6.464,222.303,54.117,1,8.726-231.343s5.72-63.816,21.139-123.073c7.912-30.406,12.613-61.557,14.168-92.938h0s-98.454,10.651-98.454,10.651Z" fill="#262626"></path>
          <path d="m849.897,479.632l-4.513-69.009s-4.635,28.689-4.635,53.417c0,12.087,2.49,59.942,2.49,59.942l6.658-44.35Z" fill="#0a0a0a"></path>
          <path d="m929.535,330.754l.18.01s-.13-3.47-.18-.01Z" fill="#333"></path>
        </g>
        <g>
          <path d="m929.309,330.754l.18.01s-.13-3.47-.18-.01Z" fill="#333"></path>
          <g>
            <path d="m627.783,165.616c.726-1.423,2.205-2.099,3.628-1.921,0-.064.001-.13.04-.186.071-.098.181-.126.291-.119l-2.461-1.764c-1.487-1.066-2.095-3.091-1.218-4.697.909-1.666,2.871-2.268,4.497-1.591-.006-.035.017-.068.022-.104l-1.011-.725c-1.399-1.003-2.003-2.868-1.282-4.431.971-2.103,3.537-2.711,5.322-1.431l2.333,1.672c.007-.014,0-.03.009-.043.01-.017.034-.017.048-.032-1.08-1.216-1.222-3.054-.234-4.431,1.101-1.772,3.644-1.41,5.152-.329l13.732,9.486-2.455-4.132c-.984-1.657-.626-3.879.978-4.949,1.71-1.141,4.003-.604,5.04,1.14l13.402,22.563c3.269,5.504,1.567,12.609-3.842,16.034h0c-6.171,3.908-14.096,3.68-20.032-.575l-20.738-14.864c-1.368-.981-1.987-3.071-1.223-4.57Z" fill="#ff9e85"></path>
            <g fill="none" opacity=".25">
              <path d="m651.538,159.694c-.105.144-.306.178-.453.077l-13.048-9.037c-.149-.103-.186-.308-.083-.457.086-.148.308-.186.457-.083l13.048,9.037c.149.103.186.308.083.457l-.005.006Z" fill="#0c0c0c"></path>
            </g>
            <g fill="none" opacity=".25">
              <path d="m647.711,165.558c-.105.144-.306.178-.453.077l-14.561-10.086c-.149-.103-.186-.308-.083-.457.095-.136.308-.186.457-.083l14.561,10.086c.149.103.186.308.083.457l-.005.006Z" fill="#0c0c0c"></path>
            </g>
            <g fill="none" opacity=".25">
              <path d="m643.602,171.934c-.105.144-.306.178-.453.077l-11.616-8.045c-.149-.103-.186-.308-.083-.457.107-.148.308-.186.457-.083l11.616,8.045c.149.103.186.308.083.457l-.005.006Z" fill="#0c0c0c"></path>
            </g>
          </g>
          <path d="m681.526,164.453l39.359,67.032,48.025-62.992,39.883,35.957-68.111,88.211-.446.628c-2.375,3.262-5.515,6.044-9.328,8.049-13.306,6.998-29.766,1.884-36.763-11.423l-55.968-101.354,43.35-24.108Z" fill="#0066f9"></path>
          <path d="m724.743,239.546c.077,0,.154-.018.228-.055.246-.125.344-.427.218-.673l-3.858-7.561c-.125-.246-.428-.343-.673-.218-.246.125-.344.427-.218.673l3.858,7.561c.088.173.264.272.445.272Z" fill="#0c0c0c"></path>
          <g>
            <g>
              <path d="m899.207,81.168s1.851,28.708,7.275,37.234c15.616,24.544,20.379,43.873,5.196,58.579-15.183,14.707-113.097,16.042-120.902-17.29-6.57-28.062,6.796-31.243,9.788-54.49,1.354-10.519,5.158-32.586,5.158-32.586" fill="#0a0a0a"></path>
              <path id="sk" d="m815.703,154.362c.169-.022,2.045,31.102,38.202,28.388,25.031-1.875,33.956-28.432,34.53-28.432-2.699-.574-7.243-1.408-8.442-2.047-3.941-2.118-8.818-4.322-10.089-11.976-.732-4.412.51-26.981.128-31.445l-38.423,8.576c.537,9.427,4.294,31.282-8.876,35.149-2.191.64-4.552,1.228-7.03,1.787Z" fill="#ff9e85"></path>
              <path id="sh" d="m831.069,143.644c.544-1.737.868-3.248,1.156-5.963.515-4.856.241-9.321-.251-13.87,7.762-1.033,15.214-4.298,21.236-9.304.713,2.635,5.21,12.362,4.124,14.866-2.054,4.734-12.276,14.271-26.264,14.271Z" fill="#0c0c0c" opacity=".22"></path>
              <path d="m836.162,133.848c15.164,1.295,31.424-5.005,35.25-25.224l6.722-18.235c3.826-20.219-3.691-38.619-22.728-42.222h0c-19.037-3.603-34.328,2.69-38.155,22.909,0,0-2.362,11.568-2.726,15.481-1.372,14.756-1.372,45.325,21.636,47.29Z" fill="#ff9e85"></path>
              <path id="e1_eb" d="m817.705,82.837c.07.656,2.539.587,5.824.071s6.194-1.129,6.073-1.942c-.154-1.026-2.955-1.437-6.24-.92-3.285.517-5.766,1.759-5.656,2.791Z" fill="#0a0a0a"></path>
              <path d="m893.364,96.748l-21.434,5.913c-12.924-5.23-12.464-36.646-12.464-36.646,0,0-15.699,15.301-53.743,6.599,0,0,7.628-51.37,63.833-35.943,18.123,4.974,31.13,24.923,29.51,49.331-1.135,17.105-5.701,10.745-5.701,10.745Z" fill="#0a0a0a"></path>
              <path d="m872.333,114.57c5.785,1.095,11.742-.961,13.367-9.674,1.079-5.788-3.617-10.181-9.402-11.276l-3.715,3.312-5.224,16.697,4.974.941Z" fill="#ff9e85"></path>
              <g>
                <circle id="e1_eye" cx="821.27" cy="89.078" r="2.107" fill="#0a0a0a"></circle>
                <g id="e1_n">
                  <path d="m833.218,105.776c.426,0,.792-.322.837-.755.049-.463-.287-.878-.751-.926l-4.464-.467,2.748-8.918c.137-.445-.113-.917-.558-1.054-.445-.137-.916.112-1.054.557l-3.049,9.898c-.074.241-.036.503.103.713s.365.347.616.374l5.484.573c.03.003.059.005.088.005Z" fill="#0a0a0a"></path>
                </g>
                <g id="e1_m">
                  <path d="m836.924,115.971c7.641,0,9.915-4.618,10.017-4.834.198-.421.018-.923-.403-1.122-.418-.198-.919-.02-1.12.398-.095.196-2.429,4.731-10.837,3.726-.472-.058-.883.275-.938.737-.055.462.275.882.737.937.907.108,1.754.158,2.543.158Z" fill="#0a0a0a"></path>
                </g>
                <path id="e1_eb-2" data-name="e1_eb" d="m843.302,82.396c-.202.628,2.082,1.567,5.294,2.428,3.212.861,6.119,1.481,6.338.689.276-1-2.118-2.512-5.33-3.373-3.212-.861-5.984-.731-6.302.256Z" fill="#0a0a0a"></path>
                <circle id="e1_eye-2" data-name="e1_eye" cx="843.026" cy="90.608" r="2.108" fill="#0a0a0a"></circle>
              </g>
              <path d="m868.91,85.91c.022,1.774-4.45,8.149-3.83,9.811.978,2.621,5.059,6.847,6.849,6.941,3.152.165.42-5.398,4.265-8.444.617-.052,1.248-.06,1.885.024,2.56.304,4.765,1.581,6.292,3.418l-.264-8.041" fill="#0a0a0a"></path>
            </g>
            <path d="m770.532,222.451c1.135,13.332,6.655,96.51,7.746,112.931h150.372c.849-14.811,4.664-79.575,7.885-108.539,3.075-27.638,9.108-41.475,4.686-49.646-7.226-13.354-26.972-21.071-40.436-22.894-8.222-1.113-20.587-1.911-20.587-1.911,0,0-1.047,21.181-26.013,22.359-33.986,1.603-31.716-22.359-31.884-22.359-5.506,0-36.958,3.485-44.653,8.046-20.968,12.417-9.525,33.759-7.116,62.012Z" fill="#0066f9"></path>
            <g>
              <path d="m769.331,287.905c.109-1.594,1.204-2.796,2.582-3.191-.025-.059-.05-.12-.036-.187.027-.118.117-.187.221-.224l-2.956-.656c-1.786-.397-3.14-2.02-2.965-3.842.182-1.889,1.75-3.213,3.511-3.229-.019-.03-.011-.07-.02-.104l-1.214-.27c-1.68-.373-2.969-1.852-2.919-3.572.067-2.315,2.188-3.881,4.332-3.406l2.803.622c0-.015-.012-.028-.008-.043.002-.02.025-.03.032-.048-1.47-.694-2.323-2.329-1.956-3.984.317-2.062,2.797-2.727,4.609-2.325l16.354,3.332-3.88-2.837c-1.556-1.137-2.099-3.322-1.044-4.935,1.125-1.72,3.445-2.128,5.083-.93l21.185,15.489c5.167,3.778,6.392,10.981,2.762,16.254h0c-4.141,6.017-11.519,8.919-18.649,7.336l-24.909-5.528c-1.643-.365-3.034-2.044-2.919-3.723Z" fill="#ff9e85"></path>
              <g fill="none" opacity=".25">
                <path d="m788.853,273.132c-.04.173-.211.284-.386.248l-15.548-3.189c-.178-.037-.292-.21-.256-.388.021-.17.21-.292.388-.256l15.548,3.189c.178.037.292.21.256.388l-.002.008Z" fill="#0c0c0c"></path>
              </g>
              <g fill="none" opacity=".25">
                <path d="m787.636,280.029c-.04.173-.211.284-.386.248l-17.352-3.558c-.178-.037-.292-.21-.256-.388.034-.162.21-.292.388-.256l17.352,3.558c.178.037.292.21.256.388l-.002.008Z" fill="#0c0c0c"></path>
              </g>
              <g fill="none" opacity=".25">
                <path d="m786.36,287.505c-.04.173-.211.284-.386.248l-13.841-2.838c-.178-.037-.292-.21-.256-.388.04-.179.21-.292.388-.256l13.841,2.838c.178.037.292.21.256.388l-.002.008Z" fill="#0c0c0c"></path>
              </g>
            </g>
            <path id="b_4_b" d="m798.698,307.016l135.145,24.423c.993.108,1.985.161,2.973.161,7.514,0,14.753-3.087,19.968-8.615,5.901-6.256,8.531-14.915,7.104-23.395l-18.92-112.457c-2.516-14.953-16.674-25.032-31.63-22.519-14.953,2.516-25.035,16.677-22.519,31.63l12.901,77.415-99.081-12.443-5.941,45.802Z" fill="#0066f9"></path>
            <g id="b_4_b-2" data-name="b_4_b">
              <path d="m933.844,331.939c.237,0,.447-.169.491-.411.049-.271-.132-.532-.403-.581l-134.677-24.338,5.816-44.836,98.587,12.381c.163.02.313-.035.423-.149s.159-.272.133-.429l-8.201-49.478c-.045-.271-.3-.463-.575-.411-.272.045-.456.303-.411.575l8.092,48.815-98.416-12.359c-.268-.033-.522.158-.559.432l-5.941,45.802c-.034.265.145.509.407.557l135.145,24.423c.03.005.06.008.09.008Z" fill="#0c0c0c"></path>
            </g>
            <rect x="907.567" y="269.954" width="1.001" height="8.804" transform="translate(493.625 1127.641) rotate(-80.905)" fill="#0c0c0c"></rect>
          </g>
          <rect x="771.282" y="231.116" width="1" height="21.206" transform="translate(-12.456 44.118) rotate(-3.248)" fill="#0c0c0c"></rect>
        </g>
      </g>
      <g>
        <path d="m647.83,135.227h-205.599s-31.046,23.253-31.046,23.253V37.131c0-9.875,8.005-17.88,17.88-17.88h218.765c9.875,0,17.88,8.005,17.88,17.88v80.216c0,9.875-8.005,17.88-17.88,17.88Z" fill="#0066f9"></path>
        <path d="m647.83,135.227h-205.599s-31.046,23.253-31.046,23.253V37.131c0-9.875,8.005-17.88,17.88-17.88h218.765c9.875,0,17.88,8.005,17.88,17.88v80.216c0,9.875-8.005,17.88-17.88,17.88Z" fill="#fff" opacity=".11"></path>
        <path d="m433.099,67.518h210.696c.43,0,.778-.348.778-.778,0-.43-.348-.778-.778-.778h-210.696c-.43,0-.778.348-.778.778s.348.778.778.778Z" fill="#fff"></path>
        <path d="m433.099,45.383h210.696c.43,0,.778-.348.778-.778s-.348-.778-.778-.778h-210.696c-.43,0-.778.348-.778.778s.348.778.778.778Z" fill="#fff"></path>
        <path d="m433.099,90.853h210.696c.43,0,.778-.348.778-.778s-.348-.778-.778-.778h-210.696c-.43,0-.778.348-.778.778s.348.778.778.778Z" fill="#fff"></path>
        <path d="m433.099,114.189h125.133c.43,0,.778-.348.778-.778s-.348-.778-.778-.778h-125.133c-.43,0-.778.348-.778.778s.348.778.778.778Z" fill="#fff"></path>
      </g>
      <g>
        <path d="m125.749,670.397c-.256,0-.512-.098-.707-.293-1.409-1.409-3.706-27.259-9.892-104.223-2.531-31.492-4.922-61.238-6.667-79.315-.125-1.291-.625-1.441-.79-1.491-2.388-.721-9.652,5.007-13.707,10.022-.347.429-.977.497-1.407.149-.429-.348-.496-.977-.149-1.407,2.682-3.316,11.422-12.009,15.838-10.68.891.268,1.996,1.042,2.206,3.214,1.746,18.093,4.137,47.847,6.669,79.347,3.759,46.77,8.018,99.756,9.417,103.093.282.391.247.939-.105,1.291-.195.195-.451.293-.707.293Z" fill="#494949"></path>
        <ellipse cx="88.152" cy="497.583" rx="38.507" ry="28.398" transform="translate(-291.84 164.468) rotate(-38.715)" fill="#48cf48"></ellipse>
        <ellipse cx="88.152" cy="497.583" rx="38.507" ry="28.398" transform="translate(-291.84 164.468) rotate(-38.715)" fill="#fff" opacity=".2"></ellipse>
        <path d="m62.758,524.775c-.112,0-.225-.038-.319-.115-.212-.176-.242-.491-.065-.704l47.291-57.029c.176-.211.491-.242.704-.065.212.176.242.491.065.704l-47.291,57.029c-.099.119-.241.181-.385.181Z" fill="#fff"></path>
        <path d="m136.063,658.171c-.109,0-.22-.018-.329-.056-.521-.181-.797-.751-.616-1.273l17.764-51.087c1.066-3.065,3.586-5.351,6.741-6.112,3.156-.763,6.44.122,8.788,2.364l9.391,8.971c.399.381.414,1.015.032,1.414-.382.399-1.015.413-1.414.032l-9.391-8.971c-1.853-1.77-4.445-2.469-6.937-1.867-2.49.601-4.479,2.405-5.321,4.825l-17.764,51.087c-.144.413-.53.672-.944.672Z" fill="#494949"></path>
        <ellipse cx="180.142" cy="609.065" rx="28.398" ry="38.507" transform="translate(-339.119 243.307) rotate(-38.363)" fill="#48cf48"></ellipse>
        <path d="m117.678,667.139c-.452,0-.862-.309-.972-.768l-29.811-124.645c-.422-1.767-1.729-3.079-3.494-3.51-1.765-.429-3.53.133-4.718,1.506l-9.189,10.619c-.361.417-.994.463-1.411.102-.417-.361-.463-.993-.102-1.411l9.189-10.619c1.665-1.924,4.233-2.744,6.705-2.141,2.471.603,4.374,2.514,4.965,4.988l29.811,124.645c.128.537-.203,1.077-.74,1.205-.078.019-.156.027-.233.027Z" fill="#494949"></path>
        <ellipse cx="78.697" cy="573.192" rx="38.507" ry="28.398" transform="translate(-499.522 553.071) rotate(-80.189)" fill="#48cf48"></ellipse>
        <path d="m125.75,670.397c-.041,0-.082-.002-.124-.007-.548-.068-.938-.567-.871-1.115l19.036-154.558c.43-3.486,2.78-6.296,6.135-7.335,3.354-1.039,6.883-.049,9.207,2.583l21.758,24.643c.366.414.326,1.046-.088,1.412-.414.366-1.046.326-1.411-.087l-21.758-24.643c-1.797-2.035-4.522-2.799-7.116-1.997-2.593.803-4.41,2.975-4.741,5.669l-19.036,154.558c-.062.507-.494.878-.991.878Z" fill="#494949"></path>
        <ellipse cx="169.511" cy="529.664" rx="28.398" ry="38.507" transform="translate(-376.02 421.621) rotate(-61.051)" fill="#48cf48"></ellipse>
        <ellipse cx="180.142" cy="609.065" rx="28.398" ry="38.507" transform="translate(-339.119 243.307) rotate(-38.363)" fill="#fff" opacity=".2"></ellipse>
        <ellipse cx="78.697" cy="573.192" rx="38.507" ry="28.398" transform="translate(-499.522 553.071) rotate(-80.189)" fill="#fff" opacity=".5"></ellipse>
        <ellipse cx="169.511" cy="529.664" rx="28.398" ry="38.507" transform="translate(-376.02 421.621) rotate(-61.051)" fill="#fff" opacity=".5"></ellipse>
        <polygon points="150.097 801.538 101.4 801.538 93.331 645.734 158.166 645.734 150.097 801.538" fill="#292a2e"></polygon>
        <polygon points="150.097 801.538 101.4 801.538 93.331 645.734 158.166 645.734 150.097 801.538" fill="#fff" opacity=".3"></polygon>
        <path d="m204.042,639.758c-.148,0-.294-.065-.393-.189l-47.799-60.386c-.171-.217-.135-.531.082-.703.218-.172.532-.134.703.082l47.799,60.386c.171.217.135.531-.082.703-.092.073-.202.108-.31.108Z" fill="#fff"></path>
        <path d="m200.028,553.141c-.102,0-.206-.031-.294-.096l-61.167-44.663c-.223-.163-.272-.476-.109-.699.163-.223.476-.272.699-.109l61.167,44.663c.223.163.272.476.109.699-.098.134-.25.205-.404.205Z" fill="#fff"></path>
        <path d="m69.654,610.489c-.043,0-.086-.005-.129-.017-.267-.071-.425-.345-.354-.612l19.472-72.953c.071-.267.35-.424.612-.354.267.071.425.345.354.612l-19.472,72.953c-.06.224-.262.371-.482.371Z" fill="#fff"></path>
      </g>
      <circle cx="279.543" cy="258.678" r="122.816" fill="#0066f9" opacity=".2"></circle>
      <g>
        <path d="m161.726,386.417c-10.393-22.391-11.779-47.61-3.9-71.013,10.181-30.244,34.642-53.386,65.434-61.904l8.161,29.502c-20.983,5.805-37.649,21.568-44.584,42.167-5.365,15.938-4.422,33.113,2.655,48.359l-27.765,12.888Z" fill="#0066f9"></path>
        <path d="m163.327,426.86c-3.344,0-6.569-1.833-8.191-5.018-9.021-17.716-1.947-39.469,15.769-48.49,17.715-9.022,39.469-1.947,48.491,15.769,2.301,4.52.503,10.049-4.016,12.351-4.518,2.3-10.05.503-12.351-4.016-2.144-4.211-5.799-7.334-10.292-8.795-4.494-1.462-9.287-1.086-13.497,1.059-8.692,4.426-12.162,15.098-7.736,23.79,2.301,4.52.503,10.049-4.016,12.351-1.334.679-2.758,1.001-4.16,1.001Z" fill="#292a2e"></path>
        <path d="m399.416,297.955c-16.972,0-33.506-4.464-48.255-13.089l15.452-26.424c11.648,6.811,24.942,9.809,38.45,8.663,16.758-1.42,32.139-9.118,43.31-21.677l22.872,20.344c-16.405,18.444-38.991,29.75-63.598,31.835-2.751.233-5.497.349-8.231.349Z" fill="#0066f9"></path>
        <path d="m478.507,270.813c-8.355,0-16.379-2.875-22.902-8.264-7.424-6.135-12.015-14.794-12.927-24.381-.912-9.587,1.965-18.956,8.099-26.38,3.23-3.909,9.019-4.461,12.929-1.23,3.909,3.231,4.46,9.019,1.23,12.929-6.213,7.519-5.151,18.691,2.368,24.903,3.642,3.01,8.238,4.425,12.943,3.973,4.704-.447,8.952-2.699,11.961-6.342,3.23-3.91,9.019-4.46,12.929-1.23,3.909,3.231,4.46,9.019,1.23,12.929-6.135,7.424-14.794,12.015-24.381,12.927-1.163.111-2.324.165-3.478.165Z" fill="#292a2e"></path>
        <path d="m202.705,255.107l20.291,114.768c5.415,30.624,32.028,52.945,63.127,52.945h0c30.271,0,56.416-21.174,62.707-50.784l24.842-116.929h-170.968Z" fill="#0066f9"></path>
        <ellipse cx="288.188" cy="255.107" rx="85.484" ry="25.274" fill="#292a2e"></ellipse>
        <g>
          <path d="m371.716,187.27c0,37.16-37.396,55.04-83.527,55.04s-83.527-17.88-83.527-55.04,37.396-79.528,83.527-79.528,83.527,42.368,83.527,79.528Z" fill="#0066f9"></path>
          <rect x="259.361" y="142.176" width="101.442" height="53.931" rx="26.965" ry="26.965" fill="#fff"></rect>
          <path d="m308.666,178.944c-1.691,0-3.061-1.37-3.061-3.061,0-5.747-4.675-10.422-10.421-10.422s-10.422,4.675-10.422,10.422c0,1.691-1.37,3.061-3.061,3.061s-3.061-1.37-3.061-3.061c0-9.122,7.422-16.544,16.544-16.544s16.544,7.422,16.544,16.544c0,1.691-1.37,3.061-3.061,3.061Z" fill="#292a2e"></path>
          <path d="m350.299,178.944c-1.691,0-3.061-1.37-3.061-3.061,0-5.747-4.675-10.422-10.421-10.422s-10.422,4.675-10.422,10.422c0,1.691-1.37,3.061-3.061,3.061s-3.061-1.37-3.061-3.061c0-9.122,7.422-16.544,16.544-16.544s16.544,7.422,16.544,16.544c0,1.691-1.37,3.061-3.061,3.061Z" fill="#292a2e"></path>
        </g>
        <rect x="285.371" y="79.051" width="3.714" height="37.426" transform="translate(-4.435 14.156) rotate(-2.802)" fill="#0066f9"></rect>
        <circle cx="286.449" cy="81.839" r="6.788" fill="#292a2e"></circle>
      </g>
      <g>
        <rect x="437.826" y="400.637" width="276.045" height="39.751" rx="19.876" ry="19.876" fill="#fff"></rect>
        <path d="m693.995,441.138h-236.294c-11.373,0-20.626-9.252-20.626-20.625s9.253-20.626,20.626-20.626h236.294c11.373,0,20.625,9.253,20.625,20.626s-9.252,20.625-20.625,20.625Zm-236.294-39.751c-10.546,0-19.126,8.58-19.126,19.126s8.58,19.125,19.126,19.125h236.294c10.546,0,19.125-8.579,19.125-19.125s-8.579-19.126-19.125-19.126h-236.294Z" fill="#292a2e"></path>
      </g>
      <path d="m947.214,801.862H86.794c-.388,0-.702-.314-.702-.702s.314-.702.702-.702h860.419c.388,0,.702.314.702.702s-.314.702-.702.702Z" fill="#292a2e"></path>
    </g>
  </g>
</svg>