<svg width="670" height="513" viewBox="0 0 670 513" fill="none" xmlns="http://www.w3.org/2000/svg" style="width: 100%; height: 100%;">
<g clip-path="url(#clip0_35_2483)">
<path d="M572.632 130.912C455.936 132.066 281.2 129.432 164.505 130.586C166.562 119.847 165.99 111.144 167.914 101.097C218.465 102.734 513.317 101.904 575.961 101.904C574.132 111.456 573.438 118.323 572.632 130.912Z" fill="#010101" stroke="#010101" stroke-width="1.5" stroke-linecap="round" stroke-linejoin="round"></path>
<path d="M164.505 130.587C298.031 130.587 477.2 130.913 572.632 130.913C560.156 239.287 553.993 306.303 541.275 382.02C403.801 381.325 274.82 382.022 137.344 382.02C143.525 345.222 159.135 177.229 164.504 130.588L164.505 130.587Z" fill="white" stroke="#010101" stroke-width="1.5" stroke-linecap="round" stroke-linejoin="round"></path>
<path d="M183.653 166.175C227.121 166.175 287.511 165.089 339.016 166.175C334.119 210.02 329.998 244.179 326.254 286.686C274.266 286.686 222.475 287.235 170.501 289.558C170.794 286.234 179.252 205.573 183.653 166.175Z" fill="#42d242" stroke="#010101" stroke-width="1.5" stroke-linecap="round" stroke-linejoin="round"></path>
<path d="M267.859 239.771C261.993 223.418 239.592 199.492 233.673 193.352C232.928 192.579 231.673 192.682 231.064 193.566C213.039 219.7 195.052 248.448 190.219 258.519C190.183 258.594 191.355 258.52 191.439 258.52C219.938 258.535 240.293 257.789 258.98 257.789C259.724 257.789 260.471 257.574 261.123 257.216C261.837 256.825 262.394 256.197 262.815 255.501C266.299 249.748 269.359 243.953 267.859 239.771Z" fill="white" stroke="#010101" stroke-width="1.5" stroke-linecap="round" stroke-linejoin="round"></path>
<path d="M244.873 257.901C253.49 243.43 271.298 222.291 276.76 215.83C277.471 214.989 278.771 215.029 279.425 215.915C284.327 222.56 301.497 245.056 308.927 256.556C309.474 257.403 308.861 258.52 307.852 258.518C281.254 258.485 262.629 257.9 244.873 257.9V257.901Z" fill="white" stroke="#010101" stroke-width="1.5" stroke-linecap="round" stroke-linejoin="round"></path>
<path d="M259.067 183.905C256.483 186.489 255.944 190.588 257.052 194.071C257.511 195.513 258.21 196.913 259.308 197.955C261.538 200.072 264.935 200.328 267.999 200.073C269.732 199.929 271.486 199.649 273.047 198.883C276.551 197.163 277.829 192.969 277.651 189.069C277.294 181.258 265.67 177.303 259.067 183.906V183.905Z" fill="white" stroke="#010101" stroke-width="1.5" stroke-linecap="round" stroke-linejoin="round"></path>
<path d="M49.77 402.601C43.132 396.167 36.515 389.734 29.841 383.415C30.664 375.736 30.052 373.763 28.805 366.989C28.557 365.642 27.782 364.008 26.414 364.117C24.942 364.233 24.536 366.139 24.225 367.579C23.566 370.633 23.24 371.52 22.378 372.688C17.893 375.145 14.223 377.138 10.828 380.958C9.80799 382.105 4.46499 381.864 4.20999 383.376C3.98399 384.719 8.23199 388.337 9.08899 389.397C17.716 400.072 25.884 409.406 33.424 419.101C36.538 423.105 55.278 407.94 49.769 402.6L49.77 402.601Z" fill="white" stroke="#010101" stroke-width="1.5" stroke-linecap="round" stroke-linejoin="round"></path>
<path d="M32.381 361.31C31.779 360.795 31.194 360.261 30.626 359.708L26.568 361.45C28.572 362.929 29.557 364.222 31.393 365.965C31.607 364.741 32.025 362.855 32.381 361.31Z" fill="white" stroke="#010101" stroke-width="1.5" stroke-linecap="round" stroke-linejoin="round"></path>
<path d="M3.338 387.358C2.45 388.42 1.577 389.48 0.75 390.535C1.528 391.463 3.992 394.054 5.073 394.767C6.082 393.798 7.084 392.799 8.081 391.788C7.345 391.101 6.41 390.227 5.476 389.351L3.338 387.357V387.358Z" fill="#010101" stroke="#010101" stroke-width="1.5" stroke-linecap="round" stroke-linejoin="round"></path>
<path d="M8.08504 391.785C12.77 387.039 27.275 371.042 31.394 365.965C29.974 364.72 26.569 361.45 26.569 361.45C22.386 366.283 7.59804 382.269 3.34204 387.355C3.98604 387.957 4.73104 388.654 5.47704 389.352L8.08604 391.785H8.08504Z" fill="#42d242" stroke="#010101" stroke-width="1.5" stroke-linecap="round" stroke-linejoin="round"></path>
<path d="M33 358.689L30.626 359.708C31.194 360.261 31.779 360.795 32.381 361.31C32.718 359.847 33 358.689 33 358.689Z" fill="#010101" stroke="#010101" stroke-width="1.5" stroke-linecap="round" stroke-linejoin="round"></path>
<path d="M4.77104 377.771C6.10304 374.697 9.38204 370.312 11.368 368.592C12.124 367.937 12.82 367.027 13.75 366.606C14.683 366.184 15.734 366.305 16.715 366.512C19.588 367.119 20.954 366.938 23.317 368.796C26.523 371.317 24.73 374.931 22.116 373.811C18.833 372.405 17.367 372.438 14.778 371.042C16.677 371.999 16.949 371.735 18.563 372.312C20.177 372.888 23.662 374.631 23.854 376.2C24.382 380.51 19.914 377.88 17.396 377.462C14.883 377.044 13.449 376.335 11.005 375.594C13.057 376.221 14.038 376.724 16.09 377.351C17.004 377.63 17.967 378.288 18.72 378.912C20.563 380.441 20.555 382.842 16.216 382.377C13.223 382.056 11.802 381.564 8.79704 379.983C10.594 380.483 11.285 381.578 12.987 382.371C13.984 382.835 17.81 386.647 13.651 387.093C11.217 387.354 8.35904 386.267 5.78204 384.865C3.11204 383.413 3.47404 380.763 4.77104 377.769V377.771Z" fill="white" stroke="#010101" stroke-width="1.5" stroke-linecap="round" stroke-linejoin="round"></path>
<path d="M227.432 473.283C229.143 404.165 233.526 335.112 240.565 266.332C180.325 271.374 109.516 280.513 50.159 287.782C46.216 302.271 26.769 422.849 16.875 483.72C38.52 485.454 59.128 485.497 86.295 483.794C137.761 481.692 189.045 476.496 227.432 473.283Z" fill="#E3E3FF" stroke="#010101" stroke-width="1.5" stroke-linecap="round" stroke-linejoin="round"></path>
<path d="M175.763 294.172C174.79 292.227 173.74 290.322 172.615 288.461C171.82 287.146 170.969 285.831 169.791 284.844C168.24 283.545 166.242 282.915 164.27 282.463C160.77 281.661 157.117 281.325 153.581 281.952C149.916 282.602 146.509 284.256 143.264 286.08C140.401 287.689 137.572 289.487 135.456 291.998C133.558 294.251 132.317 296.983 131.328 299.758C128.577 307.476 127.589 315.809 124.076 323.211C122.162 327.244 119.535 330.914 117.703 334.985C115.09 340.792 114.177 347.352 115.106 353.652C121.013 353.269 126.92 352.887 132.827 352.504C136.229 352.284 139.68 352.054 142.896 350.924C146.112 349.794 149.119 347.63 150.489 344.509C151.537 342.121 151.543 339.428 151.642 336.823C151.81 332.429 152.294 328.053 152.777 323.683C153.172 320.113 153.59 316.461 155.171 313.236C159.35 304.717 170.428 301.349 175.764 294.173L175.763 294.172Z" fill="#010101" stroke="#010101" stroke-width="1.5" stroke-linecap="round" stroke-linejoin="round"></path>
<path d="M187.107 450.907C200.889 424.495 220.166 400.967 243.351 382.259C250.218 376.718 257.781 371.442 266.498 370.072C272.044 369.2 278.364 370.289 281.923 374.631C287.387 381.296 283.754 391.228 279.737 398.853C265.783 425.34 249.392 450.542 232.319 475.032C224.817 473.441 217.278 471.84 210.12 469.088C202.962 466.336 196.139 462.36 191.027 456.644C188.648 453.983 186.639 450.952 187.108 450.908L187.107 450.907Z" fill="#55D087" stroke="#010101" stroke-width="1.5" stroke-linecap="round" stroke-linejoin="round"></path>
<path d="M292.139 475.718C305.477 455.98 318.349 438.682 324.387 415.638C326.051 409.285 326.634 401.369 321.484 397.294C316.327 393.214 308.769 395.609 302.887 398.547C270.861 414.543 245.006 442.538 231.93 475.978C257.049 475.978 272.057 476.362 292.139 475.718Z" fill="#55D087" stroke="#010101" stroke-width="1.5" stroke-linecap="round" stroke-linejoin="round"></path>
<path d="M290.044 438.116C287.648 431.152 285.253 424.187 282.857 417.223Z" fill="#55D087"></path>
<path d="M290.044 438.116C287.648 431.152 285.253 424.187 282.857 417.223" stroke="#010101" stroke-width="1.5" stroke-linecap="round" stroke-linejoin="round"></path>
<path d="M277.477 457.554C286.176 455.483 294.783 453.029 303.266 450.202Z" fill="#55D087"></path>
<path d="M277.477 457.554C286.176 455.483 294.783 453.029 303.266 450.202" stroke="#010101" stroke-width="1.5" stroke-linecap="round" stroke-linejoin="round"></path>
<path d="M246.853 404.459C245.143 399.734 243.433 395.009 241.724 390.284Z" fill="#55D087"></path>
<path d="M246.853 404.459C245.143 399.734 243.433 395.009 241.724 390.284" stroke="#010101" stroke-width="1.5" stroke-linecap="round" stroke-linejoin="round"></path>
<path d="M234.436 423.362C242.517 423.64 250.634 422.805 258.49 420.891Z" fill="#55D087"></path>
<path d="M234.436 423.362C242.517 423.64 250.634 422.805 258.49 420.891" stroke="#010101" stroke-width="1.5" stroke-linecap="round" stroke-linejoin="round"></path>
<path d="M265.173 475.411C275.213 460.007 285.262 444.589 296.317 429.897C303.284 420.637 310.647 411.671 317.314 402.193" stroke="#010101" stroke-width="1.5" stroke-linecap="round" stroke-linejoin="round"></path>
<path d="M219.173 443.53C236.855 419.725 254.83 396.138 273.091 372.774" stroke="#010101" stroke-width="1.5" stroke-linecap="round" stroke-linejoin="round"></path>
<path d="M33.9229 380.341C46.8759 392.854 60.4319 404.743 74.5269 415.953C78.6999 406.563 82.9499 397.208 87.2759 387.888C90.9569 379.957 94.7879 371.91 100.767 365.53C115.33 349.99 138.658 347.775 159.55 343.644C186.031 338.408 211.596 328.565 234.75 314.689C237.592 312.986 240.452 311.176 242.546 308.609C246.73 303.482 253.531 283.126 262.316 261.692C270.845 263.297 283.609 264.902 292.137 266.507C286.014 288.94 277.604 310.749 267.081 331.486C264.316 336.935 261.304 342.44 256.676 346.43C252.988 349.61 248.476 351.652 243.996 353.561C228.711 360.074 212.987 365.556 196.966 369.957C197.026 394.708 198.238 416.819 199.751 444.861C171.341 445.951 140.361 447.318 112.083 450.261C113.769 433.244 113.55 416.407 114.749 404.3C111.121 412.296 91.5589 446.896 78.5599 447.596C71.2819 447.988 64.2299 445.552 57.8879 441.961C40.2999 432.003 25.9089 416.759 13.1899 401.051C20.3149 393.453 26.1359 387.81 33.9199 380.341H33.9229Z" fill="#0066f9" stroke="#010101" stroke-width="1.5" stroke-linecap="round" stroke-linejoin="round"></path>
<path d="M533.241 331.68C538.692 283.249 546.715 221.574 553.029 173.248C525.747 173.248 506.137 173.476 482.905 174.083C477.504 222.498 470.089 283.086 466.872 333.307C487.755 333.498 511.895 333.037 533.241 331.681V331.68Z" fill="white" stroke="#010101" stroke-width="1.5" stroke-linecap="round" stroke-linejoin="round"></path>
<path d="M538.614 220.158C534.466 222.162 502.243 221.978 486.688 221.947C486.641 209.779 487.695 197.719 489.435 185.76C507.467 184.208 525.06 183.751 542.642 184.719C540.611 196.566 539.078 208.499 538.614 220.158Z" stroke="#010101" stroke-width="1.5" stroke-linecap="round" stroke-linejoin="round"></path>
<path d="M489.434 185.759C506.811 196.303 521.853 207.625 538.594 219.152" stroke="#010101" stroke-width="1.5" stroke-linecap="round" stroke-linejoin="round"></path>
<path d="M541.701 185.61C523.412 197.611 505.123 209.613 486.834 221.614" stroke="#010101" stroke-width="1.5" stroke-linecap="round" stroke-linejoin="round"></path>
<path d="M533.52 267.727C529.372 269.731 497.149 269.547 481.594 269.516C481.547 257.348 482.601 245.288 484.341 233.329C502.373 231.777 519.966 231.32 537.548 232.288C535.517 244.135 533.984 256.068 533.52 267.727Z" stroke="#010101" stroke-width="1.5" stroke-linecap="round" stroke-linejoin="round"></path>
<path d="M484.341 233.329C501.718 243.873 516.76 255.195 533.501 266.722" stroke="#010101" stroke-width="1.5" stroke-linecap="round" stroke-linejoin="round"></path>
<path d="M536.607 233.179C518.318 245.18 500.029 257.182 481.74 269.183" stroke="#010101" stroke-width="1.5" stroke-linecap="round" stroke-linejoin="round"></path>
<path d="M528.236 315.296C524.088 317.3 491.865 317.116 476.31 317.085C476.263 304.917 477.317 292.857 479.057 280.898C497.089 279.346 514.682 278.889 532.264 279.857C530.233 291.704 528.7 303.637 528.236 315.296Z" stroke="#010101" stroke-width="1.5" stroke-linecap="round" stroke-linejoin="round"></path>
<path d="M479.057 280.898C496.434 291.442 511.476 302.764 528.217 314.291" stroke="#010101" stroke-width="1.5" stroke-linecap="round" stroke-linejoin="round"></path>
<path d="M531.323 280.748C513.034 292.749 494.745 304.751 476.456 316.752" stroke="#010101" stroke-width="1.5" stroke-linecap="round" stroke-linejoin="round"></path>
<path d="M644.202 100.255C643.287 106.4 641.447 112.383 638.52 117.979C636.583 121.692 634.28 125.071 631.644 128.17C626.5 134.282 620.14 139.265 613.092 143.332C601.534 150.015 588.126 154.244 575.116 156.966C560.416 160.044 544.952 161.819 530.479 158.204C529.037 157.838 527.595 157.429 526.175 156.956C518.922 154.556 512.347 150.704 506.579 145.786C497.26 137.844 490.061 127.137 485.541 115.321C482.539 107.498 480.709 99.179 480.214 90.861C479.633 80.961 480.677 70.888 483.991 61.569C489.275 46.686 500.197 34.3 513.186 25.691C526.185 17.082 564.172 1.31696 593.443 11.831C608.907 17.373 620.938 30.426 630.128 44.308C640.889 60.568 647.012 81.23 644.204 100.255H644.202Z" fill="#0066f9" stroke="#010101" stroke-width="1.5" stroke-linecap="round" stroke-linejoin="round"></path>
<path d="M532.685 2.42798C533.168 2.53498 533.93 2.14798 534.307 2.46698C534.401 2.10198 534.918 2.00098 535.244 2.19098C535.57 2.38098 535.745 2.74598 535.901 3.08898C536.088 2.36198 537.231 1.87998 537.977 1.95198C539.949 2.14198 539.111 2.89198 539.816 3.14998C540.272 1.62698 542.867 2.38598 542.755 4.22298C542.687 4.09698 542.742 3.91998 542.87 3.85598C545.086 3.42998 545.172 4.62198 545.517 5.99298C546.286 5.39298 547.197 5.76698 547.479 6.47198C547.355 5.97798 547.958 5.55298 548.46 5.63998C548.962 5.72698 549.341 6.12798 549.682 6.50498C550.142 6.18698 550.797 6.30698 551.248 6.63798C551.699 6.96898 551.991 7.46698 552.271 7.95098C552.778 7.86198 553.326 8.05898 553.66 8.45098C553.994 8.84298 554.103 9.41498 553.935 9.90098C553.862 9.78398 554.012 9.63098 554.149 9.64698C554.286 9.66298 554.389 9.77598 554.476 9.88298C555.029 10.562 555.503 11.305 555.885 12.092C556.998 12.688 557.456 13.833 557.144 14.787C557.669 15.015 557.92 15.722 557.657 16.231C558.28 16.227 558.711 16.858 558.901 17.451C559.091 18.044 559.182 18.71 559.621 19.152C560.048 19.582 560.781 19.78 560.914 20.371C561.039 20.926 560.533 21.407 560.068 21.736C560.647 21.781 561.073 22.286 561.383 22.777C562.03 23.799 562.489 24.94 562.729 26.126C563.613 26.439 564.148 26.926 564.223 27.507C564.298 28.088 563.903 28.694 563.341 28.861C564.081 29.248 564.74 29.877 564.951 30.686C565.162 31.495 564.804 32.473 564.03 32.787C564.564 32.977 565.082 33.32 565.299 33.844C565.516 34.368 565.315 35.082 564.782 35.276C565.088 35.379 565.394 35.483 565.7 35.586C565.781 36.588 565.673 37.605 565.384 38.568C565.92 39.189 566.187 39.601 566.141 40C566.095 40.399 565.743 40.74 565.342 40.773C565.798 41.124 566.01 41.764 565.852 42.318C565.694 42.872 565.178 43.305 564.605 43.363C565.209 43.753 565.273 44.751 564.724 45.215C564.938 45.918 564.819 46.715 564.41 47.326C564.715 47.576 564.764 47.941 564.676 48.153C564.287 49.082 563.579 49.873 562.7 50.363C562.807 50.282 562.911 50.473 562.903 50.606C562.846 51.614 562.148 52.486 561.325 53.07C560.881 53.385 560.386 53.645 560.028 54.055C559.464 54.702 559.332 55.608 559.223 56.459C558.106 57.967 557.795 60.189 557.096 62.263C554.905 68.766 548.934 73.454 542.449 75.696C535.964 77.938 528.956 78.07 522.096 77.917C520.208 77.875 518.272 77.803 516.53 77.075C514.788 76.346 513.258 74.813 513.08 72.933C512.431 72.658 511.981 72.397 511.747 71.999C511.513 71.601 511.503 71.08 511.723 70.674C511.378 70.996 510.8 71.03 510.42 70.75C510.04 70.47 509.9 69.909 510.105 69.483C509.802 69.718 509.296 69.607 509.119 69.267C508.942 68.927 509.143 68.449 509.51 68.337C509.091 68.767 508.297 68.5 507.996 67.98C507.695 67.46 507.738 66.818 507.791 66.22C507.302 66.658 506.073 66.337 505.864 65.589C505.655 64.841 506.121 64.076 506.648 63.506C506.327 64.348 505.047 64.608 504.424 63.957C503.801 63.306 504.115 62.039 504.97 61.754C504.313 62.15 503.392 62.037 502.849 61.494C502.972 60.919 503.378 60.411 503.912 60.165C503.336 60.823 502.158 60.802 501.606 60.124C501.054 59.446 501.271 58.289 502.032 57.857C501.184 57.966 500.295 57.443 499.978 56.649C499.661 55.855 499.945 54.864 500.635 54.359C499.819 54.459 498.965 53.969 498.64 53.214C498.315 52.459 498.546 51.502 499.18 50.978C497.808 50.842 497.291 48.64 498.46 47.908C497.209 47.532 496.815 45.607 497.817 44.77C496.402 44.61 495.894 42.335 497.105 41.588C495.961 41.193 495.721 39.356 496.727 38.681C496.38 38.513 496.033 38.345 495.686 38.177C497.332 36.676 495.219 33.45 496.765 31.847C495.829 31.012 495.997 29.267 497.076 28.627C496.314 28.114 496.32 25.849 496.656 24.994C497.102 23.86 497.793 23.827 498.238 22.693C497.869 22.499 497.679 20.367 497.803 19.969C498.191 18.724 499.835 19.181 500.51 18.065C501.072 17.135 500.501 14.974 501.234 14.171C501.967 13.368 502.718 14.109 503.597 13.47C503.479 12.084 505.032 10.478 506.106 11.223C505.438 8.41498 508.98 8.06198 509.208 9.37398C509.322 8.86498 508.86 7.38698 509.355 7.22098C509.85 7.05598 510.428 7.16798 510.826 7.50698C510.594 6.89198 510.826 6.13498 511.362 5.75598C511.898 5.37698 512.689 5.40998 513.192 5.83198C513.038 5.31698 513.277 4.71098 513.742 4.43998C514.207 4.16898 515.464 3.95198 515.959 4.59698C515.815 2.65598 519.349 2.99398 519.479 3.26298C519.441 2.75198 519.947 2.33298 520.456 2.27598C520.965 2.21898 521.463 2.42198 521.933 2.62398C522.173 1.93298 522.61 1.26898 523.273 0.961983C523.936 0.654983 524.539 1.43098 524.904 2.06398C525.118 1.41398 525.698 0.898983 526.368 0.762983C527.038 0.626983 528.079 1.48698 528.53 2.00098C528.96 1.39998 529.718 1.05098 530.454 1.11498C531.19 1.17898 531.877 1.65298 532.685 2.42598V2.42798Z" fill="#010101" stroke="#010101" stroke-width="1.5" stroke-linecap="round" stroke-linejoin="round"></path>
<path d="M445.222 170.088C438.253 172.78 431.228 175.474 424.123 178.168C420.375 175.924 415.953 173.602 411.85 175.1C409.839 175.834 408.256 177.395 406.786 178.951C403.544 182.383 396.069 186.951 397.723 189.822C399.424 191.126 403.133 188.154 405.382 186.4C407.632 184.646 409.911 182.71 412.705 182.133C415.499 181.556 418.946 182.965 419.465 185.77C419.971 188.504 417.459 190.992 414.785 191.754C412.111 192.516 409.262 192.115 406.486 192.271C405.011 192.354 403.243 192.853 402.881 194.285C402.282 196.66 405.856 197.596 408.291 197.325C420.865 195.926 433.397 194.141 445.862 191.977C466.638 188.369 462.18 163.537 445.221 170.089L445.222 170.088Z" fill="white" stroke="#010101" stroke-width="1.5" stroke-linecap="round" stroke-linejoin="round"></path>
<path d="M394.869 192.022C404.886 185.07 414.902 178.73 424.919 171.777C425.824 173.377 426.728 174.977 427.633 176.577C417.529 183.571 407.73 190.565 397.626 197.559C396.56 196.179 395.451 193.985 394.869 192.021V192.022Z" fill="white" stroke="#010101" stroke-width="1.5" stroke-linecap="round" stroke-linejoin="round"></path>
<path d="M394.775 192.181C393.73 194.043 392.662 195.892 391.57 197.727C393.567 197.858 395.572 197.85 397.568 197.705C396.34 195.902 395.113 194.099 394.775 192.181Z" stroke="#010101" stroke-width="1.5" stroke-linecap="round" stroke-linejoin="round"></path>
<path d="M420.626 175.298C421.509 176.432 422.391 177.567 423.274 178.701Z" fill="white"></path>
<path d="M420.626 175.298C421.509 176.432 422.391 177.567 423.274 178.701" stroke="#010101" stroke-width="1.5" stroke-linecap="round" stroke-linejoin="round"></path>
<path d="M506.106 32.523C506.551 32.16 506.278 31.458 506.266 30.884C506.254 30.31 507.208 29.815 507.27 30.386C506.55 30.312 505.922 29.474 506.281 28.845C506.64 28.216 507.909 28.699 507.605 29.356C506.989 29.03 506.754 28.145 507.127 27.556C507.499 26.967 508.399 26.8 508.958 27.216C508.782 26.506 508.605 25.797 508.429 25.087C508.82 25.084 509.211 25.082 509.602 25.079C509.963 24.381 509.653 23.416 508.952 23.06C508.656 23.636 509.824 24.033 510.125 23.46C510.426 22.887 509.939 22.176 509.345 21.917C508.826 22.03 508.846 22.918 509.341 23.11C509.836 23.303 510.412 22.87 510.51 22.348C510.608 21.826 510.338 21.295 509.966 20.916C510.864 20.79 511.45 19.655 511.033 18.85C511.224 19.27 512.025 18.882 511.814 18.472C512.136 18.9 512.458 19.327 512.78 19.755C512.325 20.102 512.256 20.852 512.64 21.276C513.024 21.7 513.777 21.706 514.167 21.287C513.664 21.639 513.524 22.415 513.873 22.92C514.222 23.425 514.996 23.571 515.504 23.227C515.209 23.711 515.354 24.413 515.816 24.741C516.278 25.07 516.988 24.976 517.349 24.539C517.243 25.269 517.968 25.994 518.698 25.888C519.428 25.782 519.916 24.879 519.605 24.21C519.064 25.024 519.547 26.308 520.491 26.562C521.435 26.817 522.498 25.951 522.44 24.975C521.65 25.628 521.97 27.146 522.957 27.425C523.944 27.704 525.01 26.577 524.679 25.607C524.357 26.47 525.086 27.542 526.006 27.561C526.926 27.58 527.698 26.538 527.412 25.663C526.597 26.08 526.556 27.45 527.344 27.915C528.133 28.38 529.312 27.681 529.282 26.765C528.873 27.477 529.211 28.51 529.962 28.842C530.713 29.174 531.704 28.729 531.955 27.946C531.983 28.547 532.509 29.083 533.109 29.124C533.709 29.165 534.302 28.704 534.411 28.113C533.969 28.137 533.895 28.846 534.236 29.129C534.577 29.412 535.07 29.379 535.51 29.33C535.95 29.281 536.442 29.246 536.786 29.525C536.833 28.944 536.88 28.364 536.926 27.783C536.871 28.211 537.064 28.662 537.179 29.002C538.19 28.845 538.504 27.556 539.228 26.833C539.756 26.306 540.515 26.086 541.252 25.967C541.816 25.876 542.405 25.833 542.952 25.997C543.588 26.188 544.109 26.638 544.59 27.095C545.166 27.642 545.72 28.225 546.124 28.908C547.015 30.414 547.084 32.357 546.366 33.952C545.648 35.547 543.571 38.915 541.709 39.627C544.823 45.821 546.281 50.577 550.091 56.219C552.457 55.989 555.622 54.569 558.72 53.693C562.086 56.237 565.206 59.407 566.491 63.426C567.898 67.827 566.911 72.654 565.22 76.954C564.291 79.317 563.127 81.634 561.382 83.478C559.521 85.444 557.092 86.776 554.614 87.867C547.43 91.03 539.471 92.414 531.641 91.86C529.026 91.675 526.367 91.258 524.058 90.018C521.224 88.495 519.106 85.779 518.087 82.727C517.067 79.675 517.107 76.318 517.956 73.215C518.224 72.237 518.585 71.254 519.261 70.497C520.029 69.638 521.122 69.156 522.179 68.7C524.613 67.649 527.047 66.598 529.452 65.38C528.587 63.323 527.643 61.299 526.508 59.004C521.495 60.998 515.214 59.037 512.225 54.545C511.183 52.979 510.529 51.191 509.946 49.403C508.119 43.801 506.899 38.002 506.106 32.518V32.523Z" fill="white" stroke="#010101" stroke-width="1.5" stroke-linecap="round" stroke-linejoin="round"></path>
<path d="M644.202 100.255C643.287 106.4 641.447 112.383 638.52 117.979C636.583 121.692 634.28 125.071 631.644 128.17C617.202 118.205 603.321 105.206 590.472 94.294C597.542 109.629 605.914 127.729 613.092 143.333C601.534 150.016 588.126 154.245 575.116 156.967C560.416 160.045 544.952 161.82 530.479 158.205C530.145 157.387 529.79 156.526 529.414 155.622C524.798 144.678 519.245 129.139 514.617 118.195C512.174 126.836 509.29 136.521 506.578 145.787C505.416 149.758 504.286 153.664 503.242 157.366C502.026 161.649 500.756 166.05 497.991 169.548C494.225 174.326 488.263 176.704 482.592 178.878C465.665 185.356 448.748 191.835 432.638 197.818C430.357 189.801 428.086 181.784 425.805 173.767C441.473 167.73 457.152 161.704 473.563 154.741C477.555 141.602 481.548 128.462 485.54 115.323C487.531 108.759 489.522 102.205 491.512 95.652C492.782 91.466 494.084 87.205 496.548 83.589C501.821 75.863 511.312 72.44 520.696 69.395C522.418 75.271 526.765 80.307 532.318 82.879C537.86 85.44 544.521 85.494 550.106 83.008C553.334 81.566 556.24 79.285 558.091 76.261C562.073 69.74 560.501 61.378 558.091 53.867C564.462 51.446 571.338 49.003 577.935 50.725C581.938 51.769 585.393 54.265 588.718 56.73C607.625 70.709 626.124 85.226 644.203 100.259L644.202 100.255Z" fill="white" stroke="#010101" stroke-width="1.5" stroke-linecap="round" stroke-linejoin="round"></path>
<path d="M546.235 84.276C553.714 105.644 562.714 129.174 570.192 150.542" stroke="#010101" stroke-width="1.5" stroke-linecap="round" stroke-linejoin="round"></path>
<path d="M529.19 154.568C556.983 154.885 575.037 151.025 611.042 138.874" stroke="#010101" stroke-width="1.5" stroke-linecap="round" stroke-linejoin="round"></path>
<path d="M514.25 39.878C514.234 42.412 514.217 44.947 514.201 47.481C515.489 47.767 516.842 47.753 518.124 47.443" stroke="#010101" stroke-width="1.5" stroke-linecap="round" stroke-linejoin="round"></path>
<path d="M525.806 59.341C528.323 58.741 530.364 56.957 532.293 55.232" stroke="#010101" stroke-width="1.5" stroke-linecap="round" stroke-linejoin="round"></path>
<path d="M558.618 95.095C558.216 95.283 557.875 95.63 557.76 96.059C557.645 96.488 557.786 96.991 558.147 97.25C558.504 97.506 558.984 97.489 559.42 97.441C559.59 97.423 559.766 97.399 559.908 97.305C560.037 97.22 560.123 97.085 560.205 96.954C560.339 96.739 560.471 96.518 560.533 96.273C560.595 96.028 560.581 95.751 560.437 95.543C560.345 95.41 560.207 95.314 560.062 95.24C559.748 95.08 559.32 94.768 558.618 95.095Z" stroke="#010101" stroke-width="1.5" stroke-linecap="round" stroke-linejoin="round"></path>
<path d="M571.833 132.444C571.144 132.347 570.419 132.886 570.346 133.579C570.273 134.271 570.901 134.962 571.596 134.926C572.144 134.897 572.622 134.459 572.776 133.933C572.93 133.407 572.851 132.589 571.834 132.445L571.833 132.444Z" stroke="#010101" stroke-width="1.5" stroke-linecap="round" stroke-linejoin="round"></path>
<path d="M566.391 115.297C565.702 115.2 564.977 115.739 564.904 116.432C564.831 117.125 565.459 117.815 566.154 117.779C566.702 117.75 567.18 117.312 567.334 116.786C567.488 116.26 567.409 115.442 566.392 115.298L566.391 115.297Z" stroke="#010101" stroke-width="1.5" stroke-linecap="round" stroke-linejoin="round"></path>
<path d="M145.309 317.596C144.2 318.702 142.481 319.154 140.971 318.738C139.461 318.321 138.218 317.052 137.833 315.533C137.605 314.635 137.663 313.684 137.865 312.781C138.273 310.954 139.354 309.194 141.039 308.378C142.724 307.562 145.023 307.943 146.017 309.691C147.908 310.701 150.34 310.098 152.023 308.77C153.706 307.442 154.794 305.517 155.796 303.621C158.13 299.206 160.267 294.539 160.631 289.558C164.714 293.047 170.318 294.688 175.751 293.696C177.032 297.271 177.584 301.059 178.13 304.818C178.597 308.038 178.851 311.302 178.375 314.521C176.997 323.85 172.849 326.122 166.899 328.184C167.068 332.27 167.238 336.357 167.658 340.612C170.667 340.281 173.666 339.852 176.431 339.148C177.176 347.351 176.668 355.776 173.891 363.53C171.114 371.284 165.925 378.336 158.735 382.019C154.68 380.731 150.739 378.794 147.757 375.758C145.567 373.528 143.97 370.787 142.602 367.977C139.386 361.372 137.311 355.289 137.345 347.643C139.417 347.246 143.118 346.523 145.169 345.729C145.169 337.153 145.309 328.672 145.309 317.595V317.596Z" fill="white" stroke="#010101" stroke-width="1.5" stroke-linecap="round" stroke-linejoin="round"></path>
<path d="M158.887 327.234C161.34 328.476 164.232 328.829 166.913 328.213" stroke="#010101" stroke-width="1.5" stroke-linecap="round" stroke-linejoin="round"></path>
<path d="M168.539 302.751C170.092 305.012 171.41 307.436 172.464 309.968C171.461 310.629 170.412 311.222 169.328 311.741" stroke="#010101" stroke-width="1.5" stroke-linecap="round" stroke-linejoin="round"></path>
<path d="M158.735 382.019C159.483 403.737 159.698 424.895 160.446 446.613" stroke="#010101" stroke-width="1.5" stroke-linecap="round" stroke-linejoin="round"></path>
<path d="M166.134 495.628C168.649 498.863 171.165 502.098 173.68 505.333C174.313 506.147 175.179 507.052 176.187 506.835C176.869 500.44 176.926 493.979 176.356 487.573C171.775 489.009 167.482 491.357 166.134 495.628Z" fill="white" stroke="#010101" stroke-width="1.5" stroke-linecap="round" stroke-linejoin="round"></path>
<path d="M112.086 450.261C92.246 451.633 82.424 450.681 69.466 457.185C66.903 458.472 64.468 460.097 62.587 462.262C55.916 469.938 58.33 482.693 65.678 489.724C73.026 496.755 83.777 499.026 93.947 499.045C104.117 499.064 110.92 498.596 124.386 497.168C131.053 496.461 135.352 501.17 135.352 501.17C135.352 501.17 173.698 498.451 194.437 496.003C215.524 493.514 275.343 479.883 238.288 451.564C230.31 445.467 209.77 444.169 199.753 444.861C182.213 446.074 146.415 447.886 112.086 450.261Z" fill="#010101" stroke="#010101" stroke-width="1.5" stroke-linecap="round" stroke-linejoin="round"></path>
<path d="M140.17 468.772C133.856 468.347 131.312 468.196 124.985 468.278C124.985 480.803 123.514 500.53 122.719 510.271C122.592 511.828 124.614 512.534 125.485 511.237C129.951 504.584 137.495 493.434 138.165 493.041C138.792 492.673 140.295 493.063 140.222 492.339C139.53 485.474 140.171 478.187 140.171 468.771L140.17 468.772Z" fill="white" stroke="#010101" stroke-width="1.5" stroke-linecap="round" stroke-linejoin="round"></path>
<path d="M85.105 464.418C103.968 465.113 121.806 464.391 140.679 464.066" stroke="white" stroke-width="1.5" stroke-linecap="round" stroke-linejoin="round"></path>
<path d="M206.219 454.711C184.377 455.935 162.596 458.242 140.983 461.62C139.286 474.525 138.808 487.591 139.559 500.586" stroke="white" stroke-width="1.5" stroke-linecap="round" stroke-linejoin="round"></path>
<path d="M267.943 262.427C268.566 258.152 267.492 250.829 266.733 245.009C266.614 244.094 266.81 242.815 267.732 242.776C268.198 242.756 268.588 243.107 268.908 243.445C270.667 245.304 272.05 247.518 272.949 249.915C272.8 243.519 274.452 235.156 275.424 228.833C275.984 226.157 278.235 226.882 278.753 227.625C279.271 228.368 279.077 229.514 279.127 230.419C279.38 235.043 277.854 239.957 278.405 244.336C283.111 244.44 291.434 245.496 292.166 248.559C292.897 251.618 288.346 262.275 287.853 265.381C285.067 265.381 272.03 263.23 267.943 262.427Z" fill="white" stroke="#010101" stroke-width="1.5" stroke-linecap="round" stroke-linejoin="round"></path>
<path d="M278.813 242.101C278.311 244.546 277.959 247.451 277.457 249.896C277.345 250.444 277.232 251.005 277.315 251.558C277.398 252.111 277.721 252.662 278.243 252.861C279.002 253.149 279.827 252.607 280.348 251.984C282.072 249.919 282.463 245.201 283.688 242.806C282.774 245.235 282.158 247.777 281.86 250.356C281.742 251.377 281.729 252.556 282.48 253.257C282.654 253.419 282.88 253.55 283.117 253.527C283.28 253.511 283.427 253.426 283.564 253.335C284.983 252.393 285.809 250.786 286.393 249.186C286.977 247.586 287.388 245.904 288.255 244.439C287.644 246.58 287.033 248.721 286.421 250.863C285.809 253.005 286.575 254.215 288.412 253.891C289.834 253.64 291.605 250.526 292.167 248.561C292.38 247.815 292.791 246.781 291.024 245.358C288.75 243.527 280.472 240.649 278.814 242.102L278.813 242.101Z" fill="white" stroke="#010101" stroke-width="1.5" stroke-linecap="round" stroke-linejoin="round"></path>
<path d="M348.519 204.832C350.142 201.391 353.694 198.942 357.487 198.647C363.81 198.155 369.837 203.173 376.039 201.845C378.173 201.388 380.077 200.21 382.142 199.505C383.89 198.908 385.756 198.656 387.6 198.766C388.789 198.837 390.32 198.868 390.775 197.767" stroke="#010101" stroke-width="1.5" stroke-linecap="round" stroke-linejoin="round"></path>
<path d="M346.879 233.172C349.559 229.422 354.299 227.25 358.89 227.669C362.686 228.016 366.239 229.982 370.051 230.008C374.414 230.038 378.377 227.541 382.661 226.716C387.774 225.731 393.002 227.17 398.195 227.543C410.53 228.43 423.042 223.299 435.098 226.051C438.905 226.92 442.628 228.57 446.528 228.373C451.677 228.113 456.754 224.652 461.649 226.272" stroke="#010101" stroke-width="1.5" stroke-linecap="round" stroke-linejoin="round"></path>
<path d="M348.414 266.32C351.649 263.772 355.244 261.096 359.362 261.167C363.197 261.234 366.563 263.687 370.3 264.549C374.311 265.474 378.489 264.521 382.494 263.571" stroke="#010101" stroke-width="1.5" stroke-linecap="round" stroke-linejoin="round"></path>
<path d="M397.178 340.373C378.043 340.48 358.909 340.587 339.774 340.694C336.34 340.713 332.862 340.727 329.536 339.875C326.21 339.023 322.997 337.192 321.201 334.265C319.712 331.838 319.319 328.871 319.517 326.031C320.098 317.724 326.575 309.624 334.883 309.066C356.751 308.468 378.493 308.454 400.248 307.908C405.649 307.407 411.33 309.331 414.966 313.355C418.602 317.38 419.915 323.506 417.811 328.506C416.161 332.428 412.721 335.315 409.107 337.562C406.035 339.472 402.293 341.073 397.176 340.372L397.178 340.373Z" stroke="#010101" stroke-width="1.5" stroke-linecap="round" stroke-linejoin="round"></path>
<path d="M335.87 329.464C338.669 327.449 340.518 324.37 343.143 322.133C345.767 319.896 349.933 318.676 352.558 320.912C354.036 322.171 354.612 324.18 355.778 325.732C357.824 328.457 361.845 329.481 364.945 328.065C367.616 326.845 369.681 324.052 372.617 323.982C374.166 323.946 375.604 324.705 377.074 325.196C383.421 327.314 390.593 324.436 396.986 326.413" stroke="#010101" stroke-width="1.5" stroke-linecap="round" stroke-linejoin="round"></path>
<path d="M93.26 93.153C102.025 87.519 108.527 78.466 111.065 68.36C111.841 72.745 112.636 77.189 114.536 81.216C116.437 85.243 119.61 88.871 123.819 90.324C117.539 94.967 113.313 102.291 112.435 110.052C110.559 100.708 102.32 92.999 93.26 93.153Z" stroke="#010101" stroke-width="1.5" stroke-linecap="round" stroke-linejoin="round"></path>
<path d="M615.125 205.645C618.781 202.923 621.738 199.269 623.636 195.125C623.727 197.438 623.83 199.804 624.693 201.952C625.557 204.1 627.345 206.023 629.63 206.393C626.57 208.089 624.287 211.128 623.511 214.539C623.474 210.593 619.896 207.022 615.125 205.645Z" stroke="#010101" stroke-width="1.5" stroke-linecap="round" stroke-linejoin="round"></path>
<path d="M356.385 434.525C361.859 431.988 366.537 427.765 369.618 422.578C369.431 427.79 373.184 432.885 378.217 434.251C373.265 437.009 369.908 442.435 369.652 448.098C369.809 441.635 364.401 435.523 356.385 434.525Z" stroke="#010101" stroke-width="1.5" stroke-linecap="round" stroke-linejoin="round"></path>
<path d="M38.124 246.131C40.305 246.494 42.485 246.858 44.666 247.221" stroke="#010101" stroke-width="1.5" stroke-linecap="round" stroke-linejoin="round"></path>
<path d="M416.458 79.316C417.064 81.618 417.669 83.919 418.275 86.221" stroke="#010101" stroke-width="1.5" stroke-linecap="round" stroke-linejoin="round"></path>
<path d="M408.411 459.523C407.684 462.552 406.957 465.58 406.23 468.609" stroke="#010101" stroke-width="1.5" stroke-linecap="round" stroke-linejoin="round"></path>
<path d="M291.433 68.353C290.296 68.71 289.73 70.215 290.281 71.272C290.832 72.329 292.3 72.748 293.366 72.217C294.424 71.69 294.975 70.28 294.47 69.211C293.965 68.142 292.573 67.995 291.432 68.353H291.433Z" fill="#010101" stroke="#010101" stroke-width="1.5" stroke-linecap="round" stroke-linejoin="round"></path>
<path d="M665.886 256.392C664.749 256.749 664.183 258.254 664.734 259.311C665.285 260.368 666.753 260.787 667.819 260.256C668.877 259.729 669.428 258.319 668.923 257.25C668.418 256.181 667.027 256.034 665.886 256.392Z" fill="#010101" stroke="#010101" stroke-width="1.5" stroke-linecap="round" stroke-linejoin="round"></path>
<path d="M464.155 408.966C463.018 409.323 462.452 410.828 463.003 411.885C463.554 412.942 465.022 413.361 466.088 412.83C467.146 412.303 467.697 410.893 467.192 409.824C466.687 408.755 465.295 408.608 464.154 408.966H464.155Z" fill="#010101" stroke="#010101" stroke-width="1.5" stroke-linecap="round" stroke-linejoin="round"></path>
<path d="M48.737 281.626C45.328 281.653 42.042 284.261 41.476 287.623C40.911 290.985 43.357 294.64 46.724 295.176C50.282 295.742 53.861 292.702 54.264 289.122C54.667 285.541 52.19 281.966 48.737 281.627V281.626Z" fill="#010101" stroke="#010101" stroke-width="1.5" stroke-linecap="round" stroke-linejoin="round"></path>
<path d="M19.047 475.804C15.638 475.831 12.352 478.439 11.786 481.801C11.221 485.163 13.667 488.818 17.034 489.354C20.592 489.92 24.171 486.88 24.574 483.3C24.977 479.719 22.5 476.144 19.047 475.805V475.804Z" fill="#010101" stroke="#010101" stroke-width="1.5" stroke-linecap="round" stroke-linejoin="round"></path>
<path d="M240.979 261.166C237.57 261.193 234.284 263.801 233.718 267.163C233.153 270.525 235.599 274.18 238.966 274.716C242.524 275.282 246.103 272.242 246.506 268.662C246.909 265.081 244.432 261.506 240.979 261.167V261.166Z" fill="#010101" stroke="#010101" stroke-width="1.5" stroke-linecap="round" stroke-linejoin="round"></path>
<path d="M652.434 361.343C652.154 373.998 650.4 386.901 646.451 398.749C643.621 407.272 639.65 415.246 634.291 422.208C634.151 422.391 634 422.585 633.839 422.768C624.746 434.326 612.639 441.891 599.285 446.357C584.607 451.275 568.422 452.437 553.098 451.049C542.401 450.081 531.845 447.681 521.751 443.602C515.703 441.159 510.355 438.308 505.609 435.176C473.39 413.901 469.441 379.293 470.495 365.325C470.57 364.314 470.678 363.409 470.796 362.624C472.518 351.389 475.477 340.295 479.674 329.856C485.141 316.275 492.717 303.792 502.455 293.483C519.684 275.254 543.993 264.46 567.829 267.194C593.096 270.078 622.969 279.29 639.1 304.105C649.711 320.441 652.885 341.317 652.433 361.344L652.434 361.343Z" fill="#E3E3FF" stroke="#010101" stroke-width="1.5" stroke-linecap="round" stroke-linejoin="round"></path>
<path d="M646.451 398.749C643.621 407.272 639.65 415.246 634.291 422.208C634.151 422.391 634 422.585 633.839 422.768C633.075 423.123 632.311 423.468 631.547 423.812C624.445 411.501 616.438 399.707 607.614 388.558C605.01 405.012 602.405 421.466 599.801 437.909C599.758 440.696 599.726 443.591 599.284 446.357C584.606 451.275 568.421 452.437 553.097 451.049C542.4 450.081 531.844 447.681 521.75 443.602C515.702 441.159 510.354 438.308 505.608 435.176C507.276 413.374 511.398 395.855 512.56 373.741C503.887 372.31 480.632 368.081 470.495 365.326C468.257 364.723 466.664 364.185 465.997 363.766C448.284 352.639 439.148 315.276 430.593 296.638C439.46 292 448.327 287.373 457.195 282.735C463.221 298.662 470.453 315.244 479.675 329.858C481.418 332.645 483.248 335.368 485.152 337.993C504.016 339.521 524.581 340.382 549.396 342.384C549.923 348.992 555.196 359.484 564.096 360.592C578.806 362.421 583.24 354.006 585.252 345.053C593.969 345.623 599.112 345.935 607.894 347.55C610.079 347.948 612.22 348.734 614.028 350.014C616.137 351.51 617.568 353.759 618.946 355.933C625.08 365.65 631.224 375.368 637.358 385.085C640.285 389.701 643.212 394.35 646.451 398.752V398.749Z" fill="#010101" stroke="#010101" stroke-width="1.5" stroke-linecap="round" stroke-linejoin="round"></path>
<path d="M596.442 385.759C589.65 385.409 582.883 384.571 575.932 382.953C574.865 389.048 574.077 395.191 573.761 401.46C574.168 402.614 575.317 403.309 576.39 403.897C578.784 405.211 581.295 406.498 584.019 406.694C587.994 406.98 591.752 404.904 594.59 402.405C595.844 396.535 596.419 390.52 596.442 385.758V385.759Z" stroke="white" stroke-width="1.5" stroke-linecap="round" stroke-linejoin="round"></path>
<path d="M388.072 241.4C388.262 253.23 388.452 265.06 388.642 276.891C406.575 275.192 424.572 277.192 442.582 276.838C443.792 262.801 442.747 255.024 443.985 240.671C432.588 241.387 398.755 240.729 388.072 241.4Z" fill="#0066f9" stroke="#010101" stroke-width="1.5" stroke-linecap="round" stroke-linejoin="round"></path>
<path d="M453.601 284.314C452.494 280.417 451.334 276.415 448.854 273.212C447.781 271.826 446.488 270.629 445.202 269.439C443.001 267.403 440.642 265.283 437.702 264.694C437.262 264.606 436.788 264.558 436.381 264.745C435.571 265.119 435.42 266.273 435.804 267.078C436.188 267.883 436.934 268.442 437.593 269.044C439.627 270.898 441.361 273.944 443.418 276.587C438.874 277.071 434.331 276.718 429.787 277.202C430.448 280.436 433.55 290.538 435.592 293.636C443.344 290.233 445.58 288.336 453.602 284.313L453.601 284.314Z" fill="white" stroke="#010101" stroke-width="1.5" stroke-linecap="round" stroke-linejoin="round"></path>
<path d="M552.308 302.961C552.851 296.945 553.425 290.807 555.851 285.276C556.442 283.928 557.156 282.605 558.205 281.574C559.727 280.078 561.856 279.313 563.981 279.114C566.106 278.915 568.245 279.24 570.334 279.675C576.458 280.949 582.341 283.163 588.166 285.441C590.019 286.166 591.896 286.913 593.476 288.123C596.925 290.763 598.763 295.065 598.63 299.407C598.497 303.748 596.875 307.908 594.938 311.795C590.769 320.161 584.206 325.288 577.274 331.558C573.971 327.094 572.994 319.655 568.871 312.9C565.722 307.742 561.24 303.202 552.308 302.962V302.961Z" fill="#010101" stroke="#010101" stroke-width="1.5" stroke-linecap="round" stroke-linejoin="round"></path>
<path d="M443.656 276.89C442.693 277.563 441.931 278.521 441.492 279.611C441.244 280.227 441.098 280.878 440.969 281.53C440.758 282.594 440.592 283.713 440.91 284.75" stroke="#010101" stroke-width="1.5" stroke-linecap="round" stroke-linejoin="round"></path>
<path d="M558.131 329.007C557.272 333.427 557.313 336.388 556.072 342.777C553.257 342.625 551.76 342.37 548.956 342.662C546.575 348.656 548.909 359.362 554.083 362.602C555.826 363.694 557.803 364.363 559.805 364.836C562.759 365.533 565.809 365.82 568.841 365.685C572.562 365.519 576.319 364.691 579.505 362.762C582.691 360.833 585.258 354.132 586.016 350.485C586.301 349.112 587.329 345.452 585.972 345.1C583.732 344.518 580.009 344.053 577.258 343.701C578.512 335.335 579.512 327.278 580.511 319.222C583.605 319.403 586.837 317.269 587.517 314.3C588.004 312.171 586.896 309.525 584.745 309.143C583.385 308.902 581.998 309.624 581.079 310.655C580.16 311.686 579.62 312.991 579.097 314.27C578.312 314.142 577.527 314.014 576.743 313.886C576.392 312.489 577.724 310.979 577.13 309.667C576.596 308.487 574.924 308.38 574.017 307.456C572.96 306.379 573.264 304.588 573.844 303.195C574.424 301.802 575.227 300.359 574.936 298.878C574.507 296.695 571.977 295.661 569.767 295.407C567.557 295.153 565.132 295.239 563.367 293.884C562.731 293.396 562.216 292.739 561.498 292.383C560.369 291.822 558.955 292.149 557.938 292.895C556.921 293.641 556.228 294.74 555.611 295.84C554.016 298.685 552.767 301.724 551.761 305.007C549.792 310.141 547.792 315.673 549.093 321.016C549.416 322.341 549.949 323.635 550.808 324.695C551.861 325.993 553.335 326.868 554.789 327.692C555.902 328.322 558.161 328.861 558.132 329.008L558.131 329.007Z" fill="white" stroke="#010101" stroke-width="1.5" stroke-linecap="round" stroke-linejoin="round"></path>
<path d="M557.447 328.838C560.029 329.584 562.7 330.018 565.384 330.13" stroke="#010101" stroke-width="1.5" stroke-linecap="round" stroke-linejoin="round"></path>
<path d="M557.724 306.797C556.611 308.42 555.499 310.044 554.386 311.667C554.329 311.75 554.269 311.844 554.285 311.944C554.3 312.039 554.378 312.109 554.454 312.167C555.397 312.884 556.116 312.966 557.861 313.63" stroke="#010101" stroke-width="1.5" stroke-linecap="round" stroke-linejoin="round"></path>
<path d="M404.158 251.621C401.185 253.78 398.211 255.938 395.238 258.097C397.864 260.903 400.73 263.484 403.795 265.802" stroke="#010101" stroke-width="1.5" stroke-linecap="round" stroke-linejoin="round"></path>
<path d="M417.886 247.612C415.507 254.365 413.434 261.227 411.675 268.167" stroke="#010101" stroke-width="1.5" stroke-linecap="round" stroke-linejoin="round"></path>
<path d="M424.301 250.458C426.909 253.176 430.857 255.924 433.919 258.116C431.115 260.547 426.133 264.34 423.329 266.771" stroke="#010101" stroke-width="1.5" stroke-linecap="round" stroke-linejoin="round"></path>
<path d="M193.826 208.365C196.22 193.364 196.813 175.621 199.447 159.115C158.085 160.053 116.75 158.93 75.512 162.258C75.439 177.915 74.012 193.18 73.129 208.944C114.323 209.858 157.526 209.188 193.826 208.365Z" fill="#E3E3FF" stroke="#010101" stroke-width="1.5" stroke-linecap="round" stroke-linejoin="round"></path>
<path d="M104.766 174.055C99.646 173.567 94.409 176.932 92.723 181.79C91.037 186.649 93.066 192.534 97.388 195.321C99.454 196.654 101.906 197.299 104.357 197.503C107.208 197.741 110.266 197.338 112.504 195.556C114.635 193.859 115.727 191.134 116.087 188.434C116.725 183.64 115.089 178.398 111.253 175.451C109.524 174.123 107.209 173.293 104.766 174.053V174.055Z" fill="white" stroke="#010101" stroke-width="1.5" stroke-linecap="round" stroke-linejoin="round"></path>
<path d="M134.856 175.69C150.95 175.306 167.035 174.502 183.087 173.278Z" fill="#E3E3FF"></path>
<path d="M134.856 175.69C150.95 175.306 167.035 174.502 183.087 173.278" stroke="#010101" stroke-width="1.5" stroke-linecap="round" stroke-linejoin="round"></path>
<path d="M135.058 186.812C143.682 186.742 152.303 186.326 160.894 185.566Z" fill="#E3E3FF"></path>
<path d="M135.058 186.812C143.682 186.742 152.303 186.326 160.894 185.566" stroke="#010101" stroke-width="1.5" stroke-linecap="round" stroke-linejoin="round"></path>
<path d="M292.679 475.961C301.948 475.856 311.217 475.751 320.486 475.646" stroke="#010101" stroke-width="1.5" stroke-linecap="round" stroke-linejoin="round"></path>
</g>
<defs>
<clipPath id="clip0_35_2483">
<rect width="669.863" height="512.663" fill="white"></rect>
</clipPath>
</defs>
</svg>