<svg id="Layer_2" data-name="Layer 2" xmlns="http://www.w3.org/2000/svg" viewBox="0 0 918.777 518.786" style="width: 100%; height: 100%;">
  <g id="Layer_2-2" data-name="Layer 2">
    <g>
      <path d="m856.044,90.157h-13.96c-2.269,0-4.311-1.431-5.055-3.577-1.073-3.088-2.344-6.081-3.784-8.971-1.035-2.061-.612-4.547,1.017-6.175l9.921-9.921c2.099-2.099,2.099-5.507,0-7.606l-21.434-21.424c-2.099-2.099-5.497-2.099-7.606,0l-10.1,10.1c-1.61,1.61-4.076,2.043-6.128,1.035-2.833-1.384-5.77-2.598-8.792-3.624-2.174-.734-3.624-2.786-3.624-5.074v-14.308c0-2.965-2.4-5.375-5.375-5.375h-30.301c-2.975,0-5.375,2.41-5.375,5.375v14.308c0,2.287-1.45,4.339-3.624,5.074-3.022,1.026-5.958,2.24-8.792,3.624-2.052,1.007-4.518.574-6.128-1.035l-10.1-10.1c-2.099-2.099-5.507-2.099-7.606,0l-21.433,21.424c-2.099,2.099-2.099,5.507,0,7.606l9.921,9.921c1.628,1.628,2.052,4.114,1.017,6.175-1.44,2.89-2.711,5.883-3.775,8.971-.753,2.146-2.796,3.577-5.064,3.577h-13.96c-2.975,0-5.375,2.41-5.375,5.375v30.31c0,2.965,2.4,5.375,5.375,5.375h13.592c2.325,0,4.377,1.487,5.102,3.69,1.054,3.172,2.316,6.25,3.756,9.215,1.007,2.071.602,4.547-1.017,6.166l-9.573,9.573c-2.099,2.099-2.099,5.497,0,7.596l21.433,21.433c2.099,2.099,5.507,2.099,7.606,0l9.385-9.385c1.638-1.638,4.142-2.033,6.213-.998,3.022,1.506,6.156,2.824,9.385,3.916,2.184.744,3.662,2.786,3.662,5.092v13.235c0,2.975,2.4,5.384,5.375,5.384h30.301c2.975,0,5.375-2.41,5.375-5.384v-13.235c0-2.306,1.478-4.349,3.662-5.092,3.229-1.092,6.363-2.41,9.385-3.916,2.071-1.035,4.575-.64,6.213.998l9.385,9.385c2.109,2.099,5.507,2.099,7.606,0l21.434-21.433c2.099-2.099,2.099-5.497,0-7.596l-9.573-9.573c-1.619-1.619-2.024-4.095-1.017-6.166,1.44-2.965,2.702-6.043,3.756-9.215.725-2.203,2.777-3.69,5.102-3.69h13.592c2.975,0,5.375-2.41,5.375-5.375v-30.31c0-2.965-2.4-5.375-5.375-5.375Zm-90.064,65.317c-24.737,0-44.797-20.05-44.797-44.787s20.059-44.797,44.797-44.797,44.787,20.059,44.787,44.797-20.05,44.787-44.787,44.787Z" fill="#f4f4f4"></path>
      <path d="m262.408,417.142h-10.254c-1.666,0-3.167-1.051-3.713-2.627-.788-2.268-1.722-4.467-2.779-6.589-.761-1.514-.449-3.34.747-4.536l7.288-7.287c1.542-1.542,1.542-4.045,0-5.587l-15.743-15.737c-1.542-1.542-4.038-1.542-5.587,0l-7.419,7.419c-1.182,1.182-2.994,1.5-4.501.761-2.081-1.016-4.238-1.908-6.458-2.662-1.597-.539-2.662-2.047-2.662-3.727v-10.509c0-2.178-1.763-3.948-3.948-3.948h-22.257c-2.185,0-3.948,1.77-3.948,3.948v10.509c0,1.68-1.065,3.187-2.662,3.727-2.219.754-4.377,1.646-6.458,2.662-1.507.74-3.319.422-4.501-.761l-7.419-7.419c-1.542-1.542-4.045-1.542-5.587,0l-15.743,15.737c-1.542,1.542-1.542,4.045,0,5.587l7.287,7.287c1.196,1.196,1.507,3.021.747,4.536-1.058,2.123-1.991,4.321-2.773,6.589-.553,1.576-2.054,2.627-3.72,2.627h-10.254c-2.185,0-3.948,1.77-3.948,3.948v22.263c0,2.178,1.763,3.948,3.948,3.948h9.984c1.708,0,3.215,1.092,3.747,2.71.774,2.33,1.701,4.591,2.759,6.769.74,1.521.442,3.34-.747,4.529l-7.032,7.032c-1.542,1.542-1.542,4.038,0,5.58l15.743,15.743c1.542,1.542,4.045,1.542,5.587,0l6.893-6.893c1.203-1.203,3.042-1.493,4.563-.733,2.219,1.106,4.522,2.074,6.893,2.876,1.604.546,2.69,2.047,2.69,3.741v9.721c0,2.185,1.763,3.955,3.948,3.955h22.257c2.185,0,3.948-1.77,3.948-3.955v-9.721c0-1.694,1.086-3.194,2.69-3.741,2.372-.802,4.674-1.77,6.893-2.876,1.521-.761,3.36-.47,4.563.733l6.893,6.893c1.549,1.542,4.045,1.542,5.587,0l15.743-15.743c1.542-1.542,1.542-4.038,0-5.58l-7.032-7.032c-1.189-1.189-1.487-3.008-.747-4.529,1.058-2.178,1.984-4.439,2.759-6.769.532-1.618,2.04-2.71,3.747-2.71h9.984c2.185,0,3.948-1.77,3.948-3.948v-22.263c0-2.178-1.763-3.948-3.948-3.948Zm-66.154,47.977c-18.17,0-32.904-14.727-32.904-32.897s14.734-32.904,32.904-32.904,32.897,14.734,32.897,32.904-14.727,32.897-32.897,32.897Z" fill="#f4f4f4"></path>
      <path d="m185.513,235.216h-13.96c-2.269,0-4.311-1.431-5.055-3.577-1.073-3.088-2.344-6.081-3.784-8.971-1.035-2.061-.612-4.547,1.017-6.175l9.921-9.921c2.099-2.099,2.099-5.507,0-7.606l-21.434-21.424c-2.099-2.099-5.497-2.099-7.606,0l-10.1,10.1c-1.61,1.61-4.076,2.043-6.128,1.035-2.833-1.384-5.77-2.598-8.792-3.624-2.174-.734-3.624-2.786-3.624-5.074v-14.308c0-2.965-2.4-5.375-5.375-5.375h-30.301c-2.975,0-5.375,2.41-5.375,5.375v14.308c0,2.287-1.45,4.339-3.624,5.074-3.022,1.026-5.958,2.24-8.792,3.624-2.052,1.007-4.518.574-6.128-1.035l-10.1-10.1c-2.099-2.099-5.507-2.099-7.606,0l-21.433,21.424c-2.099,2.099-2.099,5.507,0,7.606l9.921,9.921c1.628,1.628,2.052,4.114,1.017,6.175-1.44,2.89-2.711,5.883-3.775,8.971-.753,2.146-2.796,3.577-5.064,3.577H5.375c-2.975,0-5.375,2.41-5.375,5.375v30.31c0,2.965,2.4,5.375,5.375,5.375h13.592c2.325,0,4.377,1.487,5.102,3.69,1.054,3.172,2.316,6.25,3.756,9.215,1.007,2.071.602,4.547-1.017,6.166l-9.573,9.573c-2.099,2.099-2.099,5.497,0,7.596l21.433,21.433c2.099,2.099,5.507,2.099,7.606,0l9.385-9.385c1.638-1.638,4.142-2.033,6.213-.998,3.022,1.506,6.156,2.824,9.385,3.916,2.184.744,3.662,2.786,3.662,5.092v13.235c0,2.975,2.4,5.384,5.375,5.384h30.301c2.975,0,5.375-2.41,5.375-5.384v-13.235c0-2.306,1.478-4.349,3.662-5.092,3.229-1.092,6.363-2.41,9.385-3.916,2.071-1.035,4.575-.64,6.213.998l9.385,9.385c2.109,2.099,5.507,2.099,7.606,0l21.434-21.433c2.099-2.099,2.099-5.497,0-7.596l-9.573-9.573c-1.619-1.619-2.024-4.095-1.017-6.166,1.44-2.965,2.702-6.043,3.756-9.215.725-2.203,2.777-3.69,5.102-3.69h13.592c2.975,0,5.375-2.41,5.375-5.375v-30.31c0-2.965-2.4-5.375-5.375-5.375Zm-90.064,65.317c-24.737,0-44.797-20.05-44.797-44.787s20.059-44.797,44.797-44.797,44.787,20.059,44.787,44.797-20.05,44.787-44.787,44.787Z" fill="#f4f4f4"></path>
      <g>
        <g>
          <g>
            <rect x="117.936" y=".779" width="572.541" height="431.712" rx="23.379" ry="23.379" transform="translate(808.413 433.27) rotate(-180)" fill="#fff"></rect>
            <path d="m117.156,409.112V24.158C117.156,10.838,127.994,0,141.315,0h525.784c13.321,0,24.158,10.838,24.158,24.158v384.954c0,13.321-10.838,24.158-24.158,24.158H141.315c-13.321,0-24.158-10.838-24.158-24.158ZM141.315,1.559c-12.461,0-22.6,10.138-22.6,22.6v384.954c0,12.462,10.138,22.6,22.6,22.6h525.784c12.462,0,22.6-10.138,22.6-22.6V24.158c0-12.462-10.138-22.6-22.6-22.6H141.315Z" fill="#292a2e"></path>
          </g>
          <path d="m117.936,24.155v23.525s572.538,0,572.538,0v-23.525c0-12.912-10.467-23.379-23.379-23.379H141.315c-12.912,0-23.379,10.467-23.379,23.379Z" fill="#292a2e"></path>
        </g>
        <g>
          <path d="m218.714,261.937c-34.905,0-63.302-28.397-63.302-63.302s28.397-63.302,63.302-63.302,63.302,28.397,63.302,63.302-28.397,63.302-63.302,63.302Zm0-124.604c-33.802,0-61.302,27.5-61.302,61.302s27.5,61.302,61.302,61.302,61.302-27.5,61.302-61.302-27.5-61.302-61.302-61.302Z" fill="#292a2e"></path>
          <path d="m404.206,261.937c-34.904,0-63.301-28.397-63.301-63.302s28.397-63.302,63.301-63.302,63.302,28.397,63.302,63.302-28.397,63.302-63.302,63.302Zm0-124.604c-33.802,0-61.301,27.5-61.301,61.302s27.5,61.302,61.301,61.302,61.302-27.5,61.302-61.302-27.5-61.302-61.302-61.302Z" fill="#292a2e"></path>
          <path d="m589.699,261.937c-34.905,0-63.302-28.397-63.302-63.302s28.397-63.302,63.302-63.302,63.302,28.397,63.302,63.302-28.397,63.302-63.302,63.302Zm0-124.604c-33.802,0-61.302,27.5-61.302,61.302s27.5,61.302,61.302,61.302,61.302-27.5,61.302-61.302-27.5-61.302-61.302-61.302Z" fill="#292a2e"></path>
          <g>
            <polygon points="629.104 207.756 629.104 168.343 583.629 168.343 583.629 199.267 617.253 199.267 629.104 207.756" fill="#48cf48" opacity=".6"></polygon>
            <polygon points="550.294 236.398 550.294 183.094 611.798 183.094 611.798 224.917 566.323 224.917 550.294 236.398" fill="#48cf48"></polygon>
            <circle cx="564.235" cy="204.415" r="5.33" fill="#fff"></circle>
            <circle cx="581.046" cy="204.415" r="5.33" fill="#fff"></circle>
            <circle cx="597.857" cy="204.415" r="5.33" fill="#fff"></circle>
          </g>
          <path d="m250.252,218.005c1.271.848,1.654,2.546.867,3.859l-3.448,5.745c-.915,1.554-2.393,2.697-4.126,3.19-5.731,1.573-18.369,1.889-38.627-18.367-20.256-20.258-19.94-32.898-18.367-38.627.493-1.735,1.635-3.213,3.187-4.128l5.747-3.448c1.31-.785,3.008-.404,3.856.869l9.163,13.744c.829,1.248.558,2.925-.625,3.847l-5.146,4c-1.115.86-1.436,2.407-.753,3.64,1.51,2.716,2.941,5.917,10.027,13.012s10.296,8.517,13.012,10.027c1.234.683,2.778.362,3.638-.755l4.003-5.143c.922-1.185,2.6-1.457,3.847-.625l13.744,9.16Z" fill="#48cf48"></path>
          <g>
            <path d="m436.827,220.885h-64.985c-1.522.008-2.762-1.22-2.77-2.741l-.227-38.948c-.008-1.357,1.086-2.463,2.443-2.47l65.585-.337c1.356-.007,2.46,1.086,2.468,2.441l.227,39.285c.008,1.522-1.22,2.762-2.741,2.77Z" fill="#48cf48" opacity=".6"></path>
            <path d="m438.642,177.125c-3.88,2.85-32.06,23.59-32.09,23.61-1.89.87-3.12.84-4.99-.1l-32.05-23.13c.44-.48,1.08-.77,1.78-.78l65.58-.34c.69,0,1.32.28,1.77.74Z" fill="#48cf48"></path>
          </g>
        </g>
      </g>
      <g>
        <circle cx="707.619" cy="202.377" r="22.79" fill="#0066f9"></circle>
        <path d="m696.939,200.218c-1.161,0-2.267-.678-2.756-1.812-.411-.953-9.951-23.721.411-57.121,11.225-36.179,50.319-36.598,50.713-36.598,1.657,0,3,1.343,3,3s-1.341,2.998-2.996,3h0c-1.428.004-35.088.471-44.987,32.376-9.711,31.303-.724,52.753-.632,52.966.657,1.521-.044,3.287-1.566,3.943-.387.167-.791.247-1.187.247Z" fill="#0066f9"></path>
        <g>
          <g>
            <circle cx="699.368" cy="202.377" r="22.79" fill="#0066f9"></circle>
            <circle cx="699.368" cy="202.377" r="22.79" fill="#fff" opacity=".3"></circle>
            <circle cx="704.836" cy="202.377" r="22.79" fill="#0066f9"></circle>
          </g>
          <path d="m812.337,161.371s7.321,35.085,16.066,45.7c25.175,30.558,36.225,67.264,18.16,89.655-18.065,22.391-143.912,40.474-159.996-3.255-13.541-36.815.986-43.334,1.163-75.234.08-14.434,2.078-44.876,2.078-44.876" fill="#0a0a0a"></path>
          <path id="sk" d="m707.158,274.908c.23-.03,2.783,42.33,51.993,38.637,34.068-2.552,46.215-38.697,46.996-38.697-3.673-.781-9.858-1.916-11.49-2.787-5.364-2.882-12.002-5.882-13.731-16.299-.997-6.004.694-36.722.174-42.797l-52.294,11.672c.731,12.83,5.845,42.575-12.08,47.839-2.982.871-6.195,1.671-9.568,2.432Z" fill="#ff9e85"></path>
          <path id="sh" d="m728.073,260.32c.741-2.364,1.181-4.42,1.573-8.116.7-6.61.328-12.686-.342-18.877,10.564-1.406,20.707-5.85,28.902-12.662.971,3.586,6.311,19.256,4.833,22.664-2.795,6.442-15.929,16.992-34.966,16.992Z" fill="#0c0c0c" opacity=".5"></path>
          <path d="m737.383,251.015c20.699-.778,46.034-12.516,47.841-40.465l1.631-25.218c1.807-27.949-11.407-51.555-37.722-53.256h0c-26.315-1.702-47.449,19.683-49.257,47.632l-.722,11.165c-.693,10.724,1.297,61.531,38.228,60.143Z" fill="#ff9e85"></path>
          <g>
            <path id="e1_eb" d="m702.228,179.913c.095.896,3.468.803,7.956.097,4.488-.706,8.462-1.542,8.296-2.652-.21-1.402-4.037-1.963-8.525-1.257-4.488.706-7.878,2.404-7.728,3.813Z" fill="#0a0a0a"></path>
            <g>
              <circle id="e1_eye" cx="708.469" cy="188.501" r="2.879" fill="#0a0a0a"></circle>
              <g id="e1_n">
                <path d="m724.066,212.138c.583,0,1.082-.44,1.144-1.032.066-.633-.393-1.199-1.026-1.265l-6.099-.638,3.754-12.183c.187-.608-.154-1.252-.763-1.44-.607-.187-1.252.154-1.44.761l-4.166,13.522c-.101.329-.049.687.141.974s.498.475.841.511l7.493.783c.04.004.081.006.12.006Z" fill="#0a0a0a"></path>
              </g>
              <g id="e1_m">
                <path d="m728.486,225.181c10.44,0,13.546-6.308,13.685-6.604.271-.575.025-1.261-.55-1.533-.571-.271-1.255-.027-1.53.544-.13.268-3.318,6.464-14.806,5.091-.644-.08-1.206.376-1.281,1.007-.075.632.376,1.205,1.007,1.28,1.239.148,2.397.216,3.474.216Z" fill="#0a0a0a"></path>
              </g>
              <path id="e1_eb-2" data-name="e1_eb" d="m737.199,179.311c-.276.858,2.844,2.141,7.233,3.317s8.36,2.024,8.659.942c.377-1.366-2.893-3.432-7.282-4.608-4.388-1.176-8.175-.999-8.61.35Z" fill="#0a0a0a"></path>
              <circle id="e1_eye-2" data-name="e1_eye" cx="737.342" cy="190.337" r="2.879" fill="#0a0a0a"></circle>
            </g>
          </g>
          <path d="m808.161,191.364l-28.963,9.671c-18.328-4.916-21.938-45.55-21.938-45.55,0,0-14.663,23.279-67.501,17.849,0,0-2.574-73.968,75.971-61.443,25.259,4.028,45.915,26.214,47.784,59.455,1.31,23.295-5.354,20.018-5.354,20.018Z" fill="#0a0a0a"></path>
          <path d="m783.039,218.959c7.997.517,15.033-7.619,15.55-15.616.517-7.997-5.681-12.826-13.678-13.344l-4.467,5.092-4.281,23.423,6.876.445Z" fill="#ff9e85"></path>
        </g>
        <g>
          <path d="m535.513,291.214l-16.046-30.259c-1.477-2.785-5.039-3.754-7.745-2.003-2.4,1.552-3.038,4.804-1.699,7.329l3.441,6.489-20.186-15.438c-2.214-1.755-6.054-2.493-7.86.12-1.599,2.017-1.527,4.817.015,6.745-.019.019-.044.033-.06.056-.013.017-.017.038-.028.057l-3.415-2.707c-2.633-2.087-6.607-1.335-8.223,1.831-1.183,2.318-.392,5.17,1.647,6.787l1.453,1.152c-.014.058-.018.117-.01.175-2.331-1.105-5.223-.428-6.779,1.821-1.65,2.384-.973,5.681,1.299,7.482l3.609,2.861c-.156-.006-.312.052-.419.186-.06.079-.085.17-.092.263-2.266-.388-4.695.675-5.835,3.04-1.109,2.3-.294,5.079,1.707,6.666l30.453,24.141c8.715,6.909,20.75,7.839,30.423,2.351h0c8.477-4.81,11.59-15.491,7.024-24.102l-2.674-5.042Z" fill="#ff9e85"></path>
          <g fill="none" opacity=".2">
            <path d="m505.337,279.577c-.17.211-.478.249-.694.083l-19.178-14.706c-.219-.168-.26-.482-.092-.701.141-.218.482-.26.701-.092l19.178,14.706c.219.168.26.482.092.701l-.007.009Z" fill="#0c0c0c"></path>
          </g>
          <g fill="none" opacity=".2">
            <path d="m499.084,288.214c-.17.211-.478.249-.694.083l-21.403-16.411c-.219-.168-.26-.482-.092-.701.155-.199.482-.26.701-.092l21.403,16.411c.219.168.26.482.092.701l-.007.009Z" fill="#0c0c0c"></path>
          </g>
          <g fill="none" opacity=".2">
            <path d="m492.367,297.608c-.17.211-.478.249-.694.083l-17.073-13.091c-.219-.168-.26-.482-.092-.701.174-.218.482-.26.701-.092l17.073,13.091c.219.168.26.482.092.701l-.007.009Z" fill="#0c0c0c"></path>
          </g>
        </g>
        <path d="m649.812,292.891l-51.889,90.953-53.031-96.834-63.375,35.383,85.318,149.921c2.655,4.624,6.484,8.856,11.25,11.978,16.188,10.609,37.912,6.085,48.52-10.103l.438-.669,91.001-138.864-68.232-41.766Z" fill="#0066f9"></path>
        <path d="m535.513,291.214l-16.046-30.259c-1.477-2.785-5.039-3.754-7.745-2.003-2.4,1.552-3.038,4.804-1.699,7.329l3.441,6.489,5.35,11.715" fill="#ff9e85"></path>
        <path id="b_1_b" d="m760.07,302.956c34.092-1.607,35.527-30.544,35.527-30.544,0,0,16.892,1.092,28.121,2.611,18.384,2.487,30.512,8.721,40.163,18.372,8.978,8.978,14.444,18.692,8.66,80.711-4.188,44.906-1.24,143.679-1.24,143.679h-205.75s-12.338-129.465-14.058-149.679c-3.283-38.589-16.724-60.34,2.064-80.218,13.625-14.416,48.797-15.476,62.958-15.474.231,0-2.873,32.73,43.555,30.541Z" fill="#0066f9"></path>
        <path d="m652.691,361.654c-.018-.275-.255-.486-.53-.468-.276.018-.485.255-.468.53l4.183,66.828c.016.251.215.448.459.467.023.002.047.002.071,0,.276-.018.485-.255.468-.53" fill="#0c0c0c"></path>
        <g>
          <path d="m698.022,459.207l-33.282-8.087c-3.064-.744-6.152,1.276-6.64,4.463-.432,2.825,1.576,5.461,4.353,6.136l7.137,1.734-24.946,4.848c-2.783.491-5.884,2.873-5.128,5.958.447,2.535,2.589,4.34,5.054,4.467.002.027-.005.055.002.082.004.021.017.038.024.058l-4.291.757c-3.309.584-5.384,4.055-4.089,7.365.948,2.424,3.606,3.725,6.169,3.274l1.826-.322c.034.049.076.091.124.124-2.374,1.01-3.787,3.622-3.139,6.279.688,2.817,3.603,4.499,6.458,3.996l4.536-.8c-.108.113-.168.268-.139.436.019.097.071.176.135.243-1.795,1.437-2.612,3.96-1.6,6.382.984,2.357,3.603,3.592,6.118,3.148l38.27-6.749c10.952-1.931,19.637-10.315,21.954-21.192h0c2.031-9.533-3.891-18.951-13.362-21.253l-5.546-1.348Z" fill="#ff9e85"></path>
          <g fill="none" opacity=".2">
            <path d="m669.287,474.049c.045.267-.131.523-.398.574l-23.729,4.58c-.271.052-.533-.125-.586-.396-.069-.251.125-.534.396-.586l23.729-4.58c.271-.052.533.125.586.396l.002.012Z" fill="#0c0c0c"></path>
          </g>
          <g fill="none" opacity=".2">
            <path d="m671.595,484.459c.045.267-.131.523-.398.574l-26.482,5.112c-.271.052-.533-.125-.586-.396-.046-.248.126-.533.396-.586l26.482-5.112c.271-.052.533.125.586.396l.002.012Z" fill="#0c0c0c"></path>
          </g>
          <g fill="none" opacity=".2">
            <path d="m674.161,495.719c.045.267-.131.523-.398.574l-21.124,4.078c-.271.052-.533-.125-.586-.396-.047-.275.126-.533.396-.586l21.124-4.078c.271-.052.533.125.586.396l.002.012Z" fill="#0c0c0c"></path>
          </g>
        </g>
        <path id="b_4_b" d="m694.707,516.091l178.838.975c1.356.147,2.712.22,4.061.22,10.264,0,20.15-4.216,27.274-11.767,8.061-8.545,11.652-20.372,9.703-31.955l-39.842-159.603c-3.437-20.423-22.775-34.19-43.202-30.759-20.423,3.436-34.195,22.778-30.759,43.202l30.555,120.235-135.764,4.454-.865,64.997Z" fill="#0066f9"></path>
        <g id="b_4_st">
          <path d="m854.712,446.132c.244,0,.457-.178.494-.426.041-.273-.147-.527-.42-.568l-23.161.841c-.283-.043-.528.147-.569.42-.041.273.147.527.42.568l23.161-.841c.025.004.05.006.075.006Z" fill="#0c0c0c"></path>
        </g>
        <g id="b_4_st-2" data-name="b_4_st">
          <path d="m868.343,517.786c.248,0,.462-.184.495-.436.036-.273-.157-.524-.431-.561l-172.654-1.077.757-64.001,134.952-4.743c.158.019.315-.035.425-.148.11-.114.16-.274.134-.431l-14.716-72.27c-.045-.272-.298-.461-.576-.41-.272.046-.456.304-.41.576l14.604,71.602-134.788,4.764c-.133-.019-.269.02-.375.103s-.174.206-.188.34l-.865,64.997c-.029.27.163.515.432.55l173.139,1.141c.022.003.044.004.065.004Z" fill="#0c0c0c"></path>
        </g>
        <g>
          <path d="m610.469,499.007l-48.924-150.389c-1.764-5.421-6.817-9.091-12.518-9.091h-199.318c-8.945,0-15.285,8.73-12.518,17.236l48.924,150.389c1.764,5.421,6.817,9.091,12.518,9.091h199.318c8.945,0,15.285-8.73,12.518-17.236Z" fill="#292a2e"></path>
          <rect x="564.541" y="504.049" width="145.462" height="12.194" rx="6.02" ry="6.02" fill="#292a2e"></rect>
          <circle cx="470.831" cy="432.221" r="20.905" fill="#fff"></circle>
        </g>
        <path d="m796.635,198.957c-1.657,0-3-1.343-3-3v-34.174c0-17.39-4.813-31.168-13.919-39.847-8.631-8.226-21.018-12.008-36.804-11.252-1.639.082-3.061-1.197-3.141-2.853-.08-1.655,1.197-3.061,2.853-3.141,17.491-.845,31.366,3.499,41.232,12.902,10.323,9.838,15.78,25.119,15.78,44.19v34.174c0,1.657-1.343,3-3,3Z" fill="#0066f9"></path>
        <g>
          <circle cx="792.151" cy="202.377" r="22.79" fill="#0066f9"></circle>
          <path d="m793.031,219.449c-.67-.485-1.609-.335-2.095.336l-1.744,2.409c-4.315,5.963-11.286,9.523-18.646,9.523h-27.746v-.587c0-1.657-1.343-3-3-3h-9.39c-1.657,0-3,1.343-3,3v4.391c0,1.657,1.343,3,3,3h9.39c1.657,0,3-1.343,3-3v-.804h27.746c8.32,0,16.199-4.024,21.077-10.765l1.744-2.409c.485-.671.335-1.609-.336-2.095Z" fill="#0066f9"></path>
          <circle cx="797.619" cy="202.377" r="22.79" fill="#0066f9"></circle>
          <circle cx="797.619" cy="202.377" r="22.79" fill="#fff" opacity=".3"></circle>
        </g>
      </g>
      <path d="m364.778,518.786h552.999c.552,0,1-.448,1-1,0-.552-.448-1-1-1H364.778c-.552,0-1,.448-1,1,0,.552.448,1,1,1Z" fill="#292a2e"></path>
    </g>
  </g>
</svg>