<svg id="Layer_2" data-name="Layer 2" xmlns="http://www.w3.org/2000/svg" viewBox="0 0 896.9 588.291" style="width: 100%; height: 100%;">
  <g id="Layer_2-2" data-name="Layer 2">
    <g>
      <g>
        <path d="m254.706,573.836c.24,0,.471-.134.584-.364l17.104-35.082c.157-.322.023-.71-.299-.867-.322-.157-.71-.023-.867.299l-17.104,35.082c-.157.322-.023.71.299.867.092.045.188.066.284.066Z" fill="#292a2e"></path>
        <path d="m225.793,571.8c.288,0,.551-.193.627-.484l19.792-75.565c.091-.346-.117-.701-.463-.792-.348-.09-.701.117-.792.463l-19.792,75.565c-.091.346.117.701.463.792.055.015.111.021.165.021Z" fill="#292a2e"></path>
        <path d="m188.037,575.145c.085,0,.17-.017.253-.052.33-.14.483-.521.344-.85l-20.46-48.186c-.14-.33-.521-.484-.85-.344-.33.14-.483.521-.344.85l20.46,48.186c.105.247.345.395.597.395Z" fill="#292a2e"></path>
        <path d="m225.059,586.31c.052,0,.105-.006.158-.019.347-.087.559-.439.472-.787l-23.775-95.11c-.087-.347-.439-.558-.787-.472-.347.087-.559.439-.472.787l23.775,95.11c.074.294.338.491.629.491Z" fill="#292a2e"></path>
        <ellipse cx="195.546" cy="499.851" rx="27.189" ry="23.345" transform="translate(-339.837 461.721) rotate(-64.56)" fill="#48cf48"></ellipse>
        <ellipse cx="195.546" cy="499.851" rx="27.189" ry="23.345" transform="translate(-339.837 461.721) rotate(-64.56)" fill="#fff" opacity=".4"></ellipse>
        <ellipse cx="163.938" cy="536.081" rx="16.307" ry="13.665" transform="translate(-394.574 487.88) rotate(-68.063)" fill="#48cf48"></ellipse>
        <ellipse cx="252.096" cy="507.361" rx="19.676" ry="24.148" transform="translate(-136.41 95.013) rotate(-16.873)" fill="#48cf48"></ellipse>
        <ellipse cx="274.512" cy="542.837" rx="10.657" ry="15" transform="translate(-85.897 52.802) rotate(-9.508)" fill="#48cf48"></ellipse>
        <rect x="168.953" y="562.035" width="100.991" height="25.167" transform="translate(438.898 1149.236) rotate(-180)" fill="#292a2e"></rect>
        <rect x="168.953" y="562.035" width="100.991" height="25.167" transform="translate(438.898 1149.236) rotate(-180)" fill="#fff" opacity=".3"></rect>
        <ellipse cx="201.285" cy="549.451" rx="19.893" ry="16.747" transform="translate(-383.58 530.898) rotate(-68.063)" fill="#48cf48"></ellipse>
        <circle cx="239.235" cy="549.909" r="15.472" fill="#48cf48"></circle>
        <ellipse cx="163.938" cy="536.081" rx="16.307" ry="13.665" transform="translate(-394.574 487.88) rotate(-68.063)" fill="#fff" opacity=".68"></ellipse>
        <ellipse cx="252.096" cy="507.361" rx="19.676" ry="24.148" transform="translate(-136.41 95.013) rotate(-16.873)" fill="#fff" opacity=".68"></ellipse>
        <ellipse cx="274.512" cy="542.837" rx="10.657" ry="15" transform="translate(-85.897 52.802) rotate(-9.508)" fill="#fff" opacity=".68"></ellipse>
        <ellipse cx="201.285" cy="549.451" rx="19.893" ry="16.747" transform="translate(-383.58 530.898) rotate(-68.063)" fill="#fff" opacity=".68"></ellipse>
        <circle cx="239.235" cy="549.909" r="15.472" fill="#fff" opacity=".4"></circle>
        <path d="m189.538,536.884c11.744,3.281,17.924-6.316,17.924-6.316l-.006-.013c-6.264-1.868-13.209.759-17.917,6.329Z" fill="#292a2e"></path>
        <path d="m263.716,540.813c5.791-2.127,10.408-6.387,13.494-11.893-1.641-.837-3.411-1.174-5.175-.875-4.889.817-8.21,6.206-8.32,12.768Z" fill="#292a2e"></path>
        <path d="m236.474,534.685c4.786,4.163,10.388,6.796,16.14,7.451-2.685-4.604-7.671-7.697-13.378-7.697-.947,0-1.868.084-2.762.246Z" fill="#292a2e"></path>
      </g>
      <g>
        <g>
          <rect x="63.83" y="22.97" width="379.21" height="370.351" rx="20.51" ry="20.51" fill="#f4f4f4"></rect>
          <g>
            <g>
              <path id="sk" d="m279.779,178.262c-.204-.027-2.469,37.552-46.124,34.276-30.222-2.264-40.998-34.329-41.691-34.329,3.258-.693,7.285-1.744,8.886-2.104,5.317-1.198,11.954-5.586,13.488-14.827.884-5.327-.616-32.577-.154-37.966l46.391,10.355c-.648,11.382-5.185,37.769,10.716,42.439,2.646.772,5.496,1.483,8.488,2.157Z" fill="#ff9e85"></path>
              <path id="sh" d="m261.225,165.321c-.657-2.097-1.048-3.921-1.395-7.2-.621-5.864-.291-11.254.303-16.747-9.372-1.247-18.369-5.189-25.64-11.233-.861,3.181-5.599,17.082-4.287,20.106,2.479,5.715,14.131,15.074,31.019,15.074Z" fill="#0c0c0c" opacity=".22"></path>
              <g>
                <path d="m288.812,93.577s13.313-9.893,16.765-32.868c2.673-17.789-13.84-6.375-13.84-6.375,0,0,1.8-12.828-7.561-11.623-9.361,1.204-14.704,14.654-14.704,14.654" fill="#0c0c0c"></path>
                <path d="m235.808,43.852s-46.455,4.63-30.146,67.654l4.105.306,8.333.621" fill="#0c0c0c"></path>
                <path d="m252.432,157.17c-18.289-1.778-40.107-13.505-40.238-38.351l-.117-22.418c-.13-24.845,12.814-45.055,36.207-45.177h0c23.393-.123,40.984,19.927,41.114,44.772l.052,9.925c.011,2.043-.185,5.71-.819,10.18-1.266,8.918-3.228,22.478-9.356,31.615-5.786,8.626-15.158,10.59-26.842,9.454Z" fill="#ff9e85"></path>
                <g id="m">
                  <path d="m261.953,138.423c-.437,0-.838-.289-.962-.729-1.995-7.088-11.997-5.388-12.422-5.312-.544.095-1.063-.265-1.161-.808-.098-.543.263-1.063.806-1.161,4.215-.764,12.712-.333,14.702,6.738.15.532-.16,1.084-.692,1.233-.09.026-.182.038-.271.038Z" fill="#0c0c0c"></path>
                </g>
                <g>
                  <g>
                    <circle id="e1_eye" cx="277.941" cy="109.602" r="2.551" transform="translate(129.69 368.996) rotate(-81.772)" fill="#0a0a0a"></circle>
                    <g id="e1_n">
                      <path d="m260.643,125.458c-.511-.074-.893-.523-.872-1.05.022-.563.496-1.002,1.06-.979l5.429.214-1.747-11.158c-.087-.557.294-1.079.851-1.166.556-.087,1.078.293,1.166.85l1.938,12.385c.047.302-.044.608-.247.836s-.497.353-.802.341l-6.669-.263c-.036-.001-.072-.005-.106-.01Z" fill="#0a0a0a"></path>
                    </g>
                    <path id="e1_eb" d="m255.978,95.397c.134.787-2.765,1.516-6.762,1.991s-7.587.715-7.712-.272c-.157-1.246,3.118-3.653,7.115-4.127,3.997-.475,7.149,1.17,7.359,2.408Z" fill="#0a0a0a"></path>
                    <circle id="e1_eye-2" data-name="e1_eye" cx="251.291" cy="107.681" r="2.551" transform="translate(108.756 340.975) rotate(-81.772)" fill="#0a0a0a"></circle>
                  </g>
                  <path id="e1_eb-2" data-name="e1_eb" d="m286.564,100.359c-.197.774-3.143.264-6.989-.924-3.846-1.188-7.224-2.425-6.938-3.378.362-1.203,3.935-2.219,7.78-1.032,3.846,1.188,6.456,4.116,6.146,5.333Z" fill="#0a0a0a"></path>
                </g>
                <path d="m213.687,126.381c-7.109.037-12.912-7.538-12.949-14.647-.037-7.109,5.705-11.06,12.814-11.097l3.688,4.744,2.559,20.968-6.112.032Z" fill="#ff9e85"></path>
                <path d="m218.68,114.801c1.185.115,2.241-.743,2.362-1.927.781-7.65,4.065-33.311,13.141-35.088,7.11-1.393,24.25,8.806,40.219,5.884,6.986-1.278,13.596.498,14.245,3.798.257,1.307,4.743-17.41-6.075-31.722-8.613-11.395-37.053-14.806-50.031-11.188-35.934,10.019-20.466,57.617-20.466,57.617l1.295,10.411c.125,1.005.93,1.789,1.939,1.887l3.372.328Z" fill="#0c0c0c"></path>
                <ellipse cx="267.453" cy="53.803" rx="9.733" ry="14.326" transform="translate(-5.358 53.797) rotate(-11.373)" fill="#0c0c0c"></ellipse>
              </g>
            </g>
            <g>
              <path d="m413.491,188.884l8.727-27.887c.804-2.567,3.639-3.936,6.183-2.891,2.255.927,3.299,3.554,2.571,5.881l-1.871,5.98,14.517-16.103c1.583-1.818,4.688-3.038,6.611-1.128,1.656,1.442,2.034,3.802,1.042,5.66.019.013.042.02.059.038.014.013.02.029.032.043l2.441-2.804c1.882-2.162,5.333-2.152,7.183.25,1.355,1.759,1.137,4.275-.32,5.95l-1.039,1.194c.021.046.033.095.036.145,1.783-1.291,4.313-1.175,5.97.467,1.757,1.742,1.704,4.613.08,6.479l-2.58,2.964c.13-.029.27-.005.38.09.063.057.098.13.118.206,1.84-.68,4.043-.168,5.369,1.637,1.29,1.756,1.041,4.214-.39,5.857l-21.766,25.008c-6.229,7.157-16.178,9.818-25.148,6.728h0c-7.862-2.709-12.142-11.18-9.659-19.116l1.454-4.647Z" fill="#ff9e85"></path>
              <g fill="none" opacity=".2">
                <path d="m436.98,174.406c.176.15.44.134.595-.039l13.785-15.332c.157-.175.143-.445-.032-.603-.153-.161-.445-.143-.603.032l-13.785,15.332c-.157.175-.143.445.032.603l.008.007Z" fill="#0c0c0c"></path>
              </g>
              <g fill="none" opacity=".2">
                <path d="m443.574,180.672c.176.15.44.134.595-.039l15.385-17.11c.157-.175.143-.445-.032-.603-.161-.143-.445-.143-.603.032l-15.385,17.11c-.157.175-.143.445.032.603l.008.007Z" fill="#0c0c0c"></path>
              </g>
              <g fill="none" opacity=".2">
                <path d="m450.677,187.5c.176.15.44.134.595-.039l12.272-13.648c.157-.175.143-.445-.032-.603-.18-.155-.445-.143-.603.032l-12.272,13.648c-.157.175-.143.445.032.603l.008.007Z" fill="#0c0c0c"></path>
              </g>
            </g>
            <g>
              <path d="m58.513,196.578l-9.063-28.958c-.834-2.666-3.779-4.087-6.42-3.002-2.342.962-3.426,3.691-2.669,6.107l1.943,6.21-15.074-16.722c-1.644-1.888-4.868-3.155-6.865-1.171-1.72,1.497-2.112,3.948-1.082,5.877-.02.014-.044.021-.061.039-.014.013-.021.03-.033.045l-2.534-2.912c-1.955-2.246-5.538-2.235-7.459.26-1.407,1.827-1.181,4.439.333,6.178l1.079,1.239c-.021.048-.034.099-.038.151-1.851-1.341-4.479-1.221-6.2.485-1.824,1.809-1.77,4.79-.084,6.727l2.679,3.078c-.135-.031-.28-.005-.395.094-.065.059-.101.135-.123.214-1.911-.706-4.199-.174-5.575,1.7-1.339,1.823-1.081,4.376.405,6.083l22.603,25.969c6.468,7.432,16.799,10.196,26.115,6.986h0c8.164-2.813,12.609-11.61,10.03-19.85l-1.51-4.826Z" fill="#ff9e85"></path>
              <g fill="none" opacity=".2">
                <path d="m34.121,181.544c-.182.156-.457.139-.618-.04l-14.315-15.921c-.163-.182-.149-.462.033-.626.159-.167.462-.149.626.033l14.315,15.921c.163.182.149.462-.033.626l-.008.007Z" fill="#0c0c0c"></path>
              </g>
              <g fill="none" opacity=".2">
                <path d="m27.274,188.051c-.182.156-.457.139-.618-.04l-15.976-17.768c-.163-.182-.149-.462.033-.626.167-.149.462-.148.626.033l15.976,17.768c.163.182.149.462-.033.626l-.008.007Z" fill="#0c0c0c"></path>
              </g>
              <g fill="none" opacity=".2">
                <path d="m19.898,195.142c-.182.156-.457.139-.618-.04l-12.744-14.173c-.163-.182-.149-.462.033-.626.187-.161.462-.148.626.033l12.744,14.173c.163.182.149.462-.033.626l-.008.007Z" fill="#0c0c0c"></path>
              </g>
            </g>
            <path d="m330.918,195.236l74.948,138.368-55.872,5.19,53.239-154.267,60.623,21.442-55.593,153.434c-5.834,16.102-23.617,24.425-39.718,18.591-6.824-2.473-12.252-7.092-15.796-12.819l-.358-.581-82.793-133.821,61.32-35.537Z" fill="#0066f9"></path>
            <path id="b_1_b" d="m232.714,203.06c-30.203-1.424-31.474-27.059-31.474-27.059,0,0-14.965.967-24.913,2.313-16.287,2.204-27.031,7.726-35.582,16.277-7.954,7.954-12.797,16.56-7.672,71.504,3.71,39.783,1.099,127.289,1.099,127.289h182.279s10.931-114.696,12.454-132.604c2.908-34.187,14.816-53.457-1.828-71.067-12.071-12.771-43.231-13.711-55.776-13.709-.204,0,2.545,28.996-38.587,27.057Z" fill="#0066f9"></path>
            <path d="m195.976,238.218l-85.301,124.057-.385.56c-9.708,14.119-29.024,17.695-43.143,7.987-5.625-3.867-9.575-9.262-11.68-15.243L5.724,214.579l60.817-20.886,47.382,141.811-55.208-6.697,77.678-128.968,59.583,38.379Z" fill="#0066f9"></path>
          </g>
        </g>
        <path d="m323.792,316.399c-.014,0-.029,0-.042-.002-.243-.023-.422-.239-.4-.483l5.781-61.613c.022-.243.247-.411.483-.4.243.023.422.239.4.483l-5.781,61.613c-.022.229-.215.401-.44.401Z" fill="#0c0c0c"></path>
        <path d="m135.047,323.582c-.238,0-.434-.189-.443-.427l-1.974-57.045c-.008-.245.183-.45.427-.459.218-.003.449.183.459.427l1.974,57.045c.008.245-.183.45-.427.459h-.016Z" fill="#0c0c0c"></path>
      </g>
      <g>
        <path d="m626.254,248.082v-73.832c0-4.955-4.016-8.971-8.971-8.971h-85.381c-4.955,0-8.971,4.016-8.971,8.971v52.317c0,4.955,4.016,8.971,8.971,8.971h70.923s20.072,14.275,20.072,14.275c1.407,1.001,3.356-.005,3.356-1.732Z" fill="#48cf48"></path>
        <path d="m626.254,248.082v-73.832c0-4.955-4.016-8.971-8.971-8.971h-85.381c-4.955,0-8.971,4.016-8.971,8.971v52.317c0,4.955,4.016,8.971,8.971,8.971h70.923s20.072,14.275,20.072,14.275c1.407,1.001,3.356-.005,3.356-1.732Z" fill="#fff" opacity=".5"></path>
        <g>
          <circle cx="602.834" cy="201.097" r="8.955" fill="#fff"></circle>
          <circle cx="574.593" cy="201.097" r="8.955" fill="#fff"></circle>
          <circle cx="546.351" cy="201.097" r="8.955" fill="#fff"></circle>
        </g>
      </g>
      <g>
        <path d="m374.291,110.843V8.651c0-4.778,3.873-8.651,8.651-8.651h120.197c4.778,0,8.651,3.873,8.651,8.651v76.197c0,4.778-3.873,8.651-8.651,8.651h-97.67s-27.241,19.374-27.241,19.374c-1.65,1.174-3.937-.006-3.937-2.031Z" fill="#48cf48"></path>
        <circle cx="443.04" cy="75.808" r="5.294" fill="#fff"></circle>
        <path d="m442.794,64.317c-1.903,0-3.446-1.543-3.446-3.446v-12.801c0-1.592,1.09-2.977,2.638-3.35.15-.037,15.567-3.939,15.567-14.314,0-6.51-5.337-11.057-12.979-11.057-8.275,0-12.529,8.272-12.705,8.625-.853,1.695-2.917,2.39-4.617,1.544-1.699-.845-2.399-2.898-1.561-4.6.25-.509,6.276-12.461,18.883-12.461,11.514,0,19.871,7.549,19.871,17.949,0,12.535-12.577,18.276-18.204,20.217v10.247c0,1.903-1.543,3.446-3.446,3.446Z" fill="#fff"></path>
      </g>
      <g>
        <g>
          <circle cx="685.743" cy="271.349" r="22.79" fill="#0066f9"></circle>
          <path d="m675.062,269.19c-1.161,0-2.267-.678-2.756-1.812-.411-.953-9.951-23.721.411-57.121,11.225-36.179,50.319-36.598,50.713-36.598,1.657,0,3,1.343,3,3s-1.341,2.998-2.996,3h0c-1.428.004-35.088.471-44.987,32.376-9.711,31.303-.724,52.753-.632,52.966.657,1.521-.044,3.287-1.566,3.943-.387.167-.791.247-1.187.247Z" fill="#0066f9"></path>
          <g>
            <g>
              <circle cx="677.492" cy="271.349" r="22.79" fill="#0066f9"></circle>
              <circle cx="677.492" cy="271.349" r="22.79" fill="#fff" opacity=".3"></circle>
              <circle cx="682.96" cy="271.349" r="22.79" fill="#0066f9"></circle>
            </g>
            <path d="m790.461,230.343s7.321,35.085,16.066,45.7c25.175,30.558,36.225,67.264,18.16,89.655-18.065,22.391-143.912,40.474-159.996-3.255-13.541-36.815.986-43.334,1.163-75.234.08-14.434,2.078-44.876,2.078-44.876" fill="#0a0a0a"></path>
            <path id="sk-2" data-name="sk" d="m685.282,343.88c.23-.03,2.783,42.33,51.993,38.637,34.068-2.552,46.215-38.697,46.996-38.697-3.673-.781-9.858-1.916-11.49-2.787-5.364-2.882-12.002-5.882-13.731-16.299-.997-6.004.694-36.722.174-42.797l-52.294,11.672c.731,12.83,5.845,42.575-12.08,47.839-2.982.871-6.195,1.671-9.568,2.432Z" fill="#ff9e85"></path>
            <path id="sh-2" data-name="sh" d="m706.196,329.292c.741-2.364,1.181-4.42,1.573-8.116.7-6.61.328-12.686-.342-18.877,10.564-1.406,20.707-5.85,28.902-12.662.971,3.586,6.311,19.256,4.833,22.664-2.795,6.442-15.929,16.992-34.966,16.992Z" fill="#0c0c0c" opacity=".5"></path>
            <path d="m715.506,319.987c20.699-.778,46.034-12.516,47.841-40.465l1.631-25.218c1.807-27.949-11.407-51.555-37.722-53.256h0c-26.315-1.702-47.449,19.683-49.257,47.632l-.722,11.165c-.693,10.724,1.297,61.531,38.228,60.143Z" fill="#ff9e85"></path>
            <g>
              <path id="e1_eb-3" data-name="e1_eb" d="m679.536,248.616c.095.896,3.468.803,7.956.097,4.488-.706,8.462-1.542,8.296-2.652-.21-1.402-4.037-1.963-8.525-1.257-4.488.706-7.878,2.404-7.728,3.813Z" fill="#0a0a0a"></path>
              <g>
                <circle id="e1_eye-3" data-name="e1_eye" cx="685.777" cy="257.204" r="2.879" fill="#0a0a0a"></circle>
                <g id="e1_n-2" data-name="e1_n">
                  <path d="m702.074,280.841c.583,0,1.082-.44,1.144-1.032.066-.633-.393-1.199-1.026-1.265l-6.099-.638,3.754-12.183c.187-.608-.154-1.252-.763-1.44-.607-.187-1.252.154-1.44.761l-4.166,13.522c-.101.329-.049.687.141.974s.498.475.841.511l7.493.783c.04.004.081.006.12.006Z" fill="#0a0a0a"></path>
                </g>
                <g id="e1_m">
                  <path d="m705.793,293.883c10.44,0,13.546-6.308,13.685-6.604.271-.575.025-1.261-.55-1.533-.571-.271-1.255-.027-1.53.544-.13.268-3.318,6.464-14.806,5.091-.644-.08-1.206.376-1.281,1.007-.075.632.376,1.205,1.007,1.28,1.239.148,2.397.216,3.474.216Z" fill="#0a0a0a"></path>
                </g>
                <path id="e1_eb-4" data-name="e1_eb" d="m714.506,248.013c-.276.858,2.844,2.141,7.233,3.317s8.36,2.024,8.659.942c.377-1.366-2.893-3.432-7.282-4.608-4.388-1.176-8.175-.999-8.61.35Z" fill="#0a0a0a"></path>
                <circle id="e1_eye-4" data-name="e1_eye" cx="714.649" cy="259.039" r="2.879" fill="#0a0a0a"></circle>
              </g>
            </g>
            <path d="m786.285,260.336l-26.977,10.056c-18.328-4.916-23.924-45.935-23.924-45.935,0,0-14.663,23.279-67.501,17.849,0,0-2.574-73.968,75.971-61.443,25.259,4.028,45.915,26.214,47.784,59.455,1.31,23.295-5.354,20.018-5.354,20.018Z" fill="#0a0a0a"></path>
            <path d="m761.162,287.932c7.997.517,15.033-7.619,15.55-15.616.517-7.997-5.681-12.826-13.678-13.344l-4.467,5.092-4.281,23.423,6.876.445Z" fill="#ff9e85"></path>
          </g>
          <g>
            <path d="m528.846,328.286l-8.076-33.285c-.744-3.064-3.956-4.882-7.011-3.854-2.709.912-4.13,3.905-3.456,6.682l1.732,7.137-15.748-19.945c-1.712-2.248-5.251-3.911-7.646-1.825-2.047,1.56-2.669,4.291-1.652,6.54-.024.014-.051.021-.072.04-.017.014-.026.033-.041.048l-2.64-3.467c-2.036-2.673-6.073-2.925-8.42-.256-1.719,1.954-1.657,4.913-.08,6.983l1.124,1.475c-.028.053-.046.109-.053.167-1.986-1.647-4.955-1.704-7.019.09-2.188,1.903-2.346,5.265-.589,7.571l2.791,3.664c-.15-.044-.315-.026-.452.076-.078.062-.124.144-.154.232-2.1-.936-4.717-.505-6.405,1.504-1.643,1.955-1.539,4.849.008,6.881l23.547,30.914c6.739,8.847,18.172,12.72,28.9,9.791h0c9.403-2.567,15.057-12.149,12.758-21.621l-1.346-5.547Z" fill="#ff9e85"></path>
            <g fill="none" opacity=".2">
              <path d="m502.479,309.557c-.217.163-.525.123-.693-.091l-14.952-18.986c-.171-.217-.133-.531.084-.702.191-.177.532-.133.702.084l14.952,18.986c.171.217.133.531-.084.702l-.009.007Z" fill="#0c0c0c"></path>
            </g>
            <g fill="none" opacity=".2">
              <path d="m494.287,316.382c-.217.163-.525.123-.693-.091l-16.687-21.189c-.171-.217-.133-.531.084-.702.199-.155.531-.133.702.084l16.687,21.189c.171.217.133.531-.084.702l-.009.007Z" fill="#0c0c0c"></path>
            </g>
            <g fill="none" opacity=".2">
              <path d="m485.458,323.826c-.217.163-.525.123-.693-.091l-13.311-16.902c-.171-.217-.133-.531.084-.702.222-.168.531-.133.702.084l13.311,16.902c.171.217.133.531-.084.702l-.009.007Z" fill="#0c0c0c"></path>
            </g>
          </g>
          <path d="m631.681,356.861l-65.234,76.599-27.474-106.931-70.15,18.636,45.65,166.348c1.431,5.137,4.096,10.183,7.943,14.385,13.067,14.278,35.234,15.26,49.512,2.193l.59-.54,116.612-112.089-57.45-58.601Z" fill="#0066f9"></path>
          <path d="m528.846,328.286l-8.076-33.285c-.744-3.064-3.956-4.882-7.011-3.854-2.709.912-4.13,3.905-3.456,6.682l1.732,7.137,2.291,12.673" fill="#ff9e85"></path>
          <path id="b_1_b-2" data-name="b_1_b" d="m738.194,371.928c34.092-1.607,35.527-30.544,35.527-30.544,0,0,16.892,1.092,28.121,2.611,18.384,2.487,30.512,8.721,40.163,18.372,8.978,8.978,14.444,18.692,8.66,80.711-4.188,44.906-1.24,143.679-1.24,143.679h-205.75s-12.338-129.465-14.058-149.679c-3.283-38.589-16.724-60.34,2.064-80.218,13.625-14.416,48.797-15.476,62.958-15.474.231,0-2.873,32.73,43.555,30.541Z" fill="#0066f9"></path>
          <path d="m630.814,430.626c-.018-.275-.255-.486-.53-.468-.276.018-.485.255-.468.53l2.091,39.063c.016.251.215.448.459.467.023.002.047.002.071,0,.276-.018.485-.255.468-.53" fill="#0c0c0c"></path>
          <g>
            <path d="m676.146,528.179l-33.282-8.087c-3.064-.744-6.152,1.276-6.64,4.463-.432,2.825,1.576,5.461,4.353,6.136l7.137,1.734-24.946,4.848c-2.783.491-5.884,2.873-5.128,5.958.447,2.535,2.589,4.34,5.054,4.467.002.027-.005.055.002.082.004.021.017.038.024.058l-4.291.757c-3.309.584-5.384,4.055-4.089,7.365.948,2.424,3.606,3.725,6.169,3.274l1.826-.322c.034.049.076.091.124.124-2.374,1.01-3.787,3.622-3.139,6.279.688,2.817,3.603,4.499,6.458,3.996l4.536-.8c-.108.113-.168.268-.139.436.019.097.071.176.135.243-1.795,1.437-2.612,3.96-1.6,6.382.984,2.357,3.603,3.592,6.118,3.148l38.27-6.749c10.952-1.931,19.637-10.315,21.954-21.192h0c2.031-9.533-3.891-18.951-13.362-21.253l-5.546-1.348Z" fill="#ff9e85"></path>
            <g fill="none" opacity=".2">
              <path d="m647.41,543.021c.045.267-.131.523-.398.574l-23.729,4.58c-.271.052-.533-.125-.586-.396-.069-.251.125-.534.396-.586l23.729-4.58c.271-.052.533.125.586.396l.002.012Z" fill="#0c0c0c"></path>
            </g>
            <g fill="none" opacity=".2">
              <path d="m649.719,553.431c.045.267-.131.523-.398.574l-26.482,5.112c-.271.052-.533-.125-.586-.396-.046-.248.126-.533.396-.586l26.482-5.112c.271-.052.533.125.586.396l.002.012Z" fill="#0c0c0c"></path>
            </g>
            <g fill="none" opacity=".2">
              <path d="m652.285,564.691c.045.267-.131.523-.398.574l-21.124,4.078c-.271.052-.533-.125-.586-.396-.047-.275.126-.533.396-.586l21.124-4.078c.271-.052.533.125.586.396l.002.012Z" fill="#0c0c0c"></path>
            </g>
          </g>
          <path id="b_4_b" d="m672.83,585.064l178.838.975c1.356.147,2.712.22,4.061.22,10.264,0,20.15-4.216,27.274-11.767,8.061-8.545,11.652-20.372,9.703-31.955l-39.842-159.603c-3.437-20.423-22.775-34.19-43.202-30.759-20.423,3.436-34.195,22.778-30.759,43.202l30.555,120.235-135.764,4.454-.865,64.997Z" fill="#0066f9"></path>
          <g id="b_4_st">
            <path d="m832.835,515.104c.244,0,.457-.178.494-.426.041-.273-.147-.527-.42-.568l-23.161.841c-.283-.043-.528.147-.569.42-.041.273.147.527.42.568l23.161-.841c.025.004.05.006.075.006Z" fill="#0c0c0c"></path>
          </g>
          <g id="b_4_st-2" data-name="b_4_st">
            <path d="m846.467,586.758c.248,0,.462-.184.495-.436.036-.273-.157-.524-.431-.561l-172.654-1.077.757-64.001,134.952-4.743c.158.019.315-.035.425-.148.11-.114.16-.274.134-.431l-14.716-72.27c-.045-.272-.298-.461-.576-.41-.272.046-.456.304-.41.576l14.604,71.602-134.788,4.764c-.133-.019-.269.02-.375.103s-.174.206-.188.34l-.865,64.997c-.029.27.163.515.432.55l173.139,1.141c.022.003.044.004.065.004Z" fill="#0c0c0c"></path>
          </g>
          <path d="m774.758,267.929c-1.657,0-3-1.343-3-3v-34.174c0-17.39-4.813-31.168-13.919-39.847-8.631-8.226-21.018-12.008-36.804-11.252-1.639.082-3.061-1.197-3.141-2.853-.08-1.655,1.197-3.061,2.853-3.141,17.491-.845,31.366,3.499,41.232,12.902,10.323,9.838,15.78,25.119,15.78,44.19v34.174c0,1.657-1.343,3-3,3Z" fill="#0066f9"></path>
          <g>
            <circle cx="770.275" cy="271.349" r="22.79" fill="#0066f9"></circle>
            <path d="m771.155,288.421c-.67-.485-1.609-.335-2.095.336l-1.744,2.409c-4.315,5.963-11.286,9.523-18.646,9.523h-27.746v-.587c0-1.657-1.343-3-3-3h-9.39c-1.657,0-3,1.343-3,3v4.391c0,1.657,1.343,3,3,3h9.39c1.657,0,3-1.343,3-3v-.804h27.746c8.32,0,16.199-4.024,21.077-10.765l1.744-2.409c.485-.671.335-1.609-.336-2.095Z" fill="#0066f9"></path>
            <circle cx="775.743" cy="271.349" r="22.79" fill="#0066f9"></circle>
            <circle cx="775.743" cy="271.349" r="22.79" fill="#fff" opacity=".3"></circle>
          </g>
        </g>
        <g>
          <g>
            <path d="m512.593,536.147h-229.129c-8.645,0-15.653-7.008-15.653-15.653l-21.322-168.417c0-8.645,7.008-15.653,15.653-15.653h229.129c8.645,0,15.653,7.008,15.653,15.653l21.322,168.417c0,8.645-7.008,15.653-15.653,15.653Z" fill="#292a2e"></path>
            <path d="m389.904,586.758h-53.493c-5.373,0-9.185-5.239-7.531-10.351l32.078-99.163c1.057-3.266,4.098-5.479,7.531-5.479h48.215c3.73,0,6.476,3.492,5.597,7.117l-24.705,101.827c-.861,3.55-4.039,6.049-7.692,6.049Z" fill="#292a2e"></path>
            <rect x="336.56" y="577.782" width="104.338" height="8.976" rx="4.488" ry="4.488" fill="#292a2e"></rect>
            <path d="m436.41,577.782h-38.104l23.995-98.899c.88-3.625-1.867-7.117-5.597-7.117h-48.215c-3.433,0-6.474,2.213-7.531,5.479l-32.078,99.163c-1.654,5.112,2.158,10.351,7.531,10.351h99.999c2.479,0,4.488-2.009,4.488-4.488h0c0-2.479-2.01-4.488-4.488-4.488Z" fill="#fff" opacity=".2"></path>
            <circle cx="386.443" cy="497.562" r="13.828" fill="#292a2e"></circle>
          </g>
          <path d="m495.462,577.782h5.339c.283-1.451,1.559-2.547,3.093-2.547h4.246c1.534,0,2.809,1.096,3.093,2.547h3.322c.283-1.451,1.559-2.547,3.093-2.547h4.245c1.534,0,2.81,1.096,3.093,2.547h3.322c.283-1.451,1.559-2.547,3.093-2.547h4.246c1.534,0,2.809,1.096,3.093,2.547h3.322c.283-1.451,1.559-2.547,3.093-2.547h4.246c1.534,0,2.809,1.096,3.093,2.547h3.322c.283-1.451,1.559-2.547,3.093-2.547h4.246c1.534,0,2.809,1.096,3.093,2.547h2.397c.283-1.451,1.559-2.547,3.093-2.547h37.693c1.534,0,2.809,1.096,3.093,2.547h3.079c.283-1.451,1.559-2.547,3.093-2.547h4.246c1.534,0,2.809,1.096,3.093,2.547h3.322c.283-1.451,1.559-2.547,3.093-2.547h4.245c1.534,0,2.81,1.096,3.093,2.547h3.322c.283-1.451,1.559-2.547,3.093-2.547h4.246c1.534,0,2.809,1.096,3.093,2.547h3.322c.283-1.451,1.559-2.547,3.093-2.547h4.246c1.534,0,2.809,1.096,3.093,2.547h13.971c2.478,0,4.488,2.009,4.488,4.488s-2.01,4.488-4.488,4.488h-58.588s-36.773,0-36.773,0h-90.433c-2.479,0-4.488-2.009-4.488-4.488,0-2.479,2.009-4.488,4.488-4.488Z" fill="#292a2e"></path>
          <path d="m495.462,577.782h5.339c.283-1.451,1.559-2.547,3.093-2.547h4.246c1.534,0,2.809,1.096,3.093,2.547h3.322c.283-1.451,1.559-2.547,3.093-2.547h4.245c1.534,0,2.81,1.096,3.093,2.547h3.322c.283-1.451,1.559-2.547,3.093-2.547h4.246c1.534,0,2.809,1.096,3.093,2.547h3.322c.283-1.451,1.559-2.547,3.093-2.547h4.246c1.534,0,2.809,1.096,3.093,2.547h3.322c.283-1.451,1.559-2.547,3.093-2.547h4.246c1.534,0,2.809,1.096,3.093,2.547h2.397c.283-1.451,1.559-2.547,3.093-2.547h37.693c1.534,0,2.809,1.096,3.093,2.547h3.079c.283-1.451,1.559-2.547,3.093-2.547h4.246c1.534,0,2.809,1.096,3.093,2.547h3.322c.283-1.451,1.559-2.547,3.093-2.547h4.245c1.534,0,2.81,1.096,3.093,2.547h3.322c.283-1.451,1.559-2.547,3.093-2.547h4.246c1.534,0,2.809,1.096,3.093,2.547h3.322c.283-1.451,1.559-2.547,3.093-2.547h4.246c1.534,0,2.809,1.096,3.093,2.547h13.971c2.478,0,4.488,2.009,4.488,4.488s-2.01,4.488-4.488,4.488h-58.588s-36.773,0-36.773,0h-90.433c-2.479,0-4.488-2.009-4.488-4.488,0-2.479,2.009-4.488,4.488-4.488Z" fill="#fff" opacity=".2"></path>
        </g>
        <path d="m151.35,588.291h744.55c.552,0,1-.448,1-1,0-.552-.448-1-1-1H151.35c-.552,0-1,.448-1,1,0,.552.448,1,1,1Z" fill="#292a2e"></path>
      </g>
    </g>
  </g>
</svg>