<svg width="575" height="467" viewBox="0 0 575 467" fill="none" xmlns="http://www.w3.org/2000/svg" style="width: 100%; height: 100%;">
<g clip-path="url(#clip0_35_1078)">
<path d="M121.317 462.196C109.37 436.443 97.228 407.907 79.152 386.016C73.447 379.107 66.86 372.445 58.422 369.431C49.984 366.417 39.315 368.047 34.076 375.316C28.471 383.094 30.775 393.89 34.002 402.917C41.136 422.88 51.341 442.848 62.156 462.195C80.01 462.838 98.582 463.595 121.317 462.195V462.196Z" fill="#55D087" stroke="#010101" stroke-width="1.5" stroke-linecap="round" stroke-linejoin="round"></path>
<path d="M68.599 462.428C60.561 447.441 52.845 430.314 42.458 416.848C38.042 411.123 33.02 405.551 26.444 402.543C19.868 399.535 11.398 399.669 6.08601 404.574C2.12901 408.228 0.537014 413.915 0.773014 419.296C1.00901 424.677 2.86401 429.846 4.90101 434.833C8.69301 444.116 13.189 453.111 19.05 461.765C35.441 462.183 49.775 462.428 68.599 462.428Z" fill="#55D087" stroke="#010101" stroke-width="1.5" stroke-linecap="round" stroke-linejoin="round"></path>
<path d="M46.993 374.093C60.42 402.2 75.348 434.32 88.775 462.427" stroke="#010101" stroke-width="1.5" stroke-linecap="round" stroke-linejoin="round"></path>
<path d="M13.581 405.044C22.548 424.095 31.516 443.146 40.483 462.197" stroke="#010101" stroke-width="1.5" stroke-linecap="round" stroke-linejoin="round"></path>
<path d="M68.084 418.684C71.045 412.079 74.52 403.967 77.481 397.362" stroke="#010101" stroke-width="1.5" stroke-linecap="round" stroke-linejoin="round"></path>
<path d="M52.078 429.378C59.782 430.03 67.178 431.094 74.724 432.782" stroke="#010101" stroke-width="1.5" stroke-linecap="round" stroke-linejoin="round"></path>
<path d="M6.65302 418.045C11.782 419.258 16.829 420.818 21.749 422.709" stroke="#010101" stroke-width="1.5" stroke-linecap="round" stroke-linejoin="round"></path>
<path d="M30.99 440.891C34.492 436.306 37.743 431.529 40.723 426.589" stroke="#010101" stroke-width="1.5" stroke-linecap="round" stroke-linejoin="round"></path>
<path d="M314.234 451.672C313.853 451.744 316.111 443.538 316.111 443.538Z" fill="#010101"></path>
<path d="M314.234 451.672C313.853 451.744 316.111 443.538 316.111 443.538" stroke="#010101" stroke-width="1.5" stroke-linecap="round" stroke-linejoin="round"></path>
<path d="M74.109 414.347L51.997 252.278L311.124 248.862L334.648 411.49L74.109 414.347Z" fill="white" stroke="#010101" stroke-width="1.5" stroke-linecap="round" stroke-linejoin="round"></path>
<path d="M311.124 248.862C309.757 240.847 308.449 239.415 307.188 229.8C245.988 229.8 114.321 229.642 48.104 232.656C48.727 239.481 51.462 244.893 51.422 252.747C164.655 252.747 220.859 248.861 311.124 248.861V248.862Z" fill="#010101" stroke="#010101" stroke-width="1.5" stroke-linecap="round" stroke-linejoin="round"></path>
<path d="M361.177 207.444C355.827 214.687 350.262 221.771 344.493 228.685C343.161 230.281 341.8 231.885 340.12 233.109C337.894 234.731 308.609 250.997 284.895 259.99C281.252 257.81 276.956 255.553 272.968 257.009C271.014 257.722 269.475 259.239 268.047 260.751C264.897 264.086 257.632 268.525 259.24 271.315C260.893 272.583 264.497 269.694 266.683 267.99C268.869 266.286 271.084 264.404 273.799 263.844C276.514 263.284 279.864 264.652 280.368 267.378C280.859 270.035 278.419 272.452 275.82 273.193C273.222 273.933 270.453 273.544 267.756 273.695C266.322 273.775 264.604 274.26 264.253 275.652C263.67 277.96 267.144 278.87 269.51 278.606C302.095 274.979 314.384 271.694 345.949 262.832C347.389 262.428 348.838 262.014 350.162 261.319C352.148 260.277 353.758 258.654 355.333 257.058C362.027 250.275 368.721 243.491 375.415 236.708C376.615 235.491 377.873 234.169 378.184 232.489C378.423 231.197 378.062 229.873 377.645 228.627C374.646 219.675 368.453 211.83 361.177 207.445V207.444Z" fill="white" stroke="#010101" stroke-width="1.5" stroke-linecap="round" stroke-linejoin="round"></path>
<path d="M545.038 435.564C548.165 437.132 551.212 438.857 554.166 440.732C554.898 446.547 555.632 452.388 555.493 458.247C555.47 459.206 555.438 460.225 555.918 461.056C556.398 461.887 557.608 462.371 558.346 461.757C558.565 461.575 558.714 461.323 558.857 461.076C566.258 448.337 571.444 434.315 574.115 419.826C567.813 415.722 561.356 411.855 554.763 408.236C551.719 417.082 548.433 425.845 545.038 435.563V435.564Z" fill="#010101" stroke="#010101" stroke-width="1.5" stroke-linecap="round" stroke-linejoin="round"></path>
<path d="M408.905 444.693C409.508 446.7 410.112 448.706 410.715 450.713C410.875 451.246 411.037 451.812 410.896 452.351C410.719 453.03 410.112 453.495 409.537 453.898C405.388 456.811 400.953 459.315 396.316 461.362C395.119 461.891 393.674 462.797 393.933 464.08C394.192 465.363 395.878 465.639 397.187 465.629C405.337 465.566 406.539 465.793 414.689 465.73C416.06 465.719 417.464 465.703 418.75 465.227C419.826 464.828 437.907 457.461 442.584 453.071C439.865 447.32 434.86 440.631 432.016 434.616C425.16 438.295 417.899 441.217 408.903 444.693H408.905Z" fill="#010101" stroke="#010101" stroke-width="1.5" stroke-linecap="round" stroke-linejoin="round"></path>
<path d="M491.163 101.49C496.103 92.784 501.455 84.312 507.388 76.324C495.654 60.94 483.538 45.847 471.876 30.581C463.044 30.581 460.875 29.647 453.324 27.408C451.822 26.963 450.059 25.885 450.349 24.345C450.661 22.689 452.877 22.46 454.552 22.282C458.105 21.906 459.153 21.643 460.587 20.808C463.927 16.017 466.641 12.095 471.399 8.70699C472.828 7.68899 471.732 0.973988 473.483 0.867988C475.038 0.774988 480.106 6.65799 481.207 7.75899C492.295 18.847 501.913 29.251 512.019 38.985C516.193 43.005 525.532 51.792 528.594 56.712C534.727 66.567 541.104 68.187 535.062 82.216C525.53 104.346 515.906 119.886 512.873 121.188C509.129 122.796 507.226 119.448 503.749 117.323C498.928 114.377 493.873 110.916 491.162 101.488L491.163 101.49Z" fill="white" stroke="#010101" stroke-width="1.5" stroke-linecap="round" stroke-linejoin="round"></path>
<path d="M449.198 18.95C449.198 18.95 467.833 8.83199 480.874 3.04099C481.583 2.72599 482.48 2.59799 483.115 3.04499C483.737 3.48299 483.846 4.40799 483.551 5.10899C483.256 5.80999 482.655 6.32999 482.049 6.78899C477.584 10.173 450.751 22.267 450.751 22.267L449.198 18.95Z" fill="white" stroke="#010101" stroke-width="1.5" stroke-linecap="round" stroke-linejoin="round"></path>
<path d="M450.25 24.993C449.36 26.183 448.35 26.933 447.3 27.373C443.84 28.803 439.9 26.913 438.35 26.083C439.61 25.493 441.71 23.283 442.47 22.103C442.49 22.073 442.51 22.033 442.53 22.003C444.72 18.653 447.1 15.843 450.25 19.543C452.06 21.683 451.34 23.523 450.25 24.993Z" fill="white" stroke="#010101" stroke-width="1.5" stroke-linecap="round" stroke-linejoin="round"></path>
<path d="M447.3 27.373C443.84 28.803 439.9 26.913 438.35 26.083C439.61 25.493 441.71 23.283 442.47 22.103C442.49 22.073 442.51 22.033 442.53 22.003C442.54 22.003 442.54 22.013 442.55 22.013C442.82 21.683 443.11 21.343 443.49 21.163C443.88 20.993 444.4 21.033 444.65 21.373C444.92 21.733 444.78 22.263 444.98 22.673C445.19 23.103 445.69 23.273 446.12 23.493C446.55 23.713 446.98 24.133 446.85 24.593C446.79 24.793 446.64 24.953 446.6 25.153C446.52 25.553 446.88 25.873 447.1 26.213C447.32 26.563 447.37 26.973 447.3 27.373Z" fill="#42d242" stroke="#010101" stroke-width="1.5" stroke-linecap="round" stroke-linejoin="round"></path>
<path d="M82.387 313.639C82.387 313.639 88.054 306.39 94.878 300.521C95.249 300.202 95.768 299.962 96.232 300.116C96.687 300.267 96.921 300.806 96.871 301.283C96.821 301.76 96.551 302.183 96.269 302.571C94.187 305.427 83.928 315.36 83.928 315.36L82.387 313.639Z" fill="white" stroke="#010101" stroke-width="1.5" stroke-linecap="round" stroke-linejoin="round"></path>
<path d="M84.121 317.098C83.8 317.979 83.326 318.615 82.772 319.072C80.942 320.565 78.219 320.139 77.131 319.92C77.785 319.335 78.652 317.618 78.896 316.767C78.903 316.745 78.907 316.717 78.914 316.696C79.628 314.274 80.555 312.144 83.13 313.807C84.612 314.771 84.512 316.013 84.121 317.099V317.098Z" fill="white" stroke="#010101" stroke-width="1.5" stroke-linecap="round" stroke-linejoin="round"></path>
<path d="M82.772 319.072C80.942 320.565 78.219 320.139 77.131 319.92C77.785 319.335 78.652 317.618 78.896 316.767C78.903 316.745 78.907 316.717 78.914 316.696C78.92 316.694 78.922 316.7 78.928 316.698C79.031 316.45 79.144 316.192 79.341 316.014C79.546 315.84 79.867 315.77 80.08 315.93C80.309 316.098 80.32 316.444 80.516 316.655C80.721 316.877 81.054 316.888 81.354 316.943C81.654 316.998 81.99 317.173 81.995 317.475C81.995 317.607 81.934 317.731 81.946 317.859C81.97 318.115 82.246 318.243 82.441 318.408C82.637 318.579 82.741 318.818 82.772 319.072Z" fill="#42d242" stroke="#010101" stroke-width="1.5" stroke-linecap="round" stroke-linejoin="round"></path>
<path d="M468.512 1.44599C464.854 2.58299 459.468 5.77099 457.271 7.81599C456.435 8.59499 455.314 9.27299 454.722 10.278C454.128 11.286 454.138 12.493 454.254 13.631C454.594 16.965 454.222 18.493 456.047 21.4C458.523 25.344 462.851 23.75 461.896 20.647C460.697 16.75 460.913 15.091 459.641 11.983C460.497 14.255 460.165 14.531 460.624 16.432C461.083 18.333 462.64 22.501 464.401 22.909C469.238 24.032 466.792 18.642 466.623 15.734C466.454 12.832 465.823 11.118 465.278 8.25499C465.741 10.66 466.194 11.834 466.656 14.239C466.862 15.31 467.493 16.483 468.111 17.413C469.625 19.691 472.356 19.973 472.356 14.993C472.356 11.557 471.969 9.88499 470.538 6.28299C470.888 8.38299 472.049 9.30099 472.743 11.328C473.149 12.516 477.018 17.321 478.031 12.656C478.624 9.92499 477.737 6.55099 476.457 3.45499C475.131 0.248994 472.073 0.338994 468.512 1.44599Z" fill="white" stroke="#010101" stroke-width="1.5" stroke-linecap="round" stroke-linejoin="round"></path>
<path d="M419.521 155.826C411.3 157.708 403.475 161.3 396.688 166.307C389.489 171.618 383.546 178.418 377.666 185.159C371.275 192.486 364.883 199.812 358.492 207.139C363.643 217.256 370.556 226.472 378.826 234.249C388.164 224.698 397.502 215.146 407.556 205.942C414.254 227.228 422.69 247.966 433.252 268.651C463.083 258 492.914 247.349 522.628 236.995C510.74 213.647 501.137 189.136 494 163.927C493.624 162.6 493.252 161.231 493.409 159.861C493.602 158.184 494.561 156.708 495.494 155.302C502.919 144.108 508.028 132.387 515.453 121.193C506.977 113.055 500.643 107.034 490.538 100.376C483.002 109.473 475.136 124.052 472.056 127.696C468.754 131.603 464.521 134.12 459.969 136.452C447.178 143.004 434.233 152.461 419.521 155.828V155.826Z" fill="#010101" stroke="#010101" stroke-width="1.5" stroke-linecap="round" stroke-linejoin="round"></path>
<path d="M449.568 175.696C460.355 202.442 467.09 226.001 477.877 252.747" stroke="white" stroke-width="1.5" stroke-linecap="round" stroke-linejoin="round"></path>
<path d="M397.076 140.075C400.664 130.719 399.042 120.297 397.882 110.344C397.507 107.124 397.188 103.835 397.869 100.665C398.874 95.989 402.015 91.968 405.86 89.124C411.173 85.193 423.858 83.298 429.725 84.483C433.376 85.22 438.265 88.943 440.811 91.661C445.415 96.576 449.122 99.958 453.736 104.863C458.35 109.768 462.941 112.852 467.719 113.22C458.3 121.829 448.112 129.786 436.559 135.204C425.005 140.622 411.946 143.391 399.353 141.342C398.653 141.016 397.954 140.692 397.076 140.075Z" fill="#010101" stroke="#010101" stroke-width="1.5" stroke-linecap="round" stroke-linejoin="round"></path>
<path d="M422.841 136.519C424.434 141.536 426.028 146.553 427.621 151.57C424.869 153.242 421.914 154.581 418.843 155.55C426.881 158.684 440.124 169.907 448.453 172.277C451.389 160.734 455.813 147.613 459.969 136.451C456.723 138.358 453.333 139.89 449.805 140.966C446.188 133.757 442.571 126.547 438.953 119.338C441.184 119.684 443.396 117.974 444.088 115.825C444.779 113.676 444.179 111.275 442.987 109.358C442.098 107.928 440.764 106.635 439.098 106.391C437.432 106.147 435.523 107.367 435.533 109.051C429.726 108.07 424.829 106.782 420.1 105.041C415.558 103.369 410.909 101.051 408.434 96.892C408 101.722 405.615 106.349 401.932 109.43C402.453 114.668 403.698 119.834 405.621 124.735C407.072 128.433 408.985 132.08 412.022 134.641C415.059 137.203 419.418 138.488 422.844 136.52L422.841 136.519Z" fill="white" stroke="#010101" stroke-width="1.5" stroke-linecap="round" stroke-linejoin="round"></path>
<path d="M423.577 136.004C425.625 135.181 427.674 134.361 429.724 133.545C429.555 133.509 429.4 133.545 423.577 136.004Z" stroke="#010101" stroke-width="1.5" stroke-linecap="round" stroke-linejoin="round"></path>
<path d="M410.322 112.46C410.579 115.341 410.604 118.242 410.398 121.127C411.804 121.341 413.286 121.005 414.462 120.207" stroke="#010101" stroke-width="1.5" stroke-linecap="round" stroke-linejoin="round"></path>
<path d="M417.079 159.487C416.817 163.178 416.555 166.869 416.294 170.56C421.474 170.826 426.661 170.95 431.847 170.932C430.493 172.871 429.139 174.809 427.785 176.748C432.235 177.61 436.807 177.841 441.321 177.433" stroke="white" stroke-width="1.5" stroke-linecap="round" stroke-linejoin="round"></path>
<path d="M461.629 138.877C464.389 140.872 467.149 142.866 469.909 144.861C466.51 150.498 461.996 155.46 456.705 159.375C459.501 159.988 462.256 160.788 464.946 161.768C461.904 165.617 458.862 169.465 455.82 173.314" stroke="white" stroke-width="1.5" stroke-linecap="round" stroke-linejoin="round"></path>
<path d="M460.401 186.435C459.223 186.753 458.723 188.465 459.545 189.367C460.367 190.269 462.118 189.929 462.543 188.785C462.968 187.641 461.826 186.051 460.401 186.435Z" stroke="white" stroke-width="1.5" stroke-linecap="round" stroke-linejoin="round"></path>
<path d="M470.148 208.649C469.007 208.507 467.944 209.781 468.287 210.878C468.63 211.975 470.229 212.416 471.086 211.65C471.943 210.884 471.782 208.852 470.148 208.649Z" stroke="white" stroke-width="1.5" stroke-linecap="round" stroke-linejoin="round"></path>
<path d="M480.022 232.649C479.328 232.479 478.543 232.801 478.168 233.408C477.793 234.015 477.856 234.862 478.318 235.406C479.026 236.24 480.561 236.096 481.109 235.15C481.657 234.204 481.012 232.891 480.022 232.649Z" stroke="white" stroke-width="1.5" stroke-linecap="round" stroke-linejoin="round"></path>
<path d="M433.252 268.649C428.966 270.251 401.719 288.876 385.339 299.343C376.657 304.891 367.66 310.757 362.41 319.623C358.282 326.593 356.849 334.874 356.787 342.975C356.638 362.429 363.907 381.174 372.562 398.597C381.24 416.067 391.404 432.75 401.324 449.577C414.966 444.899 428.272 439.244 441.108 432.67C423.777 404.958 409.273 375.479 397.894 344.838C418.243 334.313 437.982 322.609 456.98 309.807C447.656 333.2 445.298 334.39 442.466 350.184C441.143 357.564 439.82 365.16 441.328 372.504C442.965 380.478 446.128 384.604 452.15 390.082C458.172 395.56 465.302 399.655 472.456 403.54C494.772 415.656 518.539 433.695 542.359 442.496C547.917 429.664 553.01 416.631 557.624 403.43C534.254 389.424 512.619 369.629 489.331 355.017C501.175 328.155 510.455 313.086 520.619 285.544C523.053 278.949 525.457 272.258 526.217 265.269C526.977 258.28 526.427 243.25 522.627 236.993C492.926 248.094 446.875 263.557 433.251 268.649H433.252Z" fill="#0066f9" stroke="#010101" stroke-width="1.5" stroke-linecap="round" stroke-linejoin="round"></path>
<path d="M456.638 310.743C458.218 306.374 459.799 302.006 461.379 297.637C461.269 298.106 461.159 298.575 456.638 310.743Z" stroke="#010101" stroke-width="1.5" stroke-linecap="round" stroke-linejoin="round"></path>
<path d="M508.341 242.515C511.943 250.303 512.675 259.181 511.757 267.713C510.84 276.245 508.35 284.521 505.736 292.694C498.566 315.11 489.882 330.943 480.597 351.498C478.933 355.182 479.725 359.521 482.613 362.35C486.962 366.61 491.455 370.718 496.429 374.213C502.909 378.766 540.09 404.836 553.078 411.489" stroke="#010101" stroke-width="1.5" stroke-linecap="round" stroke-linejoin="round"></path>
<path d="M428.986 438.538C416.185 412.823 404.895 382.743 389.982 347.479C388.614 344.244 389.928 340.503 393.006 338.811C415.205 326.602 436.143 313.973 458.566 301.838" stroke="#010101" stroke-width="1.5" stroke-linecap="round" stroke-linejoin="round"></path>
<path d="M11.329 309.856C10.706 309.598 9.96702 309.749 9.45902 310.239C8.95102 310.729 8.69202 311.539 8.80302 312.292C8.91402 313.045 9.39002 313.711 10.01 313.981C10.529 314.206 11.113 314.16 11.642 313.97C12.077 313.813 12.5 313.548 12.765 313.122C13.097 312.589 13.136 311.861 12.953 311.24C12.77 310.619 12.346 310.279 11.328 309.857L11.329 309.856Z" fill="#010101" stroke="#010101" stroke-width="1.5" stroke-linecap="round" stroke-linejoin="round"></path>
<path d="M569.213 170.557C568.901 170.428 568.532 170.504 568.278 170.749C568.024 170.994 567.894 171.399 567.95 171.776C568.006 172.153 568.244 172.486 568.554 172.62C568.813 172.733 569.106 172.71 569.37 172.614C569.587 172.536 569.799 172.403 569.932 172.19C570.098 171.924 570.117 171.56 570.026 171.249C569.935 170.938 569.723 170.767 569.213 170.557Z" fill="#010101" stroke="#010101" stroke-width="1.5" stroke-linecap="round" stroke-linejoin="round"></path>
<path d="M105.91 126.412L111.322 131.051Z" fill="#010101"></path>
<path d="M105.91 126.412L111.322 131.051" stroke="#010101" stroke-width="1.5" stroke-linecap="round" stroke-linejoin="round"></path>
<path d="M561.317 282.006L567.291 284.135" stroke="#010101" stroke-width="1.5" stroke-linecap="round" stroke-linejoin="round"></path>
<path d="M250.671 278.402C245.472 274.367 237.775 274.408 232.077 277.701C226.379 280.994 222.631 287.079 221.207 293.504C220.375 297.255 220.275 301.233 221.432 304.897C223.104 310.188 227.356 314.466 232.407 316.763C237.458 319.06 243.231 319.49 248.712 318.622C251.268 318.217 253.824 317.52 256.006 316.128C259.594 313.839 261.843 309.839 262.773 305.685C263.703 301.532 263.443 297.205 262.904 292.983" stroke="#010101" stroke-width="1.5" stroke-linecap="round" stroke-linejoin="round"></path>
<path d="M222.919 265.037C223.511 266.419 224.103 267.8 224.696 269.182" stroke="#010101" stroke-width="1.5" stroke-linecap="round" stroke-linejoin="round"></path>
<path d="M202.983 284.973C205.154 285.96 207.326 286.947 209.497 287.934" stroke="#010101" stroke-width="1.5" stroke-linecap="round" stroke-linejoin="round"></path>
<path d="M207.325 318.529C209.759 317.279 212.194 316.029 214.628 314.779" stroke="#010101" stroke-width="1.5" stroke-linecap="round" stroke-linejoin="round"></path>
<path d="M236.539 326.82L235.355 333.729" stroke="#010101" stroke-width="1.5" stroke-linecap="round" stroke-linejoin="round"></path>
<path d="M265.358 315.766C266.806 316.687 268.253 317.608 269.701 318.529" stroke="#010101" stroke-width="1.5" stroke-linecap="round" stroke-linejoin="round"></path>
<path d="M118.567 396.041C123.204 374.725 131.366 348.823 138.994 328.385C141.476 321.735 144.383 315.025 149.378 309.982C154.373 304.939 161.914 301.854 168.709 303.909C174.373 305.622 178.47 310.43 182.145 315.067C199.846 337.4 203.784 351.231 217.481 376.221" stroke="#010101" stroke-width="1.5" stroke-linecap="round" stroke-linejoin="round"></path>
<path d="M210.977 398.386C214.353 385.366 217.333 373.508 225.22 362.612C229.276 357.009 234.868 351.969 241.708 350.943C251.992 349.402 261.218 357.168 268.002 365.05C276.124 374.487 283.096 384.913 288.715 396.023" stroke="#010101" stroke-width="1.5" stroke-linecap="round" stroke-linejoin="round"></path>
<path d="M84.189 401.926C78.642 365.79 71.411 317.084 66.288 272.003C77.568 270.525 87.567 271.399 98.576 271.179C102.824 308.567 110.073 364.956 114.321 402.344C103.482 403.469 97.276 403.331 84.189 401.927V401.926Z" stroke="#010101" stroke-width="1.5" stroke-linecap="round" stroke-linejoin="round"></path>
<path d="M92.689 354.864C94.914 356.634 97.139 358.404 99.363 360.174" stroke="#010101" stroke-width="1.5" stroke-linecap="round" stroke-linejoin="round"></path>
<path d="M94.05 355.829C94.968 354.667 96.075 353.327 97.833 351.799C98.327 351.37 98.858 350.945 99.495 350.795C100.132 350.645 100.898 350.85 101.203 351.428C101.442 351.882 101.348 352.435 101.205 352.928C100.385 355.755 98.845 357.365 97.684 358.838" stroke="#010101" stroke-width="1.5" stroke-linecap="round" stroke-linejoin="round"></path>
<path d="M94.05 355.829C92.52 357.634 89.739 360.689 88.209 362.494C87.785 362.994 87.348 363.52 87.195 364.157C87.046 364.777 87.18 365.456 86.934 366.045C86.622 366.793 85.727 367.347 85.837 368.15C85.849 368.235 85.873 368.32 85.927 368.387C86.02 368.502 86.181 368.539 86.329 368.537C87.284 368.527 87.791 367.367 88.663 366.976C89.007 366.822 89.393 366.796 89.76 366.708C90.98 366.415 91.912 365.456 92.752 364.525C94.13 362.999 96.711 360.175 97.926 358.514" stroke="#010101" stroke-width="1.5" stroke-linecap="round" stroke-linejoin="round"></path>
<path d="M84.789 331.534C89.558 329.284 97.662 324.295 97.662 324.295C97.662 324.295 97.313 333.545 97.441 337.876C95.73 339.004 91.826 341.19 91.826 341.19L85.639 337.1C85.639 337.1 85.03 333.315 84.789 331.534Z" stroke="#010101" stroke-width="1.5" stroke-linecap="round" stroke-linejoin="round"></path>
<path d="M97.73 324.362C96.246 327.444 94.517 330.41 92.564 333.225" stroke="#010101" stroke-width="1.5" stroke-linecap="round" stroke-linejoin="round"></path>
<path d="M92.716 333.272C92.302 333.114 91.87 332.984 91.427 332.979C90.984 332.974 90.525 333.107 90.212 333.415C89.993 333.63 89.859 333.914 89.758 334.202C89.467 335.029 89.462 336.051 90.089 336.674C90.518 337.1 91.159 337.252 91.766 337.257C92.209 337.26 92.66 337.192 93.056 336.996C93.452 336.8 93.788 336.467 93.926 336.052C94.087 335.567 93.963 335.029 93.741 334.567C93.462 333.985 93.014 333.386 92.717 333.273L92.716 333.272Z" stroke="#010101" stroke-width="1.5" stroke-linecap="round" stroke-linejoin="round"></path>
<path d="M83.317 335.942C82.69 337.036 81.434 337.691 80.94 338.964C83.856 341.92 87.369 344.301 91.211 345.927C91.836 344.613 92.657 343.391 93.639 342.311C92.07 341.399 84.268 336.317 83.317 335.942Z" stroke="#010101" stroke-width="1.5" stroke-linecap="round" stroke-linejoin="round"></path>
<path d="M105.185 376.924C101.284 377.173 97.831 376.849 92.931 377.449C93.601 380.824 95.013 388.165 95.013 388.165C95.013 388.165 103.117 388.21 107.211 387.709C106.69 384.148 105.764 380.878 105.186 376.925L105.185 376.924Z" stroke="#010101" stroke-width="1.5" stroke-linecap="round" stroke-linejoin="round"></path>
<path d="M93.941 383.672C91.643 383.963 88.354 383.349 85.718 383.682C85.953 387.411 86.464 390.668 87.478 394.908C91.244 394.701 96.108 395.009 99.914 394.8C99.781 392.662 99.397 390.275 99.264 388.137C97.753 388.226 94.755 388.164 94.755 388.164C94.755 388.164 93.852 384.914 93.941 383.671V383.672Z" fill="#010101" stroke="#010101" stroke-width="1.5" stroke-linecap="round" stroke-linejoin="round"></path>
<path d="M183.542 128.055C174.253 124.521 163.356 125.774 154.927 131.039C146.498 136.304 140.641 145.386 138.98 155.185C137.284 165.192 140.134 176.18 147.508 183.153C150.789 186.255 154.809 188.481 158.973 190.227C168.515 194.229 179.296 195.83 189.321 193.27C194.103 192.049 198.74 189.831 202.131 186.245C206.636 181.481 208.523 174.791 209.199 168.269C210.011 160.439 209.249 152.301 205.89 145.181C202.531 138.062 196.104 132.833 183.543 128.054L183.542 128.055Z" fill="#0066f9" stroke="#010101" stroke-width="1.5" stroke-miterlimit="10"></path>
<path d="M252.476 276.834C252.771 277.509 253.044 278.192 253.295 278.885L257.394 279.072C256.317 277.023 256.016 275.543 255.187 273.341C254.513 274.279 253.399 275.686 252.476 276.834Z" fill="white" stroke="#010101" stroke-width="1.5" stroke-linecap="round" stroke-linejoin="round"></path>
<path d="M287.315 266.809C288.488 266.281 289.647 265.747 290.766 265.2C290.491 264.109 289.479 260.944 288.864 259.909C287.628 260.311 286.385 260.741 285.142 261.182C285.48 262.055 285.907 263.165 286.334 264.275L287.314 266.808L287.315 266.809Z" fill="#010101" stroke="#010101" stroke-width="1.5" stroke-linecap="round" stroke-linejoin="round"></path>
<path d="M285.138 261.184C279.297 263.257 260.688 270.762 255.187 273.34C255.87 274.957 257.394 279.071 257.394 279.071C262.85 276.722 281.692 269.341 287.311 266.811C287.016 266.047 286.676 265.163 286.334 264.276L285.137 261.184H285.138Z" fill="#42d242" stroke="#010101" stroke-width="1.5" stroke-linecap="round" stroke-linejoin="round"></path>
<path d="M257.394 279.071C257.394 279.071 255.87 274.957 255.187 273.34C256.016 275.542 256.317 277.022 257.394 279.071Z" fill="#42d242" stroke="#010101" stroke-width="1.5" stroke-linecap="round" stroke-linejoin="round"></path>
<path d="M286.335 264.276C286.676 265.162 287.017 266.047 287.312 266.811L287.316 266.809L286.336 264.276H286.335Z" fill="#42d242" stroke="#010101" stroke-width="1.5" stroke-linecap="round" stroke-linejoin="round"></path>
<path d="M285.142 261.182L285.138 261.183L286.335 264.275C285.907 263.164 285.48 262.055 285.143 261.182H285.142Z" fill="#42d242" stroke="#010101" stroke-width="1.5" stroke-linecap="round" stroke-linejoin="round"></path>
<path d="M250.896 278.775L253.294 278.884C253.043 278.192 252.769 277.508 252.475 276.833C251.6 277.92 250.896 278.774 250.896 278.774V278.775Z" fill="#010101" stroke="#010101" stroke-width="1.5" stroke-linecap="round" stroke-linejoin="round"></path>
<path d="M76.123 296.51C76.652 296.975 77.167 297.455 77.666 297.953L81.292 296.448C79.526 295.112 78.664 293.952 77.05 292.383C76.847 293.469 76.455 295.141 76.122 296.511L76.123 296.51Z" fill="white" stroke="#010101" stroke-width="1.5" stroke-linecap="round" stroke-linejoin="round"></path>
<path d="M91.941 284.426C92.742 283.491 93.529 282.558 94.276 281.629C93.594 280.796 91.431 278.467 90.478 277.821C89.571 278.672 88.67 279.549 87.772 280.437C88.419 281.055 89.241 281.843 90.062 282.631L91.941 284.426Z" fill="#010101" stroke="#010101" stroke-width="1.5" stroke-linecap="round" stroke-linejoin="round"></path>
<path d="M87.769 280.44C83.554 284.61 80.766 287.914 77.05 292.383C78.299 293.505 81.292 296.448 81.292 296.448C85.062 292.196 88.102 288.905 91.939 284.429C91.373 283.887 90.718 283.26 90.063 282.631L87.769 280.44Z" fill="#42d242" stroke="#010101" stroke-width="1.5" stroke-linecap="round" stroke-linejoin="round"></path>
<path d="M81.292 296.448C81.292 296.448 78.3 293.505 77.05 292.383C78.664 293.953 79.526 295.112 81.292 296.448Z" fill="#42d242" stroke="#010101" stroke-width="1.5" stroke-linecap="round" stroke-linejoin="round"></path>
<path d="M90.062 282.631C90.718 283.26 91.372 283.887 91.938 284.429L91.941 284.426L90.062 282.631Z" fill="#42d242" stroke="#010101" stroke-width="1.5" stroke-linecap="round" stroke-linejoin="round"></path>
<path d="M87.772 280.437C87.772 280.437 87.77 280.439 87.769 280.44L90.062 282.631C89.24 281.843 88.419 281.056 87.772 280.437Z" fill="#42d242" stroke="#010101" stroke-width="1.5" stroke-linecap="round" stroke-linejoin="round"></path>
<path d="M75.544 298.834L77.665 297.953C77.166 297.456 76.651 296.975 76.122 296.51C75.807 297.807 75.544 298.833 75.544 298.833V298.834Z" fill="#010101" stroke="#010101" stroke-width="1.5" stroke-linecap="round" stroke-linejoin="round"></path>
<path d="M281.002 93.279L160.831 93.234L177.306 168.867L300.981 167.778L281.002 93.279Z" stroke="#010101" stroke-width="1.5" stroke-linecap="round" stroke-linejoin="round"></path>
<path d="M304.558 163.087C301.144 163.339 297.721 163.464 294.298 163.463C294.46 166.319 294.621 169.175 294.783 172.031C294.8 172.331 294.849 172.684 295.115 172.823C295.244 172.89 295.396 172.89 295.541 172.887C298.597 172.836 301.653 172.786 304.709 172.735C304.797 169.296 304.745 165.854 304.558 163.087Z" fill="#E3E3FF" stroke="#010101" stroke-width="1.5" stroke-linecap="round" stroke-linejoin="round"></path>
<path d="M266.09 82.458C275.466 89.734 284.956 96.864 294.555 103.843" stroke="#010101" stroke-width="1.5" stroke-linecap="round" stroke-linejoin="round"></path>
<path d="M295.819 103.333C295.142 103.751 294.413 104.241 294.204 105.008C294 105.757 294.412 106.604 295.094 106.976C295.776 107.348 296.66 107.26 297.305 106.828C297.858 106.458 298.257 105.796 298.152 105.139C298.007 104.231 297.43 103.176 295.819 103.333Z" stroke="#010101" stroke-width="1.5" stroke-linecap="round" stroke-linejoin="round"></path>
<path d="M263.33 79.442C262.823 79.859 262.283 80.33 262.16 80.975C262.032 81.647 262.442 82.362 263.057 82.663C263.672 82.964 264.437 82.877 265.018 82.514C265.536 82.19 265.928 81.634 265.958 81.024C265.971 80.755 265.915 80.484 265.814 80.234C265.706 79.966 265.541 79.715 265.311 79.54C264.992 79.298 264.573 79.221 264.174 79.248C263.775 79.275 263.388 79.395 263.331 79.442H263.33Z" stroke="#010101" stroke-width="1.5" stroke-linecap="round" stroke-linejoin="round"></path>
<path d="M286.036 88.378C282.622 88.63 279.199 88.755 275.776 88.754C275.938 91.61 276.099 94.466 276.261 97.322C276.278 97.622 276.327 97.975 276.593 98.114C276.722 98.181 276.874 98.181 277.019 98.178C280.075 98.127 283.131 98.077 286.187 98.026C286.275 94.587 286.223 91.145 286.036 88.378Z" fill="#E3E3FF" stroke="#010101" stroke-width="1.5" stroke-linecap="round" stroke-linejoin="round"></path>
<path d="M166.942 88.378C163.528 88.63 160.105 88.755 156.682 88.754C156.844 91.61 157.005 94.466 157.167 97.322C157.184 97.622 157.233 97.975 157.499 98.114C157.628 98.181 157.78 98.181 157.925 98.178C160.981 98.127 164.037 98.077 167.093 98.026C167.181 94.587 167.129 91.145 166.942 88.378Z" fill="#E3E3FF" stroke="#010101" stroke-width="1.5" stroke-linecap="round" stroke-linejoin="round"></path>
<path d="M181.081 163.087C177.667 163.339 174.244 163.464 170.821 163.463C170.983 166.319 171.144 169.175 171.306 172.031C171.323 172.331 171.372 172.684 171.638 172.823C171.767 172.89 171.919 172.89 172.064 172.887C175.12 172.836 178.176 172.786 181.232 172.735C181.32 169.296 181.268 165.854 181.081 163.087Z" fill="#E3E3FF" stroke="#010101" stroke-width="1.5" stroke-linecap="round" stroke-linejoin="round"></path>
<path d="M247.666 110.664C259.225 105.212 278.866 93.118 278.866 93.118C278.866 93.118 278.021 115.539 278.331 126.035C274.184 128.769 264.721 134.067 264.721 134.067L249.725 124.532C249.725 124.532 248.249 114.98 247.666 110.664Z" fill="white" stroke="#010101" stroke-width="1.5" stroke-linecap="round" stroke-linejoin="round"></path>
<path d="M279.034 93.281C275.438 100.751 271.247 107.941 266.513 114.763" stroke="#010101" stroke-width="1.5" stroke-linecap="round" stroke-linejoin="round"></path>
<path d="M266.882 114.875C265.879 114.493 264.832 114.177 263.759 114.164C262.686 114.151 261.574 114.474 260.815 115.22C260.285 115.741 259.959 116.43 259.714 117.128C259.009 119.133 258.996 121.61 260.515 123.121C261.554 124.154 263.107 124.523 264.581 124.533C265.655 124.54 266.748 124.375 267.707 123.901C268.666 123.427 269.482 122.619 269.815 121.613C270.205 120.437 269.904 119.133 269.366 118.013C268.689 116.602 267.603 115.151 266.883 114.876L266.882 114.875Z" stroke="#010101" stroke-width="1.5" stroke-linecap="round" stroke-linejoin="round"></path>
<path d="M244.099 121.347C244.099 121.347 239.534 125.586 238.338 128.672C245.407 135.836 263.232 145.548 263.232 145.548C263.232 145.548 266.737 139.402 269.116 136.783C265.313 134.572 244.099 121.347 244.099 121.347Z" fill="#42d242" stroke="#010101" stroke-width="1.5" stroke-linecap="round" stroke-linejoin="round"></path>
<path d="M281.002 56.579C285.947 44.704 293.012 33.304 303.483 25.832C313.954 18.36 328.292 15.454 339.975 20.838C349.816 25.373 356.887 37.333 352.707 47.33C351.124 51.116 347.664 54.443 343.561 54.514C339.1 54.591 335.364 50.825 333.745 46.667C330.869 39.277 333.185 30.567 338.156 24.389C343.127 18.211 350.382 14.257 357.852 11.596C370.415 7.11999 384.857 6.04299 396.768 12.042" stroke="#010101" stroke-width="1.5" stroke-linecap="round" stroke-linejoin="round"></path>
</g>
<defs>
<clipPath id="clip0_35_1078">
<rect width="574.865" height="466.491" fill="white"></rect>
</clipPath>
</defs>
</svg>