<svg width="248" height="187" viewBox="0 0 248 187" fill="none" xmlns="http://www.w3.org/2000/svg" style="width: 100%; height: 100%;">
<g clip-path="url(#clip0_35_2778)">
<path d="M56.056 65.966C45.046 76.976 37.17 91.007 33.742 106.195C31.675 115.355 31.011 124.965 33.061 134.129C36.042 147.458 44.613 159.033 55.04 167.854C72.526 182.646 97.406 190.428 118.937 182.618C124.278 180.681 129.256 177.868 134.099 174.897C139 171.891 143.853 168.658 147.679 164.367C151.983 159.541 154.812 153.558 156.794 147.403C163.316 127.153 160.942 104.661 152.702 85.047C148.404 74.817 142.381 65.035 133.636 58.205C120.016 47.567 74.13 47.892 56.056 65.966Z" fill="#0066f9" stroke="#010101" stroke-width="1.5" stroke-linecap="round" stroke-linejoin="round"></path>
<path d="M205.049 138.659C209.216 102.67 213.384 65.387 217.551 29.398C172.015 30.785 125.964 29.487 79.914 30.78C76.118 66.87 73.56 103.058 71.932 139.927C116.483 138.279 161.035 140.516 205.049 138.659Z" fill="white" stroke="#010101" stroke-width="1.5" stroke-linecap="round" stroke-linejoin="round"></path>
<path d="M225.067 70.461C231.673 69.529 237.292 63.783 238.077 57.158C237.517 62.863 241.053 68.731 246.359 70.901C243.642 71.055 241.237 72.927 239.845 75.265C238.453 77.603 237.933 80.355 237.678 83.064C237.532 76.349 231.533 70.294 225.067 70.461Z" fill="white" stroke="#010101" stroke-width="1.5" stroke-linecap="round" stroke-linejoin="round"></path>
<path d="M10.455 173.1C17.061 172.168 22.68 166.422 23.465 159.797C22.905 165.502 26.441 171.37 31.747 173.54C29.03 173.694 26.625 175.566 25.233 177.904C23.841 180.242 23.321 182.994 23.066 185.703C22.92 178.988 16.922 172.933 10.456 173.1H10.455Z" fill="white" stroke="#010101" stroke-width="1.5" stroke-linecap="round" stroke-linejoin="round"></path>
<path d="M33.931 36.353C32.136 30.014 30.392 22.979 33.3 17.067C34.702 14.216 37.088 11.932 39.779 10.243C43.801 7.718 48.674 6.429 53.375 7.098C58.076 7.767 62.536 10.507 64.884 14.635C65.169 15.137 65.429 15.677 65.454 16.254C65.518 17.762 63.82 18.916 62.329 18.687C60.837 18.458 59.671 17.221 59.035 15.853C57.604 12.773 58.432 8.954 60.551 6.3C62.67 3.646 65.886 2.049 69.19 1.261C75.439 -0.227999 82.961 1.498 86.236 7.024" stroke="#010101" stroke-width="1.5" stroke-linecap="round" stroke-linejoin="round"></path>
<path d="M68.076 93.243C69.499 88.933 69.987 84.271 75.408 80.646C80.871 76.993 89.254 78.956 92.526 84.655C94.587 88.244 94.663 92.597 94.653 96.735C94.643 100.873 94.645 105.211 96.592 108.864C98.539 112.517 103.136 115.119 106.902 113.402C109.326 112.297 110.777 109.742 111.504 107.179C112.231 104.616 112.394 101.92 113.114 99.356C114.962 92.764 120.725 87.435 127.44 86.105" stroke="#010101" stroke-width="1.5" stroke-linecap="round" stroke-linejoin="round"></path>
<path d="M138.806 148.87C138.899 159.084 138.446 169.303 137.449 179.468C140.483 178.376 143.518 177.285 146.552 176.193C147.825 179.432 149.098 182.672 150.37 185.911C152.652 185.036 154.935 184.162 157.217 183.287C155.968 180.319 154.719 177.351 153.47 174.383C155.905 173.964 158.287 173.24 160.544 172.234C153.669 163.772 146.284 155.726 138.805 148.869L138.806 148.87Z" fill="#010101" stroke="#010101" stroke-width="1.5" stroke-linecap="round" stroke-linejoin="round"></path>
<path d="M33.728 88.441C31.386 86.983 13.571 77.222 4.888 68.873C3.353 67.397 1.85 65.789 1.105 63.794C0.487003 62.139 0.594003 59.96 2.068 58.984C3.169 58.255 4.67 58.346 5.896 58.835C12.402 61.432 28.211 74.17 38.33 81.908C38.733 82.216 34.153 88.705 33.728 88.441Z" fill="white" stroke="#010101" stroke-width="1.5" stroke-linecap="round" stroke-linejoin="round"></path>
<path d="M51.413 92.703C52.688 91.242 54.776 90.541 56.675 90.936C58.656 91.349 60.265 92.812 62.2 93.403C64.857 94.215 65.886 92.656 67.457 90.365C67.572 90.197 67.707 90.006 67.91 89.984C68.256 89.948 68.419 90.402 68.423 90.75C68.431 91.408 68.307 92.059 68.182 92.706C67.795 94.716 67.361 96.827 66.02 98.373C62.381 102.568 56.589 101.471 54.706 100.899C52.823 100.327 51.048 99.276 49.846 97.718C49.658 97.474 49.479 97.207 49.435 96.902C49.393 96.612 49.477 96.319 49.575 96.043C50.032 94.744 50.722 93.496 51.413 92.703Z" fill="white" stroke="#010101" stroke-width="1.5" stroke-linecap="round" stroke-linejoin="round"></path>
<path d="M52.36 92.233L48.7 97.179C45.658 95.497 40.342 92.776 33.729 88.44C35.691 85.756 36.934 84.779 38.331 81.907C45.078 86.779 48.152 89.193 52.361 92.232L52.36 92.233Z" fill="white" stroke="#010101" stroke-width="1.5" stroke-linecap="round" stroke-linejoin="round"></path>
<path d="M218.087 36.099C221.687 36.099 224.606 33.1803 224.606 29.58C224.606 25.9797 221.687 23.061 218.087 23.061C214.487 23.061 211.568 25.9797 211.568 29.58C211.568 33.1803 214.487 36.099 218.087 36.099Z" fill="#010101" stroke="#010101" stroke-width="1.5" stroke-linecap="round" stroke-linejoin="round"></path>
<path d="M205.049 145.178C208.649 145.178 211.568 142.259 211.568 138.659C211.568 135.059 208.649 132.14 205.049 132.14C201.449 132.14 198.53 135.059 198.53 138.659C198.53 142.259 201.449 145.178 205.049 145.178Z" fill="#010101" stroke="#010101" stroke-width="1.5" stroke-linecap="round" stroke-linejoin="round"></path>
<path d="M71.974 145.502C75.5744 145.502 78.493 142.583 78.493 138.983C78.493 135.383 75.5744 132.464 71.974 132.464C68.3737 132.464 65.455 135.383 65.455 138.983C65.455 142.583 68.3737 145.502 71.974 145.502Z" fill="#010101" stroke="#010101" stroke-width="1.5" stroke-linecap="round" stroke-linejoin="round"></path>
<path d="M79.714 37.122C83.3143 37.122 86.233 34.2033 86.233 30.603C86.233 27.0027 83.3143 24.084 79.714 24.084C76.1137 24.084 73.195 27.0027 73.195 30.603C73.195 34.2033 76.1137 37.122 79.714 37.122Z" fill="#010101" stroke="#010101" stroke-width="1.5" stroke-linecap="round" stroke-linejoin="round"></path>
</g>
<defs>
<clipPath id="clip0_35_2778">
<rect width="247.109" height="186.661" fill="white"></rect>
</clipPath>
</defs>
</svg>