<svg id="Layer_2" data-name="Layer 2" xmlns="http://www.w3.org/2000/svg" viewBox="0 0 806.735 549.764" style="width: 100%; height: 100%;">
  <g id="Layer_1-2" data-name="Layer 1">
    <g>
      <g>
        <line x1="441.372" y1="478.919" x2="452.551" y2="548.851" fill="none" stroke="#000" stroke-linecap="round" stroke-linejoin="round" stroke-width="1.5"></line>
        <line x1="554.185" y1="478.919" x2="565.364" y2="548.851" fill="none" stroke="#000" stroke-linecap="round" stroke-linejoin="round" stroke-width="1.5"></line>
      </g>
      <rect x="90.562" y="72.897" width="79.708" height="76.071" fill="#0066f9"></rect>
      <g>
        <rect x="242.662" y="11.75" width="490.427" height="381.749" fill="#0066f9" stroke="#0066f9" stroke-linecap="round" stroke-linejoin="round" stroke-width="1.5"></rect>
        <rect x="242.662" y=".75" width="490.427" height="381.749" fill="#fff" stroke="#0066f9" stroke-linecap="round" stroke-linejoin="round" stroke-width="1.5"></rect>
        <rect x="242.662" y=".75" width="490.427" height="32.887" fill="#fff" stroke="#0066f9" stroke-linecap="round" stroke-linejoin="round" stroke-width="1.5"></rect>
        <circle cx="713.004" cy="17.194" r="8.471" fill="#fff" stroke="#0066f9" stroke-linecap="round" stroke-linejoin="round" stroke-width="1.5"></circle>
      </g>
      <rect x="399.831" y="61.971" width="289.759" height="289.759" fill="#fcfcfc" stroke="#000" stroke-linecap="round" stroke-linejoin="round" stroke-width="1.5"></rect>
      <g>
        <rect x="278.477" y="62.824" width="89.693" height="281.168" fill="#fcfcfc" stroke="#000" stroke-linecap="round" stroke-linejoin="round" stroke-width="1.5"></rect>
        <g>
          <rect x="295.459" y="130.166" width="20.192" height="20.192" rx="3.365" ry="3.365" fill="#fff" stroke="#000" stroke-linecap="round" stroke-linejoin="round" stroke-width="1.5"></rect>
          <rect x="330.955" y="129.799" width="20.192" height="20.192" rx="10.096" ry="10.096" fill="#fff" stroke="#000" stroke-linecap="round" stroke-linejoin="round" stroke-width="1.5"></rect>
          <polygon points="296.391 83.821 296.088 110.933 304.367 103.33 315.021 103.52 296.391 83.821" fill="#fff" stroke="#000" stroke-linecap="round" stroke-linejoin="round" stroke-width="1.5"></polygon>
          <polygon points="331.887 83.821 331.585 110.933 339.864 103.33 350.517 103.52 331.887 83.821" stroke="#000" stroke-linecap="round" stroke-linejoin="round" stroke-width="1.5"></polygon>
          <g>
            <rect x="334.211" y="171.581" width="9.171" height="18.342" rx="2.162" ry="2.162" transform="translate(450.55 548.128) rotate(-135)" fill="#fff" stroke="#000" stroke-linecap="round" stroke-linejoin="round" stroke-width="1.5"></rect>
            <rect x="336.303" y="167.993" width="12.162" height="18.342" rx="2.489" ry="2.489" transform="translate(459.212 544.54) rotate(-135)" fill="#fff" stroke="#000" stroke-linecap="round" stroke-linejoin="round" stroke-width="1.5"></rect>
          </g>
          <g>
            <path d="m295.455,189.982c-.47-.094-.923-.308-1.309-.647h0c-.57-.5-.911-1.191-.961-1.947-.05-.756.198-1.486.697-2.056l10.056-11.476c.137-.156.374-.171.53-.035l3.701,3.243c.075.066.121.159.127.258.006.099-.027.197-.093.272l-10.056,11.476c-.692.791-1.731,1.103-2.694.911Z" fill="#fff" stroke="#000" stroke-linecap="round" stroke-linejoin="round" stroke-width="1.5"></path>
            <path d="m310.444,175.598l-1.062-.931,1.925-2.196c.759-.867.672-2.185-.194-2.944-.866-.759-2.184-.673-2.944.194l-1.925,2.196-1.062-.93c-.786-.69-1.983-.61-2.672.176-.689.787-.61,1.983.176,2.672l5.262,4.611c.787.689,1.983.61,2.672-.176s.61-1.983-.176-2.672Z" fill="#fff" stroke="#000" stroke-linecap="round" stroke-linejoin="round" stroke-width="1.5"></path>
          </g>
          <g>
            <path d="m337.309,226.385h0c4.791,0,8.675-3.884,8.675-8.675h0c0-4.791-3.884-8.675-8.675-8.675h0c-4.791,0-8.675,3.884-8.675,8.675h0c0,4.791,3.884,8.675,8.675,8.675Z" stroke="#000" stroke-linecap="round" stroke-linejoin="round" stroke-width="1.5"></path>
            <rect x="335.494" y="215.171" width="17.973" height="17.973" rx="4.112" ry="4.112" fill="#fff" stroke="#000" stroke-linecap="round" stroke-linejoin="round" stroke-width="1.5"></rect>
          </g>
          <g>
            <rect x="297.423" y="210.823" width="15.442" height="15.442" rx="7.721" ry="7.721" fill="#fff" stroke="#000" stroke-linecap="round" stroke-linejoin="round" stroke-width="1.5"></rect>
            <line x1="313.686" y1="234.294" x2="308.524" y2="225.509" fill="#fff" stroke="#000" stroke-linecap="round" stroke-linejoin="round" stroke-width="1.5"></line>
          </g>
          <g>
            <path d="m318.101,276.448h-14.926v-14.926h14.926v14.926Z" fill="#fff" stroke="#000" stroke-linecap="round" stroke-linejoin="round" stroke-width="1.5"></path>
            <path d="m307.972,267.1h-13.347v-13.347h13.347v13.347Z" stroke="#000" stroke-linecap="round" stroke-linejoin="round" stroke-width="1.5"></path>
          </g>
          <g>
            <path d="m332.08,256.691h17.942" fill="#fff" stroke="#000" stroke-linecap="round" stroke-linejoin="round" stroke-width="1.5"></path>
            <line x1="341.051" y1="256.691" x2="341.051" y2="275.847" fill="#fff" stroke="#000" stroke-linecap="round" stroke-linejoin="round" stroke-width="1.5"></line>
          </g>
        </g>
      </g>
      <g>
        <g>
          <g>
            <line x1="571.223" y1="140.22" x2="484.995" y2="140.22" fill="#fff" stroke="#0066f9" stroke-linecap="round" stroke-linejoin="round" stroke-width="1.5"></line>
            <circle cx="487.39" cy="140.22" r="7.186" fill="#fff" stroke="#0066f9" stroke-linecap="round" stroke-linejoin="round" stroke-width="1.5"></circle>
          </g>
          <g>
            <line x1="512.718" y1="140.22" x2="610.124" y2="140.22" fill="#fff" stroke="#0066f9" stroke-linecap="round" stroke-linejoin="round" stroke-width="1.5"></line>
            <circle cx="605.334" cy="140.22" r="7.186" fill="#fff" stroke="#0066f9" stroke-linecap="round" stroke-linejoin="round" stroke-width="1.5"></circle>
          </g>
        </g>
        <g>
          <path d="m440.563,243.334h0c0-56.948,46.166-103.114,103.114-103.114h0c56.948,0,103.114,46.166,103.114,103.114h0" fill="#fff" stroke="#0066f9" stroke-linecap="round" stroke-linejoin="round" stroke-width="1.5"></path>
          <g>
            <rect x="431.359" y="236.2" width="18.024" height="18.024" rx="9.012" ry="9.012" transform="translate(578.368 729.991) rotate(-135)" fill="#fff" stroke="#0066f9" stroke-linecap="round" stroke-linejoin="round" stroke-width="1.5"></rect>
            <g>
              <rect x="638.494" y="235.571" width="18.024" height="18.024" rx="9.012" ry="9.012" transform="translate(932.415 875.386) rotate(-135)" fill="#fff" stroke="#0066f9" stroke-linecap="round" stroke-linejoin="round" stroke-width="1.5"></rect>
              <rect x="535.24" y="133.318" width="18.024" height="18.024" rx="9.012" ry="9.012" transform="translate(828.454 627.816) rotate(-135)" fill="#fff" stroke="#0066f9" stroke-linecap="round" stroke-linejoin="round" stroke-width="1.5"></rect>
            </g>
          </g>
        </g>
      </g>
      <g>
        <g>
          <g>
            <rect x="605.215" y="282.132" width="200.77" height="160.328" transform="translate(1411.2 724.592) rotate(-180)" fill="#fff"></rect>
            <path d="m806.735,443.21h-202.27v-161.828h202.27v161.828Zm-1.5-160.328h-199.27v158.828h199.27v-158.828Z"></path>
          </g>
          <rect x="605.215" y="282.131" width="200.769" height="20.025"></rect>
        </g>
        <g>
          <rect x="616.489" y="313.109" width="178.222" height="29.626" fill="#0066f9"></rect>
          <path d="m795.211,343.235h-179.222v-30.626h179.222v30.626Zm-178.222-1h177.222v-28.626h-177.222v28.626Z" fill="#fff"></path>
        </g>
        <g>
          <rect x="616.489" y="342.735" width="178.222" height="29.626" fill="#0066f9"></rect>
          <path d="m795.211,372.861h-179.222v-30.626h179.222v30.626Zm-178.222-1h177.222v-28.626h-177.222v28.626Z" fill="#fff"></path>
        </g>
        <g>
          <rect x="616.489" y="372.361" width="178.222" height="29.626" fill="#0066f9"></rect>
          <path d="m795.211,402.487h-179.222v-30.626h179.222v30.626Zm-178.222-1h177.222v-28.626h-177.222v28.626Z" fill="#fff"></path>
        </g>
        <g>
          <rect x="616.489" y="401.937" width="178.222" height="29.626" fill="#0066f9"></rect>
          <path d="m795.211,432.062h-179.222v-30.626h179.222v30.626Zm-178.222-1h177.222v-28.626h-177.222v28.626Z" fill="#fff"></path>
        </g>
        <g>
          <rect x="764.043" y="313.109" width="1" height="118.453" fill="#fff"></rect>
          <rect x="646.157" y="313.109" width="1" height="118.453" fill="#fff"></rect>
          <rect x="677.183" y="313.109" width="1" height="118.453" fill="#fff"></rect>
        </g>
        <g>
          <g>
            <ellipse cx="631.501" cy="328.506" rx="9.564" ry="4.666" fill="#fff"></ellipse>
            <path d="m631.501,333.671c-5.644,0-10.064-2.269-10.064-5.166s4.42-5.166,10.064-5.166,10.064,2.269,10.064,5.166-4.421,5.166-10.064,5.166Zm0-9.331c-4.913,0-9.064,1.908-9.064,4.166s4.151,4.166,9.064,4.166,9.064-1.908,9.064-4.166-4.151-4.166-9.064-4.166Z"></path>
          </g>
          <circle cx="631.501" cy="328.506" r="3.332"></circle>
        </g>
        <g>
          <g>
            <ellipse cx="631.501" cy="357.548" rx="9.564" ry="4.666" fill="#fff"></ellipse>
            <path d="m631.501,362.714c-5.644,0-10.064-2.269-10.064-5.166s4.42-5.166,10.064-5.166,10.064,2.269,10.064,5.166-4.421,5.166-10.064,5.166Zm0-9.331c-4.913,0-9.064,1.908-9.064,4.166s4.151,4.166,9.064,4.166,9.064-1.908,9.064-4.166-4.151-4.166-9.064-4.166Z"></path>
          </g>
          <circle cx="631.501" cy="357.548" r="3.332"></circle>
        </g>
        <g>
          <g>
            <ellipse cx="631.588" cy="387.149" rx="9.564" ry="4.666" fill="#fff"></ellipse>
            <path d="m631.588,392.314c-5.644,0-10.064-2.269-10.064-5.166s4.42-5.166,10.064-5.166,10.064,2.269,10.064,5.166-4.421,5.166-10.064,5.166Zm0-9.331c-4.913,0-9.064,1.908-9.064,4.166s4.151,4.166,9.064,4.166,9.064-1.908,9.064-4.166-4.151-4.166-9.064-4.166Z"></path>
          </g>
          <circle cx="631.588" cy="387.149" r="3.332"></circle>
        </g>
        <path d="m631.501,419.915c-5.644,0-10.064-2.269-10.064-5.166,0-.276.224-.5.5-.5s.5.224.5.5c0,2.258,4.151,4.166,9.064,4.166s9.064-1.908,9.064-4.166c0-.276.224-.5.5-.5s.5.224.5.5c0,2.896-4.421,5.166-10.064,5.166Z"></path>
        <g>
          <path d="m665.697,326.073h-1v-3.523c0-1.424-1.159-2.583-2.583-2.583s-2.583,1.159-2.583,2.583v3.523h-1v-3.523c0-1.976,1.607-3.583,3.583-3.583s3.583,1.607,3.583,3.583v3.523Z"></path>
          <g>
            <rect x="656.412" y="325.724" width="11.405" height="10.655" rx="1.863" ry="1.863" fill="#fff"></rect>
            <path d="m665.955,336.878h-7.68c-1.303,0-2.363-1.06-2.363-2.362v-6.93c0-1.303,1.06-2.363,2.363-2.363h7.68c1.303,0,2.362,1.06,2.362,2.363v6.93c0,1.303-1.06,2.362-2.362,2.362Zm-7.68-10.655c-.751,0-1.363.611-1.363,1.363v6.93c0,.751.611,1.362,1.363,1.362h7.68c.751,0,1.362-.611,1.362-1.362v-6.93c0-.751-.611-1.363-1.362-1.363h-7.68Z"></path>
          </g>
          <g>
            <circle cx="662.114" cy="331.283" r=".607" fill="#fff"></circle>
            <path d="m662.114,332.39c-.61,0-1.106-.497-1.106-1.107s.497-1.106,1.106-1.106,1.107.497,1.107,1.106-.497,1.107-1.107,1.107Zm0-1.213c-.059,0-.106.048-.106.106,0,.119.214.118.213,0,0-.059-.048-.106-.107-.106Z"></path>
          </g>
          <path d="m662.114,333.88c-.276,0-.5-.224-.5-.5v-2.098c0-.276.224-.5.5-.5s.5.224.5.5v2.098c0,.276-.224.5-.5.5Z"></path>
        </g>
        <g>
          <path d="m665.697,385.325h-1v-3.523c0-1.424-1.159-2.583-2.583-2.583s-2.583,1.159-2.583,2.583v3.523h-1v-3.523c0-1.976,1.607-3.583,3.583-3.583s3.583,1.607,3.583,3.583v3.523Z"></path>
          <g>
            <rect x="656.412" y="384.976" width="11.405" height="10.655" rx="1.863" ry="1.863" fill="#fff"></rect>
            <path d="m665.955,396.13h-7.68c-1.303,0-2.363-1.06-2.363-2.362v-6.93c0-1.303,1.06-2.363,2.363-2.363h7.68c1.303,0,2.362,1.06,2.362,2.363v6.93c0,1.303-1.06,2.362-2.362,2.362Zm-7.68-10.655c-.751,0-1.363.611-1.363,1.363v6.93c0,.751.611,1.362,1.363,1.362h7.68c.751,0,1.362-.611,1.362-1.362v-6.93c0-.751-.611-1.363-1.362-1.363h-7.68Z"></path>
          </g>
          <g>
            <circle cx="662.114" cy="390.535" r=".607" fill="#fff"></circle>
            <path d="m662.114,391.642c-.61,0-1.106-.497-1.106-1.107s.497-1.106,1.106-1.106,1.107.497,1.107,1.106-.497,1.107-1.107,1.107Zm0-1.213c-.059,0-.106.048-.106.106,0,.119.214.118.213,0,0-.059-.048-.106-.107-.106Z"></path>
          </g>
          <path d="m662.114,393.132c-.276,0-.5-.224-.5-.5v-2.098c0-.276.224-.5.5-.5s.5.224.5.5v2.098c0,.276-.224.5-.5.5Z"></path>
        </g>
        <g>
          <circle cx="779.519" cy="327.922" r="5.229" fill="#fff"></circle>
          <path d="m779.52,333.651c-3.159,0-5.729-2.57-5.729-5.729s2.57-5.729,5.729-5.729,5.729,2.57,5.729,5.729-2.57,5.729-5.729,5.729Zm0-10.457c-2.607,0-4.729,2.121-4.729,4.729s2.121,4.729,4.729,4.729,4.729-2.121,4.729-4.729-2.121-4.729-4.729-4.729Z"></path>
        </g>
        <g>
          <circle cx="779.519" cy="357.548" r="5.229" fill="#fff"></circle>
          <path d="m779.52,363.277c-3.159,0-5.729-2.57-5.729-5.729s2.57-5.729,5.729-5.729,5.729,2.57,5.729,5.729-2.57,5.729-5.729,5.729Zm0-10.457c-2.607,0-4.729,2.121-4.729,4.729s2.121,4.729,4.729,4.729,4.729-2.121,4.729-4.729-2.121-4.729-4.729-4.729Z"></path>
        </g>
        <g>
          <circle cx="779.519" cy="387.174" r="5.229"></circle>
          <path d="m779.52,392.903c-3.159,0-5.729-2.57-5.729-5.729s2.57-5.729,5.729-5.729,5.729,2.57,5.729,5.729-2.57,5.729-5.729,5.729Zm0-10.457c-2.607,0-4.729,2.121-4.729,4.729s2.121,4.729,4.729,4.729,4.729-2.121,4.729-4.729-2.121-4.729-4.729-4.729Z" fill="#fff"></path>
        </g>
        <g>
          <circle cx="779.519" cy="416.8" r="5.229" fill="#fff"></circle>
          <path d="m779.52,422.529c-3.159,0-5.729-2.57-5.729-5.729s2.57-5.729,5.729-5.729,5.729,2.57,5.729,5.729-2.57,5.729-5.729,5.729Zm0-10.457c-2.607,0-4.729,2.121-4.729,4.729s2.121,4.729,4.729,4.729,4.729-2.121,4.729-4.729-2.121-4.729-4.729-4.729Z"></path>
        </g>
        <rect x="686.416" y="322.838" width="67.652" height="9.775" fill="#fff"></rect>
        <rect x="686.416" y="352.661" width="67.652" height="9.775" fill="#fff"></rect>
        <rect x="686.416" y="382.287" width="67.652" height="9.775" fill="#fff"></rect>
        <rect x="686.416" y="412.135" width="67.652" height="9.775" fill="#fff"></rect>
      </g>
      <g>
        <polygon points="117.605 86.414 114.785 123.032 123.608 128.006 142.907 120.359 143.851 110.074 117.605 86.414" fill="#fff" stroke="#000" stroke-miterlimit="10" stroke-width="1.5"></polygon>
        <line x1="117.605" y1="86.414" x2="126.03" y2="107.71" fill="#fff" stroke="#000" stroke-miterlimit="10" stroke-width="1.5"></line>
        <circle cx="127.317" cy="110.928" r="4.688" fill="#fff" stroke="#000" stroke-miterlimit="10" stroke-width="1.5"></circle>
        <polygon points="123.579 128.006 142.892 120.394 146.046 128.006 126.624 135.451 123.579 128.006" fill="#fff" stroke="#000" stroke-miterlimit="10" stroke-width="1.5"></polygon>
      </g>
      <g>
        <g>
          <rect x="444.767" y="463.463" width="135.978" height="16.616" stroke="#000" stroke-linecap="round" stroke-linejoin="round" stroke-width="1.5"></rect>
          <polyline points="139.911 549.014 145.111 492.394 145.121 492.284 145.121 492.274 146.081 481.784" fill="none" stroke="#000" stroke-linecap="round" stroke-linejoin="round" stroke-width="1.5"></polyline>
          <rect x="9.671" y="463.463" width="451.074" height="16.616" fill="#fff" stroke="#000" stroke-linecap="round" stroke-linejoin="round" stroke-width="1.5"></rect>
        </g>
        <g>
          <path d="m400.276,412.193l18.02,41.05c2.011,4.582-1.345,9.721-6.349,9.721h-49.28c0-3.423,2.775-6.197,6.197-6.197h14.552c4.678,0,8.014-4.537,6.619-9.002l-11.116-35.572" stroke="#000" stroke-miterlimit="10" stroke-width="1.5"></path>
          <path d="m395.632,412.193l18.02,41.05c2.011,4.582-1.345,9.721-6.349,9.721h-49.28c0-3.423,2.775-6.197,6.197-6.197h14.552c4.678,0,8.014-4.537,6.619-9.002l-11.116-35.572" fill="#fff" stroke="#000" stroke-miterlimit="10" stroke-width="1.5"></path>
          <path d="m302.357,287.756h154.396c5.865,0,10.626,4.762,10.626,10.626v108.392c0,8.629-7.005,15.634-15.634,15.634h-144.381c-8.629,0-15.634-7.005-15.634-15.634v-108.392c0-5.865,4.762-10.626,10.626-10.626Z" stroke="#000" stroke-miterlimit="10" stroke-width="1.5"></path>
          <path d="m296.786,287.756h154.396c5.865,0,10.626,4.762,10.626,10.626v108.392c0,8.629-7.005,15.634-15.634,15.634h-144.381c-8.629,0-15.634-7.005-15.634-15.634v-108.392c0-5.865,4.762-10.626,10.626-10.626Z" fill="#fff" stroke="#000" stroke-miterlimit="10" stroke-width="1.5"></path>
          <path d="m291.335,402.645v-100.134c0-5.328,4.319-9.648,9.648-9.648h146.001c5.328,0,9.648,4.319,9.648,9.648v100.134h-165.297Z" fill="#fff" stroke="#000" stroke-miterlimit="10" stroke-width="1.5"></path>
          <g>
            <g>
              <g>
                <line x1="387.482" y1="326.457" x2="344.824" y2="326.457" fill="#fff" stroke="#0066f9" stroke-linecap="round" stroke-linejoin="round" stroke-width="1.5"></line>
                <circle cx="346.009" cy="326.457" r="3.555" fill="#fff" stroke="#0066f9" stroke-linecap="round" stroke-linejoin="round" stroke-width="1.5"></circle>
              </g>
              <g>
                <line x1="358.538" y1="326.457" x2="406.726" y2="326.457" fill="#fff" stroke="#0066f9" stroke-linecap="round" stroke-linejoin="round" stroke-width="1.5"></line>
                <circle cx="404.356" cy="326.457" r="3.555" fill="#fff" stroke="#0066f9" stroke-linecap="round" stroke-linejoin="round" stroke-width="1.5"></circle>
              </g>
            </g>
            <g>
              <path d="m322.843,377.469h0c0-28.173,22.839-51.011,51.011-51.011h0c28.173,0,51.011,22.839,51.011,51.011h0" fill="#fff" stroke="#0066f9" stroke-linecap="round" stroke-linejoin="round" stroke-width="1.5"></path>
              <g>
                <rect x="318.784" y="373.939" width="8.916" height="8.916" rx="4.458" ry="4.458" transform="translate(284.241 874.532) rotate(-135)" fill="#fff" stroke="#0066f9" stroke-linecap="round" stroke-linejoin="round" stroke-width="1.5"></rect>
                <g>
                  <rect x="420.266" y="373.629" width="8.916" height="8.916" rx="4.458" ry="4.458" transform="translate(457.703 945.761) rotate(-135)" fill="#fff" stroke="#0066f9" stroke-linecap="round" stroke-linejoin="round" stroke-width="1.5"></rect>
                  <rect x="369.681" y="323.043" width="8.916" height="8.916" rx="4.458" ry="4.458" transform="translate(407.116 823.635) rotate(-135)" fill="#fff" stroke="#0066f9" stroke-linecap="round" stroke-linejoin="round" stroke-width="1.5"></rect>
                </g>
              </g>
            </g>
          </g>
        </g>
        <g>
          <rect x="335.736" y="454.291" width="8" height="6" rx="3" ry="3" fill="#fff" stroke="#000" stroke-miterlimit="10" stroke-width="1.5"></rect>
          <rect x="345.736" y="454.291" width="8" height="6" rx="3" ry="3" fill="#fff" stroke="#000" stroke-miterlimit="10" stroke-width="1.5"></rect>
          <rect x="355.736" y="454.291" width="8" height="6" rx="3" ry="3" fill="#fff" stroke="#000" stroke-miterlimit="10" stroke-width="1.5"></rect>
          <rect x="259.736" y="454.291" width="8" height="6" rx="3" ry="3" fill="#fff" stroke="#000" stroke-miterlimit="10" stroke-width="1.5"></rect>
          <rect x="249.736" y="454.291" width="8" height="6" rx="3" ry="3" fill="#fff" stroke="#000" stroke-miterlimit="10" stroke-width="1.5"></rect>
          <rect x="269.736" y="454.291" width="8" height="6" rx="3" ry="3" fill="#fff" stroke="#000" stroke-miterlimit="10" stroke-width="1.5"></rect>
          <rect x="319.736" y="454.291" width="8" height="6" rx="3" ry="3" fill="#fff" stroke="#000" stroke-miterlimit="10" stroke-width="1.5"></rect>
          <path d="m314.736,460.291h-2c-1.657,0-33-1.343-33-3h0c0-1.657,1.343-3,3-3h32c1.657,0,3,1.343,3,3h0c0,1.657-1.343,3-3,3Z" fill="#fff" stroke="#000" stroke-miterlimit="10" stroke-width="1.5"></path>
          <rect x="249.736" y="456.291" width="127" height="7" rx="3.5" ry="3.5" stroke="#000" stroke-miterlimit="10" stroke-width="1.5"></rect>
          <rect x="243.736" y="456.291" width="127" height="7" rx="3.5" ry="3.5" fill="#fff" stroke="#000" stroke-miterlimit="10" stroke-width="1.5"></rect>
        </g>
        <g>
          <polygon points="391.894 349.515 390.778 355.639 382.349 360.505 376.489 358.41 375.263 338.498 391.894 349.515" fill="#fff" stroke="#000" stroke-linecap="round" stroke-linejoin="round" stroke-width="1.5"></polygon>
          <rect x="383.032" y="357.902" width="9.266" height="4.38" transform="translate(-128.109 242.076) rotate(-30)" fill="#fff" stroke="#000" stroke-linecap="round" stroke-linejoin="round" stroke-width="1.5"></rect>
          <line x1="382.609" y1="351.223" x2="375.228" y2="338.439" fill="none" stroke="#000" stroke-miterlimit="10" stroke-width="1.5"></line>
          <rect x="381.028" y="349.641" width="3.163" height="3.163" rx="1.582" ry="1.582" transform="translate(-124.352 238.361) rotate(-30)" fill="#fff" stroke="#000" stroke-miterlimit="10" stroke-width="1.5"></rect>
        </g>
        <g>
          <circle cx="405.236" cy="455.291" r="3" stroke="#000" stroke-miterlimit="10" stroke-width="1.5"></circle>
          <path d="m413.376,463.291h-34.28c2.32-7.25,9.12-12.5,17.14-12.5,1.86,0,3.66.28,5.35.81,3.94,1.22,7.3,3.77,9.56,7.12.95,1.4,1.71,2.93,2.23,4.57Z" fill="#fff" stroke="#000" stroke-miterlimit="10" stroke-width="1.5"></path>
          <path d="m411.146,458.721c-1.22.02-2.57-.21-3.93-.69-3.71-1.33-6.14-4.14-5.63-6.43,3.94,1.22,7.3,3.77,9.56,7.12Z" fill="#fff" stroke="#000" stroke-miterlimit="10" stroke-width="1.5"></path>
        </g>
        <path d="m262.011,522.184l-.43,26.83H121.71c-9.53-7.62-16.05-19.49-15.68-35.37.41-17.25,2.31-20.59,3.12-21.22.16-.12.28-.14.34-.14h.04l35.59-.01h56.2l34.91-.01c.53,0,1.06.01,1.59.03.09,0,.17.01.26.02h.11c16.63.85,20.25,12.92,23.68,29.2.05.22.1.45.14.67Z" fill="#fcfcfc"></path>
        <path d="m304.361,549.014H91.821c-9.25-7.78-15.52-19.68-15.15-35.33.46-19.16.42-21.06.4-21.23l32.08-.03,35.96-.03,9.93-.01,83.04-.07h.11l21.46-.03c.53,0,5.06.01,5.58.03,9.59.39,18.25,4.61,24.57,11.2,6.16,6.43,7.58,12.06,10.08,23.91l4.48,21.59Z" fill="#fcfcfc"></path>
        <path d="m304.361,549.014H91.821c-9.25-7.78-15.52-19.68-15.15-35.33.46-19.16.42-21.06.4-21.23l32.08-.03,35.96-.03,9.93-.01,83.04-.07h.11l21.46-.03c.53,0,5.06.01,5.58.03,9.59.39,18.25,4.61,24.57,11.2,6.16,6.43,7.58,12.06,10.08,23.91l4.48,21.59Z" fill="none" stroke="#000" stroke-linecap="round" stroke-linejoin="round" stroke-width="1.5"></path>
        <g id="ha">
          <path id="sk" d="m290.314,423.251c-.187.182.807,4.568,5.768,6.116-.08-.243-.104-.518-.068-.832.123-1.156-1.611-3.637-3.322-5.765-1.292.183-2.252.352-2.378.48Z" fill="#fffdfd" stroke="#000" stroke-linecap="round" stroke-linejoin="round" stroke-width="1.5"></path>
          <path id="sk-2" data-name="sk" d="m292.692,422.771c1.711,2.128,3.445,4.609,3.322,5.765-.036.314-.011.589.068.832.463.14.952.264,1.489.35.788.133,1.657.204,2.62.184.311-.006.623-.012.92-.017-.421-2.113-2.269-5.146-3.957-7.573" fill="#fffdfd" stroke="#000" stroke-linecap="round" stroke-linejoin="round" stroke-width="1.5"></path>
          <path id="sk-3" data-name="sk" d="m297.155,422.311c1.688,2.427,3.536,5.46,3.957,7.573,1.918-.032,3.442-.025,4.64.202.194-2.691-1.093-5.645-2.326-7.606" fill="#fffdfd" stroke="#000" stroke-linecap="round" stroke-linejoin="round" stroke-width="1.5"></path>
          <path id="sk-4" data-name="sk" d="m318.725,423.749c-2.093-3.081-11.359-8.073-24.496-9.608-7.153-.836-40.454,3.03-47.346,3.849l-1.471-.095,21.088,28.691s26.003-9.072,30.083-9.736c7.171-1.167,13.502-2.007,12.341-4.525-1.161-2.518-3.763-2.526-8.736-2.425-8.542.173-10.107-6.428-9.871-6.65.393-.368,5.982-1.243,10.209-1.017,5.981.319,9.839,1.606,16.009,3.744,1.577.546,2.797-1.336,2.191-2.227Z" fill="#fffdfd" stroke="#000" stroke-linecap="round" stroke-linejoin="round" stroke-width="1.5"></path>
        </g>
        <polygon id="bl" points="165.703 487.661 269.951 451.458 260.798 412.169 176.851 437.131 165.703 487.661"></polygon>
        <g>
          <g id="ha-2" data-name="ha">
            <path id="sk-5" data-name="sk" d="m357.748,444.054c-1.598-2.614-11.065-8.682-21.797-10.464-6.526-1.083-40.1,1.361-40.1,1.361l8.31,29.118s22.437-9.043,27.661-9.945c1.808-.312,3.741-.31,4.822.167,1.801.795,2.33,2.58,4,4,2.099,1.785,5.027,1.593,3.719-.295-.555-.802-2.355-4.846-3.947-6.932.872.266,1.653.654,2.227,1.227,4.98,4.98,10.335,4.048,9.011,2.023,1.516.449,2.584.381,2.989-.023,1.209-1.209-4.664-8.164-7-11-.085-.103-.183-.204-.286-.304,1.511.8,5.684,2.859,8.502,2.81,1.373-.024,2.35-.987,1.888-1.743Z" fill="#fffdfd" stroke="#000" stroke-linecap="round" stroke-linejoin="round" stroke-width="1.5"></path>
            <path id="st" d="m329.643,438.291s14.97,1.322,18,5" fill="#fff" stroke="#000" stroke-linecap="round" stroke-linejoin="round" stroke-width="1.5"></path>
            <path id="st-2" data-name="st" d="m330.643,443.291s5.695.527,7.863,1.012c3.99.892,12.044,8.375,13.137,9.988" fill="#fff" stroke="#000" stroke-linecap="round" stroke-linejoin="round" stroke-width="1.5"></path>
            <path id="st-3" data-name="st" d="m340.712,451.463c-.524-.75-1.035-1.327-1.483-1.551-1.743-.871-8.207-1.162-8.207-1.162" fill="#fff" stroke="#000" stroke-linecap="round" stroke-linejoin="round" stroke-width="1.5"></path>
          </g>
          <path id="bl-2" data-name="bl" d="m303.87,426.249l-75.822,3.913-34.591-64.52-.006.003c-4.168-9.575-12.741-18.439-32.15-18.352l-65.607-.087c-3.582-.005-7.154.548-10.523,1.766-5.947,2.15-13.678,6.799-15.617,16.648-2.134,10.837,7.969,126.661,7.969,126.661h123.795s-.173-5.062-.468-13.185c4.302,2.222,9.314,3.167,14.468,2.392l94.036-11.002-5.484-44.236Z"></path>
          <path id="st-4" data-name="st" d="m164.643,418.291l25.732,50.153c2.231,4.534,5.835,8.191,10.197,10.516" fill="none" stroke="#feffff" stroke-linecap="round" stroke-linejoin="round" stroke-width="1.5"></path>
        </g>
        <path d="m169.255,302.175l-3.382-4.357c.294-6.177.239-12.258-.227-16.502-.26-2.39-.77-4.13-1.18-5.11-3.74-8.83-10.46-13.03-22.34-13.2-15.29-.21-28.08,10.26-30.27,23.72-.5,3.07-.89,19.01-.89,21.09-.03,10.1-.37,38.08-.37,38.08,0,0,0,.5.09,1.33l35.79.05v-.17l.35-17.54c8.584-.429,12.52-4.18,15.2-8.51,1.538-2.49,2.695-8.958,3.366-16.263l3.447-.746c.766-.298.984-1.278.416-1.872Z" fill="#fff" stroke="#000" stroke-linecap="round" stroke-linejoin="round" stroke-width="1.5"></path>
        <path d="m139.106,328.558c4.233,1.639,7.615,1.06,7.615,1.06" fill="none" stroke="#000" stroke-linecap="round" stroke-linejoin="round" stroke-width="1.5"></path>
        <polygon points="146.583 339.606 138.655 328.942 146.753 329.778 146.583 339.606"></polygon>
        <path d="m146.157,290.947c5.35-.297,18.482-9.461,19.596-18.146" fill="#0066f9" stroke="#000" stroke-linecap="round" stroke-linejoin="round" stroke-width="1.5"></path>
        <path d="m146.157,290.947c5.35-.297,18.929-8.014,20.044-16.698,0,0-.708-23.456-35.938-22.7-21.093.036-36.374,14.509-38.809,35.933-1.597,14.051-16.433,41.882-11.813,55.418,5.65,16.554,63.957,16.427,69.967,0,5.595-15.295-6.962-39.635-6.962-39.635l1.354-11.894,2.158-.423Z" fill="#0066f9" stroke="#000" stroke-linecap="round" stroke-linejoin="round" stroke-width="1.5"></path>
        <circle id="h_3_hair" cx="96.238" cy="264.768" r="14.175" fill="#0066f9" stroke="#000" stroke-linecap="round" stroke-linejoin="round" stroke-width="1.5"></circle>
        <path d="m146.617,308.284c-4.731-.039-8.535-3.957-8.496-8.752.038-4.589,3.584-8.307,8.036-8.585" fill="#fff" stroke="#000" stroke-linecap="round" stroke-linejoin="round" stroke-width="1.5"></path>
        <path d="m155.041,492.384l14.05,56.63H40.091l-.92-3.76-15.99-65.17-4.42-18-12.95-52.79c-1.1-4.8,2.54-9.39,7.47-9.39h112.82c3.57,0,6.66,2.46,7.47,5.93l13.96,56.25,4.46,18,3.03,12.19v.01l.02.1Z" fill="#fff" stroke="#000" stroke-linecap="round" stroke-linejoin="round" stroke-width="1.5"></path>
        <path d="m164.575,292.722l.014-.154c.008-.207-.035-.399-.129-.578-.06-.186-.164-.347-.31-.483-.136-.146-.297-.25-.483-.31-.179-.094-.371-.137-.578-.129l-.399.054c-.254.071-.475.2-.662.386l-.235.304c-.136.234-.204.486-.205.757l-.014.154c-.008.207.035.399.129.578.06.186.164.347.31.483.136.146.297.25.483.31.179.094.371.137.578.129l.399-.054c.254-.071.475-.2.662-.386l.235-.304c.136-.234.204-.486.205-.757h0Z"></path>
        <path d="m165.206,286.16s-5.701-1.1-7.096,3.314" fill="#fff" stroke="#000" stroke-linecap="round" stroke-linejoin="round" stroke-width="1.5"></path>
        <path d="m157.198,309.114s1.253,4.597,7.052,3.862" fill="none" stroke="#000" stroke-linecap="round" stroke-linejoin="round" stroke-width="1.5"></path>
      </g>
      <line x1=".75" y1="549.014" x2="594.56" y2="549.014" stroke="#000" stroke-linecap="round" stroke-linejoin="round" stroke-width="1.5"></line>
    </g>
  </g>
</svg>