<svg id="Layer_2" data-name="Layer 2" xmlns="http://www.w3.org/2000/svg" viewBox="0 0 767.151 524.382" style="width: 100%; height: 100%;">
  <g id="Layer_1-2" data-name="Layer 1">
    <g>
      <g>
        <g>
          <g>
            <rect x="39.106" y="324.686" width="154.191" height="44.831" fill="#fff" stroke="#b7b7b7" stroke-linecap="round" stroke-linejoin="round" stroke-width="1.5"></rect>
            <polygon points="145.608 324.683 140.874 332.558 91.529 332.558 86.795 324.683 145.608 324.683" fill="#fff" stroke="#b7b7b7" stroke-linecap="round" stroke-linejoin="round" stroke-width="1.5"></polygon>
          </g>
          <g>
            <rect x="39.106" y="369.519" width="154.191" height="44.831" fill="#fff" stroke="#b7b7b7" stroke-linecap="round" stroke-linejoin="round" stroke-width="1.5"></rect>
            <polygon points="145.608 369.517 140.874 377.391 91.529 377.391 86.795 369.517 145.608 369.517" fill="#fff" stroke="#b7b7b7" stroke-linecap="round" stroke-linejoin="round" stroke-width="1.5"></polygon>
          </g>
          <g>
            <rect x="39.106" y="414.352" width="154.191" height="44.831" fill="#fff" stroke="#b7b7b7" stroke-linecap="round" stroke-linejoin="round" stroke-width="1.5"></rect>
            <polygon points="145.608 414.35 140.874 422.225 91.529 422.225 86.795 414.35 145.608 414.35" fill="#fff" stroke="#b7b7b7" stroke-linecap="round" stroke-linejoin="round" stroke-width="1.5"></polygon>
          </g>
          <g>
            <rect x="39.106" y="459.186" width="154.191" height="44.831" fill="#fff" stroke="#b7b7b7" stroke-linecap="round" stroke-linejoin="round" stroke-width="1.5"></rect>
            <polygon points="145.608 459.184 140.874 467.058 91.529 467.058 86.795 459.184 145.608 459.184" fill="#fff" stroke="#b7b7b7" stroke-linecap="round" stroke-linejoin="round" stroke-width="1.5"></polygon>
          </g>
        </g>
        <g>
          <g>
            <path d="m94.797,292.759l-11.187-19.073c-2.581-4.402-.963-10.166,3.425-11.694.107-.037.215-.072.324-.104,1.753-.514,3.562-.286,5.144.509,2.512,1.262,4.192,3.973,4.435,6.922l1.838,22.272" fill="#fff" stroke="#b7b7b7" stroke-linecap="round" stroke-linejoin="round" stroke-width="1.5"></path>
            <path d="m94.895,291.642l.612-22.103c.141-5.101,4.566-9.133,9.098-8.106.11.025.22.053.33.083,1.759.492,3.173,1.644,4.094,3.156,1.462,2.401,1.452,5.59.096,8.221l-10.236,19.866" fill="#fff" stroke="#b7b7b7" stroke-linecap="round" stroke-linejoin="round" stroke-width="1.5"></path>
          </g>
          <rect x="78.836" y="289.93" width="34.836" height="34.836" fill="#fff" stroke="#b7b7b7" stroke-linecap="round" stroke-linejoin="round" stroke-width="1.5"></rect>
        </g>
      </g>
      <line x1=".75" y1="504.017" x2="662.833" y2="504.017" fill="#fff" stroke="#000" stroke-linecap="round" stroke-linejoin="round" stroke-width="1.5"></line>
      <polyline points="129.758 156.268 310.371 .75 490.984 156.268" fill="#0066f9" stroke="#0066f9" stroke-linecap="round" stroke-linejoin="round" stroke-width="1.5"></polyline>
      <polyline points="129.758 156.268 293.089 362.102 490.984 156.268" fill="#0066f9" stroke="#0066f9" stroke-linecap="round" stroke-linejoin="round" stroke-width="1.5"></polyline>
      <g>
        <rect x="177.52" y="36.293" width="265.702" height="296.017" fill="#fff" stroke="#0066f9" stroke-linecap="round" stroke-linejoin="round" stroke-width="1.5"></rect>
        <line x1="195.461" y1="128.579" x2="421.871" y2="128.579" fill="#fff" stroke="#0066f9" stroke-linecap="round" stroke-linejoin="round" stroke-width="1.5"></line>
        <line x1="195.461" y1="152.07" x2="421.871" y2="152.07" fill="#fff" stroke="#0066f9" stroke-linecap="round" stroke-linejoin="round" stroke-width="1.5"></line>
        <line x1="195.461" y1="175.562" x2="421.871" y2="175.562" fill="#fff" stroke="#0066f9" stroke-linecap="round" stroke-linejoin="round" stroke-width="1.5"></line>
        <line x1="195.461" y1="199.053" x2="421.871" y2="199.053" fill="#fff" stroke="#0066f9" stroke-linecap="round" stroke-linejoin="round" stroke-width="1.5"></line>
        <line x1="195.461" y1="222.545" x2="421.871" y2="222.545" fill="#fff" stroke="#0066f9" stroke-linecap="round" stroke-linejoin="round" stroke-width="1.5"></line>
        <line x1="195.461" y1="246.036" x2="421.871" y2="246.036" fill="#fff" stroke="#0066f9" stroke-linecap="round" stroke-linejoin="round" stroke-width="1.5"></line>
        <line x1="195.461" y1="269.528" x2="421.871" y2="269.528" fill="#fff" stroke="#0066f9" stroke-linecap="round" stroke-linejoin="round" stroke-width="1.5"></line>
        <line x1="195.461" y1="293.019" x2="307.502" y2="293.019" fill="#fff" stroke="#0066f9" stroke-linecap="round" stroke-linejoin="round" stroke-width="1.5"></line>
        <rect x="195.461" y="56.048" width="49.039" height="49.039" fill="#fff" stroke="#0066f9" stroke-linecap="round" stroke-linejoin="round" stroke-width="1.5"></rect>
      </g>
      <polygon points="490.984 389.766 129.758 389.766 129.758 156.268 310.371 286.153 490.984 156.268 490.984 389.766" fill="#fff" stroke="#0066f9" stroke-linecap="round" stroke-linejoin="round" stroke-width="1.5"></polygon>
      <g>
        <circle cx="112.642" cy="390.265" r="42.381" fill="#0066f9" stroke="#000" stroke-linecap="round" stroke-linejoin="round" stroke-width="1.5"></circle>
        <polyline points="83.698 391.234 99.094 406.983 139.316 373.546" fill="none" stroke="#eaeaea" stroke-linecap="round" stroke-linejoin="round" stroke-width="1.5"></polyline>
      </g>
      <g>
        <rect x="522.89" y="430.191" width="91" height="37" fill="#0066f9" stroke="#000" stroke-linecap="round" stroke-linejoin="round" stroke-width="1.5"></rect>
        <path d="m447.393,431.837c-6.353-.092-12.678-2.558-17.531-7.401-9.905-9.885-9.921-25.929-.035-35.834l82.201-82.487c9.886-9.905,25.928-9.92,35.834-.035,9.905,9.885,9.921,25.929.035,35.834l-82.201,82.487c-5.042,5.052-11.689,7.532-18.303,7.436Z" fill="#fff" stroke="#000" stroke-linecap="round" stroke-linejoin="round" stroke-width="1.5"></path>
        <g>
          <path d="m529.691,285.04c-3.725.054-13.366,2.005-24.139,9.678-5.866,4.178-27.973,29.381-32.536,34.611l-1.155.916,34.884,7.136s13.202-24.17,15.783-27.398c4.536-5.675,8.668-10.545,6.118-11.634-2.55-1.089-4.48.656-8.106,4.06-13.003,12.208-11.808,2.011-11.781,1.689.044-.537,5.495-6.67,6.89-7.601,4.98-3.327,8.81-5.427,14.715-8.216,1.366-.645,1.077-3.266-.672-3.241Z" fill="#fff" stroke="#000" stroke-linecap="round" stroke-linejoin="round" stroke-width="1.5"></path>
          <polygon points="473.533 330.969 508.104 330.949 517.355 310.639 507.643 296.155 481.543 321.623 473.533 330.969" fill="#fff"></polygon>
          <path d="m514.939,293.59s4.193,1.772,7.05,3.397c1.5.853,3.816,5.55,4.309,6.854,1.691,4.476-.423,5.257-2.827,3.292-2.259-1.847-2.875-3.973-5.201-5.419-2.17-1.349-8.099-2.138-8.099-2.138" fill="#fff" stroke="#000" stroke-linecap="round" stroke-linejoin="round" stroke-width="1.5"></path>
          <path d="m510.319,296.824s4.703,2.432,7.398,4.392c1.396,1.015,3.209,5.444,3.392,6.826.281,2.121-.039,3.2-1.579,3.148-2.198-.074-3.264-4.598-5.589-6.044-2.17-1.349-8.399-4.419-8.399-4.419" fill="#fff" stroke="#000" stroke-linecap="round" stroke-linejoin="round" stroke-width="1.5"></path>
          <path d="m510.75,303.485c3.382,3.284,3.12,5.468,3.093,6.623-.047,1.965-1.4,2.438-2.547,1.473-1.525-1.283-3.504-4.024-4.494-4.538-2.055-1.068-5.696-2.032-5.696-2.032" fill="none" stroke="#000" stroke-linecap="round" stroke-linejoin="round" stroke-width="1.5"></path>
        </g>
        <path d="m476.985,316.698l-52.889,75.983c-3.901,5.474-5.626,12.586-4.093,19.674,2.89,13.356,16.059,21.84,29.415,18.95l1.45-.314" fill="#0066f9"></path>
        <path d="m450.8,431.349l-1.45.314c-13.356,2.89-26.525-5.595-29.415-18.95-1.533-7.088.192-14.2,4.093-19.674l52.889-75.983,35.895,22.706-35.84,55.419" fill="#fff" stroke="#000" stroke-linecap="round" stroke-linejoin="round" stroke-width="1.5"></path>
        <path d="m529.962,298.774l87.465.14c14.489.054,24.137,9.596,25.316,18.701,1.343,10.377-6.913,20.517-6.891,21.236.32,10.334-1.513,104.656-1.513,104.656l-121.817-2.011,2.768-95.72" fill="#fff" stroke="#000" stroke-linecap="round" stroke-linejoin="round" stroke-width="1.5"></path>
        <g>
          <g>
            <g>
              <path d="m415.848,467.655c15.305-2.672,29.878,7.569,32.55,22.873s-7.569,29.878-22.873,32.55"></path>
              <path d="m433.002,471.268c9.609,3.038,14.284.745,21.781-.564l6.34,36.312c-7.497,1.309-14.985,1.806-20.684,6.85"></path>
            </g>
            <path d="m436.674,472.227s19.095,12.584,7.021,39.309" fill="none" stroke="#fff" stroke-linecap="round" stroke-linejoin="round" stroke-width="1.5"></path>
          </g>
          <path d="m450.247,458.509l215.315-46.842c21.73-4.053,42.631,10.277,46.684,32.007,4.053,21.73-10.277,42.631-32.007,46.684-.899.168-220.611,30.609-220.611,30.609l-9.381-62.457" fill="#0066f9" stroke="#000" stroke-linecap="round" stroke-linejoin="round" stroke-width="1.5"></path>
        </g>
        <g>
          <g>
            <g>
              <path d="m697.526,524.382c-14.893-3.499-24.13-18.409-20.631-33.301,3.499-14.893,18.409-24.13,33.301-20.631"></path>
              <path d="m683.389,514.476c-7.527-6.467-12.647-6.199-19.943-7.913l8.302-35.335c7.296,1.714,14.268,4.16,21.38,1.796"></path>
            </g>
            <path d="m680.434,512.188s-11.036-26.961,8.844-38.313" fill="none" stroke="#fff" stroke-linecap="round" stroke-linejoin="round" stroke-width="1.5"></path>
          </g>
          <path d="m669.09,523.046s-216.472-29.082-217.358-29.244c-21.414-3.903-35.609-24.425-31.707-45.839,3.903-21.414,24.425-35.609,45.839-31.707l212.21,45.25-8.983,61.539Z" fill="#0066f9" stroke="#000" stroke-linecap="round" stroke-linejoin="round" stroke-width="1.5"></path>
        </g>
        <g>
          <circle cx="569.09" cy="225.993" r="31.116"></circle>
          <path d="m592.397,254.98c4.799-.151,8.566-4.216,8.413-9.079-.146-4.654-3.832-8.343-8.355-8.52-3.799-15.594-16.951-27.154-33.429-26.636-12.389.39-16.7,7.187-22.415,17.351-3.024,5.379-1.693,36.616,2.58,43.254,2.857,4.439,7.901,7.368,15.982,8.558l.644,18.198s-.84,16.955,18.369,16.361c21.678-.67,19.025-18.265,19.025-18.265,0,0-1.562-39.087-.981-41.224.056,0,.11.005.166.003Z" fill="#fff" stroke="#000" stroke-linecap="round" stroke-linejoin="round" stroke-width="1.5"></path>
          <path d="m528.815,225.429l48.509-.61s-2.37,11.978,8.779,17.121l1.795,8.403,3.62-.114,1.731-14.008-3.693-30.099-26.814-8.313-27.154,10.01-6.771,17.61Z"></path>
          <circle cx="531.127" cy="213.482" r="20.134"></circle>
          <circle cx="553.668" cy="202.692" r="17.388"></circle>
          <path d="m555.369,279.909s8.242,1.493,16.109-3.57" fill="#fff" stroke="#000" stroke-linecap="round" stroke-linejoin="round" stroke-width="1.5"></path>
        </g>
        <path d="m564.897,244.529l-.018-.15c.008-.207-.035-.399-.129-.578-.06-.186-.164-.347-.31-.483-.136-.146-.297-.25-.483-.31-.179-.094-.371-.137-.578-.129l-.399.054c-.254.071-.475.2-.662.386l-.235.304c-.136.234-.204.486-.205.757l.018.15c-.008.207.035.399.129.578.06.186.164.347.31.483.136.146.297.25.483.31.179.094.371.137.578.129l.399-.054c.254-.071.475-.2.662-.386l.235-.304c.136-.234.204-.486.205-.757h0Z"></path>
        <path d="m546.827,246.003l-.018-.15c.008-.207-.035-.399-.129-.578-.06-.186-.164-.347-.31-.483-.136-.146-.297-.25-.483-.31-.179-.094-.371-.137-.578-.129l-.399.054c-.254.071-.475.2-.662.386l-.235.304c-.136.234-.204.486-.205.757l.018.15c-.008.207.035.399.129.578.06.186.164.347.31.483.136.146.297.25.483.31.179.094.371.137.578.129l.399-.054c.254-.071.475-.2.662-.386l.235-.304c.136-.234.204-.486.205-.757h0Z"></path>
        <path d="m550.738,249.7l-.845,4.27c-.156.788.539,1.482,1.327,1.326l3.746-.746" fill="#fff" stroke="#000" stroke-linecap="round" stroke-linejoin="round" stroke-width="1.5"></path>
        <path d="m559.771,234.47s5.373-1.981,8.201,1.554" fill="#fff" stroke="#000" stroke-linecap="round" stroke-linejoin="round" stroke-width="1.5"></path>
        <path d="m539.303,239.092s3.619-4.438,7.852-2.833" fill="#fff" stroke="#000" stroke-linecap="round" stroke-linejoin="round" stroke-width="1.5"></path>
        <path d="m571.479,276.34l-15.751,18.348-.486-14.205s4.854-.061,9.651-1.518c4.798-1.457,6.586-2.625,6.586-2.625Z" stroke="#000" stroke-linecap="round" stroke-linejoin="round" stroke-width="1.5"></path>
        <path d="m564.326,260.515s-2.184,4.094-7.532,2.141" fill="#fff" stroke="#000" stroke-linecap="round" stroke-linejoin="round" stroke-width="1.5"></path>
        <g>
          <path d="m566.249,410.129c2.127-3.059,9.132-9.964,21.515-14.611,6.743-2.53,39.997-6.78,46.884-7.642l1.405-.446-13.575,32.917s-27.421-2.557-31.541-2.221c-7.242.591-13.589,1.296-13.067-1.427.522-2.723,3.047-3.349,7.897-4.453,17.39-3.962,8.266-8.669,7.984-8.827-.47-.263-8.602.83-10.154,1.466-5.542,2.271-9.424,4.273-15.036,7.612-1.298.772-3.311-.932-2.312-2.368Z" fill="#fff" stroke="#000" stroke-linecap="round" stroke-linejoin="round" stroke-width="1.5"></path>
          <polygon points="635.719 389.221 616.384 417.88 594.372 414.204 587.787 398.055 623.492 390.643 635.719 389.221" fill="#fff"></polygon>
          <path d="m581.582,402.673s-.873,4.468-1.122,7.745c-.131,1.721,2.47,6.266,3.277,7.404,2.767,3.903,4.596,2.586,4.31-.505-.269-2.906-1.688-4.605-1.588-7.341.094-2.553,2.753-7.911,2.753-7.911" fill="#fff" stroke="#000" stroke-linecap="round" stroke-linejoin="round" stroke-width="1.5"></path>
          <path d="m586.846,400.649s-.611,5.259-.492,8.59c.062,1.725,2.722,5.703,3.766,6.627,1.602,1.418,2.676,1.755,3.493.45,1.167-1.864-1.99-5.276-1.889-8.012.094-2.553,1.028-9.435,1.028-9.435" fill="#fff" stroke="#000" stroke-linecap="round" stroke-linejoin="round" stroke-width="1.5"></path>
          <path d="m592.13,404.728c.834,4.64,2.791,5.643,3.765,6.266,1.656,1.059,2.804.201,2.645-1.289-.212-1.982-1.379-5.155-1.252-6.263.263-2.301,1.498-5.859,1.498-5.859" fill="none" stroke="#000" stroke-linecap="round" stroke-linejoin="round" stroke-width="1.5"></path>
        </g>
        <rect x="482.409" y="436.191" width="163.962" height="7" rx="3.5" ry="3.5"></rect>
        <path d="m604.895,347.872l57.708,76.529c5.042,5.052,11.689,7.532,18.303,7.436,6.353-.092,12.678-2.558,17.531-7.401,9.905-9.885,9.836-22.371.035-35.834l-60.568-81.028" fill="#fff" stroke="#000" stroke-linecap="round" stroke-linejoin="round" stroke-width="1.5"></path>
        <path d="m651.076,383.836l-66.456-1.537-1.01,47.667,96.427,2.41c7.136.142,13.644-2.681,18.343-7.338,4.513-4.473,7.359-10.636,7.495-17.49" fill="#fff" stroke="#000" stroke-linecap="round" stroke-linejoin="round" stroke-width="1.5"></path>
        <rect x="494.906" y="344.033" width="138.968" height="98.317" rx="3.797" ry="3.797"></rect>
        <circle cx="564.39" cy="393.191" r="10.998" fill="#fff" stroke="#000" stroke-linecap="round" stroke-linejoin="round" stroke-width="1.5"></circle>
      </g>
      <g>
        <polygon points="766.401 237.442 646.591 237.442 626.208 253.174 626.317 237.442 626.317 174.787 766.401 174.787 766.401 237.442" fill="#fff" stroke="#000" stroke-linecap="round" stroke-linejoin="round" stroke-width="1.5"></polygon>
        <g>
          <line x1="643.26" y1="191.515" x2="749.349" y2="191.515" fill="#fff" stroke="#000" stroke-linecap="round" stroke-linejoin="round" stroke-width="1.5"></line>
          <line x1="643.26" y1="206.722" x2="749.349" y2="206.722" fill="#fff" stroke="#000" stroke-linecap="round" stroke-linejoin="round" stroke-width="1.5"></line>
          <line x1="643.26" y1="221.93" x2="694.286" y2="221.93" fill="#fff" stroke="#000" stroke-linecap="round" stroke-linejoin="round" stroke-width="1.5"></line>
        </g>
      </g>
    </g>
  </g>
</svg>