<svg id="Layer_2" data-name="Layer 2" xmlns="http://www.w3.org/2000/svg" viewBox="0 0 1184.506 841.25" style="width: 100%; height: 100%;">
  <g id="Layer_2-2" data-name="Layer 2">
    <g>
      <g>
        <g>
          <rect x="889.564" y="14.842" width="222.253" height="138.484" rx="9.039" ry="9.039" fill="#f4f4f4"></rect>
          <g fill="none" opacity=".04">
            <path d="m1102.779,14.842h-204.175c-4.978,0-9.016,4.021-9.041,8.994l111.127,75.838,111.127-75.838c-.026-4.973-4.063-8.994-9.037-8.994Z" fill="#292a2e"></path>
          </g>
        </g>
        <g>
          <rect x="903.947" y="561.349" width="280.559" height="174.814" rx="11.41" ry="11.41" fill="#f4f4f4"></rect>
          <g fill="none" opacity=".04">
            <path d="m1173.096,561.348h-257.738c-6.284,0-11.381,5.075-11.413,11.354l140.279,95.733,140.279-95.733c-.032-6.278-5.129-11.354-11.408-11.354Z" fill="#292a2e"></path>
          </g>
        </g>
        <g>
          <rect x="91.207" y="233.053" width="219.142" height="136.545" rx="8.912" ry="8.912" fill="#f4f4f4"></rect>
          <g fill="none" opacity=".04">
            <path d="m301.437,233.053H100.12c-4.908,0-8.889,3.964-8.915,8.868l109.571,74.776,109.571-74.776c-.025-4.904-4.007-8.868-8.91-8.868Z" fill="#292a2e"></path>
          </g>
        </g>
      </g>
      <g>
        <path d="m300.082,316.237c-2.59-1.21-5.154-2.459-7.618-3.714-.668-.341-1.483-.074-1.823.593s-.074,1.483.593,1.823c2.491,1.269,5.082,2.531,7.701,3.755.081.037.163.067.246.087.617.154,1.277-.145,1.556-.742.317-.678.024-1.484-.655-1.802Z" fill="#292a2e"></path>
        <path d="m339.696,331.3l-.194-.06c-2.661-.814-5.315-1.661-7.89-2.519-.707-.228-1.477.147-1.714.858-.236.71.148,1.478.858,1.714,2.596.864,5.272,1.718,7.942,2.534l.213.065c.022.007.044.013.065.018.697.174,1.415-.227,1.625-.922.217-.717-.188-1.473-.904-1.69Z" fill="#292a2e"></path>
        <path d="m281.293,306.465c-2.46-1.423-4.899-2.897-7.247-4.381-.637-.401-1.47-.21-1.87.422-.399.633-.211,1.47.422,1.87,2.378,1.502,4.847,2.995,7.337,4.436.113.064.23.112.351.142.571.143,1.191-.101,1.502-.637.375-.648.153-1.477-.494-1.852Z" fill="#292a2e"></path>
        <path d="m360.121,337.357c-2.758-.798-5.487-1.594-8.181-2.388-.752-.224-1.473.199-1.684.916-.212.718.199,1.472.917,1.684,2.698.796,5.432,1.593,8.195,2.392.016.005.032.009.049.013.704.176,1.426-.235,1.63-.938.208-.719-.206-1.471-.925-1.678Z" fill="#292a2e"></path>
        <path d="m263.533,294.972c-2.297-1.664-4.562-3.386-6.734-5.118-.582-.467-1.437-.372-1.904.214-.467.585-.371,1.438.214,1.904,2.204,1.759,4.503,3.507,6.833,5.195.145.105.303.177.467.218.521.13,1.092-.059,1.427-.52.44-.607.304-1.454-.302-1.893Z" fill="#292a2e"></path>
        <path d="m319.619,324.462c-2.642-1-5.297-2.047-7.891-3.115-.689-.286-1.485.045-1.769.737-.285.692.045,1.484.737,1.769,2.618,1.078,5.297,2.135,7.963,3.143.05.02.101.035.152.048.658.165,1.349-.186,1.595-.836.265-.7-.087-1.483-.788-1.747Z" fill="#292a2e"></path>
        <path d="m247.19,281.589c-2.076-1.927-4.105-3.916-6.03-5.911-.523-.54-1.379-.554-1.916-.034-.539.52-.554,1.378-.034,1.916,1.96,2.031,4.024,4.054,6.136,6.015.173.161.378.268.593.322.464.116.974-.018,1.323-.393.509-.549.478-1.406-.071-1.916Z" fill="#292a2e"></path>
        <path d="m247.109,115.322c2.02-1.912,4.136-3.813,6.287-5.649.569-.486.637-1.341.151-1.91-.484-.57-1.341-.638-1.91-.151-2.187,1.866-4.337,3.798-6.392,5.742-.543.514-.567,1.373-.052,1.916.184.194.412.323.654.383.434.109.913,0,1.263-.331Z" fill="#292a2e"></path>
        <path d="m210.934,168.457c.032.011.064.02.097.028.683.171,1.391-.212,1.614-.891.867-2.629,1.857-5.282,2.944-7.884.289-.691-.037-1.485-.728-1.773-.695-.284-1.486.037-1.773.728-1.114,2.667-2.129,5.386-3.018,8.082-.234.711.152,1.477.863,1.711Z" fill="#292a2e"></path>
        <path d="m208.148,188.09c.307-2.755.739-5.548,1.284-8.303.146-.735-.343-1.458-1.066-1.593-.735-.146-1.448.332-1.593,1.066-.56,2.83-1.004,5.699-1.32,8.529-.076.682.368,1.303,1.017,1.465.059.015.119.025.18.032.744.083,1.414-.453,1.497-1.197Z" fill="#292a2e"></path>
        <path d="m225.04,139.246c-.629-.405-1.468-.226-1.874.402-1.571,2.427-3.063,4.911-4.434,7.386-.362.654-.126,1.479.529,1.843.106.059.217.102.329.13.581.145,1.21-.11,1.514-.659,1.341-2.421,2.801-4.852,4.338-7.227.407-.629.227-1.468-.401-1.875Z" fill="#292a2e"></path>
        <path d="m207.563,200.671c-.014-.749-.631-1.345-1.38-1.331-.749.014-1.344.632-1.331,1.38.053,2.864.233,5.764.535,8.621.061.581.483,1.039,1.019,1.173.15.037.309.05.472.032.744-.078,1.284-.745,1.205-1.49-.294-2.779-.469-5.6-.52-8.386Z" fill="#292a2e"></path>
        <path d="m230.923,131.07c.156.124.331.208.512.253.5.125,1.05-.042,1.392-.473,1.72-2.167,3.551-4.339,5.443-6.453.499-.558.451-1.414-.107-1.914-.556-.5-1.414-.452-1.914.107-1.928,2.154-3.793,4.367-5.547,6.576-.466.586-.367,1.438.22,1.904Z" fill="#292a2e"></path>
        <path d="m217.13,241.29c-.317-.679-1.122-.974-1.8-.659-.679.316-.974,1.121-.659,1.8,1.193,2.569,2.513,5.15,3.924,7.673.19.34.504.565.854.653.323.081.676.044.99-.132.654-.365.887-1.19.522-1.845-1.377-2.463-2.667-4.984-3.831-7.491Z" fill="#292a2e"></path>
        <path d="m270.632,95.043c-.417-.62-1.259-.788-1.881-.37-2.391,1.603-4.753,3.264-7.022,4.937-.603.444-.731,1.293-.287,1.895.195.264.466.436.762.51.378.095.795.026,1.134-.224,2.237-1.649,4.566-3.286,6.923-4.868.622-.417.788-1.259.371-1.881Z" fill="#292a2e"></path>
        <path d="m232.779,266.194c-1.775-2.201-3.484-4.464-5.078-6.728-.433-.611-1.277-.758-1.889-.327-.612.431-.759,1.277-.327,1.889,1.629,2.311,3.373,4.622,5.185,6.869.192.238.449.394.725.463.398.099.836.018,1.181-.26.583-.47.674-1.322.204-1.906Z" fill="#292a2e"></path>
        <path d="m210.21,221.475c-.174-.728-.905-1.178-1.633-1.004-.728.173-1.178.904-1.004,1.632.661,2.776,1.45,5.569,2.345,8.303.15.459.523.784.961.894.239.06.497.054.749-.028.712-.233,1.1-.998.867-1.71-.872-2.662-1.64-5.384-2.284-8.087Z" fill="#292a2e"></path>
        <path d="m288.978,84.222c-.352-.661-1.175-.91-1.834-.558-2.53,1.35-5.049,2.756-7.488,4.181-.646.377-.864,1.208-.486,1.854.192.328.5.546.841.631.331.083.694.041,1.013-.145,2.408-1.407,4.897-2.796,7.395-4.13.66-.353.911-1.173.558-1.834Z" fill="#292a2e"></path>
        <path d="m302.68,76.092c-1.322.588-2.631,1.183-3.928,1.786-.679.316-.974,1.122-.659,1.8.18.386.518.648.901.744.29.073.606.05.899-.086,1.285-.597,2.581-1.186,3.889-1.767.684-.304.991-1.106.687-1.789-.303-.683-1.105-.992-1.789-.688Z" fill="#292a2e"></path>
      </g>
      <g>
        <path d="m901.829,788.959c-2.666.517-4.155.751-4.171.753-.739.115-1.245.808-1.131,1.548.087.555.499.979,1.011,1.107.17.043.352.053.537.024.062-.01,1.547-.242,4.27-.771.735-.142,1.214-.854,1.072-1.589s-.855-1.216-1.589-1.072Z" fill="#292a2e"></path>
        <path d="m1105.102,602.464c-.231,2.808-.529,5.64-.884,8.416-.088.688.356,1.323,1.014,1.487.052.013.105.023.159.029.743.095,1.421-.43,1.516-1.172.36-2.816.661-5.688.897-8.537.061-.746-.495-1.408-1.239-1.462-.746-.061-1.401.493-1.462,1.239Z" fill="#292a2e"></path>
        <path d="m1105.745,589.782c-.013.643.426,1.191,1.025,1.341.097.024.199.038.304.04.748.015,1.367-.58,1.381-1.329.055-2.815.053-5.7-.006-8.576-.015-.749-.633-1.339-1.383-1.328-.749.016-1.343.635-1.328,1.383.058,2.84.06,5.69.006,8.469Z" fill="#292a2e"></path>
        <path d="m1103.593,548.682c.173.043.359.053.546.022.739-.12,1.241-.817,1.12-1.556-.455-2.795-.961-5.632-1.507-8.432-.142-.735-.854-1.217-1.589-1.072-.735.143-1.215.854-1.072,1.589.539,2.773,1.04,5.582,1.491,8.35.089.551.5.97,1.01,1.098Z" fill="#292a2e"></path>
        <path d="m1053.975,714.628c-.523-.536-1.381-.543-1.916-.018-2.004,1.967-4.077,3.922-6.162,5.812-.554.503-.596,1.36-.093,1.915.187.206.423.341.674.404.424.106.892.005,1.24-.31,2.11-1.913,4.21-3.894,6.239-5.886.535-.524.542-1.382.018-1.916Z" fill="#292a2e"></path>
        <path d="m1019.169,741.244c-2.326,1.563-4.721,3.116-7.118,4.618-.635.398-.826,1.234-.429,1.869.194.309.492.513.82.595.345.086.724.037,1.048-.166,2.421-1.517,4.841-3.087,7.191-4.665.621-.418.787-1.26.369-1.881s-1.26-.785-1.881-.369Z" fill="#292a2e"></path>
        <path d="m1098.394,526.796c.122.509.516.882.99,1.001.205.051.424.055.643.003.728-.175,1.177-.906,1.003-1.633-.657-2.744-1.364-5.535-2.104-8.297-.193-.722-.938-1.152-1.659-.959-.723.193-1.152.937-.959,1.659.733,2.738,1.434,5.507,2.085,8.227Z" fill="#292a2e"></path>
        <path d="m1081.306,478.894c-.417-.621-1.26-.787-1.881-.369-.621.417-.787,1.259-.369,1.881,1.577,2.349,3.082,4.75,4.473,7.137.191.329.5.547.842.632.331.083.693.042,1.011-.144.647-.377.866-1.206.489-1.853-1.419-2.436-2.954-4.887-4.564-7.285Z" fill="#292a2e"></path>
        <path d="m1038.142,728.883c-.47-.582-1.323-.673-1.906-.204-2.17,1.752-4.422,3.502-6.692,5.202-.599.448-.72,1.298-.272,1.897.194.26.464.429.755.502.382.096.802.025,1.142-.229,2.296-1.72,4.574-3.49,6.77-5.262.583-.471.673-1.323.204-1.906Z" fill="#292a2e"></path>
        <path d="m1091.787,497.616c-.311-.682-1.114-.984-1.794-.674-.682.31-.984,1.113-.674,1.794,1.16,2.556,2.242,5.176,3.213,7.787.162.435.523.738.942.842.256.064.534.055.8-.044.701-.261,1.059-1.041.798-1.743-.993-2.67-2.099-5.35-3.285-7.962Z" fill="#292a2e"></path>
        <path d="m1098.525,642.974c-.713-.23-1.477.152-1.711.863-.881,2.671-1.837,5.347-2.843,7.954-.27.698.078,1.483.776,1.753.054.02.107.037.161.051.654.164,1.343-.182,1.592-.827,1.023-2.648,1.995-5.368,2.889-8.083.234-.711-.152-1.477-.863-1.711Z" fill="#292a2e"></path>
        <path d="m1104.838,623.932c.147-.734-.313-1.484-1.065-1.593-.734-.146-1.447.33-1.593,1.065-.55,2.766-1.172,5.543-1.848,8.253-.182.726.26,1.462.987,1.643.726.182,1.462-.26,1.643-.987.687-2.752,1.318-5.572,1.877-8.381Z" fill="#292a2e"></path>
        <path d="m1090.773,662.788c-.681-.323-1.484-.034-1.806.642-1.201,2.526-2.485,5.062-3.818,7.537-.354.659-.108,1.481.551,1.836.102.055.207.095.314.122.587.147,1.222-.115,1.522-.673,1.353-2.515,2.659-5.092,3.879-7.658.321-.676.033-1.484-.643-1.806Z" fill="#292a2e"></path>
        <path d="m1106.139,569.832c.137.034.284.048.433.036.746-.057,1.305-.708,1.247-1.455-.215-2.808-.488-5.678-.808-8.533-.083-.743-.756-1.281-1.498-1.195-.743.083-1.279.754-1.195,1.498.317,2.823.586,5.661.799,8.437.045.597.471,1.074,1.022,1.212Z" fill="#292a2e"></path>
        <path d="m1068.235,698.809c-.578-.474-1.433-.389-1.907.191-1.771,2.165-3.623,4.328-5.503,6.428-.499.557-.451,1.414.106,1.913.17.152.368.254.575.305.472.118.992-.023,1.34-.411,1.906-2.131,3.784-4.324,5.581-6.52.474-.579.389-1.433-.191-1.907Z" fill="#292a2e"></path>
        <path d="m1080.602,681.481c-.631-.404-1.469-.217-1.871.414-1.499,2.35-3.085,4.711-4.716,7.016-.433.611-.288,1.457.323,1.889.142.1.295.17.454.21.526.132,1.103-.063,1.436-.532,1.656-2.341,3.267-4.738,4.789-7.125.402-.631.217-1.469-.414-1.871Z" fill="#292a2e"></path>
        <path d="m922.495,784.115c-2.754.743-5.527,1.453-8.242,2.112-.727.176-1.174.909-.997,1.637.123.507.516.878.989.996.206.051.427.055.648.001,2.737-.664,5.532-1.38,8.308-2.128.723-.195,1.15-.939.956-1.662-.195-.723-.941-1.151-1.662-.956Z" fill="#292a2e"></path>
        <path d="m1024.233,428.938c.547.137,1.144-.08,1.466-.579.407-.628.228-1.467-.401-1.874-2.357-1.527-4.798-3.058-7.256-4.551-.637-.387-1.474-.185-1.862.455s-.185,1.473.455,1.862c2.436,1.48,4.854,2.996,7.19,4.509.129.084.267.143.408.178Z" fill="#292a2e"></path>
        <path d="m942.849,777.98c-2.667.89-5.391,1.763-8.099,2.597-.715.22-1.117.978-.896,1.694.145.471.522.806.968.917.231.058.482.055.726-.021,2.728-.839,5.473-1.72,8.159-2.617.71-.236,1.094-1.005.857-1.714-.236-.71-1.003-1.095-1.714-.857Z" fill="#292a2e"></path>
        <path d="m982.265,762.149c-2.539,1.209-5.136,2.405-7.718,3.554-.684.304-.991,1.106-.687,1.789.177.396.52.666.91.764.283.071.591.051.879-.077,2.603-1.158,5.221-2.363,7.781-3.583.676-.322.963-1.131.641-1.806s-1.13-.961-1.806-.641Z" fill="#292a2e"></path>
        <path d="m1001.107,752.371c-2.435,1.376-4.943,2.745-7.452,4.068-.662.35-.916,1.169-.567,1.831.187.355.51.592.871.683.312.078.653.046.96-.116,2.533-1.336,5.064-2.717,7.522-4.106.651-.368.881-1.195.513-1.847-.368-.652-1.195-.881-1.847-.513Z" fill="#292a2e"></path>
        <path d="m1072.263,470.7c.399.1.838.018,1.182-.261.582-.471.672-1.324.201-1.906-1.768-2.185-3.647-4.38-5.585-6.526-.503-.559-1.36-.598-1.914-.098-.556.501-.599,1.359-.098,1.914,1.906,2.109,3.753,4.268,5.49,6.414.192.238.448.393.724.462Z" fill="#292a2e"></path>
        <path d="m962.802,770.663c-2.591,1.039-5.258,2.071-7.928,3.068-.701.262-1.058,1.042-.796,1.744.163.435.524.736.942.841.257.064.535.054.802-.045,2.69-1.004,5.377-2.044,7.989-3.092.695-.278,1.032-1.068.753-1.763s-1.067-1.032-1.763-.753Z" fill="#292a2e"></path>
        <path d="m1057.81,455.083c.457.114.961-.014,1.31-.379.517-.542.497-1.4-.045-1.916-2.026-1.935-4.159-3.88-6.338-5.784-.56-.489-1.42-.434-1.912.129s-.435,1.42.129,1.912c2.149,1.877,4.252,3.796,6.249,5.703.176.168.386.28.606.335Z" fill="#292a2e"></path>
        <path d="m1041.638,441.228c.506.127,1.062-.047,1.402-.486.458-.592.35-1.443-.243-1.901-2.214-1.713-4.527-3.436-6.875-5.121-.608-.434-1.454-.297-1.892.311-.437.608-.297,1.456.311,1.892,2.323,1.666,4.61,3.369,6.799,5.062.153.119.323.199.499.243Z" fill="#292a2e"></path>
      </g>
      <g>
        <polygon points="297.429 41.109 298.086 84.821 458.946 1.164 297.429 41.109" fill="#48cf48"></polygon>
        <polygon points="297.429 41.109 298.086 84.821 458.946 1.164 297.429 41.109" fill="#0a0a0a" opacity=".2"></polygon>
        <polygon points="305.782 54.02 298.086 84.821 421.159 18.405 305.782 54.02" fill="#48cf48"></polygon>
        <polygon points="305.782 54.02 298.086 84.821 421.159 18.405 305.782 54.02" fill="#0a0a0a" opacity=".1"></polygon>
        <polygon points="282.44 17.477 458.946 1.164 335.05 107.146 305.782 54.02 458.946 1.164 297.429 41.109 282.44 17.477" fill="#48cf48"></polygon>
      </g>
      <g>
        <path d="m271.96,356.965l386.132,245.686,386.133-245.686L657.96,0l-386,356.965Z" fill="#292a2e"></path>
        <g>
          <rect x="346.787" y="52.137" width="622.612" height="680.468" fill="#fff"></rect>
          <path d="m970.399,733.606H345.787V51.137h624.612v682.469Zm-622.612-2h620.612V53.137H347.787v678.469Z" fill="#292a2e"></path>
        </g>
        <g>
          <rect x="406.702" y="113.158" width="127.732" height="127.732" fill="#fff"></rect>
          <path d="m535.433,241.89h-129.731V112.157h129.731v129.732Zm-127.731-2h125.731v-125.732h-125.731v125.732Z" fill="#292a2e"></path>
        </g>
        <g>
          <rect x="406.702" y="290.958" width="505.165" height="2" fill="#292a2e"></rect>
          <rect x="406.702" y="338.877" width="505.165" height="2" fill="#292a2e"></rect>
          <rect x="406.702" y="386.797" width="505.165" height="2" fill="#292a2e"></rect>
          <rect x="406.702" y="434.717" width="505.165" height="2" fill="#292a2e"></rect>
          <rect x="406.702" y="482.637" width="505.165" height="2" fill="#292a2e"></rect>
          <rect x="406.702" y="530.557" width="505.165" height="2" fill="#292a2e"></rect>
        </g>
        <g>
          <polygon points="1044.225 838.156 271.96 838.156 271.96 356.965 658.093 592.651 1044.225 356.965 1044.225 838.156" fill="#0066f9"></polygon>
          <polygon points="1044.225 838.156 271.96 838.156 271.96 356.965 658.093 592.651 1044.225 356.965 1044.225 838.156" fill="#fff" opacity=".83"></polygon>
        </g>
      </g>
      <g>
        <path d="m66.97,821.506l-2.162,13.701c-.484,3.064-3.11,5.331-6.212,5.361l-55.071.534c-3.716.036-4.901-4.992-1.561-6.619l33.062-16.108,31.943,3.13Z" fill="#ff9e85"></path>
        <g>
          <path d="m131.389,751.673s-.372,80.818,58.113,88.296l55.061-50.393,34.137-68.09-127.775,14.099-19.536,16.088Z" fill="#262626"></path>
          <path d="m129.814,747.271l-.174.046s-.569-3.425.174-.046Z" fill="#333"></path>
          <g>
            <path d="m351.392,513.197c-.011-.034-.047-.052-.068-.081l.553-1.114c.765-1.542.423-3.473-.947-4.515-1.844-1.402-4.395-.734-5.371,1.233l-1.276,2.572c-.013-.009-.014-.026-.028-.034-.017-.011-.039,0-.057-.005.383-1.58-.354-3.27-1.872-4.023-1.804-1.048-3.879.465-4.704,2.127l-7.676,14.82.229-4.801c.092-1.925-1.268-3.719-3.185-3.912-2.045-.205-3.819,1.345-3.915,3.372l-1.249,26.213c-.305,6.394,4.533,11.87,10.915,12.357h0c7.283.555,14.174-3.364,17.42-9.907,0,0,2.351-35.662,1.233-34.301Z" fill="#ff9e85"></path>
            <g>
              <rect x="323.082" y="470.171" width="16.863" height="69.382" rx="4.893" ry="4.893" transform="translate(-79.581 62.383) rotate(-9.604)" fill="#292a2e"></rect>
              <rect x="287.686" y="445.193" width="50.668" height="48.506" rx="24.253" ry="24.253" transform="translate(-73.932 58.801) rotate(-9.604)" fill="#48cf48"></rect>
              <path d="m391.461,471.173l-4.551,2.185-5.174-30.578,4.856.17c.397,4.353.99,8.931,1.788,13.644.867,5.124,1.91,10.024,3.081,14.58Z" fill="#0066f9"></path>
              <path d="m404.921,453.796c1.016,6.004.586,11.082-.958,11.343-.308.052-.636-.09-.971-.4-.002,0-.002-.001-.004-.001-1.356-1.245-2.849-5.188-3.662-9.995-.755-4.464-.712-8.415-.003-10.256.243-.635.565-1.018.962-1.085,1.544-.261,3.621,4.392,4.636,10.394Z" fill="#0066f9"></path>
              <path d="m388.395,456.692c-.006-.034-.011-.066-.016-.1-3.299-19.495-.68-40.626,2.413-48.666-12.108,12.276-29.736,24.793-46.288,29.871-6.679,2.049-14.851,3.917-27.265,6.002l8.203,48.478c12.409-2.115,20.74-3.04,27.722-3.302,17.301-.65,38.066,5.372,53.539,12.98-5.566-6.575-14.99-25.669-18.289-45.164-.006-.034-.012-.066-.018-.1Z" fill="#48cf48"></path>
              <rect x="310.35" y="440.243" width="29.614" height="54.1" rx="1.779" ry="1.779" transform="translate(-73.403 60.796) rotate(-9.604)" fill="#292a2e"></rect>
              <rect x="310.35" y="440.243" width="29.614" height="54.1" rx="1.779" ry="1.779" transform="translate(-73.403 60.796) rotate(-9.604)" fill="#fff" opacity=".1"></rect>
              <path d="m412.814,452.457c4.437,26.222,2.558,48.4-4.185,49.541-1.344.227-2.777-.394-4.239-1.749-.008.001-.009-.006-.017-.005-5.924-5.439-12.443-22.66-15.995-43.652-3.299-19.495-3.108-36.752-.015-44.793,1.063-2.772,2.468-4.447,4.201-4.74,6.743-1.141,15.813,19.184,20.249,45.398Z" fill="#48cf48"></path>
              <path d="m412.814,452.457c4.437,26.222,2.558,48.4-4.185,49.541-1.344.227-2.777-.394-4.239-1.749-.008.001-.009-.006-.017-.005-5.924-5.439-12.443-22.66-15.995-43.652-3.299-19.495-3.108-36.752-.015-44.793,1.063-2.772,2.468-4.447,4.201-4.74,6.743-1.141,15.813,19.184,20.249,45.398Z" fill="#0c0c0c" opacity=".3"></path>
              <path d="m400.29,443.43l3.678,21.738-12.507,6.005c-1.171-4.556-2.214-9.456-3.081-14.58-.797-4.713-1.391-9.291-1.788-13.644l13.698.481Z" fill="#fff" opacity=".6"></path>
              <path d="m404.921,453.796c1.016,6.004.586,11.082-.958,11.343-.308.052-.636-.09-.971-.4-.002,0-.002-.001-.004-.001-1.356-1.245-2.849-5.188-3.662-9.995-.755-4.464-.712-8.415-.003-10.256.243-.635.565-1.018.962-1.085,1.544-.261,3.621,4.392,4.636,10.394Z" fill="#fff"></path>
            </g>
            <path d="m331.471,522.559c.646-1.461,2.085-2.218,3.515-2.119-.003-.064-.006-.13.03-.188.065-.102.174-.136.284-.135l-2.555-1.624c-1.544-.982-2.263-2.97-1.477-4.622.815-1.714,2.74-2.424,4.401-1.838-.008-.035.013-.069.017-.105l-1.05-.667c-1.453-.924-2.159-2.753-1.526-4.353.852-2.154,3.381-2.903,5.234-1.725l2.423,1.54c.006-.014-.001-.03.007-.043.009-.018.033-.019.046-.034-1.145-1.154-1.389-2.982-.48-4.412,1.001-1.83,3.56-1.61,5.126-.615l4.691,3.52c1.471,1.104,2.288,2.869,2.184,4.705-.443,7.819-2.088,28.214-7.087,25.036l-12.308-7.825c-1.42-.903-2.155-2.956-1.475-4.495Z" fill="#ff9e85"></path>
          </g>
          <path d="m312.379,537.921l-16.311,88.262-41.693-64.258-31.853,37.421,66.433,90.742.563.526c2.982,2.719,6.616,4.814,10.754,6.013,14.44,4.184,29.538-4.13,33.722-18.57l27.362-132.279-48.977-7.856Z" fill="#0066f9"></path>
          <path d="m293.806,634.865c-.044,0-.089-.006-.134-.019-.266-.073-.422-.349-.349-.614l2.262-8.182c.074-.267.353-.424.615-.349.266.073.422.349.349.614l-2.262,8.182c-.061.222-.262.367-.481.367Z" fill="#0c0c0c"></path>
          <g>
            <g>
              <path d="m111.317,494.877s2.039,29.248-2.279,38.598c-12.431,26.916-14.611,47.088,2.727,59.875,17.338,12.787,116.417.807,119.762-33.923,2.816-29.239-11.118-30.631-17.305-53.704-2.8-10.44-9.646-32.211-9.646-32.211l-93.258,21.366Z" fill="#0a0a0a"></path>
              <path id="sk" d="m207.046,551.735c-.173.012,4.147,31.495-32.534,35.979-25.393,3.108-39.6-21.661-40.173-21.546,2.583-1.111,6.96-2.849,8.031-3.727,3.518-2.901,7.954-6.075,7.701-13.979-.146-4.555-5.88-26.868-6.387-31.405l40.112.924c1.34,9.53,1.934,32.122,15.868,33.367,2.318.203,4.794.321,7.382.387Z" fill="#ff9e85"></path>
              <path id="sh" d="m189.552,544.081c-.89-1.628-1.514-3.074-2.342-5.731-1.481-4.752-2.096-9.269-2.51-13.914-7.964.512-16.063-1.268-23.078-5.072-.189,2.776-1.819,15.065-.235,17.351,2.995,4.323,14.183,10.15,28.165,7.365Z" fill="#0c0c0c" opacity=".22"></path>
              <path d="m182.167,539.503c-15.14,3.372-32.421-.777-39.038-20.678l-9.272-17.502c-6.617-19.901-1.529-39.51,17.208-45.74h0c18.738-6.231,35.039-1.956,41.657,17.945,0,0,3.96,11.363,4.861,15.266,3.395,14.717,7.557,45.594-15.416,50.71Z" fill="#ff9e85"></path>
              <path id="e1_eb" d="m193.865,485.467c.019.672-2.484.939-5.873.864-3.388-.075-6.41-.297-6.398-1.134.015-1.057,2.789-1.854,6.177-1.779,3.388.075,6.064.992,6.093,2.049Z" fill="#0a0a0a"></path>
              <path d="m119.34,509.818l22.454,3.055c12.342-7.042,7.601-38.711,7.601-38.711,0,0,17.939,13.317,55.181-.652,0,0-14.698-50.847-69.367-27.614-17.628,7.492-28.049,29.411-23.09,53.844,3.475,17.122,7.221,10.077,7.221,10.077Z" fill="#0a0a0a"></path>
              <path d="m143.008,524.955c-5.694,1.893-11.991.628-14.818-7.952-1.878-5.699,2.267-10.776,7.961-12.669l4.203,2.84,7.55,16.153-4.896,1.628Z" fill="#ff9e85"></path>
              <g>
                <circle id="e1_eye" cx="190.057" cy="491.704" r="2.148" transform="translate(-63.977 29.793) rotate(-7.676)" fill="#0a0a0a"></circle>
                <g id="e1_n">
                  <path d="m181.598,510.798c-.431.058-.844-.218-.948-.649-.112-.461.171-.926.632-1.038l4.446-1.079-3.99-8.633c-.199-.431-.011-.941.42-1.14.43-.199.941-.011,1.14.419l4.427,9.582c.108.233.105.503-.007.734s-.321.401-.571.461l-5.461,1.326c-.03.007-.059.013-.088.017Z" fill="#0a0a0a"></path>
                </g>
                <g id="e1_m">
                  <path d="m178.963,521.55c-7.718,1.04-10.643-3.314-10.776-3.519-.258-.398-.144-.93.254-1.188.395-.257.925-.145,1.185.249.123.185,3.097,4.448,11.453,2.288.469-.123.929.158,1.047.617.119.459-.158.928-.617,1.047-.902.233-1.75.398-2.547.506Z" fill="#0a0a0a"></path>
                </g>
                <path id="e1_eb-2" data-name="e1_eb" d="m167.951,488.506c.29.607-1.89,1.866-5.017,3.173s-5.979,2.329-6.308,1.559c-.415-.973,1.797-2.826,4.924-4.133s5.945-1.553,6.4-.599Z" fill="#0a0a0a"></path>
                <circle id="e1_eye-2" data-name="e1_eye" cx="168.894" cy="495.939" r="2.148" transform="translate(-64.732 27.005) rotate(-7.676)" fill="#0a0a0a"></circle>
              </g>
              <path d="m127.72,501.357l.828,8.157c1.292-2.062,3.346-3.653,5.89-4.308.631-.172,1.27-.25,1.9-.281,4.298,2.553,2.296,8.544,5.457,7.948,1.795-.338,5.342-5.162,5.973-7.943.4-1.763-4.985-7.594-5.204-9.388l-14.844,5.815Z" fill="#0a0a0a"></path>
            </g>
            <path d="m263.618,609.299c1.565,13.289,12.855,95.881,15.083,112.187l-147.311,30.187c-3.805-14.339-20.544-77.019-29.514-104.746-8.561-26.458-16.651-39.918-14.577-52.76,2.42-14.99,22.213-20.991,35.037-25.48,7.831-2.741,19.785-6.005,19.785-6.005,0,0,5.278,20.539,29.972,16.682,33.616-5.252,26.582-28.271,26.747-28.305,5.394-1.105,32.3-2.934,40.753-.01,23.034,7.955,20.714,30.088,24.026,58.249Z" fill="#0066f9"></path>
          </g>
          <rect x="267.973" y="617.662" width="1" height="51.833" transform="translate(-90.115 45.51) rotate(-8.302)" fill="#0c0c0c"></rect>
          <path d="m74.715,830.169l-48.169-13.406c22.285-80.077,58.463-211.779,60.672-224.289-.027.154-.266,1.566-.237,3.579l49.995-.707c.07,4.925.112,7.897-31.521,123.452-15.188,55.479-30.585,110.818-30.739,111.371Z" fill="#0066f9"></path>
          <rect x="95.978" y="665.823" width="46.59" height="1" transform="translate(-557.063 638.354) rotate(-77.483)" fill="#0c0c0c"></rect>
          <path d="m231.157,734.964s131.352-67.859,167.736-80.41c9.425-3.251,26.645-6.244,41.408,2.387,44.035,25.747,160.322,130.587,160.322,130.587l-28.249,42.212-153.619-110.015s-73.607,52.512-140.055,75.608l-67.072-7.925,19.529-52.443Z" fill="#262626"></path>
          <path d="m617.891,799.739s23.527-3.824,25.476-25.689c1.949-21.865,19.258-16.601,19.258-16.601l-2.466,83.703-41.819-1.232-.449-40.181Z" fill="#0066f9"></path>
          <path d="m189.502,839.969s-7.025-.47,8.926.056c59.497,1.961,433.102.981,433.102.981l.189-56.044-442.091-31.368-.125,86.376Z" fill="#262626"></path>
          <path d="m348.422,765.173c-.021,0-.042,0-.063-.004l-43.575-5.492c-.274-.034-.468-.284-.434-.559.035-.273.28-.478.559-.434l43.575,5.492c.274.034.468.284.434.559-.032.253-.247.438-.496.438Z" fill="#fff"></path>
          <path d="m596.803,782.6c-.012,0-.024,0-.036,0l-104.699-7.418c-.275-.02-.483-.259-.463-.534.019-.275.264-.493.534-.464l104.699,7.418c.275.02.483.259.463.534-.019.264-.238.465-.498.465Z" fill="#fff"></path>
        </g>
      </g>
    </g>
  </g>
</svg>