<svg width="281" height="163" viewBox="0 0 281 163" fill="none" xmlns="http://www.w3.org/2000/svg" style="width: 100%; height: 100%;">
<g clip-path="url(#clip0_35_2826)">
<path d="M49.465 15.535C57.941 14.499 61.952 8.113 62.958 0.75C62.239 7.09 66.777 13.613 73.585 16.024C70.099 16.195 67.014 18.276 65.227 20.874C63.44 23.472 62.774 26.531 62.446 29.542C62.259 22.079 57.762 15.349 49.465 15.535Z" stroke="#010101" stroke-width="1.5" stroke-linecap="round" stroke-linejoin="round"></path>
<path d="M248.537 114.416C259.641 113.059 264.895 104.693 266.214 95.047C265.273 103.353 271.217 111.898 280.135 115.057C275.569 115.281 271.526 118.007 269.185 121.41C266.844 124.813 265.972 128.821 265.542 132.765C265.297 122.989 259.406 114.172 248.536 114.415L248.537 114.416Z" stroke="#010101" stroke-width="1.5" stroke-linecap="round" stroke-linejoin="round"></path>
<path d="M71.344 72.093C93.614 54.066 157.204 4.35 157.204 4.35C157.204 4.35 212.215 50.615 234.888 68.602C228.859 75.677 221.748 76.771 214.409 82.476C193.999 98.342 173.589 114.207 153.179 130.073C151.906 131.063 150.508 132.098 148.896 132.121C147.887 132.135 146.922 131.744 145.992 131.352C119.253 120.077 94.02 102.388 71.344 72.093Z" fill="#E3E3FF" stroke="#010101" stroke-width="1.5" stroke-linecap="round" stroke-linejoin="round"></path>
<path d="M95.853 126.798C95.727 124.163 105.412 1.897 105.412 1.897L218.556 1.537L209.835 127.286C209.835 127.286 95.863 126.113 95.853 126.799V126.798Z" fill="white" stroke="#010101" stroke-width="1.5" stroke-linecap="round" stroke-linejoin="round"></path>
<path d="M71.344 72.093C69.784 106.545 69.112 127.09 66.692 161.568C103.001 161.568 226.342 161.509 226.342 161.509C226.342 161.509 231.481 113.858 234.887 68.602C200.851 88.326 189.377 94.388 156.31 115.448C133.986 106.149 78.951 73.213 71.343 72.094L71.344 72.093Z" fill="#0066f9" stroke="#010101" stroke-width="1.5" stroke-linecap="round" stroke-linejoin="round"></path>
<path d="M117.372 26.951C125.138 26.845 132.904 26.738 140.671 26.632" stroke="#010101" stroke-width="1.5" stroke-linecap="round" stroke-linejoin="round"></path>
<path d="M117.171 46.426C145.175 47.318 173.205 47.417 201.215 46.725" stroke="#010101" stroke-width="1.5" stroke-linecap="round" stroke-linejoin="round"></path>
<path d="M116.171 64.817C144.37 63.707 172.592 63.204 200.813 63.308" stroke="#010101" stroke-width="1.5" stroke-linecap="round" stroke-linejoin="round"></path>
<path d="M114.387 83.329C143.578 82.14 172.794 81.553 202.009 81.567" stroke="#010101" stroke-width="1.5" stroke-linecap="round" stroke-linejoin="round"></path>
<path d="M83.289 47.179C58.623 49.276 25.133 50.468 0.75 50.718C1.088 63.428 0.398 76.555 1.802 89.574C24.816 88.191 46.801 88.685 70.341 88.058C73.991 90.784 78.338 92.534 83.107 94.674C83.503 78.652 83.77 65.24 83.289 47.179Z" fill="#42d242" stroke="#010101" stroke-width="1.5" stroke-linecap="round" stroke-linejoin="round"></path>
<path d="M11.297 76.742C9.92602 74.017 10.216 70.633 11.661 67.947C13.106 65.261 15.594 63.237 18.35 61.93C22.414 60.002 27.828 59.785 30.91 63.062C32.813 65.085 33.432 68.045 33.242 70.815C33.157 72.049 32.905 73.327 32.139 74.297C31.372 75.267 29.972 75.823 28.851 75.3C27.887 74.851 27.382 73.755 27.244 72.701C26.895 70.026 28.403 67.452 30.197 65.438C32.489 62.863 35.88 60.68 39.212 61.56C42.669 62.473 44.48 66.171 45.855 69.472C46.512 66.96 47.671 63.975 50.242 63.611C53.326 63.175 55.502 66.943 58.59 67.351C60.495 67.603 62.284 66.526 64.092 65.875C67.249 64.739 70.855 64.911 73.889 66.343" stroke="#010101" stroke-width="1.5" stroke-linecap="round" stroke-linejoin="round"></path>
<path d="M84.133 161.473C80.308 152.683 76.48 143.156 72.655 134.365C69.977 128.211 66.994 121.692 61.316 118.114C58.253 116.184 53.976 115.396 51.157 117.668C49.175 119.265 48.437 121.924 47.991 124.43C45.767 136.928 48.178 150.198 55.389 161.34C65.092 161.831 71.346 161.473 84.133 161.473Z" fill="#55D087" stroke="#010101" stroke-width="1.5" stroke-linecap="round" stroke-linejoin="round"></path>
<path d="M55.397 120.653C59.495 134.352 63.473 148.201 68.002 161.098" stroke="#010101" stroke-width="1.5" stroke-linecap="round" stroke-linejoin="round"></path>
<path d="M60.868 161.568C57.276 154.431 53.675 147.277 49.329 140.572C46.201 135.746 42.417 130.948 37.063 128.849C35.17 128.107 32.972 127.753 31.142 128.637C29.071 129.637 27.977 131.984 27.625 134.256C26.86 139.196 28.841 144.128 31.104 148.585C33.243 152.798 35.674 156.864 39.297 161.082C48.052 161.244 54.246 161.446 60.868 161.568Z" fill="#55D087" stroke="#010101" stroke-width="1.5" stroke-linecap="round" stroke-linejoin="round"></path>
<path d="M33.453 130.114C38.002 140.59 43.29 150.745 49.266 160.479" stroke="#010101" stroke-width="1.5" stroke-linecap="round" stroke-linejoin="round"></path>
</g>
<defs>
<clipPath id="clip0_35_2826">
<rect width="280.885" height="162.35" fill="white"></rect>
</clipPath>
</defs>
</svg>