<svg id="Layer_2" data-name="Layer 2" xmlns="http://www.w3.org/2000/svg" viewBox="0 0 620.382 515.378" style="width: 100%; height: 100%;">
  <g id="Layer_2-2" data-name="Layer 2">
    <g>
      <path d="m311.305,346.119c1.54.462,3.084.84,4.628,1.177-1.769,2.956-3.207,6.175-4.242,9.625-6.728,22.432,6.003,46.071,28.435,52.799,7.531,2.259,15.195,2.315,22.312.557,4.481,8.868,12.422,15.967,22.691,19.047,12.664,3.798,25.744.568,35.116-7.405,5.431,8.981,14.082,16.054,24.926,19.307,23.206,6.96,47.659-6.21,54.619-29.416,3.05-10.17,2.234-20.579-1.599-29.651,1.305.489,2.625.953,3.978,1.359,32.489,9.744,66.724-8.694,76.468-41.182,9.744-32.488-8.693-66.724-41.182-76.468-8.56-2.567-17.239-3.161-25.562-2.073-2.604-20.264-16.774-38.103-37.606-44.351-16.774-5.031-34.084-1.416-47.149,8.267-4.227-2.924-8.971-5.252-14.161-6.809-19.11-5.731-38.959.451-51.575,14.254-4.519-2.809-9.47-5.084-14.811-6.686-32.488-9.744-66.724,8.694-76.468,41.182-9.744,32.488,8.694,66.724,41.182,76.467Z" fill="#0066f9" opacity=".2"></path>
      <path d="m315.771,58.489c-1.607,0-3.195.081-4.771.202.846-3.339,1.298-6.836,1.298-10.438,0-23.419-18.985-42.405-42.404-42.405-7.862,0-15.219,2.148-21.531,5.876-6.84-7.207-16.485-11.725-27.206-11.725-13.221,0-24.822,6.851-31.508,17.181-7.782-7.042-18.1-11.332-29.422-11.332-24.227,0-43.866,19.64-43.866,43.867,0,10.617,3.772,20.353,10.05,27.941-1.39-.094-2.788-.159-4.201-.159-33.919,0-61.414,27.496-61.414,61.414s27.495,61.414,61.414,61.414c8.937,0,17.42-1.925,25.08-5.358,8.316,18.662,27.012,31.678,48.762,31.678,17.513,0,33.054-8.435,42.786-21.463,4.889,1.586,10.102,2.454,15.52,2.454,19.951,0,37.187-11.624,45.306-28.469,5.135,1.393,10.532,2.149,16.108,2.149,33.918,0,61.414-27.496,61.414-61.414s-27.496-61.414-61.414-61.414Z" fill="#0066f9" opacity=".2"></path>
      <path d="m355.21,370.378c0,27.52-22.31,49.83-49.83,49.83s-49.83-22.31-49.83-49.83h99.66Z" fill="#fff" stroke="#292a2e" stroke-linecap="round" stroke-linejoin="round" stroke-width="2"></path>
      <path d="m355.205,370.378c0,27.518-22.308,49.826-49.826,49.826s-49.826-22.308-49.826-49.826" fill="#fff" stroke="#292a2e" stroke-linecap="round" stroke-linejoin="round" stroke-width="2"></path>
      <g>
        <path d="m527.119,370.378v124.31c0,10.87-8.82,19.69-19.7,19.69H103.34c-10.88,0-19.7-8.82-19.7-19.69v-124.31h171.91c0,27.52,22.31,49.83,49.83,49.83s49.83-22.31,49.83-49.83h171.91Z" fill="#fff"></path>
        <path d="m507.42,515.378H103.34c-11.414,0-20.7-9.281-20.7-20.69v-124.31c0-.553.447-1,1-1h171.91c.553,0,1,.447,1,1,0,26.925,21.905,48.83,48.83,48.83s48.83-21.905,48.83-48.83c0-.553.447-1,1-1h171.909c.553,0,1,.447,1,1v124.31c0,11.409-9.286,20.69-20.699,20.69ZM84.639,371.378v123.31c0,10.306,8.389,18.69,18.7,18.69h404.08c10.311,0,18.699-8.385,18.699-18.69v-123.31h-169.919c-.534,27.569-23.126,49.83-50.82,49.83s-50.286-22.261-50.82-49.83H84.639Z" fill="#292a2e"></path>
        <path d="m527.119,370.378h-171.91c0,27.52-22.31,49.83-49.83,49.83s-49.83-22.31-49.83-49.83H83.639l125.68-79.06h197.15l120.65,79.06Z" fill="#0066f9"></path>
        <path d="m527.119,370.378h-171.91c0,27.52-22.31,49.83-49.83,49.83s-49.83-22.31-49.83-49.83H83.639l125.68-79.06h197.15l120.65,79.06Z" fill="#fff" opacity=".6"></path>
        <path d="m305.38,421.208c-27.694,0-50.286-22.261-50.82-49.83H83.639c-.445,0-.837-.295-.961-.723-.123-.429.052-.887.429-1.124l125.68-79.061c.159-.1.344-.153.532-.153h197.15c.194,0,.385.057.548.164l120.649,79.061c.37.242.537.698.41,1.122-.126.424-.516.714-.958.714h-170.919c-.534,27.569-23.126,49.83-50.82,49.83Zm-218.272-51.83h168.442c.553,0,1,.447,1,1,0,26.925,21.905,48.83,48.83,48.83s48.83-21.905,48.83-48.83c0-.553.447-1,1-1h168.559l-117.598-77.061h-196.563l-122.5,77.061Z" fill="#292a2e"></path>
      </g>
      <path d="m141.548,297.746c-.199,0-.401-.06-.577-.185-.45-.319-.557-.943-.237-1.394.185-.262,18.258-26.39-1.918-50.209-8.278-9.773-19.477-13.517-29.096-13.517-.089,0-.179,0-.267,0,1.916,6.656,1.574,12.574-1.139,17.114-2.564,4.292-7.14,6.814-11.681,6.42-4.003-.346-7.166-2.807-8.679-6.752-2.219-5.788.104-11.402,6.212-15.017,3.271-1.936,7.666-3.244,12.589-3.62-1.253-3.44-3.114-7.079-5.565-10.821-7.285-11.126-20.562-18.828-36.429-21.131-13.445-1.952-26.331.347-32.832,5.853-.424.358-1.055.303-1.409-.117-.357-.421-.305-1.053.116-1.41,6.919-5.86,20.426-8.336,34.412-6.305,16.434,2.385,30.216,10.409,37.815,22.014,2.667,4.073,4.663,8.048,5.968,11.815,10.346-.242,22.568,3.625,31.509,14.18,21.193,25.02,2.218,52.386,2.023,52.659-.195.274-.503.421-.816.421Zm-34.147-65.23c-4.785.305-9.06,1.546-12.215,3.414-5.276,3.123-7.23,7.708-5.363,12.58,1.228,3.202,3.773,5.198,6.984,5.476,3.761.325,7.616-1.815,9.791-5.454,2.492-4.17,2.721-9.713.803-16.016Z" fill="#292a2e"></path>
      <g>
        <path d="m14.668,220.614c-1.484.446-3.064.373-4.519-.222-1.68-.688-2.993-1.988-3.695-3.663s-.711-3.523-.024-5.204c.688-1.68,1.988-2.993,3.663-3.696,3.451-1.446,7.45.182,8.899,3.639,1.45,3.458-.183,7.45-3.64,8.9-.225.094-.453.176-.684.246Zm-3.325-11.112c-.161.048-.32.105-.478.172-1.182.496-2.1,1.422-2.585,2.608-.485,1.187-.479,2.491.016,3.673.496,1.182,1.423,2.1,2.609,2.585,1.186.485,2.489.48,3.672-.017,2.44-1.023,3.593-3.841,2.57-6.282-.958-2.282-3.486-3.437-5.805-2.74Z" fill="#292a2e"></path>
        <path d="m14.656,204.941c-1.485.447-3.065.373-4.52-.222-1.681-.687-2.994-1.988-3.695-3.663h0c-.703-1.675-.712-3.522-.024-5.203s1.988-2.994,3.664-3.697c1.672-.699,3.523-.71,5.203-.023,1.681.687,2.994,1.988,3.695,3.663.703,1.674.712,3.522.024,5.203-.687,1.681-1.988,2.994-3.664,3.697-.225.094-.453.176-.683.245Zm-3.321-11.114c-.163.049-.323.106-.482.173-1.182.496-2.1,1.422-2.586,2.608-.484,1.186-.479,2.491.017,3.673h0c.496,1.182,1.422,2.101,2.609,2.585,1.186.485,2.483.481,3.673-.016,1.182-.496,2.1-1.422,2.586-2.608.484-1.186.479-2.491-.017-3.673-.496-1.182-1.422-2.101-2.609-2.585-1.027-.42-2.142-.472-3.19-.157Z" fill="#292a2e"></path>
        <ellipse cx="12.715" cy="206.074" rx="8.892" ry="5.939" fill="#fff"></ellipse>
        <path d="m16.648,212.45c-1.223.368-2.555.562-3.927.563-5.547.005-9.895-3.04-9.898-6.931-.003-3.892,4.339-6.942,9.885-6.948,2.571-.002,5.002.673,6.845,1.902,1.967,1.311,3.051,3.097,3.053,5.028.002,1.931-1.079,3.719-3.044,5.034-.858.574-1.845,1.029-2.914,1.35Zm-7.26-10.836c-2.672.804-4.566,2.527-4.565,4.466.002,2.677,3.617,4.936,7.895,4.933,2.181-.002,4.217-.562,5.731-1.576,1.391-.931,2.157-2.128,2.156-3.369-.001-1.242-.769-2.437-2.162-3.366-1.518-1.012-3.554-1.568-5.733-1.566-1.179,0-2.307.173-3.322.479Z" fill="#292a2e"></path>
        <polygon points="14.896 211.831 14.686 200.282 11.814 200.165 11.613 211.967 14.896 211.831" fill="#292a2e"></polygon>
        <circle cx=".918" cy="207.669" r=".918" fill="#292a2e"></circle>
        <circle cx="1.635" cy="202.756" r=".918" fill="#292a2e"></circle>
      </g>
      <g>
        <path d="m194.086,137.677h219.798v146.56c0,4.742-3.85,8.591-8.591,8.591h-202.616c-4.742,0-8.591-3.85-8.591-8.591v-146.56h0Z" transform="translate(116.706 -106.721) rotate(24.513)" fill="#0066f9"></path>
        <path d="m194.086,137.677h219.798v146.56c0,4.742-3.85,8.591-8.591,8.591h-202.616c-4.742,0-8.591-3.85-8.591-8.591v-146.56h0Z" transform="translate(116.706 -106.721) rotate(24.513)" fill="#fff"></path>
        <path d="m367.536,329.647c-1.354,0-2.705-.29-3.975-.869l-184.354-84.064c-4.812-2.194-6.941-7.895-4.747-12.706l60.808-133.351c.229-.502.822-.724,1.325-.495l199.987,91.193c.241.11.429.311.521.56s.083.523-.026.765l-60.808,133.351c-1.063,2.331-2.971,4.108-5.37,5.005-1.093.408-2.229.611-3.361.611ZM236.673,100.396l-60.393,132.441c-1.737,3.808-.052,8.319,3.757,10.057l184.354,84.063h0c1.846.843,3.905.912,5.806.205,1.899-.71,3.409-2.117,4.25-3.962l60.393-132.441-198.167-90.364Z" fill="#292a2e"></path>
        <path d="m437.046,189.792l-62.537-116.407c-1.856-3.458-5.825-5.267-9.658-4.404l-128.894,29.115c-.338.077-.613.323-.726.651-.112.329-.047.691.174.959l70.63,85.837c4.095,5.141,10.424,8.183,16.993,8.183.114,0,.229,0,.343-.002l112.815-2.459c.349-.008.667-.196.843-.496.175-.301.182-.671.017-.977Z" fill="#292a2e"></path>
        <circle cx="272.786" cy="200.264" r="6.293" fill="#292a2e"></circle>
        <circle cx="331.817" cy="227.105" r="6.293" fill="#292a2e"></circle>
        <path d="m353.372,229.607c-6.748,0-13.181-3.12-17.357-8.583-3.503-4.583-5.037-10.258-4.321-15.981.068-.547.562-.936,1.116-.868.548.068.937.568.868,1.116-.65,5.199.744,10.355,3.927,14.518,4.438,5.807,11.683,8.701,18.905,7.549.554-.087,1.058.286,1.145.831.087.545-.285,1.058-.83,1.145-1.153.183-2.308.273-3.452.273Z" fill="#292a2e"></path>
        <path d="m271.492,192.868c-.961,0-1.929-.063-2.897-.192-5.718-.762-10.817-3.689-14.358-8.241-.339-.436-.261-1.064.175-1.403.438-.339,1.064-.26,1.403.175,3.218,4.136,7.85,6.794,13.044,7.487,7.25.965,14.411-2.113,18.706-8.034.323-.448.95-.547,1.396-.223.447.324.547.95.223,1.396-4.152,5.725-10.745,9.035-17.691,9.035Z" fill="#292a2e"></path>
        <path d="m302.213,274.849c-.445,0-.851-.299-.968-.75-3.326-12.895-14.961-21.949-28.295-22.021-.054,0-.107,0-.16,0-5.86,0-11.516,1.719-16.363,4.977-.46.308-1.079.186-1.388-.272-.308-.458-.187-1.08.272-1.388,5.179-3.48,11.22-5.317,17.479-5.317.057,0,.113,0,.17,0,14.242.076,26.669,9.748,30.223,23.521.138.535-.185,1.08-.719,1.219-.084.021-.168.031-.251.031Z" fill="#292a2e"></path>
      </g>
      <path d="m450.618,268.369c-.429,0-.824-.276-.956-.707-.055-.178-5.395-17.964-2.606-38.021,2.585-18.598,12.843-43.011,47.03-53.701,5.562-1.739,10.451-2.814,14.748-3.381,1.61-10.061,7.739-20.975,21.443-28.505,32.562-17.892,54.558-1.839,54.775-1.675.44.332.529.958.198,1.399-.331.442-.957.53-1.4.2-.208-.156-21.228-15.417-52.61,1.829-12.807,7.037-18.669,17.137-20.336,26.513,15.079-1.485,22.302,3.545,25.541,7.345,4.122,4.833,5.031,11.481,2.316,16.938-2.301,4.626-6.732,7.219-11.835,6.909-8.421-.494-15.39-7.578-17.752-18.048-.735-3.261-1-6.946-.614-10.804-4.294.585-8.941,1.647-13.877,3.19-26.645,8.332-42.003,25.85-45.647,52.067-2.728,19.624,2.485,36.987,2.538,37.16.162.528-.136,1.088-.663,1.249-.098.03-.196.044-.293.044Zm59.981-93.955c-.433,3.792-.193,7.417.526,10.609,2.161,9.578,8.409,16.051,15.918,16.492,4.273.244,7.994-1.918,9.928-5.804,2.356-4.738,1.553-10.527-2.048-14.75-4.676-5.483-13.209-7.699-24.324-6.548Z" fill="#292a2e"></path>
      <g>
        <path d="m608.347,152.487c-1.354,0-2.682-.387-3.848-1.137-1.604-1.032-2.711-2.626-3.116-4.49-.835-3.847,1.615-7.658,5.463-8.494,3.849-.836,7.657,1.615,8.494,5.462h0c.835,3.848-1.615,7.658-5.464,8.494-.508.111-1.021.165-1.529.165Zm.015-12.285c-.36,0-.726.039-1.092.118-2.77.602-4.533,3.345-3.932,6.115.291,1.342,1.088,2.49,2.242,3.233,1.155.743,2.532.993,3.872.7,2.77-.602,4.534-3.345,3.933-6.115-.522-2.404-2.658-4.051-5.023-4.051Z" fill="#292a2e"></path>
        <path d="m605.335,168.809c-1.354,0-2.683-.387-3.849-1.137-1.604-1.032-2.71-2.626-3.115-4.49-.404-1.864-.06-3.774.973-5.378,1.031-1.604,2.626-2.71,4.49-3.115,1.862-.406,3.773-.06,5.378.972,1.604,1.032,2.71,2.626,3.115,4.49.404,1.864.06,3.774-.973,5.378-1.031,1.604-2.626,2.71-4.49,3.115-.509.111-1.021.165-1.529.165Zm.025-12.285c-.367,0-.735.039-1.103.119-1.342.292-2.489,1.088-3.232,2.243-.742,1.155-.991,2.53-.699,3.872.291,1.342,1.088,2.49,2.242,3.233,1.156.744,2.531.992,3.872.7,1.342-.292,2.489-1.088,3.232-2.243.742-1.155.991-2.53.699-3.872-.291-1.342-1.088-2.49-2.242-3.233-.84-.54-1.795-.818-2.77-.818Z" fill="#292a2e"></path>
        <ellipse cx="606.819" cy="153.701" rx="6.289" ry="9.416" transform="translate(345.55 722.552) rotate(-79.545)" fill="#fff"></ellipse>
        <path d="m608.197,161.12c-.885,0-1.791-.083-2.7-.25-2.666-.492-5.056-1.659-6.729-3.286-1.781-1.731-2.56-3.781-2.191-5.772.367-1.991,1.826-3.628,4.107-4.61,2.143-.923,4.79-1.159,7.458-.668,2.666.492,5.056,1.659,6.729,3.286,1.781,1.731,2.56,3.781,2.191,5.772-.367,1.991-1.826,3.628-4.107,4.61-1.413.608-3.046.918-4.758.918Zm-2.762-12.838c-1.438,0-2.796.256-3.961.757-1.647.709-2.688,1.823-2.931,3.136-.242,1.313.332,2.725,1.618,3.975,1.394,1.354,3.417,2.333,5.698,2.753,2.28.419,4.52.229,6.305-.538,1.647-.709,2.688-1.823,2.931-3.136h0c.242-1.313-.332-2.725-1.618-3.976-1.394-1.354-3.417-2.332-5.698-2.753-.792-.146-1.579-.219-2.344-.219Z" fill="#292a2e"></path>
        <polygon points="605.66 147.285 603.649 159.351 606.617 160.027 609.105 147.778 605.66 147.285" fill="#292a2e"></polygon>
        <circle cx="617.715" cy="159.294" r=".972" fill="#292a2e"></circle>
        <circle cx="619.41" cy="154.318" r=".972" fill="#292a2e"></circle>
      </g>
    </g>
  </g>
</svg>