<svg id="Layer_2" data-name="Layer 2" xmlns="http://www.w3.org/2000/svg" viewBox="0 0 793.514 562.941" style="width: 100%; height: 100%;">
  <g id="Layer_2-2" data-name="Layer 2">
    <g>
      <g>
        <path d="m172.366,283.564c-1.208,0-2.186-.978-2.186-2.186v-61.676c0-1.208.978-2.186,2.186-2.186s2.186.978,2.186,2.186v61.676c0,1.208-.978,2.186-2.186,2.186Z" fill="#262626"></path>
        <g>
          <line x1="192.49" y1="250.54" x2="152.242" y2="250.54" fill="#fff"></line>
          <path d="m192.489,252.726h-40.248c-1.208,0-2.186-.978-2.186-2.186s.978-2.186,2.186-2.186h40.248c1.208,0,2.186.978,2.186,2.186s-.978,2.186-2.186,2.186Z" fill="#262626"></path>
        </g>
      </g>
      <g>
        <path d="m700.757,438.158c-.852,0-1.542-.69-1.542-1.542v-33.081c0-.852.69-1.542,1.542-1.542s1.542.69,1.542,1.542v33.081c0,.852-.69,1.542-1.542,1.542Z" fill="#262626"></path>
        <g>
          <line x1="711.551" y1="420.075" x2="689.963" y2="420.075" fill="#fff"></line>
          <path d="m711.551,421.617h-21.588c-.852,0-1.542-.69-1.542-1.542s.69-1.542,1.542-1.542h21.588c.852,0,1.542.69,1.542,1.542s-.69,1.542-1.542,1.542Z" fill="#262626"></path>
        </g>
      </g>
      <g>
        <path d="m633.835,53.867c-.852,0-1.542-.69-1.542-1.542V19.244c0-.852.69-1.542,1.542-1.542s1.542.69,1.542,1.542v33.081c0,.852-.69,1.542-1.542,1.542Z" fill="#262626"></path>
        <g>
          <line x1="644.629" y1="35.784" x2="623.041" y2="35.784" fill="#fff"></line>
          <path d="m644.629,37.326h-21.588c-.852,0-1.542-.69-1.542-1.542s.69-1.542,1.542-1.542h21.588c.852,0,1.542.69,1.542,1.542s-.69,1.542-1.542,1.542Z" fill="#262626"></path>
        </g>
      </g>
      <path d="m741.029,562.941H187.922c-.829,0-1.5-.672-1.5-1.5s.671-1.5,1.5-1.5h553.107c.829,0,1.5.672,1.5,1.5s-.671,1.5-1.5,1.5Z" fill="#262626"></path>
      <g>
        <path d="m590.173,501.079h-266.445c-.969,0-1.798-.696-1.966-1.65L234.717,3.991h-82.666c-1.102,0-1.995-.894-1.995-1.995s.893-1.995,1.995-1.995h84.342c.969,0,1.798.696,1.966,1.65l87.045,495.439h264.77c1.102,0,1.995.894,1.995,1.995s-.894,1.995-1.995,1.995Z" fill="#262626"></path>
        <path d="m627.793,363.857h-328.401c-1.102,0-1.995-.894-1.995-1.995s.894-1.995,1.995-1.995h326.888l63.8-228.09h-429.699c-1.102,0-1.995-.894-1.995-1.995s.894-1.995,1.995-1.995h432.33c.624,0,1.212.292,1.59.79.377.496.5,1.142.331,1.743l-64.917,232.081c-.24.861-1.026,1.458-1.921,1.458Z" fill="#262626"></path>
        <path d="m471.306,361.895c-1.102,0-1.995-.894-1.995-1.995v-226.196c0-1.102.894-1.995,1.995-1.995s1.995.894,1.995,1.995v226.196c0,1.102-.894,1.995-1.995,1.995Z" fill="#262626"></path>
        <path d="m525.789,361.895c-.058,0-.117-.003-.175-.008-1.098-.095-1.911-1.063-1.815-2.16l19.619-226.196c.095-1.099,1.069-1.923,2.16-1.815,1.098.095,1.911,1.063,1.815,2.16l-19.619,226.196c-.09,1.039-.961,1.823-1.985,1.823Z" fill="#262626"></path>
        <path d="m580.27,361.895c-.113,0-.229-.009-.344-.03-1.085-.188-1.812-1.221-1.624-2.307l39.237-226.196c.187-1.085,1.216-1.829,2.307-1.624,1.085.188,1.812,1.221,1.624,2.307l-39.237,226.196c-.168.969-1.011,1.654-1.963,1.654Z" fill="#262626"></path>
        <path d="m416.823,361.895c-1.024,0-1.895-.783-1.985-1.823l-19.619-226.196c-.096-1.098.717-2.066,1.815-2.16,1.078-.107,2.066.716,2.16,1.815l19.619,226.196c.096,1.098-.717,2.066-1.815,2.16-.058.005-.117.008-.175.008Z" fill="#262626"></path>
        <path d="m362.342,361.895c-.952,0-1.795-.683-1.963-1.654l-39.918-230.119c-.188-1.086.539-2.119,1.624-2.307,1.09-.188,2.12.539,2.307,1.624l39.918,230.119c.188,1.086-.539,2.119-1.624,2.307-.116.021-.231.03-.344.03Z" fill="#262626"></path>
        <path d="m671.755,206.471h-399.215c-1.102,0-1.995-.894-1.995-1.995s.894-1.995,1.995-1.995h399.215c1.102,0,1.995.894,1.995,1.995s-.894,1.995-1.995,1.995Z" fill="#262626"></path>
        <path d="m650.458,284.947h-362.849c-1.102,0-1.995-.894-1.995-1.995s.894-1.995,1.995-1.995h362.849c1.102,0,1.995.894,1.995,1.995s-.894,1.995-1.995,1.995Z" fill="#262626"></path>
        <path d="m352.864,504.665c14.302,0,25.938,11.636,25.938,25.938s-11.636,25.937-25.938,25.937-25.938-11.635-25.938-25.937,11.636-25.938,25.938-25.938m0-3.991c-16.529,0-29.928,13.399-29.928,29.929s13.399,29.928,29.928,29.928,29.928-13.399,29.928-29.928-13.399-29.929-29.928-29.929h0Z" fill="#262626"></path>
        <path d="m557.738,504.491c14.302,0,25.938,11.635,25.938,25.937s-11.636,25.938-25.938,25.938-25.938-11.636-25.938-25.938,11.636-25.937,25.938-25.937m0-3.991c-16.529,0-29.928,13.399-29.928,29.928s13.399,29.929,29.928,29.929,29.928-13.4,29.928-29.929-13.399-29.928-29.928-29.928h0Z" fill="#262626"></path>
      </g>
      <path d="m207.45,560.357c-72.831,0-125.684-73.969-104.701-147.534,11.866-41.603,35.44-82.195,80.271-106.816,122.678-67.375,111.871-48.901,169.701-162.118,57.83-113.217,205.392-125.453,287.515-45.702,116.154,112.798,47.184,188.036,120.689,265.571.766.808,1.521,1.62,2.267,2.436,66.412,72.74,16.437,194.164-79.303,194.164H207.45Z" fill="#0066f9" opacity=".1"></path>
      <path d="m241.253,438.116H63.23c-.829,0-1.5-.672-1.5-1.5s.671-1.5,1.5-1.5h178.022c.829,0,1.5.672,1.5,1.5s-.671,1.5-1.5,1.5Z" fill="#262626"></path>
      <path d="m85.827,506.165H1.5c-.829,0-1.5-.672-1.5-1.5s.671-1.5,1.5-1.5h84.327c.829,0,1.5.672,1.5,1.5s-.671,1.5-1.5,1.5Z" fill="#262626"></path>
    </g>
  </g>
</svg>