<svg id="Layer_2" data-name="Layer 2" xmlns="http://www.w3.org/2000/svg" xmlns:xlink="http://www.w3.org/1999/xlink" viewBox="0 0 701.049 713.993" style="width: 100%; height: 100%;">
  <defs>
    <pattern id="New_Pattern" data-name="New Pattern" x="0" y="0" width="50" height="70" patternTransform="translate(442.954 -3523.681)" patternUnits="userSpaceOnUse" viewBox="0 0 50 70">
      <g>
        <rect width="50" height="70" fill="none"></rect>
        <circle cx="50" cy="70" r="7.985" fill="#fff" stroke="#000" stroke-linecap="round" stroke-linejoin="round"></circle>
        <circle cx="0" cy="70" r="7.985" fill="#fff" stroke="#000" stroke-linecap="round" stroke-linejoin="round"></circle>
        <circle cx="25" cy="35" r="7.985" fill="#fff" stroke="#000" stroke-linecap="round" stroke-linejoin="round"></circle>
        <circle cx="50" cy="0" r="7.985" fill="#fff" stroke="#000" stroke-linecap="round" stroke-linejoin="round"></circle>
        <circle cx="0" cy="0" r="7.985" fill="#fff" stroke="#000" stroke-linecap="round" stroke-linejoin="round"></circle>
      </g>
    </pattern>
  </defs>
  <g id="Layer_1-2" data-name="Layer 1">
    <g>
      <g>
        <g>
          <path d="m633.353,490.272c.333-.106-6.998-39.053-6.998-39.053l15.531-3.702,20.843,35.29-29.376,7.465Z" fill="#0066f9" stroke="#000" stroke-linecap="round" stroke-linejoin="round" stroke-width="1.5"></path>
          <path d="m652.732,444.567l35.582-4.413,2.091,13.969c-2.929,1.823-6.358,4.796-6.358,4.796l7.603,3.519,8.649,57.781s-15.253,8.483-19.604-13.827c-4.598-23.578-35.841-17.721-35.841-17.721l-2.55-17.034,10.225-6.873-11.889-4.242-2.071-13.834,14.163-2.12Z" fill="#fff" stroke="#000" stroke-linecap="round" stroke-linejoin="round" stroke-width="1.5"></path>
          <path d="m534.116,351.242l-14.109,125.78,109.94-27.117,5.324,39.326-128.003,37.523c-13.551,3.713-28.256-.519-37.19-11.363-4.208-5.107-7.051-11.433-7.904-18.476l-.189-1.567,7.983-134.924" fill="#fff" stroke="#000" stroke-linecap="round" stroke-linejoin="round" stroke-width="1.5"></path>
          <polygon points="612.54 650.468 612.545 676.345 572.784 650.468 549.704 495.076 542.861 412.481 597.971 404.333 612.54 650.468" fill="#fff" stroke="#000" stroke-linecap="round" stroke-linejoin="round" stroke-width="1.5"></polygon>
          <path d="m572.784,650.468c.056.345,39.756,0,39.756,0v30.157h-36.723l-3.033-30.157Z" fill="#0066f9" stroke="#000" stroke-linecap="round" stroke-linejoin="round" stroke-width="1.5"></path>
          <path d="m615.117,677.4l-.903,35.843h-14.125c-1.37-3.166-3.802-6.998-3.802-6.998l-4.606,6.998h-58.425s-6.131-16.341,16.576-17.341c23.999-1.057,22.832-32.823,22.832-32.823h17.224l5.284,11.13,5.956-11.13h13.988v14.321Z" fill="#fff" stroke="#000" stroke-linecap="round" stroke-linejoin="round" stroke-width="1.5"></path>
          <path d="m448.084,170.85s9.507-5.501,7.603-18.871c-1.904-13.37-9.355-15.475-2.17-34.027,4.268-11.019,9.522-10.687,7.826-23.784-2.913-22.494,14.777-43.208,36.964-44.798,22.187-1.591,38.259,12.543,44.493,34.351,0,0,1.757,15.022,13.052,21.143,11.296,6.121,11.614,15.665,10.933,24.118s-.746,14.429,10.825,21.023c5.658,3.224,13.204,7.433,12.773,22.701l-146.526,27.089s-9.9-17.304,4.226-28.944Z" fill="#0066f9" stroke="#000" stroke-linecap="round" stroke-linejoin="round" stroke-width="1.5"></path>
          <path d="m578.105,191.661c4.449,38.847,8.475,104.461,8.475,104.461l-112.032,14.638c-13.428-50.145-23.696-98.323-23.99-110.097,0,0-7.448-36.236,28.058-41.151l64.872-8.947s16.261-2.976,27.394,9.538" stroke="#fff" stroke-linecap="round" stroke-linejoin="round" stroke-width="1.5"></path>
          <path d="m491.93,157.675s-7.759,15.201,4.304,21.888c10.029,5.56,12.993-7.774,12.993-7.774" stroke="#fff" stroke-linecap="round" stroke-linejoin="round" stroke-width="1.5"></path>
          <g>
            <path d="m509.226,171.789s4.351,10.318,15.577,5.046c11.225-5.272,7.995-21.257,3.983-24.354" stroke="#fff" stroke-linecap="round" stroke-linejoin="round" stroke-width="1.5"></path>
            <path d="m525.592,111.682c4.747-.427,8.244-4.673,7.811-9.484-.415-4.603-4.28-8.046-8.772-7.959-4.667-15.232-18.37-25.926-34.667-24.459-12.254,1.103-16.132,8.089-21.207,18.491-2.685,5.505.443,36.381,5.061,42.712,3.088,4.233,8.256,6.843,16.333,7.555l1.692,17.995s.149,16.85,19.15,15.149c21.442-1.919,17.794-19.201,17.794-19.201,0,0-3.811-38.641-3.359-40.793.055-.004.109-.001.165-.006Z" fill="#fff" stroke="#000" stroke-linecap="round" stroke-linejoin="round" stroke-width="1.5"></path>
            <path d="m490.344,138.529s8.254,1.002,15.756-4.47" fill="#fff" stroke="#000" stroke-linecap="round" stroke-linejoin="round" stroke-width="1.5"></path>
          </g>
          <path d="m479.702,102.141l-.026-.147c-.046-.195-.136-.365-.268-.51-.106-.163-.246-.292-.421-.386-.172-.11-.358-.169-.558-.178-.199-.045-.399-.036-.598.027l-.358.151c-.225.133-.405.313-.538.538l-.151.358c-.071.266-.071.532,0,.798l.026.147c.046.195.136.365.268.51.106.163.246.292.421.386.172.11.358.169.558.178.199.045.399.036.598-.027l.358-.151c.225-.133.405-.313.538-.538l.151-.358c.071-.266.071-.532,0-.798h0Z"></path>
          <path d="m484.006,108.862l-.59,4.28c-.109.79.62,1.438,1.392,1.237l3.669-.956" fill="#fff" stroke="#000" stroke-linecap="round" stroke-linejoin="round" stroke-width="1.5"></path>
          <path d="m472.061,99.014s3.329-4.607,7.616-3.262" fill="#fff" stroke="#000" stroke-linecap="round" stroke-linejoin="round" stroke-width="1.5"></path>
          <path d="m506.101,134.059l-14.545,19.093-1.304-14.048s4.806-.341,9.476-2.063c4.67-1.722,6.374-2.983,6.374-2.983Z" stroke="#000" stroke-linecap="round" stroke-linejoin="round" stroke-width="1.5"></path>
          <path d="m492.313,93.226s4.771-2.573,7.316.313" fill="#fff" stroke="#000" stroke-linecap="round" stroke-linejoin="round" stroke-width="1.5"></path>
          <path d="m476.132,196.03l-83.137,31.1c-.264.099-.551.038-.751-.133l-66.494-57.222c-.263-.227-.293-.624-.066-.887.226-.263.622-.294.885-.067l66.652,57.038-.751-.133,83.137-31.1c.388-.145.82.052.965.44s-.052.82-.44.965c0,0,.388-.145,0,0Z"></path>
          <circle cx="526.487" cy="44.088" r="17.849" fill="#0066f9" stroke="#000" stroke-linecap="round" stroke-linejoin="round" stroke-width="1.5"></circle>
          <line x1="509.083" y1="172.228" x2="524.893" y2="304.181" stroke="#fff" stroke-linecap="round" stroke-linejoin="round" stroke-width="1.5"></line>
          <path d="m478.836,73.647s8.417,14.884,27.342,14.975c11.417.055,13.558,8.436,13.558,8.436,0,0,3.216-3.416,7.102-2.462,7.857,1.929-14.884-29.727-14.884-29.727l-29.136-3.675-3.982,12.453Z" fill="#0066f9"></path>
          <path d="m484.356,69.744s4.769,19.555-21.343,29.15l5.668-22.692,17.384-14.389-1.708,7.93Z" fill="#0066f9"></path>
          <path d="m483.899,79.34c4.285,4.207,11.359,9.23,22.28,9.282,11.417.055,13.558,8.436,13.558,8.436,0,0,3.216-3.416,7.102-2.462" fill="#0066f9" stroke="#000" stroke-linecap="round" stroke-linejoin="round" stroke-width="1.5"></path>
          <path d="m483.834,79.574c-1.568,5.543-5.748,12.344-16.199,17.374" fill="#0066f9" stroke="#000" stroke-linecap="round" stroke-linejoin="round" stroke-width="1.5"></path>
          <g>
            <path d="m548.075,103.089s-2.594-1.251-6.386-1.9c-8.397-1.436-20.415-2.549-20.467-5.145-.061-3.02,5.433-2.92,21.555-2.066,0,0-22.749-6.16-22.827-10.35-.078-4.208,24.007,3.653,24.007,3.653,0,0-5.459-1.359-4.544-4.783,1.033-3.866,7.663-.64,7.663-.64,0,0-5.872-2.69-4.454-5.384,1.097-2.086,4.22-1.154,9.105.329,5.022,1.525,22.717,6.835,26.606,9.563l20.637,10.963" fill="#fff" stroke="#000" stroke-linecap="round" stroke-linejoin="round" stroke-width="1.5"></path>
            <path d="m578.105,116.82s-18.967-9.853-25.492-7.59c-6.525,2.263-8.936,5.481-11.722,2.781-1.532-1.485,6.617-9.771,14.957-13.798" fill="#fff" stroke="#000" stroke-linecap="round" stroke-linejoin="round" stroke-width="1.5"></path>
            <path d="m549.096,88.672c-1.343,2.197-1.919,5.564-1.482,8.818" fill="#fff" stroke="#000" stroke-linecap="round" stroke-linejoin="round" stroke-width="1.5"></path>
            <path d="m543.092,87.005s9.433,3.529,10.285.563c.89-3.096-6.976-6.053-6.976-6.053" fill="#fff" stroke="#000" stroke-linecap="round" stroke-linejoin="round" stroke-width="1.5"></path>
            <path d="m545.861,81.211s7.421,3.337,8.344.731c.759-2.141-2.389-5.476-5.688-6.078" fill="#fff" stroke="#000" stroke-linecap="round" stroke-linejoin="round" stroke-width="1.5"></path>
          </g>
          <path d="m567.163,199.232l104.101-37.714.771-.279c6.589-2.422,12.129-7.583,14.808-14.665,4.897-12.95-1.63-27.418-14.58-32.315l-85.036-32.161-17.306,42.117,24.941,11.083-49.002,14.958" stroke="#fff" stroke-linecap="round" stroke-linejoin="round" stroke-width="1.5"></path>
          <path d="m498.176,97.402s-3.057.317-3.926,2.715c0,0,1.95-.211,3.215.421" fill="#fff" stroke="#000" stroke-linecap="round" stroke-linejoin="round" stroke-width="1.5"></path>
          <path d="m489.464,120.897s4.463,1,8.698-3.14" fill="#fff" stroke="#000" stroke-linecap="round" stroke-linejoin="round" stroke-width="1.5"></path>
          <path d="m493.313,120.647s2.517,5.482,6.037,4.378c3.52-1.104-1.546-6.655-1.546-6.655" fill="none" stroke="#000" stroke-linecap="round" stroke-linejoin="round" stroke-width="1.5"></path>
          <polyline points="534.467 425.424 528.589 459.427 451.59 458.337 475.548 309.759 585.58 296.121 610.939 446.201 540.816 459.851 534.467 425.424" fill="#0066f9"></polyline>
          <polyline points="534.409 425.681 528.589 459.427 451.59 458.337 475.548 309.759 585.58 296.121 610.939 446.201 540.816 459.851 527.886 389.739" fill="url(#New_Pattern)" stroke="#000" stroke-linecap="round" stroke-linejoin="round" stroke-width="1.5"></polyline>
          <line x1="594.864" y1="135.298" x2="633.659" y2="151.411" stroke="#fff" stroke-linecap="round" stroke-linejoin="round" stroke-width="1.5"></line>
        </g>
        <g>
          <path d="m297.435,679.069l2.401,33.913h-80.601s-10.238-16.694,14.232-18.733c15.503-1.292,16.166-16.795,16.166-16.795" fill="#fff" stroke="#000" stroke-linecap="round" stroke-linejoin="round" stroke-width="1.5"></path>
          <path d="m187.344,679.069l5.779,33.913h-83.98s-10.238-16.694,14.232-18.733c15.503-1.292,16.166-16.795,16.166-16.795" fill="#fff" stroke="#000" stroke-linecap="round" stroke-linejoin="round" stroke-width="1.5"></path>
          <g>
            <path d="m236.45,684.769l66.442-1.877-15.702-390.673c-.928-21.748-19.313-38.614-41.058-37.7-6.458.275-13.355,1.955-19.842,4.736-6.548-4.849-14.003-8.501-21.13-10.313-16.793-4.27-34.822,24.13-35.883,28.303l-62.702,199.502c-1.364,5.364-1.583,10.955-.642,16.409l19.299,192.744,70.196-2.628-10.385-195.237,23.536-75.163,27.87,271.896Z"></path>
            <line x1="208.58" y1="412.873" x2="205.498" y2="370.345" fill="none" stroke="#fff" stroke-linecap="round" stroke-linejoin="round" stroke-width="1.5"></line>
          </g>
        </g>
        <g>
          <path d="m285.835,308.173l-122.575-16.833c4.108-95.371,3.608-104.847,6.582-116.334,5.432-20.975,21.704-34.77,43.169-31.814l53.679,7.601c26.577,3.661,34.118,15.274,31.25,41.949-3.481,32.389-12.106,115.43-12.106,115.43Z" fill="#fff"></path>
          <g>
            <path d="m122.841,98.819s.034-2.879,1.142-6.564c2.453-8.158,6.808-19.414,4.508-20.617-2.677-1.4-5.034,3.564-11.448,18.38,0,0,4.615-23.112.897-25.048-3.733-1.943-7.42,23.122-7.42,23.122,0,0,1.214-5.493-2.259-6.198-3.922-.796-3.985,6.576-3.985,6.576,0,0,.206-6.455-2.837-6.386-2.356.054-2.913,3.265-3.76,8.299-.871,5.176-3.996,23.384-3.286,28.081l.626,23.36" fill="#fff" stroke="#000" stroke-linecap="round" stroke-linejoin="round" stroke-width="1.5"></path>
            <path d="m121.763,131.823s-.376-21.37,4.555-26.205c4.932-4.835,8.887-5.561,7.71-9.258-.648-2.033-11.695,1.574-19.015,7.248" fill="#fff" stroke="#000" stroke-linecap="round" stroke-linejoin="round" stroke-width="1.5"></path>
            <path d="m109.477,93.314c2.565-.224,5.836.759,8.555,2.6" fill="#fff" stroke="#000" stroke-linecap="round" stroke-linejoin="round" stroke-width="1.5"></path>
            <path d="m110.658,87.196s-1.041,10.017-4.075,9.46c-3.169-.581-2.314-8.941-2.314-8.941" fill="#fff" stroke="#000" stroke-linecap="round" stroke-linejoin="round" stroke-width="1.5"></path>
            <path d="m104.237,87.095s-.317,8.13-3.061,7.797c-2.255-.274-3.839-4.578-2.909-7.799" fill="#fff" stroke="#000" stroke-linecap="round" stroke-linejoin="round" stroke-width="1.5"></path>
          </g>
          <path d="m189.405,204.222l-76.597,48.106-.815.512c-11.635,7.307-26.99,3.799-34.297-7.836-3.221-5.128-4.336-11.01-3.584-16.576l14.387-106.007,42.276,4.094-3.307,56.764,55.311-34.737,4.005-2.475c5.359-2.957,12.396-4.465,21.629-3.156l65.316,9.291s16.575,1.619,23.895,16.822" fill="#fff" stroke="#000" stroke-linecap="round" stroke-linejoin="round" stroke-width="1.5"></path>
          <circle cx="264.449" cy="115.179" r="10.711"></circle>
          <g>
            <path d="m228.419,77.539s-23.726,12.289-27.622-3.946c-2.631-10.961,7.234-15.565,7.234-15.565,0,0-11.384-16.512,5.042-26.965,14.469-9.207,27.622,4.385,27.622,4.385,0,0,3.727-12.496,17.757-7.673,7.049,2.423,7.288,10.206,7.288,10.206,0,0,14.329-6.857,24.5,7.551,5.261,7.454-1.754,20.607-1.754,20.607,0,0,11.4,3.069,10.523,17.538s-13.592,17.538-13.592,17.538"></path>
            <circle cx="276.649" cy="101.07" r="15.2"></circle>
            <ellipse cx="283.81" cy="82.947" rx="17.1" ry="17.538"></ellipse>
            <circle cx="218.883" cy="85.98" r="10.852"></circle>
            <circle cx="212.781" cy="70.159" r="14.103"></circle>
            <circle cx="223.45" cy="45.459" r="19.511"></circle>
            <circle cx="275.918" cy="54.375" r="19.949"></circle>
          </g>
          <path d="m295.595,212.914c-3.481,32.389-9.76,95.259-9.76,95.259l-121.575-16.833,10.829-101.788" fill="#fff" stroke="#000" stroke-linecap="round" stroke-linejoin="round" stroke-width="1.5"></path>
          <path d="m267.531,109.583c4.716.9,9.279-2.245,10.191-7.024.873-4.574-1.919-8.978-6.294-10.138-.305-16.047-10.618-30.199-26.811-33.289-12.175-2.323-17.866,3.37-25.661,12.042-4.125,4.589-9.642,35.364-6.921,42.775,1.82,4.956,6.103,8.914,13.73,11.839l-3.342,17.9s-4.52,16.363,14.356,19.975c21.302,4.076,22.552-13.674,22.552-13.674,0,0,7.005-38.485,8.038-40.445.055.012.106.029.162.039Z" fill="#fff" stroke="#000" stroke-linecap="round" stroke-linejoin="round" stroke-width="1.5"></path>
          <path d="m211.929,66.87l47.473,9.99s-4.927,11.172,4.832,18.624l-.082,8.592,3.557.679,4.746-13.293,2.963-30.18-24.354-13.964-28.684,3.844-10.451,15.708Z"></path>
          <path d="m225.956,125.833s7.718,3.256,16.5.031" fill="#fff" stroke="#000" stroke-linecap="round" stroke-linejoin="round" stroke-width="1.5"></path>
          <path d="m243.665,90.128l.016-.15c.008-.207-.035-.399-.129-.578-.06-.186-.164-.347-.31-.483-.136-.146-.297-.25-.483-.31-.179-.094-.371-.137-.578-.129l-.399.054c-.254.071-.475.2-.662.386l-.235.304c-.136.234-.204.486-.205.757l-.016.15c-.008.207.035.399.129.578.06.186.164.347.31.483.136.146.297.25.483.31.179.094.371.137.578.129l.399-.054c.254-.071.475-.2.662-.386l.235-.304c.136-.234.204-.486.205-.757h0Z"></path>
          <path d="m225.709,87.624l.016-.15c.008-.207-.035-.399-.129-.578-.06-.186-.164-.347-.31-.483-.136-.146-.297-.25-.483-.31-.179-.094-.371-.137-.578-.129l-.399.054c-.254.071-.475.2-.662.386l-.235.304c-.136.234-.204.486-.205.757l-.016.15c-.008.207.035.399.129.578.06.186.164.347.31.483.136.146.297.25.483.31.179.094.371.137.578.129l.399-.054c.254-.071.475-.2.662-.386l.235-.304c.136-.234.204-.486.205-.757h0Z"></path>
          <path d="m228.029,95.341l-1.756,3.982c-.324.735.202,1.564,1.006,1.583l3.819.089" fill="#fff" stroke="#000" stroke-linecap="round" stroke-linejoin="round" stroke-width="1.5"></path>
          <path d="m240.166,82.448s5.675-.761,7.665,3.306" fill="#fff" stroke="#000" stroke-linecap="round" stroke-linejoin="round" stroke-width="1.5"></path>
          <path d="m219.184,82.494s4.5-3.541,8.281-1.052" fill="#fff" stroke="#000" stroke-linecap="round" stroke-linejoin="round" stroke-width="1.5"></path>
          <path d="m240.766,106.228c0,2.03-.102,5.218-3.668,5.213-3.616-.004-4.006-2.73-4.006-4.76l7.674-.453Z" fill="#fff" stroke="#000" stroke-linecap="round" stroke-linejoin="round" stroke-width="1.5"></path>
          <path d="m242.456,125.864l-19.375,14.469,2.625-13.969s4.61,1.254,9.61.879,7.14-1.379,7.14-1.379Z" stroke="#000" stroke-linecap="round" stroke-linejoin="round" stroke-width="1.5"></path>
          <g>
            <g>
              <path d="m307.061,304.533s-16.031,13.727-23.595,18.863c-13.045,8.857-21.292,13.107-26.75,11.376-1.168-.37-3.386-2.374,4.495-5.243,4.669-1.7,10.067-10.581,10.067-10.581" fill="#fff" stroke="#000" stroke-linecap="round" stroke-linejoin="round" stroke-width="1.5"></path>
              <path d="m313.907,290.253s-26.376.965-35.162.767c-8.678-.196-16.78-2.603-18.493-.1-3.152,4.607,16.749,9.798,23.434,9.73" fill="#fff" stroke="#000" stroke-linecap="round" stroke-linejoin="round" stroke-width="1.5"></path>
              <polygon points="313.183 288.541 294.012 278.067 266.344 299.884 249.482 320.156 266.998 331.475 313.183 288.541" fill="#fff"></polygon>
              <path d="m272.463,322.656c-7.297,7.013-20.981,11.154-23.534,10.946-2.82-.23-3.544-3.767,1.489-5.537,1.999-.703,3.962-2.458,7.125-3.605" fill="#fff" stroke="#000" stroke-linecap="round" stroke-linejoin="round" stroke-width="1.5"></path>
              <path d="m268.752,317.439c-6.636,5.614-13.707,9.986-19.135,11.26-1.645.386-4.904,1.094-6.233.35-3.279-1.837,1.69-5.078,6.846-7.327" fill="#fff" stroke="#000" stroke-linecap="round" stroke-linejoin="round" stroke-width="1.5"></path>
              <path d="m269.964,296.678s-10.853,10.627-25.531,23.064c-.939.796-2.084,4.529,3.091,3.424,6.542-1.396,16.949-11.444,16.949-11.444" fill="#fff" stroke="#000" stroke-linecap="round" stroke-linejoin="round" stroke-width="1.5"></path>
            </g>
            <line x1="276.974" y1="290.926" x2="284.165" y2="285.892" fill="#fff" stroke="#000" stroke-linecap="round" stroke-linejoin="round" stroke-width="1.5"></line>
          </g>
          <path d="m310.206,313.176l50.939-64.593c.854-.923,1.743-2.022,2.466-3.099,7.541-11.232,4.548-26.451-6.684-33.992l-.807-.542-61-47.667c-11.618-7.8-27.36-4.705-35.16,6.914-7.8,11.618-4.705,27.36,6.914,35.16l48.137,32.317-35.75,44.437,30.945,31.063Z" fill="#fff"></path>
          <path d="m290.498,221.322l24.68,16.021-35.958,44.916,30.945,31.063,51.148-65.072c.854-.923,1.743-2.022,2.466-3.099,7.541-11.232,4.548-26.451-6.684-33.992l-.807-.542-64.748-49.88" fill="none" stroke="#000" stroke-linecap="round" stroke-linejoin="round" stroke-width="1.5"></path>
          <circle cx="217.126" cy="67.615" r="10.338"></circle>
          <circle cx="231.587" cy="64.669" r="9.671"></circle>
          <circle cx="247.122" cy="66.475" r="11.478"></circle>
          <circle cx="263.301" cy="72.059" r="11.478"></circle>
          <polygon points="289.343 268.014 168.205 254.256 173.605 203.504 295.5 218.394 289.343 268.014"></polygon>
        </g>
        <g>
          <path d="m454.819,630.977l24.607,23.46-59.994,58.995s-18.415-10.184-1.693-28.166c10.594-11.393.647-23.303.647-23.303"></path>
          <path d="m411.328,672.351l-128.958-165.968c-10.107-13.762-14.385-31.233-11.755-48.12l32.984-177.894,74.155,11.225-32.396,174.008,127.602,164.011-61.632,42.738Z" fill="#0066f9"></path>
          <path d="m411.176,672.232l-128.222-165.064c-10.552-13.913-15.042-31.785-12.318-49.034l33-178,74.082,11.697-32.302,173.58,128.261,164.321-62.5,42.5Z" fill="none" stroke="#000" stroke-linecap="round" stroke-linejoin="round" stroke-width="1.5"></path>
          <path d="m390.132,679.897l.779,33.913h-82.98s-10.238-16.694,14.232-18.733c15.503-1.292,20.166-16.795,20.166-16.795"></path>
          <polyline points="330.298 278.259 327.197 683.413 400.331 683.507 421.676 269.982" fill="#0066f9"></polyline>
          <polyline points="332.676 354.982 327.197 683.413 400.331 683.507 421.676 269.982" fill="none" stroke="#000" stroke-linecap="round" stroke-linejoin="round" stroke-width="1.5"></polyline>
        </g>
        <line x1="420.523" y1="156.204" x2="465.362" y2="161.147" fill="#fff" stroke="#000" stroke-linecap="round" stroke-linejoin="round" stroke-width="1.5"></line>
        <polygon points="137.851 228.142 147.973 222.119 161.64 224.156 184.574 228.142 177.119 253.022 146.467 242.61 137.851 228.142" fill="#fff"></polygon>
        <g>
          <line x1="150.027" y1="245.719" x2="177.119" y2="253.022" fill="#fff" stroke="#000" stroke-linecap="round" stroke-linejoin="round" stroke-width="1.5"></line>
          <path d="m167.397,239.821c-8.897-2.723-8.405-10.847-10.596-11.973-4.184-2.151-7.034-2.345-11.409-2.493-4.43-.15-7.43-.424-7.538-2.048-.344-5.203,21.43-6.291,35.16.046,14.073,6.496,27.813,10.031,27.813,10.031l-18.018,24.846" fill="#fff" stroke="#000" stroke-linecap="round" stroke-linejoin="round" stroke-width="1.5"></path>
        </g>
        <path d="m308.738,244.251l-15.717,21.816-.593.823c-5.423,7.528-14.478,10.914-23.052,9.516l-97.704-16.123,5.174-42.157,83.397,6.744,53.072-73.669s5.157-7.595,8.529-7.499c0,0,4.441-1.383,8.756-.507l63.754,9.916c55.507-8.253,37.379,53.61,37.345,54.329-.484,10.327-9.155,93.894-9.155,93.894l-121.293-11.469,10.352-63.065,5.917-37.263" fill="#fff" stroke="#000" stroke-linecap="round" stroke-linejoin="round" stroke-width="1.5"></path>
        <g>
          <g>
            <line x1="158.077" y1="251.256" x2="30.986" y2="36.268" fill="#fff" stroke="#000" stroke-linecap="round" stroke-linejoin="round" stroke-width="1.5"></line>
            <path d="m158.079,254.256c-.888,0-1.768-.393-2.359-1.145L28.629,38.123c-1.024-1.302-.8-3.188.502-4.213s3.188-.8,4.213.502l127.091,214.988c1.024,1.302.8,3.188-.502,4.213-.55.433-1.204.643-1.854.643Z" fill="#fff" stroke="#000" stroke-linecap="round" stroke-linejoin="round" stroke-width="1.5"></path>
          </g>
          <g>
            <rect x="1.633" y="4.961" width="61.791" height="31.335" rx="3.019" ry="3.019" transform="translate(1.667 -2.42) rotate(4.372)" fill="#0066f9" stroke="#000" stroke-linecap="round" stroke-linejoin="round" stroke-width="1.5"></rect>
            <circle cx="58.297" cy="13.384" r="2.958" fill="#fff" stroke="#000" stroke-linecap="round" stroke-linejoin="round" stroke-width="1.5"></circle>
          </g>
          <rect x="21.816" y="33.21" width="18.333" height="6.333" transform="translate(1.79 -1.452) rotate(2.764)" fill="#fff" stroke="#000" stroke-linecap="round" stroke-linejoin="round" stroke-width="1.5"></rect>
          <rect x="23.362" y="1.188" width="18.333" height="6.333" transform="translate(.248 -1.563) rotate(2.764)" fill="#fff" stroke="#000" stroke-linecap="round" stroke-linejoin="round" stroke-width="1.5"></rect>
        </g>
        <g>
          <path d="m145.119,243.22c.737-.576,9.697-.967,9.929.155.544,2.631-2.788,4.048-6.794,4.096-4.005.047-4.176-3.438-3.135-4.251Z" fill="#fff" stroke="#000" stroke-linecap="round" stroke-linejoin="round" stroke-width="1.5"></path>
          <path d="m140.563,239.992c-.49-1.408.555-2.871,2.046-2.876,2.392-.007,10.255-.748,11.066.922,1.547,3.185-6.573,4.266-9.337,4.553-1.928.2-3.275-1.163-3.611-2.128l-.164-.471Z" fill="#fff" stroke="#000" stroke-linecap="round" stroke-linejoin="round" stroke-width="1.5"></path>
          <path d="m133.161,228.356c-.49-1.408.555-2.871,2.046-2.876,2.392-.007,10.255-.748,11.066.922,1.547,3.185-6.573,4.266-9.337,4.553-1.928.2-3.275-1.163-3.611-2.128l-.164-.471Z" fill="#fff" stroke="#000" stroke-linecap="round" stroke-linejoin="round" stroke-width="1.5"></path>
          <path d="m136.005,234.768c-.49-1.408.389-3.858,1.88-3.862,2.392-.007,11.54-1.977,12.623.511,1.662,3.82-7.697,5.023-10.361,5.811-2.113.625-3.642-1.024-3.978-1.988l-.164-.471Z" fill="#fff" stroke="#000" stroke-linecap="round" stroke-linejoin="round" stroke-width="1.5"></path>
        </g>
        <g>
          <path d="m332.689,143.233c-.028.935-4.57,7.465-6.601,6.652-2.494-.998-1.194-3.843,1.327-6.955,2.522-3.112,5.313-1.017,5.273.303Z" fill="#fff" stroke="#000" stroke-linecap="round" stroke-linejoin="round" stroke-width="1.5"></path>
          <path d="m338.083,141.79c1.397.522,1.855,2.261.906,3.411-1.522,1.845-5.526,8.466-7.807,7.747-3.377-1.064.945-7.603,2.49-9.913,1.077-1.611,2.987-1.777,3.944-1.42l.468.175Z" fill="#fff" stroke="#000" stroke-linecap="round" stroke-linejoin="round" stroke-width="1.5"></path>
          <path d="m351.763,143.526c1.397.522,1.855,2.261.906,3.411-1.522,1.845-5.565,8.636-7.777,7.926-3.372-1.081.915-7.782,2.46-10.092,1.077-1.611,2.987-1.777,3.944-1.42l.468.175Z" fill="#fff" stroke="#000" stroke-linecap="round" stroke-linejoin="round" stroke-width="1.5"></path>
          <path d="m345.013,141.619c1.397.522,2.72,2.763,1.771,3.914-1.522,1.845-5.849,10.143-8.455,9.386-4.001-1.161,1.051-9.13,2.147-11.684.869-2.026,3.114-2.148,4.07-1.791l.468.175Z" fill="#fff" stroke="#000" stroke-linecap="round" stroke-linejoin="round" stroke-width="1.5"></path>
        </g>
        <g>
          <path d="m432.286,127.513s.702-2.793.572-6.638c-.288-8.514-1.623-20.509.909-21.085,2.946-.669,3.957,4.732,6.373,20.695,0,0,1.442-23.524,5.531-24.446,4.105-.925,1.267,24.251,1.267,24.251,0,0,.23-5.621,3.768-5.416,3.995.232,2.173,7.376,2.173,7.376,0,0,1.45-6.294,4.374-5.449,2.264.654,1.982,3.901,1.515,8.984-.48,5.227-2.11,23.628-3.997,27.989l-6.573,22.425" fill="#fff" stroke="#000" stroke-linecap="round" stroke-linejoin="round" stroke-width="1.5"></path>
          <path d="m424.898,159.696s5.823-20.565,2.29-26.499c-3.533-5.934-7.172-7.646-5.089-10.92,1.145-1.8,10.905,4.509,16.532,11.865" fill="#fff" stroke="#000" stroke-linecap="round" stroke-linejoin="round" stroke-width="1.5"></path>
          <path d="m446.613,125.604c-2.423-.872-5.837-.757-8.936.328" fill="#fff" stroke="#000" stroke-linecap="round" stroke-linejoin="round" stroke-width="1.5"></path>
          <path d="m447.034,119.387s-1.553,9.951,1.524,10.187c3.212.247,4.521-8.054,4.521-8.054" fill="#fff" stroke="#000" stroke-linecap="round" stroke-linejoin="round" stroke-width="1.5"></path>
          <path d="m453.267,120.93s-1.771,7.941.968,8.32c2.25.311,4.881-3.445,4.805-6.797" fill="#fff" stroke="#000" stroke-linecap="round" stroke-linejoin="round" stroke-width="1.5"></path>
        </g>
        <path d="m395.3,199.232l13.287,44.972.203.712c2.834,9.556,11.228,16.911,21.759,17.92,13.85,1.327,26.154-8.826,27.48-22.676l8.589-89.667-45.184-5.634-4.791,67.302" fill="#fff" stroke="#000" stroke-linecap="round" stroke-linejoin="round" stroke-width="1.5"></path>
        <g>
          <g>
            <g>
              <circle cx="385.523" cy="79.403" r="31.116"></circle>
              <path d="m402.218,112.639c4.724.861,9.26-2.322,10.133-7.109.835-4.581-1.993-8.962-6.378-10.086-.438-16.044-10.868-30.11-27.086-33.065-12.194-2.222-17.837,3.518-25.56,12.254-4.087,4.623-9.348,35.443-6.566,42.831,1.861,4.94,6.177,8.863,13.827,11.725l-3.193,17.927s-4.384,16.4,14.521,19.856c21.335,3.899,22.438-13.86,22.438-13.86,0,0,6.685-38.542,7.703-40.51.055.011.107.028.162.038Z" fill="#fff" stroke="#000" stroke-linecap="round" stroke-linejoin="round" stroke-width="1.5"></path>
              <path d="m346.265,70.388l47.554,9.596s-4.834,11.212,4.986,18.583l-.011,8.593,3.563.649,4.635-13.331,2.713-30.203-24.469-13.761-28.651,4.081-10.32,15.794Z"></path>
              <circle cx="351.035" cy="59.194" r="20.134"></circle>
              <circle cx="375.341" cy="53.381" r="17.388"></circle>
              <path d="m360.78,129.232s7.745,3.192,16.5-.105" fill="#fff" stroke="#000" stroke-linecap="round" stroke-linejoin="round" stroke-width="1.5"></path>
            </g>
            <path d="m378.192,93.395l.014-.15c.008-.207-.035-.399-.129-.578-.06-.186-.164-.347-.31-.483-.136-.146-.297-.25-.483-.31-.179-.094-.371-.137-.578-.129l-.399.054c-.254.071-.475.2-.662.386l-.235.304c-.136.234-.204.486-.205.757l-.014.15c-.008.207.035.399.129.578.06.186.164.347.31.483.136.146.297.25.483.31.179.094.371.137.578.129l.399-.054c.254-.071.475-.2.662-.386l.235-.304c.136-.234.204-.486.205-.757h0Z"></path>
            <path d="m362.599,98.724l-1.723,3.997c-.318.738.215,1.563,1.019,1.575l3.82.058" fill="#fff" stroke="#000" stroke-linecap="round" stroke-linejoin="round" stroke-width="1.5"></path>
            <path d="m374.63,85.732s5.669-.808,7.692,3.242" fill="#fff" stroke="#000" stroke-linecap="round" stroke-linejoin="round" stroke-width="1.5"></path>
            <path d="m353.648,85.951s4.47-3.578,8.272-1.12" fill="#fff" stroke="#000" stroke-linecap="round" stroke-linejoin="round" stroke-width="1.5"></path>
            <path d="m377.279,129.127l-19.254,14.629,2.509-13.99s4.758.961,9.755.544c4.997-.416,6.99-1.183,6.99-1.183Z" stroke="#000" stroke-linecap="round" stroke-linejoin="round" stroke-width="1.5"></path>
            <path d="m373.611,112.153s-2.996,3.544-7.814.511" fill="#fff" stroke="#000" stroke-linecap="round" stroke-linejoin="round" stroke-width="1.5"></path>
          </g>
          <path d="m356.194,89.254s3.057.317,3.926,2.715c0,0-1.95-.211-3.215.421" fill="#fff" stroke="#000" stroke-linecap="round" stroke-linejoin="round" stroke-width="1.5"></path>
        </g>
      </g>
      <line x1="187.582" y1="218.994" x2="181.756" y2="261.947" fill="#fff" stroke="#000" stroke-linecap="round" stroke-linejoin="round" stroke-width="1.5"></line>
      <line x1="420.661" y1="157.161" x2="465.329" y2="162.873" fill="#fff" stroke="#000" stroke-linecap="round" stroke-linejoin="round" stroke-width="1.5"></line>
    </g>
  </g>
</svg>