<svg id="Layer_2" data-name="Layer 2" xmlns="http://www.w3.org/2000/svg" viewBox="0 0 1040.033 931.454" style="width: 100%; height: 100%;">
  <g id="Layer_2-2" data-name="Layer 2">
    <g>
      <g>
        <path d="m628.621,370.104c-2.381-.964-5.091.245-5.924,2.697-.782,2.298.571,4.807,2.832,5.723l5.641,2.284-18.556.772c-2.343.063-5.168,1.638-4.906,4.26.072,2.132-1.965,5.088-.289,7.365-.002.024,18.887,16.902,21.06,16.844h0c9.221-.248,20.411-10.793,23.58-19.429l4.988-13.593-28.426-6.922Z" fill="#ff9e85"></path>
        <g fill="none" opacity=".1">
          <path d="m628.621,370.104c-2.381-.964-5.091.245-5.924,2.697-.782,2.298.571,4.807,2.832,5.723l5.641,2.284-18.556.772c-2.343.063-5.168,1.638-4.906,4.26.072,2.132-1.965,5.088-.289,7.365-.002.024,18.887,16.902,21.06,16.844h0c9.221-.248,20.411-10.793,23.58-19.429l4.988-13.593-28.426-6.922Z" fill="#0c0c0c"></path>
        </g>
      </g>
      <g>
        <g>
          <path d="m969.159,855.014s16.01,23.828-1.457,43.644c-17.467,19.816,1.356,30.659,1.356,30.659l70.975-71.47-35.461-35.708-35.414,32.874Z" fill="#0066f9"></path>
          <path d="m966.402,361.808s-.315-8.492-.248,10.771c.111,31.989-2.912,116.522-.788,225.472,1.698,87.091,60.887,239.611,60.887,239.611l-54.302,39.247s-80.665-136.479-93.628-268.547c-6.636-67.603-20.21-249.473-20.21-249.473l108.289,2.92Z" fill="#262626"></path>
          <path d="m798.842,877.117s-5.412,28.249-31.678,29.823c-26.266,1.574-20.57,22.645-20.57,22.645h100.374v-50.498s-48.126-1.97-48.126-1.97Z" fill="#0066f9"></path>
          <path d="m786.084,367.388s-8.239,245.573-7.383,257.576l7.748,268.322,64.867,1.207,10.46-279.234s6.856-77.026,25.338-148.551c9.483-36.701,15.119-74.3,16.983-112.177h0s-118.013,12.856-118.013,12.856Z" fill="#262626"></path>
          <path d="m871.659,541.499l-5.409-83.294s-5.556,34.628-5.556,64.475c0,14.589,2.984,72.35,2.984,72.35l7.981-53.531Z" fill="#0a0a0a"></path>
          <path d="m967.119,361.801l.216.012s-.156-4.188-.216-.012Z" fill="#333"></path>
        </g>
        <path d="m966.848,361.801l.216.012s-.156-4.188-.216-.012Z" fill="#333"></path>
        <g>
          <g>
            <path d="m828.881,58.58s-11.525-11.463-11.651-34.233c-.097-17.63,14.319-4.242,14.319-4.242,0,0,.053-12.695,8.965-10.214,8.911,2.481,12.208,16.276,12.208,16.276" fill="#0c0c0c"></path>
            <path d="m887.268,17.782s44.412,11.007,19.751,69.852l-4.025-.279-8.17-.566" fill="#0c0c0c"></path>
            <path id="sk" d="m830.265,148.792c.2-.026,2.42,36.804,45.205,33.593,29.62-2.219,40.181-33.645,40.86-33.645-3.194-.679-7.14-1.709-8.709-2.062-5.211-1.174-11.716-5.474-13.22-14.532-.866-5.22.603-31.928.151-37.21l-45.467,10.148c.635,11.155,5.082,37.017-10.503,41.594-2.593.757-5.386,1.453-8.319,2.114Z" fill="#ff9e85"></path>
            <path id="sh" d="m848.449,136.109c.644-2.056,1.027-3.843,1.368-7.057.609-5.747.285-11.03-.297-16.413,9.185-1.223,18.003-5.086,25.129-11.009.844,3.118,5.487,16.742,4.202,19.705-2.43,5.601-13.849,14.774-30.401,14.774Z" fill="#0c0c0c" opacity=".22"></path>
            <path d="m855.249,125.367c17.99.841,40.798-7.475,44.409-31.556l3.258-21.729c3.611-24.081-6.11-45.499-28.783-48.9h0c-22.674-3.4-42.549,13.58-46.16,37.661l-1.443,9.62c-.297,1.98-.622,5.565-.633,9.989-.022,8.828-.022,22.256,4.641,31.978,4.402,9.178,13.217,12.399,24.71,12.936Z" fill="#ff9e85"></path>
            <g>
              <g>
                <circle id="e1_eye" cx="838.609" cy="74.015" r="2.5" fill="#0a0a0a"></circle>
                <g id="e1_n">
                  <path d="m851.733,93.455c.506,0,.939-.382.993-.896.058-.549-.341-1.041-.891-1.099l-5.296-.554,3.26-10.578c.162-.528-.134-1.087-.662-1.25-.527-.162-1.087.133-1.25.661l-3.617,11.741c-.088.286-.043.596.122.846s.433.412.73.443l6.506.68c.035.004.07.005.104.005Z" fill="#0a0a0a"></path>
                </g>
                <g id="e1_m">
                  <path d="m852.908,104.779c9.064,0,11.762-5.478,11.883-5.734.235-.5.021-1.095-.478-1.331-.496-.235-1.09-.023-1.328.472-.113.233-2.881,5.613-12.855,4.42-.56-.069-1.047.326-1.112.874-.065.548.326,1.046.874,1.112,1.076.129,2.081.187,3.017.187Z" fill="#0a0a0a"></path>
                </g>
                <path id="e1_eb" d="m860.474,64.951c-.24.745,2.47,1.859,6.28,2.88s7.259,1.757,7.518.818c.327-1.186-2.512-3.98-6.322-5.001-3.81-1.021-7.098.132-7.476,1.304Z" fill="#0a0a0a"></path>
                <circle id="e1_eye-2" data-name="e1_eye" cx="863.678" cy="75.608" r="2.5" fill="#0a0a0a"></circle>
              </g>
              <path id="e1_eb-2" data-name="e1_eb" d="m830.109,65.474c.083.778,3.011.697,6.908.084,3.897-.613,7.348-1.339,7.203-2.303-.182-1.217-3.505-2.705-7.402-2.092-3.897.613-6.84,3.087-6.71,4.311Z" fill="#0a0a0a"></path>
            </g>
            <path d="m897.15,100.936c6.89,1.033,13.582-5.501,14.615-12.391,1.033-6.89-3.983-11.528-10.873-12.561l-4.243,4.085-5.423,19.98,5.924.888Z" fill="#ff9e85"></path>
            <path d="m893.931,89.004c-1.165-.054-2.07-1.035-2.021-2.2.316-7.53.729-32.881-7.825-35.878-6.701-2.348-24.757,5.14-39.837.066-6.597-2.22-13.258-1.424-14.35,1.686-.433,1.232-2.159-17.553,10.342-29.918,9.953-9.845,38.018-9.165,50.098-3.835,33.45,14.758,11.77,58.758,11.77,58.758l-2.716,9.917c-.262.958-1.153,1.605-2.145,1.559l-3.317-.155Z" fill="#0c0c0c"></path>
            <ellipse cx="855.177" cy="22.996" rx="14.04" ry="9.539" transform="translate(546.629 820.902) rotate(-70.399)" fill="#0c0c0c"></ellipse>
          </g>
          <g>
            <path d="m836.201,197.955l-60.942,140.744-.07.162c-2.515,5.808-6.636,10.575-11.499,13.906l-106.427,72.437-36.643-53.219,105.641-73.579-11.569,14.068,60.942-140.744,60.566,26.225Z" fill="#0066f9"></path>
            <g>
              <path d="m776.528,231.078c1.36,16.092,7.977,116.488,9.285,136.309h180.245c1.018-17.877,5.59-96.048,9.451-131.007,3.686-33.359,10.917-50.061,5.616-59.923-8.662-16.119-32.33-25.433-48.468-27.633-9.855-1.343-24.677-2.306-24.677-2.306,0,0-1.255,25.565-31.18,26.988-40.737,1.935-38.018-27.01-38.218-26.988-24.103,2.634-40.572,6.478-49.795,11.984-25.134,14.987-15.145,38.475-12.258,72.577Z" fill="#0066f9"></path>
              <g>
                <path d="m775.089,310.082c.13-1.924,1.443-3.375,3.095-3.851-.03-.071-.06-.145-.043-.226.032-.142.14-.226.265-.27l-3.543-.792c-2.141-.479-3.764-2.439-3.554-4.637.218-2.28,2.097-3.878,4.209-3.897-.023-.036-.013-.084-.024-.126l-1.456-.325c-2.014-.45-3.558-2.235-3.498-4.312.081-2.794,2.623-4.685,5.193-4.111l3.359.751c.001-.019-.014-.033-.01-.052.003-.024.03-.036.038-.058-1.762-.838-2.784-2.812-2.344-4.808.38-2.489,3.353-3.292,5.525-2.807l19.603,4.022-4.651-3.424c-1.865-1.373-2.516-4.01-1.251-5.957,1.348-2.077,4.129-2.568,6.092-1.123l25.394,18.695c6.194,4.56,7.661,13.255,3.311,19.619h0c-4.964,7.262-13.807,10.765-22.354,8.855l-29.857-6.673c-1.97-.44-3.636-2.467-3.499-4.494Z" fill="#ff9e85"></path>
                <g fill="none" opacity=".25">
                  <path d="m798.488,292.251c-.048.209-.253.343-.463.3l-18.637-3.849c-.213-.044-.35-.253-.306-.468.025-.205.252-.353.465-.309l18.637,3.849c.213.044.35.253.306.468l-.002.009Z" fill="#0c0c0c"></path>
                </g>
                <g fill="none" opacity=".25">
                  <path d="m797.03,300.575c-.048.209-.253.343-.463.3l-20.799-4.295c-.213-.044-.35-.253-.306-.468.041-.196.252-.352.465-.309l20.799,4.295c.213.044.35.253.306.468l-.002.009Z" fill="#0c0c0c"></path>
                </g>
                <g fill="none" opacity=".25">
                  <path d="m795.501,309.599c-.048.209-.253.343-.463.3l-16.591-3.426c-.213-.044-.35-.253-.306-.468.048-.216.252-.352.465-.309l16.591,3.426c.213.044.35.253.306.468l-.002.009Z" fill="#0c0c0c"></path>
                </g>
              </g>
              <path id="b_4_b" d="m810.29,333.149l161.992,29.478c1.19.13,2.38.194,3.563.194,9.007,0,17.683-3.725,23.935-10.398,7.074-7.551,10.225-18.003,8.515-28.238l-22.678-135.737c-3.016-18.048-19.987-30.213-37.913-27.181-17.923,3.036-30.009,20.129-26.993,38.177l15.464,93.441-118.764-15.019-7.122,55.283Z" fill="#0066f9"></path>
              <g id="b_4_b-2" data-name="b_4_b">
                <path d="m972.283,363.231c.284,0,.536-.204.589-.496.059-.328-.158-.642-.483-.701l-161.431-29.376,6.972-54.117,118.172,14.944c.195.024.376-.042.507-.18s.191-.329.159-.517l-9.83-59.72c-.054-.328-.359-.559-.689-.496-.327.054-.547.365-.493.694l9.699,58.921-117.967-14.918c-.321-.04-.626.191-.67.521l-7.122,55.283c-.041.319.173.614.488.672l161.992,29.479c.036.006.071.009.108.009Z" fill="#0c0c0c"></path>
              </g>
              <polygon points="946.501 295.167 946.69 293.974 936.271 292.289 936.081 293.482 946.501 295.167" fill="#0c0c0c"></polygon>
            </g>
          </g>
        </g>
      </g>
      <g>
        <g>
          <polygon points="833.138 930.671 831.848 930.921 831.178 931.051 831.168 930.921 801.548 636.661 801.348 634.661 800.478 626.011 802.448 625.641 803.358 634.641 803.458 635.641 803.558 636.631 833.138 930.671" fill="#494949"></polygon>
          <polygon points="718.848 930.671 717.548 930.921 716.878 931.051 716.868 930.921 687.258 636.661 687.158 635.661 687.058 634.661 686.188 626.011 688.148 625.641 689.058 634.661 689.158 635.661 689.258 636.661 718.848 930.671" fill="#494949"></polygon>
          <g>
            <polygon points="494.928 626.011 494.058 634.661 493.958 635.661 493.858 636.661 464.238 930.921 464.228 931.051 463.558 930.921 462.268 930.671 491.858 636.661 491.958 635.661 492.058 634.661 492.968 625.641 494.928 626.011" fill="#494949"></polygon>
            <polygon points="609.228 626.011 608.358 634.661 608.158 636.661 578.538 930.921 578.528 931.051 577.858 930.921 576.568 930.671 606.148 636.661 606.248 635.661 606.348 634.661 607.258 625.641 609.228 626.011" fill="#494949"></polygon>
          </g>
          <rect x="543.511" y="557.673" width="135.496" height="2" transform="translate(-23.4 1090.614) rotate(-82.395)" fill="#494949"></rect>
          <rect x="749.336" y="557.673" width="135.496" height="2" transform="translate(155.183 1294.628) rotate(-82.395)" fill="#494949"></rect>
          <g>
            <rect x="591.643" y="615.99" width="220.99" height="19.671" rx="9.835" ry="9.835" transform="translate(1404.276 1251.651) rotate(-180)" fill="#292a2e"></rect>
            <rect x="591.643" y="615.99" width="220.99" height="19.671" rx="9.835" ry="9.835" transform="translate(1404.276 1251.651) rotate(-180)" fill="#fff" opacity=".8"></rect>
            <path d="m590.643,625.825c0-5.975,4.861-10.835,10.835-10.835h201.32c5.975,0,10.835,4.86,10.835,10.835,0,5.975-4.86,10.835-10.835,10.835h-201.32c-5.975,0-10.835-4.861-10.835-10.835Zm10.835-8.835c-4.872,0-8.835,3.963-8.835,8.835,0,4.872,3.963,8.835,8.835,8.835h201.32c4.872,0,8.835-3.963,8.835-8.835,0-4.872-3.963-8.835-8.835-8.835h-201.32Z" fill="#292a2e"></path>
          </g>
          <g>
            <rect x="481.147" y="615.99" width="220.99" height="19.671" rx="9.835" ry="9.835" transform="translate(1183.285 1251.651) rotate(180)" fill="#fff"></rect>
            <path d="m480.147,625.825c0-5.975,4.861-10.835,10.836-10.835h201.319c5.975,0,10.835,4.86,10.835,10.835,0,5.975-4.861,10.835-10.835,10.835h-201.319c-5.975,0-10.836-4.861-10.836-10.835Zm10.836-8.835c-4.872,0-8.836,3.963-8.836,8.835,0,4.872,3.964,8.835,8.836,8.835h201.319c4.872,0,8.835-3.963,8.835-8.835,0-4.872-3.963-8.835-8.835-8.835h-201.319Z" fill="#292a2e"></path>
          </g>
          <g>
            <path d="m630.267,491.521h195.247c6.603,0,12.182-4.899,13.035-11.447l12.915-99.18c1.024-7.867-5.101-14.842-13.035-14.842h-195.247c-6.603,0-12.182,4.899-13.035,11.447l-12.915,99.18c-1.024,7.867,5.101,14.842,13.035,14.842Z" fill="#292a2e"></path>
            <path d="m630.267,491.521h195.247c6.603,0,12.182-4.899,13.035-11.447l12.915-99.18c1.024-7.867-5.101-14.842-13.035-14.842h-195.247c-6.603,0-12.182,4.899-13.035,11.447l-12.915,99.18c-1.024,7.867,5.101,14.842,13.035,14.842Z" fill="#fff" opacity=".8"></path>
            <path d="m619.639,487.71c-2.685-3.058-3.924-7.125-3.398-11.16l12.915-99.18c.915-7.023,6.944-12.319,14.026-12.319h195.247c4.069,0,7.943,1.753,10.628,4.811,2.685,3.058,3.923,7.125,3.398,11.16l-12.915,99.18c-.915,7.022-6.944,12.318-14.026,12.318h-195.247c-4.069,0-7.943-1.753-10.628-4.811Zm23.543-120.658c-6.081,0-11.258,4.547-12.043,10.577l-12.915,99.18c-.451,3.464.612,6.957,2.918,9.582,2.305,2.625,5.631,4.131,9.125,4.131h195.247c6.081,0,11.258-4.547,12.043-10.576l12.915-99.18c.451-3.464-.612-6.957-2.917-9.582-2.305-2.625-5.631-4.131-9.125-4.131h-195.247Z" fill="#292a2e"></path>
          </g>
          <g>
            <path d="m619.226,491.521h195.247c6.603,0,12.182-4.899,13.035-11.447l12.915-99.18c1.024-7.867-5.101-14.842-13.035-14.842h-195.247c-6.603,0-12.182,4.899-13.035,11.447l-12.915,99.18c-1.024,7.867,5.101,14.842,13.035,14.842Z" fill="#fff"></path>
            <path d="m608.598,487.71c-2.685-3.058-3.924-7.125-3.398-11.16l12.915-99.18c.915-7.023,6.944-12.319,14.026-12.319h195.247c4.069,0,7.943,1.753,10.628,4.811,2.685,3.058,3.924,7.125,3.398,11.16l-12.915,99.18c-.915,7.022-6.944,12.318-14.026,12.318h-195.247c-4.069,0-7.943-1.753-10.628-4.811Zm23.543-120.658c-6.081,0-11.258,4.547-12.043,10.577l-12.915,99.18c-.451,3.464.612,6.957,2.918,9.582,2.305,2.625,5.631,4.131,9.125,4.131h195.247c6.081,0,11.258-4.547,12.043-10.576l12.915-99.18c.451-3.465-.612-6.958-2.918-9.583-2.305-2.625-5.631-4.131-9.125-4.131h-195.247Z" fill="#292a2e"></path>
          </g>
        </g>
        <g>
          <path d="m638.943,441.705c-.053,0-.105-.004-.159-.013-.545-.087-.917-.6-.829-1.146.404-2.525,10.021-61.993,19.937-75.098.334-.44.96-.528,1.401-.194.44.333.527.96.194,1.401-9.618,12.709-19.459,73.593-19.558,74.207-.079.492-.504.842-.986.842Z" fill="#48cf48"></path>
          <path d="m780.061,417.648c-.52,0-.958-.402-.996-.928-1.889-26.174-15.619-48.92-15.758-49.146-.288-.471-.139-1.087.332-1.375.472-.288,1.087-.14,1.375.332.141.23,14.121,23.374,16.045,50.046.04.551-.374,1.029-.925,1.069-.024.001-.049.002-.073.002Z" fill="#48cf48"></path>
          <polygon points="819.982 469.242 601.725 503.89 590.32 437.377 808.577 402.729 819.982 469.242" fill="#48cf48"></polygon>
          <g>
            <path d="m639.356,450.897l3.327-.528-5.363,28.111-3.055.485-13.751-25.077,3.273-.52,8.842,16.235c1.017,1.865,1.879,3.698,2.589,5.5.125-2.034.383-4.082.776-6.146l3.361-18.06Z" fill="#fff"></path>
            <path d="m667.274,473.724l-4.653-7.932-10.658,1.692-1.932,8.977-3.128.497,6.274-28.368,2.601-.413,14.695,25.039-3.2.508Zm-6.059-10.561l-4.399-7.748c-.566-.979-1.182-2.193-1.847-3.641-.081,1.206-.26,2.546-.537,4.02l-1.82,8.735,8.602-1.366Z" fill="#fff"></path>
            <path d="m681.674,446.621c-2.922.464-5.075,1.803-6.457,4.018-1.383,2.215-1.806,5.014-1.269,8.396.552,3.48,1.794,6.039,3.726,7.678,1.932,1.639,4.408,2.219,7.427,1.739,1.855-.294,3.918-.964,6.188-2.008l.43,2.71c-1.733.984-3.952,1.69-6.655,2.119-3.917.622-7.127-.086-9.633-2.125-2.505-2.038-4.105-5.246-4.8-9.623-.435-2.74-.304-5.222.394-7.446.697-2.224,1.924-4.046,3.681-5.47,1.757-1.422,3.944-2.341,6.563-2.757,2.789-.443,5.306-.32,7.554.367l-.888,2.863c-2.163-.626-4.251-.78-6.263-.46Z" fill="#fff"></path>
            <path d="m714.343,466.252l-4.653-7.932-10.658,1.692-1.932,8.977-3.128.497,6.274-28.368,2.601-.413,14.695,25.039-3.2.508Zm-6.059-10.561l-4.399-7.748c-.566-.979-1.182-2.193-1.847-3.641-.081,1.206-.26,2.546-.537,4.02l-1.82,8.735,8.602-1.366Z" fill="#fff"></path>
            <path d="m741.969,461.866l-3.529.56-18.074-20.009-.146.023c.61,2.588,1.088,4.973,1.435,7.156l2.399,15.113-2.856.453-4.221-26.589,3.492-.554,18.023,19.924.145-.023c-.076-.324-.297-1.367-.664-3.13-.367-1.763-.599-3.028-.696-3.796l-2.422-15.259,2.892-.459,4.221,26.589Z" fill="#fff"></path>
            <path d="m756.822,434.691c-2.922.464-5.075,1.803-6.457,4.018-1.383,2.215-1.806,5.014-1.269,8.396.552,3.48,1.794,6.039,3.726,7.678,1.932,1.639,4.408,2.219,7.427,1.739,1.855-.294,3.918-.964,6.188-2.008l.43,2.71c-1.733.984-3.952,1.69-6.655,2.119-3.917.622-7.127-.086-9.633-2.125-2.505-2.038-4.105-5.246-4.8-9.623-.435-2.74-.304-5.222.394-7.446.697-2.224,1.924-4.046,3.681-5.47,1.757-1.422,3.944-2.341,6.563-2.757,2.789-.443,5.306-.32,7.554.367l-.888,2.863c-2.163-.626-4.251-.78-6.263-.46Z" fill="#fff"></path>
            <path d="m777.433,442.606l4.982-14.42,3.347-.531-6.291,17.686,1.637,10.312-3.129.497-1.614-10.167-11.464-15.017,3.382-.537,9.149,12.177Z" fill="#fff"></path>
          </g>
        </g>
      </g>
      <g>
        <g>
          <rect x="197.403" y="620.029" width="80.326" height="23.372" fill="#f4f4f4"></rect>
          <rect x="208.19" y="620.029" width="10.525" height="23.372" fill="#292a2e" opacity=".05"></rect>
          <rect x="223.701" y="625.108" width="43.764" height="13.85" fill="#fff"></rect>
        </g>
        <g>
          <rect x="259.08" y="605.802" width="81.445" height="23.372" transform="translate(272.215 -68.378) rotate(23.594)" fill="#f4f4f4"></rect>
          <rect x="259.08" y="605.802" width="81.445" height="23.372" transform="translate(272.215 -68.378) rotate(23.594)" fill="#292a2e" opacity=".05"></rect>
          <rect x="316.872" y="615.588" width="10.672" height="23.372" transform="translate(278.005 -76.528) rotate(23.594)" fill="#fff"></rect>
          <rect x="270.039" y="607.601" width="44.373" height="13.85" transform="translate(270.396 -65.593) rotate(23.594)" fill="#fff"></rect>
        </g>
        <g>
          <g>
            <rect x="321.754" y="916.105" width="20.186" height="13.481" fill="#292a2e" opacity=".05"></rect>
            <rect x="115.374" y="916.105" width="20.186" height="13.481" fill="#292a2e" opacity=".05"></rect>
          </g>
          <rect x="96.87" y="644.496" width="263.574" height="271.152" fill="#f4f4f4"></rect>
          <rect x="96.87" y="644.496" width="263.574" height="271.152" fill="#292a2e" opacity=".03"></rect>
          <rect x="145.714" y="644.496" width="263.574" height="271.152" fill="#f4f4f4"></rect>
          <g>
            <rect x="370.598" y="916.105" width="20.186" height="13.481" fill="#292a2e" opacity=".05"></rect>
            <rect x="164.218" y="916.105" width="20.186" height="13.481" fill="#292a2e" opacity=".05"></rect>
          </g>
          <rect x="155.609" y="657.196" width="243.786" height="52.094" fill="#fff" opacity=".7"></rect>
          <rect x="155.609" y="722.041" width="243.786" height="52.094" fill="#fff" opacity=".7"></rect>
          <rect x="155.609" y="786.884" width="243.786" height="52.094" fill="#fff" opacity=".7"></rect>
          <circle cx="277.502" cy="683.243" r="7.289" fill="#292a2e" opacity=".05"></circle>
          <circle cx="277.502" cy="748.088" r="7.289" fill="#292a2e" opacity=".05"></circle>
          <circle cx="277.502" cy="812.932" r="7.289" fill="#292a2e" opacity=".05"></circle>
          <g>
            <rect x="155.609" y="853.19" width="243.786" height="52.094" fill="#fff" opacity=".7"></rect>
            <circle cx="277.502" cy="879.237" r="7.289" fill="#292a2e" opacity=".05"></circle>
          </g>
        </g>
      </g>
      <g>
        <polygon points="252.818 528.881 252.098 535.971 251.998 536.971 251.898 537.971 212.208 930.921 210.198 930.921 249.888 537.971 249.988 536.971 250.088 535.971 250.828 528.681 252.818 528.881" fill="#494949"></polygon>
        <g>
          <g>
            <polygon points="974.898 930.921 972.888 930.921 933.208 537.971 933.108 536.971 933.008 535.971 932.288 528.881 934.278 528.681 935.018 535.971 935.118 536.971 935.218 537.971 974.898 930.921" fill="#494949"></polygon>
            <polygon points="800.608 930.921 798.598 930.921 768.878 636.661 768.778 635.661 768.678 634.661 766.888 616.991 766.788 615.991 766.688 614.991 758.908 537.971 758.808 536.971 758.708 535.971 757.988 528.881 759.978 528.681 760.718 535.971 760.918 537.971 768.698 614.991 768.798 615.991 768.898 616.991 770.688 634.661 770.788 635.661 770.888 636.661 800.608 930.921" fill="#494949"></polygon>
          </g>
          <polygon points="78.518 528.881 77.798 535.971 77.598 537.971 37.908 930.921 35.898 930.921 75.588 537.971 75.688 536.971 75.788 535.971 76.528 528.681 78.518 528.881" fill="#494949"></polygon>
        </g>
        <g>
          <rect x="30.317" y="520.584" width="947.391" height="16.387" rx="8.194" ry="8.194" transform="translate(1008.026 1057.556) rotate(180)" fill="#292a2e"></rect>
          <rect x="30.317" y="520.584" width="947.391" height="16.387" rx="8.194" ry="8.194" transform="translate(1008.026 1057.556) rotate(180)" fill="#fff" opacity=".8"></rect>
          <path d="m29.317,528.778c0-5.069,4.124-9.194,9.193-9.194h931.004c5.069,0,9.194,4.125,9.194,9.194,0,5.069-4.125,9.193-9.194,9.193H38.511c-5.069,0-9.193-4.124-9.193-9.193Zm9.193-7.194c-3.967,0-7.193,3.227-7.193,7.194,0,3.966,3.227,7.193,7.193,7.193h931.004c3.967,0,7.194-3.227,7.194-7.193s-3.227-7.194-7.194-7.194H38.511Z" fill="#292a2e"></path>
        </g>
        <g>
          <rect x="30.317" y="520.584" width="766.43" height="16.387" rx="8.194" ry="8.194" transform="translate(827.065 1057.556) rotate(180)" fill="#fff"></rect>
          <path d="m29.317,528.778c0-5.069,4.124-9.194,9.193-9.194h750.043c5.069,0,9.193,4.125,9.193,9.194,0,5.069-4.124,9.193-9.193,9.193H38.511c-5.069,0-9.193-4.124-9.193-9.193Zm9.193-7.194c-3.967,0-7.193,3.227-7.193,7.194,0,3.966,3.227,7.193,7.193,7.193h750.043c3.966,0,7.193-3.227,7.193-7.193s-3.227-7.194-7.193-7.194H38.511Z" fill="#292a2e"></path>
        </g>
      </g>
      <g>
        <rect x="501.423" y="510.797" width="102.759" height="8.614" rx="4.253" ry="4.253" fill="#fff"></rect>
        <g>
          <rect x="501.423" y="510.797" width="102.759" height="8.614" rx="4.253" ry="4.253" fill="#fff"></rect>
          <path d="m599.93,520.412h-94.254c-2.896,0-5.252-2.356-5.252-5.252v-.109c0-2.896,2.356-5.252,5.252-5.252h94.254c2.896,0,5.252,2.356,5.252,5.252v.109c0,2.896-2.356,5.252-5.252,5.252Zm-94.254-8.614c-1.793,0-3.252,1.459-3.252,3.252v.109c0,1.793,1.459,3.252,3.252,3.252h94.254c1.793,0,3.252-1.459,3.252-3.252v-.109c0-1.793-1.459-3.252-3.252-3.252h-94.254Z" fill="#292a2e"></path>
        </g>
        <g>
          <path d="m533.869,507.236l-34.561-106.239c-1.246-3.83-4.815-6.422-8.843-6.422h-140.804c-6.319,0-10.798,6.167-8.843,12.176l34.561,106.239c1.246,3.83,4.815,6.422,8.843,6.422h140.804c6.319,0,10.798-6.167,8.843-12.176Z" fill="#fff"></path>
          <path d="m525.025,520.412h-140.803c-4.474,0-8.41-2.858-9.794-7.113l-34.561-106.238c-1.032-3.172-.5-6.539,1.46-9.238,1.96-2.699,4.998-4.247,8.333-4.247h140.804c4.474,0,8.409,2.858,9.794,7.113l34.561,106.239c1.032,3.172.5,6.54-1.461,9.238-1.96,2.699-4.997,4.247-8.333,4.247Zm-175.364-124.837c-2.688,0-5.136,1.248-6.715,3.422-1.579,2.175-2.008,4.888-1.176,7.444l34.561,106.239c1.115,3.429,4.286,5.732,7.892,5.732h140.803c2.688,0,5.136-1.248,6.715-3.422,1.58-2.175,2.009-4.888,1.177-7.444l-34.561-106.239c-1.115-3.429-4.287-5.732-7.892-5.732h-140.804Z" fill="#292a2e"></path>
        </g>
        <g>
          <circle cx="437.343" cy="462.176" r="14.768" fill="#fff"></circle>
          <path d="m437.343,477.944c-8.694,0-15.768-7.073-15.768-15.768s7.073-15.768,15.768-15.768,15.768,7.073,15.768,15.768-7.073,15.768-15.768,15.768Zm0-29.535c-7.591,0-13.768,6.176-13.768,13.768s6.176,13.768,13.768,13.768,13.768-6.176,13.768-13.768-6.176-13.768-13.768-13.768Z" fill="#292a2e"></path>
        </g>
      </g>
      <polygon points="463.558 930.921 464.238 930.921 464.228 931.051 463.558 930.921" fill="#fff"></polygon>
      <polygon points="577.858 930.921 578.538 930.921 578.528 931.051 577.858 930.921" fill="#fff"></polygon>
      <polygon points="716.868 930.921 717.548 930.921 716.878 931.051 716.868 930.921" fill="#fff"></polygon>
      <polygon points="831.848 930.921 831.178 931.051 831.168 930.921 831.848 930.921" fill="#fff"></polygon>
      <g>
        <g>
          <g>
            <g>
              <path d="m356.73,110.235c.067-2.425,2.15-4.319,4.599-4.123,2.296.184,3.964,2.296,3.9,4.599l-.159,5.743,8.82-17.895c.946-2.007,3.39-3.864,5.571-2.655,1.827.861,4.082,2.308,5.425,4.614.022.007,7.517,22.699,6.639,24.56l-1.74,18.766c-3.723,7.897-11.865,12.746-20.583,12.256l-13.72-.771,1.246-45.095Z" fill="#ff9e85"></path>
              <g fill="none" opacity=".2">
                <path d="m373.16,118.411c.193.089.423.008.517-.183l8.366-17.029c.095-.195.015-.43-.179-.526-.176-.104-.43-.015-.526.179l-8.366,17.029c-.095.195-.015.43.179.526l.008.004Z" fill="#0c0c0c"></path>
              </g>
            </g>
            <path d="m333.329,296.585c-1.805-.439-3.577-1.051-5.294-1.837l-122.92-42.601,37.737-59.853,77.254,34.072,23.098-94.988,57.213,13.913-31.525,129.643c-2.076,8.537-7.856,15.7-15.761,19.533-6.205,3.009-13.212,3.72-19.802,2.117Z" fill="#0066f9"></path>
            <g>
              <rect x="365.935" y="64.215" width="17.109" height="70.395" rx="4.965" ry="4.965" transform="translate(-11.413 64.706) rotate(-9.728)" fill="#292a2e"></rect>
              <rect x="329.945" y="38.913" width="51.407" height="49.214" rx="24.607" ry="24.607" transform="translate(-5.619 61.006) rotate(-9.728)" fill="#48cf48"></rect>
              <path d="m435.237,65.1l-4.613,2.226-5.317-31.013,4.927.162c.412,4.415,1.024,9.059,1.844,13.839.891,5.197,1.96,10.166,3.158,14.786Z" fill="#0066f9"></path>
              <path d="m448.856,47.44c1.044,6.089.618,11.242-.947,11.51-.312.054-.645-.09-.986-.404-.002,0-.002-.001-.004-.001-1.379-1.26-2.902-5.258-3.738-10.132-.776-4.527-.741-8.536-.026-10.405.245-.644.571-1.034.974-1.103,1.566-.268,3.683,4.448,4.727,10.536Z" fill="#0066f9"></path>
              <path d="m432.095,50.414c-.006-.034-.011-.067-.017-.102-3.39-19.772-.78-41.218,2.341-49.382-12.258,12.481-30.115,25.22-46.898,30.409-6.772,2.094-15.059,4.006-27.65,6.15l8.429,49.168c12.586-2.173,21.036-3.13,28.119-3.411,17.553-.697,38.633,5.366,54.349,13.052-5.662-6.659-15.266-26.01-18.655-45.783-.006-.034-.012-.067-.018-.101Z" fill="#48cf48"></path>
              <rect x="352.934" y="33.864" width="30.046" height="54.889" rx="1.804" ry="1.804" transform="translate(-5.069 63.054) rotate(-9.728)" fill="#292a2e"></rect>
              <rect x="352.934" y="33.864" width="30.046" height="54.889" rx="1.804" ry="1.804" transform="translate(-5.069 63.054) rotate(-9.728)" fill="#fff" opacity=".1"></rect>
              <path d="m456.861,46.064c4.559,26.595,2.701,49.101-4.137,50.273-1.363.234-2.818-.394-4.305-1.765-.008.001-.009-.006-.017-.005-6.022-5.505-12.674-22.964-16.324-44.254-3.39-19.772-3.234-37.282-.114-45.446,1.072-2.815,2.494-4.517,4.252-4.819,6.839-1.172,16.086,19.429,20.644,46.017Z" fill="#48cf48"></path>
              <path d="m456.861,46.064c4.559,26.595,2.701,49.101-4.137,50.273-1.363.234-2.818-.394-4.305-1.765-.008.001-.009-.006-.017-.005-6.022-5.505-12.674-22.964-16.324-44.254-3.39-19.772-3.234-37.282-.114-45.446,1.072-2.815,2.494-4.517,4.252-4.819,6.839-1.172,16.086,19.429,20.644,46.017Z" fill="#0c0c0c" opacity=".3"></path>
              <path d="m444.134,36.933l3.78,22.047-12.677,6.12c-1.198-4.62-2.267-9.59-3.158-14.786-.819-4.78-1.432-9.424-1.844-13.839l13.899.458Z" fill="#fff" opacity=".6"></path>
              <path d="m448.856,47.44c1.044,6.089.618,11.242-.947,11.51-.312.054-.645-.09-.986-.404-.002,0-.002-.001-.004-.001-1.379-1.26-2.902-5.258-3.738-10.132-.776-4.527-.741-8.536-.026-10.405.245-.644.571-1.034.974-1.103,1.566-.268,3.683,4.448,4.727,10.536Z" fill="#fff"></path>
            </g>
            <path d="m372.88,120.62c-.08-1.823,1.101-2.973,2.386-3.466-.029-.054-.135-.167-.038-.211l-2.882-.382c-1.742-.231-3.172-1.671-3.156-3.429.017-1.822,1.406-3.219,3.09-3.381-.021-.027-.016-.066-.028-.098l-1.184-.157c-1.639-.217-2.994-1.524-3.09-3.174-.128-2.22,1.771-3.896,3.861-3.619l2.733.362c0-.015-.013-.025-.012-.041,0-.019.021-.03.026-.048-1.464-.542-2.416-2.035-2.202-3.648.132-1.999,2.449-2.842,4.216-2.608l5.509,1.169c1.727.367,3.153,1.574,3.805,3.215,2.776,6.989,9.591,25.419,3.951,24.672l-13.884-1.838c-1.602-.212-3.032-1.704-3.102-3.319Z" fill="#ff9e85"></path>
          </g>
          <g>
            <g>
              <path d="m143.225,852.726s-18.938,27.871-2.153,47.937-2.236,30.218-2.236,30.218l-68.462-72.605,36.275-34.205,36.577,28.655Z" fill="#0066f9"></path>
              <path d="m252.605,404.606s63.924,219.862,48.857,252.001c-14.812,31.596-160.003,216.191-160.003,216.191l-48.613-42.374,130.239-194.988s-35.595-112.608-54.836-171.662c-11.599-35.6-31.118-34.466-32.972-71.862h0s117.328,12.693,117.328,12.693Z" fill="#262626"></path>
              <path d="m179.207,497.62s-13.986-43.489-7.255-32.864c35.434,55.929,36.147,123.409,36.147,123.409l-28.892-90.545Z" fill="#0a0a0a"></path>
              <path d="m220.385,874.936s8.435,30.827,34.549,32.382c26.114,1.554,20.451,22.358,20.451,22.358h-99.793v-49.858s44.792-4.882,44.792-4.882Z" fill="#0066f9"></path>
              <path d="m74.441,399.097s-.443-2.056-.705,9.961c-.185,8.485-3.631,38.518,8.284,85.887,22.322,88.751,89.169,400.727,89.169,400.727l65.574-.551-66.334-494.254-95.988-1.771Z" fill="#262626"></path>
            </g>
            <path d="m73.426,399.457l-.214.012s.155-4.131.214-.012Z" fill="#333"></path>
            <rect x="248.335" y="292.869" width="25.245" height="1.19" transform="translate(-46.821 537.374) rotate(-86.752)" fill="#0c0c0c"></rect>
            <g>
              <path d="m110.099,102.418s-2.196,34.055-8.63,44.168c-18.524,29.115-24.175,52.044-6.164,69.489,18.011,17.446,134.161,19.03,143.419-20.511,7.794-33.289-8.062-37.061-11.611-64.638-1.606-12.478-6.118-38.655-6.118-38.655" fill="#0a0a0a"></path>
              <path id="sk-2" data-name="sk" d="m209.156,189.244c-.201-.026-2.426,36.894-45.316,33.675-29.693-2.224-40.28-33.728-40.96-33.728,3.201-.68,8.592-1.67,10.014-2.429,4.676-2.512,10.461-5.126,11.968-14.206.869-5.233-.605-32.006-.151-37.301l45.579,10.173c-.637,11.183-5.094,37.107,10.529,41.696,2.599.759,5.4,1.457,8.339,2.12Z" fill="#ff9e85"></path>
              <path id="sh-2" data-name="sh" d="m190.927,176.53c-.646-2.061-1.03-3.853-1.371-7.074-.61-5.761-.286-11.057.298-16.453-9.208-1.226-18.048-5.098-25.191-11.036-.846,3.126-5.501,16.783-4.212,19.753,2.436,5.615,13.883,14.81,30.476,14.81Z" fill="#0c0c0c" opacity=".22"></path>
              <path d="m184.886,164.909c-17.988,1.536-37.276-5.937-41.815-29.921l-7.974-21.631c-4.539-23.985,4.378-45.812,26.961-50.086h0c22.583-4.274,40.722,3.192,45.261,27.176,0,0,2.802,13.723,3.233,18.365,1.628,17.504,1.628,53.767-25.666,56.097Z" fill="#ff9e85"></path>
              <path id="e1_eb-3" data-name="e1_eb" d="m206.78,104.398c-.083.778-3.011.697-6.908.084-3.897-.613-7.348-1.339-7.203-2.303.182-1.217,3.505-1.705,7.402-1.092,3.897.613,6.84,2.087,6.71,3.311Z" fill="#0a0a0a"></path>
              <path d="m117.031,120.9l25.426,7.015c15.331-6.204,14.786-43.471,14.786-43.471,0,0,18.623,18.151,63.752,7.827,0,0-9.049-60.937-75.721-42.637-21.498,5.901-36.928,29.565-35.006,58.519,1.347,20.291,6.763,12.747,6.763,12.747Z" fill="#0a0a0a"></path>
              <path d="m141.978,142.041c-6.863,1.299-13.929-1.14-15.856-11.476-1.28-6.866,4.29-12.078,11.153-13.376l4.407,3.929,6.197,19.806-5.9,1.117Z" fill="#ff9e85"></path>
              <g>
                <circle id="e1_eye-3" data-name="e1_eye" cx="198.281" cy="112.939" r="2.5" fill="#0a0a0a"></circle>
                <g id="e1_n-2" data-name="e1_n">
                  <path d="m185.157,132.379c-.506,0-.939-.382-.993-.896-.058-.549.341-1.041.891-1.099l5.296-.554-3.26-10.578c-.162-.528.134-1.087.662-1.25.527-.162,1.087.133,1.25.661l3.617,11.741c.088.286.043.596-.122.846s-.433.412-.73.443l-6.506.68c-.035.004-.07.005-.104.005Z" fill="#0a0a0a"></path>
                </g>
                <g id="e1_m-2" data-name="e1_m">
                  <path d="m183.982,143.703c-9.064,0-11.762-5.478-11.883-5.734-.235-.5-.021-1.095.478-1.331.496-.235,1.09-.023,1.328.472.113.233,2.881,5.613,12.855,4.42.56-.069,1.047.326,1.112.874.065.548-.326,1.046-.874,1.112-1.076.129-2.081.187-3.017.187Z" fill="#0a0a0a"></path>
                </g>
                <path id="e1_eb-4" data-name="e1_eb" d="m176.416,103.875c.24.745-2.47,1.859-6.28,2.88s-7.259,1.757-7.518.818c-.327-1.186,2.512-2.98,6.322-4.001,3.81-1.021,7.098-.868,7.476.304Z" fill="#0a0a0a"></path>
                <circle id="e1_eye-4" data-name="e1_eye" cx="173.212" cy="114.532" r="2.5" fill="#0a0a0a"></circle>
              </g>
              <path d="m128.012,112.443l-.314,9.538c1.811-2.178,4.427-3.693,7.464-4.054.755-.1,1.504-.09,2.236-.029,4.56,3.613,1.32,10.213,5.059,10.017,2.123-.111,6.964-5.124,8.125-8.233.736-1.971-4.569-9.534-4.543-11.638" fill="#0a0a0a"></path>
            </g>
            <path d="m262.445,270.526c-1.351,15.871-7.923,114.892-9.221,134.441H73.797c-1.011-17.632-5.139-94.732-8.974-129.212-3.661-32.902-10.842-49.375-5.578-59.102,8.602-15.898,32.109-25.084,48.137-27.254,9.788-1.325,24.509-2.275,24.509-2.275,0,0,1.246,25.215,30.967,26.618,40.459,1.909,37.757-26.618,37.957-26.618,6.554,0,36.079,1.203,45.239,6.633,24.962,14.782,19.258,43.134,16.39,76.769Z" fill="#0066f9"></path>
            <path d="m374.006,281.614l-16.567,80.523c-.693,3.369-3.646,5.797-7.085,5.826l-114.078.971c-4.647.04-8.146-4.216-7.21-8.767l16.567-80.523c.693-3.369,3.646-5.797,7.085-5.826l114.078-.971c4.647-.04,8.146,4.216,7.21,8.767Z" fill="#292a2e"></path>
            <circle cx="365.477" cy="281.482" r="3.428" fill="#fff"></circle>
            <g>
              <path d="m267.631,338.81c.202,2.167-1.405,4.095-3.536,4.571l-3.512.774c.119.048.226.131.262.274.012.071-.012.155-.048.214,1.643.476,2.952,1.905,3.071,3.81.143,1.988-1.512,3.988-3.464,4.429l-29.655,6.583c-1.536.345-3.083.512-4.619.512-6.929,0-13.548-3.381-17.583-9.25-4.321-6.274-2.869-14.857,3.286-19.345l25.226-18.44c.571-.417,1.226-.679,1.881-.774l-2.321,11.274.619-.143.131-.024,19.345-3.94c2.155-.476,5.107.31,5.488,2.762.429,1.976-.583,3.917-2.333,4.75.012.012.036.024.036.048.012.024-.012.036-.012.06l3.345-.738c2.548-.571,5.071,1.298,5.155,4.048.06,2.048-1.476,3.81-3.476,4.25l-1.44.321c-.012.048,0,.095-.024.131,2.095.012,3.964,1.595,4.179,3.845Z" fill="#ff9e85"></path>
              <g fill="none" opacity=".25">
                <path d="m240.635,330.861c.047.206.251.338.46.295l18.51-3.796c.211-.043.348-.25.304-.462-.025-.202-.25-.348-.462-.304l-18.51,3.796c-.211.043-.348.25-.304.462l.002.009Z" fill="#0c0c0c"></path>
              </g>
              <g fill="none" opacity=".25">
                <path d="m242.083,339.071c.047.206.251.338.46.295l20.657-4.236c.211-.043.348-.25.304-.462-.041-.193-.25-.348-.462-.304l-20.657,4.236c-.211.043-.348.25-.304.462l.002.009Z" fill="#0c0c0c"></path>
              </g>
              <g fill="none" opacity=".25">
                <path d="m243.602,347.971c.047.206.251.338.46.295l16.478-3.379c.211-.043.348-.25.304-.462-.048-.213-.25-.348-.462-.304l-16.478,3.379c-.211.043-.348.25-.304.462l.002.009Z" fill="#0c0c0c"></path>
              </g>
            </g>
            <path id="b_4_b-3" data-name="b_4_b" d="m228.913,371.198l-160.886,29.075c-1.182.129-2.364.192-3.539.192-8.946,0-17.563-3.674-23.772-10.256-7.025-7.448-10.156-17.756-8.457-27.851l22.523-133.877c2.995-17.801,19.85-29.799,37.654-26.809,17.801,2.995,29.804,19.853,26.809,37.654l-15.359,92.16,117.953-14.813,7.073,54.526Z" fill="#0066f9"></path>
            <g id="b_4_b-4" data-name="b_4_b">
              <path d="m68.027,400.868c-.283,0-.532-.201-.585-.489-.058-.323.157-.634.48-.692l160.328-28.973-6.924-53.376-117.365,14.739c-.194.023-.373-.042-.503-.178s-.189-.324-.158-.51l9.763-58.901c.053-.323.357-.551.685-.489.324.053.543.36.489.685l-9.633,58.113,117.161-14.713c.319-.04.622.188.665.514l7.073,54.526c.041.315-.172.606-.485.663l-160.885,29.075c-.036.006-.071.009-.107.009Z" fill="#0c0c0c"></path>
            </g>
            <rect x="93.473" y="331.722" width="10.481" height="1.191" transform="translate(-51.287 19.781) rotate(-9.095)" fill="#0c0c0c"></rect>
          </g>
          <path d="m262.37,272.49c-.009,0-.018,0-.026,0-.276-.015-.488-.25-.474-.525l.737-14.264c.014-.276.25-.495.525-.474.276.015.488.25.474.525l-.737,14.264c-.014.267-.235.474-.499.474Z" fill="#0c0c0c"></path>
        </g>
        <polyline points="220.031 770.732 161.125 847.608 166.858 875.519 220.385 772.973" fill="#0a0a0a"></polyline>
      </g>
      <path d="m626.416,392.947c-.442,1.882-1.967,2.714-3.41,2.844.013.064.089.209-.022.226l2.81,1.223c1.698.739,2.735,2.622,2.214,4.409-.539,1.854-2.347,2.876-4.099,2.554.014.033-.002.072,0,.108l1.155.502c1.598.695,2.596,2.42,2.22,4.131-.506,2.302-2.91,3.461-4.948,2.574l-2.665-1.159c-.004.015.006.03,0,.045-.006.019-.03.025-.04.042,1.328.976,1.864,2.774,1.185,4.357-.706,2.001-3.295,2.19-5.018,1.441l-5.245-2.786c-1.645-.873-2.743-2.517-2.933-4.379-.809-7.931-2.432-28.695,3.067-26.303l13.537,5.889c1.562.68,2.583,2.615,2.191,4.282Z" fill="#ff9e85"></path>
      <g>
        <path d="m.702,931.454h1010.419c.388,0,.702-.314.702-.702s-.314-.702-.702-.702H.702c-.388,0-.702.314-.702.702,0,.388.314.702.702.702Z" fill="#292a2e"></path>
        <g fill="none" opacity=".65">
          <path d="m.702,931.454h1010.419c.388,0,.702-.314.702-.702s-.314-.702-.702-.702H.702c-.388,0-.702.314-.702.702,0,.388.314.702.702.702Z" fill="#292a2e"></path>
        </g>
      </g>
    </g>
  </g>
</svg>