<svg width="245" height="181" viewBox="0 0 245 181" fill="none" xmlns="http://www.w3.org/2000/svg" style="width: 100%; height: 100%;">
<g clip-path="url(#clip0_35_2795)">
<path d="M78.5081 138.467C73.1741 129.217 73.618 128.152 68.284 118.903C64.55 112.428 60.409 105.57 53.007 101.859C49.014 99.857 43.5431 99.079 40.0881 101.519C32.0271 107.211 39.0131 122.263 47.1361 138.448C59.4791 138.841 63.8831 138.467 78.5081 138.467Z" fill="#55D087" stroke="#010101" stroke-width="1.5" stroke-linecap="round" stroke-linejoin="round"></path>
<path d="M45.6329 104.62C50.1579 118.691 53.8389 124.882 60.2909 138.467" stroke="#010101" stroke-width="1.5" stroke-linecap="round" stroke-linejoin="round"></path>
<path d="M50.167 138.467C41.023 124.599 35.239 115.658 22.776 111.78C20.333 111.02 17.524 110.673 15.249 111.633C12.675 112.718 10.686 115.2 11.091 117.623C12.646 126.916 18.173 132.042 21.62 138.75C32.741 138.808 41.756 138.424 50.167 138.467Z" fill="#55D087" stroke="#010101" stroke-width="1.5" stroke-linecap="round" stroke-linejoin="round"></path>
<path d="M18.264 113.166C24.609 124.19 26.127 127.763 34.242 137.983" stroke="#010101" stroke-width="1.5" stroke-linecap="round" stroke-linejoin="round"></path>
<path d="M81.638 49.335C81.89 46.371 81.971 40.36 82.223 37.396C79.638 37.012 77.031 36.781 74.419 36.705C73.84 32.663 72.01 28.599 69.563 25.902C71.692 24.209 73.319 22.749 75.385 21.087C73.683 18.679 71.051 14.65 67.657 10.704C64.818 12.621 63.947 13.121 61.844 15.024C60.317 12.514 59.773 11.736 56.455 9.932C54.301 8.761 52.513 8.343 49.403 8.297C49.699 5.578 49.621 4.544 49.999 1.069C44.413 0.986001 39.086 1.245 36.569 0.749001C36.123 3.252 36.242 4.881 36.031 8.009C34.696 7.989 32.201 8.197 30.014 8.711C27.327 9.343 25.326 10.803 24.064 12.028C22.107 9.978 20.664 8.734 19.091 7.684C13.065 12.866 8.94502 16.44 9.12402 16.7C10.172 18.223 12.267 20.396 13.987 21.944C12.235 23.842 10.768 26.246 10.429 28.254C10.09 30.262 9.87102 30.593 9.86202 32.63C7.52902 32.395 3.44202 32.692 0.749023 32.768C0.817023 37.136 0.886023 41.504 0.954023 45.872C0.956023 46.004 0.961023 46.145 1.03702 46.254C1.14902 46.414 1.36902 46.445 1.56302 46.463C4.44202 46.718 6.67902 46.311 9.55802 46.566C9.57302 50.423 11.604 54.189 13.687 57.552C12.165 59.242 9.88802 61.489 8.27502 62.944C11.733 66.028 14.401 69.572 17.859 72.656C19.489 71.426 22.574 68.945 24.205 67.714C25.675 69.906 31.556 73.78 36.638 72.083C36.726 74.489 35.903 79.63 37.259 80.17C40.42 81.428 46.803 80.102 50.205 80.074C51.127 77.375 49.914 74.815 50.835 72.116C54.236 71.369 57.466 69.173 60.883 66.087C62.159 67.768 63.528 69.563 65.113 71.142C65.236 71.265 65.383 71.396 65.557 71.387C65.692 71.38 65.806 71.29 65.91 71.203C68.623 68.952 71.277 66.629 73.868 64.239C74.011 64.107 74.163 63.955 74.174 63.762C74.185 63.564 74.044 63.394 73.912 63.246C72.266 61.408 70.62 59.569 68.973 57.731C71.226 55.451 72.763 52.372 73.6 49.112C83.392 49.623 81.574 50.061 81.636 49.334L81.638 49.335ZM62.624 43.885C61.299 55.432 54.163 59.822 49.197 60.945C44.497 62.007 37.399 62.405 31.725 59.697C27.377 57.621 24.895 54.579 22.705 50.287C20.332 45.636 18.868 40.136 20.569 35.199C21.948 31.198 25.093 26.911 28.529 24.44C32.553 21.546 37.242 20.405 42.178 19.957C47.114 19.509 53.499 20.226 56.88 24.861C61.926 30.564 63.325 37.78 62.624 43.885Z" fill="#E3E3FF" stroke="#010101" stroke-width="1.5" stroke-linecap="round" stroke-linejoin="round"></path>
<path d="M134.609 37.878C142.572 20.482 164.403 19.727 188.075 73.791C192.18 83.167 199.195 122.308 180.427 122.965C173.924 123.193 169.235 123.345 164.362 119.033C126.599 85.616 132.497 42.491 134.609 37.878Z" fill="#0066f9" stroke="#010101" stroke-width="1.5" stroke-linecap="round" stroke-linejoin="round"></path>
<path d="M114.945 134.622C117.181 136.395 119.502 138.061 121.897 139.612C122.545 140.031 123.206 140.45 123.724 141.021C124.242 141.592 124.608 142.35 124.535 143.118C124.441 144.106 123.672 144.881 122.917 145.525C121.681 146.579 120.355 147.529 118.958 148.36C117.264 146.387 115.684 144.264 114.749 141.837C113.814 139.41 113.576 136.63 114.945 134.622Z" fill="white" stroke="#010101" stroke-width="1.5" stroke-linecap="round" stroke-linejoin="round"></path>
<path d="M95.7951 130.918C102.062 146.013 108.141 161.186 114.031 176.432C115.006 178.955 117.796 180.273 120.355 179.397C122.643 178.614 124.878 177.678 127.042 176.599C129.495 175.376 130.494 172.404 129.32 169.927C123.703 158.077 117.5 141.299 110.734 125.003C106.946 127.888 99.5231 130.183 95.7951 130.918Z" fill="#42d242" stroke="#010101" stroke-width="1.5" stroke-linecap="round" stroke-linejoin="round"></path>
<path d="M124.614 79.766C141.527 74.438 164.881 68.265 165.647 68.464C166.936 68.798 169.347 74.926 171.392 78.125C171.952 79.002 161.077 88.106 138.302 107.091C137.369 107.868 126.548 90.852 124.614 79.766Z" fill="white" stroke="#010101" stroke-width="1.5" stroke-linecap="round" stroke-linejoin="round"></path>
<path d="M165.743 75.508C166.677 76.978 168.388 78.663 170.127 78.745C172.539 78.858 172.489 76.855 172.489 75.602C172.489 72.109 168.764 67.673 166.306 68.161C164.895 68.441 163.042 71.257 165.743 75.508Z" fill="white" stroke="#010101" stroke-width="1.5" stroke-linecap="round" stroke-linejoin="round"></path>
<path d="M177.995 123.024C145.735 125.834 138.185 121.529 108.405 134.239C107.085 134.799 105.755 135.369 104.395 135.939C93.535 140.469 81.655 144.559 71.265 139.669C63.585 136.049 58.515 127.509 59.025 119.029C59.535 110.559 63.805 103.689 74.295 98.019C78.485 95.749 82.375 93.489 86.015 91.149C106.045 78.349 121.183 60.048 137.072 33.638C130.929 42.389 137.025 65.449 143.805 81.879C150.585 98.319 160.582 121.07 177.995 123.024Z" fill="#0066f9" stroke="#010101" stroke-width="1.5" stroke-linecap="round" stroke-linejoin="round"></path>
<path d="M188.882 33.638C192.748 27.571 196.614 21.504 200.48 15.436" stroke="#010101" stroke-width="1.5" stroke-linecap="round" stroke-linejoin="round"></path>
<path d="M215.073 60.792C221.876 57.536 228.732 54.39 235.636 51.353" stroke="#010101" stroke-width="1.5" stroke-linecap="round" stroke-linejoin="round"></path>
<path d="M218.673 88.614C226.807 89.675 234.976 90.473 243.162 91.006" stroke="#010101" stroke-width="1.5" stroke-linecap="round" stroke-linejoin="round"></path>
<path d="M104.395 135.939C93.535 140.469 81.655 144.559 71.265 139.669C63.585 136.049 58.515 127.509 59.025 119.029C59.535 110.559 63.805 103.689 74.295 98.019C78.485 95.749 82.375 93.489 86.015 91.149C86.751 107.292 94.616 124.741 104.395 135.939Z" fill="#010101" stroke="#010101" stroke-width="1.5" stroke-linecap="round" stroke-linejoin="round"></path>
<path d="M209.34 123.414C212.238 124.188 215.749 125.394 219.41 126.984C229.771 131.492 241.327 139.073 243.59 148.851C245.092 155.348 241.669 162.23 236.578 166.521C232.886 169.624 228.331 171.667 223.556 172.356C215.702 173.494 208.039 171.017 200.9 167.559C197.609 165.962 194.437 164.17 191.406 162.411C192.23 160.336 193.485 157.667 195.027 154.91C197.932 156.674 201.198 158.602 204.572 160.261C208.145 162.004 211.839 163.435 215.403 164.044C222.327 165.213 229.992 164.042 233.303 157.846C236.402 152.046 234.381 144.876 227.367 140.63C222.598 137.739 220.386 136.765 216.17 134.894C213.21 133.583 210.096 132.364 206.42 131.015C207.544 128.647 208.271 126.733 209.34 123.414Z" fill="#0066f9" stroke="#010101" stroke-width="1.5" stroke-linecap="round" stroke-linejoin="round"></path>
<path d="M191.406 162.41C192.23 160.335 193.485 157.666 195.027 154.909C197.932 156.673 201.198 158.601 204.572 160.26C203.377 162.701 202.147 165.139 200.9 167.557C197.609 165.96 194.437 164.168 191.406 162.409V162.41Z" fill="white" stroke="#010101" stroke-width="1.5" stroke-linecap="round" stroke-linejoin="round"></path>
<path d="M209.34 123.414C212.238 124.188 215.749 125.394 219.41 126.984C218.355 129.638 217.276 132.262 216.17 134.892C213.21 133.581 210.096 132.362 206.42 131.013C207.544 128.645 208.271 126.733 209.34 123.414Z" fill="white" stroke="#010101" stroke-width="1.5" stroke-linecap="round" stroke-linejoin="round"></path>
<path d="M163.244 152.592C167.175 154.502 175.797 158.037 175.797 158.037L175.622 154.538C175.622 154.538 183.032 156.28 186.469 156.523C181.91 154.064 171.971 149.101 171.971 149.101L172.604 152.478C172.604 152.478 165.644 152.917 163.244 152.592Z" fill="#42d242" stroke="#010101" stroke-width="1.5" stroke-linecap="round" stroke-linejoin="round"></path>
<path d="M187.517 110.047L194.745 116.556L191.026 118.916C191.026 118.916 201.605 122.502 206.094 123.054C203.749 121.829 199.008 118.078 199.008 118.078L201.525 115.353L187.516 110.046L187.517 110.047Z" fill="#42d242" stroke="#010101" stroke-width="1.5" stroke-linecap="round" stroke-linejoin="round"></path>
<path d="M47.711 31.15C69.835 30.804 91.951 29.995 114.663 29.01C114.939 43.937 115.868 58.852 117.447 73.698C114.145 70.967 110.281 68.92 105.228 68.095C85.921 68.254 66.617 68.911 47.344 70.066C47.327 57.129 46.373 44.191 47.711 31.15Z" fill="#42d242" stroke="#010101" stroke-width="1.5" stroke-linecap="round" stroke-linejoin="round"></path>
<path d="M82.898 58.768C78.923 55.353 75.009 51.867 71.158 48.313C68.202 52.075 62.172 59.404 62.172 59.404C62.172 59.404 75.452 58.768 82.898 58.768Z" fill="#010101" stroke="#010101" stroke-width="1.5" stroke-linecap="round" stroke-linejoin="round"></path>
<path d="M76.2419 58.766C80.8319 52.61 90.0109 39.23 90.0109 39.23L105.035 58.119C105.035 58.119 86.1309 58.621 76.2419 58.766Z" fill="white" stroke="#010101" stroke-width="1.5" stroke-linecap="round" stroke-linejoin="round"></path>
<path d="M76.9789 37.441C75.4199 37.454 74.1379 39.434 74.3579 40.977C74.5099 42.043 75.5429 42.839 76.6139 42.956C77.6609 43.071 78.7699 42.598 79.3529 41.721C79.9359 40.844 79.9249 39.592 79.2699 38.767C78.6149 37.942 77.4019 37.437 76.9789 37.441Z" fill="white" stroke="#010101" stroke-width="1.5" stroke-linecap="round" stroke-linejoin="round"></path>
</g>
<defs>
<clipPath id="clip0_35_2795">
<rect width="244.696" height="180.418" fill="white"></rect>
</clipPath>
</defs>
</svg>