<svg id="Layer_2" data-name="Layer 2" xmlns="http://www.w3.org/2000/svg" viewBox="0 0 692.106 518.839" style="width: 100%; height: 100%;">
  <g id="Layer_2-2" data-name="Layer 2">
    <g>
      <g>
        <rect id="c_3_c" x="37.624" y="29.156" width="243.593" height="254.186" fill="#f4f4f4"></rect>
        <rect id="c_3_c-2" data-name="c_3_c" x="34.832" y="29.156" width="2.792" height="254.186" fill="#f4f4f4"></rect>
        <rect id="c_3_c-3" data-name="c_3_c" x="34.832" y="29.156" width="2.792" height="254.186" fill="#292a2e" opacity=".05"></rect>
        <polygon id="c_3_c-4" data-name="c_3_c" points="96.636 204.311 96.636 137.808 148.841 137.808 148.841 176.445 229.708 176.445 229.708 244.856 264.078 244.856 264.078 283.342 229.708 283.342 223.087 283.342 49.342 283.342 49.342 204.311 96.636 204.311" fill="#292a2e" opacity=".05"></polygon>
        <g id="c_3_wh">
          <rect id="c_3_wh-2" data-name="c_3_wh" x="104.123" y="145.028" width="38.017" height="7.221" fill="#fffffa" opacity=".34"></rect>
          <rect id="c_3_wh-3" data-name="c_3_wh" x="104.123" y="159.991" width="38.017" height="7.221" fill="#fffffa" opacity=".34"></rect>
          <rect id="c_3_wh-4" data-name="c_3_wh" x="104.123" y="174.954" width="38.017" height="7.221" fill="#fffffa" opacity=".34"></rect>
        </g>
        <g id="c_3_wh-5" data-name="c_3_wh">
          <rect id="c_3_wh-6" data-name="c_3_wh" x="56.084" y="211.32" width="7.007" height="7.221" fill="#fffffa" opacity=".34"></rect>
          <rect id="c_3_wh-7" data-name="c_3_wh" x="56.084" y="226.283" width="7.007" height="7.221" fill="#fffffa" opacity=".34"></rect>
          <rect id="c_3_wh-8" data-name="c_3_wh" x="56.084" y="241.246" width="7.007" height="7.221" fill="#fffffa" opacity=".34"></rect>
          <rect id="c_3_wh-9" data-name="c_3_wh" x="69.046" y="211.32" width="7.007" height="7.221" fill="#fffffa" opacity=".34"></rect>
          <rect id="c_3_wh-10" data-name="c_3_wh" x="69.046" y="226.283" width="7.007" height="7.221" fill="#fffffa" opacity=".34"></rect>
          <rect id="c_3_wh-11" data-name="c_3_wh" x="69.046" y="241.246" width="7.007" height="7.221" fill="#fffffa" opacity=".34"></rect>
          <rect id="c_3_wh-12" data-name="c_3_wh" x="81.659" y="211.32" width="7.007" height="7.221" fill="#fffffa" opacity=".34"></rect>
          <rect id="c_3_wh-13" data-name="c_3_wh" x="81.659" y="226.283" width="7.007" height="7.221" fill="#fffffa" opacity=".34"></rect>
          <rect id="c_3_wh-14" data-name="c_3_wh" x="81.659" y="241.246" width="7.007" height="7.221" fill="#fffffa" opacity=".34"></rect>
        </g>
        <polygon points="37.624 154.823 86.639 154.823 86.639 29.156 90.693 29.156 90.693 154.823 223.087 154.823 223.087 29.156 227.141 29.156 227.141 154.823 281.217 154.823 281.217 159.053 227.141 159.053 227.141 283.342 223.087 283.342 223.087 159.053 90.693 159.053 90.693 283.342 86.639 283.342 86.639 159.053 37.624 159.053 37.624 154.823" fill="#fff"></polygon>
        <rect id="c_3_c-5" data-name="c_3_c" x="27.92" y="283.035" width="263.001" height="8.453" fill="#f4f4f4"></rect>
        <rect id="c_3_c-6" data-name="c_3_c" x="27.92" y="283.035" width="263.001" height="8.453" fill="#292a2e" opacity=".1"></rect>
        <rect id="c_3_c-7" data-name="c_3_c" x="24.123" y="283.035" width="3.797" height="8.453" fill="#292a2e" opacity=".1"></rect>
        <rect id="c_3_c-8" data-name="c_3_c" x="24.123" y="283.035" width="3.797" height="8.453" fill="#292a2e" opacity=".1"></rect>
        <g>
          <rect x="34.832" y="33.693" width="246.385" height="6.285" transform="translate(316.049 73.672) rotate(-180)" fill="#fff"></rect>
          <rect x="34.832" y="45.432" width="246.385" height="6.285" transform="translate(316.049 97.15) rotate(-180)" fill="#fff"></rect>
          <rect x="34.832" y="57.172" width="246.385" height="6.285" transform="translate(316.049 120.628) rotate(-180)" fill="#fff"></rect>
          <rect x="34.832" y="68.911" width="246.385" height="6.285" transform="translate(316.049 144.106) rotate(-180)" fill="#fff"></rect>
          <rect x="34.832" y="80.65" width="246.385" height="6.285" transform="translate(316.049 167.585) rotate(-180)" fill="#fff"></rect>
        </g>
        <rect x="61.002" y="29.156" width="3.692" height="64.868" transform="translate(125.695 123.179) rotate(-180)" fill="#fff"></rect>
        <ellipse cx="62.535" cy="98.046" rx="5.073" ry="5.293" fill="#fff"></ellipse>
      </g>
      <g>
        <rect x="492.215" y="27.736" width="102.493" height="139.209" fill="#f4f4f4"></rect>
        <rect x="594.708" y="27.736" width="3.325" height="139.209" transform="translate(1192.741 194.681) rotate(180)" fill="#f4f4f4"></rect>
        <rect x="594.708" y="27.736" width="3.325" height="139.209" transform="translate(1192.741 194.681) rotate(180)" fill="#292a2e" opacity=".05"></rect>
        <rect x="510.885" y="53.094" width="65.152" height="88.492" fill="#292a2e" opacity=".05"></rect>
        <rect x="572.642" y="53.094" width="3.396" height="88.492" fill="#292a2e" opacity=".03"></rect>
        <rect x="594.708" y="201.179" width="83.823" height="88.272" fill="#f4f4f4"></rect>
        <rect x="609.977" y="217.259" width="53.284" height="56.112" fill="#292a2e" opacity=".05"></rect>
        <rect x="678.531" y="201.179" width="3.325" height="88.272" transform="translate(1360.387 490.629) rotate(180)" fill="#f4f4f4"></rect>
        <rect x="678.531" y="201.179" width="3.325" height="88.272" transform="translate(1360.387 490.629) rotate(180)" fill="#292a2e" opacity=".05"></rect>
        <rect x="659.866" y="217.259" width="3.396" height="56.112" fill="#292a2e" opacity=".03"></rect>
      </g>
      <g>
        <polygon points="565.593 264.833 400.506 123.577 235.524 264.833 400.559 349.954 565.593 264.833" fill="none"></polygon>
        <path d="m400.559,350.704c-.109,0-.218-.026-.319-.078l-165.034-85.121c-.219-.113-.368-.334-.395-.587-.028-.253.069-.504.258-.665l164.982-141.256c.264-.228.646-.228.912,0l165.087,141.256c.189.162.286.412.258.666-.028.253-.177.474-.395.587l-165.034,85.121c-.101.052-.21.078-.319.078Zm-163.717-86.028l163.717,84.441,163.717-84.441-163.769-140.128-163.665,140.128Z" fill="#292a2e"></path>
        <g>
          <path d="m578.396.75l-32.848,45.939v390.906c0,7.694-5.977,13.93-13.35,13.93h-263.384c-7.373,0-13.35-6.237-13.35-13.93V38.388c0-20.787,16.149-37.638,36.069-37.638h286.863Z" fill="#fff"></path>
          <path d="m532.198,452.276h-263.383c-7.758,0-14.069-6.586-14.069-14.681V38.388C254.746,17.221,271.249,0,291.534,0h286.863c.272,0,.52.16.642.414.122.254.096.558-.066.785l-32.706,45.739v390.657c0,8.095-6.311,14.681-14.069,14.681ZM291.534,1.5c-19.492,0-35.35,16.547-35.35,36.887v399.208c0,7.268,5.666,13.181,12.631,13.181h263.383c6.965,0,12.631-5.913,12.631-13.181V46.689c0-.162.05-.319.143-.449l31.991-44.74h-285.43Z" fill="#292a2e"></path>
        </g>
        <rect x="308.154" y="50.62" width="184.81" height="4.06" rx="1.093" ry="1.093" fill="#262626" opacity=".3"></rect>
        <g>
          <path d="m545.548,35.027c0-18.931,14.707-34.277,32.848-34.277s32.848,15.346,32.848,34.277v28.939h-65.697v-28.939Z" fill="#fff"></path>
          <path d="m611.245,64.716h-65.697c-.397,0-.719-.336-.719-.75v-28.939c0-19.314,15.058-35.027,33.567-35.027s33.567,15.713,33.567,35.027v28.939c0,.414-.322.75-.719.75Zm-64.978-1.5h64.259v-28.189c0-18.487-14.413-33.527-32.13-33.527s-32.13,15.041-32.13,33.527v28.189Z" fill="#292a2e"></path>
        </g>
        <rect x="396.352" y="135.854" width="125.67" height="1.865" rx=".913" ry=".913" fill="#262626" opacity=".3"></rect>
        <rect x="396.352" y="122.612" width="125.67" height="1.865" rx=".913" ry=".913" fill="#262626" opacity=".3"></rect>
        <rect x="396.352" y="109.369" width="125.67" height="1.865" rx=".913" ry=".913" fill="#262626" opacity=".3"></rect>
        <rect x="396.352" y="96.127" width="125.67" height="1.865" rx=".913" ry=".913" fill="#262626" opacity=".3"></rect>
        <rect x="396.352" y="82.826" width="125.67" height="1.865" rx=".913" ry=".913" fill="#262626" opacity=".3"></rect>
        <rect x="396.352" y="149.096" width="74.45" height="1.865" rx=".913" ry=".913" fill="#262626" opacity=".3"></rect>
        <g>
          <rect x="279.096" y="72.183" width="100.924" height="87.43" rx="2.995" ry="2.995" fill="#48cf48" opacity=".9"></rect>
          <ellipse cx="314.296" cy="99.266" rx="7.303" ry="7.62" fill="#fff" opacity=".8"></ellipse>
          <path d="m324.352,134.894l21.17-24.644c2.75-3.202,7.457-3.499,10.557-.666l23.942,21.874v28.155h-28.94" fill="#fff" opacity=".5"></path>
          <path d="m351.081,159.612l-45.905-42.45c-2.805-2.594-7.011-2.638-9.865-.103l-16.215,14.399v28.155" fill="#fff" opacity=".8"></path>
        </g>
        <rect x="279.182" y="223.347" width="242.753" height="1.865" rx=".913" ry=".913" fill="#262626" opacity=".3"></rect>
        <rect x="279.182" y="210.105" width="242.753" height="1.865" rx=".913" ry=".913" fill="#262626" opacity=".3"></rect>
        <rect x="279.182" y="196.862" width="242.753" height="1.865" rx=".913" ry=".913" fill="#262626" opacity=".3"></rect>
        <rect x="279.182" y="183.62" width="242.753" height="1.865" rx=".913" ry=".913" fill="#262626" opacity=".3"></rect>
        <rect x="279.182" y="236.59" width="74.45" height="1.865" rx=".913" ry=".913" fill="#262626" opacity=".3"></rect>
        <rect x="279.182" y="299.712" width="242.753" height="1.865" rx=".913" ry=".913" fill="#262626" opacity=".3"></rect>
        <rect x="279.182" y="286.47" width="242.753" height="1.865" rx=".913" ry=".913" fill="#262626" opacity=".3"></rect>
        <rect x="279.182" y="273.227" width="242.753" height="1.865" rx=".913" ry=".913" fill="#262626" opacity=".3"></rect>
        <rect x="279.182" y="259.985" width="242.753" height="1.865" rx=".913" ry=".913" fill="#262626" opacity=".3"></rect>
        <rect x="279.182" y="312.954" width="74.45" height="1.865" rx=".913" ry=".913" fill="#262626" opacity=".3"></rect>
        <path d="m549.479,463.968H251.639c-8.9,0-16.114-7.528-16.114-16.815v-182.32s165.034,85.121,165.034,85.121l165.034-85.121v182.32c0,9.287-7.215,16.815-16.114,16.815Z" fill="#0066f9"></path>
        <path d="m549.479,463.968H251.639c-8.9,0-16.114-7.528-16.114-16.815v-182.32s165.034,85.121,165.034,85.121l165.034-85.121v182.32c0,9.287-7.215,16.815-16.114,16.815Z" fill="#fff" opacity=".78"></path>
        <path d="m549.479,464.718H251.639c-9.282,0-16.833-7.88-16.833-17.565v-182.32c0-.259.128-.5.339-.637.211-.136.474-.15.698-.035l164.716,84.957,164.716-84.957c.223-.115.487-.101.698.035.211.137.339.378.339.637v182.32c0,9.686-7.551,17.565-16.833,17.565Zm-313.235-198.678v181.112c0,8.858,6.906,16.065,15.395,16.065h297.84c8.489,0,15.395-7.207,15.395-16.065v-181.112l-163.997,84.585c-.201.104-.436.104-.637,0l-163.997-84.585Z" fill="#292a2e"></path>
      </g>
      <g>
        <path d="m640.899,505.474c.23,0,.452-.134.559-.364l16.392-35.082c.151-.322.022-.71-.286-.867-.309-.157-.681-.023-.831.299l-16.392,35.082c-.151.322-.022.71.286.867.088.045.181.066.272.066Z" fill="#292a2e"></path>
        <path d="m613.19,503.438c.276,0,.528-.193.601-.484l18.967-75.565c.087-.346-.112-.701-.444-.792-.334-.09-.672.117-.759.463l-18.967,75.565c-.087.346.112.701.444.792.053.015.106.021.158.021Z" fill="#292a2e"></path>
        <path d="m577.008,506.783c.081,0,.163-.017.242-.052.316-.14.463-.521.329-.85l-19.607-48.186c-.134-.33-.499-.484-.815-.344-.316.14-.463.521-.329.85l19.607,48.186c.1.247.33.395.572.395Z" fill="#292a2e"></path>
        <path d="m612.487,517.947c.05,0,.101-.006.151-.019.333-.087.535-.439.452-.787l-22.784-95.11c-.084-.347-.421-.558-.754-.472-.333.087-.535.439-.452.787l22.784,95.11c.071.294.324.491.602.491Z" fill="#292a2e"></path>
        <ellipse cx="584.204" cy="431.488" rx="27.018" ry="22.514" transform="translate(-22.315 831.002) rotate(-69.822)" fill="#48cf48"></ellipse>
        <ellipse cx="584.204" cy="431.488" rx="27.018" ry="22.514" transform="translate(-22.315 831.002) rotate(-69.822)" fill="#fff" opacity=".4"></ellipse>
        <ellipse cx="553.913" cy="467.718" rx="16.227" ry="13.16" transform="translate(-61.032 851.674) rotate(-72.157)" fill="#48cf48"></ellipse>
        <ellipse cx="638.398" cy="438.999" rx="18.913" ry="24.076" transform="translate(-87.331 167.726) rotate(-14.019)" fill="#48cf48"></ellipse>
        <ellipse cx="659.879" cy="474.474" rx="10.224" ry="14.984" transform="translate(-62.402 101.813) rotate(-8.426)" fill="#48cf48"></ellipse>
        <rect x="558.72" y="493.672" width="96.782" height="25.167" transform="translate(1214.222 1012.511) rotate(-180)" fill="#292a2e"></rect>
        <rect x="558.72" y="493.672" width="96.782" height="25.167" transform="translate(1214.222 1012.511) rotate(-180)" fill="#fff" opacity=".3"></rect>
        <ellipse cx="589.704" cy="481.088" rx="19.797" ry="16.128" transform="translate(-48.292 896.007) rotate(-72.246)" fill="#48cf48"></ellipse>
        <ellipse cx="626.072" cy="481.546" rx="14.827" ry="15.472" fill="#48cf48"></ellipse>
        <ellipse cx="553.913" cy="467.718" rx="16.227" ry="13.16" transform="translate(-61.032 851.674) rotate(-72.157)" fill="#fff" opacity=".68"></ellipse>
        <ellipse cx="638.398" cy="438.999" rx="18.913" ry="24.076" transform="translate(-87.331 167.726) rotate(-14.019)" fill="#fff" opacity=".68"></ellipse>
        <ellipse cx="659.879" cy="474.474" rx="10.224" ry="14.984" transform="translate(-62.402 101.813) rotate(-8.426)" fill="#fff" opacity=".68"></ellipse>
        <ellipse cx="589.704" cy="481.088" rx="19.797" ry="16.128" transform="translate(-48.292 896.007) rotate(-72.246)" fill="#fff" opacity=".68"></ellipse>
        <ellipse cx="626.072" cy="481.546" rx="14.827" ry="15.472" fill="#fff" opacity=".4"></ellipse>
        <path d="m578.447,468.521c11.254,3.281,17.177-6.316,17.177-6.316l-.006-.013c-6.003-1.868-12.659.759-17.17,6.329Z" fill="#292a2e"></path>
        <path d="m649.533,472.451c5.549-2.127,9.974-6.387,12.932-11.893-1.572-.837-3.269-1.174-4.959-.875-4.686.817-7.867,6.206-7.973,12.768Z" fill="#292a2e"></path>
        <path d="m623.426,466.323c4.586,4.163,9.955,6.796,15.468,7.451-2.573-4.604-7.352-7.697-12.82-7.697-.907,0-1.79.084-2.647.246Z" fill="#292a2e"></path>
      </g>
      <path d="m691.148,518.607H26.023c-.529,0-.958-.448-.958-1s.429-1,.958-1h665.125c.529,0,.958.448.958,1s-.429,1-.958,1Z" fill="#292a2e"></path>
      <g>
        <g id="b_4_ha">
          <path d="m381.027,200.93l-12.179,25.673.2-3.885c.033-2.585-1.792-4.928-4.264-5.097-2.637-.181-4.847,1.978-4.882,4.7l-.768,48.091,14.765.645c9.381.41,18.062-5.16,21.944-14.081l8.563-19.769c.915-2.102.391-4.675-1.415-6.008-1.745-1.288-3.908-1.125-5.423.059-.039-.064-.086-.126-.155-.164-.131-.072-.279-.059-.4.009l1.586-3.644c1.024-2.354.253-5.264-1.946-6.454-2.027-1.097-4.431-.458-5.744,1.334-.017-.049-.043-.087-.076-.128l.652-1.498c.915-2.102.391-4.675-1.415-6.008-2.113-1.56-4.842-.998-6.287.938-.03-.012-.06-.022-.091-.027l5.072-10.691c1.057-2.229.183-4.93-1.953-6.034-2.136-1.103-4.725-.191-5.782,2.038Z" fill="#ff9e85"></path>
          <path id="b_4_ha_sh" d="m384.057,216.111c-.006.05-.02.101-.044.149l-5.042,10.325c-.108.221-.366.309-.578.196-.211-.112-.294-.383-.188-.603l5.042-10.325c.108-.221.366-.309.578-.196.166.088.253.273.231.454Z" fill="#0a0a0a" opacity=".2"></path>
          <path id="b_4_ha_sh-2" data-name="b_4_ha_sh" d="m390.943,222.542c-.006.05-.02.099-.042.146l-3.902,8.147c-.106.222-.364.312-.577.201-.213-.111-.299-.38-.193-.602l3.902-8.147c.106-.222.364-.312.577-.201.167.087.256.273.235.456Z" fill="#0a0a0a" opacity=".2"></path>
          <path id="b_4_ha_sh-3" data-name="b_4_ha_sh" d="m397.638,231.546c-.006.053-.022.105-.047.155l-1.929,3.803c-.11.219-.371.302-.58.187-.211-.116-.292-.386-.179-.606l1.929-3.803c.11-.219.371-.302.58-.187.163.09.247.272.226.451Z" fill="#0a0a0a" opacity=".2"></path>
        </g>
        <path d="m351.781,238.454l-36.118,108.096-58.699-80.104-54.924,47.894,101.471,113.072c3.555,4.249,8.221,7.582,13.733,9.458,16.285,5.541,33.792-3.743,39.102-20.737l49.458-159.179-54.023-18.5Z" fill="#0066f9"></path>
        <path d="m31.241,470.521c-9.556,0-18.666-4.577-24.623-12.539-6.657-8.896-8.431-20.754-4.689-31.344,1.768-5.004,43.388-122.786,51.279-144.008l58.259,23.585c-4.437,11.933-20.512,57.162-33.427,93.597l21.455-2.433,6.754,64.826-71.628,8.126c-1.13.128-2.259.191-3.381.191Z" fill="#0066f9"></path>
        <polygon points="68.685 467.191 59.157 516.678 244.211 516.678 233.553 466.25 68.685 467.191" fill="#262626"></polygon>
        <path id="b_1_b" d="m108.696,246.038c-15.461,1.197-31.226,6.44-42.835,17.163-17.51,16.174-15.952,26.283-7.211,71.071,7.521,38.538,4.537,55.378,9.568,126.492.148,2.095.466,6.428.466,6.428l165.393-.286s15.496-94.349,24.054-137.866c6.506-33.083,23.597-73.245-48.463-81.339-.192-.022-57.985-4.991-100.973-1.663Z" fill="#0066f9"></path>
        <g>
          <path id="h_3_sk" d="m209.668,247.703c-.192-.026-5.441,20.588-46.409,17.38-28.362-2.217-35.278-22.362-35.928-22.362,3.058-.678,8.024-1.382,9.382-2.139,4.466-2.504,7.719-5.552,9.357-12.094,1.281-5.116,1.933-24.81,1.933-34.691l43.643,10.233c-.608,11.146-4.866,36.986,10.057,41.559,2.483.756,5.158,1.452,7.965,2.113Z" fill="#ff9e85"></path>
          <path d="m190.135,225.945c-17.205,1.416-39.307-6.164-43.505-30.117l-3.788-21.613c-4.198-23.953,4.455-45.672,26.068-49.796h0c21.613-4.125,41.171,12.21,45.369,36.163l1.677,9.568c1.611,9.191,4.876,53.267-25.821,55.795Z" fill="#ff9e85"></path>
          <path d="m206.089,203.953c-3.088-16.192-4.505-26.995-4.34-38.393,4.35-7.962,3.206-17.1,2.217-21.049,4.263,2.427,6.046,2.692,10.059,2.692,0,0-7.194-30.127-31.645-38.234-4.496-1.826-15.976-4.132-31.219-1.951-12.965,1.855-44.923,11.971-49.489,49.514h-.002s0,.011-.001.022c-.151,1.245-3.219,35.836-9.337,52.433-8.224,22.311-19.769,29.243-19.477,54.985.377,33.112,58.712,37.519,93.899,35.042,35.186-2.477,54.828-14.55,55.082-38.412.285-26.736-9.569-24.253-15.748-56.649Z" fill="#0a0a0a"></path>
          <path d="m206.098,190.38c-6.568,1.253-13.178-5.063-14.379-11.917-1.201-6.854,3.461-11.65,10.029-12.903l4.35,24.82Z" fill="#ff9e85"></path>
        </g>
        <path d="m250.478,372.566c-.026,0-.052-.003-.078-.008-.226-.044-.375-.272-.332-.508l6.935-45.332c.043-.236.264-.39.487-.346.226.044.375.272.332.508l-6.935,45.332c-.038.209-.212.354-.409.354Z" fill="#0c0c0c"></path>
        <path d="m68.685,467.627c-.223,0-.407-.183-.416-.418l-5.183-140.393c-.009-.24.17-.442.4-.452.219.011.424.177.432.418l5.183,140.393c.009.24-.17.442-.4.452h-.016Z" fill="#0c0c0c"></path>
      </g>
    </g>
  </g>
</svg>