<svg id="Layer_2" data-name="Layer 2" xmlns="http://www.w3.org/2000/svg" viewBox="0 0 930.078 591.545" style="width: 100%; height: 100%;">
  <g id="Layer_2-2" data-name="Layer 2">
    <g>
      <path d="m831.1,586.477c86.882,0,113.353-71.659,88.322-159.417-14.156-49.629-46.89-114.529-100.369-143.9-146.347-80.373-126.624-84.232-162.853-169.781C597.06-26.275,369.649-31.664,276.728,68.408c-72.3,77.864-103.24,187.631-201.743,268.507-118.901,97.623-86.47,250.976,27.741,250.976l728.375-1.414Z" fill="#0066f9" opacity=".1"></path>
      <g>
        <g>
          <polygon points="928.392 501.844 11.995 501.844 64.735 388.316 875.652 388.316 928.392 501.844" fill="#292a2e"></polygon>
          <polygon points="928.392 501.844 11.995 501.844 64.735 388.316 875.652 388.316 928.392 501.844" fill="#fff"></polygon>
          <path d="m928.392,502.844H11.995c-.342,0-.661-.175-.844-.464-.184-.289-.207-.651-.061-.961l52.741-113.527c.165-.351.518-.575.905-.575h810.916c.388,0,.74.224.905.575l52.741,113.527c.146.31.123.672-.061.961-.184.289-.502.464-.844.464Zm-914.823-2h913.248l-51.801-111.527H65.371l-51.801,111.527Z" fill="#292a2e"></path>
        </g>
        <g>
          <g>
            <rect x="444.82" y="350.307" width="88.746" height="67.092" fill="#292a2e"></rect>
            <rect x="444.82" y="350.308" width="88.747" height="35.842" fill="#0c0c0c" opacity=".64"></rect>
            <rect x="289.97" y="84.124" width="398.447" height="284.564" rx="10.736" ry="10.736" fill="#292a2e"></rect>
            <rect x="301.599" y="96.319" width="375.189" height="227.011" rx="4.407" ry="4.407" fill="#fff"></rect>
            <rect x="420.533" y="411.885" width="137.321" height="11.647" rx="5.824" ry="5.824" fill="#292a2e"></rect>
          </g>
          <g>
            <path d="m427.037,132.58h-16.685c-.409,0-.741-.331-.741-.741s.331-.741.741-.741h16.685c.409,0,.741.331.741.741s-.331.741-.741.741Z" fill="#292a2e"></path>
            <g>
              <path d="m398.319,132.58h-6.313c-.409,0-.741-.331-.741-.741s.331-.741.741-.741h6.313c.409,0,.741.331.741.741s-.331.741-.741.741Z" fill="#292a2e"></path>
              <path d="m398.319,145.945h-6.313c-.409,0-.741-.331-.741-.741s.331-.741.741-.741h6.313c.409,0,.741.331.741.741s-.331.741-.741.741Z" fill="#292a2e"></path>
              <path d="m398.319,159.31h-6.313c-.409,0-.741-.331-.741-.741s.331-.741.741-.741h6.313c.409,0,.741.331.741.741s-.331.741-.741.741Z" fill="#292a2e"></path>
              <path d="m398.319,172.675h-6.313c-.409,0-.741-.331-.741-.741s.331-.741.741-.741h6.313c.409,0,.741.331.741.741s-.331.741-.741.741Z" fill="#292a2e"></path>
              <path d="m398.319,186.039h-6.313c-.409,0-.741-.331-.741-.741s.331-.741.741-.741h6.313c.409,0,.741.331.741.741s-.331.741-.741.741Z" fill="#292a2e"></path>
              <path d="m398.319,199.404h-6.313c-.409,0-.741-.331-.741-.741s.331-.741.741-.741h6.313c.409,0,.741.331.741.741s-.331.741-.741.741Z" fill="#292a2e"></path>
              <path d="m398.319,212.769h-6.313c-.409,0-.741-.331-.741-.741s.331-.741.741-.741h6.313c.409,0,.741.331.741.741s-.331.741-.741.741Z" fill="#292a2e"></path>
              <path d="m398.319,226.133h-6.313c-.409,0-.741-.331-.741-.741s.331-.741.741-.741h6.313c.409,0,.741.331.741.741s-.331.741-.741.741Z" fill="#292a2e"></path>
              <path d="m398.319,239.498h-6.313c-.409,0-.741-.331-.741-.741s.331-.741.741-.741h6.313c.409,0,.741.331.741.741s-.331.741-.741.741Z" fill="#292a2e"></path>
              <path d="m398.319,252.863h-6.313c-.409,0-.741-.331-.741-.741s.331-.741.741-.741h6.313c.409,0,.741.331.741.741s-.331.741-.741.741Z" fill="#292a2e"></path>
              <path d="m398.319,266.227h-6.313c-.409,0-.741-.331-.741-.741s.331-.741.741-.741h6.313c.409,0,.741.331.741.741s-.331.741-.741.741Z" fill="#292a2e"></path>
              <path d="m398.319,279.592h-6.313c-.409,0-.741-.331-.741-.741s.331-.741.741-.741h6.313c.409,0,.741.331.741.741s-.331.741-.741.741Z" fill="#292a2e"></path>
              <path d="m398.319,292.957h-6.313c-.409,0-.741-.331-.741-.741s.331-.741.741-.741h6.313c.409,0,.741.331.741.741s-.331.741-.741.741Z" fill="#292a2e"></path>
              <path d="m398.319,306.321h-6.313c-.409,0-.741-.331-.741-.741s.331-.741.741-.741h6.313c.409,0,.741.331.741.741s-.331.741-.741.741Z" fill="#292a2e"></path>
            </g>
            <path d="m440.371,145.945h-15.203c-.409,0-.741-.331-.741-.741s.331-.741.741-.741h15.203c.409,0,.741.331.741.741s-.331.741-.741.741Z" fill="#292a2e"></path>
            <path d="m427.037,226.133h-16.685c-.409,0-.741-.331-.741-.741s.331-.741.741-.741h16.685c.409,0,.741.331.741.741s-.331.741-.741.741Z" fill="#292a2e"></path>
            <path d="m440.371,239.498h-15.203c-.409,0-.741-.331-.741-.741s.331-.741.741-.741h15.203c.409,0,.741.331.741.741s-.331.741-.741.741Z" fill="#292a2e"></path>
            <g>
              <path d="m546.308,159.31h-110.768c-.409,0-.741-.331-.741-.741s.331-.741.741-.741h110.768c.409,0,.741.331.741.741s-.331.741-.741.741Z" fill="#292a2e"></path>
              <path d="m626.446,159.31h-64.098c-.409,0-.741-.331-.741-.741s.331-.741.741-.741h64.098c.409,0,.741.331.741.741s-.331.741-.741.741Z" fill="#48cf48"></path>
              <path d="m660.845,159.31h-19.648c-.409,0-.741-.331-.741-.741s.331-.741.741-.741h19.648c.409,0,.741.331.741.741s-.331.741-.741.741Z" fill="#292a2e"></path>
            </g>
            <g>
              <path d="m590.757,186.039h-155.217c-.409,0-.741-.331-.741-.741s.331-.741.741-.741h155.217c.409,0,.741.331.741.741s-.331.741-.741.741Z" fill="#292a2e"></path>
              <path d="m626.446,186.039h-19.648c-.409,0-.741-.331-.741-.741s.331-.741.741-.741h19.648c.409,0,.741.331.741.741s-.331.741-.741.741Z" fill="#0066f9"></path>
            </g>
            <g>
              <path d="m452.225,172.675h-16.685c-.409,0-.741-.331-.741-.741s.331-.741.741-.741h16.685c.409,0,.741.331.741.741s-.331.741-.741.741Z" fill="#48cf48"></path>
              <path d="m581.996,172.675h-113.731c-.409,0-.741-.331-.741-.741s.331-.741.741-.741h113.731c.409,0,.741.331.741.741s-.331.741-.741.741Z" fill="#0066f9"></path>
              <path d="m660.974,172.675h-61.134c-.409,0-.741-.331-.741-.741s.331-.741.741-.741h61.134c.409,0,.741.331.741.741s-.331.741-.741.741Z" fill="#292a2e"></path>
            </g>
            <g>
              <path d="m546.308,199.404h-110.768c-.409,0-.741-.331-.741-.741s.331-.741.741-.741h110.768c.409,0,.741.331.741.741s-.331.741-.741.741Z" fill="#292a2e"></path>
              <path d="m596.813,199.404h-34.464c-.409,0-.741-.331-.741-.741s.331-.741.741-.741h34.464c.409,0,.741.331.741.741s-.331.741-.741.741Z" fill="#48cf48"></path>
              <path d="m660.845,199.404h-49.281c-.409,0-.741-.331-.741-.741s.331-.741.741-.741h49.281c.409,0,.741.331.741.741s-.331.741-.741.741Z" fill="#292a2e"></path>
            </g>
            <g>
              <path d="m452.225,212.769h-16.685c-.409,0-.741-.331-.741-.741s.331-.741.741-.741h16.685c.409,0,.741.331.741.741s-.331.741-.741.741Z" fill="#0066f9"></path>
              <path d="m581.996,212.769h-113.731c-.409,0-.741-.331-.741-.741s.331-.741.741-.741h113.731c.409,0,.741.331.741.741s-.331.741-.741.741Z" fill="#48cf48"></path>
            </g>
            <g>
              <path d="m543.344,266.228h-110.768c-.409,0-.741-.331-.741-.741s.331-.741.741-.741h110.768c.409,0,.741.331.741.741s-.331.741-.741.741Z" fill="#292a2e"></path>
              <path d="m623.483,266.228h-64.098c-.409,0-.741-.331-.741-.741s.331-.741.741-.741h64.098c.409,0,.741.331.741.741s-.331.741-.741.741Z" fill="#0066f9"></path>
            </g>
            <g>
              <path d="m478.895,252.863h-46.318c-.409,0-.741-.331-.741-.741s.331-.741.741-.741h46.318c.409,0,.741.331.741.741s-.331.741-.741.741Z" fill="#48cf48"></path>
              <path d="m579.033,252.863h-84.098c-.409,0-.741-.331-.741-.741s.331-.741.741-.741h84.098c.409,0,.741.331.741.741s-.331.741-.741.741Z" fill="#0066f9"></path>
              <path d="m658.011,252.863h-61.134c-.409,0-.741-.331-.741-.741s.331-.741.741-.741h61.134c.409,0,.741.331.741.741s-.331.741-.741.741Z" fill="#292a2e"></path>
            </g>
            <g>
              <path d="m587.794,292.957h-155.217c-.409,0-.741-.331-.741-.741s.331-.741.741-.741h155.217c.409,0,.741.331.741.741s-.331.741-.741.741Z" fill="#0066f9"></path>
              <path d="m633.483,292.957h-29.648c-.409,0-.741-.331-.741-.741s.331-.741.741-.741h29.648c.409,0,.741.331.741.741s-.331.741-.741.741Z" fill="#292a2e"></path>
            </g>
            <g>
              <path d="m449.261,279.592h-16.685c-.409,0-.741-.331-.741-.741s.331-.741.741-.741h16.685c.409,0,.741.331.741.741s-.331.741-.741.741Z" fill="#0066f9"></path>
              <path d="m579.033,279.592h-113.731c-.409,0-.741-.331-.741-.741s.331-.741.741-.741h113.731c.409,0,.741.331.741.741s-.331.741-.741.741Z" fill="#292a2e"></path>
              <path d="m658.011,279.592h-61.134c-.409,0-.741-.331-.741-.741s.331-.741.741-.741h61.134c.409,0,.741.331.741.741s-.331.741-.741.741Z" fill="#48cf48"></path>
            </g>
            <g>
              <path d="m543.344,306.322h-110.768c-.409,0-.741-.331-.741-.741s.331-.741.741-.741h110.768c.409,0,.741.331.741.741s-.331.741-.741.741Z" fill="#48cf48"></path>
              <path d="m593.85,306.322h-34.464c-.409,0-.741-.331-.741-.741s.331-.741.741-.741h34.464c.409,0,.741.331.741.741s-.331.741-.741.741Z" fill="#292a2e"></path>
              <path d="m657.882,306.322h-49.281c-.409,0-.741-.331-.741-.741s.331-.741.741-.741h49.281c.409,0,.741.331.741.741s-.331.741-.741.741Z" fill="#0066f9"></path>
            </g>
            <path d="m381.97,313.622c-.409,0-.741-.331-.741-.741V109.252c0-.409.331-.741.741-.741s.741.331.741.741v203.63c0,.409-.331.741-.741.741Z" fill="#292a2e"></path>
            <g>
              <path d="m348.086,118.505h-32.081c-.409,0-.741-.331-.741-.741s.331-.741.741-.741h32.081c.409,0,.741.331.741.741s-.331.741-.741.741Z" fill="#292a2e"></path>
              <path d="m338.422,133.117h-22.417c-.409,0-.741-.331-.741-.741s.331-.741.741-.741h22.417c.409,0,.741.331.741.741s-.331.741-.741.741Z" fill="#292a2e"></path>
              <path d="m358.135,147.73h-42.13c-.409,0-.741-.331-.741-.741s.331-.741.741-.741h42.13c.409,0,.741.331.741.741s-.331.741-.741.741Z" fill="#292a2e"></path>
              <path d="m365.994,162.342h-35.173c-.409,0-.741-.331-.741-.741s.331-.741.741-.741h35.173c.409,0,.741.331.741.741s-.331.741-.741.741Z" fill="#292a2e"></path>
              <path d="m348.987,176.955h-18.166c-.409,0-.741-.331-.741-.741s.331-.741.741-.741h18.166c.409,0,.741.331.741.741s-.331.741-.741.741Z" fill="#292a2e"></path>
              <path d="m362.902,191.568h-32.081c-.409,0-.741-.331-.741-.741s.331-.741.741-.741h32.081c.409,0,.741.331.741.741s-.331.741-.741.741Z" fill="#292a2e"></path>
              <path d="m340.741,206.18h-24.737c-.409,0-.741-.331-.741-.741s.331-.741.741-.741h24.737c.409,0,.741.331.741.741s-.331.741-.741.741Z" fill="#292a2e"></path>
              <path d="m332.237,220.793h-16.233c-.409,0-.741-.331-.741-.741s.331-.741.741-.741h16.233c.409,0,.741.331.741.741s-.331.741-.741.741Z" fill="#292a2e"></path>
            </g>
            <g>
              <path d="m397.311,115.371v.267l9.26,3.437c.266.104.444.37.444.667v.252c0,.222-.103.444-.296.563-.193.133-.43.163-.653.074l-10.46-4.089c-.267-.104-.445-.37-.445-.652v-.756c0-.296.178-.548.445-.652l10.46-4.104c.089-.03.178-.044.267-.044.133,0,.267.044.386.119.192.133.296.341.296.578v.252c0,.296-.178.563-.444.652l-9.26,3.437Z" fill="#292a2e"></path>
              <path d="m415.669,107.355l-5.541,16.965c-.089.282-.356.489-.667.489-.222,0-.43-.104-.548-.282-.133-.178-.177-.4-.118-.622l5.541-16.95c.104-.296.37-.504.682-.504.223,0,.415.104.548.282.133.193.178.415.103.622Z" fill="#292a2e"></path>
              <path d="m429.276,115.134v.756c0,.282-.164.548-.43.652l-10.476,4.089c-.207.089-.444.059-.637-.074-.192-.119-.311-.341-.311-.563v-.252c0-.296.178-.563.459-.667l9.26-3.437v-.267l-9.26-3.437c-.281-.089-.459-.356-.459-.652v-.252c0-.237.119-.445.311-.578.119-.074.252-.119.385-.119.089,0,.178.015.252.044l10.476,4.104c.266.104.43.356.43.652Z" fill="#292a2e"></path>
            </g>
          </g>
        </g>
        <g>
          <path d="m48.743,588.172c-11.469,0-22.402-5.265-29.552-14.422-7.99-10.232-10.119-23.87-5.627-36.051,2.122-5.755,56.525-146.193,65.995-170.602l65.47,38.096c-5.325,13.725-24.618,65.745-40.118,107.651l25.75-2.799,8.105,68.561-85.966,9.346c-1.356.147-2.711.22-4.058.22Z" fill="#0066f9"></path>
          <path id="h_3_sk" d="m262.888,337.895c-.23-.03-6.53,23.68-55.7,19.99-34.04-2.55-42.34-25.72-43.12-25.72,3.67-.78,9.63-1.59,11.26-2.46,5.36-2.88,9.265-6.386,11.23-13.91,1.537-5.884,2.32-28.536,2.32-39.9l52.38,11.77c-.73,12.82-5.84,42.54,12.07,47.8,2.98.87,6.19,1.67,9.56,2.43Z" fill="#ff9e85"></path>
          <path d="m239.445,312.869c-20.65,1.629-47.176-7.089-52.214-34.639l-4.546-24.859c-5.039-27.55,5.347-52.53,31.287-57.274h0c25.94-4.744,49.413,14.044,54.451,41.594l2.013,11.005c1.933,10.571,5.852,61.266-30.99,64.173Z" fill="#ff9e85"></path>
          <path id="b_1_b" d="m141.704,335.979c-18.556,1.377-37.477,3.386-51.131,16.027-16.444,15.224-19.423,33.943-8.933,85.457,9.026,44.325,5.446,63.694,11.484,145.486.178,2.41.559,7.393.559,7.393l198.502-.329s18.598-108.517,28.869-158.568c7.809-38.051,28.32-84.244-58.164-93.553-.23-.025-69.593-5.74-121.187-1.912Z" fill="#0066f9"></path>
          <path d="m93.683,590.843c-.268,0-.489-.211-.5-.481l-6.221-161.475c-.01-.276.205-.508.48-.519.305-.018.509.205.52.48l6.221,161.475c.01.276-.205.508-.48.519-.007,0-.014,0-.02,0Z" fill="#0c0c0c"></path>
          <g>
            <path d="m412.196,393.633l13.946-31.283c1.284-2.88,4.771-4.089,7.591-2.526,2.5,1.385,3.358,4.586,2.194,7.196l-2.99,6.708,19.086-16.778c2.09-1.902,5.87-2.9,7.85-.416,1.733,1.903,1.852,4.702.445,6.731.021.018.047.029.063.052.015.016.02.037.032.054l3.222-2.934c2.485-2.262,6.5-1.782,8.328,1.266,1.339,2.232.744,5.131-1.18,6.884l-1.371,1.249c.018.057.026.115.023.174,2.251-1.262,5.182-.783,6.887,1.355,1.809,2.266,1.358,5.602-.786,7.554l-3.405,3.1c.155-.017.315.031.43.157.066.075.096.164.11.256,2.234-.542,4.73.354,6.028,2.634,1.264,2.22.64,5.048-1.248,6.768l-28.736,26.161c-8.224,7.487-20.168,9.235-30.192,4.42h0c-8.786-4.221-12.619-14.665-8.651-23.567l2.324-5.213Z" fill="#ff9e85"></path>
            <g fill="none" opacity=".2">
              <path d="m441.508,379.965c.184.199.494.216.698.036l18.131-15.979c.207-.183.227-.498.044-.706-.156-.208-.499-.227-.706-.044l-18.131,15.979c-.207.183-.227.498-.044.706l.008.009Z" fill="#0c0c0c"></path>
            </g>
            <g fill="none" opacity=".2">
              <path d="m448.335,388.155c.184.199.494.216.698.036l20.234-17.833c.207-.183.227-.498.044-.706-.168-.188-.499-.227-.706-.044l-20.234,17.833c-.207.183-.227.498-.044.706l.008.009Z" fill="#0c0c0c"></path>
            </g>
            <g fill="none" opacity=".2">
              <path d="m455.678,397.069c.184.199.494.216.698.036l16.14-14.224c.207-.183.227-.498.044-.706-.189-.205-.499-.227-.706-.044l-16.14,14.224c-.207.183-.227.498-.044.706l.008.009Z" fill="#0c0c0c"></path>
            </g>
          </g>
          <path d="m258.588,284.633c-3.556-17.867-5.187-29.788-4.998-42.365,5.009-8.786,3.692-18.869,2.553-23.227,1.788.975,3.197,1.634,4.489,2.078,3.222,1.106,6.289-2.046,5.062-5.224-3.876-10.036-13.839-29.538-34.406-36.073-5.177-2.015-18.395-4.56-35.947-2.153-14.928,2.047-48.726,16.209-53.983,57.637h-.002s0,.012-.001.024c-.174,1.374-6.707,36.544-13.751,54.858-9.469,24.619-22.763,32.269-22.426,60.673.434,36.537,67.604,41.401,108.119,38.668,40.515-2.733,63.131-16.055,63.424-42.386.328-29.502-11.018-26.762-18.133-62.51Z" fill="#0a0a0a"></path>
          <path d="m258.604,271.963c-7.883,1.442-15.816-5.823-17.257-13.706-1.442-7.883,2.151-15.99,12.244-15.99l5.013,29.696Z" fill="#ff9e85"></path>
          <path d="m343.391,582.495c-1.545,0-3.1-.096-4.658-.291-14.452-1.806-26.551-11.815-31.031-25.673l-52.102-161.134,71.362-23.074,27.404,84.754,47.353-75.305,63.491,39.923-90.082,143.26c-6.917,11-18.959,17.54-31.737,17.54Z" fill="#0066f9"></path>
          <path d="m301.349,538.006c-.03,0-.061-.002-.092-.008-.271-.05-.451-.311-.401-.583l17.711-96.142c.051-.272.308-.454.583-.401.271.05.451.311.401.583l-17.711,96.142c-.045.241-.255.409-.491.409Z" fill="#0c0c0c"></path>
          <path d="m360.736,479.771c-.223,0-.426-.149-.484-.375l-5.899-22.726c-.069-.267.092-.54.358-.609.271-.071.541.092.61.358l5.899,22.726c.069.267-.092.54-.358.609-.042.011-.085.016-.126.016Z" fill="#0c0c0c"></path>
        </g>
        <path d="m762.121,475.96h-195.505c-5.188,0-9.21-4.533-8.593-9.684l5.23-43.652c.521-4.35,4.211-7.625,8.593-7.625h190.275c4.78,0,8.654,3.875,8.654,8.654v43.652c0,4.78-3.875,8.654-8.654,8.654Z" fill="#292a2e"></path>
        <g>
          <path d="m619.501,476.37l8.361-32.085c.77-2.954-1.137-5.976-4.213-6.498-5.949-1.124-6.674,7.072-7.801,10.995l-4.293-24.223c-.656-6.534-9.44-6.748-10.089-.238-.048-.005-.093,0-.136.023.207-11.896-12.967-10.978-10.712-.55-.048.032-.089.072-.122.118-2.203-5.768-11.218-3.07-9.998,3.05,0,0,.701,4.402.701,4.402-.163-.179-.485-.201-.658-.015-3.025-4.283-10.441-1.142-9.296,4.221,0,0,5.918,37.15,5.918,37.15,3.378,24.03,38.733,32.092,42.339,3.65Z" fill="#ff9e85"></path>
          <g fill="none" opacity=".2">
            <path d="m605.596,448.318c-1.303-.123-4.08-22.729-4.603-23.436-.045-.263.13-.514.394-.56.244-.063.515.13.561.393l4.053,23.041c.047.267-.136.522-.404.562Z" fill="#0c0c0c"></path>
          </g>
          <g fill="none" opacity=".2">
            <path d="m595.483,450.386c-.259.039-.504-.135-.549-.395l-4.523-25.714c-.046-.263.13-.514.393-.561,1.327-.121,4.555,25.566,5.085,26.108.046.266-.137.521-.405.562Z" fill="#0c0c0c"></path>
          </g>
          <g fill="none" opacity=".2">
            <path d="m584.543,452.689c-.259.039-.504-.135-.549-.395l-3.608-20.512c-.046-.263.13-.514.393-.561.267-.041.514.13.561.393l3.608,20.512c.047.267-.136.522-.404.562Z" fill="#0c0c0c"></path>
          </g>
        </g>
        <g>
          <g>
            <path d="m322.303,590.843H89.893l-14.77-113.48c-.98-7.48,3.32-14.31,9.83-17,1.9-.79,3.98-1.23,6.18-1.23h199.83c8.12,0,14.97,6.02,16.02,14.06l15.32,117.65Z" fill="#fff"></path>
            <path d="m308.193,473.043c-1.12-8.63-8.53-15.14-17.23-15.14H91.133c-2.22,0-4.39.43-6.41,1.23-.86.34-1.7.75-2.49,1.23-1.54.92-2.94,2.07-4.15,3.45-3.3,3.76-4.82,8.76-4.18,13.71l14.76,113.32h2.47l-14.79-113.63c-.56-4.26.75-8.55,3.58-11.77,2.83-3.23,6.92-5.08,11.21-5.08h199.83c7.47,0,13.83,5.59,14.8,12.99l15.3,117.49h2.48l-15.35-117.8Z" fill="#292a2e"></path>
          </g>
          <g>
            <path d="m308.743,590.843H76.333l-14.77-113.48c-1.26-9.66,6.26-18.23,16.01-18.23h199.83c2.18,0,4.27.43,6.18,1.23,5.2,2.15,9.07,6.95,9.83,12.83l15.33,117.65Z" fill="#292a2e"></path>
            <path d="m294.633,473.043c-.7-5.43-3.9-10.02-8.34-12.68-.79-.47-1.62-.89-2.49-1.23-1.99-.79-4.15-1.23-6.4-1.23H77.573c-5,0-9.76,2.16-13.06,5.91-3.29,3.76-4.82,8.76-4.17,13.71l14.75,113.32h2.48l-14.79-113.63c-.56-4.26.75-8.55,3.58-11.77,2.83-3.23,6.92-5.08,11.21-5.08h199.83c7.47,0,13.83,5.59,14.8,12.99l15.3,117.49h2.48l-15.35-117.8Z" fill="#292a2e"></path>
          </g>
        </g>
        <g>
          <g>
            <path id="sk" d="m703.232,342.853c.229-.03,2.774,42.19,51.821,38.509,33.955-2.544,46.062-38.569,46.84-38.569-3.661-.778-9.826-1.91-11.452-2.777-5.347-2.873-12.962-5.862-14.686-16.246-.993-5.984.692-36.601.173-42.656l-51.121,11.633c.728,12.788,5.825,42.434-12.04,47.681-2.973.868-6.175,1.666-9.536,2.424Z" fill="#ff9e85"></path>
            <g>
              <path d="m726.246,312.694c20.584,1.589,47.007-7.146,51.982-34.613l4.489-24.784c4.975-27.467-5.418-52.347-31.28-57.031h0c-25.862-4.684-49.225,14.081-54.2,41.549l-1.987,10.972c-.409,2.259-.906,6.354-1.073,11.424-.333,10.115-.799,25.501,4.206,36.803,4.725,10.67,14.713,14.666,27.864,15.681Z" fill="#ff9e85"></path>
              <path d="m772.407,194.858c-6.587-2.151-15.906-3.98-25.201-4.288-.83-3.265-2.676-5.803-5.393-6.864-4.522-1.767-10.046,1.079-13.721,6.562-2.044-3.132-4.812-5.954-8.482-7.096-10.125-3.153-10.627,11.392-10.627,11.392,0,0-16.053-15.841-16.555,4.363-.606,24.445,3.884,31.614,7.161,33.424,6.472,3.574,11.292,2.97,13.853,8.228,7.756,15.923.154,60.775,9.129,66.39,13.75,8.604,41.913,8.9,51.061,8.247,3.518-.252,6.81-4.33,8.291-7.53,4.784-10.333,15.454-33.756,18.424-43.444,5.481-17.878,5.067-58.605-27.94-69.383Z" fill="#0c0c0c"></path>
              <path d="m716.428,290.946c7.941-.862,13.455-10.056,12.594-17.996s-7.774-11.621-15.715-10.759l-3.514,5.765-.191,23.732,6.827-.741Z" fill="#ff9e85"></path>
            </g>
            <g>
              <g>
                <path d="m849.069,584.221l.246.014s-.178-4.74-.246-.014Z" fill="#333"></path>
                <path d="m632.721,436.273c1.55,18.212,9.091,131.838,10.582,154.271h205.418c1.16-20.233,6.371-108.705,10.772-148.27,4.201-37.755,12.442-56.658,6.401-67.819-9.871-18.243-36.845-28.784-55.238-31.274-11.232-1.52-13.546-2.61-18.124-2.61-32.947,0-78.861,0-79.091,0-7.521,0-55.549,7.247-65.394,14.485-27.252,20.036-18.617,42.623-15.326,81.218Z" fill="#0066f9"></path>
              </g>
              <path d="m892.58,589.354c11.47,0,22.404-5.265,29.555-14.423,7.99-10.233,10.12-23.872,5.628-36.054-2.122-5.755-51.874-137.502-61.345-161.913l-70.132,28.416c5.325,13.726,24.62,65.751,40.122,107.661l-25.753-2.799-8.106,74.567,85.974,4.326c1.357.147,2.711.22,4.058.22Z" fill="#0066f9"></path>
              <rect x="776.921" y="516.119" width="147.573" height="1.366" transform="translate(305.119 1349.34) rotate(-88.04)" fill="#0c0c0c"></rect>
            </g>
          </g>
          <path d="m603.007,589.354c-11.47,0-22.404-5.265-29.555-14.423-7.99-10.233-10.12-23.872-5.628-36.054,2.122-5.755,53.958-138.083,63.429-162.494l68.048,28.997c-5.325,13.726-24.62,65.751-40.122,107.661l25.753-2.799,8.106,74.567-85.974,4.326c-1.357.147-2.711.22-4.058.22Z" fill="#0066f9"></path>
          <path d="m659.019,504.296c-.075,0-.151-.011-.227-.035-.395-.125-.613-.547-.488-.942l18.207-57.317c.126-.395.547-.611.942-.488.395.125.613.547.488.942l-18.207,57.317c-.102.319-.396.523-.715.523Z" fill="#0c0c0c"></path>
        </g>
        <g>
          <g>
            <path d="m892.34,477.363l-14.78,113.48h-232.4l15.32-117.65c1.05-8.04,7.9-14.06,16.01-14.06h199.83c2.2,0,4.29.44,6.19,1.23,6.51,2.7,10.8,9.52,9.83,17Z" fill="#fff"></path>
            <path d="m889.38,463.813c-1.21-1.38-2.61-2.53-4.15-3.45-.8-.48-1.63-.89-2.5-1.23-2.02-.8-4.19-1.23-6.41-1.23h-199.83c-8.7,0-16.1,6.51-17.23,15.14l-15.34,117.8h2.48l15.3-117.49c.96-7.4,7.32-12.99,14.79-12.99h199.83c4.3,0,8.38,1.85,11.21,5.08,2.84,3.22,4.14,7.51,3.59,11.77l-14.8,113.63h2.48l14.75-113.32c.65-4.95-.87-9.95-4.17-13.71Z" fill="#292a2e"></path>
          </g>
          <g>
            <path d="m905.9,477.363l-14.78,113.48h-232.4l15.32-117.65c.77-5.88,4.63-10.67,9.83-12.83,1.91-.8,4-1.23,6.18-1.23h199.84c9.74,0,17.27,8.57,16.01,18.23Z" fill="#292a2e"></path>
            <path d="m902.94,463.813c-3.3-3.75-8.06-5.91-13.05-5.91h-199.84c-2.25,0-4.41.43-6.39,1.23-.87.34-1.7.76-2.49,1.23-4.45,2.66-7.64,7.25-8.35,12.68l-15.34,117.8h2.48l15.3-117.49c.96-7.4,7.32-12.99,14.79-12.99h199.84c4.29,0,8.37,1.85,11.21,5.08,2.83,3.22,4.13,7.51,3.58,11.77l-14.79,113.63h2.47l14.76-113.32c.64-4.95-.88-9.95-4.18-13.71Z" fill="#292a2e"></path>
          </g>
        </g>
        <g>
          <path d="m11.95,591.545h913.419c.388,0,.702-.314.702-.702,0-.388-.314-.702-.702-.702H11.95c-.388,0-.702.314-.702.702s.314.702.702.702Z" fill="#292a2e"></path>
          <g fill="none" opacity=".65">
            <path d="m11.95,591.545h913.419c.388,0,.702-.314.702-.702,0-.388-.314-.702-.702-.702H11.95c-.388,0-.702.314-.702.702s.314.702.702.702Z" fill="#292a2e"></path>
          </g>
        </g>
        <polygon points="565.509 552.459 568.725 467.908 613.15 465.557 617.192 552.459 565.509 552.459" fill="#0066f9"></polygon>
      </g>
    </g>
  </g>
</svg>