<svg id="Layer_2" data-name="Layer 2" xmlns="http://www.w3.org/2000/svg" viewBox="0 0 915.384 580.786" style="width: 100%; height: 100%;">
  <g id="Layer_1-2" data-name="Layer 1">
    <g>
      <g>
        <rect x="137.37" y="37.04" width="441.49" height="325.97" stroke="#000" stroke-linecap="round" stroke-linejoin="round" stroke-width="1.5"></rect>
        <rect x="137.37" y=".75" width="441.49" height="36.29" fill="#fff" stroke="#0066f9" stroke-linecap="round" stroke-linejoin="round" stroke-width="1.5"></rect>
        <rect x="163.244" y="50.676" width="17.789" height="10.241" fill="#fff" stroke="#000" stroke-linecap="round" stroke-linejoin="round" stroke-width="1.5"></rect>
        <rect x="163.244" y="74.869" width="17.789" height="10.241" fill="#fff" stroke="#000" stroke-linecap="round" stroke-linejoin="round" stroke-width="1.5"></rect>
        <rect x="163.244" y="99.063" width="17.789" height="10.241" fill="#fff" stroke="#000" stroke-linecap="round" stroke-linejoin="round" stroke-width="1.5"></rect>
        <rect x="163.244" y="123.256" width="17.789" height="10.241" fill="#fff" stroke="#000" stroke-linecap="round" stroke-linejoin="round" stroke-width="1.5"></rect>
        <rect x="163.244" y="147.449" width="17.789" height="10.241" fill="#fff" stroke="#000" stroke-linecap="round" stroke-linejoin="round" stroke-width="1.5"></rect>
        <rect x="163.244" y="171.642" width="17.789" height="10.241" fill="#fff" stroke="#000" stroke-linecap="round" stroke-linejoin="round" stroke-width="1.5"></rect>
        <rect x="163.244" y="195.836" width="17.789" height="10.241" fill="#fff" stroke="#000" stroke-linecap="round" stroke-linejoin="round" stroke-width="1.5"></rect>
        <rect x="163.244" y="222.205" width="17.789" height="10.241" fill="#fff" stroke="#000" stroke-linecap="round" stroke-linejoin="round" stroke-width="1.5"></rect>
        <rect x="163.244" y="246.398" width="17.789" height="10.241" fill="#fff" stroke="#000" stroke-linecap="round" stroke-linejoin="round" stroke-width="1.5"></rect>
        <rect x="163.244" y="270.591" width="17.789" height="10.241" fill="#fff" stroke="#000" stroke-linecap="round" stroke-linejoin="round" stroke-width="1.5"></rect>
        <rect x="163.244" y="294.785" width="17.789" height="10.241" fill="#fff" stroke="#000" stroke-linecap="round" stroke-linejoin="round" stroke-width="1.5"></rect>
        <rect x="163.244" y="318.978" width="17.789" height="10.241" fill="#fff" stroke="#000" stroke-linecap="round" stroke-linejoin="round" stroke-width="1.5"></rect>
        <rect x="163.244" y="343.171" width="17.789" height="10.241" fill="#fff" stroke="#000" stroke-linecap="round" stroke-linejoin="round" stroke-width="1.5"></rect>
        <rect x="211.76" y="50.676" width="142.313" height="10.241" fill="#0066f9" stroke="#000" stroke-linecap="round" stroke-linejoin="round" stroke-width="1.5"></rect>
        <g>
          <rect x="253.807" y="74.869" width="80.86" height="10.241" fill="#fff" stroke="#000" stroke-linecap="round" stroke-linejoin="round" stroke-width="1.5"></rect>
          <rect x="347.604" y="74.869" width="145.547" height="10.241" fill="#0066f9" stroke="#000" stroke-linecap="round" stroke-linejoin="round" stroke-width="1.5"></rect>
        </g>
        <g>
          <rect x="253.807" y="123.256" width="48.516" height="10.241" fill="#0066f9" stroke="#000" stroke-linecap="round" stroke-linejoin="round" stroke-width="1.5"></rect>
          <rect x="473.745" y="123.256" width="48.516" height="10.241" fill="#0066f9" stroke="#000" stroke-linecap="round" stroke-linejoin="round" stroke-width="1.5"></rect>
          <rect x="315.26" y="123.256" width="145.547" height="10.241" fill="#fff" stroke="#000" stroke-linecap="round" stroke-linejoin="round" stroke-width="1.5"></rect>
        </g>
        <g>
          <rect x="253.807" y="99.063" width="16.172" height="10.241" fill="#fff" stroke="#000" stroke-linecap="round" stroke-linejoin="round" stroke-width="1.5"></rect>
          <rect x="282.916" y="99.063" width="145.547" height="10.241" fill="#0066f9" stroke="#000" stroke-linecap="round" stroke-linejoin="round" stroke-width="1.5"></rect>
        </g>
        <g>
          <rect x="253.807" y="147.449" width="64.688" height="10.241" fill="#fff" stroke="#000" stroke-linecap="round" stroke-linejoin="round" stroke-width="1.5"></rect>
          <rect x="331.432" y="147.449" width="161.719" height="10.241" fill="#0066f9" stroke="#000" stroke-linecap="round" stroke-linejoin="round" stroke-width="1.5"></rect>
        </g>
        <g>
          <rect x="253.807" y="195.836" width="48.516" height="10.241" fill="#fff" stroke="#000" stroke-linecap="round" stroke-linejoin="round" stroke-width="1.5"></rect>
          <rect x="457.573" y="195.836" width="64.688" height="10.241" fill="#fff" stroke="#000" stroke-linecap="round" stroke-linejoin="round" stroke-width="1.5"></rect>
          <rect x="315.26" y="195.836" width="129.375" height="10.241" fill="#0066f9" stroke="#000" stroke-linecap="round" stroke-linejoin="round" stroke-width="1.5"></rect>
        </g>
        <g>
          <rect x="253.807" y="171.642" width="113.203" height="10.241" fill="#fff" stroke="#000" stroke-linecap="round" stroke-linejoin="round" stroke-width="1.5"></rect>
          <rect x="379.947" y="171.642" width="80.86" height="10.241" fill="#fff" stroke="#000" stroke-linecap="round" stroke-linejoin="round" stroke-width="1.5"></rect>
        </g>
        <rect x="211.76" y="222.205" width="109.969" height="10.241" stroke="#000" stroke-linecap="round" stroke-linejoin="round" stroke-width="1.5"></rect>
        <g>
          <g>
            <rect x="253.807" y="246.398" width="97.031" height="10.241" fill="#fff" stroke="#000" stroke-linecap="round" stroke-linejoin="round" stroke-width="1.5"></rect>
            <rect x="363.776" y="246.398" width="113.203" height="10.241" fill="#fff" stroke="#000" stroke-linecap="round" stroke-linejoin="round" stroke-width="1.5"></rect>
          </g>
          <g>
            <rect x="253.807" y="294.785" width="48.516" height="10.241" fill="#0066f9" stroke="#000" stroke-linecap="round" stroke-linejoin="round" stroke-width="1.5"></rect>
            <rect x="473.745" y="294.785" width="48.516" height="10.241" fill="#0066f9" stroke="#000" stroke-linecap="round" stroke-linejoin="round" stroke-width="1.5"></rect>
            <rect x="315.26" y="294.785" width="145.547" height="10.241" fill="#fff" stroke="#000" stroke-linecap="round" stroke-linejoin="round" stroke-width="1.5"></rect>
          </g>
          <g>
            <rect x="253.807" y="270.591" width="16.172" height="10.241" fill="#fff" stroke="#000" stroke-linecap="round" stroke-linejoin="round" stroke-width="1.5"></rect>
            <rect x="282.916" y="270.591" width="145.547" height="10.241" fill="#0066f9" stroke="#000" stroke-linecap="round" stroke-linejoin="round" stroke-width="1.5"></rect>
          </g>
        </g>
        <g>
          <g>
            <rect x="253.807" y="318.978" width="97.031" height="10.241" fill="#fff" stroke="#000" stroke-linecap="round" stroke-linejoin="round" stroke-width="1.5"></rect>
            <rect x="363.776" y="318.978" width="113.203" height="10.241" fill="#fff" stroke="#000" stroke-linecap="round" stroke-linejoin="round" stroke-width="1.5"></rect>
          </g>
          <g>
            <rect x="253.807" y="343.171" width="16.172" height="10.241" fill="#fff" stroke="#000" stroke-linecap="round" stroke-linejoin="round" stroke-width="1.5"></rect>
            <rect x="282.916" y="343.171" width="145.547" height="10.241" fill="#0066f9" stroke="#000" stroke-linecap="round" stroke-linejoin="round" stroke-width="1.5"></rect>
          </g>
        </g>
        <rect x="563.094" y="44.276" width="7.277" height="312.336" fill="#fff" stroke="#000" stroke-linecap="round" stroke-linejoin="round" stroke-width="1.5"></rect>
        <rect x="563.094" y="227.325" width="7.277" height="129.287" stroke="#000" stroke-linecap="round" stroke-linejoin="round" stroke-width="1.5"></rect>
      </g>
      <g>
        <rect y="210.239" width="79.708" height="76.071" fill="#0066f9"></rect>
        <g>
          <path d="m67.638,256.63l1.138-6.055c.324-1.726-.812-3.388-2.538-3.713l-4.029-.757c-.535-.101-.958-.514-1.07-1.047l-.505-2.4c-.112-.533.108-1.08.557-1.387l3.386-2.315c1.45-.991,1.822-2.97.831-4.42l-3.477-5.086c-.991-1.45-2.97-1.822-4.42-.831l-3.382,2.312c-.452.309-1.045.315-1.502.016l-2.05-1.34c-.455-.297-.687-.84-.586-1.374l.757-4.03c.324-1.726-.812-3.388-2.538-3.713l-6.055-1.138c-1.726-.324-3.388.812-3.713,2.538l-.757,4.029c-.101.535-.514.958-1.047,1.07l-2.4.505c-.533.112-1.08-.108-1.387-.557l-2.315-3.386c-.991-1.45-2.97-1.822-4.42-.831l-5.086,3.477c-1.45.991-1.822,2.97-.831,4.42l2.312,3.382c.309.452.315,1.045.016,1.502l-1.339,2.049c-.298.456-.841.688-1.377.587l-4.029-.757c-1.726-.324-3.388.812-3.713,2.538l-1.138,6.055c-.324,1.726.812,3.388,2.538,3.713l4.029.757c.535.101.958.514,1.07,1.047l.505,2.4c.112.533-.108,1.08-.557,1.387l-3.386,2.315c-1.45.991-1.822,2.97-.831,4.42l3.477,5.086c.991,1.45,2.97,1.822,4.42.831l3.382-2.312c.451-.309,1.045-.315,1.502-.016l2.049,1.339c.456.298.688.841.587,1.377l-.757,4.029c-.324,1.726.812,3.388,2.538,3.713l6.055,1.138c1.726.324,3.388-.812,3.713-2.538l.737-3.921c.113-.601.576-1.074,1.174-1.2l2.181-.459c.6-.126,1.217.122,1.563.628l2.251,3.292c.991,1.45,2.97,1.822,4.42.831l5.086-3.477c1.45-.991,1.822-2.97.831-4.42l-2.205-3.226c-.373-.546-.381-1.264-.019-1.818l1.132-1.732c.361-.552,1.019-.833,1.667-.711l3.843.722c1.726.324,3.388-.812,3.713-2.538Z" fill="#fff" stroke="#000" stroke-linecap="round" stroke-linejoin="round" stroke-width="1.5"></path>
          <circle cx="39.854" cy="248.274" r="13.029" fill="#0066f9" stroke="#000" stroke-linecap="round" stroke-linejoin="round" stroke-width="1.5"></circle>
        </g>
      </g>
      <polygon points="734.713 7.392 639.97 7.392 639.97 68.592 674.775 68.592 687.341 81.159 699.908 68.592 734.713 68.592 734.713 7.392" fill="#fff" stroke="#000" stroke-linecap="round" stroke-linejoin="round" stroke-width="1.5"></polygon>
      <path d="m683.172,50.479l12.181-27.728c.137-.313.446-.514.788-.514h.087c.622,0,1.039.64.787,1.209l-12.268,27.728c-.138.311-.446.512-.787.512h0c-.621,0-1.038-.638-.788-1.206Z"></path>
      <polyline points="700.25 27.477 721.153 38.381 700.25 49.284" fill="none" stroke="#000" stroke-linecap="round" stroke-linejoin="round" stroke-width="1.5"></polyline>
      <polyline points="674.713 27.477 653.809 38.381 674.713 49.284" fill="none" stroke="#000" stroke-linecap="round" stroke-linejoin="round" stroke-width="1.5"></polyline>
      <line x1="282.916" y1="579.762" x2="881.899" y2="579.762" fill="none" stroke="#000" stroke-linecap="round" stroke-linejoin="round" stroke-width="1.5"></line>
      <g>
        <path d="m533.822,580.028c-32.366.536-60.275-23.922-59.77-58.046.215-14.49,2.062-31.572,12.397-47.789,19.976-31.343,68.784-45.124,92.014-75.445,64.506-84.196,149.245-142.358,223.061-111.885,103.667,42.796,123.723,148.635,108.658,216.919-9.502,43.071-41.656,75.559-83.593,76.254l-292.768-.009Z" fill="#fff" stroke="#000" stroke-linecap="round" stroke-linejoin="round" stroke-width="1.5"></path>
        <path d="m729.482,480.536s25.758-34.406,87.253-27.359" fill="#fff" stroke="#000" stroke-linecap="round" stroke-linejoin="round" stroke-width="1.5"></path>
        <path id="h_6_h" d="m786.27,191.428c1.658,7.976-4.009,11.114-4.302,16.333-.304,5.4,5.041,9.264,2.433,16.715-2.684,7.668-8.992,7.524-11.913,11.978-2.921,4.454-2.24,12.127-6.237,15.7-3.94,3.523-11.468,2-16.299,4.431-4.669,2.349-7.903,9.342-13.263,10.456-5.361,1.115-11.114-4.009-16.333-4.302-5.4-.304-11.697,4.093-16.715,2.433-5.09-1.684-7.524-8.992-11.978-11.913-4.454-2.921-9.973.113-15.7-6.237-4.101-4.547-2-11.468-4.431-16.299-2.349-4.669-8.707-5.543-10.456-13.263-1.21-5.34,4.009-11.114,4.302-16.333.304-5.4-4.972-9.257-2.433-16.715,2.418-7.103,8.992-7.524,11.913-11.978s-.675-10.158,6.237-15.7c5.54-4.442,11.468-2,16.299-4.431,4.669-2.349,2.84-8.289,13.263-10.456,5.361-1.115,12.035,5.83,17.254,6.123,5.4.304,8.525-6.241,15.794-4.254,7.917,2.164,7.524,8.992,11.978,11.913,4.454,2.921,11.061.363,15.7,6.237,5.608,7.099,1.709,12.966,4.14,17.797,2.349,4.669,9.263,4.625,10.748,11.765Z" fill="#0066f9" stroke="#000" stroke-linecap="round" stroke-linejoin="round" stroke-width="1.5"></path>
        <path id="h_6_h-2" data-name="h_6_h" d="m740.799,214.558c4.483-.069,8.052-3.826,7.972-8.39-.076-4.368-3.469-7.884-7.689-8.118-3.344-14.685-15.473-25.728-30.864-25.489-11.571.179-15.685,6.491-21.153,15.94-2.894,5-2.056,34.323,1.846,40.615,2.61,4.207,7.281,7.03,14.81,8.268l.365,17.081s-.986,16.491,16.937,15.624c18.18-.879,17.999-16.849,17.999-16.849,0,0-.527-36.479-.38-38.687.052,0,.103.006.155.006Z" fill="#fffdfd" stroke="#000" stroke-linecap="round" stroke-linejoin="round" stroke-width="1.5"></path>
        <path id="h_6_sh" d="m720.992,234.281l-14.944,16.975-.326-13.873s4.881.441,9.379-.854c4.498-1.295,5.89-2.248,5.89-2.248Z" stroke="#000" stroke-linecap="round" stroke-linejoin="round" stroke-width="1.5"></path>
        <path id="h_6_h-3" data-name="h_6_h" d="m685.506,194.109s10.239-3.435,16.3-12.227c0,0,2.608,7.033,14.155,5.894,11.547-1.139,12.224,3.636,14.663,7.773,2.438,4.137,10.233,2.557,10.233,2.557l12.325-10.949-17.965-24.531-45.389,5.019-1.807,14.263-2.514,12.201Z" fill="#0066f9"></path>
        <path id="h_6_st" d="m685.506,194.109s10.239-3.435,16.3-12.227c0,0,2.608,7.033,14.155,5.894,11.547-1.139,12.224,3.636,14.663,7.773,2.438,4.137,10.783,2.525,10.783,2.525" fill="none" stroke="#000" stroke-linecap="round" stroke-linejoin="round" stroke-width="1.5"></path>
        <g id="e_4_eye">
          <path d="m713.28,200.515l-.014-.141c.008-.207-.035-.399-.129-.578-.06-.186-.164-.347-.31-.483-.136-.146-.297-.25-.483-.31-.179-.094-.371-.137-.578-.129l-.399.054c-.254.071-.475.2-.662.386l-.235.304c-.136.234-.204.486-.205.757l.014.141c-.008.207.035.399.129.578.06.186.164.347.31.483.136.146.297.25.483.31.179.094.371.137.578.129l.399-.054c.254-.071.475-.2.662-.386l.235-.304c.136-.234.204-.486.205-.757h0Z"></path>
        </g>
        <g id="e_4_eye-2" data-name="e_4_eye">
          <path d="m695.843,201.742l-.014-.141c.008-.207-.035-.399-.129-.578-.06-.186-.164-.347-.31-.483-.136-.146-.297-.25-.483-.31-.179-.094-.371-.137-.578-.129l-.399.054c-.254.071-.475.2-.662.386l-.235.304c-.136.234-.204.486-.205.757l.014.141c-.008.207.035.399.129.578.06.186.164.347.31.483.136.146.297.25.483.31.179.094.371.137.578.129l.399-.054c.254-.071.475-.2.662-.386l.235-.304c.136-.234.204-.486.205-.757h0Z"></path>
        </g>
        <path id="e_4_st" d="m701.974,208.979l-.844,3.993c-.156.737.484,1.399,1.222,1.263l3.507-.644" fill="none" stroke="#000" stroke-linecap="round" stroke-linejoin="round" stroke-width="1.5"></path>
        <path id="e_4_st-2" data-name="e_4_st" d="m710.826,195.892s5.042-1.777,7.637,1.581" fill="none" stroke="#000" stroke-linecap="round" stroke-linejoin="round" stroke-width="1.5"></path>
        <path id="e_4_st-3" data-name="e_4_st" d="m716.632,217.321s-1.512,5.494-8.416,4.575" fill="none" stroke="#000" stroke-linecap="round" stroke-linejoin="round" stroke-width="1.5"></path>
        <path id="e_4_st-4" data-name="e_4_st" d="m691.231,197.923s3.889-3.176,7.644-1.223" fill="none" stroke="#000" stroke-linecap="round" stroke-linejoin="round" stroke-width="1.5"></path>
        <path id="b" d="m800.17,381.083c-4.57,1.47-9.25,1.54-13.59.48-.04,10.28-.08,17.18-.08,17.18l-120.4-.25.98-22.55-4.69,11.11c-4.58,8.8-14.1,13.38-23.4,12.16l-97.3-14.25,6.83-35.91,76.71.45,31.149-75.523c1.673-4.056,4.059-7.812,7.227-10.848,4.525-4.336,10.264-7.27,16.155-7.92,0,0,2.7-.16,3.7-.1l22.62-.29c-.02,2.42.6,16.05,16.94,15.27,15.23-.73,17.57-12.06,17.93-15.72l26.5-.34c9.11-.1,17.34,2.58,22.11,7.29,4.54,4.48,7.29,11.51,9.31,17.78l17.16,69.73.25.79c4.24,13.14-2.98,27.22-16.11,31.46Z" fill="#fdfdff" stroke="#000" stroke-linecap="round" stroke-linejoin="round" stroke-width="1.5"></path>
        <g id="ha">
          <path id="sk" d="m547.701,353.378s-16.096-2.716-20.58-5.03c-2.027-1.046-5.845-5.776-7.514-7.799-1.67-2.023-4.688-2.933-4.587-.749.018.379.343,1.209.806,2.208-.198-.244-.379-.479-.527-.695-3.928-5.73-7.37-5.704-7.286-3.359.015.413.332,1.264.829,2.345-2.242-2.579-4.557-4.332-6.314-2.735-.745.677.396,3.189,2.057,6.166-.352-.311-.709-.583-1.065-.797-1.12-.674-2.395-.39-2.404.453-.031,2.916,4.546,12.592,12.306,19.447,1.305,1.153,4.144,2.978,7.565,5.014-2.573.435-5.206,1.333-5.889,3.18-1.029,2.782,1.737,3.031,8.362,2.328,1.86-.197,5.067.08,7.971.433,6.156,3.39,11.137,6.16,11.137,6.16l5.13-26.57Z" fill="#fffdfd"></path>
          <path id="st" d="m531.771,373.548s-4.298-.62-8.309-.194c-6.625.703-9.391.455-8.362-2.327,1.436-3.885,11.493-3.577,11.493-3.577" fill="none" stroke="#000" stroke-linecap="round" stroke-linejoin="round" stroke-width="1.5"></path>
          <path id="st-2" data-name="st" d="m542.571,379.948s-24.428-12.947-29.148-17.116c-7.76-6.855-13.195-16.875-12.306-19.447.348-1.008,1.284-1.127,2.404-.453.283.17.567.377.848.611" fill="#fff" stroke="#000" stroke-linecap="round" stroke-linejoin="round" stroke-width="1.5"></path>
          <path id="st-3" data-name="st" d="m519.125,361.15s-2.137-1.405-3.506-2.343c-2.522-1.728-5.392-5.456-7.692-9.365-2.885-4.903-6.811-10.468-5.4-11.879,1.766-1.766,3.941-.086,6.314,2.735" fill="none" stroke="#000" stroke-linecap="round" stroke-linejoin="round" stroke-width="1.5"></path>
          <path id="st-4" data-name="st" d="m522.096,356.936s-3.822-2.552-5.328-4.038c-2.77-2.734-8.689-13.091-8.756-14.944-.085-2.345,3.358-2.37,7.286,3.359.149.217.326.45.525.696" fill="none" stroke="#000" stroke-linecap="round" stroke-linejoin="round" stroke-width="1.5"></path>
          <path id="st-5" data-name="st" d="m525.053,353.088s-5.069-3.497-6.035-5.08-3.943-7.036-3.997-8.208c-.102-2.184,2.917-1.274,4.587.749,1.67,2.023,5.487,6.753,7.514,7.799,4.484,2.314,20.58,5.03,20.58,5.03l-5.13,26.57" fill="none" stroke="#000" stroke-linecap="round" stroke-linejoin="round" stroke-width="1.5"></path>
        </g>
        <line id="st-6" data-name="st" x1="667.076" y1="375.94" x2="669.926" y2="309.884" fill="none" stroke="#000" stroke-linecap="round" stroke-linejoin="round" stroke-width="1.5"></line>
        <g id="ha-2" data-name="ha">
          <path id="sk-2" data-name="sk" d="m644.206,305.82c5.457-.253,9.415-.246,14.048.117-.852,1.131-1.814,2.461-2.571,3.653-.367.578-.563,1.751-.656,3.041-2.085-.326-3.491-.076-4.587,1.28-1.175,1.453,1.143,3.003,4.815,4.743.67,3.198,2.254,3.285,3.389,1.523.86.373,1.747.755,2.651,1.147,3.793,1.644,26.778,16.813,26.778,16.813l26.028-22.914c-6.482-2.483-37.818-14.395-44.958-15.338-13.112-1.732-22.544,1.06-25.86,2.757-1.558.797-.585,3.248.924,3.178Z" fill="#fffdfd"></path>
          <path id="st-7" data-name="st" d="m655.131,318.597c-3.604-1.717-5.854-3.248-4.692-4.686,1.081-1.337,2.461-1.6,4.499-1.295" fill="none" stroke="#000" stroke-linecap="round" stroke-linejoin="round" stroke-width="1.5"></path>
          <path id="st-8" data-name="st" d="m658.045,305.916c-4.547-.347-8.46-.345-13.839-.096-1.509.07-2.482-2.381-.924-3.178,3.316-1.697,12.748-4.489,25.86-2.757,7.14.943,38.477,12.855,44.958,15.338l-26.028,22.914s-22.986-15.17-26.778-16.813c-.867-.376-1.721-.742-2.547-1.101" fill="none" stroke="#000" stroke-linecap="round" stroke-linejoin="round" stroke-width="1.5"></path>
          <path id="st-9" data-name="st" d="m660.32,303.286s-2.874,3.53-4.638,6.304c-.926,1.456-.772,6.691-.596,8.074.603,4.746,2.836,4.446,4.04,1.584,1.131-2.69.753-5.084,2.13-7.451" fill="none" stroke="#000" stroke-linecap="round" stroke-linejoin="round" stroke-width="1.5"></path>
          <path id="st-10" data-name="st" d="m665.917,303.979s-3.016,4.351-4.479,7.346c-.757,1.551-.285,6.313.201,7.62.745,2.006,1.534,2.809,2.87,2.042,1.907-1.094.73-5.591,2.107-7.958,1.285-2.208,5.35-7.839,5.35-7.839" fill="none" stroke="#000" stroke-linecap="round" stroke-linejoin="round" stroke-width="1.5"></path>
          <path id="st-11" data-name="st" d="m668.657,310.066c-1.449,4.486-.195,6.293.37,7.301.962,1.714,2.379,1.498,2.94.108.746-1.848,1.211-5.196,1.845-6.114,1.315-1.907,4.081-4.464,4.081-4.464" fill="none" stroke="#000" stroke-linecap="round" stroke-linejoin="round" stroke-width="1.5"></path>
        </g>
        <path id="b-2" data-name="b" d="m786.573,381.578c-.899-.22-1.783-.489-2.649-.805l-98.804-38.844,12.807-39.216,65.515,21.499,23.061,7.353" fill="#fdfdff"></path>
        <path id="st-12" data-name="st" d="m786.573,381.578c-.899-.22-1.783-.489-2.649-.805l-98.804-38.844,12.807-39.216,65.515,21.499,23.061,7.353" fill="none" stroke="#000" stroke-linecap="round" stroke-linejoin="round" stroke-width="1.5"></path>
        <line id="st-13" data-name="st" x1="764.629" y1="324.591" x2="758.654" y2="303.345" fill="none" stroke="#000" stroke-linecap="round" stroke-linejoin="round" stroke-width="1.5"></line>
        <path id="bl" d="m800.17,381.083c-4.57,1.47-13.59.48-13.59.48l.475,17.181-120.955-.251.98-22.55-4.69,11.11c-4.58,8.8-14.1,13.38-23.4,12.16l-97.821-14.448,6.75-35.716,77.311.454,31.149-75.523c1.673-4.056,4.059-7.812,7.227-10.848,4.525-4.336,10.264-7.27,16.155-7.92,0,0,2.7-.16,3.7-.1l22.62-.29c-.02,2.42.6,16.05,16.94,15.27,15.23-.73,17.57-12.06,17.93-15.72l26.5-.34c9.11-.1,17.34,2.58,22.11,7.29,4.54,4.48,7.29,11.51,9.31,17.78l17.16,69.73.25.79c4.24,13.14-2.98,27.22-16.11,31.46Z"></path>
        <line id="st-14" data-name="st" x1="667.019" y1="377.257" x2="669.926" y2="309.884" fill="none" stroke="#feffff" stroke-linecap="round" stroke-linejoin="round" stroke-width="1.5"></line>
        <g id="ha-3" data-name="ha">
          <path id="sk-3" data-name="sk" d="m547.701,353.378s-16.096-2.716-20.58-5.03c-2.027-1.046-5.845-5.776-7.514-7.799-1.67-2.023-4.688-2.933-4.587-.749.018.379.343,1.209.806,2.208-.198-.244-.379-.479-.527-.695-3.928-5.73-7.37-5.704-7.286-3.359.015.413.332,1.264.829,2.345-2.242-2.579-4.557-4.332-6.314-2.735-.745.677.396,3.189,2.057,6.166-.352-.311-.709-.583-1.065-.797-1.12-.674-2.395-.39-2.404.453-.031,2.916,4.546,12.592,12.306,19.447,1.305,1.153,4.144,2.978,7.565,5.014-2.573.435-5.206,1.333-5.889,3.18-1.029,2.782,1.737,3.031,8.362,2.328,1.86-.197,5.067.08,7.971.433,6.156,3.39,11.45,6.16,11.45,6.16l4.817-26.57Z" fill="#fffdfd"></path>
          <path id="st-15" data-name="st" d="m531.771,373.548s-4.298-.62-8.309-.194c-6.625.703-9.391.455-8.362-2.327,1.436-3.885,11.493-3.577,11.493-3.577" fill="none" stroke="#000" stroke-linecap="round" stroke-linejoin="round" stroke-width="1.5"></path>
          <path id="st-16" data-name="st" d="m542.571,379.948s-24.428-12.947-29.148-17.116c-7.76-6.855-13.195-16.875-12.306-19.447.348-1.008,1.284-1.127,2.404-.453.283.17.567.377.848.611" fill="#fff" stroke="#000" stroke-linecap="round" stroke-linejoin="round" stroke-width="1.5"></path>
          <path id="st-17" data-name="st" d="m519.125,361.15s-2.137-1.405-3.506-2.343c-2.522-1.728-5.392-5.456-7.692-9.365-2.885-4.903-6.811-10.468-5.4-11.879,1.766-1.766,3.941-.086,6.314,2.735" fill="none" stroke="#000" stroke-linecap="round" stroke-linejoin="round" stroke-width="1.5"></path>
          <path id="st-18" data-name="st" d="m522.096,356.936s-3.822-2.552-5.328-4.038c-2.77-2.734-8.689-13.091-8.756-14.944-.085-2.345,3.358-2.37,7.286,3.359.149.217.326.45.525.696" fill="none" stroke="#000" stroke-linecap="round" stroke-linejoin="round" stroke-width="1.5"></path>
          <path id="st-19" data-name="st" d="m525.053,353.088s-5.069-3.497-6.035-5.08-3.943-7.036-3.997-8.208c-.102-2.184,2.917-1.274,4.587.749,1.67,2.023,5.487,6.753,7.514,7.799,4.484,2.314,20.58,5.03,20.58,5.03l-5.13,26.57" fill="none" stroke="#000" stroke-linecap="round" stroke-linejoin="round" stroke-width="1.5"></path>
        </g>
        <g id="ha-4" data-name="ha">
          <path id="sk-4" data-name="sk" d="m644.206,305.82c5.457-.253,9.415-.246,14.048.117-.852,1.131-1.814,2.461-2.571,3.653-.367.578-.563,1.751-.656,3.041-2.085-.326-3.491-.076-4.587,1.28-1.175,1.453,1.143,3.003,4.815,4.743.67,3.198,2.254,3.285,3.389,1.523.86.373,1.747.755,2.651,1.147,3.793,1.644,26.778,16.813,26.778,16.813l26.028-22.914c-6.482-2.483-37.818-14.395-44.958-15.338-13.112-1.732-22.544,1.06-25.86,2.757-1.558.797-.585,3.248.924,3.178Z" fill="#fffdfd"></path>
          <path id="st-20" data-name="st" d="m655.131,318.597c-3.604-1.717-5.854-3.248-4.692-4.686,1.081-1.337,2.461-1.6,4.499-1.295" fill="none" stroke="#000" stroke-linecap="round" stroke-linejoin="round" stroke-width="1.5"></path>
          <path id="st-21" data-name="st" d="m658.045,305.916c-4.547-.347-8.46-.345-13.839-.096-1.509.07-2.482-2.381-.924-3.178,3.316-1.697,12.748-4.489,25.86-2.757,7.14.943,38.477,12.855,44.958,15.338l-26.028,22.914s-22.986-15.17-26.778-16.813c-.867-.376-1.721-.742-2.547-1.101" fill="none" stroke="#000" stroke-linecap="round" stroke-linejoin="round" stroke-width="1.5"></path>
          <path id="st-22" data-name="st" d="m660.32,303.286s-2.874,3.53-4.638,6.304c-.926,1.456-.772,6.691-.596,8.074.603,4.746,2.836,4.446,4.04,1.584,1.131-2.69.753-5.084,2.13-7.451" fill="none" stroke="#000" stroke-linecap="round" stroke-linejoin="round" stroke-width="1.5"></path>
          <path id="st-23" data-name="st" d="m665.917,303.979s-3.016,4.351-4.479,7.346c-.757,1.551-.285,6.313.201,7.62.745,2.006,1.534,2.809,2.87,2.042,1.907-1.094.73-5.591,2.107-7.958,1.285-2.208,5.35-7.839,5.35-7.839" fill="none" stroke="#000" stroke-linecap="round" stroke-linejoin="round" stroke-width="1.5"></path>
          <path id="st-24" data-name="st" d="m668.657,310.066c-1.449,4.486-.195,6.293.37,7.301.962,1.714,2.379,1.498,2.94.108.746-1.848,1.211-5.196,1.845-6.114,1.315-1.907,4.081-4.464,4.081-4.464" fill="none" stroke="#000" stroke-linecap="round" stroke-linejoin="round" stroke-width="1.5"></path>
        </g>
        <path id="bl-2" data-name="bl" d="m786.573,381.578c-.899-.22-1.783-.489-2.649-.805l-98.804-38.844,12.807-39.216,65.515,21.499,23.061,7.353"></path>
        <path id="st-25" data-name="st" d="m786.573,381.578c-.899-.22-1.783-.489-2.649-.805l-98.804-38.844,12.807-39.216,65.515,21.499,23.061,7.353" fill="none" stroke="#feffff" stroke-linecap="round" stroke-linejoin="round" stroke-width="1.5"></path>
        <line id="st-26" data-name="st" x1="764.629" y1="324.591" x2="758.654" y2="303.345" fill="none" stroke="#feffff" stroke-linecap="round" stroke-linejoin="round" stroke-width="1.5"></line>
        <path id="b-3" data-name="b" d="m800.17,381.083c-4.57,1.47-9.25,1.54-13.59.48-.04,10.28-.08,17.18-.08,17.18l-120.4-.25.98-22.55-4.69,11.11c-4.58,8.8-14.1,13.38-23.4,12.16l-97.3-14.25,6.83-35.91,76.71.45,31.149-75.523c1.673-4.056,4.059-7.812,7.227-10.848,4.525-4.336,10.264-7.27,16.155-7.92,0,0,2.7-.16,3.7-.1l22.62-.29c-.02,2.42.6,16.05,16.94,15.27,15.23-.73,17.57-12.06,17.93-15.72l26.5-.34c9.11-.1,17.34,2.58,22.11,7.29,4.54,4.48,7.29,11.51,9.31,17.78l17.16,69.73.25.79c4.24,13.14-2.98,27.22-16.11,31.46Z" fill="#fdfdff" stroke="#000" stroke-linecap="round" stroke-linejoin="round" stroke-width="1.5"></path>
        <line id="st-27" data-name="st" x1="720.28" y1="270.083" x2="720.181" y2="398.607" fill="#fff" stroke="#000" stroke-linecap="round" stroke-linejoin="round" stroke-width="1.5"></line>
        <path id="b-4" data-name="b" d="m720.32,270.123s-5.01,11.69-14.21,5.33c-10.69-7.39-.03-20.63-.03-20.63-.02,2.28.53,14.48,14.2,15.26l.04.04Z" fill="#0066f9" stroke="#000" stroke-linecap="round" stroke-linejoin="round" stroke-width="1.5"></path>
        <path id="b-5" data-name="b" d="m734.29,277.983c-11.25,3.56-13.97-7.86-13.97-7.86l.05-.04c.83.05,1.72.05,2.65.01,14.84-.72,17.45-11.49,17.91-15.42l.17-.13c3.39,3.43,4.44,19.89-6.81,23.44Z" fill="#0066f9" stroke="#000" stroke-linecap="round" stroke-linejoin="round" stroke-width="1.5"></path>
        <g id="ha-5" data-name="ha">
          <path id="sk-5" data-name="sk" d="m547.701,353.378s-16.096-2.716-20.58-5.03c-2.027-1.046-5.845-5.776-7.514-7.799-1.67-2.023-4.688-2.933-4.587-.749.018.379.343,1.209.806,2.208-.198-.244-.379-.479-.527-.695-3.928-5.73-7.37-5.704-7.286-3.359.015.413.332,1.264.829,2.345-2.242-2.579-4.557-4.332-6.314-2.735-.745.677.396,3.189,2.057,6.166-.352-.311-.709-.583-1.065-.797-1.12-.674-2.395-.39-2.404.453-.031,2.916,4.546,12.592,12.306,19.447,1.305,1.153,4.144,2.978,7.565,5.014-2.573.435-5.206,1.333-5.889,3.18-1.029,2.782,1.737,3.031,8.362,2.328,1.86-.197,5.067.08,7.971.433,6.156,3.39,11.137,6.16,11.137,6.16l5.13-26.57Z" fill="#fffdfd"></path>
          <path id="st-28" data-name="st" d="m531.771,373.548s-4.298-.62-8.309-.194c-6.625.703-9.391.455-8.362-2.327,1.436-3.885,11.493-3.577,11.493-3.577" fill="none" stroke="#000" stroke-linecap="round" stroke-linejoin="round" stroke-width="1.5"></path>
          <path id="st-29" data-name="st" d="m542.571,379.948s-24.428-12.947-29.148-17.116c-7.76-6.855-13.195-16.875-12.306-19.447.348-1.008,1.284-1.127,2.404-.453.283.17.567.377.848.611" fill="#fff" stroke="#000" stroke-linecap="round" stroke-linejoin="round" stroke-width="1.5"></path>
          <path id="st-30" data-name="st" d="m519.125,361.15s-2.137-1.405-3.506-2.343c-2.522-1.728-5.392-5.456-7.692-9.365-2.885-4.903-6.811-10.468-5.4-11.879,1.766-1.766,3.941-.086,6.314,2.735" fill="none" stroke="#000" stroke-linecap="round" stroke-linejoin="round" stroke-width="1.5"></path>
          <path id="st-31" data-name="st" d="m522.096,356.936s-3.822-2.552-5.328-4.038c-2.77-2.734-8.689-13.091-8.756-14.944-.085-2.345,3.358-2.37,7.286,3.359.149.217.326.45.525.696" fill="none" stroke="#000" stroke-linecap="round" stroke-linejoin="round" stroke-width="1.5"></path>
          <path id="st-32" data-name="st" d="m525.053,353.088s-5.069-3.497-6.035-5.08-3.943-7.036-3.997-8.208c-.102-2.184,2.917-1.274,4.587.749,1.67,2.023,5.487,6.753,7.514,7.799,4.484,2.314,20.58,5.03,20.58,5.03l-5.13,26.57" fill="none" stroke="#000" stroke-linecap="round" stroke-linejoin="round" stroke-width="1.5"></path>
        </g>
        <line id="st-33" data-name="st" x1="667.076" y1="375.94" x2="669.926" y2="309.884" fill="none" stroke="#000" stroke-linecap="round" stroke-linejoin="round" stroke-width="1.5"></line>
        <g id="ha-6" data-name="ha">
          <path id="sk-6" data-name="sk" d="m644.206,305.82c5.457-.253,9.415-.246,14.048.117-.852,1.131-1.814,2.461-2.571,3.653-.367.578-.563,1.751-.656,3.041-2.085-.326-3.491-.076-4.587,1.28-1.175,1.453,1.143,3.003,4.815,4.743.67,3.198,2.254,3.285,3.389,1.523.86.373,1.747.755,2.651,1.147,3.793,1.644,26.778,16.813,26.778,16.813l26.028-22.914c-6.482-2.483-37.818-14.395-44.958-15.338-13.112-1.732-22.544,1.06-25.86,2.757-1.558.797-.585,3.248.924,3.178Z" fill="#fffdfd"></path>
          <path id="st-34" data-name="st" d="m655.131,318.597c-3.604-1.717-5.854-3.248-4.692-4.686,1.081-1.337,2.461-1.6,4.499-1.295" fill="none" stroke="#000" stroke-linecap="round" stroke-linejoin="round" stroke-width="1.5"></path>
          <path id="st-35" data-name="st" d="m658.045,305.916c-4.547-.347-8.46-.345-13.839-.096-1.509.07-2.482-2.381-.924-3.178,3.316-1.697,12.748-4.489,25.86-2.757,7.14.943,38.477,12.855,44.958,15.338l-26.028,22.914s-22.986-15.17-26.778-16.813c-.867-.376-1.721-.742-2.547-1.101" fill="none" stroke="#000" stroke-linecap="round" stroke-linejoin="round" stroke-width="1.5"></path>
          <path id="st-36" data-name="st" d="m660.32,303.286s-2.874,3.53-4.638,6.304c-.926,1.456-.772,6.691-.596,8.074.603,4.746,2.836,4.446,4.04,1.584,1.131-2.69.753-5.084,2.13-7.451" fill="none" stroke="#000" stroke-linecap="round" stroke-linejoin="round" stroke-width="1.5"></path>
          <path id="st-37" data-name="st" d="m665.917,303.979s-3.016,4.351-4.479,7.346c-.757,1.551-.285,6.313.201,7.62.745,2.006,1.534,2.809,2.87,2.042,1.907-1.094.73-5.591,2.107-7.958,1.285-2.208,5.35-7.839,5.35-7.839" fill="none" stroke="#000" stroke-linecap="round" stroke-linejoin="round" stroke-width="1.5"></path>
          <path id="st-38" data-name="st" d="m668.657,310.066c-1.449,4.486-.195,6.293.37,7.301.962,1.714,2.379,1.498,2.94.108.746-1.848,1.211-5.196,1.845-6.114,1.315-1.907,4.081-4.464,4.081-4.464" fill="none" stroke="#000" stroke-linecap="round" stroke-linejoin="round" stroke-width="1.5"></path>
        </g>
        <path id="b-6" data-name="b" d="m786.573,381.578c-.899-.22-1.783-.489-2.649-.805l-98.804-38.844,12.807-39.216,65.515,21.499,23.061,7.353" fill="#fdfdff"></path>
        <path id="st-39" data-name="st" d="m786.573,381.578c-.899-.22-1.783-.489-2.649-.805l-98.804-38.844,12.807-39.216,65.515,21.499,23.061,7.353" fill="none" stroke="#000" stroke-linecap="round" stroke-linejoin="round" stroke-width="1.5"></path>
        <line id="st-40" data-name="st" x1="764.629" y1="324.591" x2="758.654" y2="303.345" fill="none" stroke="#000" stroke-linecap="round" stroke-linejoin="round" stroke-width="1.5"></line>
        <path id="b-7" data-name="b" d="m816.122,349.129l-.094-.292-17.159-69.737c-2.023-6.271-4.772-13.3-9.31-17.782-4.768-4.71-13-7.382-22.106-7.284l-27.73.357-18.002,9.621-15.643-9.188-22.618.291c-1-.058-3.703.101-3.703.101-5.887.652-11.624,3.583-16.148,7.916-3.168,3.035-5.555,6.792-7.228,10.848l-31.152,75.519-76.706-.447-6.83,35.91,97.299,14.251c9.296,1.217,18.82-3.363,23.401-12.162l4.682-11.11-.973,22.556,120.401.251s.034-6.909.075-17.188c5.08,1.242,10.625.939,15.901-1.35,11.875-5.153,17.618-18.761,13.643-31.081Z" fill="#fdfdff" stroke="#000" stroke-linecap="round" stroke-linejoin="round" stroke-width="1.5"></path>
        <line id="st-41" data-name="st" x1="721.721" y1="264.011" x2="721.313" y2="299.675" fill="#fff" stroke="#000" stroke-linecap="round" stroke-linejoin="round" stroke-width="1.5"></line>
        <polygon id="b-8" data-name="b" points="741.521 247.025 746.402 254.048 732.246 276.983 721.721 264.011 741.521 247.025" fill="#fdfdff" stroke="#000" stroke-linecap="round" stroke-linejoin="round" stroke-width="1.5"></polygon>
        <polygon id="b-9" data-name="b" points="721.721 264.011 710.547 275.805 700.564 254.832 705.538 248.274 721.721 264.011" fill="#fdfdff" stroke="#000" stroke-linecap="round" stroke-linejoin="round" stroke-width="1.5"></polygon>
        <g id="ha-7" data-name="ha">
          <path id="sk-7" data-name="sk" d="m547.701,353.378s-16.096-2.716-20.58-5.03c-2.027-1.046-5.845-5.776-7.514-7.799-1.67-2.023-4.688-2.933-4.587-.749.018.379.343,1.209.806,2.208-.198-.244-.379-.479-.527-.695-3.928-5.73-7.37-5.704-7.286-3.359.015.413.332,1.264.829,2.345-2.242-2.579-4.557-4.332-6.314-2.735-.745.677.396,3.189,2.057,6.166-.352-.311-.709-.583-1.065-.797-1.12-.674-2.395-.39-2.404.453-.031,2.916,4.546,12.592,12.306,19.447,1.305,1.153,4.144,2.978,7.565,5.014-2.573.435-5.206,1.333-5.889,3.18-1.029,2.782,1.737,3.031,8.362,2.328,1.86-.197,5.067.08,7.971.433,6.156,3.39,11.188,5.898,11.188,5.898l5.079-26.307Z" fill="#fffdfd"></path>
          <path id="st-42" data-name="st" d="m531.771,373.548s-4.298-.62-8.309-.194c-6.625.703-9.391.455-8.362-2.327,1.436-3.885,11.493-3.577,11.493-3.577" fill="none" stroke="#000" stroke-linecap="round" stroke-linejoin="round" stroke-width="1.5"></path>
          <path id="st-43" data-name="st" d="m542.571,379.948s-24.428-12.947-29.148-17.116c-7.76-6.855-13.195-16.875-12.306-19.447.348-1.008,1.284-1.127,2.404-.453.283.17.567.377.848.611" fill="#fff" stroke="#000" stroke-linecap="round" stroke-linejoin="round" stroke-width="1.5"></path>
          <path id="st-44" data-name="st" d="m519.125,361.15s-2.137-1.405-3.506-2.343c-2.522-1.728-5.392-5.456-7.692-9.365-2.885-4.903-6.811-10.468-5.4-11.879,1.766-1.766,3.941-.086,6.314,2.735" fill="none" stroke="#000" stroke-linecap="round" stroke-linejoin="round" stroke-width="1.5"></path>
          <path id="st-45" data-name="st" d="m522.096,356.936s-3.822-2.552-5.328-4.038c-2.77-2.734-8.689-13.091-8.756-14.944-.085-2.345,3.358-2.37,7.286,3.359.149.217.326.45.525.696" fill="none" stroke="#000" stroke-linecap="round" stroke-linejoin="round" stroke-width="1.5"></path>
          <path id="st-46" data-name="st" d="m525.053,353.088s-5.069-3.497-6.035-5.08-3.943-7.036-3.997-8.208c-.102-2.184,2.917-1.274,4.587.749,1.67,2.023,5.487,6.753,7.514,7.799,4.484,2.314,20.58,5.03,20.58,5.03l-5.13,26.57" fill="none" stroke="#000" stroke-linecap="round" stroke-linejoin="round" stroke-width="1.5"></path>
        </g>
        <line id="st-47" data-name="st" x1="667.076" y1="375.94" x2="669.926" y2="309.884" fill="none" stroke="#000" stroke-linecap="round" stroke-linejoin="round" stroke-width="1.5"></line>
        <g id="ha-8" data-name="ha">
          <path id="sk-8" data-name="sk" d="m644.206,305.82c5.457-.253,9.415-.246,14.048.117-.852,1.131-1.814,2.461-2.571,3.653-.367.578-.563,1.751-.656,3.041-2.085-.326-3.491-.076-4.587,1.28-1.175,1.453,1.143,3.003,4.815,4.743.67,3.198,2.254,3.285,3.389,1.523.86.373,1.747.755,2.651,1.147,3.793,1.644,26.778,16.813,26.778,16.813l26.028-22.914c-6.482-2.483-37.818-14.395-44.958-15.338-13.112-1.732-22.544,1.06-25.86,2.757-1.558.797-.585,3.248.924,3.178Z" fill="#fffdfd"></path>
          <path id="st-48" data-name="st" d="m655.131,318.597c-3.604-1.717-5.854-3.248-4.692-4.686,1.081-1.337,2.461-1.6,4.499-1.295" fill="none" stroke="#000" stroke-linecap="round" stroke-linejoin="round" stroke-width="1.5"></path>
          <path id="st-49" data-name="st" d="m658.045,305.916c-4.547-.347-8.46-.345-13.839-.096-1.509.07-2.482-2.381-.924-3.178,3.316-1.697,12.748-4.489,25.86-2.757,7.14.943,38.477,12.855,44.958,15.338l-26.028,22.914s-22.986-15.17-26.778-16.813c-.867-.376-1.721-.742-2.547-1.101" fill="none" stroke="#000" stroke-linecap="round" stroke-linejoin="round" stroke-width="1.5"></path>
          <path id="st-50" data-name="st" d="m660.32,303.286s-2.874,3.53-4.638,6.304c-.926,1.456-.772,6.691-.596,8.074.603,4.746,2.836,4.446,4.04,1.584,1.131-2.69.753-5.084,2.13-7.451" fill="none" stroke="#000" stroke-linecap="round" stroke-linejoin="round" stroke-width="1.5"></path>
          <path id="st-51" data-name="st" d="m665.917,303.979s-3.016,4.351-4.479,7.346c-.757,1.551-.285,6.313.201,7.62.745,2.006,1.534,2.809,2.87,2.042,1.907-1.094.73-5.591,2.107-7.958,1.285-2.208,5.35-7.839,5.35-7.839" fill="none" stroke="#000" stroke-linecap="round" stroke-linejoin="round" stroke-width="1.5"></path>
          <path id="st-52" data-name="st" d="m668.657,310.066c-1.449,4.486-.195,6.293.37,7.301.962,1.714,2.379,1.498,2.94.108.746-1.848,1.211-5.196,1.845-6.114,1.315-1.907,4.081-4.464,4.081-4.464" fill="none" stroke="#000" stroke-linecap="round" stroke-linejoin="round" stroke-width="1.5"></path>
        </g>
        <path id="b-10" data-name="b" d="m786.573,381.578c-.899-.22-1.783-.489-2.649-.805l-98.804-38.844,12.807-39.216,65.515,21.499,23.061,7.353" fill="#fdfdff"></path>
        <path id="st-53" data-name="st" d="m786.573,381.578c-.899-.22-1.783-.489-2.649-.805l-98.804-38.844,12.807-39.216,65.515,21.499,23.061,7.353" fill="none" stroke="#000" stroke-linecap="round" stroke-linejoin="round" stroke-width="1.5"></path>
        <line id="st-54" data-name="st" x1="764.629" y1="324.591" x2="758.654" y2="303.345" fill="none" stroke="#000" stroke-linecap="round" stroke-linejoin="round" stroke-width="1.5"></line>
        <path id="bl-3" data-name="bl" d="m800.17,381.083c-4.57,1.47-13.59.48-13.59.48l.497,17.459-120.977-.529.98-22.55-4.69,11.11c-4.58,8.8-14.1,13.38-23.4,12.16l-97.821-14.448,6.75-35.716,77.311.454,31.149-75.523c1.673-4.056,4.059-7.812,7.227-10.848,4.525-4.336,10.264-7.27,16.155-7.92,0,0,2.7-.16,3.7-.1l22.62-.29,15.64,9.188,19.23-9.638,26.5-.34c9.11-.1,17.34,2.58,22.11,7.29,4.54,4.48,7.29,11.51,9.31,17.78l17.16,69.73.25.79c4.24,13.14-2.98,27.22-16.11,31.46Z"></path>
        <line id="st-55" data-name="st" x1="667.019" y1="377.257" x2="669.926" y2="309.884" fill="none" stroke="#feffff" stroke-linecap="round" stroke-linejoin="round" stroke-width="1.5"></line>
        <g id="laptop">
          <path id="bl-4" data-name="bl" d="m500.258,351.06h128.965s-20.752-95.786-20.752-95.786c-.456-2.107-2.32-3.61-4.476-3.61h-119.592c-2.92,0-5.095,2.696-4.476,5.55l20.332,93.846Z" stroke="#000" stroke-linecap="round" stroke-linejoin="round" stroke-width="1.5"></path>
          <path id="b-11" data-name="b" d="m500.59,351.06h117.285c3.639,0,6.349-3.36,5.578-6.916l-19.254-88.87c-.456-2.107-2.32-3.61-4.476-3.61h-120.629c-2.387,0-4.165,2.204-3.659,4.537l19.577,90.36c.569,2.626,2.892,4.499,5.578,4.499Z" fill="#0066f9" stroke="#000" stroke-linecap="round" stroke-linejoin="round" stroke-width="1.5"></path>
          <rect id="bl-5" data-name="bl" x="493.62" y="344.912" width="186.946" height="6.147" rx="3.074" ry="3.074" transform="translate(1174.186 695.972) rotate(-180)" stroke="#000" stroke-linecap="round" stroke-linejoin="round" stroke-width="1.5"></rect>
          <rect id="bl-6" data-name="bl" x="493.62" y="344.912" width="186.946" height="6.147" rx="3.074" ry="3.074" transform="translate(1174.186 695.972) rotate(-180)" fill="none" stroke="#feffff" stroke-linecap="round" stroke-linejoin="round" stroke-width="1.5"></rect>
          <rect id="b-12" data-name="b" x="493.62" y="344.912" width="131.42" height="6.147" rx="3.074" ry="3.074" transform="translate(1118.66 695.972) rotate(-180)" fill="#0066f9" stroke="#000" stroke-linecap="round" stroke-linejoin="round" stroke-width="1.5"></rect>
          <circle id="b-13" data-name="b" cx="547.426" cy="301.508" r="8.699" fill="#fff" stroke="#000" stroke-linecap="round" stroke-linejoin="round" stroke-width="1.5"></circle>
        </g>
        <polygon id="b-14" data-name="b" points="741.521 247.025 746.799 254.619 732.246 276.983 721.721 264.011 741.521 247.025" fill="#fdfdff" stroke="#000" stroke-linecap="round" stroke-linejoin="round" stroke-width="1.5"></polygon>
        <polygon id="b-15" data-name="b" points="721.721 264.011 710.547 275.805 700.198 255.314 705.538 248.274 721.721 264.011" fill="#fdfdff" stroke="#000" stroke-linecap="round" stroke-linejoin="round" stroke-width="1.5"></polygon>
        <g id="ha-9" data-name="ha">
          <path id="sk-9" data-name="sk" d="m547.701,353.378s-16.096-2.716-20.58-5.03c-2.027-1.046-5.845-5.776-7.514-7.799-1.67-2.023-4.688-2.933-4.587-.749.018.379.343,1.209.806,2.208-.198-.244-.379-.479-.527-.695-3.928-5.73-7.37-5.704-7.286-3.359.015.413.332,1.264.829,2.345-2.242-2.579-4.557-4.332-6.314-2.735-.745.677.396,3.189,2.057,6.166-.352-.311-.709-.583-1.065-.797-1.12-.674-2.395-.39-2.404.453-.031,2.916,4.546,12.592,12.306,19.447,1.305,1.153,4.144,2.978,7.565,5.014-2.573.435-5.206,1.333-5.889,3.18-1.029,2.782,1.737,3.031,8.362,2.328,1.86-.197,5.067.08,7.971.433,6.156,3.39,11.45,6.16,11.45,6.16l4.817-26.57Z" fill="#fffdfd"></path>
          <path id="st-56" data-name="st" d="m531.771,373.548s-4.298-.62-8.309-.194c-6.625.703-9.391.455-8.362-2.327,1.436-3.885,11.493-3.577,11.493-3.577" fill="none" stroke="#000" stroke-linecap="round" stroke-linejoin="round" stroke-width="1.5"></path>
          <path id="st-57" data-name="st" d="m542.571,379.948s-24.428-12.947-29.148-17.116c-7.76-6.855-13.195-16.875-12.306-19.447.348-1.008,1.284-1.127,2.404-.453.283.17.567.377.848.611" fill="#fff" stroke="#000" stroke-linecap="round" stroke-linejoin="round" stroke-width="1.5"></path>
          <path id="st-58" data-name="st" d="m519.125,361.15s-2.137-1.405-3.506-2.343c-2.522-1.728-5.392-5.456-7.692-9.365-2.885-4.903-6.811-10.468-5.4-11.879,1.766-1.766,3.941-.086,6.314,2.735" fill="none" stroke="#000" stroke-linecap="round" stroke-linejoin="round" stroke-width="1.5"></path>
          <path id="st-59" data-name="st" d="m522.096,356.936s-3.822-2.552-5.328-4.038c-2.77-2.734-8.689-13.091-8.756-14.944-.085-2.345,3.358-2.37,7.286,3.359.149.217.326.45.525.696" fill="none" stroke="#000" stroke-linecap="round" stroke-linejoin="round" stroke-width="1.5"></path>
          <path id="st-60" data-name="st" d="m525.053,353.088s-5.069-3.497-6.035-5.08-3.943-7.036-3.997-8.208c-.102-2.184,2.917-1.274,4.587.749,1.67,2.023,5.487,6.753,7.514,7.799,4.484,2.314,20.58,5.03,20.58,5.03l-5.13,26.57" fill="none" stroke="#000" stroke-linecap="round" stroke-linejoin="round" stroke-width="1.5"></path>
        </g>
        <g id="ha-10" data-name="ha">
          <path id="sk-10" data-name="sk" d="m644.206,305.82c5.457-.253,9.415-.246,14.048.117-.852,1.131-1.814,2.461-2.571,3.653-.367.578-.563,1.751-.656,3.041-2.085-.326-3.491-.076-4.587,1.28-1.175,1.453,1.143,3.003,4.815,4.743.67,3.198,2.254,3.285,3.389,1.523.86.373,1.747.755,2.651,1.147,3.793,1.644,26.778,16.813,26.778,16.813l26.028-22.914c-6.482-2.483-37.818-14.395-44.958-15.338-13.112-1.732-22.544,1.06-25.86,2.757-1.558.797-.585,3.248.924,3.178Z" fill="#fffdfd"></path>
          <path id="st-61" data-name="st" d="m655.131,318.597c-3.604-1.717-5.854-3.248-4.692-4.686,1.081-1.337,2.461-1.6,4.499-1.295" fill="none" stroke="#000" stroke-linecap="round" stroke-linejoin="round" stroke-width="1.5"></path>
          <path id="st-62" data-name="st" d="m658.045,305.916c-4.547-.347-8.46-.345-13.839-.096-1.509.07-2.482-2.381-.924-3.178,3.316-1.697,12.748-4.489,25.86-2.757,7.14.943,38.477,12.855,44.958,15.338l-26.028,22.914s-22.986-15.17-26.778-16.813c-.867-.376-1.721-.742-2.547-1.101" fill="none" stroke="#000" stroke-linecap="round" stroke-linejoin="round" stroke-width="1.5"></path>
          <path id="st-63" data-name="st" d="m660.32,303.286s-2.874,3.53-4.638,6.304c-.926,1.456-.772,6.691-.596,8.074.603,4.746,2.836,4.446,4.04,1.584,1.131-2.69.753-5.084,2.13-7.451" fill="none" stroke="#000" stroke-linecap="round" stroke-linejoin="round" stroke-width="1.5"></path>
          <path id="st-64" data-name="st" d="m665.917,303.979s-3.016,4.351-4.479,7.346c-.757,1.551-.285,6.313.201,7.62.745,2.006,1.534,2.809,2.87,2.042,1.907-1.094.73-5.591,2.107-7.958,1.285-2.208,5.35-7.839,5.35-7.839" fill="none" stroke="#000" stroke-linecap="round" stroke-linejoin="round" stroke-width="1.5"></path>
          <path id="st-65" data-name="st" d="m668.657,310.066c-1.449,4.486-.195,6.293.37,7.301.962,1.714,2.379,1.498,2.94.108.746-1.848,1.211-5.196,1.845-6.114,1.315-1.907,4.081-4.464,4.081-4.464" fill="none" stroke="#000" stroke-linecap="round" stroke-linejoin="round" stroke-width="1.5"></path>
        </g>
        <path id="bl-7" data-name="bl" d="m786.573,381.578c-.899-.22-1.783-.489-2.649-.805l-98.804-38.844,12.807-39.216,65.515,21.499,23.061,7.353"></path>
        <path id="st-66" data-name="st" d="m786.573,381.578c-.899-.22-1.783-.489-2.649-.805l-98.804-38.844,12.807-39.216,65.515,21.499,23.061,7.353" fill="none" stroke="#feffff" stroke-linecap="round" stroke-linejoin="round" stroke-width="1.5"></path>
        <line id="st-67" data-name="st" x1="764.629" y1="324.591" x2="758.654" y2="303.345" fill="none" stroke="#feffff" stroke-linecap="round" stroke-linejoin="round" stroke-width="1.5"></line>
        <path id="l" d="m407.498,580.036h52.813s5.145-6.431,5.145-6.431c0,0,1.323,3.521,2.582,6.431h12.98s.83-32.939.83-32.939l-39.589-.876s-7.215,16.784-20.406,17.879c-20.816,1.733-14.356,15.936-14.356,15.936Z" fill="#fff" stroke="#000" stroke-linecap="round" stroke-linejoin="round" stroke-width="1.5"></path>
        <path id="l-2" data-name="l" d="m324.144,518.211l28.589,44.407,8.192.845s-2.245,3.018-4.01,5.652l7.026,10.914,28.145-17.132-20.694-33.761s-18.018,3.019-26.079-7.479c-12.725-16.565-21.17-3.444-21.17-3.444Z" fill="#fff" stroke="#000" stroke-linecap="round" stroke-linejoin="round" stroke-width="1.5"></path>
        <path id="l-3" data-name="l" d="m723.399,469.208c-7.584-.125-99.795-3.925-139.363-3.982l-195.949,107.145-24.323-47.751,205.678-137.187s150.295,8.023,147.804,9.945" fill="#0066f9" stroke="#000" stroke-linecap="round" stroke-linejoin="round" stroke-width="1.5"></path>
        <path id="l-4" data-name="l" d="m786.503,398.747l-51.237-1.012h0s-155.107-39.268-155.107-39.268c-24.053-7.966-40.349-1.855-51.578,18.681l-91.206,170.834,47.667,21.9,90.464-148.531,128.177,44.773c6.101,1.844,12.421,2.878,18.792,3.06.408.012.727.02.924.023,12.89.213,29.662-2.535,43.711-15.71,15.561-14.593,20.46-33.724,19.393-54.751Z" fill="#0066f9" stroke="#000" stroke-linecap="round" stroke-linejoin="round" stroke-width="1.5"></path>
      </g>
      <g>
        <circle cx="523.46" cy="18.895" r="6.269" fill="#fff" stroke="#000" stroke-linecap="round" stroke-linejoin="round" stroke-width="1.5"></circle>
        <circle cx="541.962" cy="18.895" r="6.269" fill="#fff" stroke="#000" stroke-linecap="round" stroke-linejoin="round" stroke-width="1.5"></circle>
        <circle cx="560.464" cy="18.895" r="6.269" fill="#0066f9" stroke="#000" stroke-linecap="round" stroke-linejoin="round" stroke-width="1.5"></circle>
      </g>
    </g>
  </g>
</svg>