<svg id="Layer_2" data-name="Layer 2" xmlns="http://www.w3.org/2000/svg" viewBox="0 0 1091.824 905.254" style="width: 100%; height: 100%;">
  <g id="Layer_2-2" data-name="Layer 2">
    <g>
      <g>
        <g>
          <rect x="291.289" y=".824" width="489.557" height="369.139" rx="19.99" ry="19.99" transform="translate(1072.134 370.787) rotate(-180)" fill="#fff"></rect>
          <path d="m760.855,370.787h-449.576c-11.477,0-20.814-9.337-20.814-20.814V20.814c0-11.477,9.337-20.814,20.814-20.814h449.576c11.477,0,20.814,9.337,20.814,20.814v329.159c0,11.477-9.337,20.814-20.814,20.814ZM311.279,1.648c-10.568,0-19.166,8.598-19.166,19.166v329.159c0,10.568,8.598,19.166,19.166,19.166h449.576c10.568,0,19.166-8.598,19.166-19.166V20.814c0-10.568-8.598-19.166-19.166-19.166h-449.576Z" fill="#292a2e"></path>
        </g>
        <g>
          <rect x="313.4" y="33.258" width="44.348" height="44.348" rx="6.036" ry="6.036" transform="translate(-3.734 31.927) rotate(-5.417)" fill="#292a2e"></rect>
          <g>
            <rect x="400.457" y="99.684" width="44.348" height="44.348" rx="6.036" ry="6.036" transform="translate(15.462 -44.513) rotate(6.141)" fill="#fff"></rect>
            <path d="m436.963,146.666c-.255,0-.51-.014-.766-.042h0l-32.09-3.453c-3.857-.416-6.658-3.891-6.243-7.749l3.453-32.09c.201-1.869,1.117-3.547,2.581-4.727,1.465-1.18,3.299-1.719,5.168-1.517l32.09,3.453c1.868.201,3.547,1.118,4.726,2.581,1.18,1.464,1.719,3.299,1.518,5.167l-3.453,32.09c-.201,1.869-1.117,3.547-2.581,4.727-1.263,1.017-2.803,1.558-4.401,1.558Zm-.553-2.03c1.342.143,2.65-.242,3.699-1.086,1.048-.844,1.704-2.045,1.848-3.383l3.453-32.09c.144-1.337-.242-2.651-1.086-3.699-.845-1.047-2.046-1.704-3.383-1.848l-32.091-3.453c-1.33-.142-2.649.241-3.698,1.085-1.048.844-1.704,2.046-1.848,3.383l-3.453,32.09c-.297,2.761,1.708,5.249,4.47,5.546l32.09,3.453h0Z" fill="#292a2e"></path>
          </g>
          <g>
            <path d="m583.445,152.416c-.322,0-.638-.155-.831-.442-20.361-30.286-51.25-35.803-73.584-35.099-24.286.766-43.963,8.825-44.158,8.906-.511.21-1.095-.03-1.308-.541-.212-.51.03-1.095.54-1.307.2-.083,20.215-8.28,44.863-9.058,22.83-.718,54.434,4.938,75.307,35.982.308.458.187,1.08-.272,1.388-.171.115-.365.17-.557.17Z" fill="#292a2e"></path>
            <path d="m583.815,152.825c-.091,0-.182-.013-.272-.038l-20.49-5.786c-.532-.15-.841-.703-.69-1.234.149-.533.707-.839,1.233-.69l19.528,5.514,5.515-19.528c.149-.533.704-.838,1.233-.69.532.15.841.703.69,1.234l-5.786,20.49c-.124.44-.525.729-.961.729Z" fill="#292a2e"></path>
          </g>
          <rect x="579.805" y="163.22" width="44.348" height="44.348" rx="6.036" ry="6.036" transform="translate(-14.813 57.657) rotate(-5.417)" fill="#0066f9"></rect>
          <rect x="681.266" y="61.931" width="44.348" height="44.348" rx="6.036" ry="6.036" transform="translate(6.846 -44.962) rotate(3.679)" fill="#292a2e"></rect>
          <rect x="698.574" y="166.273" width="44.348" height="44.348" rx="6.036" ry="6.036" transform="translate(24.296 -76.024) rotate(6.141)" fill="#48cf48"></rect>
          <g>
            <rect x="526.862" y="274.085" width="44.348" height="44.348" rx="6.036" ry="6.036" transform="translate(-25.516 53.154) rotate(-5.417)" fill="#fff"></rect>
            <path d="m534.49,320.885c-3.584,0-6.655-2.734-7.001-6.372l-3.047-32.131c-.366-3.862,2.479-7.303,6.341-7.669l32.131-3.047c1.868-.178,3.698.384,5.147,1.582s2.345,2.888,2.521,4.759l3.047,32.131c.366,3.862-2.478,7.303-6.34,7.669h0l-32.131,3.047c-.225.021-.448.032-.669.032Zm29.097-47.251c-.16,0-.322.007-.483.023l-32.131,3.047c-2.766.262-4.802,2.725-4.54,5.49l3.047,32.131c.264,2.765,2.736,4.803,5.49,4.538l32.131-3.047c2.765-.262,4.801-2.725,4.539-5.49l-3.047-32.131c-.127-1.339-.769-2.548-1.805-3.406-.912-.753-2.033-1.155-3.201-1.155Z" fill="#292a2e"></path>
          </g>
          <rect x="319.678" y="263.217" width="44.348" height="44.348" rx="6.036" ry="6.036" transform="translate(-25.415 33.547) rotate(-5.417)" fill="#0066f9"></rect>
          <g>
            <path d="m612.897,145.425c-.038,0-.076-.002-.115-.006-.549-.063-.942-.56-.879-1.108.017-.143,1.728-14.423,9.244-28.985,10.004-19.383,25.683-30.502,45.34-32.156.548-.043,1.034.363,1.08.913.047.55-.362,1.034-.912,1.081-45.849,3.856-52.701,58.822-52.766,59.377-.059.51-.491.886-.992.886Z" fill="#292a2e"></path>
            <path d="m656.98,95.073c-.255,0-.511-.097-.705-.292-.392-.39-.394-1.022-.004-1.414l9.24-9.281-9.28-9.24c-.392-.39-.394-1.022-.004-1.414.39-.391,1.023-.393,1.415-.003l9.988,9.946c.392.39.394,1.022.004,1.414l-9.945,9.99c-.195.196-.452.294-.709.294Z" fill="#292a2e"></path>
          </g>
          <g>
            <path d="m547.889,257.723c-.429,0-.824-.276-.956-.707-.149-.488-14.531-49.055,22.697-69.195.487-.264,1.092-.082,1.355.404.263.485.082,1.092-.404,1.355-35.779,19.356-21.881,66.378-21.736,66.851.162.528-.136,1.087-.663,1.249-.098.03-.196.044-.293.044Z" fill="#292a2e"></path>
            <path d="m565.83,201.156c-.121,0-.243-.022-.363-.069-.515-.2-.769-.78-.568-1.294l4.172-10.717-10.717-4.172c-.515-.201-.77-.78-.569-1.295.2-.515.78-.771,1.294-.569l11.649,4.534c.248.097.446.287.553.53.107.243.113.518.017.765l-4.535,11.649c-.153.396-.531.638-.932.638Z" fill="#292a2e"></path>
          </g>
          <g>
            <path d="m423.516,92.542h0c-.553,0-1-.448-1-1,0-15.191-4.483-26.787-13.328-34.465-15.697-13.627-40.119-10.342-40.364-10.307-.547.071-1.053-.303-1.131-.849-.077-.547.303-1.053.849-1.131,1.034-.149,25.551-3.457,41.948,10.768,9.309,8.075,14.027,20.182,14.026,35.983,0,.552-.448,1-1,1Z" fill="#292a2e"></path>
            <path d="m423.564,92.903c-.031,0-.062-.001-.094-.004-.264-.025-.508-.154-.677-.358l-8.989-10.858c-.352-.425-.293-1.056.133-1.408.425-.353,1.055-.292,1.408.133l8.352,10.088,10.088-8.352c.426-.353,1.055-.292,1.408.133.352.425.293,1.056-.133,1.408l-10.858,8.99c-.18.149-.406.229-.638.229Z" fill="#292a2e"></path>
          </g>
          <rect x="407.362" y="202.858" width="44.348" height="44.348" rx="6.036" ry="6.036" fill="#48cf48"></rect>
          <g>
            <path d="m527.876,261.844c-.448,0-.855-.303-.969-.757-11.148-44.597-65.662-41.471-66.205-41.435-.552.04-1.027-.379-1.065-.931-.036-.551.38-1.027.931-1.064.144-.011,14.305-.897,29.68,3.906,14.271,4.459,32.554,14.852,38.6,39.039.135.536-.191,1.079-.728,1.213-.081.021-.163.03-.243.03Z" fill="#292a2e"></path>
            <path d="m528.015,262.181c-.206,0-.408-.063-.579-.185l-11.316-8.031c-.45-.319-.556-.944-.236-1.394.32-.45.943-.557,1.395-.237l10.489,7.444,7.477-10.842c.312-.455.937-.569,1.391-.255.455.313.569.937.256,1.391l-8.052,11.676c-.152.22-.386.37-.649.417-.058.01-.116.015-.174.015Z" fill="#292a2e"></path>
          </g>
        </g>
      </g>
      <g>
        <g>
          <polygon points="1019.636 905.254 1021.6 904.876 990.904 599.845 988.94 600.223 1019.636 905.254" fill="#494949"></polygon>
          <polygon points="905.338 905.254 907.302 904.876 876.607 599.845 874.643 600.223 905.338 905.254" fill="#494949"></polygon>
          <g>
            <polygon points="652.69 905.254 650.726 904.876 681.422 599.845 683.386 600.223 652.69 905.254" fill="#494949"></polygon>
            <polygon points="766.988 905.254 765.024 904.876 795.719 599.845 797.683 600.223 766.988 905.254" fill="#494949"></polygon>
          </g>
          <rect x="731.969" y="531.882" width="135.496" height="2" transform="translate(165.679 1255.036) rotate(-82.395)" fill="#494949"></rect>
          <rect x="937.793" y="531.882" width="135.496" height="2" transform="translate(344.262 1459.049) rotate(-82.395)" fill="#494949"></rect>
          <g>
            <rect x="780.1" y="590.199" width="220.99" height="19.671" rx="9.835" ry="9.835" transform="translate(1781.19 1200.068) rotate(-180)" fill="#292a2e"></rect>
            <rect x="780.1" y="590.199" width="220.99" height="19.671" rx="9.835" ry="9.835" transform="translate(1781.19 1200.068) rotate(-180)" fill="#fff" opacity=".8"></rect>
            <path d="m779.1,600.034c0-5.975,4.861-10.835,10.835-10.835h201.32c5.975,0,10.835,4.86,10.835,10.835,0,5.975-4.86,10.835-10.835,10.835h-201.32c-5.975,0-10.835-4.861-10.835-10.835Zm10.835-8.835c-4.872,0-8.835,3.963-8.835,8.835,0,4.872,3.963,8.835,8.835,8.835h201.32c4.872,0,8.835-3.963,8.835-8.835,0-4.872-3.963-8.835-8.835-8.835h-201.32Z" fill="#292a2e"></path>
          </g>
          <g>
            <rect x="669.605" y="590.199" width="220.99" height="19.671" rx="9.835" ry="9.835" transform="translate(1560.2 1200.068) rotate(-180)" fill="#fff"></rect>
            <path d="m668.604,600.034c0-5.975,4.861-10.835,10.836-10.835h201.319c5.975,0,10.835,4.86,10.835,10.835,0,5.975-4.861,10.835-10.835,10.835h-201.319c-5.975,0-10.836-4.861-10.836-10.835Zm10.836-8.835c-4.872,0-8.836,3.963-8.836,8.835,0,4.872,3.964,8.835,8.836,8.835h201.319c4.872,0,8.835-3.963,8.835-8.835,0-4.872-3.963-8.835-8.835-8.835h-201.319Z" fill="#292a2e"></path>
          </g>
          <g>
            <path d="m818.724,465.73h195.247c6.603,0,12.182-4.899,13.035-11.447l12.915-99.18c1.024-7.867-5.101-14.842-13.035-14.842h-195.247c-6.603,0-12.182,4.899-13.035,11.447l-12.915,99.18c-1.024,7.867,5.101,14.842,13.035,14.842Z" fill="#292a2e"></path>
            <path d="m818.724,465.73h195.247c6.603,0,12.182-4.899,13.035-11.447l12.915-99.18c1.024-7.867-5.101-14.842-13.035-14.842h-195.247c-6.603,0-12.182,4.899-13.035,11.447l-12.915,99.18c-1.024,7.867,5.101,14.842,13.035,14.842Z" fill="#fff" opacity=".8"></path>
            <path d="m808.096,461.919c-2.685-3.058-3.924-7.125-3.398-11.16l12.915-99.18c.915-7.023,6.944-12.319,14.026-12.319h195.247c4.069,0,7.943,1.753,10.628,4.811s3.923,7.125,3.398,11.16l-12.915,99.18c-.915,7.022-6.944,12.318-14.026,12.318h-195.247c-4.069,0-7.943-1.753-10.628-4.811Zm23.543-120.658c-6.081,0-11.258,4.547-12.043,10.577l-12.915,99.18c-.451,3.464.612,6.957,2.918,9.582,2.305,2.625,5.631,4.131,9.125,4.131h195.247c6.081,0,11.258-4.547,12.043-10.576l12.915-99.18c.451-3.464-.612-6.957-2.917-9.582-2.305-2.625-5.631-4.131-9.125-4.131h-195.247Z" fill="#292a2e"></path>
          </g>
          <g>
            <path d="m807.683,465.73h195.247c6.603,0,12.182-4.899,13.035-11.447l12.915-99.18c1.024-7.867-5.101-14.842-13.035-14.842h-195.247c-6.603,0-12.182,4.899-13.035,11.447l-12.915,99.18c-1.024,7.867,5.101,14.842,13.035,14.842Z" fill="#fff"></path>
            <path d="m797.055,461.919c-2.685-3.058-3.924-7.125-3.398-11.16l12.915-99.18c.915-7.023,6.944-12.319,14.026-12.319h195.247c4.069,0,7.943,1.753,10.628,4.811s3.924,7.125,3.398,11.16l-12.915,99.18c-.915,7.022-6.944,12.318-14.026,12.318h-195.247c-4.069,0-7.943-1.753-10.628-4.811Zm23.543-120.658c-6.081,0-11.258,4.547-12.043,10.577l-12.915,99.18c-.451,3.464.612,6.957,2.918,9.582,2.305,2.625,5.631,4.131,9.125,4.131h195.247c6.081,0,11.258-4.547,12.043-10.576l12.915-99.18c.451-3.465-.612-6.958-2.918-9.583-2.305-2.625-5.631-4.131-9.125-4.131h-195.247Z" fill="#292a2e"></path>
          </g>
        </g>
        <g>
          <g>
            <path d="m660.119,852.415s-5.362,27.794-31.385,29.343c-26.023,1.549-20.38,22.28-20.38,22.28h99.444v-49.684s-47.68-1.938-47.68-1.938Z" fill="#0066f9"></path>
            <path d="m749.346,834.867s7.457,27.306-15.209,40.183c-22.667,12.877-8.452,28.988-8.452,28.988l89.232-43.896-21.931-44.582-43.639,19.307Z" fill="#0066f9"></path>
            <g>
              <path d="m804.614,827.154l-75.249-237.39h136.399c27.398,0,38.822-23.235,38.822-50.633,0-27.398-26.935-51.416-54.334-51.416h-184.089c-16.711,0-35.449,10.22-44.621,24.19-9.171,13.969-6.693,35.618-.048,50.951l120.498,292.667" fill="#262626"></path>
              <path d="m804.614,827.154l-75.249-237.39h136.399c27.398,0,38.822-23.235,38.822-50.633,0-27.398-26.935-51.416-54.334-51.416h-184.089c-16.711,0-35.449,10.22-44.621,24.19-9.171,13.969-6.693,35.618-.048,50.951l120.498,292.667" fill="#0a0a0a" opacity=".8"></path>
              <path d="m715.574,872.339l23.802-282.575,165.209-.011c38.711-3.035,56.44-24.25,55.877-51.642-.556-27.045-14.25-53.758-41.174-53.758-.411,0-103.525,0-103.525,0h-119.143c-19.92.409-42.982,19.252-42.982,40.925l-11.57,343.777" fill="#262626"></path>
              <path d="m971.732,484.685s7.337,47.846-4.293,74.447c-14.519,33.21-68.947,30.622-68.947,30.622l3.067-105.4,70.173.331Z" fill="#262626"></path>
            </g>
          </g>
          <g>
            <path d="m979.818,479.277l.211.012s-.153-4.076-.211-.012Z" fill="#333"></path>
            <g>
              <path d="m979.552,479.277l.211.012s-.153-4.076-.211-.012Z" fill="#333"></path>
              <g>
                <path d="m625.367,285.299c.853-1.672,2.59-2.466,4.261-2.256,0-.075.001-.152.047-.219.083-.115.212-.148.342-.139l-2.89-2.072c-1.747-1.252-2.461-3.631-1.431-5.518,1.068-1.957,3.372-2.664,5.282-1.869-.007-.041.02-.08.026-.122l-1.188-.851c-1.643-1.178-2.353-3.369-1.506-5.205,1.14-2.47,4.154-3.184,6.251-1.681l2.741,1.964c.008-.016,0-.035.011-.05.012-.02.04-.02.056-.037-1.268-1.428-1.435-3.588-.275-5.205,1.294-2.082,4.28-1.656,6.052-.386l16.131,11.142-2.883-4.854c-1.156-1.946-.735-4.557,1.148-5.813,2.008-1.34,4.703-.71,5.92,1.339l15.743,26.503c3.84,6.465,1.84,14.811-4.512,18.834h0c-7.249,4.59-16.557,4.323-23.531-.676l-24.36-17.46c-1.607-1.152-2.334-3.607-1.436-5.369Z" fill="#ff9e85"></path>
                <g fill="none" opacity=".25">
                  <path d="m653.27,278.343c-.123.169-.359.21-.532.09l-15.327-10.616c-.175-.121-.219-.361-.097-.537.101-.174.362-.219.537-.097l15.327,10.616c.175.121.219.361.097.537l-.005.007Z" fill="#0c0c0c"></path>
                </g>
                <g fill="none" opacity=".25">
                  <path d="m648.775,285.232c-.123.169-.359.21-.532.09l-17.104-11.847c-.175-.121-.219-.361-.097-.537.112-.159.362-.218.537-.097l17.104,11.847c.175.121.219.361.097.537l-.005.007Z" fill="#0c0c0c"></path>
                </g>
                <g fill="none" opacity=".25">
                  <path d="m643.949,292.721c-.123.169-.359.21-.532.09l-13.644-9.45c-.175-.121-.219-.361-.097-.537.126-.174.362-.218.537-.097l13.644,9.45c.175.121.219.361.097.537l-.005.007Z" fill="#0c0c0c"></path>
                </g>
              </g>
              <path d="m688.496,283.934l46.233,78.739,56.413-73.993,46.849,42.237-80.006,103.616-.524.738c-2.79,3.832-6.479,7.1-10.957,9.455-15.63,8.22-34.964,2.213-43.184-13.417l-65.742-119.055,50.921-28.318Z" fill="#0066f9"></path>
              <path d="m739.261,372.141c.091,0,.181-.021.267-.064.289-.147.404-.501.256-.79l-4.532-8.881c-.147-.289-.502-.403-.79-.256-.289.147-.404.501-.256.79l4.532,8.881c.103.203.31.32.523.32Z" fill="#0c0c0c"></path>
              <rect x="793.927" y="362.238" width="1.174" height="24.909" transform="translate(-19.954 45.619) rotate(-3.248)" fill="#0c0c0c"></rect>
              <g>
                <g>
                  <path d="m944.046,185.196s2.196,34.055,8.63,44.168c18.524,29.115,24.175,52.044,6.164,69.489-18.011,17.446-134.161,19.03-143.419-20.511-7.794-33.289,8.062-37.061,11.611-64.638,1.606-12.478,6.118-38.655,6.118-38.655" fill="#0a0a0a"></path>
                  <path id="sk" d="m844.99,272.022c.201-.026,2.426,36.894,45.316,33.675,29.693-2.224,40.28-33.728,40.96-33.728-3.201-.68-8.592-1.67-10.014-2.429-4.676-2.512-10.461-5.126-11.968-14.206-.869-5.233.605-32.006.151-37.301l-45.579,10.173c.637,11.183,5.094,37.107-10.529,41.696-2.599.759-5.4,1.457-8.339,2.12Z" fill="#ff9e85"></path>
                  <path id="sh" d="m863.219,259.307c.646-2.061,1.03-3.853,1.371-7.074.61-5.761.286-11.057-.298-16.453,9.208-1.226,18.048-5.098,25.191-11.036.846,3.126,6.181,14.664,4.892,17.634-2.436,5.615-14.563,16.929-31.156,16.929Z" fill="#0c0c0c" opacity=".22"></path>
                  <path d="m869.26,247.687c17.988,1.536,37.276-5.937,41.815-29.921l7.974-21.631c4.539-23.985-4.378-45.812-26.961-50.086h0c-22.583-4.274-40.722,3.192-45.261,27.176,0,0-2.802,13.723-3.233,18.365-1.628,17.504-1.628,53.767,25.666,56.097Z" fill="#ff9e85"></path>
                  <path id="e1_eb" d="m847.365,187.175c.083.778,3.011.697,6.908.084,3.897-.613,7.348-1.339,7.203-2.303-.182-1.217-3.505-1.705-7.402-1.092-3.897.613-6.84,2.087-6.71,3.311Z" fill="#0a0a0a"></path>
                  <path d="m937.115,203.677l-25.426,7.015c-15.331-6.204-14.786-43.471-14.786-43.471,0,0-18.623,18.151-63.752,7.827,0,0,9.049-60.937,75.721-42.637,21.498,5.901,36.928,29.565,35.006,58.519-1.347,20.291-6.763,12.747-6.763,12.747Z" fill="#0a0a0a"></path>
                  <path d="m912.168,224.818c6.863,1.299,13.929-1.14,15.856-11.476,1.28-6.866-4.29-12.078-11.153-13.376l-4.407,3.929-6.197,19.806,5.9,1.117Z" fill="#ff9e85"></path>
                  <g>
                    <circle id="e1_eye" cx="851.594" cy="194.468" r="2.5" fill="#0a0a0a"></circle>
                    <g id="e1_n">
                      <path d="m864.736,213.579c.506,0,.939-.382.993-.896.058-.549-.341-1.041-.891-1.099l-5.296-.554,3.26-10.578c.162-.528-.134-1.087-.662-1.25-.527-.162-1.087.133-1.25.661l-3.617,11.741c-.088.286-.043.596.122.846s.433.412.73.443l6.506.68c.035.004.07.005.104.005Z" fill="#0a0a0a"></path>
                    </g>
                    <g id="e1_m">
                      <path d="m870.164,226.48c9.064,0,11.762-5.478,11.883-5.734.235-.5.021-1.095-.478-1.331-.496-.235-1.09-.023-1.328.472-.113.233-2.881,5.613-12.855,4.42-.56-.069-1.047.326-1.112.874-.065.548.326,1.046.874,1.112,1.076.129,2.081.187,3.017.187Z" fill="#0a0a0a"></path>
                    </g>
                    <path id="e1_eb-2" data-name="e1_eb" d="m877.73,186.652c-.24.745,2.47,1.859,6.28,2.88s7.259,1.757,7.518.818c.327-1.186-2.512-2.98-6.322-4.001-3.81-1.021-7.098-.868-7.476.304Z" fill="#0a0a0a"></path>
                    <circle id="e1_eye-2" data-name="e1_eye" cx="878.372" cy="196.394" r="2.5" fill="#0a0a0a"></circle>
                  </g>
                  <path d="m908.107,190.821c.026,2.104-5.279,9.667-4.543,11.638,1.161,3.109,6.002,8.122,8.125,8.233,3.739.196.498-6.403,5.059-10.017.732-.061,1.481-.071,2.236.029,3.036.361,5.653,1.876,7.464,4.054l-.314-9.538" fill="#0a0a0a"></path>
                </g>
                <path d="m793.046,352.06c1.333,15.66,7.817,113.004,9.099,132.293l169.586.361c.998-17.398,12.526-93.473,16.31-127.494,3.612-32.465,10.698-48.719,5.504-58.316-8.488-15.686-31.682-24.751-47.497-26.892-9.658-1.307-24.183-2.245-24.183-2.245,0,0-1.23,24.88-30.556,26.264-39.921,1.883-37.255-26.264-37.453-26.264-6.467,0-43.412,4.094-52.451,9.451-24.63,14.585-11.189,39.654-8.359,72.842Z" fill="#0066f9"></path>
                <path d="m682.968,363l16.347,79.453c.684,3.325,3.597,5.72,6.991,5.749l112.561.958c4.585.039,8.038-4.16,7.114-8.651l-16.347-79.453c-.684-3.325-3.597-5.72-6.991-5.749l-112.561-.958c-4.585-.039-8.038,4.16-7.114,8.651Z" fill="#292a2e"></path>
                <g>
                  <path d="m787.929,419.437c-.2,2.138,1.386,4.041,3.489,4.511l3.465.764c-.118.047-.223.129-.258.27-.012.07.012.153.047.211-1.621.47-2.913,1.879-3.031,3.759-.141,1.962,1.492,3.935,3.418,4.37l29.26,6.496c1.515.341,3.042.505,4.558.505,6.836,0,13.367-3.336,17.349-9.127,4.264-6.19,2.831-14.66-3.242-19.088l-24.891-18.195c-.564-.411-1.21-.67-1.856-.763l2.291,11.124-.611-.141-.129-.024-19.088-3.888c-2.126-.47-5.039.305-5.415,2.725-.423,1.95.576,3.865,2.302,4.687-.012.012-.035.024-.035.047-.012.023.012.035.012.059l-3.301-.728c-2.514-.564-5.004,1.28-5.086,3.994-.059,2.02,1.457,3.759,3.43,4.193l1.421.317c.012.047,0,.094.023.129-2.067.012-3.912,1.574-4.123,3.794Z" fill="#ff9e85"></path>
                  <g fill="none" opacity=".25">
                    <path d="m814.566,411.593c-.047.204-.248.334-.454.292l-18.264-3.745c-.209-.043-.343-.247-.3-.456.025-.199.247-.343.456-.3l18.264,3.745c.209.043.343.247.3.456l-.002.009Z" fill="#0c0c0c"></path>
                  </g>
                  <g fill="none" opacity=".25">
                    <path d="m813.137,419.694c-.047.204-.248.334-.454.292l-20.383-4.18c-.209-.043-.343-.247-.3-.456.04-.191.247-.343.456-.3l20.383,4.18c.209.043.343.247.3.456l-.002.009Z" fill="#0c0c0c"></path>
                  </g>
                  <g fill="none" opacity=".25">
                    <path d="m811.639,428.476c-.047.204-.248.334-.454.292l-16.259-3.334c-.209-.043-.343-.247-.3-.456.047-.21.247-.343.456-.3l16.259,3.334c.209.043.343.247.3.456l-.002.009Z" fill="#0c0c0c"></path>
                  </g>
                </g>
                <path id="b_4_b" d="m826.131,451.394l158.747,28.688c1.167.127,2.332.189,3.492.189,8.827,0,17.329-3.626,23.456-10.119,6.932-7.349,10.021-17.52,8.345-27.481l-22.224-132.097c-2.955-17.564-19.586-29.403-37.154-26.452-17.564,2.955-29.407,19.589-26.452,37.154l15.154,90.935-116.385-14.617-6.979,53.801Z" fill="#0066f9"></path>
                <g id="b_4_b-2" data-name="b_4_b">
                  <path d="m984.879,480.67c.279,0,.525-.198.577-.483.057-.319-.155-.625-.474-.683l-158.197-28.588,6.832-52.666,115.804,14.543c.192.023.368-.041.497-.176s.187-.32.156-.504l-9.633-58.118c-.053-.319-.352-.544-.676-.483-.32.053-.536.356-.483.676l9.505,57.341-115.604-14.518c-.314-.039-.614.186-.656.507l-6.979,53.801c-.04.311.17.598.478.654l158.747,28.688c.036.006.07.009.106.009Z" fill="#0c0c0c"></path>
                </g>
                <rect x="954.013" y="407.859" width="1.176" height="10.341" transform="translate(395.873 1290.344) rotate(-80.905)" fill="#0c0c0c"></rect>
              </g>
            </g>
          </g>
        </g>
      </g>
      <g>
        <path d="m1091.122,904.662H.702c-.388,0-.702-.314-.702-.702s.314-.702.702-.702h1090.419c.388,0,.702.314.702.702s-.314.702-.702.702Z" fill="#292a2e"></path>
        <g fill="none" opacity=".65">
          <path d="m1091.122,904.662H.702c-.388,0-.702-.314-.702-.702s.314-.702.702-.702h1090.419c.388,0,.702.314.702.702s-.314.702-.702.702Z" fill="#292a2e"></path>
        </g>
      </g>
      <g>
        <g>
          <polygon points="67.755 905.254 65.791 904.876 96.487 599.845 98.451 600.223 67.755 905.254" fill="#494949"></polygon>
          <polygon points="182.053 905.254 180.089 904.876 210.784 599.845 212.748 600.223 182.053 905.254" fill="#494949"></polygon>
          <g>
            <polygon points="434.701 905.254 436.665 904.876 405.969 599.845 404.005 600.223 434.701 905.254" fill="#494949"></polygon>
            <polygon points="320.403 905.254 322.367 904.876 291.672 599.845 289.708 600.223 320.403 905.254" fill="#494949"></polygon>
          </g>
          <rect x="286.674" y="465.134" width="2" height="135.496" transform="translate(-67.997 42.762) rotate(-7.605)" fill="#494949"></rect>
          <rect x="80.85" y="465.134" width="2" height="135.496" transform="translate(-69.808 15.521) rotate(-7.605)" fill="#494949"></rect>
          <g>
            <rect x="86.301" y="590.199" width="220.99" height="19.671" rx="9.835" ry="9.835" fill="#292a2e"></rect>
            <rect x="86.301" y="590.199" width="220.99" height="19.671" rx="9.835" ry="9.835" fill="#fff" opacity=".8"></rect>
            <path d="m297.456,610.869H96.136c-5.975,0-10.835-4.861-10.835-10.835s4.86-10.835,10.835-10.835h201.32c5.975,0,10.835,4.86,10.835,10.835s-4.861,10.835-10.835,10.835Zm-201.32-19.67c-4.872,0-8.835,3.963-8.835,8.835s3.963,8.835,8.835,8.835h201.32c4.872,0,8.835-3.963,8.835-8.835s-3.963-8.835-8.835-8.835H96.136Z" fill="#292a2e"></path>
          </g>
          <g>
            <rect x="196.796" y="590.199" width="220.99" height="19.671" rx="9.835" ry="9.835" fill="#fff"></rect>
            <path d="m407.951,610.869h-201.319c-5.975,0-10.835-4.861-10.835-10.835s4.861-10.835,10.835-10.835h201.319c5.975,0,10.836,4.86,10.836,10.835s-4.861,10.835-10.836,10.835Zm-201.319-19.67c-4.872,0-8.835,3.963-8.835,8.835s3.963,8.835,8.835,8.835h201.319c4.872,0,8.836-3.963,8.836-8.835s-3.964-8.835-8.836-8.835h-201.319Z" fill="#292a2e"></path>
          </g>
          <g>
            <path d="m268.667,465.73H73.42c-6.603,0-12.182-4.899-13.035-11.447l-12.915-99.18c-1.024-7.867,5.101-14.842,13.035-14.842h195.247c6.603,0,12.182,4.899,13.035,11.447l12.915,99.18c1.024,7.867-5.101,14.842-13.035,14.842Z" fill="#292a2e"></path>
            <path d="m268.667,465.73H73.42c-6.603,0-12.182-4.899-13.035-11.447l-12.915-99.18c-1.024-7.867,5.101-14.842,13.035-14.842h195.247c6.603,0,12.182,4.899,13.035,11.447l12.915,99.18c1.024,7.867-5.101,14.842-13.035,14.842Z" fill="#fff" opacity=".8"></path>
            <path d="m268.667,466.73H73.42c-7.082,0-13.112-5.296-14.026-12.318l-12.915-99.18c-.525-4.035.713-8.103,3.398-11.16s6.559-4.811,10.628-4.811h195.247c7.082,0,13.112,5.296,14.026,12.319l12.915,99.18c.525,4.035-.713,8.102-3.398,11.16s-6.559,4.811-10.628,4.811Zm-208.162-125.469c-3.494,0-6.82,1.506-9.125,4.131-2.306,2.625-3.369,6.118-2.917,9.582l12.915,99.18c.785,6.029,5.962,10.576,12.043,10.576h195.247c3.494,0,6.82-1.506,9.125-4.131,2.306-2.625,3.369-6.118,2.918-9.582l-12.915-99.18c-.785-6.03-5.962-10.577-12.043-10.577H60.505Z" fill="#292a2e"></path>
          </g>
          <g>
            <path d="m279.707,465.73H84.46c-6.603,0-12.182-4.899-13.035-11.447l-12.915-99.18c-1.024-7.867,5.101-14.842,13.035-14.842h195.247c6.603,0,12.182,4.899,13.035,11.447l12.915,99.18c1.024,7.867-5.101,14.842-13.035,14.842Z" fill="#fff"></path>
            <path d="m279.707,466.73H84.46c-7.082,0-13.112-5.296-14.026-12.318l-12.915-99.18c-.525-4.035.713-8.103,3.398-11.16s6.559-4.811,10.628-4.811h195.247c7.082,0,13.112,5.296,14.026,12.319l12.915,99.18c.525,4.035-.713,8.102-3.398,11.16s-6.559,4.811-10.628,4.811Zm-208.162-125.469c-3.494,0-6.82,1.505-9.125,4.131-2.306,2.625-3.369,6.118-2.918,9.583l12.915,99.18c.785,6.029,5.962,10.576,12.043,10.576h195.247c3.494,0,6.82-1.506,9.125-4.131,2.306-2.625,3.369-6.118,2.918-9.582l-12.915-99.18c-.785-6.03-5.962-10.577-12.043-10.577H71.546Z" fill="#292a2e"></path>
          </g>
        </g>
        <g>
          <g>
            <path id="sk-2" data-name="sk" d="m249.964,269.9c-.196-.026-2.37,36.052-44.283,32.907-29.016-2.174-39.361-32.958-40.026-32.958,3.128-.665,6.994-1.674,8.531-2.02,5.105-1.15,11.477-5.363,12.95-14.235.849-5.114-.591-31.276-.148-36.45l44.539,9.941c-.622,10.928-4.978,36.261,10.288,40.745,2.54.742,5.276,1.423,8.149,2.071Z" fill="#ff9e85"></path>
            <path id="sh-2" data-name="sh" d="m232.151,257.476c-.631-2.014-1.006-3.765-1.34-6.913-.596-5.629-.279-10.805.291-16.078-8.998-1.198-17.636-4.982-24.616-10.785-.827,3.054-5.375,16.4-4.116,19.303,2.38,5.487,13.566,14.472,29.781,14.472Z" fill="#0c0c0c" opacity=".22"></path>
            <g>
              <path d="m258.636,188.596s12.781-9.498,16.095-31.555c2.566-17.079-13.287-6.12-13.287-6.12,0,0,1.728-12.315-7.259-11.159-8.987,1.156-14.117,14.069-14.117,14.069" fill="#0c0c0c"></path>
              <path d="m207.749,140.857s-44.6,4.445-28.942,64.953l3.941.294,8.001.596" fill="#0c0c0c"></path>
              <path d="m223.709,249.65c-17.559-1.707-38.506-12.966-38.631-36.819l-.113-21.523c-.125-23.853,12.302-43.255,34.761-43.373h0c22.459-.118,39.347,19.131,39.472,42.984l.05,9.529c.01,1.961-.177,5.482-.787,9.773-1.216,8.562-3.099,21.58-8.982,30.352-5.555,8.281-14.552,10.168-25.77,9.077Z" fill="#ff9e85"></path>
              <g>
                <g>
                  <circle id="e1_eye-3" data-name="e1_eye" cx="250.395" cy="202.757" r="2.449" transform="translate(13.891 421.557) rotate(-81.772)" fill="#0a0a0a"></circle>
                  <g id="e1_n-2" data-name="e1_n">
                    <path d="m231.592,219.204c-.49-.071-.857-.502-.837-1.008.021-.541.476-.962,1.017-.94l5.212.206-1.677-10.713c-.083-.534.282-1.035.817-1.119.534-.083,1.035.282,1.119.816l1.861,11.89c.045.289-.042.584-.237.803s-.477.339-.77.327l-6.403-.253c-.035-.001-.069-.005-.102-.009Z" fill="#0a0a0a"></path>
                  </g>
                  <g id="e1_m-2" data-name="e1_m">
                    <path d="m228.864,230.018c-8.788-1.271-10.635-6.959-10.717-7.225-.158-.517.133-1.065.65-1.224.514-.159,1.06.13,1.221.644.077.242,2.006,5.845,11.844,6.088.552.011.969.463.956,1.004-.013.541-.463.968-1.003.955-1.061-.026-2.044-.11-2.951-.241Z" fill="#0a0a0a"></path>
                  </g>
                  <path id="e1_eb-3" data-name="e1_eb" d="m227.114,190.344c.128.756-2.655,1.456-6.492,1.912s-7.284.686-7.404-.261c-.151-1.196,2.993-3.507,6.831-3.962,3.837-.456,6.863,1.123,7.065,2.312Z" fill="#0a0a0a"></path>
                  <circle id="e1_eye-4" data-name="e1_eye" cx="225.867" cy="200.787" r="2.449" transform="translate(-5.178 395.594) rotate(-81.772)" fill="#0a0a0a"></circle>
                </g>
                <path id="e1_eb-4" data-name="e1_eb" d="m256.478,195.108c-.189.743-3.017.253-6.709-.887-3.692-1.14-6.936-2.328-6.661-3.243.347-1.155,3.777-2.131,7.47-.99,3.692,1.14,6.199,3.952,5.901,5.12Z" fill="#0a0a0a"></path>
              </g>
              <path d="m186.511,220.09c-6.825.036-12.396-7.237-12.432-14.062-.036-6.825,5.477-10.618,12.303-10.654l3.541,4.555,2.457,20.131-5.868.031Z" fill="#ff9e85"></path>
              <path d="m191.305,208.973c1.137.111,2.152-.713,2.268-1.85.749-7.345,3.903-31.98,12.617-33.687,6.826-1.337,23.282,8.454,38.613,5.649,6.707-1.227,13.053.478,13.676,3.646.247,1.255,4.554-16.715-5.833-30.455-8.269-10.94-35.574-14.215-48.033-10.742-34.499,9.618-19.649,55.316-19.649,55.316l1.243,9.996c.12.965.893,1.718,1.861,1.812l3.237.315Z" fill="#0c0c0c"></path>
              <ellipse cx="238.131" cy="150.411" rx="9.344" ry="13.754" transform="translate(-24.984 49.911) rotate(-11.373)" fill="#0c0c0c"></ellipse>
            </g>
          </g>
          <g>
            <path d="m527.448,852.415s5.362,27.794,31.385,29.343c26.023,1.549,20.38,22.28,20.38,22.28h-99.444v-49.684s47.68-1.938,47.68-1.938Z" fill="#0066f9"></path>
            <path d="m338.261,834.867s-7.457,27.306,15.209,40.183c22.667,12.877,8.452,28.988,8.452,28.988l-89.232-43.896,21.931-44.582,43.639,19.307Z" fill="#0066f9"></path>
            <g>
              <path d="m282.993,827.154l75.249-237.39h-136.399c-27.398,0-38.822-23.235-38.822-50.633s26.935-51.416,54.334-51.416h184.089c16.711,0,35.449,10.22,44.621,24.19,9.171,13.969,6.693,35.618.048,50.951l-120.498,292.667" fill="#262626"></path>
              <path d="m282.993,827.154l75.249-237.39h-136.399c-27.398,0-38.822-23.235-38.822-50.633s26.935-51.416,54.334-51.416h184.089c16.711,0,35.449,10.22,44.621,24.19,9.171,13.969,6.693,35.618.048,50.951l-120.498,292.667" fill="#0a0a0a" opacity=".8"></path>
              <path d="m474.05,878.226l-125.819-288.462-165.209-.011c-38.711-3.035-56.44-24.25-55.877-51.642.556-27.045,14.25-53.758,41.174-53.758h222.669c19.92.409,35.592,22.423,42.982,40.925l104.602,335.288" fill="#262626"></path>
              <path d="m115.875,484.685s-7.337,47.846,4.293,74.447c14.519,33.21,68.947,30.622,68.947,30.622l-3.067-105.4-70.173.331Z" fill="#262626"></path>
            </g>
          </g>
          <path d="m438.703,483.744l-116.701-24.182c-9.883-2.048-18.035-9.001-21.616-18.438l-45.901-120.953c-5.787-15.248,1.883-32.299,17.131-38.085,15.25-5.787,32.299,1.884,38.085,17.131l40.152,105.804,100.834,20.894s-9.961,58.249-11.983,57.83Z" fill="#0066f9"></path>
          <path d="m303.725,350.886c-1.348,15.833-10.903,114.61-12.199,134.112H115.951c-1.009-17.589-4.284-92.266-8.109-126.661-3.652-32.821-4.976-51.551-.77-61.751,7.418-17.989,25.981-24.462,41.971-26.627,9.764-1.322,24.449-2.269,24.449-2.269,0,0,1.243,25.153,30.891,26.553,40.36,1.904,37.664-26.553,37.864-26.553,6.538,0,42.128,4.755,51.027,10.555,12.569,8.192,16.284,19.357,16.431,29.614.169,11.81-4.449,25.071-5.98,43.028Z" fill="#0066f9"></path>
          <path d="m296.822,431.597c-.014,0-.028,0-.042-.002-.275-.022-.479-.264-.457-.54l4.558-54.754c.022-.275.255-.49.54-.457.275.022.479.264.457.54l-4.558,54.754c-.021.261-.24.458-.498.458Z" fill="#0c0c0c"></path>
          <g>
            <path d="m380.446,464.459l38.525-118.423c1.389-4.269,5.368-7.159,9.857-7.159h156.952c7.043,0,12.036,6.874,9.857,13.572l-38.525,118.423c-1.389,4.269-5.368,7.159-9.857,7.159h-156.952c-7.043,0-12.036-6.874-9.857-13.572Z" fill="#292a2e"></path>
            <path d="m380.446,464.459l38.525-118.423c1.389-4.269,5.368-7.159,9.857-7.159h156.952c7.043,0,12.036,6.874,9.857,13.572l-38.525,118.423c-1.389,4.269-5.368,7.159-9.857,7.159h-156.952c-7.043,0-12.036-6.874-9.857-13.572Z" fill="#292a2e"></path>
            <rect x="302.069" y="468.429" width="114.544" height="9.602" rx="4.74" ry="4.74" fill="#292a2e"></rect>
            <rect x="302.069" y="468.429" width="114.544" height="9.602" rx="4.74" ry="4.74" fill="#292a2e"></rect>
            <circle cx="488.041" cy="414.231" r="16.461" fill="#fff"></circle>
          </g>
          <g id="b_4_ha">
            <path d="m371.665,436.718l-26.221-9.191,3.764-.26c2.493-.273,4.522-2.384,4.379-4.888-.152-2.67-2.504-4.635-5.128-4.347l-46.39,4.93,1.205,14.908c.766,9.472,7.202,17.532,16.27,20.374l20.09,6.258c2.137.67,4.549-.161,5.609-2.134,1.024-1.906.599-4.059-.728-5.44.057-.047.11-.101.138-.175.053-.14.023-.287-.058-.401l3.704,1.161c2.393.75,5.099-.37,5.973-2.72.805-2.166-.107-4.506-1.995-5.612.045-.023.079-.054.114-.092l1.522.477c2.137.67,4.549-.161,5.609-2.134,1.241-2.307.361-4.983-1.68-6.204.008-.031.014-.063.014-.094l10.919,3.827c2.277.798,4.769-.401,5.567-2.677.798-2.277-.401-4.769-2.677-5.567Z" fill="#ff9e85"></path>
            <path id="b_4_ha_sh" d="m357.426,441.562c-.049,0-.099-.008-.149-.026l-10.563-3.841c-.226-.082-.342-.331-.26-.557.082-.226.332-.341.557-.26l10.563,3.841c.226.082.342.331.26.557-.064.177-.231.286-.409.286Z" fill="#0a0a0a" opacity=".2"></path>
            <path id="b_4_ha_sh-2" data-name="b_4_ha_sh" d="m352.086,449.242c-.048,0-.097-.008-.145-.025l-8.326-2.954c-.226-.08-.345-.329-.265-.555.08-.227.329-.346.555-.265l8.326,2.954c.226.08.345.329.265.555-.063.178-.231.29-.41.29Z" fill="#0a0a0a" opacity=".2"></path>
            <path id="b_4_ha_sh-3" data-name="b_4_ha_sh" d="m344.247,457.034c-.051,0-.104-.009-.155-.029l-3.899-1.487c-.224-.085-.337-.336-.252-.561.085-.226.336-.339.562-.252l3.899,1.487c.224.085.337.336.252.561-.066.174-.232.28-.407.28Z" fill="#0a0a0a" opacity=".2"></path>
          </g>
          <path d="m322.602,414.14l-109.999-.074-41.615-101.513-62.078,26.098,51.921,120.481.508,1.199c5.051,11.655,16.984,19.484,30.4,18.692l132.528-7.83-1.665-57.053Z" fill="#0066f9"></path>
          <path d="m189.914,479.576c-12.51,0-24.02-7.475-29.035-19.046l-.509-1.203-44.24-102.656.918-.396,44.75,103.861c5.093,11.753,17.114,19.139,29.911,18.387l132.043-7.801-1.636-56.083-109.849-.074-31.998-78.053.925-.379,31.744,77.432,110.149.075,1.693,58.023-.485.028-132.528,7.83c-.619.037-1.239.055-1.854.055Z" fill="#0c0c0c"></path>
        </g>
        <g>
          <rect x="870.08" y="486.654" width="2" height="419.473" transform="translate(-65.576 91.068) rotate(-5.768)" fill="#494949"></rect>
          <g>
            <g>
              <rect x="-162.272" y="695.39" width="419.473" height="2" transform="translate(-650.169 673.58) rotate(-84.228)" fill="#494949"></rect>
              <rect x="12.026" y="695.39" width="419.473" height="2" transform="translate(-493.4 846.994) rotate(-84.228)" fill="#494949"></rect>
            </g>
            <rect x="1044.378" y="486.654" width="2" height="419.473" transform="translate(-64.693 108.584) rotate(-5.768)" fill="#494949"></rect>
          </g>
          <g>
            <rect x="24.115" y="479.522" width="1047.391" height="16.387" rx="8.194" ry="8.194" fill="#292a2e"></rect>
            <rect x="24.115" y="479.522" width="1047.391" height="16.387" rx="8.194" ry="8.194" fill="#fff" opacity=".8"></rect>
            <path d="m1063.313,496.909H32.309c-5.069,0-9.194-4.124-9.194-9.193s4.125-9.194,9.194-9.194h1031.004c5.069,0,9.193,4.125,9.193,9.194s-4.124,9.193-9.193,9.193ZM32.309,480.522c-3.967,0-7.194,3.227-7.194,7.194s3.227,7.193,7.194,7.193h1031.004c3.967,0,7.193-3.227,7.193-7.193s-3.227-7.194-7.193-7.194H32.309Z" fill="#292a2e"></path>
          </g>
          <g>
            <rect x="205.076" y="479.522" width="866.43" height="16.387" rx="8.194" ry="8.194" fill="#fff"></rect>
            <path d="m1063.313,496.909H213.269c-5.069,0-9.193-4.124-9.193-9.193s4.124-9.194,9.193-9.194h850.043c5.069,0,9.193,4.125,9.193,9.194s-4.124,9.193-9.193,9.193Zm-850.043-16.387c-3.966,0-7.193,3.227-7.193,7.194s3.227,7.193,7.193,7.193h850.043c3.967,0,7.193-3.227,7.193-7.193s-3.227-7.194-7.193-7.194H213.269Z" fill="#292a2e"></path>
          </g>
        </g>
      </g>
    </g>
  </g>
</svg>