<svg id="Layer_2" data-name="Layer 2" xmlns="http://www.w3.org/2000/svg" viewBox="0 0 640.95 783.194" style="width: 100%; height: 100%;">
  <g id="Layer_2-2" data-name="Layer 2">
    <g>
      <rect x="30.777" y="22.48" width="582.261" height="737.821" transform="translate(-12.324 10.471) rotate(-1.828)" fill="#292a2e"></rect>
      <rect x="30.777" y="22.48" width="582.261" height="737.821" transform="translate(-12.324 10.471) rotate(-1.828)" fill="#fff" opacity=".58"></rect>
      <g>
        <g>
          <rect x="29.844" y="23.186" width="581.261" height="736.821" transform="translate(-31.11 27.674) rotate(-4.716)" fill="#fff"></rect>
          <path d="m579.375,1.079l60.496,733.33-578.296,47.706L1.079,48.785,579.375,1.079m.914-1.079L0,47.871l60.66,735.323,580.29-47.871L580.29,0h0Z"></path>
        </g>
        <rect x="276.36" y="63.1" width="265.304" height="19.184" transform="translate(-4.592 33.873) rotate(-4.716)" fill="#292a2e"></rect>
        <g>
          <line x1="280.349" y1="126.512" x2="544.756" y2="104.7" fill="#fff"></line>
          <rect x="279.9" y="115.106" width="265.304" height="1" transform="translate(-8.09 34.217) rotate(-4.703)"></rect>
        </g>
        <g>
          <line x1="283.245" y1="161.61" x2="547.651" y2="139.798" fill="#fff"></line>
          <rect x="282.796" y="150.204" width="265.304" height="1" transform="translate(-10.958 34.572) rotate(-4.703)"></rect>
        </g>
        <g>
          <line x1="286.14" y1="196.709" x2="550.546" y2="174.896" fill="#fff"></line>
          <rect x="285.691" y="185.302" width="265.304" height="1" transform="translate(-13.826 34.928) rotate(-4.703)"></rect>
        </g>
        <g>
          <line x1="289.036" y1="231.807" x2="553.442" y2="209.995" fill="#fff"></line>
          <rect x="288.586" y="220.4" width="265.304" height="1" transform="translate(-16.694 35.283) rotate(-4.703)"></rect>
        </g>
        <g>
          <line x1="291.931" y1="266.905" x2="410.68" y2="257.109" fill="#fff"></line>
          <rect x="291.729" y="261.507" width="119.152" height="1" transform="translate(-20.3 29.688) rotate(-4.703)"></rect>
        </g>
        <rect x="68.316" y="320.787" width="494.217" height="19.184" transform="translate(-26.094 27.051) rotate(-4.716)" fill="#292a2e"></rect>
        <g>
          <g>
            <g>
              <line x1="120.938" y1="597.142" x2="321.907" y2="580.563" fill="#fff"></line>
              <rect x="120.596" y="588.353" width="201.652" height="1" transform="translate(-47.538 20.138) rotate(-4.703)"></rect>
            </g>
            <g>
              <line x1="124.345" y1="638.448" x2="325.315" y2="621.869" fill="#fff"></line>
              <rect x="124.004" y="629.658" width="201.652" height="1" transform="translate(-50.913 20.557) rotate(-4.703)"></rect>
            </g>
            <g>
              <line x1="127.753" y1="679.754" x2="328.722" y2="663.175" fill="#fff"></line>
              <rect x="127.411" y="670.964" width="201.652" height="1" transform="translate(-54.288 20.975) rotate(-4.703)"></rect>
            </g>
            <g>
              <line x1="131.16" y1="721.06" x2="332.13" y2="704.481" fill="#fff"></line>
              <rect x="130.819" y="712.27" width="201.652" height="1" transform="translate(-57.664 21.394) rotate(-4.703)"></rect>
            </g>
          </g>
          <circle cx="100.007" cy="596.092" r="10.575" fill="#292a2e"></circle>
          <circle cx="110.457" cy="722.768" r="10.575" fill="#292a2e"></circle>
          <circle cx="107.05" cy="681.462" r="10.575" fill="#292a2e"></circle>
          <circle cx="103.528" cy="638.777" r="10.575" fill="#292a2e"></circle>
        </g>
        <g>
          <g>
            <g>
              <line x1="381.271" y1="575.666" x2="582.24" y2="559.087" fill="#fff"></line>
              <rect x="380.929" y="566.876" width="201.652" height="1" transform="translate(-44.9 41.412) rotate(-4.703)"></rect>
            </g>
            <g>
              <line x1="384.678" y1="616.972" x2="585.648" y2="600.393" fill="#fff"></line>
              <rect x="384.337" y="608.182" width="201.652" height="1" transform="translate(-48.275 41.831) rotate(-4.703)"></rect>
            </g>
            <g>
              <line x1="388.086" y1="658.278" x2="589.055" y2="641.699" fill="#fff"></line>
              <rect x="387.744" y="649.488" width="201.652" height="1" transform="translate(-51.651 42.249) rotate(-4.703)"></rect>
            </g>
            <g>
              <line x1="391.493" y1="699.584" x2="592.463" y2="683.005" fill="#fff"></line>
              <rect x="391.152" y="690.794" width="201.652" height="1" transform="translate(-55.026 42.668) rotate(-4.703)"></rect>
            </g>
          </g>
          <circle cx="360.34" cy="574.615" r="10.575" fill="#292a2e"></circle>
          <circle cx="370.79" cy="701.291" r="10.575" fill="#292a2e"></circle>
          <circle cx="367.383" cy="659.986" r="10.575" fill="#292a2e"></circle>
          <circle cx="363.862" cy="617.301" r="10.575" fill="#292a2e"></circle>
        </g>
        <circle cx="155.428" cy="154.29" r="34.809" fill="#0066f9"></circle>
        <path d="m242.612,240.179c-2.117,3.165-4.424,6.215-6.884,9.117-16.898,19.937-41.412,33.428-69.516,35.746-32.201,2.656-62.147-9.934-82.709-31.737,16.204-25.559,43.783-43.487,76.283-46.168,32.5-2.681,62.654,10.484,82.827,33.042Z" fill="#0066f9"></path>
        <path d="m157.936,82.121c25.286,0,49.518,9.446,68.231,26.598,18.818,17.248,30.338,40.766,32.438,66.223,4.585,55.575-36.899,104.518-92.474,109.102-2.799.231-5.634.348-8.428.348-25.288,0-49.522-9.446-68.235-26.597-18.818-17.247-30.339-40.766-32.439-66.225-4.585-55.575,36.899-104.518,92.474-109.103,2.797-.231,5.633-.348,8.431-.348h.002m-.005-1c-2.814,0-5.656.116-8.51.351h0c-56.214,4.637-98.025,53.967-93.388,110.181h0c4.402,53.36,49.068,93.739,101.671,93.739,2.814,0,5.656-.116,8.51-.351h0c56.214-4.637,98.025-53.967,93.388-110.181h0c-4.402-53.36-49.068-93.742-101.671-93.739h0Z"></path>
        <g>
          <g>
            <line x1="73.097" y1="398.513" x2="565.642" y2="357.881" fill="#fff"></line>
            <rect x="72.261" y="377.697" width="494.218" height="1" transform="translate(-29.935 27.46) rotate(-4.703)"></rect>
          </g>
          <g>
            <line x1="75.993" y1="433.611" x2="568.537" y2="392.979" fill="#fff"></line>
            <rect x="75.156" y="412.795" width="494.217" height=".999" transform="translate(-32.834 27.844) rotate(-4.708)"></rect>
          </g>
          <g>
            <line x1="78.888" y1="468.709" x2="571.432" y2="428.077" fill="#fff"></line>
            <rect x="78.052" y="447.894" width="494.217" height=".999" transform="translate(-35.705 28.2) rotate(-4.708)"></rect>
          </g>
          <g>
            <line x1="81.784" y1="503.808" x2="574.328" y2="463.175" fill="#fff"></line>
            <rect x="80.947" y="482.992" width="494.218" height=".999" transform="translate(-38.576 28.556) rotate(-4.708)"></rect>
          </g>
          <g>
            <line x1="84.679" y1="538.906" x2="203.428" y2="529.11" fill="#fff"></line>
            <rect x="84.477" y="533.508" width="119.152" height="1" transform="translate(-43.301 13.61) rotate(-4.703)"></rect>
          </g>
        </g>
      </g>
      <path d="m66.245,10.23c7.827,1.024,13.306,8.291,12.578,16.151l-5.231,56.496c-.566,6.117-6.054,10.863-12.161,10.195-5.936-.65-10.291-5.962-9.738-11.93l5.379-58.092c.347-3.75,3.429-6.776,7.195-6.781,4.322-.006,7.625,3.702,7.236,7.905l-3.775,40.773c-.095,1.022-1,1.774-2.023,1.68h0c-1.022-.095-1.774-1-1.68-2.023l3.761-40.617c.169-1.829-1.013-3.589-2.816-3.935-2.069-.397-3.987,1.082-4.176,3.13l-5.379,58.091c-.349,3.765,2.135,7.319,5.851,8.018,4.263.803,8.207-2.248,8.598-6.467l5.264-56.856c.56-6.047-3.912-11.655-9.967-12.114-5.886-.446-11.083,3.926-11.629,9.826l-4.516,48.777c-.095,1.022-1,1.774-2.023,1.68h0c-1.022-.095-1.774-1-1.68-2.023l4.516-48.777c.758-8.188,8.188-14.183,16.416-13.107Z" fill="#0066f9"></path>
    </g>
  </g>
</svg>