<svg width="224" height="174" viewBox="0 0 224 174" fill="none" xmlns="http://www.w3.org/2000/svg" style="width: 100%; height: 100%;">
<g clip-path="url(#clip0_35_3261)">
<path d="M81.098 144.071C75.617 131.671 70.135 119.27 64.654 106.87C60.817 98.189 56.545 88.993 48.486 83.979C44.138 81.274 38.083 80.195 34.114 83.43C31.324 85.704 30.302 89.472 29.692 93.019C26.649 110.713 30.166 129.459 40.454 145.159C54.181 145.774 68.791 144.65 81.098 144.071Z" fill="#55D087" stroke="#010101" stroke-width="1.5" stroke-linecap="round" stroke-linejoin="round"></path>
<path d="M40.137 87.6161C44.477 106.454 49.921 125.038 56.431 143.241" stroke="#010101" stroke-width="1.5" stroke-linecap="round" stroke-linejoin="round"></path>
<path d="M48.205 145.435C43.067 135.37 37.916 125.282 31.716 115.835C27.253 109.035 21.863 102.281 14.273 99.356C11.59 98.322 8.479 97.839 5.897 99.104C2.977 100.535 1.448 103.863 0.968 107.079C-0.0740005 114.071 2.768 121.03 6.004 127.316C9.064 133.257 12.534 138.987 17.692 144.923C30.075 145.081 38.838 145.316 48.204 145.436L48.205 145.435Z" fill="#55D087" stroke="#010101" stroke-width="1.5" stroke-linecap="round" stroke-linejoin="round"></path>
<path d="M9.179 101.175C15.697 115.954 23.259 130.273 31.789 143.99L9.179 101.175Z" fill="#55D087"></path>
<path d="M9.179 101.175C15.697 115.954 23.259 130.273 31.789 143.99" stroke="#010101" stroke-width="1.5" stroke-linecap="round" stroke-linejoin="round"></path>
<path d="M151.041 68.41C151.766 56.083 153.418 48.587 153.042 36.244C152.513 18.859 146.009 2.029 125.19 0.814002C117.166 0.346002 108.654 2.459 102.676 7.832C95.626 14.168 93.614 24.277 92.423 33.681C91 44.914 90.18 56.224 91.186 67.098C93.794 67.21 97.152 67.571 100.585 66.959C100.384 55.687 100.479 44.147 102.356 33.031C103.346 27.164 104.834 20.959 109.176 16.892C113.651 12.701 120.227 11.687 126.358 11.707C132.755 11.728 140.89 17.239 143.081 30.396C145.728 46.295 141.728 67.793 142.868 68.599C143.125 68.78 148.821 69.416 151.042 68.411L151.041 68.41Z" fill="#0066f9" stroke="#010101" stroke-width="1.5" stroke-linecap="round" stroke-linejoin="round"></path>
<path d="M65.047 82.382C64.225 99.032 64.023 115.713 64.441 132.378C64.549 136.707 64.832 141.397 67.633 144.7C70.779 148.41 76.1 149.224 80.942 149.69C107.701 152.263 136.752 154.281 163.402 150.757C167.18 150.257 171.149 149.613 174.117 147.223C179.442 142.934 178.73 134.993 179.103 128.166C179.847 114.527 179.857 86.191 178.511 78.376C177.908 74.872 177.051 71.273 174.854 68.477C170.283 62.659 161.764 62.235 154.369 62.468C131.33 63.194 100.774 62.151 79.09 63.523C71.401 64.01 65.317 71.776 65.047 82.382Z" fill="#0066f9" stroke="#010101" stroke-width="1.5" stroke-linecap="round" stroke-linejoin="round"></path>
<path d="M118.688 119.909C115.12 118.718 112.61 115.095 112.411 111.339C112.212 107.583 114.165 103.864 117.168 101.6C120.171 99.336 124.108 98.472 127.845 98.899C129.582 99.097 131.313 99.571 132.796 100.497C134.219 101.385 135.375 102.67 136.212 104.124C137.886 107.031 138.258 110.698 137.021 113.816C135.971 116.462 133.738 118.631 131.011 119.647C130.116 119.98 129.548 120.868 129.582 121.822C129.739 126.228 129.398 134.258 129.272 136.977C129.248 137.494 128.817 137.897 128.299 137.887L121.653 137.759C121.148 137.749 120.738 137.349 120.717 136.844L120.116 122.73C120.074 121.74 120.102 120.383 118.689 119.911L118.688 119.909Z" fill="white" stroke="#010101" stroke-width="1.5" stroke-linecap="round" stroke-linejoin="round"></path>
<path d="M3.894 68.333L24.589 67.558" stroke="#010101" stroke-width="1.5" stroke-linecap="round" stroke-linejoin="round"></path>
<path d="M19.199 20.04C22.337 23.628 25.476 27.216 28.614 30.804" stroke="#010101" stroke-width="1.5" stroke-linecap="round" stroke-linejoin="round"></path>
<path d="M63.379 5.96594C63.275 11.0759 63.17 16.1849 63.066 21.2949" stroke="#010101" stroke-width="1.5" stroke-linecap="round" stroke-linejoin="round"></path>
<path d="M220.897 107.48C218.303 101.426 212.747 96.6419 206.295 95.3209C196.96 93.4089 180.553 97.7809 188.488 119.646C174.178 135.148 158.029 146.747 146.009 159.768C149.204 164.024 152.942 168.638 155.761 172.393C156.98 171.506 159.186 169.778 160.406 168.891C158.553 166.249 156.701 163.607 154.848 160.965C156.576 159.431 158.304 157.898 160.032 156.365C161.717 158.062 163.178 159.981 164.365 162.056C165.062 161.202 167.944 159.217 168.958 158.785C167.695 156.823 166.055 155.068 164.974 152.652C175.878 143.089 185.339 134.523 194.702 128.137C197.109 130.514 199.765 132.718 202.869 134.063C205.974 135.407 209.592 135.82 212.75 134.607C216.27 133.255 218.806 130.073 220.398 126.655C223.18 120.686 223.491 113.533 220.897 107.48ZM213.513 121.984C212.311 124.37 209.84 126.257 207.17 126.136C205.895 126.078 204.678 125.583 203.563 124.962C199.31 122.595 196.23 118.225 195.432 113.423C195.095 111.398 194.854 108.536 196.491 106.597C199.999 102.441 208.335 102.719 212.902 108.748C214.757 111.197 215.571 117.899 213.513 121.984Z" fill="#42d242" stroke="#010101" stroke-width="1.5" stroke-linecap="round" stroke-linejoin="round"></path>
</g>
<defs>
<clipPath id="clip0_35_3261">
<rect width="223.425" height="173.143" fill="white"></rect>
</clipPath>
</defs>
</svg>