<svg id="Layer_2" data-name="Layer 2" xmlns="http://www.w3.org/2000/svg" viewBox="0 0 1041.599 694.852" style="width: 100%; height: 100%;">
  <g id="Layer_2-2" data-name="Layer 2">
    <g>
      <g>
        <g>
          <path d="m849.298,567.088l-1.957-.413c.409-1.937.787-3.907,1.125-5.858l1.971.341c-.341,1.975-.725,3.97-1.138,5.93Z" fill="#292a2e"></path>
          <path d="m693.145,694.852l-.016-2c3.969-.032,7.988-.216,11.944-.548l.167,1.993c-4.007.336-8.076.522-12.096.555Zm-12.106-.359c-4.006-.27-8.058-.695-12.043-1.264l.282-1.979c3.937.562,7.939.981,11.896,1.248l-.135,1.995Zm36.217-1.663l-.317-1.975c3.917-.63,7.862-1.418,11.724-2.343l.466,1.945c-3.911.937-7.905,1.735-11.872,2.373Zm-60.176-1.751c-3.936-.862-7.88-1.881-11.724-3.029l.572-1.916c3.796,1.134,7.691,2.14,11.579,2.991l-.428,1.954Zm83.708-3.884l-.611-1.904c3.773-1.21,7.554-2.583,11.24-4.08l.753,1.853c-3.732,1.516-7.562,2.906-11.381,4.131Zm-106.9-3.046c-3.759-1.439-7.507-3.039-11.142-4.756l.854-1.809c3.589,1.695,7.291,3.275,11.002,4.696l-.715,1.868Zm129.321-6.059l-.89-1.791c3.554-1.765,7.088-3.688,10.505-5.716l1.021,1.72c-3.459,2.054-7.038,4-10.636,5.787Zm-151.212-4.282c-3.493-1.987-6.957-4.134-10.295-6.382l1.117-1.659c3.297,2.22,6.717,4.341,10.167,6.303l-.988,1.738Zm172.023-8.071l-1.146-1.639c3.255-2.276,6.464-4.705,9.538-7.217l1.266,1.549c-3.112,2.543-6.361,5.002-9.657,7.307Zm-192.103-5.453c-3.154-2.49-6.255-5.133-9.217-7.857l1.354-1.473c2.926,2.69,5.988,5.301,9.103,7.76l-1.239,1.569Zm210.843-9.862l-1.378-1.45c2.878-2.735,5.689-5.614,8.355-8.559l1.482,1.343c-2.699,2.98-5.545,5.896-8.459,8.666Zm-228.661-6.521c-2.749-2.937-5.419-6.014-7.938-9.145l1.559-1.254c2.488,3.093,5.125,6.132,7.84,9.033l-1.46,1.366Zm244.906-11.421l-1.579-1.228c2.437-3.136,4.785-6.405,6.978-9.714l1.667,1.104c-2.22,3.352-4.597,6.661-7.065,9.837Zm-260.078-7.436c-2.279-3.312-4.462-6.751-6.487-10.224l1.728-1.008c2,3.43,4.156,6.827,6.407,10.098l-1.647,1.134Zm273.446-12.745l-1.746-.976c1.936-3.466,3.764-7.051,5.434-10.656l1.814.84c-1.69,3.651-3.541,7.282-5.502,10.792Zm-285.64-8.16c-1.762-3.618-3.407-7.345-4.89-11.078l1.858-.738c1.464,3.687,3.089,7.368,4.829,10.94l-1.798.876Zm295.81-13.804l-1.873-.701c1.388-3.711,2.655-7.529,3.764-11.349l1.921.558c-1.124,3.868-2.406,7.734-3.812,11.493Z" fill="#292a2e"></path>
          <path d="m537.775,581.562c-.596-1.912-1.165-3.862-1.689-5.796l1.931-.523c.518,1.911,1.079,3.836,1.667,5.724l-1.909.596Z" fill="#292a2e"></path>
        </g>
        <g>
          <path d="m77.989,406.527c-1.936-.573-3.873-1.211-5.758-1.896l.683-1.88c1.848.671,3.746,1.296,5.643,1.857l-.567,1.918Z" fill="#292a2e"></path>
          <path d="m61.099,399.8c-3.597-1.833-7.113-3.907-10.45-6.166l1.121-1.656c3.269,2.213,6.712,4.245,10.237,6.04l-.908,1.782Zm-20.056-13.575c-3.03-2.651-5.929-5.523-8.618-8.536l1.492-1.332c2.634,2.952,5.475,5.766,8.443,8.363l-1.317,1.505Zm-16.123-18.065c-2.296-3.314-4.411-6.804-6.284-10.373l1.771-.93c1.836,3.497,3.907,6.916,6.157,10.164l-1.644,1.139Zm-11.256-21.434c-1.427-3.777-2.632-7.675-3.582-11.586l1.943-.472c.93,3.831,2.111,7.65,3.509,11.351l-1.871.707Zm-5.713-23.521c-.43-3.714-.647-7.496-.648-11.239l.004-.873,2,.017-.004.856c0,3.667.214,7.371.634,11.009l-1.986.229Zm2.197-23.946l-1.982-.265c.532-3.985,1.318-7.989,2.338-11.9l1.936.504c-.999,3.833-1.77,7.756-2.291,11.661Zm5.979-22.958l-1.86-.735c1.486-3.76,3.216-7.456,5.143-10.986l1.756.958c-1.888,3.458-3.583,7.08-5.038,10.764Zm11.364-20.823l-1.624-1.168c2.353-3.272,4.936-6.432,7.677-9.391l1.467,1.359c-2.685,2.898-5.215,5.994-7.52,9.199Zm16.117-17.402l-1.289-1.529c3.08-2.596,6.354-5.03,9.734-7.234l1.093,1.675c-3.312,2.16-6.52,4.545-9.538,7.089Zm19.869-12.96l-.88-1.796c3.623-1.775,7.39-3.343,11.196-4.661l.654,1.89c-3.729,1.291-7.42,2.828-10.971,4.567Z" fill="#292a2e"></path>
          <path d="m85.933,217.35l-.417-1.956c1.967-.419,3.974-.782,5.965-1.08l.295,1.979c-1.95.291-3.916.646-5.843,1.057Z" fill="#292a2e"></path>
        </g>
        <g id="b_1_idea">
          <path id="b_1_idea-2" data-name="b_1_idea" d="m178.455,437.215c.042-35.999-29.533-65.116-65.727-64.302-34.773.782-62.861,29.635-62.761,64.417.054,18.885,8.262,35.851,21.289,47.569,14.383,12.937,22.921,31.133,22.899,50.477v.07s39.884.046,39.884.046v-.069c.022-19.322,8.558-37.508,22.967-50.382,13.144-11.743,21.427-28.813,21.449-47.827Z" fill="#0066f9"></path>
          <path id="b_1_idea-3" data-name="b_1_idea" d="m178.455,437.215c.042-35.999-29.533-65.116-65.727-64.302-34.773.782-62.861,29.635-62.761,64.417.054,18.885,8.262,35.851,21.289,47.569,14.383,12.937,22.921,31.133,22.899,50.477v.07s39.884.046,39.884.046v-.069c.022-19.322,8.558-37.508,22.967-50.382,13.144-11.743,21.427-28.813,21.449-47.827Z" fill="#fff" opacity=".8"></path>
          <g id="b_1_idea-4" data-name="b_1_idea">
            <path d="m106.205,535.634l-15.632-89.352c-.284-1.625.69-3.21,2.266-3.687,2.468-.747,6.1-1.218,9.385.779.5.304.973.655,1.418,1.052,1.356-1.246,3.082-2.215,5.13-2.848,5.81-1.795,9.413.494,11.411,2.731.427.478.815.993,1.167,1.534,2.727-3.005,5.855-4.557,8.721-4.232,1.718.194,2.961.773,3.695,1.722.783,1.012.661,2.053.644,2.168l-12.763,90.117-1.98-.28,12.763-90.118c.008-.111.027-1.326-2.583-1.621-2.376-.271-5.079,1.244-7.474,4.111,1.796,3.915,1.987,8.583.782,11.332-.685,1.563-1.812,2.436-3.172,2.458-1.505.026-2.684-.607-3.319-1.778-1.51-2.785.375-7.869,2.765-11.414.189-.28.381-.553.576-.817-.381-.67-.818-1.294-1.313-1.849-2.338-2.618-5.477-3.343-9.328-2.152-1.912.591-3.326,1.437-4.367,2.395,1.538,1.983,2.633,4.695,3.27,8.108.759,4.065-.469,5.776-1.269,6.435-.838.69-1.937.865-2.938.466-2.3-.914-4.045-4.839-3.892-8.75.093-2.383.832-4.494,2.133-6.233-.352-.313-.724-.588-1.115-.826-2.653-1.613-5.688-1.202-7.767-.574-.609.185-.985.798-.875,1.428l15.632,89.352-1.97.345Zm14.766-86.035c-2.324,3.522-3.443,7.521-2.549,9.169.174.322.542.767,1.528.731.548-.009,1.01-.433,1.373-1.261.891-2.034.778-5.527-.352-8.639Zm-17.31-2.16c-1.135,1.7-1.446,3.503-1.496,4.782-.138,3.519,1.44,6.34,2.632,6.813.188.074.557.153.929-.152.289-.238,1.183-1.266.574-4.523-.543-2.907-1.426-5.221-2.639-6.92Z" fill="#fff"></path>
          </g>
          <path id="b_1_idea-5" data-name="b_1_idea" d="m94.141,535.47h39.885v2.331c0,11.006-8.936,19.942-19.942,19.942h0c-11.006,0-19.942-8.936-19.942-19.942v-2.331h0Z" transform="translate(.632 -.131) rotate(.066)" fill="#0066f9"></path>
          <path id="b_1_idea-6" data-name="b_1_idea" d="m94.141,535.47h39.885v2.331c0,11.006-8.936,19.942-19.942,19.942h0c-11.006,0-19.942-8.936-19.942-19.942v-2.331h0Z" transform="translate(.632 -.131) rotate(.066)" fill="#fff" opacity=".5"></path>
        </g>
        <g>
          <path d="m111.9,60.238l-1.788-.896c.903-1.804,1.874-3.599,2.884-5.335l1.729,1.006c-.989,1.7-1.939,3.458-2.824,5.225Z" fill="#292a2e"></path>
          <path d="m286.012,87.032c-.6-3.726-1.435-7.452-2.483-11.076l1.921-.556c1.071,3.702,1.924,7.508,2.537,11.314l-1.975.317Zm-6.296-21.768c-1.484-3.474-3.196-6.888-5.087-10.147l1.729-1.004c1.933,3.33,3.681,6.817,5.197,10.366l-1.839.785Zm-11.376-19.596c-2.28-3.007-4.771-5.901-7.403-8.604l1.433-1.396c2.689,2.761,5.234,5.718,7.564,8.79l-1.594,1.209Zm-147.312-.101l-1.592-1.21c2.333-3.07,4.882-6.025,7.574-8.783l1.431,1.397c-2.634,2.698-5.128,5.59-7.413,8.595Zm131.5-16.127c-2.939-2.353-6.063-4.55-9.284-6.533l1.049-1.703c3.29,2.025,6.481,4.271,9.485,6.674l-1.25,1.562Zm-115.67-.084l-1.248-1.563c3.01-2.404,6.204-4.646,9.491-6.664l1.047,1.704c-3.218,1.976-6.343,4.17-9.29,6.523Zm96.377-11.803c-3.436-1.58-6.996-2.961-10.582-4.105l.607-1.905c3.663,1.168,7.3,2.579,10.81,4.193l-.836,1.817Zm-77.069-.056l-.83-1.819c3.505-1.6,7.146-3.001,10.822-4.163l.603,1.907c-3.598,1.137-7.163,2.509-10.595,4.075Zm55.483-6.825c-3.708-.695-7.498-1.165-11.263-1.397l.123-1.996c3.847.237,7.719.718,11.508,1.428l-.368,1.966Zm-33.877-.006l-.366-1.966c3.792-.707,7.664-1.185,11.507-1.421l.123,1.996c-3.762.232-7.552.7-11.264,1.391Z" fill="#292a2e"></path>
          <path d="m289.15,104.36l-1.999-.056c.055-1.966.047-3.963-.025-5.936l1.999-.072c.073,2.015.081,4.055.025,6.063Z" fill="#292a2e"></path>
        </g>
        <g>
          <circle cx="82.055" cy="139.294" r="82.055" fill="#0066f9"></circle>
          <circle cx="82.055" cy="139.294" r="82.055" fill="#fff" opacity=".8"></circle>
          <g>
            <path d="m99.748,140.403c-1.197,2.597-2.771,5.069-4.732,7.338-5.458,6.319-13.05,10.134-21.378,10.743-8.328.609-16.394-2.062-22.712-7.521-6.319-5.458-10.134-13.05-10.743-21.378-.609-8.328,2.063-16.393,7.521-22.713,5.458-6.319,13.05-10.134,21.378-10.743,8.327-.608,16.394,2.062,22.713,7.52h0c10.774,9.307,13.636,24.424,7.954,36.753Zm-50.436-23.217c-1.694,3.676-2.44,7.74-2.137,11.889.472,6.46,3.432,12.349,8.333,16.583,4.901,4.234,11.158,6.305,17.618,5.834,6.46-.472,12.349-3.431,16.583-8.333,8.739-10.119,7.619-25.46-2.5-34.201-4.901-4.234-11.158-6.305-17.618-5.834-6.46.472-12.349,3.431-16.583,8.333-1.515,1.754-2.753,3.682-3.697,5.729Z" fill="#fff"></path>
            <path d="m123.692,180.506c-.181.392-.437.758-.77,1.073-1.404,1.334-3.623,1.277-4.957-.127l-29.663-31.229c-1.334-1.404-1.278-3.625.127-4.957,1.404-1.334,3.623-1.277,4.957.127l29.664,31.229c1.018,1.072,1.225,2.618.642,3.883Z" fill="#fff"></path>
          </g>
        </g>
        <g>
          <path d="m570.615,141.037l-1.904-.612c.612-1.901,1.261-3.823,1.93-5.713l1.886.668c-.663,1.872-1.306,3.775-1.912,5.657Z" fill="#292a2e"></path>
          <path d="m957.18,160.053c-.831-3.822-1.785-7.669-2.837-11.432l1.926-.539c1.063,3.801,2.027,7.686,2.866,11.546l-1.954.425Zm-6.341-22.679c-1.271-3.697-2.67-7.406-4.156-11.023l1.85-.76c1.501,3.653,2.913,7.399,4.198,11.133l-1.892.65Zm-374.054-12.986l-1.843-.776c1.532-3.638,3.194-7.28,4.938-10.823l1.795.883c-1.727,3.509-3.372,7.115-4.89,10.717Zm365.104-8.799c-1.696-3.526-3.518-7.047-5.415-10.464l1.749-.971c1.916,3.451,3.755,7.006,5.468,10.567l-1.803.867Zm-354.703-12.327l-1.739-.987c1.951-3.436,4.03-6.857,6.179-10.167l1.678,1.089c-2.127,3.278-4.186,6.665-6.117,10.066Zm343.271-8.267c-2.095-3.304-4.315-6.588-6.599-9.761l1.623-1.168c2.307,3.205,4.549,6.521,6.665,9.858l-1.689,1.071Zm-330.443-11.495l-1.61-1.187c2.345-3.182,4.815-6.335,7.344-9.372l1.537,1.279c-2.503,3.007-4.95,6.128-7.271,9.279Zm316.685-7.625c-2.465-3.034-5.055-6.035-7.697-8.921l1.476-1.351c2.668,2.915,5.284,5.947,7.773,9.01l-1.552,1.262Zm-301.607-10.485l-1.459-1.368c2.703-2.881,5.528-5.72,8.397-8.438l1.375,1.452c-2.84,2.69-5.638,5.501-8.313,8.354Zm285.702-6.889c-2.81-2.727-5.735-5.403-8.695-7.955l1.306-1.515c2.989,2.577,5.944,5.28,8.782,8.034l-1.393,1.436Zm-268.597-9.313l-1.287-1.53c3.02-2.54,6.158-5.027,9.328-7.391l1.195,1.604c-3.139,2.341-6.246,4.803-9.236,7.318Zm250.751-6.067c-3.108-2.374-6.33-4.686-9.575-6.872l1.117-1.659c3.278,2.208,6.532,4.543,9.671,6.941l-1.214,1.59Zm-231.866-8.014l-1.1-1.671c3.299-2.171,6.706-4.273,10.127-6.248l1,1.732c-3.388,1.956-6.762,4.037-10.028,6.187Zm212.323-5.152c-3.361-1.986-6.832-3.9-10.314-5.688l.914-1.779c3.518,1.807,7.022,3.74,10.418,5.746l-1.018,1.722Zm-191.925-6.625l-.897-1.787c3.53-1.771,7.159-3.461,10.786-5.023l.791,1.837c-3.591,1.546-7.185,3.22-10.68,4.974Zm170.979-4.134c-3.575-1.578-7.246-3.072-10.912-4.44l.699-1.874c3.702,1.382,7.41,2.891,11.02,4.484l-.808,1.83Zm-149.349-5.182l-.683-1.88c3.713-1.348,7.513-2.602,11.296-3.729l.571,1.917c-3.746,1.116-7.509,2.358-11.185,3.692Zm127.286-3.059c-3.747-1.157-7.567-2.216-11.354-3.148l.479-1.942c3.824.942,7.682,2.012,11.466,3.18l-.59,1.911Zm-104.719-3.663l-.458-1.947c3.848-.904,7.769-1.705,11.654-2.379l.342,1.971c-3.846.667-7.728,1.46-11.538,2.355Zm81.847-1.967c-3.851-.712-7.768-1.318-11.644-1.801l.247-1.984c3.915.488,7.871,1.1,11.76,1.818l-.363,1.967Zm-58.655-2.061l-.226-1.987c3.923-.445,7.91-.778,11.849-.99l.107,1.997c-3.9.21-7.847.54-11.731.98Zm35.282-.85c-3.899-.253-7.86-.393-11.773-.414l.011-2c3.953.021,7.954.162,11.893.418l-.13,1.996Z" fill="#292a2e"></path>
          <path d="m960.179,177.605c-.247-1.968-.526-3.957-.831-5.912l1.977-.308c.308,1.975.59,3.983.839,5.971l-1.984.249Z" fill="#292a2e"></path>
        </g>
        <g>
          <path d="m995.336,245.465c-1.449-1.345-2.947-2.677-4.453-3.961l1.298-1.522c1.527,1.302,3.046,2.653,4.515,4.017l-1.36,1.466Z" fill="#292a2e"></path>
          <path d="m904.584,487.677l-.053-1.999c3.891-.103,7.825-.373,11.691-.801l.221,1.988c-3.922.435-7.912.708-11.859.812Zm-11.886-.185c-3.945-.228-7.925-.626-11.829-1.185l.283-1.979c3.848.55,7.771.943,11.661,1.167l-.115,1.997Zm35.495-2.433l-.387-1.962c3.822-.753,7.655-1.677,11.393-2.747l.551,1.923c-3.792,1.085-7.681,2.023-11.557,2.786Zm22.839-6.537l-.711-1.869c3.642-1.385,7.266-2.941,10.77-4.626l.866,1.803c-3.555,1.709-7.23,3.288-10.925,4.692Zm21.414-10.296l-1.017-1.723c3.354-1.98,6.663-4.128,9.832-6.384l1.16,1.63c-3.215,2.288-6.571,4.467-9.975,6.477Zm19.364-13.779l-1.294-1.525c2.964-2.515,5.862-5.192,8.613-7.957l1.418,1.41c-2.791,2.805-5.73,5.521-8.737,8.072Zm16.761-16.841l-1.53-1.288c2.512-2.984,4.922-6.104,7.166-9.273l1.633,1.155c-2.275,3.214-4.721,6.379-7.268,9.406Zm13.718-19.387l-1.724-1.014c1.971-3.352,3.823-6.831,5.504-10.342l1.804.863c-1.706,3.562-3.584,7.092-5.584,10.492Zm10.256-21.422l-1.871-.707c1.375-3.64,2.611-7.384,3.673-11.127l1.924.546c-1.077,3.797-2.33,7.595-3.726,11.288Zm6.48-22.852l-1.964-.381c.74-3.817,1.326-7.716,1.742-11.588l1.988.214c-.422,3.928-1.016,7.883-1.767,11.755Zm2.538-23.618l-2-.045c.023-1.058.036-2.116.036-3.173,0-2.839-.088-5.713-.262-8.544l1.996-.122c.176,2.871.266,5.787.266,8.666,0,1.072-.012,2.146-.036,3.218Zm-3.433-23.418c-.564-3.854-1.298-7.728-2.183-11.515l1.947-.455c.897,3.841,1.642,7.771,2.214,11.68l-1.979.29Zm-5.327-22.805c-1.201-3.702-2.576-7.397-4.085-10.984l1.844-.776c1.531,3.639,2.926,7.388,4.144,11.143l-1.902.617Zm-9.086-21.583c-1.81-3.447-3.79-6.857-5.885-10.135l1.686-1.077c2.125,3.326,4.134,6.786,5.97,10.283l-1.771.93Zm-12.611-19.734c-2.363-3.085-4.893-6.111-7.517-8.993l1.479-1.347c2.663,2.924,5.229,5.994,7.626,9.124l-1.588,1.216Z" fill="#292a2e"></path>
          <path d="m869.149,484.121c-1.953-.451-3.924-.951-5.857-1.486l.533-1.928c1.906.527,3.849,1.02,5.774,1.464l-.45,1.949Z" fill="#292a2e"></path>
        </g>
        <g>
          <circle cx="970.451" cy="189.954" r="70.148" fill="#fff"></circle>
          <circle cx="970.451" cy="189.954" r="70.148" fill="#0066f9" opacity=".2"></circle>
          <circle cx="970.451" cy="189.954" r="53.643" fill="#fff"></circle>
          <circle cx="970.451" cy="189.954" r="37.137" fill="#0066f9" opacity=".2"></circle>
          <circle cx="970.451" cy="189.954" r="20.632" fill="#fff"></circle>
          <circle cx="970.451" cy="189.954" r="6.522" fill="#0066f9" opacity=".2"></circle>
        </g>
        <path d="m1000.178,519.941h-14.83c-2.41,0-4.58-1.52-5.37-3.8-1.14-3.28-2.49-6.46-4.02-9.53-1.1-2.19-.65-4.83,1.08-6.56l10.54-10.54c2.23-2.23,2.23-5.85,0-8.08l-22.77-22.76c-2.23-2.23-5.84-2.23-8.08,0l-10.73,10.73c-1.71,1.71-4.33,2.17-6.51,1.1-3.01-1.47-6.13-2.76-9.34-3.85-2.31-.78-3.85-2.96-3.85-5.39v-15.2c0-3.15-2.55-5.71-5.71-5.71h-32.19c-3.16,0-5.71,2.56-5.71,5.71v15.2c0,2.43-1.54,4.61-3.85,5.39-3.21,1.09-6.33,2.38-9.34,3.85-2.18,1.07-4.8.61-6.51-1.1l-10.73-10.73c-2.23-2.23-5.85-2.23-8.08,0l-22.77,22.76c-2.23,2.23-2.23,5.85,0,8.08l10.54,10.54c1.73,1.73,2.18,4.37,1.08,6.56-1.53,3.07-2.88,6.25-4.01,9.53-.8,2.28-2.97,3.8-5.38,3.8h-14.83c-3.16,0-5.71,2.56-5.71,5.71v32.2c0,3.15,2.55,5.71,5.71,5.71h14.44c2.47,0,4.65,1.58,5.42,3.92,1.12,3.37,2.46,6.64,3.99,9.79,1.07,2.2.64,4.83-1.08,6.55l-10.17,10.17c-2.23,2.23-2.23,5.84,0,8.07l22.77,22.77c2.23,2.23,5.85,2.23,8.08,0l9.97-9.97c1.74-1.74,4.4-2.16,6.6-1.06,3.21,1.6,6.54,3,9.97,4.16,2.32.79,3.89,2.96,3.89,5.41v14.06c0,3.16,2.55,5.72,5.71,5.72h32.19c3.16,0,5.71-2.56,5.71-5.72v-14.06c0-2.45,1.57-4.62,3.89-5.41,3.43-1.16,6.76-2.56,9.97-4.16,2.2-1.1,4.86-.68,6.6,1.06l9.97,9.97c2.24,2.23,5.85,2.23,8.08,0l22.77-22.77c2.23-2.23,2.23-5.84,0-8.07l-10.17-10.17c-1.72-1.72-2.15-4.35-1.08-6.55,1.53-3.15,2.87-6.42,3.99-9.79.77-2.34,2.95-3.92,5.42-3.92h14.44c3.16,0,5.71-2.56,5.71-5.71v-32.2c0-3.15-2.55-5.71-5.71-5.71Zm-95.68,69.39c-26.28,0-47.59-21.3-47.59-47.58s21.31-47.59,47.59-47.59,47.58,21.31,47.58,47.59-21.3,47.58-47.58,47.58Z" fill="#0066f9"></path>
        <path d="m1000.178,519.941h-14.83c-2.41,0-4.58-1.52-5.37-3.8-1.14-3.28-2.49-6.46-4.02-9.53-1.1-2.19-.65-4.83,1.08-6.56l10.54-10.54c2.23-2.23,2.23-5.85,0-8.08l-22.77-22.76c-2.23-2.23-5.84-2.23-8.08,0l-10.73,10.73c-1.71,1.71-4.33,2.17-6.51,1.1-3.01-1.47-6.13-2.76-9.34-3.85-2.31-.78-3.85-2.96-3.85-5.39v-15.2c0-3.15-2.55-5.71-5.71-5.71h-32.19c-3.16,0-5.71,2.56-5.71,5.71v15.2c0,2.43-1.54,4.61-3.85,5.39-3.21,1.09-6.33,2.38-9.34,3.85-2.18,1.07-4.8.61-6.51-1.1l-10.73-10.73c-2.23-2.23-5.85-2.23-8.08,0l-22.77,22.76c-2.23,2.23-2.23,5.85,0,8.08l10.54,10.54c1.73,1.73,2.18,4.37,1.08,6.56-1.53,3.07-2.88,6.25-4.01,9.53-.8,2.28-2.97,3.8-5.38,3.8h-14.83c-3.16,0-5.71,2.56-5.71,5.71v32.2c0,3.15,2.55,5.71,5.71,5.71h14.44c2.47,0,4.65,1.58,5.42,3.92,1.12,3.37,2.46,6.64,3.99,9.79,1.07,2.2.64,4.83-1.08,6.55l-10.17,10.17c-2.23,2.23-2.23,5.84,0,8.07l22.77,22.77c2.23,2.23,5.85,2.23,8.08,0l9.97-9.97c1.74-1.74,4.4-2.16,6.6-1.06,3.21,1.6,6.54,3,9.97,4.16,2.32.79,3.89,2.96,3.89,5.41v14.06c0,3.16,2.55,5.72,5.71,5.72h32.19c3.16,0,5.71-2.56,5.71-5.72v-14.06c0-2.45,1.57-4.62,3.89-5.41,3.43-1.16,6.76-2.56,9.97-4.16,2.2-1.1,4.86-.68,6.6,1.06l9.97,9.97c2.24,2.23,5.85,2.23,8.08,0l22.77-22.77c2.23-2.23,2.23-5.84,0-8.07l-10.17-10.17c-1.72-1.72-2.15-4.35-1.08-6.55,1.53-3.15,2.87-6.42,3.99-9.79.77-2.34,2.95-3.92,5.42-3.92h14.44c3.16,0,5.71-2.56,5.71-5.71v-32.2c0-3.15-2.55-5.71-5.71-5.71Zm-95.68,69.39c-26.28,0-47.59-21.3-47.59-47.58s21.31-47.59,47.59-47.59,47.58,21.31,47.58,47.59-21.3,47.58-47.58,47.58Z" fill="#fff" opacity=".8"></path>
      </g>
      <g>
        <rect x="155.526" y="58.239" width="734.688" height="553.975" rx="30" ry="30" fill="#fff"></rect>
        <path d="m860.215,613.214H185.526c-17.093,0-31-13.907-31-31V88.239c0-17.093,13.907-31,31-31h674.688c17.094,0,31,13.907,31,31v493.975c0,17.093-13.906,31-31,31ZM185.526,59.239c-15.991,0-29,13.009-29,29v493.975c0,15.991,13.009,29,29,29h674.688c15.99,0,29-13.009,29-29V88.239c0-15.991-13.01-29-29-29H185.526Z" fill="#292a2e"></path>
        <g>
          <rect x="186.733" y="461.704" width="670.233" height="120.38" rx="16.028" ry="16.028" fill="#0066f9"></rect>
          <rect x="186.733" y="306.678" width="670.233" height="120.38" rx="16.028" ry="16.028" fill="#0066f9"></rect>
          <g fill="none" opacity=".9">
            <rect x="186.733" y="461.704" width="670.233" height="120.38" rx="16.028" ry="16.028" fill="#fff"></rect>
          </g>
          <g fill="none" opacity=".9">
            <rect x="186.733" y="306.678" width="670.233" height="120.38" rx="16.028" ry="16.028" fill="#fff"></rect>
          </g>
          <g>
            <rect x="186.733" y="151.651" width="670.233" height="120.38" rx="16.028" ry="16.028" fill="#0066f9"></rect>
            <rect x="186.733" y="151.651" width="670.233" height="120.38" rx="16.028" ry="16.028" fill="#fff" opacity=".2"></rect>
            <path d="m840.938,273.031H202.761c-9.389,0-17.028-7.639-17.028-17.028v-88.323c0-9.39,7.639-17.028,17.028-17.028h638.177c9.39,0,17.028,7.639,17.028,17.028v88.323c0,9.39-7.639,17.028-17.028,17.028ZM202.761,152.651c-8.287,0-15.028,6.742-15.028,15.028v88.323c0,8.287,6.741,15.028,15.028,15.028h638.177c8.287,0,15.028-6.742,15.028-15.028v-88.323c0-8.287-6.742-15.028-15.028-15.028H202.761Z" fill="#292a2e"></path>
            <rect x="211.753" y="172.567" width="189.123" height="16.174" rx="8.087" ry="8.087" fill="#fff"></rect>
            <g>
              <path d="m537.051,252.213H211.754c-.552,0-1-.448-1-1s.448-1,1-1h325.297c.552,0,1,.448,1,1s-.448,1-1,1Z" fill="#fff"></path>
              <path d="m829.051,230.961H211.754c-.552,0-1-.448-1-1s.448-1,1-1h617.297c.552,0,1,.448,1,1s-.448,1-1,1Z" fill="#fff"></path>
              <path d="m829.051,209.708H211.754c-.552,0-1-.448-1-1s.448-1,1-1h617.297c.552,0,1,.448,1,1s-.448,1-1,1Z" fill="#fff"></path>
            </g>
          </g>
          <path d="m840.938,428.058H202.761c-9.389,0-17.028-7.639-17.028-17.028v-88.323c0-9.39,7.639-17.028,17.028-17.028h638.177c9.39,0,17.028,7.639,17.028,17.028v88.323c0,9.39-7.639,17.028-17.028,17.028Zm-638.177-120.38c-8.287,0-15.028,6.742-15.028,15.028v88.323c0,8.287,6.741,15.028,15.028,15.028h638.177c8.287,0,15.028-6.742,15.028-15.028v-88.323c0-8.287-6.742-15.028-15.028-15.028H202.761Z" fill="#292a2e"></path>
          <path d="m840.938,583.084H202.761c-9.389,0-17.028-7.639-17.028-17.028v-88.323c0-9.39,7.639-17.028,17.028-17.028h638.177c9.39,0,17.028,7.639,17.028,17.028v88.323c0,9.39-7.639,17.028-17.028,17.028Zm-638.177-120.38c-8.287,0-15.028,6.742-15.028,15.028v88.323c0,8.287,6.741,15.028,15.028,15.028h638.177c8.287,0,15.028-6.742,15.028-15.028v-88.323c0-8.287-6.742-15.028-15.028-15.028H202.761Z" fill="#292a2e"></path>
        </g>
        <path d="m890.214,88.235v30.188H155.53v-30.188c0-16.569,13.431-30,30-30h674.684c16.569,0,30,13.431,30,30Z" fill="#292a2e"></path>
      </g>
      <g>
        <g>
          <polygon points="835.347 363.735 826.638 349.797 812.552 358.264 838.413 250.518 861.208 255.989 835.347 363.735" fill="#0066f9"></polygon>
          <path d="m835.347,364.735c-.341,0-.664-.175-.848-.47l-8.188-13.105-13.244,7.961c-.345.208-.781.188-1.106-.05-.325-.238-.475-.648-.381-1.04l25.861-107.747c.062-.258.224-.48.45-.619s.499-.182.756-.12l22.795,5.472c.537.129.868.668.739,1.206l-25.861,107.746c-.094.392-.414.689-.812.753-.054.009-.107.013-.161.013Zm-8.71-15.938c.334,0,.66.167.849.47l7.445,11.916,25.071-104.455-20.851-5.005-25.071,104.455,12.042-7.238c.161-.097.339-.143.514-.143Z" fill="#292a2e"></path>
        </g>
        <g>
          <polygon points="865.929 363.735 874.637 349.797 888.724 358.264 862.863 250.518 840.068 255.989 865.929 363.735" fill="#0066f9"></polygon>
          <path d="m865.929,364.735c-.053,0-.107-.004-.161-.013-.398-.064-.718-.362-.812-.753l-25.861-107.746c-.129-.537.202-1.077.739-1.206l22.795-5.472c.258-.062.53-.019.756.12s.388.361.45.619l25.861,107.747c.094.392-.056.802-.381,1.04-.325.238-.762.258-1.106.05l-13.244-7.961-8.188,13.105c-.185.295-.507.47-.848.47Zm-24.656-108.007l25.071,104.455,7.445-11.916c.289-.462.895-.61,1.363-.327l12.042,7.238-25.071-104.455-20.851,5.005Z" fill="#292a2e"></path>
        </g>
        <g>
          <path d="m909.055,271.213c0,5.942-7.458,10.632-9.199,15.993-1.804,5.556,1.41,13.723-1.956,18.348-3.4,4.671-12.182,4.121-16.853,7.521-4.625,3.366-6.797,11.907-12.353,13.711-5.361,1.741-12.115-3.835-18.056-3.835s-12.695,5.576-18.056,3.835c-5.556-1.804-7.729-10.345-12.354-13.711-4.671-3.4-13.453-2.85-16.853-7.521-3.366-4.625-.152-12.791-1.956-18.347-1.741-5.361-9.199-10.052-9.199-15.993s7.458-10.632,9.199-15.993c1.804-5.556-1.41-13.723,1.956-18.348,3.4-4.671,12.182-4.121,16.853-7.521,4.625-3.366,6.797-11.907,12.353-13.711,5.361-1.741,12.115,3.835,18.056,3.835s12.695-5.576,18.056-3.835c5.556,1.804,7.729,10.345,12.354,13.711,4.671,3.4,13.453,2.85,16.853,7.521,3.366,4.625.152,12.791,1.956,18.347,1.741,5.361,9.199,10.052,9.199,15.993Z" fill="#48cf48"></path>
          <path d="m866.46,328.121c-2.638,0-5.41-1.073-8.112-2.119-2.606-1.008-5.3-2.051-7.71-2.051s-5.104,1.043-7.71,2.051c-3.589,1.389-7.299,2.825-10.655,1.735-3.517-1.142-5.712-4.571-7.836-7.886-1.527-2.384-2.969-4.637-4.797-5.967-1.862-1.355-4.596-2.075-7.24-2.771-3.78-.996-7.689-2.025-9.833-4.97-2.118-2.911-1.897-6.925-1.683-10.806.151-2.75.308-5.593-.415-7.821-.681-2.098-2.354-4.135-4.126-6.292-2.518-3.065-5.122-6.235-5.122-10.01s2.604-6.945,5.122-10.011c1.771-2.156,3.445-4.193,4.126-6.291.724-2.229.567-5.072.416-7.821-.214-3.882-.435-7.896,1.683-10.806,2.143-2.945,6.052-3.975,9.833-4.97,2.644-.696,5.378-1.416,7.241-2.771,1.829-1.331,3.271-3.583,4.797-5.967,2.124-3.315,4.319-6.744,7.835-7.886,3.359-1.088,7.067.347,10.655,1.735,2.605,1.008,5.3,2.051,7.71,2.051s5.104-1.043,7.71-2.051c3.589-1.388,7.298-2.825,10.655-1.735,3.517,1.142,5.712,4.571,7.835,7.887,1.527,2.384,2.969,4.636,4.797,5.967,1.862,1.355,4.596,2.075,7.24,2.771,3.78.996,7.689,2.025,9.833,4.97,2.118,2.911,1.897,6.924,1.683,10.806-.151,2.75-.308,5.593.416,7.82.681,2.098,2.354,4.135,4.126,6.292,2.518,3.065,5.122,6.235,5.122,10.01s-2.604,6.945-5.122,10.01c-1.771,2.157-3.445,4.194-4.126,6.292-.724,2.229-.567,5.072-.416,7.821.214,3.882.435,7.896-1.683,10.806-2.144,2.945-6.053,3.974-9.833,4.97-2.644.696-5.378,1.416-7.241,2.771-1.828,1.331-3.27,3.583-4.797,5.967-2.123,3.316-4.319,6.745-7.836,7.886-.828.269-1.678.384-2.542.384Zm-15.822-6.17c2.783,0,5.655,1.111,8.432,2.186,3.413,1.32,6.635,2.569,9.315,1.698,2.836-.921,4.747-3.904,6.77-7.062,1.559-2.435,3.171-4.953,5.304-6.505,2.166-1.577,5.085-2.345,7.908-3.088,3.6-.948,7.001-1.843,8.725-4.212,1.699-2.335,1.507-5.825,1.303-9.519-.161-2.933-.329-5.966.51-8.549.798-2.458,2.671-4.738,4.483-6.944,2.294-2.793,4.667-5.682,4.667-8.741s-2.373-5.948-4.667-8.741c-1.812-2.206-3.685-4.486-4.483-6.944-.839-2.583-.671-5.615-.51-8.548.204-3.695.396-7.185-1.304-9.52-1.724-2.369-5.125-3.265-8.725-4.213-2.823-.743-5.742-1.512-7.908-3.088-2.133-1.552-3.746-4.07-5.305-6.506-2.022-3.158-3.933-6.142-6.769-7.062-2.681-.871-5.904.377-9.316,1.698-2.777,1.075-5.648,2.186-8.432,2.186s-5.655-1.111-8.432-2.187c-3.413-1.321-6.636-2.569-9.315-1.698-2.836.921-4.746,3.904-6.769,7.062-1.56,2.435-3.172,4.954-5.305,6.506-2.166,1.577-5.085,2.345-7.908,3.088-3.6.948-7,1.843-8.725,4.212-1.699,2.335-1.507,5.825-1.303,9.519.161,2.933.329,5.966-.51,8.549-.798,2.458-2.671,4.738-4.482,6.943-2.295,2.793-4.667,5.682-4.667,8.741s2.373,5.948,4.667,8.741c1.812,2.206,3.685,4.486,4.483,6.944.838,2.583.671,5.615.51,8.548-.204,3.695-.396,7.185,1.303,9.52,1.725,2.369,5.125,3.265,8.725,4.213,2.823.743,5.742,1.512,7.908,3.088,2.133,1.552,3.746,4.071,5.305,6.506,2.022,3.158,3.933,6.142,6.769,7.062,2.678.869,5.902-.377,9.315-1.698,2.777-1.075,5.649-2.186,8.433-2.186Z" fill="#292a2e"></path>
        </g>
        <g>
          <circle cx="850.638" cy="271.213" r="25.909" fill="#fff"></circle>
          <path d="m850.638,298.122c-14.838,0-26.909-12.071-26.909-26.909s12.071-26.909,26.909-26.909,26.909,12.071,26.909,26.909-12.071,26.909-26.909,26.909Zm0-51.818c-13.735,0-24.909,11.174-24.909,24.909s11.174,24.909,24.909,24.909,24.909-11.174,24.909-24.909-11.174-24.909-24.909-24.909Z" fill="#292a2e"></path>
        </g>
      </g>
    </g>
  </g>
</svg>