<svg width="626" height="427" viewBox="0 0 626 427" fill="none" xmlns="http://www.w3.org/2000/svg" style="width: 100%; height: 100%;">
<g clip-path="url(#clip0_35_2077)">
<path d="M84.746 398.422C69.497 383.741 49.591 373.971 28.649 370.889C23.483 370.129 17.72 369.912 13.577 373.09C10.033 375.808 8.48802 380.563 8.75302 385.021C9.01802 389.479 10.86 393.695 13.042 397.591C18.887 408.025 27.421 416.937 38.569 423.262C63.14 423.353 87.712 423.445 112.283 423.536C100.076 414.375 93.012 408.845 84.746 398.422Z" fill="#55D087" stroke="#010101" stroke-width="1.5" stroke-linecap="round" stroke-linejoin="round"></path>
<path d="M169.771 424.363C170.14 424.718 126.074 347.751 93.0261 322.023C86.6291 317.043 79.2771 312.811 71.2051 312.058C63.1331 311.306 54.2801 314.746 50.5041 321.92C46.6911 329.165 48.7691 338.041 51.6521 345.704C62.8111 375.367 84.2841 399.795 106.572 423.696C129.325 424.7 169.523 424.124 169.77 424.362L169.771 424.363Z" fill="#55D087" stroke="#010101" stroke-width="1.5" stroke-linecap="round" stroke-linejoin="round"></path>
<path d="M66.494 319.112C85.2 355.745 111.523 387.858 133.66 422.526" stroke="#010101" stroke-width="1.5" stroke-linecap="round" stroke-linejoin="round"></path>
<path d="M94.592 365.328C97.716 356.699 101.115 348.17 104.783 339.757" stroke="#010101" stroke-width="1.5" stroke-linecap="round" stroke-linejoin="round"></path>
<path d="M77.592 381.267C84.21 381.901 90.828 382.535 97.446 383.169C101.126 383.522 104.816 383.876 108.43 384.654" stroke="#010101" stroke-width="1.5" stroke-linecap="round" stroke-linejoin="round"></path>
<path d="M22.567 381.38C41.638 394.143 59.858 408.177 77.068 423.356" stroke="#010101" stroke-width="1.5" stroke-linecap="round" stroke-linejoin="round"></path>
<path d="M52.2571 402.83C52.0981 397.607 51.7301 392.39 51.1541 387.197" stroke="#010101" stroke-width="1.5" stroke-linecap="round" stroke-linejoin="round"></path>
<path d="M64.485 413.751C58.621 413.736 52.749 413.598 46.894 414.007C44 414.209 41.167 414.491 38.254 414.326C37.277 414.271 36.258 414.022 35.278 414.049C35.492 414.058 35.705 414.067 35.919 414.077" stroke="#010101" stroke-width="1.5" stroke-linecap="round" stroke-linejoin="round"></path>
<path d="M145.066 408.722C140.611 342.129 139.341 139.097 139.341 27.242C139.341 11.931 148.569 0.75 162.798 0.75C197.46 0.75 308.749 1.108 332.416 0.759C342.381 0.612 350.867 2.223 357.738 9.14C362.938 14.375 364.228 23.017 364.323 28.279C366.565 152.848 375.516 284.784 375.989 411.942C376.012 418.074 370.944 423.1 364.602 423.208C340.688 423.618 291.587 425.584 172.142 425.584C164.741 425.584 145.488 426.015 145.067 408.721L145.066 408.722Z" fill="#010101" stroke="#010101" stroke-width="1.5" stroke-linecap="round" stroke-linejoin="round"></path>
<path d="M151.247 372.181C147.128 308.499 152.291 137.551 148.143 30.755C147.531 14.998 155.728 10.018 166.103 10.018C190.162 10.018 300.577 9.50899 326.87 9.60199C336.085 9.63499 346.874 9.60199 352.26 17.079C355.201 21.163 356.065 26.433 356.153 31.465C358.226 150.589 364.847 255.534 365.284 377.134C365.305 382.998 360.62 387.804 354.756 387.908C332.646 388.3 243.457 388.306 176.279 388.306C169.436 388.306 151.246 392.792 151.246 372.18L151.247 372.181Z" fill="white" stroke="#010101" stroke-width="1.5" stroke-linecap="round" stroke-linejoin="round"></path>
<path d="M94.608 269.976C94.608 247.215 96.117 210.819 96.117 176.817C63.915 177.752 33.667 177.062 0.906019 177.487C0.904019 177.487 0.903019 177.488 0.903019 177.49C0.337019 207.952 1.52402 242.828 1.52402 269.737C1.52402 269.743 1.52902 269.748 1.53502 269.747C35.532 269.264 62.636 269.156 94.607 269.975L94.608 269.976Z" fill="#E3E3FF" stroke="#010101" stroke-width="1.5" stroke-linecap="round" stroke-linejoin="round"></path>
<path d="M314.311 353.924C314.311 328.145 313.707 288.151 313.707 249.641C251.178 250.7 190.97 249.919 127.353 250.4C127.35 250.4 127.385 353.666 127.396 353.666C193.411 353.119 252.229 352.996 314.311 353.924Z" fill="#E3E3FF" stroke="#010101" stroke-width="1.5" stroke-linecap="round" stroke-linejoin="round"></path>
<path d="M10.374 328.913C9.53903 328.8 8.65603 329.204 8.19503 329.909C7.73403 330.614 7.71903 331.585 8.15803 332.305C8.93903 333.586 11.083 333.646 11.97 332.436C12.857 331.226 12.214 329.162 10.375 328.914L10.374 328.913Z" fill="#010101"></path>
<path d="M427.376 109.638C426.541 109.525 425.658 109.929 425.197 110.634C424.736 111.339 424.721 112.31 425.16 113.03C425.941 114.311 428.085 114.371 428.972 113.161C429.859 111.951 429.216 109.887 427.377 109.639L427.376 109.638Z" fill="#010101"></path>
<path d="M100.023 32.764C99.188 32.651 98.305 33.055 97.844 33.76C97.383 34.465 97.368 35.436 97.807 36.156C98.588 37.437 100.732 37.497 101.619 36.287C102.506 35.077 101.863 33.013 100.024 32.765L100.023 32.764Z" fill="#010101"></path>
<path d="M312.95 226.428C312.95 176.734 315.977 97.27 315.977 23.034C251.397 25.076 190.736 23.57 125.033 24.497C125.03 24.497 125.027 24.5 125.027 24.503C123.892 91.01 126.272 167.156 126.273 225.906C126.273 225.919 126.283 225.929 126.295 225.929C194.475 224.875 248.832 224.639 312.95 226.428Z" fill="#E3E3FF" stroke="#010101" stroke-width="1.5" stroke-linecap="round" stroke-linejoin="round"></path>
<path d="M150.616 90.695C165.321 74.471 181.588 61.458 200.343 58.612C200.287 68.244 208.923 74.794 218.357 76.739C235.171 80.206 241.048 65.011 242.857 58.506C264.063 61.503 278.979 68.564 290.919 79.107C287.934 88.053 280.447 107.668 280.447 107.668C280.447 107.668 267.695 100.778 261.533 98.142C259.999 116.071 259.776 153.105 259.468 171.015C234.676 170.71 209.229 172.371 184.436 172.066C184.863 155.026 185.309 117.012 183.644 98.867C178.215 102.841 172.786 106.815 167.357 110.789C162.077 105.886 158.229 99.459 150.615 90.696L150.616 90.695Z" fill="white" stroke="#010101" stroke-width="1.5" stroke-linecap="round" stroke-linejoin="round"></path>
<path d="M149.99 213.212C142.597 208.993 135.665 201.972 138.516 196.723C139.409 195.079 140.7 193.514 142.487 192.962C144.87 192.225 146.819 193.775 148.7 196.684C149.766 193.862 150.796 193.107 152.447 192.32C154.098 191.534 156.179 191.747 157.636 192.851C159.596 194.336 160.321 197.156 159.673 199.528C158.037 205.509 153.95 210.001 149.99 213.212Z" fill="#42d242" stroke="#010101" stroke-width="1.5" stroke-linecap="round" stroke-linejoin="round"></path>
<path d="M179.391 194.467C214.104 193.955 248.818 193.442 283.531 192.93Z" fill="white"></path>
<path d="M179.391 194.467C214.104 193.955 248.818 193.442 283.531 192.93" stroke="#010101" stroke-width="1.5" stroke-linecap="round" stroke-linejoin="round"></path>
<path d="M181.872 206.742C192.391 206.677 202.91 206.612 213.43 206.547Z" fill="white"></path>
<path d="M181.872 206.742C192.391 206.677 202.91 206.612 213.43 206.547" stroke="#010101" stroke-width="1.5" stroke-linecap="round" stroke-linejoin="round"></path>
<path d="M293.551 36.678C298.254 36.474 302.95 36.173 307.64 35.777C307.302 35.754 306.964 35.754 293.551 36.678Z" fill="white" stroke="#010101" stroke-width="1.5" stroke-linecap="round" stroke-linejoin="round"></path>
<path d="M294.003 41.6571C298.359 41.2611 303.283 41.4561 307.64 41.0601Z" fill="white"></path>
<path d="M294.003 41.6571C298.359 41.2611 303.283 41.4561 307.64 41.0601" stroke="#010101" stroke-width="1.5" stroke-linecap="round" stroke-linejoin="round"></path>
<path d="M294.002 47.302C298.733 47.185 303.464 47.069 308.194 46.952Z" fill="white"></path>
<path d="M294.002 47.302C298.733 47.185 303.464 47.069 308.194 46.952" stroke="#010101" stroke-width="1.5" stroke-linecap="round" stroke-linejoin="round"></path>
<path d="M334.869 151.087C336.877 151.524 338.612 152.742 340.28 153.943C353.822 163.691 366.894 174.092 379.435 185.097C379.76 185.382 380.1 185.691 380.221 186.106C380.429 186.82 379.927 187.528 379.455 188.102C374.074 194.652 368.629 201.149 363.122 207.594C362.698 208.09 362.214 208.619 361.568 208.703C360.883 208.792 360.252 208.353 359.701 207.936C348.103 199.165 339.397 193.494 326.697 183.89C323.87 181.752 321.829 179.809 319.67 176.998C317.207 173.792 313.494 163.64 311.297 157.243C310.362 154.52 312.311 151.67 315.188 151.549C322.291 151.249 333.645 150.82 334.867 151.086L334.869 151.087Z" fill="white" stroke="#010101" stroke-width="1.5" stroke-linecap="round" stroke-linejoin="round"></path>
<path d="M314.618 157.938C313.517 156.331 314.565 155.448 314.966 155.147C315.621 154.655 316.548 154.535 317.291 154.879C318.034 155.223 318.548 156.032 318.505 156.85C318.462 157.668 317.843 158.433 317.043 158.61C316.376 158.757 315.346 158.973 314.618 157.937V157.938Z" fill="#010101" stroke="#010101" stroke-width="1.5" stroke-linecap="round" stroke-linejoin="round"></path>
<path d="M315.86 156.111C313.111 154.708 310.31 153.318 307.289 152.686C304.268 152.054 300.958 152.251 298.329 153.869C295.794 155.429 294.18 158.088 292.662 160.648" stroke="#010101" stroke-width="1.5" stroke-linecap="round" stroke-linejoin="round"></path>
<path d="M332.622 179.403C337.979 175.443 343.685 171.956 349.652 168.996C347.121 174.787 343.826 180.923 341.244 186.832" stroke="#010101" stroke-width="1.5" stroke-linecap="round" stroke-linejoin="round"></path>
<path d="M339.139 175.322C340.985 176.76 342.301 177.954 344.607 179.636" stroke="#010101" stroke-width="1.5" stroke-linecap="round" stroke-linejoin="round"></path>
<path d="M356.815 175.244C353.137 179.937 349.356 184.55 345.476 189.078C347.561 190.832 349.752 192.46 352.033 193.949" stroke="#010101" stroke-width="1.5" stroke-linecap="round" stroke-linejoin="round"></path>
<path d="M359.71 199.945C358.071 198.851 356.479 197.686 354.941 196.454C358.666 191.788 362.39 187.121 366.403 182.268C368.342 183.651 370.217 185.124 372.021 186.678" stroke="#010101" stroke-width="1.5" stroke-linecap="round" stroke-linejoin="round"></path>
<path d="M361.434 189.27C362.726 190.366 364.084 191.384 365.5 192.315" stroke="#010101" stroke-width="1.5" stroke-linecap="round" stroke-linejoin="round"></path>
<path d="M340.325 162.416C339.325 160.498 337.73 158.946 335.373 158.799C333.016 158.652 330.465 160.375 330.391 162.735C330.304 165.528 333.363 167.456 333.947 170.189C334.264 171.67 333.758 173.3 332.659 174.343C331.56 175.386 329.905 175.804 328.443 175.409C327.261 175.09 326.262 174.298 325.403 173.425C324.46 172.467 323.382 169.606 323.97 168.398" stroke="#010101" stroke-width="1.5" stroke-linecap="round" stroke-linejoin="round"></path>
<path d="M338.99 48.012C338.07 41.359 340.132 34.544 343.267 28.605C348.714 18.289 358.908 10.207 370.493 8.836C375.543 8.238 380.701 8.894 385.556 10.406C397.027 13.979 406.859 22.507 412.028 33.354C418.011 45.908 413.339 53.818 411.631 57.429C407.105 66.997 398.874 76.656 387.747 79.47C373.771 83.005 343.699 82.086 338.989 48.011L338.99 48.012Z" fill="white" stroke="#010101" stroke-width="1.5" stroke-linecap="round" stroke-linejoin="round"></path>
<path d="M389.084 24.725C381.857 38.371 373.693 51.521 364.669 64.052Z" fill="white"></path>
<path d="M389.084 24.725C381.857 38.371 373.693 51.521 364.669 64.052" stroke="#010101" stroke-width="1.5" stroke-linecap="round" stroke-linejoin="round"></path>
<path d="M364.018 24.915C361.246 24.24 358.118 25.406 356.463 27.729C355.096 29.649 354.755 32.206 355.353 34.485C356.125 37.423 358.466 39.918 361.374 40.794C364.282 41.67 367.655 40.858 369.787 38.695C371.919 36.532 372.677 33.095 371.576 30.264C370.475 27.433 367.472 25.756 364.017 24.915H364.018Z" stroke="#010101" stroke-width="1.5" stroke-linecap="round" stroke-linejoin="round"></path>
<path d="M390.151 47.3199C387.379 46.6449 384.251 47.8109 382.596 50.1339C381.229 52.0539 380.888 54.6109 381.486 56.8899C382.258 59.8279 384.599 62.3229 387.507 63.1989C390.415 64.0749 393.788 63.2629 395.92 61.0999C398.052 58.9369 398.81 55.4999 397.709 52.6689C396.608 49.8379 393.605 48.1609 390.15 47.3199H390.151Z" stroke="#010101" stroke-width="1.5" stroke-linecap="round" stroke-linejoin="round"></path>
<path d="M262.71 394.895C259.964 395.185 257.429 396.772 255.765 398.977C254.101 401.181 253.277 403.958 253.214 406.719C253.182 408.118 253.343 409.543 253.889 410.831C254.5 412.272 255.568 413.481 256.784 414.467C258.686 416.01 261.006 417.059 263.439 417.345C265.871 417.631 268.409 417.135 270.492 415.847C272.861 414.383 274.568 411.929 275.236 409.226C275.904 406.523 275.554 403.601 274.378 401.077C273.747 399.722 272.87 398.461 271.699 397.533C269.046 395.432 266.638 394.643 262.711 394.894L262.71 394.895Z" fill="white" stroke="#010101" stroke-width="1.5" stroke-linecap="round" stroke-linejoin="round"></path>
<path d="M607.476 177.823C606.699 177.718 605.876 178.094 605.447 178.751C605.018 179.408 605.004 180.312 605.412 180.981C606.14 182.174 608.135 182.23 608.961 181.103C609.787 179.976 609.188 178.055 607.476 177.823Z" fill="#010101"></path>
<path d="M513.778 61.2471C513.243 62.2991 512.89 63.4431 512.739 64.6141C513.566 64.8621 514.728 64.9601 515.034 64.1521C515.315 63.4111 514.366 62.6561 513.603 62.8681C512.84 63.0801 512.385 63.8831 512.236 64.6611C512.075 65.5031 512.191 66.4271 512.699 67.1181C513.207 67.8091 514.147 68.2041 514.963 67.9391C515.779 67.6741 516.316 66.6721 515.965 65.8901C515.614 65.1081 514.355 64.9041 513.861 65.6051C513.624 65.9421 513.592 66.3801 513.612 66.7911C513.653 67.6391 513.899 68.5131 514.488 69.1251C515.077 69.7371 516.061 70.0111 516.811 69.6121C517.561 69.2131 517.845 68.0631 517.245 67.4621C516.499 66.7151 515.063 67.3971 514.837 68.4291C514.612 69.4611 515.245 70.5011 516.041 71.1951C516.63 71.7081 517.434 72.1181 518.174 71.8651C518.914 71.6121 519.216 70.4081 518.517 70.0581C518.075 69.8371 517.504 70.1021 517.255 70.5301C517.006 70.9581 517.013 71.4891 517.108 71.9741C517.25 72.7001 517.607 73.4291 518.247 73.7991C518.887 74.1691 519.837 74.0401 520.199 73.3941C520.561 72.7481 519.958 71.7551 519.238 71.9251C518.618 72.0721 518.387 72.8391 518.394 73.4771C518.405 74.5321 518.866 75.6921 519.847 76.0821C520.828 76.4721 522.181 75.5421 521.851 74.5401C521.095 74.3141 520.357 75.0651 520.198 75.8381C520.046 76.5791 520.272 77.4221 520.874 77.8801C521.476 78.3381 522.451 78.2841 522.904 77.6791C523.357 77.0731 523.025 76.0211 522.28 75.8891C521.774 76.5901 521.733 77.6191 522.248 78.3131C522.763 79.0081 523.824 79.2571 524.557 78.7991C525.29 78.3411 525.512 77.2051 524.951 76.5481C524.549 77.1961 524.132 77.9051 524.201 78.6641C524.27 79.4231 525.089 80.1421 525.855 80.1171C526.387 79.7201 526.82 79.1921 527.105 78.5921C526.865 78.4291 526.514 78.5391 526.334 78.7661C526.154 78.9931 526.113 79.3011 526.124 79.5911C526.154 80.4341 526.625 81.2931 527.404 81.6161C528.183 81.9401 529.229 81.5721 529.496 80.7711C529.626 80.3831 529.466 79.8361 529.058 79.7991C528.759 79.7721 528.514 80.0371 528.381 80.3061C527.942 81.1871 528.28 82.4341 529.189 82.8121C530.098 83.1901 531.315 82.3421 531.128 81.3761C530.685 81.7161 530.634 82.4571 531.027 82.8541C531.42 83.2511 532.162 83.2061 532.505 82.7661" stroke="#010101" stroke-width="1.5" stroke-linecap="round" stroke-linejoin="round"></path>
<path d="M503.984 62.064C503.645 62.766 503.499 63.56 503.568 64.337C504.134 64.266 504.717 64.036 505.036 63.563C505.355 63.09 505.291 62.343 504.798 62.056C504.155 62.448 504.37 63.585 505.073 63.856C505.776 64.127 506.61 63.635 506.895 62.938C507.106 62.421 506.969 61.68 506.431 61.533C506.078 62.221 506.569 63.187 507.333 63.306C508.097 63.425 508.86 62.655 508.733 61.892C508.69 61.636 508.526 61.366 508.268 61.333C507.849 61.28 507.639 61.843 507.685 62.263C507.757 62.915 508.237 63.623 508.89 63.563C509.172 63.537 509.42 63.371 509.642 63.196C509.987 62.923 510.318 62.588 510.419 62.16C510.52 61.732 510.302 61.204 509.873 61.107C509.304 60.978 508.839 61.765 509.12 62.277C509.401 62.789 510.128 62.918 510.662 62.682C511.038 62.516 511.36 62.169 511.382 61.759C511.404 61.349 511.03 60.929 510.625 60.997C510.564 61.618 511.067 62.24 511.687 62.31C512.307 62.38 512.936 61.886 513.016 61.267" stroke="#010101" stroke-width="1.5" stroke-linecap="round" stroke-linejoin="round"></path>
<path d="M503.508 64.046C502.535 62.777 502.919 60.697 504.281 59.86C504.886 59.488 505.745 59.384 506.262 59.872C506.779 60.36 506.485 61.477 505.776 61.438C504.974 61.394 504.876 60.185 505.297 59.5C505.63 58.959 506.273 58.485 506.865 58.717C507.611 59.01 507.578 60.126 507.131 60.792C506.901 61.135 506.456 61.452 506.107 61.232C505.969 61.145 505.887 60.992 505.832 60.839C505.413 59.68 506.28 58.384 507.389 57.847C508.021 57.541 508.854 57.437 509.369 57.915C509.884 58.393 509.56 59.521 508.865 59.415C508.32 58.724 508.452 57.666 508.983 56.963C509.608 56.135 510.881 55.743 511.727 56.343C512.573 56.943 512.403 58.575 511.384 58.772C510.678 57.569 511.513 55.96 512.714 55.25C513.21 54.957 513.796 54.76 514.36 54.876C514.924 54.992 515.431 55.5 515.395 56.074C515.359 56.648 514.627 57.1 514.156 56.769C514.01 55.96 514.173 55.061 514.742 54.467C515.311 53.873 516.322 53.692 516.978 54.188C517.634 54.684 517.657 55.861 516.946 56.274C516.235 56.687 515.161 55.873 515.47 55.111C515.566 54.874 515.758 54.689 515.959 54.531C516.375 54.203 516.879 53.95 517.409 53.964C517.939 53.978 518.481 54.322 518.597 54.839C518.713 55.356 518.254 55.956 517.731 55.872C517.686 55.187 517.776 54.45 518.214 53.922C518.652 53.394 519.522 53.189 520.038 53.641C520.554 54.093 520.27 55.171 519.583 55.158C519.508 54.273 520.028 53.276 520.903 53.123C521.778 52.97 522.656 54.106 522.1 54.798C521.87 54.839 521.642 54.586 521.707 54.362" stroke="#010101" stroke-width="1.5" stroke-linecap="round" stroke-linejoin="round"></path>
<path d="M521.892 54.659C521.851 54.033 522.17 53.399 522.69 53.046C523.21 52.693 523.908 52.629 524.489 52.865C524.708 52.954 524.915 53.087 525.057 53.276C525.527 53.902 525.018 54.9 524.261 55.103C524.195 55.121 524.125 55.134 524.06 55.115C523.959 55.086 523.894 54.987 523.854 54.889C523.66 54.419 523.851 53.842 524.245 53.519C524.639 53.196 525.192 53.11 525.689 53.217C526.058 53.296 526.419 53.488 526.619 53.808C526.819 54.128 526.817 54.587 526.551 54.855C526.285 55.123 525.757 55.089 525.584 54.753C525.415 54.425 525.629 54.025 525.897 53.773C526.581 53.131 527.679 52.977 528.513 53.407C528.89 53.601 529.235 53.956 529.226 54.38C529.217 54.804 528.67 55.167 528.344 54.895C527.966 54.58 528.313 53.955 528.733 53.699C529.099 53.475 529.542 53.339 529.96 53.435C530.378 53.531 530.746 53.909 530.731 54.338C530.716 54.767 530.221 55.136 529.834 54.95C529.537 54.385 530.214 53.75 530.849 53.691C531.414 53.639 532.041 53.878 532.284 54.391C532.527 54.904 532.188 55.646 531.621 55.665C531.412 55.157 531.749 54.508 532.28 54.364C532.811 54.22 533.416 54.587 533.558 55.118C533.7 55.649 533.379 56.255 532.869 56.459C532.491 55.949 532.789 55.131 533.372 54.879C533.955 54.627 534.673 54.877 535.083 55.363C535.297 55.617 535.445 55.956 535.367 56.279C535.289 56.602 534.919 56.855 534.615 56.723" stroke="#010101" stroke-width="1.5" stroke-linecap="round" stroke-linejoin="round"></path>
<path d="M534.829 57.225C535.165 56.729 534.987 55.995 535.366 55.53C535.688 55.135 536.317 55.108 536.765 55.351C537.213 55.594 537.511 56.043 537.74 56.499C538.027 57.068 538.233 57.757 537.953 58.329C537.673 58.901 536.712 59.092 536.423 58.524C536.209 58.104 536.492 57.591 536.856 57.291C537.368 56.87 538.08 56.674 538.719 56.853C539.358 57.032 539.883 57.616 539.921 58.278C539.959 58.94 539.45 59.611 538.791 59.684C538.399 58.862 539.254 57.833 540.164 57.871C541.074 57.909 541.804 58.746 541.972 59.641C542.048 60.045 542.02 60.499 541.753 60.812C541.486 61.125 540.928 61.193 540.68 60.866C540.446 60.558 540.603 60.091 540.892 59.834C541.597 59.208 542.866 59.624 543.208 60.502C543.549 61.381 543.049 62.442 542.225 62.899C541.844 62.619 541.941 61.99 542.266 61.647C542.936 60.942 544.276 61.201 544.732 62.06C545.188 62.919 544.757 64.09 543.904 64.558C543.591 64.311 543.733 63.739 544.101 63.585C544.469 63.431 544.915 63.635 545.137 63.967C545.359 64.299 545.395 64.722 545.36 65.119C545.302 65.763 544.98 66.475 543.828 67.642C544.228 67.268 544.645 66.883 545.164 66.71C545.683 66.537 546.337 66.638 546.646 67.089C547.02 67.635 546.74 68.387 546.357 68.926C546.193 69.156 546.004 69.381 545.748 69.502C545.492 69.623 545.158 69.614 544.958 69.414C544.613 69.068 544.905 68.442 545.336 68.21C546.096 67.801 547.153 68.185 547.528 68.962C547.904 69.739 547.591 70.761 546.881 71.251C546.646 71.413 546.358 71.525 546.077 71.477C545.796 71.429 545.538 71.182 545.55 70.897C545.565 70.55 545.942 70.328 546.287 70.283C547.038 70.185 547.85 70.707 547.977 71.453C548.104 72.199 547.406 72.999 546.657 72.887C546.581 72.876 546.504 72.855 546.442 72.81C546.167 72.612 546.391 72.154 546.698 72.009C547.474 71.642 548.452 72.302 548.63 73.142C548.808 73.982 548.369 74.85 547.753 75.448C547.622 75.575 547.317 75.621 547.336 75.439" stroke="#010101" stroke-width="1.5" stroke-linecap="round" stroke-linejoin="round"></path>
<path d="M546.365 75.799C546.872 75.093 547.694 74.623 548.56 74.546C549.156 75.41 549.041 76.692 548.302 77.436C547.979 77.761 547.513 77.991 547.067 77.886C546.621 77.781 546.287 77.238 546.511 76.839C546.631 76.625 546.867 76.504 547.102 76.436C547.575 76.299 548.113 76.342 548.518 76.622C548.923 76.902 549.155 77.441 549.009 77.911C548.863 78.381 548.302 78.7 546.366 75.799H546.365Z" stroke="#010101" stroke-width="1.5" stroke-linecap="round" stroke-linejoin="round"></path>
<path d="M507.75 60.21C508.402 59.947 509.008 59.572 509.534 59.106C509.266 58.884 508.818 59.19 508.821 59.538C508.824 59.886 509.123 60.167 509.444 60.302C509.994 60.533 510.643 60.457 511.171 60.18C511.699 59.903 512.114 59.442 512.418 58.929C512.533 58.736 512.636 58.52 512.616 58.296C512.596 58.072 512.405 57.85 512.181 57.875C512.035 57.891 511.915 58.004 511.845 58.133C511.545 58.682 512.07 59.402 512.689 59.492C513.308 59.582 513.91 59.234 514.376 58.816C514.629 58.589 514.871 58.319 514.936 57.986C515.001 57.653 514.825 57.252 514.493 57.18C514.186 57.114 513.893 57.338 513.698 57.583C513.531 57.793 513.394 58.043 513.398 58.311C513.404 58.781 513.871 59.159 514.341 59.173C514.811 59.187 515.252 58.912 515.555 58.551C515.731 58.342 515.877 58.072 515.819 57.804C515.737 57.426 515.213 57.245 514.897 57.468C514.581 57.691 514.554 58.209 514.822 58.488C515.09 58.767 515.575 58.778 515.879 58.538C516.183 58.298 516.292 57.855 516.17 57.488" stroke="#010101" stroke-width="1.5" stroke-linecap="round" stroke-linejoin="round"></path>
<path d="M516.64 58.748C515.941 59.363 515.415 60.172 515.136 61.06C515.597 61.262 516.143 61.444 516.585 61.204C517.027 60.964 517.022 60.115 516.52 60.082C516.361 60.071 516.208 60.147 516.078 60.24C515.234 60.841 515.215 62.289 516.044 62.912C516.872 63.535 518.258 63.114 518.601 62.136C518.677 61.92 518.706 61.675 518.618 61.464C518.447 61.052 517.874 60.926 517.474 61.124C517.074 61.322 516.833 61.746 516.71 62.175C516.479 62.976 516.627 63.94 517.272 64.468C517.917 64.996 519.077 64.831 519.375 64.052C519.48 63.779 519.461 63.442 519.26 63.229C518.936 62.886 518.347 63.036 517.979 63.332C517.455 63.755 517.138 64.45 517.245 65.115C517.352 65.78 517.919 66.366 518.59 66.419C519.261 66.472 519.944 65.922 519.967 65.249C519.974 65.041 519.918 64.823 519.772 64.675C519.437 64.336 518.835 64.542 518.52 64.899C517.947 65.551 517.959 66.655 518.583 67.258C519.207 67.861 520.357 67.809 520.887 67.121C521.117 66.822 521.208 66.354 520.941 66.087C520.681 65.827 520.231 65.903 519.923 66.104C519.333 66.489 519.039 67.274 519.23 67.952C519.421 68.63 520.083 69.145 520.787 69.165C521.25 69.178 521.747 68.955 521.927 68.528C522.107 68.101 521.821 67.509 521.359 67.492C521.197 67.486 521.038 67.546 520.9 67.632C520.393 67.949 520.175 68.659 520.418 69.206C520.661 69.753 521.332 70.068 521.908 69.905C522.199 69.823 522.468 69.616 522.557 69.327C522.646 69.038 522.505 68.678 522.219 68.581C521.853 68.457 521.479 68.792 521.344 69.153C521.1 69.802 521.364 70.604 521.946 70.981C522.528 71.358 523.367 71.273 523.861 70.786" stroke="#010101" stroke-width="1.5" stroke-linecap="round" stroke-linejoin="round"></path>
<path d="M523.619 71.3861C523.453 71.0721 523.287 70.7591 523.121 70.4451C522.399 70.6111 522.078 71.5901 522.438 72.2381C522.798 72.8861 523.632 73.1631 524.363 73.0381C524.756 72.9711 525.18 72.7441 525.246 72.3511C525.304 72.0061 525.033 71.6621 524.697 71.5641C524.361 71.4661 523.991 71.5761 523.704 71.7761C522.934 72.3121 522.757 73.5281 523.343 74.2611C523.929 74.9941 525.153 75.0911 525.847 74.4591C526.239 74.1021 526.415 73.4031 526.005 73.0661C525.499 72.6501 524.725 73.2461 524.596 73.8881C524.463 74.5541 524.718 75.2831 525.237 75.7201C525.756 76.1571 526.518 76.2851 527.151 76.0411C527.606 75.8661 528.006 75.4711 528.05 74.9851C528.094 74.4991 527.662 73.9871 527.181 74.0601C526.892 74.1041 526.659 74.3311 526.519 74.5881C526.182 75.2031 526.307 76.0371 526.812 76.5261C527.317 77.0151 528.154 77.1131 528.758 76.7561C529.013 76.6051 529.234 76.3671 529.287 76.0751C529.34 75.7831 529.181 75.4461 528.896 75.3651C528.636 75.2911 528.36 75.4391 528.179 75.6391C527.685 76.1841 527.744 77.1001 528.225 77.6571C528.706 78.2131 529.516 78.4171 530.238 78.2761C530.647 78.1961 531.086 77.9521 531.15 77.5401C531.234 76.9901 530.488 76.5831 529.995 76.8401C529.502 77.0971 529.335 77.7591 529.483 78.2951C529.665 78.9581 530.262 79.4861 530.942 79.5861C531.622 79.6861 532.346 79.3521 532.712 78.7711C532.818 78.6021 532.897 78.3901 532.822 78.2051C532.716 77.9411 532.342 77.8781 532.088 78.0071C531.834 78.1361 531.673 78.3911 531.524 78.6341C531.375 78.8781 531.219 79.1581 531.291 79.4351C531.404 79.8691 531.96 79.9791 532.407 79.9981C532.708 80.0101 533.02 80.0171 533.296 79.8961C533.572 79.7751 533.8 79.4911 533.755 79.1931C533.305 79.0241 532.773 79.5451 532.932 79.9981C533.091 80.4511 533.832 80.5251 534.078 80.1131" stroke="#010101" stroke-width="1.5" stroke-linecap="round" stroke-linejoin="round"></path>
<path d="M530.458 94.773C534.713 97.953 539.989 96.269 540.721 91.802C541.098 89.504 540.43 87.084 539.057 85.203C538.488 84.423 537.787 83.717 536.923 83.287C535.023 82.34 532.468 83.025 531.422 84.841C530.029 82.36 527.393 80.903 525.151 79.15C519.271 74.552 515.995 65.544 512.589 60.864C510.426 61.424 508.263 61.984 506.101 62.544C505.409 62.723 504.708 62.906 504.085 63.258C503.257 63.726 502.619 64.462 502.023 65.203C499.961 67.764 498.185 70.549 496.672 73.468C492.372 81.765 491.371 91.559 494.111 99.257C494.915 101.514 497.867 106.902 505.118 106.902C504.533 109.633 503.73 113.571 503.145 116.301C498.631 116.474 494.117 116.647 489.604 116.82C488.815 116.85 488.01 116.884 487.272 117.162C486.22 117.559 485.408 118.413 484.734 119.314C481.56 123.556 480.768 129.104 480.617 134.399C480.508 138.222 480.7 142.153 482.199 145.671C484.049 150.011 487.778 153.363 491.995 155.479C496.212 157.594 500.908 158.574 505.589 159.159C509.454 159.641 513.35 159.869 517.245 159.839C520.317 159.816 523.458 159.617 526.291 158.43C529.932 156.905 532.769 153.843 534.687 150.393C536.605 146.943 537.69 143.099 538.629 139.265C540.048 133.467 541.149 127.249 539.309 121.55C536.177 120.814 530.134 119.462 527.226 118.084C528.369 110.031 529.389 102.321 530.459 94.774L530.458 94.773Z" fill="white" stroke="#010101" stroke-width="1.5" stroke-linecap="round" stroke-linejoin="round"></path>
<path d="M505.111 107.162C508.65 107.297 512.415 106.84 515.213 104.668" stroke="#010101" stroke-width="1.5" stroke-linecap="round" stroke-linejoin="round"></path>
<path d="M384.189 305.051C380.128 337.989 376.513 370.983 373.684 403.398C376.649 407.885 379.592 410.807 384.967 411.002C389.672 411.173 390.844 409.708 393.449 405.753C401.14 371.002 406.802 352.318 417.749 313.911C419.581 307.482 422.665 301.256 422.539 294.572C422.368 285.464 415.579 276.013 406.473 275.735C401.735 275.59 397.176 277.879 393.663 281.062C390.15 284.245 387.535 288.278 385.025 292.3C383.192 295.238 381.33 298.781 384.19 305.051H384.189Z" fill="white" stroke="#010101" stroke-width="1.5" stroke-linecap="round" stroke-linejoin="round"></path>
<path d="M351.877 273.045C350.169 294.299 358.74 314.928 367.902 334.182C379.069 357.65 393.393 375.904 406.796 398.17C416.284 399.374 421.503 395.214 422.541 386.236C414.483 374.804 398.853 325.337 394.119 309.081C389.964 294.81 381.042 283.083 369.407 273.833C366.915 271.852 363.986 270.198 360.805 270.062C357.624 269.926 354.207 271.669 351.877 273.045Z" fill="white" stroke="#010101" stroke-width="1.5" stroke-linecap="round" stroke-linejoin="round"></path>
<path d="M538.821 78.3671C538.934 78.9251 538.128 79.2371 537.592 79.0441C536.892 78.7921 536.389 77.9281 536.736 77.2701C536.807 77.1351 536.92 77.0101 537.069 76.9791C537.288 76.9331 537.506 77.1191 537.556 77.3371C537.606 77.5551 537.523 77.7831 537.4 77.9701C537.007 78.5651 536.147 78.8121 535.515 78.4801C534.883 78.1481 534.605 77.2611 534.967 76.6461C535.209 76.2331 535.879 76.0221 536.149 76.4171C536.411 76.8001 536.019 77.3301 535.574 77.4651C534.855 77.6841 533.982 77.2141 533.833 76.4781C533.684 75.7421 534.384 74.9431 535.126 75.0561C535.244 75.0741 535.365 75.1151 535.447 75.2031C535.66 75.4331 535.489 75.8061 535.285 76.0441C534.948 76.4371 534.515 76.7671 534.011 76.8821C533.507 76.9971 532.928 76.8611 532.598 76.4631C532.093 75.8531 532.326 74.9351 532.663 74.2191C532.759 74.0141 532.873 73.8011 533.071 73.6921C533.269 73.5831 533.572 73.6381 533.643 73.8521C533.678 73.9561 533.652 74.0701 533.614 74.1731C533.342 74.9231 532.414 75.3581 531.664 75.0881C530.914 74.8181 530.477 73.8901 530.746 73.1391C530.961 72.5401 531.833 72.1441 532.233 72.6391C532.515 72.9871 532.354 73.5291 532.041 73.8501C531.424 74.4831 530.278 74.4791 529.665 73.8431C529.052 73.2071 529.091 72.0611 529.746 71.4691C529.966 71.2701 530.336 71.1441 530.539 71.3601C530.627 71.4541 530.657 71.5881 530.664 71.7171C530.695 72.2691 530.356 72.8081 529.874 73.0791C529.392 73.3501 528.792 73.3711 528.266 73.2001C528.004 72.1901 527.996 71.1151 528.243 70.1011C527.816 69.8391 528.173 69.4731 528.443 69.5881C528.713 69.7031 528.793 70.0631 528.723 70.3491C528.514 71.2071 527.268 71.5181 526.587 70.9551C525.906 70.3921 525.882 69.2641 526.419 68.5631C526.778 68.0951 527.619 67.8651 527.889 68.3891C527.961 68.5281 527.971 68.6931 527.95 68.8481C527.82 69.7891 526.46 70.2161 525.738 69.5991C525.016 68.9821 525.114 67.7041 525.846 67.1001C525.921 67.0381 526.004 66.9811 526.1 66.9651C526.491 66.9021 526.619 67.4991 526.465 67.8631C526.189 68.5131 525.342 68.9991 524.771 68.5841C524.25 68.2051 524.337 67.4041 524.572 66.8041C524.772 66.2951 525.391 65.7451 525.768 66.1401C525.861 66.2381 525.905 66.3741 525.919 66.5081C526.015 67.4021 524.737 68.0121 524.018 67.4711C523.299 66.9301 523.377 65.6991 524.07 65.1251C524.329 64.9111 524.698 64.7741 525.001 64.9191C525.386 65.1031 525.457 65.6451 525.297 66.0401C524.856 67.1251 523.108 67.2041 522.417 66.2591C521.726 65.3141 522.127 63.8431 523.097 63.1881C523.19 63.1251 523.29 63.0671 523.401 63.0491C523.934 62.9621 524.144 63.7691 523.916 64.2581C523.489 65.1761 522.05 65.5711 521.441 64.7631C521.031 64.2191 521.17 63.4381 521.455 62.8201C521.644 62.4101 521.993 61.9721 522.44 62.0341C522.877 62.0951 523.106 62.6381 522.999 63.0661C522.807 63.8311 521.726 64.1941 521.112 63.6991C520.537 63.2361 520.521 62.3561 520.733 61.6481C520.898 61.0991 521.431 60.4851 521.935 60.7581C522.137 60.8681 522.251 61.0981 522.276 61.3271C522.366 62.1531 521.299 62.7911 520.552 62.4281C519.805 62.0651 519.576 61.0001 519.987 60.2771C520.132 60.0211 520.357 59.7931 520.643 59.7261C520.929 59.6591 521.273 59.8011 521.361 60.0811C521.409 60.2321 521.379 60.3981 521.326 60.5471C520.976 61.5181 519.479 61.7971 518.802 61.0191C518.125 60.2411 518.609 58.7971 519.619 58.5841C519.93 58.5191 520.277 58.5621 520.524 58.7621C520.959 59.1141 520.901 59.8771 520.46 60.2221C520.019 60.5671 519.334 60.4891 518.919 60.1141C518.504 59.7391 518.347 59.1311 518.436 58.5781C518.503 58.1611 518.782 57.7091 519.204 57.7031C519.716 57.6961 519.991 58.3871 519.787 58.8561C519.583 59.3251 519.101 59.6011 518.651 59.8451C518.508 58.9411 518.601 58.0001 517.742 56.5561L517.626 57.7591L518.072 58.0061C518.765 57.6051 519.284 56.9151 519.478 56.1391C519.118 55.9661 518.657 56.3321 518.676 56.7311C518.695 57.1301 519.097 57.4421 519.497 57.4431C519.897 57.4441 520.265 57.1901 520.491 56.8611C520.717 56.5321 520.821 56.1341 520.891 55.7401C520.532 55.6331 520.16 55.9481 520.054 56.3071C519.833 57.0551 520.57 57.8761 521.348 57.8251C522.126 57.7751 522.739 56.9791 522.689 56.2021C522.676 55.9971 522.572 55.7491 522.367 55.7461C522.28 55.7441 522.199 55.7911 522.13 55.8441C521.642 56.2191 521.584 57.0241 521.99 57.4871C522.396 57.9501 523.169 58.0131 523.665 57.6471C524.161 57.2811 524.336 56.5551 524.094 55.9891C523.533 56.1411 523.201 56.8221 523.382 57.3751C523.563 57.9281 524.182 58.2801 524.758 58.2051C525.334 58.1301 525.825 57.6691 525.993 57.1131C526.119 56.6951 525.873 56.0721 525.453 56.1901C525.114 56.2851 525.087 56.7811 525.27 57.0831C525.786 57.9341 527.17 57.8081 527.846 57.0781C528.127 56.7741 528.308 56.2531 528.001 55.9761C527.782 55.7781 527.412 55.8371 527.198 56.0401C526.984 56.2431 526.898 56.5481 526.869 56.8421C526.817 57.3641 526.958 57.9581 527.402 58.2381C527.769 58.4691 528.27 58.4191 528.632 58.1801C528.994 57.9411 529.227 57.5401 529.339 57.1211C529.403 56.8821 529.422 56.6001 529.259 56.4141C529.05 56.1761 528.621 56.2481 528.437 56.5061C528.253 56.7641 528.283 57.1291 528.435 57.4071C528.696 57.8871 529.285 58.1461 529.826 58.0701C530.367 57.9941 530.843 57.6171 531.095 57.1321C531.175 56.9791 531.235 56.8001 531.183 56.6351C531.131 56.4701 530.923 56.3511 530.777 56.4441C530.773 56.6101 530.77 56.7761 530.766 56.9421" stroke="#010101" stroke-width="1.5" stroke-linecap="round" stroke-linejoin="round"></path>
<path d="M531.463 57.464C531.258 58.17 531.428 58.973 531.901 59.535C532.288 59.331 532.696 59.108 532.913 58.728C533.13 58.348 533.053 57.766 532.649 57.599C532.187 57.407 531.687 57.895 531.617 58.39C531.514 59.12 532.043 59.86 532.747 60.08C533.451 60.3 534.256 60.037 534.765 59.504C534.967 59.292 535.134 59.019 535.115 58.727C535.096 58.435 534.82 58.154 534.535 58.217C534.35 58.258 534.217 58.423 534.139 58.595C533.889 59.146 534.105 59.867 534.618 60.19C535.131 60.513 535.874 60.395 536.262 59.93C536.416 59.746 536.517 59.492 536.437 59.266C536.316 58.924 535.824 58.839 535.521 59.038C535.218 59.237 535.084 59.616 535.048 59.977C534.989 60.565 535.195 61.236 535.724 61.5C536.203 61.739 536.815 61.56 537.191 61.179C537.567 60.798 537.737 60.256 537.796 59.724C537.574 59.508 537.187 59.558 536.947 59.753C536.707 59.948 536.58 60.249 536.474 60.54C536.269 61.105 536.137 61.816 536.562 62.241C536.787 62.466 537.125 62.548 537.443 62.534C538.299 62.496 539.068 61.753 539.134 60.898C538.741 60.633 538.166 60.919 537.973 61.352C537.78 61.785 537.867 62.287 537.992 62.744C538.117 63.202 538.316 63.696 538.745 63.9C539.171 64.103 539.706 63.937 540.042 63.606C540.378 63.275 540.551 62.812 540.662 62.352C540.058 62.463 539.537 62.942 539.375 63.535C539.213 64.128 539.419 64.805 539.883 65.208C540.3 65.569 540.945 65.692 541.418 65.408C541.891 65.124 542.068 64.4 541.704 63.986C541.29 63.514 540.429 63.706 540.107 64.245C539.816 64.731 539.906 65.412 540.313 65.805C540.72 66.198 541.403 66.267 542.129 66.384C541.945 66.847 541.565 67.203 541.316 67.635C541.067 68.067 540.986 68.683 541.357 69.015C541.854 69.068 542.401 69.07 542.796 68.765C543.191 68.46 543.27 67.739 542.829 67.504C542.098 67.716 541.486 68.359 541.398 69.116C541.31 69.873 541.817 70.679 542.558 70.85C543.299 71.021 544.149 70.446 544.19 69.685C544.194 69.619 544.19 69.55 544.158 69.493C544.087 69.368 543.912 69.355 543.769 69.374C543.032 69.469 542.366 70.024 542.173 70.742C541.98 71.46 542.298 72.293 542.937 72.672C543.576 73.051 544.484 72.913 544.957 72.34C545.036 72.244 545.105 72.135 545.131 72.014C545.22 71.598 544.751 71.231 544.327 71.268C543.903 71.305 543.554 71.609 543.27 71.925C542.959 72.27 542.677 72.66 542.56 73.109C542.443 73.558 542.514 74.079 542.834 74.415C543.285 74.888 544.055 74.859 544.674 74.651C545.015 74.537 545.362 74.36 545.536 74.046C545.71 73.732 545.619 73.255 545.281 73.131C545.079 73.057 544.853 73.124 544.658 73.215C544.05 73.498 543.559 74.023 543.318 74.648C543.085 75.251 543.188 76.099 543.796 76.319C544.268 76.49 544.77 76.192 545.183 75.907C545.311 75.819 545.448 75.717 545.48 75.565C545.533 75.309 545.22 75.096 544.965 75.151C544.71 75.206 544.527 75.429 544.392 75.654C544.027 76.26 543.867 77.054 544.214 77.671C544.561 78.288 545.533 78.528 545.998 77.995" stroke="#010101" stroke-width="1.5" stroke-linecap="round" stroke-linejoin="round"></path>
<path d="M542.892 64.515C542.434 65.127 542.34 65.992 542.656 66.688C543.302 66.47 543.864 66.01 544.206 65.419C544.108 65.271 543.886 65.224 543.737 65.32C543.588 65.416 543.538 65.638 542.892 64.515Z" stroke="#010101" stroke-width="1.5" stroke-linecap="round" stroke-linejoin="round"></path>
<path d="M523.528 58.249C522.923 58.949 522.713 59.969 522.991 60.852C523.606 60.986 524.279 61.07 524.841 60.786C525.403 60.502 525.741 59.713 525.355 59.216C525.01 58.773 524.259 58.823 523.871 59.229C523.483 59.635 523.421 60.27 523.574 60.809C523.83 61.71 524.71 62.435 525.645 62.378C526.58 62.321 527.399 61.369 527.198 60.455C526.427 60.709 525.782 61.397 525.7 62.205C525.618 63.013 526.19 63.87 526.992 63.998C527.794 64.126 528.646 63.377 528.528 62.574C528.5 62.382 528.412 62.184 528.242 62.089C527.927 61.913 527.545 62.175 527.318 62.456C526.658 63.269 526.405 64.476 526.922 65.386C527.439 66.296 528.831 66.658 529.597 65.944C530.006 65.563 530.138 64.832 529.721 64.46C529.314 64.096 528.618 64.29 528.288 64.725C527.958 65.16 527.904 65.741 527.906 66.287C527.909 67 528.05 67.822 528.667 68.181C529.3 68.549 530.17 68.195 530.554 67.573C530.938 66.951 530.93 66.158 530.766 65.445C529.898 65.687 529.272 66.6 529.358 67.496C529.444 68.392 530.234 69.169 531.132 69.241C531.672 69.284 532.26 69.059 532.521 68.585C532.782 68.111 532.583 67.403 532.068 67.238C531.647 67.104 531.186 67.351 530.909 67.695C530.311 68.439 530.428 69.654 531.157 70.271C531.886 70.888 533.103 70.802 533.738 70.089C534.024 69.768 534.169 69.223 533.85 68.935C533.488 68.608 532.893 68.919 532.625 69.327C532.107 70.115 532.211 71.276 532.908 71.912C533.605 72.548 534.826 72.517 535.445 71.805C535.788 71.411 535.887 70.721 535.466 70.411C535.06 70.112 534.453 70.377 534.165 70.792C533.565 71.656 534.059 73.048 535.069 73.34C536.079 73.632 537.241 72.72 537.195 71.669C536.044 71.651 535.287 73.289 536.047 74.154C536.807 75.019 538.528 74.481 538.659 73.337C538.069 73.621 537.49 74.004 537.187 74.584C536.884 75.164 536.95 75.977 537.481 76.36C538.012 76.743 538.947 76.382 538.935 75.728C538.68 76.561 538.68 77.471 538.935 78.304C539.578 78.042 540.104 77.508 540.357 76.861C540.149 77.192 539.935 77.546 539.929 77.937C539.923 78.328 540.217 78.752 540.607 78.734" stroke="#010101" stroke-width="1.5" stroke-linecap="round" stroke-linejoin="round"></path>
<path d="M528.851 58.835C528.154 58.827 527.464 59.21 527.103 59.807C527.705 60.569 528.995 60.638 529.675 59.944C529.9 59.714 530.048 59.316 529.821 59.088C529.722 58.989 529.576 58.952 529.436 58.944C528.644 58.895 527.951 59.722 528.065 60.507C528.179 61.292 528.997 61.877 529.788 61.811C530.579 61.745 531.261 61.099 531.455 60.329C530.511 59.997 529.38 60.938 529.536 61.927C529.692 62.916 531.055 63.465 531.853 62.86C532.002 62.747 532.131 62.6 532.19 62.423C532.406 61.774 531.388 61.226 530.871 61.672C530.354 62.118 530.53 63.05 531.098 63.43C531.666 63.81 532.445 63.725 533.05 63.407C533.569 63.134 534.008 62.387 533.554 62.015C533.291 61.799 532.886 61.889 532.606 62.082C531.692 62.713 531.773 64.299 532.705 64.902C533.638 65.505 535.049 65.019 535.493 64.001C535.616 63.719 535.669 63.374 535.502 63.115C535.393 62.946 535.207 62.841 535.017 62.776C534.219 62.507 533.249 62.95 532.93 63.73C532.611 64.51 532.991 65.505 533.749 65.873C534.583 66.278 535.595 65.93 536.356 65.401C536.695 65.166 537.027 64.867 537.121 64.466C537.294 63.726 536.497 63.029 535.738 63.068C534.979 63.107 534.339 63.659 533.899 64.278C533.362 65.033 533.054 66.135 533.649 66.845C534.431 67.779 535.949 67.238 536.951 66.546C537.347 66.273 537.747 65.969 537.959 65.538C538.171 65.107 538.133 64.514 537.748 64.226C537.233 63.839 536.508 64.19 535.968 64.542C535.422 64.898 534.858 65.271 534.516 65.825C534.174 66.379 534.122 67.17 534.575 67.638C534.868 67.941 535.309 68.052 535.729 68.075C536.655 68.127 537.598 67.805 538.299 67.197C538.864 66.706 539.223 65.715 538.617 65.275C538.142 64.931 537.48 65.232 537.001 65.57C536.088 66.216 535.208 67.445 535.866 68.349C536.155 68.746 536.667 68.922 537.158 68.952C538.282 69.02 539.419 68.378 539.942 67.38C540.042 67.189 540.122 66.978 540.103 66.764C540.059 66.278 539.499 65.972 539.016 66.036C538.533 66.1 538.128 66.427 537.78 66.769C537.193 67.346 536.654 68.11 536.777 68.924C536.908 69.788 537.843 70.407 538.709 70.289C539.575 70.171 540.282 69.414 540.451 68.556C540.483 68.396 540.489 68.207 540.372 68.094C540.261 67.986 540.084 67.991 539.932 68.02C539.214 68.157 538.567 68.732 538.458 69.455C538.349 70.178 538.883 70.97 539.61 71.041C540.337 71.112 541.039 70.317 540.792 69.629C540.406 69.725 540.007 69.828 539.699 70.08C539.136 70.543 539.12 71.578 539.753 71.941C540.386 72.304 541.334 71.545 541.015 70.89C540.291 71.01 539.629 71.574 539.503 72.297C539.377 73.02 539.886 73.827 540.614 73.929C541.342 74.031 542.082 73.28 541.887 72.572C541.448 72.849 540.996 73.156 540.762 73.619C540.528 74.082 540.605 74.744 541.06 74.994C541.515 75.244 542.208 74.729 541.976 74.265C541.588 74.459 541.323 74.877 541.311 75.31C541.587 75.37 541.836 75.544 541.988 75.782" stroke="#010101" stroke-width="1.5" stroke-linecap="round" stroke-linejoin="round"></path>
<path d="M532.7 81.273C533.61 81.569 534.655 81.417 535.442 80.872L535.3 80.254C534.953 79.978 534.374 80.194 534.212 80.606C534.05 81.018 534.253 81.512 534.606 81.779C534.959 82.046 535.429 82.116 535.87 82.08C536.988 81.987 538.021 81.209 538.419 80.161C538.182 79.79 537.533 79.898 537.342 80.295C537.151 80.692 537.361 81.196 537.724 81.446C538.087 81.696 538.555 81.736 538.993 81.691C539.834 81.604 540.642 81.222 541.243 80.627C541.5 80.373 541.729 79.975 541.535 79.67C541.337 79.357 540.79 79.447 540.63 79.78C540.47 80.113 540.649 80.538 540.957 80.743C541.265 80.948 541.662 80.972 542.027 80.918C542.721 80.815 543.373 80.447 543.819 79.905C543.948 79.748 544.065 79.563 544.059 79.36C544.044 78.845 543.17 78.751 542.933 79.209C542.696 79.667 543.044 80.259 543.526 80.443C544.008 80.627 544.551 80.506 545.032 80.321C545.394 80.182 545.755 79.999 545.989 79.69C546.223 79.381 546.292 78.92 546.061 78.61C545.83 78.3 545.267 78.28 545.087 78.623C545.133 79.303 545.919 79.761 546.588 79.633C547.257 79.505 547.773 78.942 548.055 78.321C547.817 78.209 547.579 78.097 547.341 77.984C547.221 78.514 547.712 79.089 548.255 79.054C548.798 79.019 549.21 78.386 549.022 77.875" stroke="#010101" stroke-width="1.5" stroke-linecap="round" stroke-linejoin="round"></path>
<path d="M541.302 75.198L540.36 76.48C540.528 76.89 540.976 77.137 541.419 77.168C541.862 77.199 542.297 77.047 542.694 76.85C542.913 76.741 543.145 76.591 543.201 76.353C543.292 75.971 542.822 75.639 542.44 75.73C542.058 75.821 541.799 76.179 541.646 76.541C541.487 76.918 541.405 77.348 541.53 77.738C541.655 78.128 542.029 78.455 542.438 78.427C542.847 78.399 543.191 77.927 541.302 75.198Z" stroke="#010101" stroke-width="1.5" stroke-linecap="round" stroke-linejoin="round"></path>
<path d="M548.185 77.4391C548.602 75.3001 549.323 73.2201 550.32 71.2821C551.419 71.3711 552.446 72.0831 552.915 73.0811C552.344 73.3941 551.634 73.4421 551.026 73.2071C550.658 72.3821 551.429 71.4801 552.243 71.0871C552.815 70.8111 553.477 70.6491 554.088 70.8251C554.699 71.0011 555.215 71.5931 555.143 72.2251C555.071 72.8571 554.258 73.3231 553.74 72.9541C553.343 72.6711 553.299 72.0581 553.543 71.6361C553.787 71.2141 554.245 70.9591 554.708 70.8071C555.495 70.5491 556.467 70.5781 557.025 71.1891C557.584 71.8001 557.301 73.0481 556.475 73.1071C556.415 72.3781 557.152 71.6971 557.874 71.8131C558.596 71.9291 559.081 72.8081 558.795 73.4811C559.443 73.0091 560.424 73.0701 561.009 73.6181C561.594 74.1661 561.719 75.1401 561.291 75.8181" stroke="#010101" stroke-width="1.5" stroke-linecap="round" stroke-linejoin="round"></path>
<path d="M554.185 123.434C555.983 123.709 557.734 121.779 557.285 120.016C556.648 120.278 556.012 120.541 555.375 120.803C557.212 120.267 558.177 117.816 557.198 116.171C556.405 116.199 555.627 116.531 555.059 117.085C556.086 116.047 557.16 114.923 557.448 113.491C557.736 112.059 556.83 110.295 555.371 110.258C555.984 109.428 556.82 108.785 557.447 107.966C558.074 107.147 558.481 106.026 558.061 105.084C557.641 104.142 556.119 103.787 555.573 104.663C557.82 103.246 558.875 100.194 557.983 97.692C558.442 97.033 558.922 96.295 558.833 95.498C558.744 94.7 557.734 94.021 557.119 94.537C558.873 93.975 559.423 91.285 558.03 90.08C559.742 89.478 559.909 86.607 558.277 85.812C559.343 84.948 558.809 82.878 557.458 82.637C558.726 81.979 558.576 79.74 557.232 79.256C556.784 79.166 556.367 79.745 556.595 80.141C557.057 79.414 557.526 78.479 557.074 77.746C556.622 77.013 555.084 77.759 555.682 78.378C556.269 77.608 556.385 76.376 555.651 75.745C554.917 75.114 553.447 75.823 553.74 76.746C554.944 76.173 554.023 74.08 552.691 74.018C551.359 73.957 550.281 75.031 549.072 76.398C550.013 76.063 551.114 76.222 551.922 76.809C551.897 77.369 551.611 77.912 551.163 78.25C551.131 77.669 551.801 77.203 552.363 77.353C552.925 77.503 553.278 78.133 553.213 78.712C553.148 79.291 552.732 79.79 552.221 80.068C552.03 79.513 552.689 78.926 553.259 79.066C553.829 79.206 554.165 79.858 554.101 80.441C554.037 81.024 553.659 81.531 553.219 81.919C553.108 81.275 553.888 80.717 554.509 80.918C555.13 81.119 555.463 81.865 555.342 82.507C555.221 83.149 554.739 83.675 554.182 84.016C553.729 84.079 553.489 83.368 553.808 83.04C554.127 82.712 554.69 82.771 555.072 83.021C555.642 83.395 555.936 84.146 555.769 84.808C555.603 85.469 554.988 85.993 554.309 86.052C554.223 85.311 555.27 84.822 555.897 85.224C556.524 85.626 556.649 86.543 556.355 87.229C556.061 87.915 555.456 88.412 554.846 88.84C554.698 88.08 555.241 87.026 555.964 87.303C556.385 87.464 556.532 87.989 556.53 88.44C556.526 89.509 555.988 90.563 555.125 91.192C554.698 90.912 555.001 90.131 555.509 90.09C556.017 90.049 556.443 90.554 556.487 91.062C556.531 91.57 556.292 92.059 556.018 92.49C555.711 92.974 555.256 93.471 554.684 93.437C554.779 92.883 555.211 92.401 555.751 92.246C556.498 93.699 556.065 95.657 554.774 96.659C554.666 96.084 555.205 95.483 555.789 95.527C555.992 96.246 556.197 96.982 556.155 97.728C556.113 98.474 555.776 99.246 555.127 99.616C555.071 99.266 555.02 98.885 555.192 98.576C555.364 98.267 555.863 98.131 556.07 98.418C556.172 98.559 556.17 98.747 556.165 98.921C556.135 99.854 556.01 100.952 555.198 101.411C554.821 101.182 555.019 100.504 555.45 100.413C555.881 100.322 556.308 100.691 556.416 101.118C556.524 101.545 556.39 101.997 556.207 102.397C556.016 102.813 555.672 103.259 555.216 103.215C554.76 103.171 554.695 102.292 555.148 102.358C555.731 102.816 555.998 103.64 555.793 104.352C555.588 105.064 554.925 105.621 554.188 105.699C553.767 105.235 554.515 104.436 555.085 104.696C555.655 104.956 555.747 105.794 555.41 106.322C555.073 106.85 554.458 107.126 553.863 107.321C553.696 106.738 554.589 106.285 555.071 106.654C555.553 107.023 555.538 107.795 555.204 108.301C554.87 108.807 554.311 109.111 553.775 109.394C553.893 108.923 554.43 108.602 554.901 108.722C555.538 109.711 555.053 111.228 553.96 111.665C553.809 111.166 554.264 110.587 554.785 110.616C555.079 111.343 555.1 112.177 554.842 112.917C554.687 113.361 554.273 113.836 553.832 113.673C553.44 113.529 553.404 112.901 553.739 112.652C554.074 112.403 554.596 112.536 554.847 112.87C555.098 113.204 555.109 113.673 554.97 114.067C554.747 114.695 554.152 115.174 553.491 115.258C553.124 114.801 553.962 114.163 554.444 114.497C554.926 114.831 554.925 115.559 554.705 116.103C554.314 117.074 553.373 117.801 552.335 117.935C552.639 117.334 553.071 116.649 553.744 116.638C554.649 116.623 555.03 117.954 554.516 118.699C554.001 119.443 553.041 119.706 552.161 119.915C552.158 119.389 552.58 118.936 553.067 118.737C553.554 118.538 554.096 118.539 554.622 118.543C554.894 118.545 555.203 118.565 555.374 118.776C555.488 118.918 555.508 119.114 555.502 119.296C555.465 120.358 554.608 121.334 553.56 121.508C553.536 121.095 554.09 120.823 554.457 121.016C554.824 121.209 554.955 121.696 554.852 122.097C554.749 122.498 554.464 122.825 554.164 123.11C553.802 123.453 553.265 123.773 554.187 123.43L554.185 123.434Z" stroke="#010101" stroke-width="1.5" stroke-linecap="round" stroke-linejoin="round"></path>
<path d="M549.886 122.037C549.77 122.338 550.117 122.662 550.437 122.625C550.757 122.588 551.001 122.311 551.137 122.019C551.439 121.368 551.335 120.548 550.88 119.993C550.571 120.141 550.249 120.34 550.136 120.664C550.023 120.988 550.267 121.433 550.606 121.378C550.742 121.356 550.855 121.263 550.955 121.169C551.32 120.826 551.632 120.384 551.665 119.884C551.698 119.384 551.368 118.839 550.871 118.773C550.374 118.707 549.885 119.31 550.149 119.736C550.951 119.605 551.495 118.639 551.193 117.885C550.749 117.937 550.177 118.13 550.2 118.576C550.221 118.996 550.838 119.15 551.18 118.904C551.522 118.658 551.639 118.21 551.719 117.797C551.815 117.301 551.89 116.774 551.708 116.302C551.526 115.83 550.997 115.457 550.519 115.619C550.041 115.781 549.943 116.609 550.423 116.765C550.582 116.816 550.756 116.787 550.914 116.732C552.053 116.339 552.314 114.525 551.331 113.827C550.758 113.819 550.643 114.805 551.158 115.057C551.673 115.309 552.32 114.891 552.498 114.346C552.676 113.801 552.508 113.205 552.281 112.678C552.165 112.408 551.961 112.102 551.669 112.133C551.211 112.181 551.266 112.867 551.458 113.286C552.008 112.222 552.055 110.911 551.582 109.81C551.187 110.383 551.072 111.14 551.279 111.804C552.115 110.588 552.403 109.009 552.051 107.576C552.008 107.402 551.947 107.217 551.801 107.113C551.5 106.899 551.056 107.211 551.002 107.576C550.948 107.941 551.143 108.292 551.33 108.61C552.643 107.519 553.18 105.583 552.616 103.971C552.519 103.694 552.361 103.398 552.079 103.316C551.691 103.203 551.305 103.591 551.26 103.993C551.215 104.395 551.404 104.781 551.587 105.14C552.559 104.159 552.915 102.615 552.47 101.308C552.04 101.147 551.506 101.528 551.52 101.988C551.534 102.448 552.089 102.796 552.509 102.61C552.686 102.531 552.823 102.383 552.935 102.225C553.817 100.982 553.083 98.952 551.61 98.56C551.413 98.914 551.212 99.283 551.19 99.687C551.168 100.091 551.383 100.539 551.774 100.646C552.236 100.772 552.681 100.386 552.937 99.98C553.446 99.172 553.611 98.155 553.382 97.228C553.264 96.752 552.991 96.251 552.517 96.125C552.065 96.005 551.583 96.284 551.323 96.673C551.063 97.062 550.977 97.538 550.903 97.999C552.289 97.222 553.217 95.685 553.258 94.097C553.267 93.74 553.213 93.34 552.934 93.118C552.522 92.792 551.864 93.092 551.637 93.566C551.41 94.04 551.484 94.596 551.562 95.116C552.992 94.588 553.907 92.938 553.6 91.445C553.558 91.239 553.49 91.029 553.339 90.882C553.022 90.573 552.46 90.689 552.151 91.006C551.842 91.323 551.722 91.773 551.613 92.202C551.527 92.541 551.459 92.952 551.708 93.198C552.066 93.551 552.671 93.211 552.986 92.818C553.828 91.768 554.126 90.303 553.762 89.007C553.112 88.768 552.325 88.964 551.862 89.48C551.399 89.996 551.291 90.8 551.6 91.42C553.397 90.576 553.964 87.883 552.659 86.386C551.948 86.511 551.332 87.07 551.139 87.765C551.002 88.258 551.266 88.968 551.772 88.887C551.931 88.862 552.066 88.759 552.185 88.651C552.945 87.961 553.338 86.889 553.205 85.871C553.145 85.41 552.924 84.904 552.478 84.773C551.989 84.629 551.465 85.056 551.368 85.557C551.271 86.058 551.505 86.571 551.834 86.961C552.622 86.656 553.284 85.952 553.383 85.113C553.482 84.274 552.906 83.364 552.072 83.231C551.238 83.098 550.358 83.933 550.566 84.752C550.613 84.938 550.724 85.126 550.907 85.187C551.01 85.221 551.123 85.21 551.23 85.19C552.412 84.973 553.266 83.54 552.731 82.463C552.196 81.386 550.321 81.336 549.862 82.447C549.731 82.765 549.739 83.178 550.002 83.4C550.371 83.712 550.959 83.439 551.238 83.045C551.866 82.158 551.485 80.739 550.497 80.285C550.011 80.42 549.648 80.908 549.658 81.412C549.664 81.674 549.829 81.98 550.091 81.966C550.211 81.959 550.316 81.885 550.408 81.809C550.794 81.488 551.105 81.04 551.133 80.539C551.161 80.038 550.835 79.504 550.342 79.412C549.849 79.32 549.311 79.827 549.465 80.304C550.355 80.264 551.137 79.446 551.138 78.556C550.436 78.195 549.459 78.575 549.186 79.315C549.814 79.107 550.554 78.765 550.61 78.106C550.674 77.355 549.686 76.877 548.977 77.133C548.268 77.389 547.82 78.075 547.774 79.221C547.368 79.57 546.961 79.919 546.555 80.268C547.216 80.637 548.144 80.413 548.565 79.784C548.499 79.627 548.341 79.528 548.182 79.468C547.285 79.13 546.161 80.029 546.363 80.966C546.565 81.903 548.074 82.2 548.562 81.375C548.608 81.297 548.645 81.211 548.643 81.121C548.635 80.809 548.202 80.71 547.903 80.799C547.207 81.005 546.713 81.777 546.866 82.487C547.018 83.197 547.834 83.703 548.525 83.48C549.216 83.257 549.575 82.318 549.173 81.713C548.516 81.842 547.868 82.129 547.433 82.637C546.998 83.145 546.819 83.903 547.108 84.507C547.397 85.111 548.209 85.446 548.791 85.116C549.373 84.786 549.44 83.789 548.854 83.467C548.165 83.088 547.386 83.763 546.9 84.38C546.645 84.704 546.382 85.056 546.353 85.467C546.311 86.068 546.825 86.612 547.413 86.744C548.001 86.876 548.622 86.666 549.122 86.329C549.431 86.121 549.721 85.839 549.799 85.475C549.877 85.111 549.657 84.669 549.287 84.625C549.091 84.602 548.899 84.689 548.727 84.785C547.632 85.394 546.803 86.463 546.485 87.675C546.433 87.871 546.396 88.087 546.482 88.271C546.596 88.515 546.882 88.619 547.143 88.684C548.509 89.022 550.216 88.772 550.894 87.539C550.959 87.42 551.015 87.284 550.985 87.152C550.957 87.028 550.86 86.932 550.755 86.86C549.964 86.32 548.904 86.897 548.167 87.509C547.389 88.155 546.598 89.231 547.154 90.076C547.4 90.449 547.854 90.638 548.298 90.69C549.429 90.823 550.606 90.12 551.025 89.062C550.59 88.559 549.812 88.464 549.188 88.692C548.564 88.92 548.072 89.412 547.665 89.937C547.377 90.31 547.108 90.766 547.21 91.226C547.342 91.817 548.058 92.119 548.654 92.012C549.25 91.905 549.747 91.508 550.215 91.124C550.728 90.704 551.282 89.979 550.861 89.467C550.526 89.059 549.866 89.217 549.414 89.49C548.685 89.931 548.087 90.585 547.713 91.35C547.584 91.613 547.483 91.932 547.62 92.191C547.773 92.482 548.148 92.562 548.476 92.583C549.05 92.621 549.65 92.573 550.15 92.289C550.65 92.005 551.022 91.44 550.941 90.871C550.376 91.039 549.796 91.215 549.333 91.58C548.87 91.945 548.544 92.547 548.677 93.122C548.81 93.697 549.528 94.109 550.033 93.804C550.419 93.57 550.527 93.069 550.599 92.623C549.882 93.055 549.468 93.941 549.598 94.768C550.043 94.923 550.434 94.174 550.052 93.898C549.096 94.529 548.586 95.77 548.824 96.891C549.393 97.07 550.066 97.212 550.546 96.857C551.026 96.502 550.832 95.493 550.243 95.59C550.064 95.619 549.915 95.741 549.785 95.869C549.258 96.385 548.895 97.066 548.76 97.791C548.695 98.138 548.687 98.519 548.87 98.821C549.053 99.123 549.479 99.296 549.776 99.105C550.073 98.914 550.003 98.34 549.652 98.305C549.393 98.279 549.193 98.52 549.046 98.735C548.785 99.116 548.517 99.516 548.462 99.975C548.407 100.434 548.641 100.962 549.088 101.077C549.859 101.275 550.332 100.227 550.317 99.431C549.566 99.664 548.826 100.098 548.476 100.802C548.126 101.507 548.317 102.508 549.025 102.851C549.733 103.194 550.75 102.469 550.495 101.725C549.531 101.366 548.68 102.515 548.47 103.522C548.365 104.027 548.324 104.58 548.572 105.032C548.82 105.484 549.448 105.755 549.875 105.467C550.302 105.179 550.119 104.324 549.605 104.358C548.73 105.336 548.228 106.639 548.22 107.952C548.217 108.499 548.344 109.123 548.817 109.399C549.29 109.675 550.067 109.196 549.834 108.701C549.672 108.358 549.154 108.322 548.852 108.552C548.55 108.782 548.427 109.177 548.374 109.553C548.296 110.109 548.358 110.735 548.754 111.133C549.15 111.531 549.952 111.514 550.18 111.001C549.851 110.589 549.156 110.676 548.774 111.04C548.392 111.404 548.244 111.943 548.118 112.456C548.008 112.901 547.903 113.367 548.015 113.811C548.127 114.255 548.531 114.66 548.987 114.611C549.443 114.562 549.73 113.889 549.368 113.608C548.981 113.307 548.441 113.715 548.169 114.124C547.945 114.461 547.755 114.82 547.602 115.194C547.427 115.623 547.301 116.097 547.414 116.547C547.527 116.997 547.948 117.394 548.408 117.34C548.868 117.286 549.175 116.638 548.843 116.315C548.395 115.878 547.691 116.485 547.442 117.059C547.03 118.006 546.844 119.05 546.903 120.08C547.821 120.276 548.836 119.632 549.048 118.718C548.064 118.981 547.295 119.908 547.221 120.924C547.21 121.071 547.214 121.225 547.277 121.358C547.438 121.696 547.927 121.754 548.255 121.573C548.583 121.392 548.785 121.053 548.972 120.729C548.51 121.067 548.048 121.441 547.796 121.955C547.544 122.469 547.563 123.157 547.986 123.543C548.409 123.929 549.242 123.775 549.892 122.039L549.886 122.037Z" stroke="#010101" stroke-width="1.5" stroke-linecap="round" stroke-linejoin="round"></path>
<path d="M545.016 81.149C544.215 81.516 543.538 82.147 543.115 82.919C543.969 83.085 544.899 82.491 545.108 81.646C543.938 81.292 542.694 82.76 543.236 83.856C544.059 84.427 545.378 83.994 545.702 83.046C544.978 83.005 544.181 83.136 543.694 83.673C543.207 84.21 543.264 85.237 543.934 85.516C544.28 85.66 544.679 85.574 545.028 85.439C545.684 85.185 546.353 84.544 546.119 83.88C545.403 83.619 544.568 83.859 543.995 84.362C543.422 84.865 543.086 85.592 542.918 86.335C542.872 86.538 542.837 86.752 542.889 86.954C542.955 87.209 543.151 87.413 543.374 87.555C543.96 87.927 544.77 87.906 545.335 87.504C545.9 87.102 546.187 86.344 546.028 85.668C545.226 85.545 544.416 85.982 543.901 86.608C543.385 87.234 543.117 88.025 542.909 88.809C542.821 89.142 542.742 89.502 542.865 89.824C543.179 90.651 544.376 90.525 545.215 90.246C545.562 90.13 545.957 89.968 546.058 89.616C546.16 89.263 545.878 88.884 545.527 88.775C545.176 88.666 544.792 88.77 544.464 88.935C543.624 89.359 543.002 90.244 543.009 91.185C543.016 92.126 543.727 93.048 544.658 93.186C545.589 93.324 546.585 92.551 546.583 91.61C546.583 91.45 546.554 91.284 546.463 91.152C546.205 90.781 545.622 90.875 545.238 91.111C544.524 91.55 544.039 92.375 544.092 93.211C544.145 94.047 544.784 94.836 545.609 94.981C546.434 95.126 547.344 94.54 547.478 93.714C547.537 93.353 547.418 92.924 547.086 92.771C546.705 92.596 546.274 92.856 545.949 93.12C545.37 93.59 544.811 94.146 544.601 94.862C544.391 95.578 544.651 96.478 545.337 96.769C545.959 97.033 546.709 96.707 547.128 96.177C547.547 95.647 547.706 94.961 547.82 94.295C547.323 94.03 546.679 94.239 546.278 94.634C545.877 95.029 545.661 95.571 545.457 96.097C545.346 96.383 545.233 96.691 545.306 96.99C545.418 97.447 545.944 97.701 546.413 97.667C546.882 97.633 547.305 97.384 547.709 97.142C548.15 96.877 548.62 96.58 548.808 96.101C548.996 95.622 548.707 94.94 548.193 94.95C547.949 94.955 547.734 95.108 547.549 95.268C546.812 95.903 546.255 96.746 545.961 97.674C545.782 98.239 545.735 98.945 546.177 99.339C546.857 99.946 547.958 99.221 548.292 98.373C548.444 97.988 548.429 97.411 548.026 97.315C547.819 97.266 547.611 97.383 547.441 97.51C546.636 98.114 546.118 99.086 546.067 100.091C546.031 100.802 546.276 101.594 546.901 101.934C547.526 102.274 548.503 101.841 548.458 101.13C548.417 100.48 547.588 100.128 546.968 100.325C546.348 100.522 545.911 101.065 545.521 101.586C545.142 102.091 544.758 102.623 544.635 103.242C544.512 103.861 544.724 104.595 545.287 104.882C545.999 105.245 546.85 104.755 547.419 104.193C547.739 103.876 548.052 103.451 547.941 103.014C547.845 102.633 547.448 102.396 547.06 102.338C545.638 102.124 544.603 103.688 544.272 105.087C544.147 105.615 544.094 106.25 544.488 106.623C544.904 107.017 545.662 106.851 545.971 106.369C546.28 105.887 546.181 105.219 545.841 104.758C544.315 104.968 543.679 106.83 543.603 108.369C543.592 108.591 543.588 108.822 543.681 109.024C543.879 109.451 544.465 109.579 544.901 109.405C545.337 109.231 545.647 108.838 545.893 108.438C546.099 108.103 546.258 107.622 545.966 107.358C545.672 107.093 545.203 107.308 544.904 107.568C544.391 108.015 543.967 108.64 543.995 109.32C544.023 110 544.667 110.662 545.331 110.511C545.995 110.36 546.166 109.22 545.517 109.013C544.94 108.829 544.433 109.443 544.197 110C543.881 110.746 543.712 111.661 544.174 112.327C544.636 112.993 545.919 112.968 546.082 112.174C546.236 111.422 545.196 110.872 544.499 111.193C543.802 111.514 543.469 112.315 543.313 113.067C543.223 113.5 543.17 113.941 543.156 114.384C543.151 114.552 543.152 114.726 543.227 114.876C543.469 115.364 544.293 115.174 544.522 114.68C544.751 114.186 544.586 113.608 544.418 113.09C543.731 113.263 543.371 114.01 543.173 114.69C543.026 115.192 542.917 115.732 543.066 116.234C543.215 116.736 543.7 117.172 544.218 117.097C544.736 117.022 545.06 116.275 544.668 115.929C544.163 115.484 543.422 116.146 543.183 116.775C542.961 117.36 542.847 117.985 542.846 118.61C542.846 118.73 542.851 118.855 542.908 118.961C543.061 119.246 543.512 119.223 543.744 118.998C543.976 118.773 544.046 118.433 544.104 118.115C543.537 118.162 542.977 118.517 542.799 119.057C542.621 119.597 542.93 120.281 543.484 120.409C544.038 120.537 544.648 119.936 544.449 119.404C544.272 118.929 543.598 118.79 543.164 119.053C542.73 119.316 542.525 119.848 542.504 120.355C542.489 120.72 542.567 121.113 542.832 121.365C543.097 121.617 543.583 121.645 543.8 121.352C544.017 121.059 543.712 120.533 543.367 120.651C543.275 120.682 543.2 120.748 543.131 120.815C542.873 121.066 542.656 121.387 542.638 121.746C542.62 122.105 542.862 122.491 543.219 122.535C543.576 122.579 543.923 122.146 543.735 121.84C543.525 121.87 543.394 122.144 543.503 122.326" stroke="#010101" stroke-width="1.5" stroke-linecap="round" stroke-linejoin="round"></path>
<path d="M541.167 82.105C540.619 82.579 540.072 83.053 539.524 83.526C540.594 83.647 541.712 83.115 542.293 82.209C542.124 81.312 540.84 80.991 540.095 81.52C539.35 82.049 539.128 83.083 539.269 83.985C539.775 84.099 540.304 84.213 540.805 84.08C541.306 83.947 541.759 83.48 541.69 82.966C541.627 82.496 541.175 82.181 540.736 82.001C539.719 81.585 538.539 81.585 537.521 82.001C537.197 82.133 536.876 82.318 536.691 82.615C536.506 82.912 536.5 83.343 536.757 83.58C536.945 83.753 537.22 83.788 537.476 83.792C538.085 83.801 538.696 83.681 539.257 83.444C539.588 83.304 539.933 83.083 540.009 82.731C540.085 82.379 539.68 81.971 539.381 82.171C538.954 82.871 539.224 83.901 539.939 84.302C540.654 84.703 541.674 84.393 542.047 83.663C542.128 83.504 542.18 83.307 542.096 83.149C541.961 82.895 541.585 82.911 541.323 83.03C540.217 83.532 539.954 84.956 539.837 86.165C540.374 86.692 541.221 86.876 541.929 86.62C542.637 86.364 543.17 85.68 543.246 84.932C541.766 84.938 540.392 86.182 540.241 87.655C540.219 87.865 540.224 88.093 540.346 88.265C540.437 88.394 540.581 88.474 540.726 88.536C541.403 88.825 542.209 88.797 542.864 88.46C543.008 88.386 543.156 88.282 543.195 88.125C543.252 87.891 543.018 87.668 542.779 87.643C542.54 87.618 542.309 87.729 542.096 87.841C541.629 88.086 541.151 88.363 540.866 88.807C540.581 89.251 540.558 89.907 540.953 90.257C541.25 90.52 541.694 90.542 542.083 90.463C542.673 90.343 543.305 89.734 542.985 89.224C542.586 89.457 542.129 89.575 541.724 89.798C541.319 90.021 540.95 90.403 540.943 90.865C540.932 91.505 541.709 91.97 542.315 91.762C542.921 91.554 543.262 90.849 543.184 90.214C542.347 90.515 541.706 91.304 541.583 92.185C541.533 92.541 541.586 92.954 541.874 93.169C542.128 93.359 542.482 93.335 542.788 93.251C543.132 93.157 543.482 92.976 543.631 92.653C543.78 92.33 543.607 91.858 543.253 91.82C542.993 91.792 542.769 91.988 542.582 92.17C542.099 92.64 541.574 93.27 541.79 93.908C541.947 94.371 542.528 94.637 542.981 94.452C543.434 94.267 543.663 93.671 543.452 93.23C542.939 93.37 542.468 93.758 542.355 94.278C542.242 94.798 542.591 95.409 543.12 95.47C543.649 95.531 544.143 94.877 543.862 94.426C543.792 94.314 543.638 94.221 543.534 94.302C543.43 94.383 543.627 94.579 543.668 94.453" stroke="#010101" stroke-width="1.5" stroke-linecap="round" stroke-linejoin="round"></path>
<path d="M544.053 95.869C543.51 96.487 542.967 97.104 542.424 97.722L542.689 98.264C543.305 98.145 543.873 97.795 544.255 97.298C544.222 96.835 543.624 96.589 543.186 96.745C542.748 96.901 542.458 97.311 542.224 97.712C542.003 98.09 541.804 98.559 542.002 98.95C542.338 99.611 543.331 99.358 543.987 99.013C544.391 98.8 544.845 98.28 544.501 97.98C544.405 97.896 544.272 97.87 544.145 97.857C543.374 97.774 542.538 98.052 542.079 98.677C541.62 99.302 541.644 100.279 542.225 100.793C542.806 101.307 543.887 101.129 544.175 100.408C544.096 99.899 543.576 99.5 543.064 99.555C542.764 99.587 542.491 99.753 542.272 99.962C541.766 100.445 541.517 101.224 541.769 101.877C542.021 102.53 542.829 102.948 543.473 102.674C544.117 102.4 544.338 101.404 543.806 100.95C542.874 101.089 541.977 101.459 541.217 102.018C540.489 102.554 539.848 103.491 540.221 104.314C540.452 104.823 541.014 105.111 541.567 105.188C541.99 105.247 542.449 105.195 542.79 104.939C543.131 104.683 543.309 104.185 543.112 103.806C542.857 103.313 542.112 103.27 541.659 103.59C541.206 103.91 540.984 104.463 540.826 104.995C540.71 105.385 540.615 105.801 540.721 106.194C540.827 106.587 541.198 106.935 541.6 106.88C541.984 106.827 542.236 106.452 542.379 106.092C542.525 105.725 542.57 105.219 542.23 105.016C541.83 104.777 541.366 105.202 541.115 105.595C540.826 106.049 540.564 106.539 540.504 107.073C540.444 107.607 540.626 108.198 541.07 108.5C541.514 108.802 542.227 108.695 542.464 108.212C542.701 107.729 542.2 107.04 541.689 107.206C541.396 107.301 541.222 107.596 541.092 107.875C540.744 108.62 540.516 109.42 540.419 110.236C540.386 110.515 540.374 110.821 540.537 111.051C540.767 111.377 541.333 111.372 541.557 111.041C541.781 110.71 541.577 110.183 541.189 110.09C540.516 110.459 539.903 111.037 539.738 111.787C539.573 112.537 540.014 113.438 540.77 113.569C541.526 113.7 542.275 112.727 541.818 112.11C541.51 111.694 540.864 111.66 540.411 111.91C539.958 112.16 539.664 112.621 539.43 113.082C539.172 113.59 538.958 114.161 539.069 114.72C539.18 115.279 539.737 115.779 540.289 115.638C540.841 115.497 540.985 114.55 540.443 114.374C540.053 114.248 539.664 114.569 539.43 114.906C539.157 115.3 538.964 115.788 539.067 116.256C539.17 116.724 539.656 117.123 540.118 116.995C540.58 116.867 540.73 116.106 540.297 115.899C539.816 115.67 539.347 116.259 539.22 116.776C539.091 117.299 539.106 117.934 539.522 118.276C539.938 118.618 540.766 118.263 540.611 117.747C540.153 117.45 539.577 117.881 539.224 118.296C538.989 118.573 538.755 118.873 538.689 119.231C538.623 119.589 538.786 120.014 539.132 120.125C539.478 120.236 539.904 119.846 539.738 119.523C539.506 119.757 539.26 120.019 539.234 120.348C539.208 120.677 539.548 121.032 539.844 120.888" stroke="#010101" stroke-width="1.5" stroke-linecap="round" stroke-linejoin="round"></path>
<path d="M540.778 94.426L539.47 95.838C540.243 95.996 541.085 95.386 541.174 94.601C540.616 94.626 540.042 94.74 539.59 95.067C539.138 95.394 538.836 95.973 538.962 96.517C539.088 97.061 539.727 97.466 540.238 97.24C540.749 97.014 540.802 96.13 540.282 95.926C539.964 95.801 539.601 95.951 539.329 96.159C538.813 96.555 538.468 97.206 538.548 97.852C538.628 98.498 539.195 99.08 539.846 99.075C540.497 99.07 541.077 98.371 540.878 97.752C540.665 97.089 539.756 96.88 539.125 97.176C538.494 97.472 538.096 98.1 537.768 98.714C537.519 99.179 537.316 99.822 537.707 100.175C537.864 100.316 538.081 100.368 538.291 100.386C539.514 100.495 540.734 99.524 540.903 98.309C539.967 97.677 538.466 98.36 538.329 99.481C538.267 99.983 538.484 100.546 538.94 100.765C539.396 100.984 540.054 100.707 540.111 100.204C540.176 99.631 539.459 99.221 538.902 99.371C538.345 99.521 537.958 100.017 537.649 100.503C537.364 100.952 537.101 101.504 537.302 101.996C537.512 102.51 538.168 102.718 538.712 102.601C539.256 102.484 539.71 102.127 540.144 101.78C539.876 101.156 539.057 100.887 538.419 101.12C537.781 101.353 537.347 101.986 537.217 102.652C537.107 103.219 537.212 103.859 537.623 104.264C538.034 104.669 538.785 104.732 539.171 104.303C539.557 103.874 539.291 103.022 538.714 102.992C538.445 102.978 538.194 103.124 537.977 103.285C537.431 103.689 536.959 104.265 536.9 104.941C536.841 105.617 537.333 106.359 538.012 106.379C538.691 106.399 539.214 105.437 538.721 104.971C538.142 105.251 537.549 105.603 537.265 106.18C536.981 106.757 537.172 107.604 537.786 107.796C538.4 107.988 539.046 107.054 538.538 106.659C538.11 106.327 537.48 106.728 537.224 107.205C537.023 107.579 536.927 108.035 537.084 108.429C537.241 108.823 537.708 109.104 538.105 108.956C538.502 108.808 538.633 108.17 538.274 107.944C537.914 107.716 537.444 108.025 537.21 108.381C536.834 108.956 536.726 109.699 536.923 110.357C537.292 110.344 537.702 110.281 537.929 109.99C538.156 109.699 537.983 109.141 537.615 109.175C537.433 109.192 537.294 109.34 537.184 109.486C536.8 109.997 536.56 110.691 536.816 111.277C537.072 111.863 537.983 112.119 538.37 111.611C538.451 111.11 537.75 110.78 537.293 111.002C536.836 111.224 536.616 111.744 536.466 112.229C536.358 112.58 536.266 112.959 536.376 113.31C536.486 113.661 536.87 113.95 537.216 113.826C537.562 113.702 537.589 113.079 537.227 113.014C537.01 112.975 536.812 113.14 536.668 113.307C536.142 113.922 535.866 114.745 535.914 115.553C536.182 115.698 536.501 115.745 536.8 115.684C536.975 115.393 537.004 115.018 536.875 114.704C536.258 114.88 535.776 115.407 535.562 116.011C535.326 116.676 535.461 117.549 536.083 117.883C536.705 118.217 537.651 117.512 537.321 116.888C537.044 116.366 536.245 116.43 535.761 116.769C535.107 117.227 534.741 118.195 535.201 118.847C535.661 119.499 536.981 119.202 536.913 118.407C536.266 118.485 535.915 119.406 536.346 119.895" stroke="#010101" stroke-width="1.5" stroke-linecap="round" stroke-linejoin="round"></path>
<path d="M535.917 97.361L535.354 98.345C535.858 98.684 536.667 98.249 536.662 97.641C535.478 97.402 534.175 98.159 533.795 99.306C534.243 100.12 535.665 100.06 536.042 99.211C535.767 98.899 535.241 98.934 534.908 99.183C534.575 99.432 534.393 99.831 534.249 100.221C534.056 100.74 533.962 101.446 534.433 101.738C535.08 102.14 535.754 101.262 536.015 100.547C535.649 100.079 534.905 100.117 534.386 100.406C533.616 100.835 533.133 101.875 533.579 102.635C534.025 103.395 535.48 103.243 535.554 102.365C535.041 101.841 534.108 102.099 533.604 102.632C533.18 103.08 532.929 103.727 533.077 104.326C533.226 104.925 533.845 105.408 534.45 105.288C535.055 105.168 535.433 104.348 535.048 103.865C534.422 103.437 533.532 103.868 533.095 104.488C532.572 105.231 532.487 106.363 533.148 106.985C533.81 107.607 535.191 107.185 535.164 106.277C534.779 105.771 533.935 105.874 533.479 106.315C533.023 106.756 532.853 107.409 532.702 108.026C532.654 108.223 532.606 108.431 532.664 108.625C532.805 109.093 533.419 109.18 533.907 109.175C534.275 109.171 534.679 109.151 534.95 108.903C535.221 108.655 535.196 108.096 534.839 108.011C534.707 107.98 534.568 108.02 534.442 108.07C533.946 108.266 533.517 108.613 533.189 109.033C532.804 109.526 532.549 110.169 532.689 110.779C532.829 111.389 533.465 111.898 534.071 111.741C534.677 111.584 534.931 110.635 534.408 110.292C533.757 109.866 533.007 110.664 532.638 111.348C532.392 111.805 532.138 112.291 532.164 112.809C532.19 113.327 532.616 113.862 533.132 113.804C533.526 113.759 533.808 113.405 534.002 113.059C534.181 112.741 534.294 112.271 533.992 112.067C533.777 111.922 533.486 112.017 533.257 112.139C532.82 112.372 532.416 112.707 532.214 113.16C532.012 113.613 532.054 114.195 532.406 114.544C532.758 114.893 533.428 114.893 533.708 114.483C533.988 114.073 533.632 113.384 533.141 113.449C532.929 113.477 532.751 113.618 532.595 113.764C532.12 114.209 531.723 114.799 531.723 115.449C531.723 116.099 532.255 116.769 532.905 116.729C533.555 116.689 533.958 115.709 533.432 115.326C533.069 115.062 532.544 115.215 532.19 115.491C531.725 115.852 531.409 116.446 531.502 117.028C531.595 117.61 532.175 118.108 532.754 118C533.333 117.892 533.677 117.08 533.279 116.646C532.759 116.648 532.217 116.873 531.943 117.315C531.669 117.757 531.746 118.417 532.179 118.705C532.612 118.993 533.327 118.718 533.372 118.2C533.415 117.712 532.829 117.315 532.368 117.48C531.907 117.645 531.686 118.242 531.867 118.697C532.048 119.152 532.553 119.431 533.042 119.421" stroke="#010101" stroke-width="1.5" stroke-linecap="round" stroke-linejoin="round"></path>
<path d="M533.283 97.0221C532.545 97.4901 531.806 97.9571 531.068 98.4251L531.169 99.1321C531.695 99.2971 532.326 99.1211 532.647 98.6731C532.968 98.2251 532.911 97.5301 532.485 97.1801C531.837 96.6471 530.809 97.1221 530.355 97.8281C529.867 98.5871 529.801 99.6691 530.388 100.355C530.975 101.041 532.255 101.047 532.696 100.259C533.114 99.5121 532.536 98.4721 531.702 98.2791C530.868 98.0861 529.98 98.6101 529.572 99.3631C529.164 100.116 529.171 101.036 529.387 101.864C529.601 102.682 530.149 103.545 530.992 103.613C531.617 103.663 532.225 103.205 532.415 102.607C532.605 102.009 532.404 101.324 531.973 100.869C530.596 101.851 529.394 103.552 529.977 105.139C530.213 105.784 530.91 106.357 531.549 106.107C531.805 106.007 531.999 105.796 532.179 105.588C532.797 104.875 533.328 103.673 532.569 103.112C531.829 102.565 530.844 103.373 530.352 104.151C529.991 104.722 529.665 105.338 529.589 106.009C529.513 106.68 529.732 107.419 530.282 107.811C530.832 108.203 531.723 108.101 532.053 107.512C532.383 106.923 531.83 106.023 531.17 106.166C530.712 106.265 530.447 106.736 530.263 107.167C529.924 107.965 529.662 108.796 529.483 109.644C529.372 110.167 529.356 110.838 529.823 111.099C530.259 111.343 530.8 111.036 531.145 110.674C531.543 110.256 531.856 109.714 531.838 109.138C531.82 108.562 531.38 107.979 530.804 107.951C530.193 107.922 529.716 108.473 529.435 109.016C528.851 110.143 528.667 111.472 528.921 112.716C528.981 113.009 529.089 113.329 529.354 113.467C529.704 113.65 530.134 113.416 530.397 113.121C530.848 112.615 530.959 111.661 530.345 111.376C529.729 111.091 529.101 111.752 528.806 112.363C528.405 113.196 528.15 114.099 528.057 115.019C527.996 115.621 528.054 116.331 528.555 116.671C529.353 117.213 530.411 116.252 530.54 115.296C530.636 114.587 530.194 113.655 529.491 113.792C529.115 113.866 528.869 114.221 528.681 114.555C528.343 115.153 528.045 115.82 528.118 116.503C528.191 117.186 528.766 117.857 529.451 117.804C529.989 117.762 530.44 117.234 530.397 116.696C530.354 116.158 529.826 115.708 529.288 115.751C528.85 115.786 528.477 116.1 528.235 116.467C527.766 117.178 527.752 118.247 528.402 118.797C529.052 119.347 530.312 118.931 530.309 118.079" stroke="#010101" stroke-width="1.5" stroke-linecap="round" stroke-linejoin="round"></path>
<path d="M548.085 104.372C547.615 105.666 547.47 107.076 547.665 108.439C548.227 108.155 548.474 107.38 548.181 106.824C546.064 108.182 545.188 111.179 546.241 113.463C546.717 113.477 547.206 113.49 547.654 113.329C548.102 113.168 548.506 112.791 548.553 112.318C548.6 111.845 548.164 111.341 547.698 111.438C547.374 111.505 547.159 111.804 546.977 112.08C546.522 112.768 546.06 113.473 545.856 114.271C545.652 115.07 545.751 115.995 546.314 116.597C546.69 116.433 547.103 116.23 547.239 115.844C547.375 115.458 546.959 114.933 546.608 115.145C546.057 115.97 545.495 116.822 545.298 117.793C545.214 118.208 545.206 118.663 545.414 119.032C545.622 119.401 546.102 119.639 546.489 119.465C546.876 119.291 546.966 118.644 546.59 118.448C545.734 118.594 545.005 119.264 544.725 120.086C544.577 120.523 544.552 121.028 544.787 121.425C545.022 121.822 545.567 122.048 545.971 121.828C546.375 121.608 546.421 120.904 546.003 120.71C545.227 121.029 545.15 122.318 545.881 122.727" stroke="#010101" stroke-width="1.5" stroke-linecap="round" stroke-linejoin="round"></path>
<path d="M551.173 124.792C556.254 126.194 561.776 130.92 564.478 135.705C568.549 142.917 570.367 148.279 572.332 156.324C576.247 172.353 579.221 188.594 582.192 204.824C585.728 224.139 592.823 278.473 593.644 283.414C604.791 284.479 612.025 286.282 618.631 287.423C620.328 287.716 621.071 288.597 621.069 289.458C621.067 290.384 619.893 290.761 618.974 290.866C609.283 291.975 596.98 291.09 587.226 291.035C584.015 291.017 580.713 290.917 578.572 289.181C575.028 286.041 573.002 281.56 571.306 277.14C560.791 249.739 560.038 213.122 551.284 185.108C549.592 179.694 547.631 174.341 546.573 168.768C545.18 161.435 545.385 153.906 545.594 146.445C545.813 138.631 546.23 130.236 551.173 124.79V124.792Z" fill="white" stroke="#010101" stroke-width="1.5" stroke-linecap="round" stroke-linejoin="round"></path>
<path d="M600.006 284.213C606.263 285.367 607.222 285.841 606.924 287.458C606.571 289.371 600.414 288.923 596.095 288.781C595.421 289.272 595.001 290.068 594.283 290.491C593.68 290.846 592.951 290.89 592.252 290.925C591.267 290.974 590.282 291.024 589.297 291.073C588.579 291.109 587.807 291.132 587.201 290.745" fill="white"></path>
<path d="M600.006 284.213C606.263 285.367 607.222 285.841 606.924 287.458C606.571 289.371 600.414 288.923 596.095 288.781C595.421 289.272 595.001 290.068 594.283 290.491C593.68 290.846 592.951 290.89 592.252 290.925C591.267 290.974 590.282 291.024 589.297 291.073C588.579 291.109 587.807 291.132 587.201 290.745" stroke="#010101" stroke-width="1.5" stroke-linecap="round" stroke-linejoin="round"></path>
<path d="M374.892 401.611C364.426 406.964 353.657 411.725 342.653 415.864C341.334 416.36 339.981 416.865 338.907 417.778C337.833 418.691 337.078 420.115 337.352 421.497C337.45 421.989 337.691 422.476 338.109 422.754C338.403 422.95 338.758 423.028 339.104 423.098C350.399 425.381 362.045 423.092 373.56 422.635C380.45 422.362 387.469 422.735 394.12 420.915C393.744 415.956 393.556 410.984 393.555 406.011C392.167 407.291 390.209 407.709 388.343 407.999C385.331 408.466 382.091 408.697 379.385 407.296C377.203 406.167 375.664 404.126 374.893 401.611H374.892Z" fill="#010101" stroke="#010101" stroke-width="1.5" stroke-linecap="round" stroke-linejoin="round"></path>
<path d="M406.084 396.993C406.13 401.396 405.594 407.112 405.641 411.516C405.646 411.996 405.644 412.504 405.393 412.913C405.157 413.299 404.74 413.531 404.345 413.754C401.852 415.165 399.554 416.921 397.538 418.956C397.094 419.404 396.635 419.937 396.651 420.568C396.684 421.842 398.399 422.203 399.674 422.173C403.34 422.089 407.006 422.005 410.672 421.922C411.473 421.904 412.285 421.884 413.051 421.649C414.557 421.189 415.691 419.969 416.71 418.769C421.081 413.617 424.725 407.897 428.353 402.198C429.184 400.893 430.016 399.586 430.769 398.235C431.084 397.669 431.395 397.052 431.328 396.407C431.267 395.824 430.906 395.322 430.556 394.852C428.402 391.953 426.208 389.084 423.975 386.246C423.726 385.929 423.449 385.594 423.061 385.486C422.356 385.29 422.098 390.339 417.82 393.789C412.085 398.413 408.85 397.032 406.084 396.993Z" fill="#010101" stroke="#010101" stroke-width="1.5" stroke-linecap="round" stroke-linejoin="round"></path>
<path d="M475.432 117.105C456.252 116.46 415.579 135.522 401.624 144.41C385.545 127.729 346.997 94.427 346.997 94.427C337.471 87.672 333.828 85.596 326.392 81.082C325.072 80.281 323.168 78.743 322.398 80.076C321.236 82.089 324.81 85.77 325.879 86.798C321.57 84.568 318.394 83.179 313.002 80.146C312.1 79.639 310.987 79.126 310.091 79.633C309.173 80.152 309.072 81.523 309.599 82.444C310.126 83.365 311.083 83.94 311.998 84.475C315.974 86.798 319.599 88.571 322.129 90.229C317.7 87.5 313.794 85.785 307.824 83.132C306.633 82.603 305.052 82.158 304.191 83.13C302.443 85.672 307.576 88.156 311.309 90.112C313.447 91.233 315.498 92.275 320.662 94.76C315.398 92.482 313.389 91.273 308.119 89.007C307.13 88.582 306.067 88.147 305.011 88.341C303.955 88.535 303.007 89.649 303.4 90.653C303.65 91.292 304.318 91.648 304.934 91.949C310.642 94.742 312.437 96.239 318.145 99.032C313.967 97.066 313.505 96.821 309.023 95.735C307.692 95.413 305.829 95.426 305.49 96.752C305.177 97.977 306.555 98.917 307.712 99.435C317.76 103.932 322.467 106.244 332.036 110.35C345.652 127.281 362.569 144.735 376.185 161.667C379.462 165.742 382.872 169.929 387.498 172.368C393.337 175.447 400.357 175.32 406.85 174.132C416.075 172.444 424.816 168.806 433.421 165.077C445.152 159.993 456.788 154.69 468.003 148.89C470.895 143.906 473.805 138.878 475.63 133.412C477.455 127.946 478.138 121.942 475.432 117.104V117.105Z" fill="white" stroke="#010101" stroke-width="1.5" stroke-linecap="round" stroke-linejoin="round"></path>
<path d="M504.495 78.479C503.146 80.442 501.797 82.404 500.448 84.367C500.198 84.731 499.937 85.125 499.932 85.567C499.92 86.539 501.045 87.06 501.977 87.336C502.736 87.561 503.496 87.785 504.255 88.01" stroke="#010101" stroke-width="1.5" stroke-linecap="round" stroke-linejoin="round"></path>
<path d="M487.853 116.88C486.777 125.661 484.674 135.656 484.942 144.499C498.226 149.241 514.657 151.493 528.757 151.102C532.895 141.532 536.213 131.607 538.86 121.531C544.134 122.55 545.45 123.568 550.724 124.587C544.883 143.051 545.322 163.849 545.667 183.965C545.995 203.056 545.051 222.144 542.871 241.219C512.313 236.018 481.804 230.535 451.005 223.564C455.239 210.177 457.589 196.196 457.963 182.161C458.169 174.438 457.827 166.445 460.771 159.302C462.599 154.865 465.597 151.028 468.023 146.887C473.483 137.569 473.715 126.859 476.138 116.334C478.929 116.019 483.202 116.243 487.853 116.88Z" fill="#0066f9" stroke="#010101" stroke-width="1.5" stroke-linecap="round" stroke-linejoin="round"></path>
<path d="M505.111 149.485C499.229 176.746 494.694 204.297 491.529 232.005Z" fill="white"></path>
<path d="M505.111 149.485C499.229 176.746 494.694 204.297 491.529 232.005" stroke="#010101" stroke-width="1.5" stroke-linecap="round" stroke-linejoin="round"></path>
<path d="M325.879 86.798L330.116 89.856C329.448 91.406 329.259 92.454 329.113 94.135C328.875 96.867 330.178 99.681 332.415 101.268" fill="white"></path>
<path d="M325.879 86.798L330.116 89.856C329.448 91.406 329.259 92.454 329.113 94.135C328.875 96.867 330.178 99.681 332.415 101.268" stroke="#010101" stroke-width="1.5" stroke-linecap="round" stroke-linejoin="round"></path>
<path d="M542.822 240.956C548.675 279.12 527.379 291.906 515.136 291.906C496.239 291.906 475.202 291.596 461.595 291.596C454.263 291.596 450.726 291.854 444.65 295.958C434.645 302.715 434.139 311.567 425.053 327.117C418.153 326.229 411.592 324.202 405.533 321.168C406.848 312.747 407.869 303.968 408.245 295.161C403.757 301.389 399.085 307.485 394.24 313.44C376.24 309.278 360.524 299.421 345.231 289.741C348.733 274.297 356.148 256.863 370.685 246.934C379.846 240.677 390.928 238.037 401.732 235.517C418.154 231.686 434.837 227.137 451.005 223.564C452.985 223.216 524.563 239.377 542.822 240.957V240.956Z" fill="#0066f9" stroke="#010101" stroke-width="1.5" stroke-linecap="round" stroke-linejoin="round"></path>
<path d="M430.459 423.305L443.792 292.219L624.898 291.423L609.347 422.174L430.459 423.305Z" fill="white" stroke="#010101" stroke-width="1.5" stroke-linecap="round" stroke-linejoin="round"></path>
<path d="M462.849 311.58C460.986 311.778 458.707 312.318 458.258 314.136C457.81 315.951 459.646 317.544 461.429 318.105C463.585 318.783 465.897 318.694 468.153 318.573C476.122 318.143 484.751 318.787 492.656 317.694C494.629 317.421 497.078 316.657 497.272 314.675C497.459 312.772 495.339 311.514 493.49 311.025C490.303 310.182 471.574 310.654 462.848 311.579L462.849 311.58Z" fill="white" stroke="#010101" stroke-width="1.5" stroke-linecap="round" stroke-linejoin="round"></path>
<path d="M455.651 334.329C498.788 333.88 561.189 335.072 591.093 334.761C594.367 334.727 597.868 334.305 600.67 335.998C603.472 337.691 604.787 342.128 602.296 344.252C600.93 345.417 598.975 345.497 597.18 345.52C554.129 346.069 505.015 345.52 461.964 346.07C459.632 346.1 457.227 346.117 455.067 345.239C452.906 344.361 451.03 342.35 451.055 340.018C451.082 337.538 452.91 334.357 455.651 334.328V334.329Z" fill="#010101" stroke="#010101" stroke-width="1.5" stroke-linecap="round" stroke-linejoin="round"></path>
<path d="M575.36 360.814C570.129 359.998 564.546 361.956 560.969 365.859C558.877 368.143 557.481 370.987 556.473 373.916C555.569 376.542 554.949 379.318 555.18 382.085C555.56 386.64 558.28 390.808 561.941 393.545C565.602 396.281 570.101 397.937 574.663 398.217C591.369 399.24 593.561 378.39 589.736 370.233C586.936 364.262 580.374 361.596 575.36 360.815V360.814Z" fill="white" stroke="#010101" stroke-width="1.5" stroke-linecap="round" stroke-linejoin="round"></path>
<path d="M462.183 377.236C472.461 376.711 482.74 376.186 493.018 375.661" stroke="#010101" stroke-width="1.5" stroke-linecap="round" stroke-linejoin="round"></path>
<path d="M463.379 384.808C468.273 384.553 473.167 384.297 478.061 384.042" stroke="#010101" stroke-width="1.5" stroke-linecap="round" stroke-linejoin="round"></path>
<path d="M551.719 361.683C546.488 360.867 540.905 362.825 537.328 366.728C535.236 369.012 533.84 371.856 532.832 374.785C531.928 377.411 531.308 380.187 531.539 382.954C531.919 387.509 534.639 391.677 538.3 394.414C541.961 397.151 546.46 398.806 551.022 399.086C567.728 400.109 569.92 379.259 566.095 371.102C563.295 365.131 556.733 362.464 551.719 361.683Z" fill="#42d242" stroke="#010101" stroke-width="1.5" stroke-linecap="round" stroke-linejoin="round"></path>
<path d="M16.822 239.322C17.495 230.87 47.662 219.706 46.666 208.062C56.862 207.275 65.007 207.564 71.507 207.063C71.978 216.579 73.269 229.84 74.194 239.322C69.973 239.648 65.161 238.996 60.94 239.322C59.589 236.423 58.238 230.745 56.887 227.846C55.571 230.946 53.07 236.223 51.753 239.322C40.931 239.322 35.41 240.242 16.822 239.322Z" fill="#010101" stroke="#010101" stroke-width="1.5" stroke-linecap="round" stroke-linejoin="round"></path>
<path d="M33.4181 93.065C54.2861 92.919 75.156 92.998 96.1171 92.982C92.8141 104.571 89.9241 116.16 86.4241 128.16C72.2061 127.496 55.3191 128.068 43.2751 127.506C39.3591 116.002 36.4641 104.152 33.4171 93.066L33.4181 93.065Z" stroke="#010101" stroke-width="1.5" stroke-linecap="round" stroke-linejoin="round"></path>
<path d="M33.5 93.365C32.18 89.195 31.15 86.022 30.028 82.515C29.423 80.624 27.901 79.173 25.988 78.644C22.878 77.784 18.978 76.529 16.821 76.146" stroke="#010101" stroke-width="1.5" stroke-linecap="round" stroke-linejoin="round"></path>
<path d="M48.855 93.114C51.001 104.881 53.608 120.026 54.35 127.283Z" fill="white"></path>
<path d="M48.855 93.114C51.001 104.881 53.608 120.026 54.35 127.283" stroke="#010101" stroke-width="1.5" stroke-linecap="round" stroke-linejoin="round"></path>
<path d="M80.4981 93.114C79.2541 103.703 76.7761 118.688 75.4221 127.283Z" fill="white"></path>
<path d="M80.4981 93.114C79.2541 103.703 76.7761 118.688 75.4221 127.283" stroke="#010101" stroke-width="1.5" stroke-linecap="round" stroke-linejoin="round"></path>
<path d="M64.92 93.052C64.475 106.744 64.285 114.733 64.285 127.742Z" fill="white"></path>
<path d="M64.92 93.052C64.475 106.744 64.285 114.733 64.285 127.742" stroke="#010101" stroke-width="1.5" stroke-linecap="round" stroke-linejoin="round"></path>
<path d="M43.093 127.077C44.398 131.925 45.943 137.287 46.931 140.668C47.521 142.687 49.372 144.066 51.475 144.05C59.321 143.99 72.789 143.876 82.849 144.08" stroke="#010101" stroke-width="1.5" stroke-linecap="round" stroke-linejoin="round"></path>
<path d="M54.1921 145.553C52.9401 147.005 53.2091 149.442 54.9531 150.886C55.9171 151.684 57.2271 152.072 58.4601 151.858C59.6931 151.644 60.8171 150.807 61.3131 149.658C61.8091 148.509 61.9461 146.605 60.5641 145.223C59.6391 144.298 56.3541 143.045 54.1921 145.553Z" fill="#010101" stroke="#010101" stroke-width="1.5" stroke-linecap="round" stroke-linejoin="round"></path>
<path d="M73.159 145.553C71.907 147.005 72.176 149.442 73.92 150.886C74.884 151.684 76.194 152.072 77.427 151.858C78.66 151.644 79.784 150.807 80.28 149.658C80.776 148.509 80.913 146.605 79.531 145.223C78.606 144.298 75.321 143.045 73.159 145.553Z" fill="#010101" stroke="#010101" stroke-width="1.5" stroke-linecap="round" stroke-linejoin="round"></path>
<path d="M36.446 104.319C59.828 104.319 69.534 103.674 93.161 103.674Z" fill="white"></path>
<path d="M36.446 104.319C59.828 104.319 69.534 103.674 93.161 103.674" stroke="#010101" stroke-width="1.5" stroke-linecap="round" stroke-linejoin="round"></path>
<path d="M40.265 116.598C52.724 115.92 67.137 116.284 89.459 115.855Z" fill="white"></path>
<path d="M40.265 116.598C52.724 115.92 67.137 116.284 89.459 115.855" stroke="#010101" stroke-width="1.5" stroke-linecap="round" stroke-linejoin="round"></path>
<path d="M213.044 281.518C201.098 298.02 192.389 297.653 188.121 299.48C183.684 301.38 178.895 302.277 174.253 303.598C167.905 305.405 161.789 308.026 156.102 311.375C153.614 312.841 151.017 314.701 150.317 317.503C149.66 320.133 150.937 322.96 152.933 324.794C156.791 328.34 162.672 328.585 167.813 327.572C172.954 326.559 177.9 324.499 183.126 324.127C191.298 323.545 199.101 327.112 206.946 329.473C215.368 332.007 224.128 333.187 232.844 334.357C237.523 334.985 242.237 335.615 246.95 335.327C253.704 334.915 260.33 332.576 265.846 328.656C267.886 327.206 269.823 325.486 270.951 323.251C272.079 321.016 272.262 318.177 270.894 316.08" stroke="#010101" stroke-width="1.5" stroke-linecap="round" stroke-linejoin="round"></path>
<path d="M227.793 280.301C229.332 276.581 231.298 272.841 234.574 270.5C237.992 268.058 242.662 267.48 246.573 269.015C250.483 270.55 253.513 274.15 254.358 278.265" stroke="#010101" stroke-width="1.5" stroke-linecap="round" stroke-linejoin="round"></path>
<path d="M213.044 281.518C209.649 290.521 207.147 298.338 204.863 307.684C204.466 309.309 204.242 310.985 204.355 312.653C204.904 320.803 211.859 322.69 217.871 322.69C241.559 322.69 254.076 322.93 269.035 321.862C284.807 320.735 278.751 306.748 276.67 302.912L268.665 281.964C265.532 276.187 215.045 276.209 213.044 281.518Z" fill="#0066f9" stroke="#010101" stroke-width="1.5" stroke-linecap="round" stroke-linejoin="round"></path>
<path d="M238.731 306.251C238.892 307.883 239.507 309.52 240.702 310.643C241.897 311.766 243.726 312.279 245.246 311.665C246.456 311.176 247.326 310.06 247.811 308.848C248.296 307.636 248.448 306.321 248.595 305.025" fill="white"></path>
<path d="M238.731 306.251C238.892 307.883 239.507 309.52 240.702 310.643C241.897 311.766 243.726 312.279 245.246 311.665C246.456 311.176 247.326 310.06 247.811 308.848C248.296 307.636 248.448 306.321 248.595 305.025" stroke="#010101" stroke-width="1.5" stroke-linecap="round" stroke-linejoin="round"></path>
<path d="M209.274 294.165C214.48 299.044 221.122 302.272 228.078 303.859C235.034 305.446 242.298 305.437 249.35 304.352C253.57 303.702 266.1 301.421 272.284 291.44" stroke="#010101" stroke-width="1.5" stroke-linecap="round" stroke-linejoin="round"></path>
<path d="M614.067 223.361C616.148 225.999 618.229 228.636 620.309 231.274" stroke="#010101" stroke-width="1.5" stroke-linecap="round" stroke-linejoin="round"></path>
<path d="M99.75 295.619C101.734 293.788 103.717 291.957 105.701 290.126" stroke="#010101" stroke-width="1.5" stroke-linecap="round" stroke-linejoin="round"></path>
</g>
<defs>
<clipPath id="clip0_35_2077">
<rect width="625.648" height="426.336" fill="white"></rect>
</clipPath>
</defs>
</svg>