<svg id="Layer_2" data-name="Layer 2" xmlns="http://www.w3.org/2000/svg" viewBox="0 0 900.037 680.72" style="width: 100%; height: 100%;">
  <g id="Layer_2-2" data-name="Layer 2">
    <g>
      <rect x="244.457" y="103.367" width="504.783" height="547.857" fill="#fff" opacity=".1"></rect>
      <rect x="244.457" y="103.367" width="504.783" height="547.857" fill="#0066f9" opacity=".2"></rect>
      <rect x="268.264" y="126.85" width="457.168" height="427.168" fill="#fff"></rect>
      <g>
        <circle cx="444.884" cy="35.399" r="35.399" fill="#0066f9"></circle>
        <circle cx="444.884" cy="35.399" r="35.399" fill="#fff" opacity=".68"></circle>
        <path d="m463.948,21.447c-5.035-5.248-13.371-4.068-18.619.967l-.33.33-.357-.357c-5.139-5.146-13.477-6.506-18.623-1.366-5.146,5.139-5.152,13.477-.013,18.623l18.982,18.644c.031.03.08.03.11,0l18.85-18.609c4.887-5.095,4.887-13.137,0-18.232Z" fill="#fff"></path>
      </g>
      <polygon points="715.719 577.858 715.719 629.162 695.434 608.888 675.149 629.162 675.149 577.858 715.719 577.858" fill="#fff"></polygon>
      <g>
        <circle cx="419.787" cy="575.212" r="35.399" fill="#0066f9"></circle>
        <circle cx="419.787" cy="575.212" r="35.399" fill="#fff" opacity=".68"></circle>
        <path d="m438.85,561.26c-5.035-5.248-13.371-4.068-18.619.967l-.33.33-.357-.357c-5.139-5.146-13.477-6.506-18.623-1.366-5.146,5.139-5.152,13.477-.013,18.623l18.982,18.644c.031.03.08.03.11,0l18.85-18.609c4.887-5.095,4.887-13.137,0-18.232Z" fill="#fff"></path>
      </g>
      <g>
        <circle cx="330.828" cy="298.042" r="35.399" fill="#0066f9"></circle>
        <circle cx="330.828" cy="298.042" r="35.399" fill="#fff" opacity=".68"></circle>
        <path d="m349.891,284.09c-5.035-5.248-13.371-4.068-18.619.967l-.33.33-.357-.357c-5.139-5.146-13.477-6.506-18.623-1.366-5.146,5.139-5.152,13.477-.013,18.623l18.982,18.644c.031.03.08.03.11,0l18.85-18.609c4.887-5.095,4.887-13.137,0-18.232Z" fill="#fff"></path>
      </g>
      <g>
        <g>
          <rect x="576.25" y="403.699" width="30.55" height="50.593" rx="5.653" ry="5.653" transform="translate(.496 -.683) rotate(.066)" fill="#0066f9"></rect>
          <rect x="576.25" y="403.699" width="30.55" height="50.593" rx="5.653" ry="5.653" transform="translate(.496 -.683) rotate(.066)" fill="#0066f9"></rect>
          <path d="m657.942,448.263c.151-2.942-1.695-5.47-4.302-6.363h1.069c3.531.005,6.506-2.799,6.53-6.33.021-3.085-2.15-5.667-5.049-6.281h.458c3.532.005,6.507-2.801,6.53-6.332.02-3.086-2.153-5.668-5.053-6.28,3.59-.009,6.485-2.984,6.356-6.607-.123-3.452-3.062-6.14-6.517-6.144l-19.493-.023h0l-4.217-.005c-.66,0-1.033-.753-.641-1.283,4.23-5.707,4.534-8.955,4.754-16.885l.004-.155c.103-3.826-2.9-7.039-6.725-7.147-.075-.002-.15-.004-.224-.004-3.756-.004-6.854,2.986-6.959,6.763l-.004.156c-.088,3.145-.076,5.244-.47,6.348-2.689,7.536-9.985,8.744-11.588,9.105-2.302.474-3.962,2.073-4.823,4.26-.447,1.135-.781,2.615-.758,3.73v40.007c0,3.248,2.95,5.509,6.522,5.467l36.098.039h0s1.969.002,1.969.002c3.421.004,6.355-2.623,6.53-6.04Z" fill="#fff" opacity=".3"></path>
        </g>
        <path d="m657.942,448.263c.151-2.942-1.695-5.47-4.302-6.363h1.069c3.531.005,6.506-2.799,6.53-6.33.021-3.085-2.15-5.667-5.049-6.281h.458c3.532.005,6.507-2.801,6.53-6.332.02-3.086-2.153-5.668-5.053-6.28,3.59-.009,6.485-2.984,6.356-6.607-.123-3.452-3.062-6.14-6.517-6.144l-19.493-.023h0l-4.217-.005c-.66,0-1.033-.753-.641-1.283,4.23-5.707,4.534-8.955,4.754-16.885l.004-.155c.103-3.826-2.9-7.039-6.725-7.147-.075-.002-.15-.004-.224-.004-3.756-.004-6.854,2.986-6.959,6.763l-.004.156c-.088,3.145-.076,5.244-.47,6.348-2.689,7.536-9.985,8.744-11.588,9.105-2.302.474-3.962,2.073-4.823,4.26-.447,1.135-.781,2.615-.758,3.73v40.007c0,3.248,2.95,5.509,6.522,5.467l36.098.039h0s1.969.002,1.969.002c3.421.004,6.355-2.623,6.53-6.04Z" fill="#0066f9"></path>
        <path d="m657.942,448.263c.151-2.942-1.695-5.47-4.302-6.363h1.069c3.531.005,6.506-2.799,6.53-6.33.021-3.085-2.15-5.667-5.049-6.281h.458c3.532.005,6.507-2.801,6.53-6.332.02-3.086-2.153-5.668-5.053-6.28,3.59-.009,6.485-2.984,6.356-6.607-.123-3.452-3.062-6.14-6.517-6.144l-19.493-.023h0l-4.217-.005c-.66,0-1.033-.753-.641-1.283,4.23-5.707,4.534-8.955,4.754-16.885l.004-.155c.103-3.826-2.9-7.039-6.725-7.147-.075-.002-.15-.004-.224-.004-3.756-.004-6.854,2.986-6.959,6.763l-.004.156c-.088,3.145-.076,5.244-.47,6.348-2.689,7.536-9.985,8.744-11.588,9.105-2.302.474-3.962,2.073-4.823,4.26-.447,1.135-.781,2.615-.758,3.73v40.007c0,3.248,2.95,5.509,6.522,5.467l36.098.039h0s1.969.002,1.969.002c3.421.004,6.355-2.623,6.53-6.04Z" fill="#fff" opacity=".8"></path>
      </g>
      <g>
        <g>
          <rect x="252.111" y="177.387" width="31.773" height="52.619" rx="5.879" ry="5.879" transform="translate(.235 -.309) rotate(.066)" fill="#0066f9"></rect>
          <rect x="252.111" y="177.387" width="31.773" height="52.619" rx="5.879" ry="5.879" transform="translate(.235 -.309) rotate(.066)" fill="#0066f9"></rect>
          <path d="m337.074,223.735c.157-3.059-1.763-5.689-4.474-6.618h1.112c3.672.006,6.767-2.911,6.792-6.583.022-3.209-2.236-5.894-5.251-6.532h.476c3.673.005,6.768-2.913,6.792-6.586.021-3.21-2.239-5.895-5.255-6.532,3.734-.009,6.745-3.104,6.611-6.872-.128-3.59-3.185-6.386-6.778-6.39l-20.273-.023h0l-4.386-.005c-.686,0-1.075-.783-.666-1.334,4.399-5.935,4.715-9.314,4.945-17.561l.004-.162c.107-3.979-3.016-7.321-6.995-7.433-.078-.002-.156-.004-.233-.004-3.906-.005-7.128,3.105-7.238,7.034l-.004.162c-.091,3.27-.079,5.454-.489,6.603-2.797,7.838-10.385,9.094-12.052,9.47-2.394.493-4.121,2.156-5.016,4.431-.464,1.18-.813,2.72-.788,3.88v41.609c0,3.378,3.068,5.729,6.783,5.686l37.544.041h0s2.047.002,2.047.002c3.558.004,6.609-2.728,6.792-6.282Z" fill="#fff" opacity=".3"></path>
        </g>
        <path d="m337.074,223.735c.157-3.059-1.763-5.689-4.474-6.618h1.112c3.672.006,6.767-2.911,6.792-6.583.022-3.209-2.236-5.894-5.251-6.532h.476c3.673.005,6.768-2.913,6.792-6.586.021-3.21-2.239-5.895-5.255-6.532,3.734-.009,6.745-3.104,6.611-6.872-.128-3.59-3.185-6.386-6.778-6.39l-20.273-.023h0l-4.386-.005c-.686,0-1.075-.783-.666-1.334,4.399-5.935,4.715-9.314,4.945-17.561l.004-.162c.107-3.979-3.016-7.321-6.995-7.433-.078-.002-.156-.004-.233-.004-3.906-.005-7.128,3.105-7.238,7.034l-.004.162c-.091,3.27-.079,5.454-.489,6.603-2.797,7.838-10.385,9.094-12.052,9.47-2.394.493-4.121,2.156-5.016,4.431-.464,1.18-.813,2.72-.788,3.88v41.609c0,3.378,3.068,5.729,6.783,5.686l37.544.041h0s2.047.002,2.047.002c3.558.004,6.609-2.728,6.792-6.282Z" fill="#0066f9"></path>
        <path d="m337.074,223.735c.157-3.059-1.763-5.689-4.474-6.618h1.112c3.672.006,6.767-2.911,6.792-6.583.022-3.209-2.236-5.894-5.251-6.532h.476c3.673.005,6.768-2.913,6.792-6.586.021-3.21-2.239-5.895-5.255-6.532,3.734-.009,6.745-3.104,6.611-6.872-.128-3.59-3.185-6.386-6.778-6.39l-20.273-.023h0l-4.386-.005c-.686,0-1.075-.783-.666-1.334,4.399-5.935,4.715-9.314,4.945-17.561l.004-.162c.107-3.979-3.016-7.321-6.995-7.433-.078-.002-.156-.004-.233-.004-3.906-.005-7.128,3.105-7.238,7.034l-.004.162c-.091,3.27-.079,5.454-.489,6.603-2.797,7.838-10.385,9.094-12.052,9.47-2.394.493-4.121,2.156-5.016,4.431-.464,1.18-.813,2.72-.788,3.88v41.609c0,3.378,3.068,5.729,6.783,5.686l37.544.041h0s2.047.002,2.047.002c3.558.004,6.609-2.728,6.792-6.282Z" fill="#fff" opacity=".8"></path>
      </g>
      <g>
        <circle cx="620.357" cy="226.898" r="35.399" fill="#0066f9"></circle>
        <circle cx="620.357" cy="226.898" r="35.399" fill="#fff" opacity=".68"></circle>
        <path d="m639.42,212.945c-5.035-5.248-13.371-4.068-18.619.967l-.33.33-.357-.357c-5.139-5.146-13.477-6.506-18.623-1.366-5.146,5.139-5.152,13.477-.013,18.623l18.982,18.644c.031.03.08.03.11,0l18.85-18.609c4.887-5.095,4.887-13.137,0-18.232Z" fill="#fff"></path>
      </g>
      <g>
        <circle cx="541.492" cy="528.439" r="35.399" fill="#0066f9"></circle>
        <circle cx="541.492" cy="528.439" r="35.399" fill="#fff" opacity=".68"></circle>
        <path d="m560.555,514.486c-5.035-5.248-13.371-4.068-18.619.967l-.33.33-.357-.357c-5.139-5.146-13.477-6.506-18.623-1.366-5.146,5.139-5.152,13.477-.013,18.623l18.982,18.644c.031.03.08.03.11,0l18.85-18.609c4.887-5.095,4.887-13.137,0-18.232Z" fill="#fff"></path>
      </g>
      <g>
        <circle cx="541.484" cy="315.355" r="32.026" fill="#0066f9"></circle>
        <circle cx="541.484" cy="315.355" r="32.026" fill="#fff" opacity=".5"></circle>
        <path d="m557.868,315.3c0,9.049-7.335,16.384-16.384,16.384s-16.384-7.335-16.384-16.384h32.768Z" fill="#fff"></path>
        <g>
          <circle cx="529.919" cy="302.502" r="2.79" fill="#0c0c0c"></circle>
          <circle cx="553.048" cy="302.502" r="2.79" fill="#0c0c0c"></circle>
        </g>
      </g>
      <circle cx="316.374" cy="103.367" r="28.253" fill="#0066f9"></circle>
      <circle cx="316.374" cy="103.367" r="28.253" fill="#fff" opacity=".5"></circle>
      <path d="m330.828,103.319c0,7.983-6.471,14.454-14.454,14.454s-14.454-6.471-14.454-14.454h28.908Z" fill="#fff"></path>
      <g>
        <circle cx="306.171" cy="92.029" r="2.461" fill="#0c0c0c"></circle>
        <circle cx="326.576" cy="92.029" r="2.461" fill="#0c0c0c"></circle>
      </g>
      <g>
        <g>
          <path d="m114.2,278.829s.368,39.678-6.228,51.956c-18.989,35.347-23.579,62.419-1.2,81.108,22.379,18.689,157.203,10.586,164.554-36.058,6.189-39.269-12.52-42.287-18.997-73.961-2.93-14.332-10.403-44.302-10.403-44.302" fill="#0a0a0a"></path>
          <path id="sk" d="m232.997,373.239c-.233-.033-3.225,42.871-53.06,38.657-34.5-2.912-46.464-39.658-47.255-39.665,3.73-.756,10.009-1.847,11.67-2.714,5.464-2.87,12.219-5.846,14.071-16.386,1.067-6.075-.352-37.221.233-43.372l52.883,12.329c-.863,12.995-6.33,43.089,11.784,48.596,3.014.911,6.262,1.753,9.673,2.556Z" fill="#ff9e85"></path>
          <path id="sh" d="m211.941,358.255c-.728-2.403-1.155-4.491-1.516-8.24-.647-6.705-.211-12.859.527-19.127-10.692-1.526-20.928-6.126-29.168-13.109-1.018,3.625-6.58,19.453-5.114,22.921,2.771,6.556,15.979,17.372,35.272,17.554Z" fill="#0c0c0c" opacity=".22"></path>
          <path d="m206.271,344.894c-20.728,3.32-43.734-3.694-51.05-31.118l-11.098-24.401c-7.316-27.424,1.157-53.499,26.978-60.387h0c25.821-6.889,47.494.216,54.811,27.64,0,0,4.423,15.673,5.321,21.019,3.386,20.159,6.489,62.209-24.962,67.247Z" fill="#ff9e85"></path>
          <path id="e1_eb" d="m226.482,272.85c-.029.909-3.432,1.066-8.004.689-4.571-.377-8.635-.924-8.55-2.054.107-1.427,3.919-2.277,8.49-1.9,4.571.377,8.11,1.835,8.064,3.265Z" fill="#0a0a0a"></path>
          <path d="m123.819,299.667l30.085,5.958c17.247-8.506,13.425-51.675,13.425-51.675,0,0,23.148,19.454,74.598,3.621,0,0-15.708-69.889-91.456-42.962-24.425,8.683-40.291,37.444-35.585,70.855,3.298,23.414,8.933,14.202,8.933,14.202Z" fill="#0a0a0a"></path>
          <path d="m154.557,322.047c-7.847,2.093-16.25-.13-19.369-11.951-2.072-7.853,3.941-14.372,11.788-16.466l5.446,4.179,8.881,22.437-6.747,1.8Z" fill="#ff9e85"></path>
          <g>
            <circle id="e1_eye" cx="220.829" cy="280.966" r="2.907" transform="translate(-20.081 17.016) rotate(-4.221)" fill="#0a0a0a"></circle>
            <g id="e1_n">
              <path d="m206.692,305.622c-.587.043-1.122-.363-1.228-.954-.114-.632.306-1.237.939-1.35l6.094-1.095-4.685-11.988c-.233-.598.062-1.272.661-1.506.598-.233,1.272.062,1.506.66l5.199,13.305c.126.324.101.688-.069.991s-.466.515-.809.577l-7.486,1.346c-.04.007-.081.012-.121.015Z" fill="#0a0a0a"></path>
            </g>
            <g id="e1_m">
              <path d="m203.407,320.38c-10.511.776-14.108-5.345-14.27-5.633-.316-.559-.119-1.268.44-1.584.555-.315,1.262-.12,1.58.434.151.26,3.821,6.262,15.286,4.026.643-.128,1.242.289,1.365.919.123.63-.289,1.241-.918,1.364-1.237.241-2.397.395-3.482.475Z" fill="#0a0a0a"></path>
            </g>
            <path id="e1_eb-2" data-name="e1_eb" d="m191.226,274.842c.342.843-2.705,2.367-7.036,3.877s-8.267,2.659-8.648,1.592c-.481-1.348,2.658-3.671,6.989-5.181,4.331-1.51,8.157-1.614,8.695-.288Z" fill="#0a0a0a"></path>
            <circle id="e1_eye-2" data-name="e1_eye" cx="191.894" cy="284.959" r="2.907" transform="translate(-20.453 14.897) rotate(-4.221)" fill="#0a0a0a"></circle>
          </g>
          <path d="m135.829,288.92l.453,11.087c1.914-2.681,4.818-4.661,8.308-5.34.867-.18,1.736-.233,2.59-.225,5.598,3.8,2.405,11.73,6.724,11.182,2.453-.311,7.637-6.537,8.717-10.243.685-2.349-6.115-10.665-6.264-13.107" fill="#0a0a0a"></path>
        </g>
        <g>
          <path d="m399.888,236.263c.22-3.082,2.976-5.377,6.082-4.991,2.912.362,4.916,3.142,4.707,6.069l-.522,7.3,12.221-22.281c1.316-2.501,4.53-4.729,7.237-3.068,2.277,1.198,5.066,3.165,6.647,6.173.028.01,8.301,29.304,7.081,31.624l-3.259,23.784c-5.178,9.842-15.809,15.559-26.875,14.45l-17.417-1.745,4.098-57.316Z" fill="#ff9e85"></path>
          <g fill="none" opacity=".2">
            <path d="m420.341,247.583c.241.124.538.034.668-.204l11.595-21.204c.132-.242.043-.546-.199-.679-.218-.143-.546-.043-.679.199l-11.595,21.204c-.132.242-.043.546.199.679l.01.005Z" fill="#0c0c0c"></path>
          </g>
        </g>
        <path d="m419.369,481.018c-2.366,0-4.744-.224-7.105-.68l-177.171-34.192,14.211-73.642,132.565,25.583v-124.518h75v169.947c0,11.19-4.998,21.796-13.628,28.92-6.774,5.592-15.233,8.581-23.872,8.581Z" fill="#0066f9"></path>
        <polygon points="66.51 624.245 57.605 678.533 279.704 678.533 271.402 623.917 66.51 624.245" fill="#262626"></polygon>
        <path id="b_1_b" d="m177.972,400.669c-34.092-1.607-35.527-30.544-35.527-30.544,0,0-16.892,1.092-28.121,2.611-18.384,2.487-30.512,8.721-40.163,18.372-8.978,8.978-14.444,18.692-8.66,80.711,4.188,44.906,1.01,152.426,1.01,152.426l204.892-.328s19.117-137.883,20.837-158.097c3.283-38.589-3.712-71.211-11.724-79.223-16.471-16.471-44.828-16.471-58.989-16.469-.231,0,2.873,32.73-43.555,30.541Z" fill="#0066f9"></path>
        <path d="m295.145,456.676c-.019,0-.038,0-.057-.003-.274-.031-.472-.278-.441-.553l3.229-28.838c.03-.274.283-.476.553-.441.274.031.472.278.441.553l-3.229,28.838c-.028.255-.245.444-.496.444Z" fill="#0c0c0c"></path>
        <path d="m197.716,499.396l26.372-21.855c2.379-1.971,5.942-1.567,7.811.944,1.752,2.354,1.129,5.724-1.131,7.597l-5.635,4.67-26.522,13.736-.895-5.092Z" fill="#ff9e85"></path>
        <path d="m255.639,531.39l-36.137-7.381,15.021-34.577,36.137,7.381-15.021,34.577Z" fill="#0066f9"></path>
        <g>
          <path d="m225.133,490.752l24.547-6.575c2.717-.779,6.548.003,7.22,3.108.709,2.474-.425,5.036-2.585,6.23.011.025.029.047.034.075.006.021.001.042.004.063l4.189-1.201c3.214-.921,6.583,1.264,6.899,4.776.235,2.61-1.587,4.976-4.106,5.698l-1.783.511c-.009.059-.028.115-.057.166,2.554-.132,4.949,1.566,5.557,4.198.66,2.859-1.263,5.696-4.084,6.505l-4.382,1.256c.146.054.269.167.316.331.026.096.013.19-.015.278,2.189.493,3.995,2.324,4.222,4.848.234,2.61-1.587,4.976-4.106,5.698l-37.357,10.706c-10.691,3.064-22.172-.665-29.021-9.427l-10.781-13.79,45.289-23.455Z" fill="#ff9e85"></path>
          <g fill="none" opacity=".2">
            <path d="m230.05,500.144c.077.26.347.412.61.342l23.336-6.282c.266-.072.424-.346.353-.613-.047-.256-.347-.425-.613-.353l-23.336,6.282c-.266.072-.424.346-.353.613l.003.011Z" fill="#0c0c0c"></path>
          </g>
          <g fill="none" opacity=".2">
            <path d="m232.536,510.513c.077.26.347.412.61.342l26.043-7.011c.266-.072.424-.346.353-.613-.067-.243-.346-.424-.613-.353l-26.043,7.011c-.266.072-.424.346-.353.613l.003.011Z" fill="#0c0c0c"></path>
          </g>
          <g fill="none" opacity=".2">
            <path d="m235.165,521.758c.077.26.347.412.61.342l20.774-5.592c.266-.072.424-.346.353-.613-.078-.268-.346-.424-.613-.353l-20.774,5.592c-.266.072-.424.346-.353.613l.003.011Z" fill="#0c0c0c"></path>
          </g>
        </g>
        <path d="m216.792,547.123l-169.665,48.976c-3.188.847-6.421,1.258-9.625,1.258-10.818,0-21.3-4.689-28.527-13.158-9.368-10.979-11.605-26.357-5.753-39.549l57.844-137.801c6.189-19.913,39.769-38.359,58.697-29.96,18.932,8.398,18.258,41.442,9.859,60.373l-34.781,72.465,105.787-24.456,16.163,61.853Z" fill="#0066f9"></path>
        <path d="m67.255,590.788c-.218,0-.417-.142-.48-.361-.076-.265.076-.542.342-.619l149.067-43.03-15.916-60.911-105.314,24.347c-.187.041-.383-.025-.503-.175-.12-.15-.144-.355-.061-.529l34.781-72.465c.12-.25.419-.354.668-.234.248.12.354.418.234.667l-34.331,71.527,104.774-24.222c.261-.06.527.1.596.361l16.162,61.853c.069.262-.084.532-.345.607l-149.536,43.165c-.046.013-.093.02-.139.02Z" fill="#0c0c0c"></path>
        <path d="m77.375,514.024c-.229,0-.437-.16-.487-.394-.059-.27.112-.536.382-.595l17.465-3.798c.269-.056.536.112.595.382.059.27-.112.536-.382.595l-17.465,3.798c-.036.008-.071.011-.107.011Z" fill="#0c0c0c"></path>
        <g>
          <rect x="412.194" y="178.647" width="21.793" height="89.667" rx="6.324" ry="6.324" transform="translate(-24.736 54.955) rotate(-7.221)" fill="#292a2e"></rect>
          <rect x="368.374" y="145.413" width="65.481" height="62.687" rx="31.343" ry="31.343" transform="translate(-19.037 51.822) rotate(-7.221)" fill="#48cf48"></rect>
          <path d="m502.307,183.2l-5.994,2.576-5.038-39.762,6.261.48c.278,5.642.799,11.585,1.575,17.713.844,6.663,1.928,13.046,3.195,18.992Z" fill="#0066f9"></path>
          <path d="m520.622,161.485c.989,7.807.161,14.34-1.847,14.595-.4.051-.816-.151-1.232-.569-.002,0-.003-.002-.005-.002-1.684-1.681-3.4-6.852-4.192-13.102-.735-5.804-.467-10.904.547-13.243.348-.806.784-1.284,1.3-1.35,2.007-.254,4.439,5.866,5.428,13.671Z" fill="#0066f9"></path>
          <path d="m499.126,164.337c-.006-.044-.01-.086-.016-.13-3.212-25.35,1.304-52.495,5.73-62.711-16.294,15.2-39.728,30.417-61.374,36.084-8.735,2.287-19.387,4.26-35.528,6.285l7.987,63.038c16.137-2.064,26.944-2.811,35.973-2.774,22.375.09,48.863,8.981,68.434,19.637-6.834-8.789-17.977-33.95-21.189-59.3-.006-.044-.012-.086-.017-.13Z" fill="#48cf48"></path>
          <rect x="397.765" y="139.67" width="38.272" height="69.916" rx="2.298" ry="2.298" transform="translate(-18.644 53.789) rotate(-7.221)" fill="#292a2e"></rect>
          <rect x="397.765" y="139.67" width="38.272" height="69.916" rx="2.298" ry="2.298" transform="translate(-18.644 53.789) rotate(-7.221)" fill="#fff" opacity=".1"></rect>
          <path d="m530.885,160.181c4.32,34.098.702,62.633-8.065,63.744-1.748.221-3.564-.658-5.38-2.486-.01.001-.011-.009-.021-.007-7.357-7.341-14.849-29.929-18.308-57.225-3.212-25.35-2.039-47.623,2.387-57.839,1.521-3.522,3.426-5.61,5.68-5.895,8.768-1.111,19.388,25.621,23.707,59.708Z" fill="#48cf48"></path>
          <path d="m530.885,160.181c4.32,34.098.702,62.633-8.065,63.744-1.748.221-3.564-.658-5.38-2.486-.01.001-.011-.009-.021-.007-7.357-7.341-14.849-29.929-18.308-57.225-3.212-25.35-2.039-47.623,2.387-57.839,1.521-3.522,3.426-5.61,5.68-5.895,8.768-1.111,19.388,25.621,23.707,59.708Z" fill="#0c0c0c" opacity=".3"></path>
          <path d="m515.198,147.852l3.581,28.266-16.473,7.082c-1.267-5.946-2.351-12.329-3.195-18.992-.776-6.128-1.297-12.072-1.575-17.713l17.661,1.357Z" fill="#fff" opacity=".6"></path>
          <path d="m520.622,161.485c.989,7.807.161,14.34-1.847,14.595-.4.051-.816-.151-1.232-.569-.002,0-.003-.002-.005-.002-1.684-1.681-3.4-6.852-4.192-13.102-.735-5.804-.467-10.904.547-13.243.348-.806.784-1.284,1.3-1.35,2.007-.254,4.439,5.866,5.428,13.671Z" fill="#fff"></path>
        </g>
        <path d="m419.861,250.379c0-2.325,1.566-3.722,3.23-4.277-.033-.071-.163-.22-.037-.27l-3.646-.646c-2.204-.391-3.944-2.304-3.825-4.539.123-2.318,1.969-4.018,4.121-4.131-.025-.035-.017-.084-.03-.126l-1.498-.266c-2.073-.368-3.725-2.106-3.755-4.212-.04-2.833,2.47-4.859,5.115-4.39l3.458.613c0-.019-.016-.033-.012-.052.002-.024.029-.037.036-.06-1.833-.771-2.961-2.725-2.599-4.765.279-2.537,3.275-3.48,5.511-3.084l6.946,1.795c2.178.563,3.925,2.178,4.663,4.303,3.143,9.049,10.789,32.881,3.654,31.617l-17.566-3.112c-2.027-.359-3.763-2.338-3.763-4.397Z" fill="#ff9e85"></path>
      </g>
      <g>
        <circle cx="588.437" cy="79.875" r="35.482" fill="#0066f9"></circle>
        <g>
          <circle cx="588.437" cy="79.875" r="35.482" fill="#fff" opacity=".5"></circle>
          <path d="m606.59,79.814c0,10.025-8.127,18.152-18.152,18.152s-18.152-8.127-18.152-18.152h36.305Z" fill="#fff"></path>
          <g>
            <circle cx="575.624" cy="65.635" r="3.091" fill="#0c0c0c"></circle>
            <circle cx="601.25" cy="65.635" r="3.091" fill="#0c0c0c"></circle>
          </g>
        </g>
      </g>
      <g>
        <path d="m812.978,548.286c-.256,0-.512-.098-.707-.293-1.409-1.409-3.706-27.262-9.893-104.234-2.53-31.488-4.921-61.229-6.665-79.304-.125-1.291-.626-1.441-.79-1.491-2.394-.724-9.652,5.007-13.708,10.022-.347.429-.976.496-1.406.149-.43-.348-.496-.977-.148-1.407,2.681-3.316,11.417-12.008,15.838-10.68.891.268,1.995,1.042,2.205,3.214,1.746,18.091,4.137,47.84,6.669,79.336,3.76,46.775,8.019,99.767,9.418,103.104.281.391.246.939-.105,1.291-.195.195-.451.293-.707.293Z" fill="#494949"></path>
        <ellipse cx="775.382" cy="375.472" rx="38.507" ry="28.398" transform="translate(-64.461 567.46) rotate(-38.715)" fill="#48cf48"></ellipse>
        <ellipse cx="775.382" cy="375.472" rx="38.507" ry="28.398" transform="translate(-64.461 567.46) rotate(-38.715)" fill="#fff" opacity=".2"></ellipse>
        <path d="m749.989,402.665c-.112,0-.226-.038-.319-.115-.212-.176-.242-.491-.065-.704l47.291-57.029c.176-.212.491-.243.704-.065.212.176.242.491.065.704l-47.291,57.029c-.099.119-.241.181-.385.181Z" fill="#fff"></path>
        <path d="m823.292,536.06c-.109,0-.22-.018-.328-.056-.521-.181-.798-.751-.616-1.273l17.764-51.087c1.066-3.066,3.587-5.351,6.742-6.112,3.155-.762,6.44.123,8.786,2.365l9.392,8.971c.399.381.414,1.015.032,1.414-.381.399-1.013.415-1.413.032l-9.392-8.971c-1.854-1.77-4.444-2.468-6.937-1.867-2.49.601-4.48,2.405-5.322,4.825l-17.764,51.087c-.144.413-.53.672-.944.672Z" fill="#494949"></path>
        <ellipse cx="867.372" cy="486.954" rx="28.398" ry="38.507" transform="translate(-114.953 643.468) rotate(-38.363)" fill="#48cf48"></ellipse>
        <path d="m804.908,545.028c-.452,0-.862-.309-.972-.768l-29.811-124.645c-.423-1.767-1.729-3.079-3.494-3.51-1.762-.43-3.528.133-4.718,1.507l-9.189,10.619c-.361.419-.992.463-1.41.102-.418-.362-.463-.993-.102-1.411l9.189-10.619c1.663-1.924,4.229-2.744,6.704-2.141,2.471.603,4.373,2.514,4.965,4.988l29.811,124.645c.128.537-.203,1.077-.74,1.205-.078.019-.156.027-.233.027Z" fill="#494949"></path>
        <ellipse cx="765.927" cy="451.081" rx="38.507" ry="28.398" transform="translate(190.934 1128.947) rotate(-80.189)" fill="#48cf48"></ellipse>
        <path d="m812.979,548.286c-.04,0-.082-.002-.123-.007-.548-.068-.938-.567-.87-1.115l19.037-154.558c.429-3.485,2.779-6.296,6.134-7.335s6.881-.049,9.207,2.583l21.758,24.643c.365.414.326,1.046-.088,1.411-.413.365-1.044.328-1.412-.088l-21.758-24.642c-1.796-2.035-4.522-2.801-7.115-1.997-2.593.803-4.409,2.976-4.741,5.669l-19.037,154.558c-.062.507-.493.878-.991.878Z" fill="#494949"></path>
        <ellipse cx="856.741" cy="407.553" rx="28.398" ry="38.507" transform="translate(85.422 959.977) rotate(-61.051)" fill="#48cf48"></ellipse>
        <ellipse cx="867.372" cy="486.954" rx="28.398" ry="38.507" transform="translate(-114.953 643.468) rotate(-38.363)" fill="#fff" opacity=".2"></ellipse>
        <ellipse cx="765.927" cy="451.081" rx="38.507" ry="28.398" transform="translate(190.934 1128.947) rotate(-80.189)" fill="#fff" opacity=".5"></ellipse>
        <ellipse cx="856.741" cy="407.553" rx="28.398" ry="38.507" transform="translate(85.422 959.977) rotate(-61.051)" fill="#fff" opacity=".5"></ellipse>
        <polygon points="837.326 679.427 788.63 679.427 780.561 523.623 845.396 523.623 837.326 679.427" fill="#292a2e"></polygon>
        <polygon points="837.326 679.427 788.63 679.427 780.561 523.623 845.396 523.623 837.326 679.427" fill="#fff" opacity=".3"></polygon>
        <path d="m891.271,517.647c-.147,0-.293-.065-.392-.189l-47.798-60.386c-.172-.217-.135-.531.081-.703.215-.17.53-.135.702.082l47.798,60.386c.172.217.135.531-.081.703-.092.073-.201.108-.311.108Z" fill="#fff"></path>
        <path d="m887.258,431.03c-.103,0-.206-.031-.295-.096l-61.166-44.663c-.223-.163-.271-.476-.109-.699.165-.223.479-.271.699-.109l61.166,44.663c.223.163.271.476.109.699-.099.134-.251.205-.404.205Z" fill="#fff"></path>
        <path d="m756.883,488.378c-.042,0-.086-.005-.129-.017-.267-.071-.426-.345-.354-.612l19.472-72.953c.07-.266.342-.427.612-.354.267.071.426.345.354.612l-19.472,72.953c-.06.224-.262.371-.483.371Z" fill="#fff"></path>
      </g>
      <path d="m34.892,680.72h862.713c.552,0,1-.448,1-1,0-.552-.448-1-1-1H34.892c-.552,0-1,.448-1,1,0,.552.448,1,1,1Z" fill="#262626"></path>
    </g>
  </g>
</svg>