<svg id="Layer_2" data-name="Layer 2" xmlns="http://www.w3.org/2000/svg" viewBox="0 0 600.027 708.427" style="width: 100%; height: 100%;">
  <g id="Layer_2-2" data-name="Layer 2">
    <g>
      <circle cx="269.886" cy="402.482" r="269.886" fill="#0066f9" opacity=".2"></circle>
      <path d="m21.028,628.842c-20.452-44.061-23.178-93.69-7.676-139.743,20.035-59.516,68.17-105.055,128.764-121.816l16.059,58.056c-41.291,11.423-74.088,42.442-87.734,82.979-10.558,31.364-8.703,65.161,5.224,95.163l-54.637,25.362Z" fill="#0066f9"></path>
      <path d="m24.179,708.427c-6.581,0-12.926-3.607-16.118-9.874-17.751-34.862-3.831-77.668,31.031-95.422,34.861-17.755,77.669-3.832,95.423,31.03,4.528,8.894.989,19.775-7.904,24.304-8.891,4.526-19.776.989-24.304-7.904-4.219-8.286-11.412-14.432-20.254-17.308-8.844-2.877-18.275-2.137-26.561,2.084-17.104,8.71-23.934,29.71-15.224,46.814,4.528,8.894.989,19.775-7.904,24.304-2.626,1.337-5.427,1.971-8.186,1.971Z" fill="#292a2e"></path>
      <g>
        <path d="m491.257,400.675c-25.411,21.671-55.868,36.099-88.965,42.019l-10.605-59.297c26.138-4.674,49.871-17.163,68.633-36.126,23.279-23.525,36.479-54.692,37.168-87.761l60.224,1.256c-1.011,48.564-20.393,94.332-54.574,128.876-3.822,3.861-7.786,7.542-11.88,11.033Z" fill="#0066f9"></path>
        <path d="m575.022,259.042c-12.51,10.669-28.195,16.611-44.844,16.87-18.95.295-36.88-6.809-50.488-19.999-13.607-13.191-21.264-30.891-21.558-49.841-.155-9.977,7.808-18.195,17.788-18.35,9.979-.154,18.194,7.809,18.35,17.788.299,19.192,16.155,34.563,35.345,34.264,9.297-.144,17.986-3.893,24.453-10.577,6.472-6.676,9.957-15.472,9.812-24.769-.156-9.979,7.809-18.194,17.788-18.35,9.979-.154,18.194,7.809,18.35,17.788.295,18.95-6.809,36.88-19.999,50.488-1.601,1.651-3.27,3.215-4.997,4.689Z" fill="#292a2e"></path>
      </g>
      <path d="m446.125,1.378l-16.392,47.538c-.449,1.303.494,2.668,1.871,2.709l11.059.33c1.398.042,2.342,1.444,1.855,2.754l-18.243,49.113c-.819,2.205,2.122,3.821,3.544,1.947l42.953-56.612c.816-1.076.383-2.633-.871-3.133l-12.865-5.133c-1.059-.423-1.568-1.631-1.129-2.684l14.426-34.655c.55-1.32-.392-2.782-1.821-2.828L448.123.001c-.896-.029-1.706.529-1.998,1.376Z" fill="#0066f9"></path>
      <path d="m27.442,219.55l19.101,37.146c.523,1.018-.09,2.252-1.218,2.449l-9.054,1.58c-1.144.2-1.755,1.464-1.199,2.484l20.809,38.222c.934,1.716-1.293,3.392-2.683,2.02l-42.012-41.464c-.798-.788-.627-2.12.345-2.679l9.97-5.742c.821-.473,1.096-1.526.611-2.34l-15.961-26.786c-.608-1.02-.007-2.334,1.162-2.541l18.323-3.244c.733-.13,1.465.233,1.806.895Z" fill="#292a2e"></path>
      <g>
        <path d="m101.667,370.445l39.93,225.845c10.655,60.264,63.026,104.188,124.225,104.188h0c59.568,0,111.018-41.668,123.397-99.935l48.885-230.098H101.667Z" fill="#0066f9"></path>
        <ellipse cx="269.886" cy="370.445" rx="168.219" ry="49.735" fill="#292a2e"></ellipse>
        <rect x="191.803" y="498.063" width="158.133" height="97.35" rx="20.195" ry="20.195" fill="#292a2e"></rect>
        <path d="m258.112,548.556h-7c0-9.222,4.179-21.932,24.083-30.107,11.66-4.789,7.799-22.485,7.759-22.664l6.822-1.566c.223.963,5.239,23.658-11.921,30.706-13.101,5.38-19.743,13.332-19.743,23.632Z" fill="#0066f9"></path>
        <path d="m320.915,599.507c-6.808-12.765-9.648-12.512-21.627-11.447-3.899.347-8.752.779-14.677.779-26.515,0-29.273-19.298-29.298-19.494l6.943-.882-3.472.441,3.468-.474c.08.547,2.203,13.409,22.358,13.409,5.613,0,10.099-.399,14.057-.751,13.477-1.201,19.798-1.048,28.423,15.125l-6.176,3.294Z" fill="#0066f9"></path>
        <g>
          <path d="m240.002,552.144c-.232,0-.467-.054-.688-.167l-7.565-3.905c-.735-.38-1.024-1.285-.645-2.021.381-.737,1.287-1.021,2.021-.645l7.565,3.905c.735.38,1.024,1.285.645,2.021-.267.516-.791.812-1.334.812Z" fill="#fff"></path>
          <path d="m230.859,566.989c-.604,0-1.174-.368-1.401-.967-.295-.774.094-1.641.867-1.936l7.957-3.029c.774-.294,1.642.094,1.936.868.295.774-.094,1.641-.867,1.936l-7.957,3.029c-.176.067-.356.099-.534.099Z" fill="#fff"></path>
        </g>
        <g>
          <path d="m278.712,560.824c-.719,0-1.354-.518-1.478-1.25-.138-.817.413-1.591,1.229-1.729l8.396-1.419c.814-.136,1.591.412,1.729,1.229.138.817-.413,1.591-1.229,1.729l-8.396,1.419c-.085.014-.169.021-.252.021Z" fill="#fff"></path>
          <path d="m272.569,550.662c-.274,0-.551-.075-.8-.231-.7-.442-.91-1.369-.468-2.069l4.545-7.2c.442-.701,1.369-.908,2.069-.468.7.442.91,1.369.468,2.069l-4.545,7.2c-.285.452-.772.699-1.27.699Z" fill="#fff"></path>
        </g>
        <path d="m358.192,543.318c-14.562,0-26.711-3.978-36.207-11.874-17.545-14.59-19.426-37.109-19.497-38.061l6.98-.524-3.49.262,3.489-.268c.017.205,1.784,20.606,17.048,33.253,9.999,8.285,23.633,11.553,40.546,9.711l.758,6.959c-3.316.361-6.526.542-9.627.542Z" fill="#0066f9"></path>
        <path d="m175.694,586.822l-1.293-6.88c26.837-5.046,26.817-16.211,26.794-29.138-.015-8.706-.032-18.573,10.224-24.342,19.074-10.731,17.547-35.055,17.529-35.299l6.98-.525c.089,1.177,1.931,28.98-21.078,41.924-6.357,3.577-6.671,9.257-6.655,18.229.024,13.325.054,29.908-32.501,36.03Z" fill="#0066f9"></path>
      </g>
      <path d="m382.558,385.962c-.131,0-.264-.013-.396-.04-7.577-1.524-21.872-8.004-21.744-21.616.053-5.587,2.521-10.312,7.038-13.619-2.03-3.607-2.897-8.141-1.861-13.539,2.857-14.891,17.85-17.5,25.382-16.794,1.1.103,1.908,1.077,1.806,2.177-.103,1.098-1.059,1.913-2.174,1.806h0c-.739-.069-18.202-1.464-21.086,13.565-.857,4.471-.158,8.002,1.364,10.739,7.424-3.582,17.593-3.603,22.261-.031,2.002,1.532,2.865,3.627,2.429,5.899-.934,4.87-6.649,7.298-13.888,5.91-4.433-.851-8.771-3.044-11.891-6.487-2.812,2.067-5.333,5.334-5.38,10.412-.129,13.7,18.349,17.62,18.535,17.657,1.082.22,1.781,1.275,1.562,2.357-.191.949-1.025,1.604-1.957,1.604Zm-9.161-34.072c2.729,2.639,6.27,4.068,9.045,4.601,4.771.914,8.731-.26,9.206-2.735.098-.51.08-1.194-.932-1.969-3.021-2.311-10.886-2.685-17.319.104Z" fill="#fff"></path>
      <path d="m211.61,370.94c-.609,0-1.21-.277-1.603-.801-.661-.883-.482-2.135.398-2.797h0c.432-.326,10.5-8.088,4.775-17.507-1.636-2.692-3.59-4.15-5.474-4.896-2.5,5.696-8.153,10.705-12.594,11.073-2.076.173-3.784-.643-4.79-2.297-1.115-1.835-1.07-4.048.126-6.232,2.229-4.071,7.773-7.114,13.181-7.236.45-.008.899,0,1.34.029.386-2.354.05-5.105-2.21-7.65-6.578-7.406-18.456-.465-18.574-.394-.951.566-2.178.253-2.742-.695-.564-.949-.254-2.177.695-2.742.604-.36,14.864-8.677,23.611,1.174,2.803,3.155,3.872,7.023,3.14,11.138,3.09,1.146,5.738,3.408,7.709,6.651,6.096,10.028-1.124,19.289-5.793,22.784-.359.269-.779.399-1.196.399Zm-6.002-26.693c-4.353.14-8.315,2.718-9.65,5.155-.495.904-.567,1.655-.216,2.234.103.168.276.444,1.042.388,2.51-.208,6.627-3.54,8.824-7.777Z" fill="#fff"></path>
      <g>
        <g>
          <path d="m430.612,204.417c10.238,72.405-57.701,117.546-147.585,130.256-89.884,12.71-167.676-11.825-177.914-84.229s50.954-165.261,140.838-177.971c89.884-12.71,174.423,59.54,184.661,131.944Z" fill="#0066f9"></path>
          <rect x="205.716" y="133.012" width="199.623" height="106.128" rx="53.064" ry="53.064" transform="translate(-23.043 44.61) rotate(-8.048)" fill="#fff"></rect>
        </g>
        <rect x="237.677" y="16.472" width="7.309" height="73.649" transform="translate(-5.718 46.381) rotate(-10.85)" fill="#0066f9"></rect>
        <circle cx="235.426" cy="22.481" r="13.358" fill="#292a2e"></circle>
        <g>
          <path d="m285.566,212.173c-1.255,0-2.521-.393-3.602-1.206l-39.31-29.57c-2.648-1.992-3.181-5.753-1.188-8.402,1.991-2.647,5.754-3.181,8.401-1.188l39.31,29.57c2.648,1.992,3.181,5.753,1.188,8.402-1.179,1.567-2.979,2.394-4.8,2.394Z" fill="#292a2e"></path>
          <path d="m251.125,217.042c-1.256,0-2.521-.393-3.602-1.206-2.648-1.992-3.181-5.754-1.188-8.402l29.57-39.31c1.991-2.648,5.755-3.18,8.401-1.188,2.648,1.992,3.181,5.754,1.188,8.402l-29.57,39.31c-1.179,1.567-2.979,2.394-4.8,2.394Z" fill="#292a2e"></path>
        </g>
        <g>
          <path d="m370.933,200.102c-1.255,0-2.521-.393-3.602-1.206l-39.31-29.57c-2.648-1.992-3.181-5.753-1.188-8.402,1.991-2.647,5.753-3.181,8.401-1.188l39.31,29.57c2.648,1.992,3.181,5.753,1.188,8.402-1.179,1.567-2.979,2.394-4.8,2.394Z" fill="#292a2e"></path>
          <path d="m336.494,204.971c-1.255,0-2.521-.393-3.602-1.206-2.648-1.992-3.181-5.753-1.188-8.402l29.569-39.31c1.991-2.647,5.754-3.181,8.401-1.188,2.648,1.992,3.181,5.753,1.188,8.402l-29.569,39.31c-1.179,1.567-2.979,2.394-4.8,2.394Z" fill="#292a2e"></path>
        </g>
        <path d="m313.838,261.577c2.202-2.927,5.323-4.98,8.93-5.845,4.106-.984,8.349-.311,11.948,1.896,3.599,2.207,6.123,5.683,7.107,9.789.518,2.161-.814,4.335-2.976,4.853-2.162.518-4.335-.814-4.853-2.976-.997-4.158-5.191-6.73-9.348-5.733-2.014.483-3.721,1.72-4.803,3.487-1.083,1.766-1.413,3.847-.931,5.861.519,2.162-.814,4.335-2.976,4.853-2.162.518-4.335-.814-4.853-2.976-.984-4.106-.311-8.349,1.896-11.948.268-.437.555-.858.859-1.262Z" fill="#292a2e"></path>
      </g>
    </g>
  </g>
</svg>