<svg id="Layer_2" data-name="Layer 2" xmlns="http://www.w3.org/2000/svg" viewBox="0 0 700.509 620.375" style="width: 100%; height: 100%;">
  <g id="Layer_2-2" data-name="Layer 2">
    <g>
      <g>
        <path d="m409.549,225.171s-1.043-55.835,49.435-55.835c53.217,0,43.362-37.783,94.696-34.696,34.696,2.087,43.696,38.735,63.652,44.15,19.957,5.415,38.739,11.986,38.739,45.328l-246.522,1.052Z" fill="#fff"></path>
        <path d="m518.63,503.891s-.77-41.194,36.472-41.194c39.263,0,31.992-27.876,69.865-25.598,25.598,1.54,32.238,28.578,46.961,32.573,14.724,3.995,28.581,8.843,28.581,33.442l-181.879.777Z" fill="#fff"></path>
        <path d="m.001,315.109s-.927-49.607,43.921-49.607c47.281,0,38.525-33.569,84.133-30.826,30.826,1.854,38.822,34.414,56.552,39.225,17.73,4.811,34.418,10.649,34.418,40.272L.001,315.109Z" fill="#fff"></path>
        <path d="m409.549,225.171s-1.043-55.835,49.435-55.835c53.217,0,43.362-37.783,94.696-34.696,34.696,2.087,43.696,38.735,63.652,44.15,19.957,5.415,38.739,11.986,38.739,45.328l-246.522,1.052Z" fill="#0066f9" opacity=".1"></path>
        <path d="m518.63,503.891s-.77-41.194,36.472-41.194c39.263,0,31.992-27.876,69.865-25.598,25.598,1.54,32.238,28.578,46.961,32.573,14.724,3.995,28.581,8.843,28.581,33.442l-181.879.777Z" fill="#0066f9" opacity=".1"></path>
        <path d="m.001,315.109s-.927-49.607,43.921-49.607c47.281,0,38.525-33.569,84.133-30.826,30.826,1.854,38.822,34.414,56.552,39.225,17.73,4.811,34.418,10.649,34.418,40.272L.001,315.109Z" fill="#0066f9" opacity=".1"></path>
      </g>
      <g>
        <g>
          <path d="m264.519,284.72s1.315,39.463-4.953,51.835c-18.045,35.617-21.964,62.658.746,80.714,22.709,18.056,156.637,6.771,162.835-39.806,5.218-39.213-13.466-41.767-20.666-73.122-3.258-14.187-11.409-43.822-11.409-43.822" fill="#0a0a0a"></path>
          <path id="sk" d="m382.302,377.314c-.229-.03-2.77,42.137-51.756,38.461-33.913-2.54-46.004-38.521-46.781-38.521,3.656-.777,9.813-1.907,11.437-2.774,5.34-2.869,11.947-5.855,13.669-16.225.992-5.977-.691-36.555-.173-42.602l52.056,11.619c-.727,12.772-5.818,42.381,12.025,47.621,2.969.867,6.167,1.664,9.524,2.421Z" fill="#ff9e85"></path>
          <path id="sh" d="m361.483,362.793c-.737-2.354-1.176-4.4-1.566-8.079-.697-6.58-.326-12.628.34-18.791-10.516-1.4-20.612-5.823-28.771-12.605-.967,3.57-6.283,19.168-4.811,22.561,2.782,6.413,15.856,16.915,34.807,16.915Z" fill="#0c0c0c" opacity=".22"></path>
          <path d="m354.691,348.239c-20.541,3.799-40.595-2.629-48.529-29.735l-11.624-24.008c-7.934-27.106-.129-53.248,25.393-60.718h0c25.522-7.47,47.252-.921,55.186,26.185,0,0,4.775,15.486,5.796,20.782,3.85,19.973,4.943,61.73-26.224,67.494Z" fill="#ff9e85"></path>
          <path d="m360.748,318.22c.434-.079.807.288.757.727-.645,5.69-5.449,9.491-11.328,9.283s-10.679-4.32-10.983-10.009c-.024-.454.403-.796.839-.668,1.391.41,4.618,1.125,10.575,1.292,5.117.143,8.635-.352,10.14-.625Z" fill="#fff"></path>
          <path id="e1_eb" d="m376.073,277.073c-.008.905-3.389,1.142-7.946.877-4.557-.266-8.612-.713-8.555-1.839.072-1.422,3.844-2.359,8.4-2.093,4.557.266,8.112,1.631,8.1,3.055Z" fill="#0a0a0a"></path>
          <path d="m274.586,305.22l30.07,5.208c16.954-8.874,12.12-51.727,12.12-51.727,0,0,23.493,18.799,74.296,1.818,0,0-17.298-69.15-92.007-40.551-24.09,9.222-39.186,38.213-33.705,71.337,3.841,23.213,9.226,13.915,9.226,13.915Z" fill="#0a0a0a"></path>
          <path d="m305.7,326.748c-7.756,2.27-16.168.259-19.554-11.425-2.249-7.762,3.577-14.392,11.333-16.662l5.518,4.027,9.372,22.108-6.668,1.952Z" fill="#ff9e85"></path>
          <g>
            <g id="e1_n">
              <path d="m354.331,310.748c-.583.057-1.125-.334-1.245-.92-.128-.626.275-1.238.902-1.366l6.036-1.235-4.948-11.813c-.246-.59.031-1.267.621-1.514.589-.246,1.267.031,1.514.62l5.49,13.112c.133.319.117.682-.045.988s-.452.523-.791.593l-7.415,1.518c-.04.008-.08.014-.12.018Z" fill="#0a0a0a"></path>
            </g>
            <path id="e1_eb-2" data-name="e1_eb" d="m341.049,278.912c.36.831-2.634,2.419-6.907,4.025-4.272,1.606-8.161,2.843-8.565,1.79-.511-1.329,2.556-3.715,6.829-5.321,4.272-1.606,8.076-1.8,8.643-.494Z" fill="#0a0a0a"></path>
          </g>
          <path d="m286.277,294.242l.716,11.019c1.839-2.713,4.681-4.752,8.137-5.511.858-.2,1.722-.274,2.571-.286,5.659,3.646,2.673,11.611,6.956,10.963,2.433-.368,7.441-6.686,8.427-10.398.625-2.353-6.338-10.463-6.545-12.889" fill="#0a0a0a"></path>
        </g>
        <g>
          <path d="m524.501,104.813c-1.633-2.623-.752-6.099,1.988-7.612,2.569-1.419,5.824-.347,7.375,2.144l3.868,6.213-1.871-21.835c-.405-2.797.886-6.488,4.053-6.736,2.547-.369,4.622-3.791,7.669-2.286.028-.008,23.939,18.83,24.315,21.424l1.473,34.565c1.596,11.006-35.804,8.804-35.804,8.804l-13.065-34.681Z" fill="#ff9e85"></path>
          <g fill="none" opacity=".1">
            <path d="m524.501,104.813c-1.633-2.623-.752-6.099,1.988-7.612,2.569-1.419,5.824-.347,7.375,2.144l3.868,6.213-1.871-21.835c-.405-2.797.886-6.488,4.053-6.736,2.547-.369,4.622-3.791,7.669-2.286.028-.008,23.939,18.83,24.315,21.424l1.473,34.565c1.596,11.006-35.804,8.804-35.804,8.804l-13.065-34.681Z" fill="#0c0c0c"></path>
          </g>
        </g>
        <g>
          <path d="m122.97,177.961l-10.23-32.687c-.942-3.009-4.265-4.614-7.247-3.388-2.644,1.086-3.867,4.166-3.013,6.893l2.194,7.009-17.015-18.875c-1.855-2.131-5.495-3.561-7.749-1.322-1.941,1.69-2.384,4.456-1.222,6.634-.023.016-.05.024-.069.044-.016.015-.023.034-.037.051l-2.861-3.287c-2.206-2.535-6.251-2.523-8.419.294-1.588,2.062-1.333,5.01.375,6.974l1.217,1.399c-.024.054-.039.112-.042.17-2.089-1.514-5.056-1.378-6.998.548-2.059,2.041-1.998,5.407-.094,7.594l3.024,3.474c-.152-.035-.316-.006-.446.106-.074.067-.114.152-.139.241-2.157-.797-4.74-.196-6.293,1.919-1.512,2.058-1.22,4.939.457,6.866l25.513,29.313c7.301,8.389,18.962,11.508,29.477,7.886h0c9.215-3.175,14.232-13.105,11.321-22.407l-1.705-5.447Z" fill="#ff9e85"></path>
          <g fill="none" opacity=".2">
            <path d="m95.437,160.991c-.206.176-.516.157-.697-.045l-16.158-17.971c-.184-.205-.168-.521.038-.706.179-.189.522-.168.706.038l16.158,17.971c.184.205.168.521-.038.706l-.009.008Z" fill="#0c0c0c"></path>
          </g>
          <g fill="none" opacity=".2">
            <path d="m87.708,168.336c-.206.176-.516.157-.697-.045l-18.033-20.056c-.184-.205-.168-.521.038-.706.189-.168.522-.167.706.038l18.033,20.056c.184.205.168.521-.038.706l-.009.008Z" fill="#0c0c0c"></path>
          </g>
          <g fill="none" opacity=".2">
            <path d="m79.382,176.34c-.206.176-.516.157-.697-.045l-14.385-15.998c-.184-.205-.168-.521.038-.706.211-.182.522-.167.706.038l14.385,15.998c.184.205.168.521-.038.706l-.009.008Z" fill="#0c0c0c"></path>
          </g>
        </g>
        <path d="m520.816,118.806l-32.745,158.068-111.501,112.636,58.544,54.521,110.548-126.216.663-.746c3.776-4.343,6.56-9.66,7.908-15.67l37.533-167.285-70.951-15.307Z" fill="#0066f9"></path>
        <path id="b_1_b" d="m329.602,405.545c-34.092-1.607-35.527-30.544-35.527-30.544,0,0-16.892,1.092-28.121,2.611-18.384,2.487-30.512,8.721-40.163,18.372-8.978,8.978-6.432,36.988-6.432,36.988l9.012,187.402h205.75l9.728-186.369s11.054-23.65-7.734-43.528c-13.625-14.416-48.797-15.476-62.958-15.474-.231,0,2.873,32.73-43.555,30.541Z" fill="#0066f9"></path>
        <path d="m169.43,308.232l-36.867-131.846-69.713,20.21,42.618,141.947c1.876,6.18,5.479,12.071,10.688,16.648l.697.613,112.289,98.697,50.727-61.861-110.439-84.407Z" fill="#0066f9"></path>
        <g>
          <path d="m528.773,79.285l-1.687,1.15c-18.024,12.293-42.6,7.647-54.893-10.376l-15.798-23.163c-.876-1.285-.545-3.036.74-3.913L519.438.49c1.285-.876,3.036-.545,3.913.74l15.798,23.163c12.293,18.024,7.647,42.6-10.376,54.893Z" fill="#48cf48"></path>
          <path d="m497.617,34.689l9.463,5.34c.131.074.29.079.425.013l9.764-4.768c.34-.166.724.13.649.501l-2.155,10.65c-.03.147.015.3.119.408l7.552,7.813c.263.272.1.729-.276.772l-10.795,1.242c-.149.017-.281.107-.352.24l-5.097,9.597c-.178.335-.662.32-.82-.024l-4.517-9.883c-.063-.137-.188-.234-.337-.26l-10.702-1.882c-.373-.066-.509-.531-.23-.787l8.003-7.35c.111-.102.164-.252.143-.401l-1.518-10.76c-.053-.375.347-.648.677-.462Z" fill="#fafafa"></path>
          <path d="m531.349,67.908l-7.898,5.387-1.595,1.088-6.303,4.299s42.924,39.229,40.878,86.846l18.83-12.843,1.595-1.088,20.425-13.931c-45.078-15.476-65.933-69.758-65.933-69.758Z" fill="#48cf48"></path>
          <rect x="539.139" y="141.004" width="83.116" height="32.446" rx="3.692" ry="3.692" transform="translate(12.368 354.539) rotate(-34.296)" fill="#48cf48"></rect>
          <path d="m483.425,88.303c-6.179,4.215-14.446,4.923-21.468,1.129-10.014-5.41-13.759-17.957-8.35-27.971,2.62-4.851,6.973-8.391,12.256-9.968,5.283-1.577,10.864-1.002,15.715,1.618h0c4.851,2.62,8.391,6.973,9.968,12.256,1.577,5.283,1.002,10.864-1.618,15.715-1.616,2.992-3.87,5.425-6.503,7.22Zm-19.231-28.108c-1.746,1.191-3.193,2.79-4.227,4.703-3.515,6.507-1.081,14.66,5.425,18.175,6.507,3.515,14.661,1.081,18.175-5.426,1.703-3.152,2.077-6.779,1.052-10.211-1.025-3.433-3.325-6.261-6.477-7.964h0c-3.152-1.703-6.779-2.076-10.212-1.051-1.35.403-2.606,1.003-3.737,1.774Z" fill="#48cf48"></path>
          <path d="m553.281,40.663c-.739.504-1.518.965-2.338,1.379-4.921,2.486-10.516,2.906-15.754,1.184-5.237-1.722-9.49-5.381-11.976-10.303-2.486-4.921-2.906-10.516-1.184-15.753,1.723-5.237,5.383-9.492,10.302-11.976,4.921-2.485,10.516-2.906,15.754-1.184s9.491,5.381,11.976,10.303c4.717,9.339,1.64,20.607-6.781,26.35Zm-19.225-28.112c-2.424,1.653-4.228,4.043-5.16,6.877-1.119,3.403-.846,7.039.769,10.237,1.615,3.198,4.379,5.575,7.782,6.694,3.403,1.119,7.039.846,10.236-.769,6.605-3.335,9.259-11.417,5.926-18.019h0c-1.615-3.198-4.379-5.575-7.782-6.695-3.403-1.119-7.039-.846-10.237.769-.535.27-1.047.573-1.535.905Z" fill="#48cf48"></path>
        </g>
        <path d="m548.956,104.495c-1.366-1.881-.921-3.932.099-5.359-.069-.038-.261-.082-.189-.197l-3.33,1.62c-2.013.979-4.545.454-5.763-1.424-1.263-1.948-.769-4.408.906-5.764-.041-.014-.063-.058-.099-.084l-1.368.666c-1.893.921-4.252.485-5.513-1.201-1.697-2.269-.857-5.383,1.558-6.558l3.157-1.536c-.011-.015-.032-.018-.041-.035-.013-.021.001-.047-.006-.07-1.936.454-3.997-.464-4.904-2.328-1.265-2.216.604-4.741,2.646-5.734l6.674-2.63c2.093-.825,4.456-.545,6.302.741,7.862,5.474,28.054,20.261,21.538,23.432l-16.041,7.806c-1.851.901-4.418.32-5.629-1.345Z" fill="#ff9e85"></path>
        <path d="m55.432,620.375h586.129c.552,0,1-.448,1-1,0-.552-.448-1-1-1H55.432c-.552,0-1,.448-1,1,0,.552.448,1,1,1Z" fill="#292a2e"></path>
      </g>
      <g>
        <rect x="28.587" y="402.685" width="8" height="28.869" transform="translate(-149.615 40.486) rotate(-21.349)" fill="#0066f9"></rect>
        <rect x="614.352" y="329.29" width="28.869" height="8" transform="translate(-38.985 579.329) rotate(-48.152)" fill="#0066f9"></rect>
        <rect x="552.291" y="413.541" width="8.001" height="28.869" transform="translate(-119.749 616.635) rotate(-53.165)" fill="#48cf48"></rect>
        <rect x="177.689" y="196.318" width="28.87" height="8" transform="translate(-85.07 186.095) rotate(-43.259)" fill="#0066f9"></rect>
        <rect x="432.496" y="154.022" width="8" height="28.87" transform="translate(-25.881 239.965) rotate(-29.894)" fill="#0066f9"></rect>
        <rect x="131.126" y="508.545" width="28.869" height="8" transform="translate(-365.574 362.109) rotate(-57.746)" fill="#48cf48"></rect>
        <rect x="520.235" y="567.568" width="28.869" height="8" transform="translate(-215.595 794.424) rotate(-63.454)" fill="#48cf48"></rect>
        <rect x="638.562" y="489.456" width="7.999" height="28.869" transform="translate(-117.634 205.739) rotate(-16.688)" fill="#0066f9"></rect>
        <rect x="87.212" y="562.007" width="8" height="28.869" transform="translate(-438.344 331.135) rotate(-56.154)" fill="#0066f9"></rect>
        <rect x="337.587" y="91.829" width="8" height="28.869" transform="translate(-7.515 184.377) rotate(-29.893)" fill="#48cf48"></rect>
      </g>
      <g id="eye">
        <path d="m333.419,294.254c-.17,0-.344-.039-.506-.122-.552-.28-.771-.955-.491-1.506.926-1.822,2.226-3.014,3.864-3.541,2.669-.86,5.218.433,5.325.488.549.284.764.96.479,1.51-.284.55-.958.765-1.51.48-.412-.208-4.121-1.938-6.162,2.078-.197.389-.591.613-1,.613Z" fill="#0a0a0a"></path>
      </g>
      <g id="eye-2" data-name="eye">
        <path d="m360.138,288.47c-.272,0-.545-.098-.76-.298-.454-.42-.481-1.129-.062-1.583,1.388-1.5,2.964-2.292,4.685-2.352,2.793-.094,4.901,1.841,4.989,1.924.451.424.473,1.132.049,1.583-.423.452-1.133.473-1.583.05-.339-.313-3.434-2.991-6.495.317-.221.239-.521.359-.823.359Z" fill="#0a0a0a"></path>
      </g>
    </g>
  </g>
</svg>