<svg id="Layer_2" data-name="Layer 2" xmlns="http://www.w3.org/2000/svg" viewBox="0 0 523.55 411.531" style="width: 100%; height: 100%;">
  <g id="Layer_2-2" data-name="Layer 2">
    <g>
      <g>
        <path d="m121.16,383.708c98.272,65.159,239.881,5.659,327.367-73.394,83.967-75.874,124.796-272.893-26.736-305.142-63.098-13.429-91.793.575-138.259,27.243-37.515,21.531-89.061,11.339-126.34-7.959C104.478-2.833,39.513,36.857,11.704,96.711c-34.078,73.349,7.407,219.333,109.456,286.997Z" fill="#fff" opacity=".08"></path>
        <path d="m121.16,383.708c98.272,65.159,239.881,5.659,327.367-73.394,83.967-75.874,124.796-272.893-26.736-305.142-63.098-13.429-91.793.575-138.259,27.243-37.515,21.531-89.061,11.339-126.34-7.959C104.478-2.833,39.513,36.857,11.704,96.711c-34.078,73.349,7.407,219.333,109.456,286.997Z" fill="#0066f9" opacity=".1"></path>
      </g>
      <g>
        <g>
          <path d="m135.121,73.751s1.315,39.463-4.953,51.835c-18.045,35.617-21.964,62.658.746,80.714,22.709,18.056,156.637,6.771,162.835-39.806,5.218-39.213-13.466-41.767-20.666-73.122-3.258-14.187-11.409-43.822-11.409-43.822" fill="#0a0a0a"></path>
          <path id="sk" d="m252.904,166.345c-.229-.03-2.77,42.137-51.756,38.461-33.913-2.54-46.004-38.521-46.781-38.521,3.656-.777,9.813-1.907,11.437-2.774,5.34-2.869,11.947-5.855,13.669-16.225.992-5.977-.691-36.555-.173-42.602l52.056,11.619c-.727,12.772-5.818,42.381,12.025,47.621,2.969.867,6.167,1.664,9.524,2.421Z" fill="#ff9e85"></path>
          <path id="sh" d="m232.085,151.824c-.737-2.354-1.176-4.4-1.566-8.079-.697-6.58-.326-12.628.34-18.791-10.516-1.4-20.612-5.823-28.771-12.605-.967,3.57-6.283,19.168-4.811,22.561,2.782,6.413,15.856,16.915,34.807,16.915Z" fill="#0c0c0c" opacity=".22"></path>
          <path d="m225.293,137.27c-20.541,3.799-40.595-2.629-48.529-29.735l-11.624-24.008c-7.934-27.106-.129-53.248,25.393-60.718h0c25.522-7.47,47.252-.921,55.186,26.185,0,0,4.775,15.486,5.796,20.782,3.85,19.973,4.943,61.73-26.224,67.494Z" fill="#ff9e85"></path>
          <path d="m231.35,107.251c.434-.079.807.288.757.727-.645,5.69-5.449,9.491-11.328,9.283s-10.679-4.32-10.983-10.009c-.024-.454.403-.796.839-.668,1.391.41,4.618,1.125,10.575,1.292,5.117.143,8.635-.352,10.14-.625Z" fill="#fff"></path>
          <path id="e1_eb" d="m246.675,66.104c-.008.905-3.389,1.142-7.946.877-4.557-.266-8.612-.713-8.555-1.839.072-1.422,3.844-2.359,8.4-2.093,4.557.266,8.112,1.631,8.1,3.055Z" fill="#0a0a0a"></path>
          <path d="m145.188,94.251l30.07,5.208c16.954-8.874,12.12-51.727,12.12-51.727,0,0,23.493,18.799,74.296,1.818,0,0-17.298-69.15-92.007-40.551-24.09,9.222-39.186,38.213-33.705,71.337,3.841,23.213,9.226,13.915,9.226,13.915Z" fill="#0a0a0a"></path>
          <path d="m176.302,115.779c-7.756,2.27-16.168.259-19.554-11.425-2.249-7.762,3.577-14.392,11.333-16.662l5.518,4.027,9.372,22.108-6.668,1.952Z" fill="#ff9e85"></path>
          <g>
            <circle id="e1_eye" cx="234.135" cy="75.912" r="2.892" transform="translate(-6.289 23.202) rotate(-5.598)" fill="#0a0a0a"></circle>
            <g id="e1_n">
              <path d="m222.222,99.779c-.583.057-1.125-.334-1.245-.92-.128-.626.275-1.238.902-1.366l6.036-1.235-4.948-11.813c-.246-.59.031-1.267.621-1.514.589-.246,1.267.031,1.514.62l5.49,13.112c.133.319.117.682-.045.988s-.452.523-.791.593l-7.415,1.518c-.04.008-.08.014-.12.018Z" fill="#0a0a0a"></path>
            </g>
            <path id="e1_eb-2" data-name="e1_eb" d="m211.651,67.943c.36.831-2.634,2.419-6.907,4.025-4.272,1.606-8.161,2.843-8.565,1.79-.511-1.329,2.556-3.715,6.829-5.321,4.272-1.606,8.076-1.8,8.643-.494Z" fill="#0a0a0a"></path>
            <circle id="e1_eye-2" data-name="e1_eye" cx="205.447" cy="80.577" r="2.893" transform="translate(-6.88 20.425) rotate(-5.598)" fill="#0a0a0a"></circle>
          </g>
          <path d="m156.879,83.273l.716,11.019c1.839-2.713,4.681-4.752,8.137-5.511.858-.2,1.722-.274,2.571-.286,5.659,3.646,2.673,11.611,6.956,10.963,2.433-.368,7.441-6.686,8.427-10.398.625-2.353-6.338-10.463-6.545-12.889" fill="#0a0a0a"></path>
        </g>
        <path d="m314.399,192.735l63.715,169.413-52.88-14.959,120.265-89.697,42.846,58.588-121.929,87.421c-15.771,11.307-37.722,7.689-49.03-8.082-1.395-1.946-2.563-3.986-3.509-6.089l-.342-.788-73.19-165.541,74.053-30.268Z" fill="#0066f9"></path>
        <path id="b_1_b" d="m200.132,194.643c-34.092-1.607-35.527-30.544-35.527-30.544,0,0-16.892,1.092-28.121,2.611-18.384,2.487-30.512,8.721-40.163,18.372-8.978,8.978-14.444,18.692-8.66,80.711,4.188,44.906,1.24,143.679,1.24,143.679h205.75s12.338-129.465,14.058-149.679c3.283-38.589,16.724-60.34-2.064-80.218-13.625-14.416-48.797-15.476-62.958-15.474-.231,0,2.873,32.73-43.555,30.541Z" fill="#0066f9"></path>
        <g>
          <path d="m397.917,201.088c-12.789-21.599-41.731-24.194-63.33-11.405l-1.37.85-.918-1.479c-13.22-21.339-40.17-32.468-61.509-19.248-21.339,13.22-27.92,41.235-14.701,62.574l43.917,69.377c2.964,4.683,9.137,6.12,13.865,3.228l69.697-42.627c20.433-13.275,26.763-40.302,14.348-61.27Z" fill="#0066f9"></path>
          <path d="m397.917,201.088c-12.789-21.599-41.731-24.194-63.33-11.405l-1.37.85-.918-1.479c-13.22-21.339-40.17-32.468-61.509-19.248-21.339,13.22-27.92,41.235-14.701,62.574l43.917,69.377c2.964,4.683,9.137,6.12,13.865,3.228l69.697-42.627c20.433-13.275,26.763-40.302,14.348-61.27Z" fill="#fff" opacity=".6"></path>
        </g>
        <g>
          <path d="m324.283,245.759c-22.676-13.667-50.853-1.607-64.521,21.069l-.847,1.474-1.592-.915c-22.946-13.209-53.541-10.073-66.75,12.874-13.209,22.946-5.316,52.256,17.63,65.466l75.473,42.479c5.094,2.867,11.546,1.116,14.491-3.933l43.421-74.435c12.341-22.545,4.708-50.811-17.305-64.079Z" fill="#0066f9"></path>
          <path d="m324.283,245.759c-22.676-13.667-50.853-1.607-64.521,21.069l-.847,1.474-1.592-.915c-22.946-13.209-53.541-10.073-66.75,12.874-13.209,22.946-5.316,52.256,17.63,65.466l75.473,42.479c5.094,2.867,11.546,1.116,14.491-3.933l43.421-74.435c12.341-22.545,4.708-50.811-17.305-64.079Z" fill="#fff" opacity=".5"></path>
        </g>
        <path d="m304.511,277.913c.018-.275.255-.486.53-.468.276.018.485.255.468.53l-4.183,66.828c-.016.251-.215.448-.459.467-.023.002-.047.002-.071,0-.276-.018-.485-.255-.468-.53" fill="#0c0c0c"></path>
        <g>
          <path d="m460.484,271.915c.22-3.082,2.976-5.377,6.082-4.991,2.912.362,4.916,3.142,4.707,6.069l-.522,7.3,10.716-19.663c1.316-2.501,4.53-4.729,7.237-3.068,2.277,1.198,6.571.547,8.152,3.556.028.01,8.301,29.304,7.081,31.624h0c-5.178,9.842-22.586,16.405-33.652,15.296l-17.417-1.745,7.615-34.378Z" fill="#ff9e85"></path>
          <g fill="none" opacity=".1">
            <path d="m460.484,271.915c.22-3.082,2.976-5.377,6.082-4.991,2.912.362,4.916,3.142,4.707,6.069l-.522,7.3,10.716-19.663c1.316-2.501,4.53-4.729,7.237-3.068,2.277,1.198,6.571.547,8.152,3.556.028.01,8.301,29.304,7.081,31.624h0c-5.178,9.842-22.586,16.405-33.652,15.296l-17.417-1.745,7.615-34.378Z" fill="#0c0c0c"></path>
          </g>
          <path d="m479.556,249.654c-20.001-25.303-57.301-23.627-82.604-3.626l-1.598,1.318-1.423-1.725c-20.505-24.897-56.737-34.432-81.634-13.927-24.897,20.505-28.457,57.311-7.952,82.208l67.859,80.785c4.58,5.453,12.688,6.221,18.211,1.725l81.414-66.272c23.735-20.419,27.144-55.924,7.728-80.487Z" fill="#48cf48"></path>
          <path d="m480.457,286.031c0-2.325,1.566-3.722,3.23-4.277-.033-.071-.163-.22-.037-.27l-3.646-.646c-2.204-.391-3.944-2.304-3.825-4.539.123-2.318,1.969-4.018,4.121-4.131-.025-.035-.017-.084-.03-.126l-1.498-.266c-2.073-.368-3.725-2.106-3.755-4.212-.04-2.833,2.47-4.859,5.115-4.39l3.458.613c0-.019-.016-.033-.012-.052.002-.024.029-.037.036-.06-1.833-.771-2.961-2.725-2.599-4.765.279-2.537,3.275-3.48,5.511-3.084l6.946,1.795c2.178.563,3.925,2.178,4.663,4.303,3.143,9.049,10.789,32.881,3.654,31.617l-17.566-3.112c-2.027-.359-3.763-2.338-3.763-4.397Z" fill="#ff9e85"></path>
        </g>
        <g>
          <path d="m268.329,319.794l27.283-20.707c2.512-1.906,6.15-1.287,7.869,1.44,1.524,2.418.736,5.636-1.54,7.364l-5.85,4.44,24.806-5.518c2.747-.662,6.542.284,7.081,3.414.602,2.502-.64,5.013-2.85,6.114.009.026.027.048.03.076.005.021,0,.042.001.063l4.236-1.02c3.267-.787,6.556,1.567,6.69,5.119.099,2.601-1.818,4.855-4.348,5.465l-1.803.434c-.012.058-.033.113-.064.163,2.58-.022,4.918,1.808,5.385,4.503.495,2.857-1.506,5.564-4.325,6.243l-4.478,1.078c.144.06.261.179.302.344.021.097.005.19-.027.277,2.219.601,3.976,2.587,4.016,5.211.039,2.554-1.869,4.732-4.352,5.33l-37.781,9.098c-10.812,2.604-22.123-1.613-28.591-10.66h0c-5.669-7.929-4.002-18.928,3.762-24.821l4.546-3.451Z" fill="#ff9e85"></path>
          <g fill="none" opacity=".2">
            <path d="m300.601,321.924c.065.263.329.427.595.367l23.584-5.278c.269-.06.439-.328.379-.597-.036-.258-.328-.439-.597-.379l-23.584,5.278c-.269.06-.439.328-.379.597l.003.011Z" fill="#0c0c0c"></path>
          </g>
          <g fill="none" opacity=".2">
            <path d="m302.641,332.39c.065.263.329.427.595.367l26.319-5.89c.269-.06.439-.328.379-.597-.057-.246-.328-.439-.597-.379l-26.319,5.89c-.269.06-.439.328-.379.597l.003.011Z" fill="#0c0c0c"></path>
          </g>
          <g fill="none" opacity=".2">
            <path d="m304.786,343.737c.065.263.329.427.595.367l20.995-4.698c.269-.06.439-.328.379-.597-.066-.271-.328-.439-.597-.379l-20.995,4.698c-.269.06-.439.328-.379.597l.003.011Z" fill="#0c0c0c"></path>
          </g>
        </g>
        <path id="b_4_b" d="m280.044,369.339l-173.387,39.415c-1.356.147-2.712.22-4.061.22-10.264,0-20.15-4.216-27.274-11.767-8.061-8.545-11.652-20.372-9.703-31.955l19.842-159.603c3.437-20.423,22.775-34.19,43.202-30.759,20.423,3.436,34.195,22.778,30.759,43.202l-9.555,114.235,120.464-27.261,9.714,64.273Z" fill="#0066f9"></path>
        <g id="b_4_st">
          <path d="m125.49,336.819c-.244,0-.457-.178-.494-.426-.041-.273.147-.527.42-.568l24.161-5.159c.283-.043.528.147.569.42.041.273-.147.527-.42.568l-24.161,5.159c-.025.004-.05.006-.075.006Z" fill="#0c0c0c"></path>
        </g>
        <g id="b_4_st-2" data-name="b_4_st">
          <path d="m111.859,409.473c-.248,0-.462-.184-.495-.436-.036-.273.157-.524.431-.561l167.161-39.371-9.471-63.301-119.745,25.851c-.158.019-.315-.035-.425-.148-.11-.114-.16-.274-.134-.431l6.716-65.27c.045-.272.298-.461.576-.41.272.046.456.304.41.576l-6.604,64.602,119.434-25.87c.13-.037.269-.017.385.051s.2.18.233.311l9.714,64.273c.066.263-.091.532-.353.604l-167.767,39.527c-.022.003-.044.004-.065.004Z" fill="#0c0c0c"></path>
        </g>
        <g>
          <path d="m495.251,118.335c-6.602-11.15-21.543-12.49-32.694-5.888l-.707.439-.474-.764c-6.825-11.016-20.738-16.761-31.753-9.937-11.016,6.825-14.414,21.287-7.589,32.303l22.672,35.815c1.53,2.417,4.717,3.159,7.158,1.667l35.98-22.006c10.549-6.853,13.816-20.806,7.407-31.63Z" fill="#48cf48"></path>
          <path d="m495.251,118.335c-6.602-11.15-21.543-12.49-32.694-5.888l-.707.439-.474-.764c-6.825-11.016-20.738-16.761-31.753-9.937-11.016,6.825-14.414,21.287-7.589,32.303l22.672,35.815c1.53,2.417,4.717,3.159,7.158,1.667l35.98-22.006c10.549-6.853,13.816-20.806,7.407-31.63Z" fill="#fff" opacity=".2"></path>
        </g>
        <g>
          <path d="m396.715,13.166c-5.995-3.509-13.346-.25-16.855,5.745l-.217.39-.421-.235c-6.064-3.388-14.08-2.461-17.468,3.603-3.388,6.064-1.218,13.727,4.846,17.115l19.943,10.889c1.346.735,3.033.254,3.788-1.081l11.139-19.674c3.161-5.956,1.063-13.346-4.756-16.752Z" fill="#0066f9"></path>
          <path d="m396.715,13.166c-5.995-3.509-13.346-.25-16.855,5.745l-.217.39-.421-.235c-6.064-3.388-14.08-2.461-17.468,3.603-3.388,6.064-1.218,13.727,4.846,17.115l19.943,10.889c1.346.735,3.033.254,3.788-1.081l11.139-19.674c3.161-5.956,1.063-13.346-4.756-16.752Z" fill="#fff" opacity=".5"></path>
        </g>
      </g>
      <path d="m491.642,410.473H50.444c-.552,0-1-.448-1-1s.448-1,1-1h441.198c.552,0,1,.448,1,1s-.448,1-1,1Z" fill="#292a2e"></path>
    </g>
  </g>
</svg>