<svg width="286" height="182" viewBox="0 0 286 182" fill="none" xmlns="http://www.w3.org/2000/svg" style="width: 100%; height: 100%;">
<g clip-path="url(#clip0_35_2845)">
<path d="M64.841 168.073C64.3 149.236 70.621 131.021 87.588 122.819C97.897 117.835 102.967 114.522 102.881 106.148C102.763 94.652 94.317 90.162 88.463 85.112C78.339 76.378 69.234 64.831 67.063 51.638C66.341 47.251 66.12 40.162 65.719 35.482H156.681C156.281 40.162 156.059 47.251 155.337 51.638C153.166 64.831 144.061 76.379 133.937 85.112C128.083 90.162 119.637 94.652 119.519 106.148C119.433 114.522 124.503 117.835 134.812 122.819C151.778 131.021 158.1 149.236 157.559 168.073" fill="white"></path>
<path d="M64.841 168.073C64.3 149.236 70.621 131.021 87.588 122.819C97.897 117.835 102.967 114.522 102.881 106.148C102.763 94.652 94.317 90.162 88.463 85.112C78.339 76.378 69.234 64.831 67.063 51.638C66.341 47.251 66.12 40.162 65.719 35.482H156.681C156.281 40.162 156.059 47.251 155.337 51.638C153.166 64.831 144.061 76.379 133.937 85.112C128.083 90.162 119.637 94.652 119.519 106.148C119.433 114.522 124.503 117.835 134.812 122.819C151.778 131.021 158.1 149.236 157.559 168.073" stroke="#010101" stroke-width="1.5" stroke-linecap="round" stroke-linejoin="round"></path>
<path d="M157.556 168.069H64.844C64.296 149.232 70.623 131.024 87.584 122.821C97.895 117.831 102.966 114.52 102.876 106.147C102.858 104.137 102.58 102.342 102.104 100.727C99.887 93.063 93.291 89.285 88.463 85.112C79.982 77.798 72.211 68.501 68.63 57.911C67.948 55.865 67.409 53.774 67.06 51.638C66.342 47.25 66.118 40.16 65.714 35.485H156.685C156.281 40.161 156.057 47.25 155.339 51.638C154.989 53.774 154.45 55.865 153.76 57.911V57.938C150.179 68.51 142.417 77.798 133.936 85.112C129.117 89.267 122.548 93.045 120.304 100.664C119.819 102.297 119.541 104.11 119.523 106.147C119.433 114.52 124.504 117.831 134.815 122.821C151.776 131.023 158.103 149.232 157.555 168.069H157.556Z" fill="white" stroke="#010101" stroke-width="1.5" stroke-linecap="round" stroke-linejoin="round"></path>
<path d="M117.146 99.668C120.133 97.388 130.766 87.845 133.936 85.112C142.417 77.798 150.179 68.51 153.76 57.938V57.911H68.632C72.213 68.501 79.984 77.798 88.465 85.112C91.581 87.805 102.244 97.34 107.557 100.713C109.462 101.922 110.622 104.015 110.622 106.271V140.089C110.622 141.798 109.943 143.436 108.735 144.644L80.444 172.935H142.804L114.647 144.778C113.439 143.57 112.76 141.931 112.76 140.223V105.166C112.76 102.692 115.686 100.782 117.146 99.668Z" fill="#0066f9" stroke="#010101" stroke-width="1.5" stroke-linecap="round" stroke-linejoin="round"></path>
<path d="M153.591 24.267C133.253 24.267 85.756 24.78 64.706 24.78C62.131 24.78 59.135 25.384 57.897 27.643C56.592 30.026 58.238 33.159 60.641 34.425C63.044 35.691 65.455 35.574 68.172 35.574C91.161 35.574 124.799 37.129 152.44 35.905C155.549 35.767 159.284 36.22 161.485 34.019C167.083 28.421 161.804 24.267 153.59 24.267H153.591Z" fill="#010101" stroke="#010101" stroke-width="1.5" stroke-linecap="round" stroke-linejoin="round"></path>
<path d="M154.593 168.073C134.255 168.073 86.758 168.586 65.708 168.586C63.133 168.586 60.137 169.19 58.899 171.449C57.594 173.832 59.24 176.965 61.643 178.231C64.046 179.497 66.457 179.38 69.174 179.38C92.163 179.38 125.801 180.935 153.442 179.711C156.551 179.573 160.286 180.026 162.487 177.825C168.085 172.227 162.806 168.073 154.592 168.073H154.593Z" fill="#010101" stroke="#010101" stroke-width="1.5" stroke-linecap="round" stroke-linejoin="round"></path>
<path d="M150.261 180.18L162.9 72.5H275.975L263.336 180.18H150.261Z" fill="white" stroke="#010101" stroke-width="1.5" stroke-linecap="round" stroke-linejoin="round"></path>
<path d="M196.123 19.903C206.288 18.561 214.936 10.288 216.144 0.75C215.282 8.963 223.347 16.515 231.512 19.639C227.331 19.86 221.008 23.453 218.865 26.819C216.722 30.185 215.923 34.148 215.53 38.048C215.306 28.381 206.075 19.662 196.123 19.903Z" fill="white" stroke="#010101" stroke-width="1.5" stroke-linecap="round" stroke-linejoin="round"></path>
<path d="M9.738 93.602C19.248 92.44 23.749 85.274 24.879 77.012C24.073 84.126 29.164 91.445 36.803 94.151C32.892 94.343 29.429 96.678 27.424 99.593C25.419 102.508 24.672 105.941 24.304 109.319C24.094 100.945 19.049 93.393 9.738 93.602Z" fill="white" stroke="#010101" stroke-width="1.5" stroke-linecap="round" stroke-linejoin="round"></path>
<path d="M72.856 179.114L58.099 145.729C54.655 137.938 50.822 129.686 43.59 125.187C39.688 122.759 34.255 121.791 30.693 124.695C28.189 126.736 27.272 130.117 26.724 133.3C23.993 149.179 27.149 166.002 36.382 180.091C48.701 180.643 61.811 179.634 72.856 179.114Z" fill="#55D087" stroke="#010101" stroke-width="1.5" stroke-linecap="round" stroke-linejoin="round"></path>
<path d="M36.097 128.451C39.992 145.357 44.877 162.034 50.719 178.37L36.097 128.451Z" fill="white"></path>
<path d="M36.097 128.451C39.992 145.357 44.877 162.034 50.719 178.37" stroke="#010101" stroke-width="1.5" stroke-linecap="round" stroke-linejoin="round"></path>
<path d="M43.337 180.339C38.726 171.307 34.104 162.253 28.54 153.775C24.535 147.672 19.698 141.611 12.887 138.986C10.479 138.058 7.687 137.624 5.37 138.76C2.749 140.044 1.377 143.031 0.947 145.917C0.0120003 152.192 2.562 158.437 5.467 164.078C8.213 169.41 11.327 174.552 15.956 179.879C27.069 180.021 34.932 180.232 43.337 180.339Z" fill="#55D087" stroke="#010101" stroke-width="1.5" stroke-linecap="round" stroke-linejoin="round"></path>
<path d="M8.315 140.619C14.165 153.882 20.95 166.732 28.605 179.042L8.315 140.619Z" fill="white"></path>
<path d="M8.315 140.619C14.165 153.882 20.95 166.732 28.605 179.042" stroke="#010101" stroke-width="1.5" stroke-linecap="round" stroke-linejoin="round"></path>
<path d="M171.452 105.084L173.695 86.238H193.438L191.195 105.084H171.452Z" fill="white" stroke="#010101" stroke-width="1.5" stroke-linecap="round" stroke-linejoin="round"></path>
<path d="M179.333 91.714C181.497 94.191 183.66 96.669 185.824 99.146C192.567 93.417 199.311 87.689 206.054 81.96" stroke="#010101" stroke-width="1.5" stroke-linecap="round" stroke-linejoin="round"></path>
<path d="M166.939 136.269L169.182 117.424H188.925L186.682 136.269H166.939Z" fill="white" stroke="#010101" stroke-width="1.5" stroke-linecap="round" stroke-linejoin="round"></path>
<path d="M174.82 122.899C176.984 125.376 179.147 127.854 181.311 130.331C188.054 124.602 194.798 118.874 201.541 113.145" stroke="#010101" stroke-width="1.5" stroke-linecap="round" stroke-linejoin="round"></path>
<path d="M163.798 167.455L166.041 148.609H185.784L183.541 167.455H163.798Z" fill="white" stroke="#010101" stroke-width="1.5" stroke-linecap="round" stroke-linejoin="round"></path>
<path d="M171.679 154.084C173.843 156.561 176.006 159.039 178.17 161.516C184.913 155.787 191.657 150.059 198.4 144.33" stroke="#010101" stroke-width="1.5" stroke-linecap="round" stroke-linejoin="round"></path>
<path d="M210.273 91.573C227.628 90.75 245.026 90.818 262.374 91.776C262.029 91.728 261.685 91.681 261.34 91.633" stroke="#010101" stroke-width="1.5" stroke-linecap="round" stroke-linejoin="round"></path>
<path d="M209.661 100.576C216.05 100.79 227.823 100.555 234.212 100.769" stroke="#010101" stroke-width="1.5" stroke-linecap="round" stroke-linejoin="round"></path>
<path d="M206.667 122.028C224.022 121.205 241.42 121.273 258.768 122.231C258.423 122.183 258.079 122.136 257.734 122.088" stroke="#010101" stroke-width="1.5" stroke-linecap="round" stroke-linejoin="round"></path>
<path d="M206.054 131.031C212.443 131.245 224.216 131.01 230.605 131.224" stroke="#010101" stroke-width="1.5" stroke-linecap="round" stroke-linejoin="round"></path>
<path d="M202.153 152.321C219.508 151.498 236.906 151.566 254.254 152.524C253.909 152.476 253.565 152.429 253.22 152.381" stroke="#010101" stroke-width="1.5" stroke-linecap="round" stroke-linejoin="round"></path>
<path d="M201.541 161.324C207.93 161.538 219.703 161.303 226.092 161.517" stroke="#010101" stroke-width="1.5" stroke-linecap="round" stroke-linejoin="round"></path>
<path d="M246.107 151.175C245.32 155.615 243.887 160.359 243.076 164.725C247.312 163.301 250.839 161.038 255.075 159.613C251.185 156.347 248.746 153.503 246.107 151.175Z" fill="white" stroke="#010101" stroke-width="1.5" stroke-linecap="round" stroke-linejoin="round"></path>
<path d="M246.107 151.175C255.449 139.725 265.93 128.073 276.666 117.811C278.676 119.147 283.256 123.985 284.7 125.719C275.742 137.074 264.528 148.749 255.075 159.613C251.348 156.846 249.519 154.433 246.107 151.175Z" fill="#42d242" stroke="#010101" stroke-width="1.5" stroke-linecap="round" stroke-linejoin="round"></path>
<path d="M271.781 123.189C273.952 125.183 278.171 129.062 280.342 131.056L271.781 123.189Z" fill="white"></path>
<path d="M271.781 123.189C273.952 125.183 278.171 129.062 280.342 131.056" stroke="#010101" stroke-width="1.5" stroke-linecap="round" stroke-linejoin="round"></path>
</g>
<defs>
<clipPath id="clip0_35_2845">
<rect width="285.451" height="181.089" fill="white"></rect>
</clipPath>
</defs>
</svg>