<svg width="722" height="423" viewBox="0 0 722 423" fill="none" xmlns="http://www.w3.org/2000/svg" style="width: 100%; height: 100%;">
<g clip-path="url(#clip0_35_1922)">
<path d="M570.987 414.994C570.987 414.994 286.461 416.286 121.872 416.286C121.729 393.873 113.715 236.019 112.347 153.145C112.112 138.824 559.534 150.54 559.534 150.54L570.988 414.995L570.987 414.994Z" fill="white" stroke="#010101" stroke-width="1.5" stroke-linecap="round" stroke-linejoin="round"></path>
<path d="M76.979 390.457C61.688 375.736 41.728 365.94 20.729 362.849C15.549 362.087 9.76996 361.869 5.61596 365.056C2.06296 367.781 0.513961 372.55 0.778961 377.02C1.04396 381.49 2.89096 385.717 5.07996 389.624C10.941 400.086 19.498 409.023 30.677 415.365C55.315 415.457 79.954 415.548 104.592 415.64C92.352 406.454 85.267 400.908 76.979 390.457Z" fill="#55D087" stroke="#010101" stroke-width="1.5" stroke-linecap="round" stroke-linejoin="round"></path>
<path d="M162.236 416.469C162.606 416.825 118.42 339.648 85.2818 313.85C78.8678 308.856 71.4958 304.612 63.4018 303.858C55.3078 303.104 46.4298 306.553 42.6448 313.747C38.8218 321.012 40.9058 329.912 43.7958 337.596C54.9848 367.339 76.5158 391.835 98.8658 415.801C121.681 416.807 161.988 416.231 162.236 416.469Z" fill="#55D087" stroke="#010101" stroke-width="1.5" stroke-linecap="round" stroke-linejoin="round"></path>
<path d="M58.678 310.93C77.435 347.663 103.83 379.864 126.027 414.626" stroke="#010101" stroke-width="1.5" stroke-linecap="round" stroke-linejoin="round"></path>
<path d="M86.8521 357.273C89.9841 348.62 93.3931 340.068 97.0711 331.633" stroke="#010101" stroke-width="1.5" stroke-linecap="round" stroke-linejoin="round"></path>
<path d="M69.8059 373.255C76.4419 373.891 83.0779 374.527 89.7139 375.163C93.4039 375.517 97.1039 375.872 100.728 376.652" stroke="#010101" stroke-width="1.5" stroke-linecap="round" stroke-linejoin="round"></path>
<path d="M14.6299 373.368C33.7529 386.166 52.0229 400.238 69.2789 415.459" stroke="#010101" stroke-width="1.5" stroke-linecap="round" stroke-linejoin="round"></path>
<path d="M44.4009 394.877C44.2419 389.64 43.8729 384.409 43.2949 379.201" stroke="#010101" stroke-width="1.5" stroke-linecap="round" stroke-linejoin="round"></path>
<path d="M56.663 405.827C50.783 405.812 44.895 405.674 39.024 406.084C36.122 406.287 33.281 406.57 30.361 406.404C29.382 406.348 28.36 406.099 27.377 406.126C27.591 406.135 27.805 406.144 28.02 406.154" stroke="#010101" stroke-width="1.5" stroke-linecap="round" stroke-linejoin="round"></path>
<path d="M227.572 250.695C218.611 260.273 210.765 267.625 200.56 276.941C207.009 281.911 226.365 292.985 233.999 297.39" stroke="#010101" stroke-width="1.5" stroke-linecap="round" stroke-linejoin="round"></path>
<path d="M276.194 244.378C269.136 264.778 263.034 285.509 257.915 306.48" stroke="#010101" stroke-width="1.5" stroke-linecap="round" stroke-linejoin="round"></path>
<path d="M293.535 252.293C303.623 260.582 314.413 268.018 325.75 274.495C314.625 282.126 303.5 289.758 292.376 297.389" stroke="#010101" stroke-width="1.5" stroke-linecap="round" stroke-linejoin="round"></path>
<path d="M559.533 150.539C559.533 150.539 270.368 152.714 112.346 153.144C112.111 138.823 112.346 118.348 112.346 118.348L558.191 116.308L559.533 150.539Z" fill="#0066f9" stroke="#010101" stroke-width="1.5" stroke-linecap="round" stroke-linejoin="round"></path>
<path d="M360.219 379.211C336.424 380.144 228.197 381.544 164.525 381.544C164.525 318.17 156.24 260.334 156.897 201.358C224.195 198.204 288.829 202.133 352.881 199.477C353.828 228.252 355.407 260.569 357.074 298.322C357.491 307.964 357.92 317.967 358.337 328.356C358.994 344.348 359.625 361.267 360.219 379.21V379.211Z" stroke="#010101" stroke-width="1.5" stroke-linecap="round" stroke-linejoin="round"></path>
<path d="M374.272 334.995L364.765 162.92L191.027 161.922L200.179 335.513L374.272 334.995Z" fill="#010101" stroke="#010101" stroke-width="1.5" stroke-miterlimit="10"></path>
<path d="M209.564 181.933C225.664 180.731 241.861 180.422 258.057 181.006" stroke="white" stroke-width="1.5" stroke-linecap="round" stroke-linejoin="round"></path>
<path d="M273.368 180.99C279.91 180.858 286.453 180.726 292.995 180.594" stroke="white" stroke-width="1.5" stroke-linecap="round" stroke-linejoin="round"></path>
<path d="M305.587 181.208C317.667 180.597 329.776 180.338 341.896 180.433" stroke="white" stroke-width="1.5" stroke-linecap="round" stroke-linejoin="round"></path>
<path d="M210.068 196.364C219.635 196.693 229.201 196.585 238.727 196.042" stroke="white" stroke-width="1.5" stroke-linecap="round" stroke-linejoin="round"></path>
<path d="M251.112 196.168C270.881 194.998 290.737 194.754 310.594 195.438" stroke="white" stroke-width="1.5" stroke-linecap="round" stroke-linejoin="round"></path>
<path d="M210.524 209.422C226.922 210.242 243.337 209.845 259.591 208.235" stroke="white" stroke-width="1.5" stroke-linecap="round" stroke-linejoin="round"></path>
<path d="M272.914 207.563C277.552 207.354 282.199 207.268 286.85 207.303" stroke="white" stroke-width="1.5" stroke-linecap="round" stroke-linejoin="round"></path>
<path d="M301.777 207.351C307.992 207.22 314.207 207.089 320.422 206.959" stroke="white" stroke-width="1.5" stroke-linecap="round" stroke-linejoin="round"></path>
<path d="M211.068 225.016H224.424" stroke="white" stroke-width="1.5" stroke-linecap="round" stroke-linejoin="round"></path>
<path d="M235.634 225.326C257.671 224.617 279.707 223.908 301.744 223.2" stroke="white" stroke-width="1.5" stroke-linecap="round" stroke-linejoin="round"></path>
<path d="M313.72 223.033C319.548 223.052 325.375 223.071 331.203 223.09" stroke="white" stroke-width="1.5" stroke-linecap="round" stroke-linejoin="round"></path>
<path d="M212.179 256.825C220.634 257.089 229.088 257.353 237.543 257.616" stroke="white" stroke-width="1.5" stroke-linecap="round" stroke-linejoin="round"></path>
<path d="M246.016 258.313C256.281 257.986 266.546 257.659 276.812 257.333" stroke="white" stroke-width="1.5" stroke-linecap="round" stroke-linejoin="round"></path>
<path d="M289.974 257.349C308.601 257.243 327.195 256.309 345.682 254.549" stroke="white" stroke-width="1.5" stroke-linecap="round" stroke-linejoin="round"></path>
<path d="M212.802 274.655C231.672 274.771 250.527 274.345 269.335 273.379" stroke="white" stroke-width="1.5" stroke-linecap="round" stroke-linejoin="round"></path>
<path d="M284.634 273.116C294.004 273.603 303.381 273.714 312.734 273.45" stroke="white" stroke-width="1.5" stroke-linecap="round" stroke-linejoin="round"></path>
<path d="M213.387 291.407C222.022 291.211 230.657 291.015 239.292 290.819" stroke="white" stroke-width="1.5" stroke-linecap="round" stroke-linejoin="round"></path>
<path d="M256.91 290.829C274.729 291.685 292.563 291.311 310.244 289.711" stroke="white" stroke-width="1.5" stroke-linecap="round" stroke-linejoin="round"></path>
<path d="M321.977 289.291C326.221 289.16 330.465 289.028 334.709 288.897" stroke="white" stroke-width="1.5" stroke-linecap="round" stroke-linejoin="round"></path>
<path d="M213.913 306.465C227.481 306.916 241.047 306.588 254.523 305.483" stroke="white" stroke-width="1.5" stroke-linecap="round" stroke-linejoin="round"></path>
<path d="M268.883 306.649C280.825 306.499 292.767 306.349 304.708 306.198" stroke="white" stroke-width="1.5" stroke-linecap="round" stroke-linejoin="round"></path>
<path d="M191.321 163.739L190.51 143.727L364.069 142.983C364.069 142.983 364.387 157.274 364.71 163.23C307.907 163.013 191.321 163.739 191.321 163.739Z" fill="white" stroke="#010101" stroke-width="1.5" stroke-linecap="round" stroke-linejoin="round"></path>
<path d="M353.375 147.635C350.412 151.077 347.449 154.519 344.485 157.96Z" fill="#0066f9"></path>
<path d="M353.375 147.635C350.412 151.077 347.449 154.519 344.485 157.96" stroke="#010101" stroke-width="1.5" stroke-linecap="round" stroke-linejoin="round"></path>
<path d="M344.507 147.978C347.456 151.191 350.405 154.404 353.354 157.616Z" fill="#0066f9"></path>
<path d="M344.507 147.978C347.456 151.191 350.405 154.404 353.354 157.616" stroke="#010101" stroke-width="1.5" stroke-linecap="round" stroke-linejoin="round"></path>
<path d="M167.398 49.9821L183.832 43.9081L224.196 62.6971L215.172 100.794L175.227 97.2211L152.283 82.4051L167.398 49.9821Z" fill="white" stroke="#010101" stroke-width="1.5" stroke-linecap="round" stroke-linejoin="round"></path>
<path d="M179.11 70.794C181.93 76.777 188.217 81.4 194.809 80.854C198.595 80.541 202.045 78.651 205.383 76.841C204.923 81.711 205.549 86.609 205.725 91.498C206.061 100.827 200.341 110.021 199.036 119.264C194.588 119.264 165.023 121.005 164.879 120.076C163.78 112.966 158.001 105.44 159.451 98.393C160.901 91.346 164.431 84.888 168.526 78.973C170.793 75.698 173.286 72.514 179.109 70.793L179.11 70.794Z" fill="white" stroke="#010101" stroke-width="1.5" stroke-linecap="round" stroke-linejoin="round"></path>
<path d="M179.431 78.214C181.038 82.378 185.048 85.381 189.421 86.278C193.793 87.174 198.433 86.116 202.297 83.883" stroke="#010101" stroke-width="1.5" stroke-linecap="round" stroke-linejoin="round"></path>
<path d="M176.365 46.066C174.826 39.521 175.258 32.357 175.358 25.634C175.458 18.912 177.877 12.56 181.864 7.14703C182.983 5.62703 184.292 4.22103 185.883 3.20503C188.075 1.80603 190.69 1.21903 193.276 0.948028C201.751 0.0610277 207.656 2.30903 215.881 4.53703C219.702 5.57203 223.786 6.77403 226.263 9.86203C228.763 12.979 229.795 17.018 229.954 21.01C230.022 22.714 229.542 26.043 228.806 27.581C227.85 29.58 223.629 38.813 221.603 39.708C216.929 41.772 213.831 33.638 209.048 35.436C202.014 38.08 195.5 41.986 189.507 46.52C187.603 47.96 185.637 49.515 183.281 49.9C180.926 50.285 177.139 49.363 176.364 46.066H176.365Z" fill="#010101" stroke="#010101" stroke-width="1.5" stroke-linecap="round" stroke-linejoin="round"></path>
<path d="M188.24 62.739C190.722 64.399 200.414 70.583 209.634 63.722C211.033 62.681 212.579 61.036 213.793 59.783C214.817 58.726 215.634 57.489 216.408 56.238C221.858 47.43 226.422 32.131 226.964 30.044C227.486 28.035 227.425 25.744 226.199 24.068C225.837 23.573 225.373 23.139 224.81 22.897C224.15 22.613 223.408 22.609 222.689 22.615C219.314 22.642 215.865 22.762 212.647 21.744C210.331 21.011 208.238 19.718 206.016 18.736C203.794 17.754 201.298 17.078 198.944 17.677C195.863 18.461 193.727 21.208 192.017 23.887C189.888 27.223 189.872 28.269 188.307 31.903C188.115 32.349 187.906 32.824 187.499 33.088C186.736 33.584 185.645 33.045 185.241 32.23C184.837 31.415 184.927 30.451 185.043 29.549C184.645 27.896 183.149 26.361 181.425 26.214C180.088 26.1 178.793 26.729 177.711 27.522C175.615 29.058 173.983 31.439 173.968 34.037C173.954 36.635 175.942 39.278 178.536 39.427C179.829 39.502 181.076 38.995 182.511 38.795C180.624 41.028 178.736 43.261 176.849 45.494C176.647 45.733 176.443 45.976 176.313 46.26C176.123 46.675 176.033 47.156 176.124 47.603" fill="white"></path>
<path d="M188.24 62.739C190.722 64.399 200.414 70.583 209.634 63.722C211.033 62.681 212.579 61.036 213.793 59.783C214.817 58.726 215.634 57.489 216.408 56.238C221.858 47.43 226.422 32.131 226.964 30.044C227.486 28.035 227.425 25.744 226.199 24.068C225.837 23.573 225.373 23.139 224.81 22.897C224.15 22.613 223.408 22.609 222.689 22.615C219.314 22.642 215.865 22.762 212.647 21.744C210.331 21.011 208.238 19.718 206.016 18.736C203.794 17.754 201.298 17.078 198.944 17.677C195.863 18.461 193.727 21.208 192.017 23.887C189.888 27.223 189.872 28.269 188.307 31.903C188.115 32.349 187.906 32.824 187.499 33.088C186.736 33.584 185.645 33.045 185.241 32.23C184.837 31.415 184.927 30.451 185.043 29.549C184.645 27.896 183.149 26.361 181.425 26.214C180.088 26.1 178.793 26.729 177.711 27.522C175.615 29.058 173.983 31.439 173.968 34.037C173.954 36.635 175.942 39.278 178.536 39.427C179.829 39.502 181.076 38.995 182.511 38.795C180.624 41.028 178.736 43.261 176.849 45.494C176.647 45.733 176.443 45.976 176.313 46.26C176.123 46.675 176.033 47.156 176.124 47.603" stroke="#010101" stroke-width="1.5" stroke-linecap="round" stroke-linejoin="round"></path>
<path d="M170.703 183.361C179.774 190.814 195.292 195.746 204.912 198.038C207.664 198.694 207.7 196.058 206.248 195.081C203.172 193.009 200.195 191.229 197.594 189.457C201.264 192.15 204.989 194.625 209.46 195.78C210.183 195.967 210.945 196.109 211.651 195.965C212.357 195.82 212.99 195.317 213.017 194.658C213.052 193.809 212.158 193.128 211.357 192.613C207.382 190.054 203.446 187.865 199.492 185.475C202.115 187.243 204.701 188.645 207.439 190.258C209.474 191.457 211.575 192.627 213.874 193.235C214.526 193.408 215.21 193.534 215.857 193.434C216.504 193.334 217.113 192.967 217.293 192.404C217.627 191.359 216.457 190.348 215.419 189.672C210.813 186.674 206.104 184.231 201.409 181.842C205.245 184.291 209.235 186.112 213.489 187.842C214.377 188.203 216.573 189.011 217.148 188.374C217.491 187.994 217.444 187.401 217.179 186.934C216.914 186.467 216.469 186.097 216.029 185.747C212.938 183.29 210.306 181.433 206.921 179.328C205.384 178.372 203.912 177.33 203.051 176.837C200.848 175.575 198.447 174.78 193.303 172.985L193.223 169.177C193.223 169.177 177.265 167.857 176.137 167.794" fill="white"></path>
<path d="M170.703 183.361C179.774 190.814 195.292 195.746 204.912 198.038C207.664 198.694 207.7 196.058 206.248 195.081C203.172 193.009 200.195 191.229 197.594 189.457C201.264 192.15 204.989 194.625 209.46 195.78C210.183 195.967 210.945 196.109 211.651 195.965C212.357 195.82 212.99 195.317 213.017 194.658C213.052 193.809 212.158 193.128 211.357 192.613C207.382 190.054 203.446 187.865 199.492 185.475C202.115 187.243 204.701 188.645 207.439 190.258C209.474 191.457 211.575 192.627 213.874 193.235C214.526 193.408 215.21 193.534 215.857 193.434C216.504 193.334 217.113 192.967 217.293 192.404C217.627 191.359 216.457 190.348 215.419 189.672C210.813 186.674 206.104 184.231 201.409 181.842C205.245 184.291 209.235 186.112 213.489 187.842C214.377 188.203 216.573 189.011 217.148 188.374C217.491 187.994 217.444 187.401 217.179 186.934C216.914 186.467 216.469 186.097 216.029 185.747C212.938 183.29 210.306 181.433 206.921 179.328C205.384 178.372 203.912 177.33 203.051 176.837C200.848 175.575 198.447 174.78 193.303 172.985L193.223 169.177C193.223 169.177 177.265 167.857 176.137 167.794" stroke="#010101" stroke-width="1.5" stroke-linecap="round" stroke-linejoin="round"></path>
<path d="M165.471 120.139C170.17 109.068 174.485 97.834 178.406 86.464C179.067 84.547 179.722 82.599 179.849 80.576C179.953 78.927 179.702 77.279 179.452 75.646C178 66.162 176.299 54.663 175.62 45.301C172.979 45.1 168.49 46.78 167.861 46.78C152.205 46.78 140.797 47.456 129.784 54.712C121.995 59.844 116.528 67.888 112.52 76.311C108.512 84.734 105.868 93.725 102.735 102.511C99.9529 110.314 96.7599 118.038 95.3329 126.198C93.9059 134.358 91.8569 142.966 96.0949 150.084C100.11 156.828 106.968 161.305 113.701 165.339C132.038 176.324 151.655 185.959 172.786 189.185C177.252 181.196 180.89 172.744 183.832 164.461C166.242 153.428 148.653 142.396 131.379 131.045C133.041 126.918 136.248 119.452 136.658 119.987C147.44 119.987 156.04 120.139 165.471 120.139Z" fill="#42d242" stroke="#010101" stroke-width="1.5" stroke-linecap="round" stroke-linejoin="round"></path>
<path d="M211.325 39.708C211.591 42.929 211.518 46.178 211.106 49.383C211.076 49.617 211.037 49.866 210.876 50.038C210.649 50.28 210.27 50.28 209.94 50.242C208.534 50.082 207.171 49.557 206.022 48.732" fill="white"></path>
<path d="M211.325 39.708C211.591 42.929 211.518 46.178 211.106 49.383C211.076 49.617 211.037 49.866 210.876 50.038C210.649 50.28 210.27 50.28 209.94 50.242C208.534 50.082 207.171 49.557 206.022 48.732" stroke="#010101" stroke-width="1.5" stroke-linecap="round" stroke-linejoin="round"></path>
<path d="M199.036 119.265C197.863 108.528 199.92 97.729 201.969 87.124C203.069 81.428 204.248 75.542 207.584 70.796C211.222 65.621 214.924 61.101 217.482 55.452C224.647 60.28 234.325 66.349 238.861 73.703C240.546 76.435 241.789 79.416 242.881 82.435C244.461 86.801 245.74 91.268 247.017 95.732C249.078 102.933 251.14 110.9 252.763 118.334C239.354 118.789 218.843 119.265 199.037 119.265H199.036Z" fill="#42d242" stroke="#010101" stroke-width="1.5" stroke-linecap="round" stroke-linejoin="round"></path>
<path d="M168.131 47.23C165.215 57.752 163.263 68.541 162.791 79.708C165.889 78.005 169.181 76.657 172.583 75.697C173.933 75.316 175.543 75.048 176.606 75.964C177.195 76.471 178.614 80.704 178.614 84.797" stroke="#010101" stroke-width="1.5" stroke-linecap="round" stroke-linejoin="round"></path>
<path d="M217.852 55.452C218.189 56.375 218.767 57.294 218.714 58.275C218.197 67.819 212.877 77.244 213.676 86.769C213.265 85.403 212.746 84.04 211.853 82.926C210.961 81.813 209.641 80.971 208.215 80.942C205.928 80.895 204.14 82.812 202.678 84.572" stroke="#010101" stroke-width="1.5" stroke-linecap="round" stroke-linejoin="round"></path>
<path d="M278.825 110.611C275.634 111.379 272.586 113.248 269.304 113.264C268.979 113.266 268.641 113.27 268.347 113.41C267.631 113.751 267.49 114.735 267.701 115.499C268.256 117.511 270.419 118.677 272.485 118.968C274.551 119.259 276.657 118.91 278.738 119.059C278.4 122.209 278.282 125.382 278.385 128.548C278.405 129.165 278.471 129.859 278.95 130.248C279.314 130.543 279.825 130.575 280.289 130.519C282.445 130.258 284.131 128.39 284.836 126.335C285.541 124.28 285.456 122.051 285.364 119.88C285.755 121.521 285.417 123.236 285.131 124.899C284.845 126.562 284.62 128.319 285.214 129.898C285.808 131.477 287.496 132.772 289.129 132.349C290.939 131.88 291.686 129.752 292.04 127.915C292.59 125.061 292.889 122.16 292.935 119.254C292.997 120.755 292.598 122.231 292.388 123.719C292.178 125.206 292.182 126.815 292.965 128.097C293.748 129.379 295.531 130.137 296.823 129.369C298.027 128.653 298.297 127.058 298.444 125.665C298.711 123.13 298.978 120.596 299.245 118.061C299.599 119.876 299.336 121.818 300.028 123.533C300.72 125.248 303.064 126.513 304.413 125.248C304.962 124.733 305.168 123.958 305.331 123.223C306.105 119.715 306.435 116.11 306.309 112.52C306.286 111.871 306.244 111.205 305.973 110.615C305.319 109.194 303.59 108.663 302.042 108.439C293.662 107.225 287.82 108.446 278.825 110.611Z" fill="white" stroke="#010101" stroke-width="1.5" stroke-linecap="round" stroke-linejoin="round"></path>
<path d="M541.022 125.149C538.886 125.515 536.737 126.367 535.157 127.849C534.051 128.886 533.484 130.377 533.168 131.86C532.907 133.086 532.793 134.355 532.976 135.594C533.399 138.455 535.46 140.964 538.1 142.144C540.741 143.323 543.874 143.219 546.532 142.08C547.548 141.644 548.533 141.036 549.143 140.114C549.71 139.257 549.902 138.213 550.074 137.2C550.552 134.398 550.921 131.29 549.364 128.912C547.688 126.351 544.332 124.582 541.022 125.149Z" fill="white" stroke="#010101" stroke-width="1.5" stroke-linecap="round" stroke-linejoin="round"></path>
<path d="M544.274 129.491C542.472 132.355 540.67 135.22 538.869 138.084Z" fill="white"></path>
<path d="M544.274 129.491C542.472 132.355 540.67 135.22 538.869 138.084" stroke="#010101" stroke-width="1.5" stroke-linecap="round" stroke-linejoin="round"></path>
<path d="M541.935 279.18L538.869 214.145L400.629 211.249L403.072 277.381L541.935 279.18Z" stroke="#010101" stroke-width="1.5" stroke-linecap="round" stroke-linejoin="round"></path>
<path d="M537.575 129.987C540.334 132.884 543.246 135.634 546.296 138.223Z" fill="white"></path>
<path d="M537.575 129.987C540.334 132.884 543.246 135.634 546.296 138.223" stroke="#010101" stroke-width="1.5" stroke-linecap="round" stroke-linejoin="round"></path>
<path d="M540.445 85.152C539.483 85.022 538.466 85.487 537.935 86.3C537.404 87.113 537.387 88.231 537.892 89.06C538.792 90.536 541.261 90.605 542.283 89.211C543.305 87.817 542.564 85.439 540.445 85.152Z" fill="#010101"></path>
<path d="M92.878 272.263C91.563 272.085 90.173 272.721 89.447 273.832C88.721 274.942 88.698 276.472 89.389 277.604C90.619 279.621 93.994 279.716 95.39 277.81C96.786 275.904 95.774 272.655 92.878 272.264V272.263Z" fill="#010101"></path>
<path d="M706.338 376.601C705.376 376.471 704.359 376.936 703.828 377.749C703.297 378.561 703.28 379.68 703.785 380.509C704.685 381.985 707.154 382.054 708.176 380.66C709.198 379.266 708.457 376.888 706.338 376.601Z" fill="#010101"></path>
<path d="M502.423 414.426L496.808 334.141H504.86L510.474 414.426H502.423Z" fill="#E3E3FF" stroke="#010101" stroke-width="1.5" stroke-linecap="round" stroke-linejoin="round"></path>
<path d="M588.593 414.426L582.979 334.141H591.031L596.645 414.426H588.593Z" fill="#E3E3FF" stroke="#010101" stroke-width="1.5" stroke-linecap="round" stroke-linejoin="round"></path>
<path d="M599.21 334.141L600.493 352.485H487.956L486.673 334.141H599.21Z" fill="#010101" stroke="#010101" stroke-width="1.5" stroke-linecap="round" stroke-linejoin="round"></path>
<path d="M512.881 334.141L505.877 352.485H492.833L499.838 334.141H512.881Z" fill="white" stroke="#010101" stroke-width="1.5" stroke-linecap="round" stroke-linejoin="round"></path>
<path d="M538.748 334.141L531.744 352.485H518.706L525.705 334.141H538.748Z" fill="white" stroke="#010101" stroke-width="1.5" stroke-linecap="round" stroke-linejoin="round"></path>
<path d="M564.615 334.141L557.617 352.485H544.573L551.577 334.141H564.615Z" fill="white" stroke="#010101" stroke-width="1.5" stroke-linecap="round" stroke-linejoin="round"></path>
<path d="M590.488 334.141L583.484 352.485H570.44L577.444 334.141H590.488Z" fill="white" stroke="#010101" stroke-width="1.5" stroke-linecap="round" stroke-linejoin="round"></path>
<path d="M557.617 352.485H544.573" stroke="#010101" stroke-width="1.5" stroke-linecap="round" stroke-linejoin="round"></path>
<path d="M590.488 334.141H577.445" stroke="#010101" stroke-width="1.5" stroke-linecap="round" stroke-linejoin="round"></path>
<path d="M601.744 370.376L603.027 388.72H490.49L489.207 370.376H601.744Z" fill="#010101" stroke="#010101" stroke-width="1.5" stroke-linecap="round" stroke-linejoin="round"></path>
<path d="M515.415 370.376L508.411 388.72H495.367L502.371 370.376H515.415Z" fill="white" stroke="#010101" stroke-width="1.5" stroke-linecap="round" stroke-linejoin="round"></path>
<path d="M541.282 370.376L534.278 388.72H521.24L528.239 370.376H541.282Z" fill="white" stroke="#010101" stroke-width="1.5" stroke-linecap="round" stroke-linejoin="round"></path>
<path d="M567.149 370.376L560.151 388.72H547.107L554.111 370.376H567.149Z" fill="white" stroke="#010101" stroke-width="1.5" stroke-linecap="round" stroke-linejoin="round"></path>
<path d="M593.022 370.376L586.018 388.72H572.974L579.978 370.376H593.022Z" fill="white" stroke="#010101" stroke-width="1.5" stroke-linecap="round" stroke-linejoin="round"></path>
<path d="M560.15 388.72H547.107" stroke="#010101" stroke-width="1.5" stroke-linecap="round" stroke-linejoin="round"></path>
<path d="M593.022 370.376H579.978" stroke="#010101" stroke-width="1.5" stroke-linecap="round" stroke-linejoin="round"></path>
<path d="M480.939 412.934C492.353 412.901 493.452 416.056 492.727 417.942C491.884 420.135 481.144 422.183 467.452 421.739C463.414 421.608 459.373 421.426 455.361 420.945C452.98 420.66 450.538 420.242 448.509 418.965C447.533 418.351 446.595 417.318 446.831 416.19C447.02 415.282 447.894 414.7 448.726 414.291C450.927 413.21 452.744 413.016 455.553 412.896C464.652 413.147 473.744 412.955 480.939 412.934Z" fill="#42d242" stroke="#010101" stroke-width="1.5" stroke-linecap="round" stroke-linejoin="round"></path>
<path d="M484.128 416.176C477.256 418.612 465.124 418.299 455.57 416.148C456.148 414.082 456.755 411.911 457.399 409.665C458.318 406.471 459.314 403.134 460.432 399.751C461.408 396.832 462.47 393.884 463.655 390.965C464.432 389.041 465.257 387.136 466.148 385.259C467.029 383.392 468.243 381.288 470.29 381.051C471.721 380.88 473.115 381.762 473.958 382.928C474.811 384.094 475.219 385.516 475.626 386.89C476.043 388.331 476.45 389.762 476.839 391.184C477.635 394.103 478.374 396.985 479.133 399.838C480.014 403.203 480.915 406.52 481.948 409.8V409.809C482.611 411.951 483.332 414.074 484.128 416.178V416.176Z" fill="white" stroke="#010101" stroke-width="1.5" stroke-linecap="round" stroke-linejoin="round"></path>
<path d="M476.839 391.181C472.526 391.645 468.043 391.484 463.655 390.963C464.432 389.039 465.257 387.134 466.148 385.257C467.029 383.39 468.243 381.286 470.29 381.049C471.721 380.878 473.115 381.76 473.958 382.926C474.811 384.092 475.219 385.514 475.626 386.888C476.043 388.329 476.45 389.76 476.839 391.182V391.181Z" fill="#42d242" stroke="#010101" stroke-width="1.5" stroke-linecap="round" stroke-linejoin="round"></path>
<path d="M481.948 409.797V409.806C474.64 410.773 464.46 410.545 457.399 409.664C458.318 406.47 459.314 403.133 460.432 399.75C466.726 400.214 472.953 400.262 479.133 399.835C480.014 403.2 480.915 406.517 481.948 409.797Z" fill="#42d242" stroke="#010101" stroke-width="1.5" stroke-linecap="round" stroke-linejoin="round"></path>
<path d="M411.397 411.894C406.454 420.985 403.466 420.485 402.282 419.087C400.906 417.462 403.953 408.03 410.268 397.335C412.13 394.181 414.035 391.047 416.164 388.066C417.428 386.297 418.823 384.537 420.722 383.48C421.635 382.972 422.865 382.675 423.66 383.354C424.299 383.9 424.382 384.848 424.345 385.688C424.247 387.909 423.609 389.438 422.481 391.724C418.32 398.85 414.514 406.164 411.397 411.894Z" fill="#42d242" stroke="#010101" stroke-width="1.5" stroke-linecap="round" stroke-linejoin="round"></path>
<path d="M407.431 413.018C408.486 406.493 414.017 396.982 419.888 390.321C421.279 391.681 422.741 393.108 424.247 394.599C426.387 396.721 428.606 398.965 430.81 401.328C432.706 403.375 434.588 405.503 436.394 407.716C437.586 409.172 438.742 410.657 439.846 412.183C440.947 413.697 442.092 415.578 441.389 417.309C440.901 418.521 439.594 419.246 438.299 419.409C437.001 419.58 435.692 419.285 434.422 419.01C433.095 418.714 431.779 418.415 430.479 418.105C427.811 417.467 425.198 416.8 422.599 416.161C419.54 415.397 416.51 414.668 413.452 414.062L413.444 414.058C411.452 413.653 409.45 413.301 407.43 413.018H407.431Z" fill="white" stroke="#010101" stroke-width="1.5" stroke-linecap="round" stroke-linejoin="round"></path>
<path d="M430.48 418.105C431.988 414.473 434.069 410.979 436.394 407.716C437.586 409.172 438.742 410.657 439.846 412.183C440.947 413.697 442.092 415.578 441.389 417.309C440.901 418.521 439.594 419.246 438.299 419.409C437.001 419.58 435.692 419.285 434.422 419.01C433.095 418.714 431.779 418.415 430.479 418.105H430.48Z" fill="#42d242" stroke="#010101" stroke-width="1.5" stroke-linecap="round" stroke-linejoin="round"></path>
<path d="M413.453 414.062L413.445 414.058C415.858 407.826 420.471 399.83 424.247 394.599C426.387 396.721 428.606 398.965 430.81 401.328C427.7 406.13 424.951 411.062 422.6 416.161C419.541 415.397 416.511 414.668 413.453 414.062Z" fill="#42d242" stroke="#010101" stroke-width="1.5" stroke-linecap="round" stroke-linejoin="round"></path>
<path d="M570.987 414.994C606.102 414.994 620.875 415.055 657.679 415.055" stroke="#010101" stroke-width="1.5" stroke-linecap="round" stroke-linejoin="round"></path>
<path d="M577.065 295.132L573.044 237.64L414.512 236.985L418.051 295.442L577.065 295.132Z" fill="#E3E3FF" stroke="#010101" stroke-width="1.5" stroke-linecap="round" stroke-linejoin="round"></path>
<path d="M604.039 204.026C609.208 274.16 614.378 344.293 619.547 414.427Z" fill="white"></path>
<path d="M604.039 204.026C609.208 274.16 614.378 344.293 619.547 414.427" stroke="#010101" stroke-width="1.5" stroke-linecap="round" stroke-linejoin="round"></path>
<path d="M635.109 203.316C641.345 274.077 646.243 343.579 649.978 414.342Z" fill="white"></path>
<path d="M635.109 203.316C641.345 274.077 646.243 343.579 649.978 414.342" stroke="#010101" stroke-width="1.5" stroke-linecap="round" stroke-linejoin="round"></path>
<path d="M608.79 260.916C617.898 252.013 627.284 243.467 636.929 235.296Z" fill="white"></path>
<path d="M608.79 260.916C617.898 252.013 627.284 243.467 636.929 235.296" stroke="#010101" stroke-width="1.5" stroke-linecap="round" stroke-linejoin="round"></path>
<path d="M606.813 235.296C617.267 244.214 628.982 252.863 639.436 261.781Z" fill="white"></path>
<path d="M606.813 235.296C617.267 244.214 628.982 252.863 639.436 261.781" stroke="#010101" stroke-width="1.5" stroke-linecap="round" stroke-linejoin="round"></path>
<path d="M608.706 262.365C619.314 262.413 628.828 261.733 639.437 261.781Z" fill="white"></path>
<path d="M608.706 262.365C619.314 262.413 628.828 261.733 639.437 261.781" stroke="#010101" stroke-width="1.5" stroke-linecap="round" stroke-linejoin="round"></path>
<path d="M610.748 288.923C619.856 280.02 629.242 271.474 638.887 263.303Z" fill="white"></path>
<path d="M610.748 288.923C619.856 280.02 629.242 271.474 638.887 263.303" stroke="#010101" stroke-width="1.5" stroke-linecap="round" stroke-linejoin="round"></path>
<path d="M608.772 263.303C619.226 272.221 630.941 280.87 641.395 289.788Z" fill="white"></path>
<path d="M608.772 263.303C619.226 272.221 630.941 280.87 641.395 289.788" stroke="#010101" stroke-width="1.5" stroke-linecap="round" stroke-linejoin="round"></path>
<path d="M610.665 290.372C621.273 290.42 630.787 289.74 641.396 289.788Z" fill="white"></path>
<path d="M610.665 290.372C621.273 290.42 630.787 289.74 641.396 289.788" stroke="#010101" stroke-width="1.5" stroke-linecap="round" stroke-linejoin="round"></path>
<path d="M606.883 233.647C615.991 224.744 625.377 216.198 635.022 208.027Z" fill="white"></path>
<path d="M606.883 233.647C615.991 224.744 625.377 216.198 635.022 208.027" stroke="#010101" stroke-width="1.5" stroke-linecap="round" stroke-linejoin="round"></path>
<path d="M604.907 208.027C615.361 216.945 627.076 225.594 637.53 234.512Z" fill="white"></path>
<path d="M604.907 208.027C615.361 216.945 627.076 225.594 637.53 234.512" stroke="#010101" stroke-width="1.5" stroke-linecap="round" stroke-linejoin="round"></path>
<path d="M606.799 235.096C617.407 235.144 626.921 234.464 637.53 234.512Z" fill="white"></path>
<path d="M606.799 235.096C617.407 235.144 626.921 234.464 637.53 234.512" stroke="#010101" stroke-width="1.5" stroke-linecap="round" stroke-linejoin="round"></path>
<path d="M612.621 315.699C621.729 306.796 631.115 298.25 640.76 290.079Z" fill="white"></path>
<path d="M612.621 315.699C621.729 306.796 631.115 298.25 640.76 290.079" stroke="#010101" stroke-width="1.5" stroke-linecap="round" stroke-linejoin="round"></path>
<path d="M610.644 290.08C621.098 298.998 632.813 307.647 643.267 316.565Z" fill="white"></path>
<path d="M610.644 290.08C621.098 298.998 632.813 307.647 643.267 316.565" stroke="#010101" stroke-width="1.5" stroke-linecap="round" stroke-linejoin="round"></path>
<path d="M612.537 317.149C623.145 317.197 632.659 316.517 643.268 316.565Z" fill="white"></path>
<path d="M612.537 317.149C623.145 317.197 632.659 316.517 643.268 316.565" stroke="#010101" stroke-width="1.5" stroke-linecap="round" stroke-linejoin="round"></path>
<path d="M614.59 343.861C623.698 334.958 633.084 326.412 642.729 318.241Z" fill="white"></path>
<path d="M614.59 343.861C623.698 334.958 633.084 326.412 642.729 318.241" stroke="#010101" stroke-width="1.5" stroke-linecap="round" stroke-linejoin="round"></path>
<path d="M612.614 318.242C623.068 327.16 634.783 335.809 645.237 344.727Z" fill="white"></path>
<path d="M612.614 318.242C623.068 327.16 634.783 335.809 645.237 344.727" stroke="#010101" stroke-width="1.5" stroke-linecap="round" stroke-linejoin="round"></path>
<path d="M614.506 345.31C625.114 345.358 634.628 344.678 645.237 344.726Z" fill="white"></path>
<path d="M614.506 345.31C625.114 345.358 634.628 344.678 645.237 344.726" stroke="#010101" stroke-width="1.5" stroke-linecap="round" stroke-linejoin="round"></path>
<path d="M616.549 371.868C625.657 362.965 635.043 354.419 644.688 346.248Z" fill="white"></path>
<path d="M616.549 371.868C625.657 362.965 635.043 354.419 644.688 346.248" stroke="#010101" stroke-width="1.5" stroke-linecap="round" stroke-linejoin="round"></path>
<path d="M614.572 346.248C625.026 355.166 636.741 363.815 647.195 372.733Z" fill="white"></path>
<path d="M614.572 346.248C625.026 355.166 636.741 363.815 647.195 372.733" stroke="#010101" stroke-width="1.5" stroke-linecap="round" stroke-linejoin="round"></path>
<path d="M616.465 373.317C627.073 373.365 636.587 372.685 647.196 372.733Z" fill="white"></path>
<path d="M616.465 373.317C627.073 373.365 636.587 372.685 647.196 372.733" stroke="#010101" stroke-width="1.5" stroke-linecap="round" stroke-linejoin="round"></path>
<path d="M618.421 398.645C627.529 389.742 636.915 381.196 646.56 373.025Z" fill="white"></path>
<path d="M618.421 398.645C627.529 389.742 636.915 381.196 646.56 373.025" stroke="#010101" stroke-width="1.5" stroke-linecap="round" stroke-linejoin="round"></path>
<path d="M616.444 373.025C626.898 381.943 638.613 390.592 649.067 399.51Z" fill="white"></path>
<path d="M616.444 373.025C626.898 381.943 638.613 390.592 649.067 399.51" stroke="#010101" stroke-width="1.5" stroke-linecap="round" stroke-linejoin="round"></path>
<path d="M618.337 400.094C628.945 400.142 638.459 399.462 649.068 399.51Z" fill="white"></path>
<path d="M618.337 400.094C628.945 400.142 638.459 399.462 649.068 399.51" stroke="#010101" stroke-width="1.5" stroke-linecap="round" stroke-linejoin="round"></path>
<path d="M487.635 205.517C557.967 205.517 652.093 202.356 652.093 202.356" stroke="#010101" stroke-width="1.5" stroke-linecap="round" stroke-linejoin="round"></path>
<path d="M487.233 204.902C491.25 198.017 495.268 191.132 499.349 183.892C548.771 183.937 601.778 183.255 651.191 183.123C651 189.675 651.503 196.295 652.689 202.839" stroke="#010101" stroke-width="1.5" stroke-linecap="round" stroke-linejoin="round"></path>
<path d="M499.88 184.553C504.811 192.212 510.855 199.204 517.743 205.217C523.261 199.125 528.099 192.413 532.153 185.224C537.13 192.389 542.887 199.045 549.275 205.022C552.901 197.939 557.26 191.266 562.173 185.221C567.162 191.767 572.313 198.197 577.617 204.5C582.138 198.263 586.229 191.703 589.857 184.875C596.466 192.729 601.788 197.385 607.922 203.641C612.831 197.12 617.622 191.324 622.18 184.542C626.607 190.917 631.548 196.955 636.935 202.572C640.074 196.345 646.797 189.392 649.936 183.165" stroke="#010101" stroke-width="1.5" stroke-linecap="round" stroke-linejoin="round"></path>
<path d="M603.747 183.55C608.242 174.506 612.372 165.264 616.126 155.85C621.529 165.06 627.338 174.052 633.529 182.79" stroke="#010101" stroke-width="1.5" stroke-linecap="round" stroke-linejoin="round"></path>
<path d="M499.35 183.893C537.936 174.332 616.126 155.85 616.126 155.85L651.297 182.679" stroke="#010101" stroke-width="1.5" stroke-linecap="round" stroke-linejoin="round"></path>
<path d="M414.512 236.985L487.152 205.513L573.044 237.64" stroke="#010101" stroke-width="1.5" stroke-linecap="round" stroke-linejoin="round"></path>
<path d="M477.673 283.638C468.535 272.174 458.944 261.057 448.931 250.326C441.84 260.814 434.75 271.302 427.498 283.366C443.976 284.333 460.447 284.622 477.672 283.637L477.673 283.638Z" fill="white" stroke="#010101" stroke-width="1.5" stroke-linecap="round" stroke-linejoin="round"></path>
<path d="M461.696 284.206C467.71 276.465 474.295 267.951 480.934 260.748C481.179 260.482 481.452 260.202 481.821 260.155C482.273 260.097 482.708 260.407 483.083 260.7C492.216 267.839 500.815 275.684 508.765 284.131C492.442 284.131 485.911 284.206 461.696 284.206Z" fill="#010101" stroke="#010101" stroke-width="1.5" stroke-linecap="round" stroke-linejoin="round"></path>
<path d="M466.324 248.982C464.504 249.249 462.968 250.628 462.522 252.396C462.076 254.164 462.74 256.237 464.167 257.527C465.572 258.798 467.637 259.254 469.345 258.71C471.053 258.166 472.35 256.659 472.687 254.888C472.985 253.317 472.519 251.536 471.36 250.319C470.201 249.101 468.385 248.68 466.324 248.982Z" fill="white" stroke="#010101" stroke-width="1.5" stroke-linecap="round" stroke-linejoin="round"></path>
<path d="M517.478 252.297C539.212 252.19 540.754 252.082 562.488 251.975Z" fill="white"></path>
<path d="M517.478 252.297C539.212 252.19 540.754 252.082 562.488 251.975" stroke="#010101" stroke-width="1.5" stroke-linecap="round" stroke-linejoin="round"></path>
<path d="M518.027 264.537C540.364 264.254 542.546 264.42 564.939 265.033Z" fill="white"></path>
<path d="M518.027 264.537C540.364 264.254 542.546 264.42 564.939 265.033" stroke="#010101" stroke-width="1.5" stroke-linecap="round" stroke-linejoin="round"></path>
<path d="M521.075 277.397C528.469 277.052 530.886 277.717 538.281 277.372Z" fill="white"></path>
<path d="M521.075 277.397C528.469 277.052 530.886 277.717 538.281 277.372" stroke="#010101" stroke-width="1.5" stroke-linecap="round" stroke-linejoin="round"></path>
<path d="M425.606 26.4761C423.092 33.2591 424.295 31.1211 421.781 37.9041" stroke="#010101" stroke-width="1.5" stroke-linecap="round" stroke-linejoin="round"></path>
<path d="M47.208 215.695C50.916 216.159 54.624 216.623 58.333 217.087" stroke="#010101" stroke-width="1.5" stroke-linecap="round" stroke-linejoin="round"></path>
<path d="M711.439 279.721C714.529 278.639 717.619 277.558 720.71 276.476" stroke="#010101" stroke-width="1.5" stroke-linecap="round" stroke-linejoin="round"></path>
</g>
<defs>
<clipPath id="clip0_35_1922">
<rect width="721.46" height="422.55" fill="white"></rect>
</clipPath>
</defs>
</svg>