<svg id="Layer_2" data-name="Layer 2" xmlns="http://www.w3.org/2000/svg" viewBox="0 0 692.18 790.016" style="width: 100%; height: 100%;">
  <g id="Layer_2-2" data-name="Layer 2">
    <g>
      <g>
        <rect x="488.611" y="102.012" width="149.507" height="105.915" rx="4.343" ry="4.343" fill="#292a2e" opacity=".05"></rect>
        <circle cx="551.573" cy="123.328" r="10.818" fill="#292a2e" opacity=".05"></circle>
        <path d="m555.651,172.837l31.361-34.986c4.074-4.545,11.047-4.967,15.639-.946l35.466,31.053v35.642c0,2.39-1.937,4.327-4.327,4.327h-38.544" fill="#292a2e" opacity=".05"></path>
        <path d="m595.247,207.927l-68.002-60.264c-4.155-3.682-10.386-3.744-14.614-.147l-24.02,20.441v36.056c0,2.161,1.752,3.913,3.913,3.913h102.722Z" fill="#292a2e" opacity=".1"></path>
      </g>
      <g>
        <rect x="139.994" y="108.131" width="134.473" height="95.265" rx="3.906" ry="3.906" fill="#292a2e" opacity=".05"></rect>
        <circle cx="196.624" cy="127.303" r="9.73" fill="#292a2e" opacity=".05"></circle>
        <path d="m200.293,171.834l28.208-31.468c3.665-4.088,9.936-4.467,14.067-.851l31.9,27.93v32.058c0,2.149-1.742,3.892-3.892,3.892h-34.668" fill="#292a2e" opacity=".05"></path>
        <path d="m235.907,203.396l-61.164-54.204c-3.737-3.312-9.341-3.368-13.144-.132l-21.605,18.386v32.43c0,1.944,1.576,3.52,3.52,3.52h92.393Z" fill="#292a2e" opacity=".1"></path>
      </g>
      <g>
        <path d="m104.891,111.494c-15.95,0-28.932-13.069-28.932-29.14,0-14.103,9.728-25.85,23.15-28.55-1.858-10.665.119-21.534,5.719-30.912,6.159-10.327,15.929-17.618,27.528-20.542,3.575-.893,7.228-1.35,10.873-1.35,16.599,0,31.676,9.217,39.428,23.762,3.715-2.566,8.094-3.937,12.675-3.937,6.096,0,11.816,2.404,16.082,6.798,3.568,3.656,5.803,8.457,6.334,13.526,17.877,1.076,32.444,16.05,32.877,34.308.216,9.399-3.219,18.321-9.651,25.133-6.453,6.791-15.14,10.672-24.49,10.89l-111.593.014Z" fill="#292a2e"></path>
        <g>
          <path d="m96.571,111.494c-15.95,0-28.932-13.069-28.932-29.14,0-14.103,9.728-25.85,23.15-28.55-1.858-10.665.119-21.534,5.719-30.912,6.159-10.327,15.929-17.618,27.528-20.542,3.575-.893,7.228-1.35,10.873-1.35,16.599,0,31.676,9.217,39.428,23.762,3.715-2.566,8.094-3.937,12.675-3.937,6.096,0,11.816,2.404,16.082,6.798,3.568,3.656,5.803,8.457,6.334,13.526,17.877,1.076,32.444,16.05,32.877,34.308.216,9.399-3.219,18.321-9.651,25.133-6.453,6.791-15.14,10.672-24.49,10.89l-111.593.014Z" fill="#fff"></path>
          <path d="m96.571,112.494h0c-16.504,0-29.932-13.521-29.932-30.141,0-14.223,9.413-26.146,23.009-29.325-1.618-10.588.499-21.436,6.001-30.648,6.293-10.553,16.288-18.011,28.142-21,3.668-.916,7.408-1.38,11.118-1.38,16.515,0,31.659,8.912,39.784,23.332,3.689-2.298,7.924-3.507,12.318-3.507,6.386,0,12.353,2.521,16.8,7.102,3.513,3.599,5.805,8.289,6.508,13.284,18.131,1.521,32.549,16.833,32.985,35.223.222,9.652-3.302,18.83-9.923,25.843-6.651,7.001-15.598,10.979-25.194,11.204l-111.616.014ZM134.909,2c-3.546,0-7.123.444-10.631,1.32-11.333,2.857-20.892,9.99-26.912,20.085-5.421,9.077-7.407,19.812-5.593,30.227l.167.96-.955.192c-13.157,2.646-22.347,13.983-22.347,27.569,0,15.517,12.53,28.141,27.932,28.141l111.593-.014c9.037-.212,17.485-3.969,23.765-10.579,6.255-6.625,9.586-15.299,9.376-24.421-.418-17.639-14.447-32.28-31.938-33.333l-.846-.051-.088-.843c-.508-4.86-2.659-9.453-6.055-12.933-4.069-4.189-9.526-6.496-15.367-6.496-4.358,0-8.545,1.3-12.106,3.76l-.923.637-.527-.989c-7.637-14.33-22.407-23.232-38.545-23.232Z" fill="#292a2e"></path>
        </g>
        <path d="m155.564,95.297c-.552,0-1-.447-1-1v-58.08c0-.553.448-1,1-1s1,.447,1,1v58.08c0,.553-.448,1-1,1Z" fill="#292a2e"></path>
        <path d="m177.499,59.152c-.256,0-.512-.098-.707-.293l-21.228-21.229-21.228,21.229c-.391.391-1.023.391-1.414,0s-.391-1.023,0-1.414l21.935-21.936c.375-.375,1.039-.375,1.414,0l21.935,21.936c.391.391.391,1.023,0,1.414-.195.195-.451.293-.707.293Z" fill="#292a2e"></path>
      </g>
      <g>
        <rect x="460.359" y="355.762" width="231.821" height="164.23" rx="6.734" ry="6.734" fill="#292a2e" opacity=".05"></rect>
        <circle cx="557.985" cy="388.815" r="16.774" fill="#292a2e" opacity=".05"></circle>
        <path d="m564.309,465.582l48.628-54.248c6.317-7.048,17.129-7.702,24.25-1.467l54.993,48.149v55.266c0,3.705-3.004,6.709-6.709,6.709h-59.765" fill="#292a2e" opacity=".05"></path>
        <path d="m625.705,519.992l-105.442-93.443c-6.442-5.709-16.104-5.806-22.659-.227l-37.245,31.696v55.907c0,3.351,2.717,6.068,6.068,6.068h159.279Z" fill="#292a2e" opacity=".1"></path>
      </g>
      <g>
        <rect x="29.826" y="498.455" width="235.438" height="166.792" rx="6.839" ry="6.839" fill="#292a2e" opacity=".05"></rect>
        <circle cx="128.975" cy="532.023" r="17.036" fill="#292a2e" opacity=".05"></circle>
        <path d="m135.398,609.989l49.386-55.094c6.416-7.158,17.396-7.822,24.628-1.49l55.851,48.901v56.128c0,3.763-3.051,6.814-6.814,6.814h-60.698" fill="#292a2e" opacity=".05"></path>
        <path d="m197.752,665.247l-107.087-94.901c-6.543-5.798-16.355-5.897-23.013-.231l-37.826,32.19v56.78c0,3.403,2.759,6.162,6.162,6.162h161.764Z" fill="#292a2e" opacity=".1"></path>
      </g>
      <g>
        <path d="m601.06,670.403c-.232,0-.465-.089-.642-.266-1.28-1.279-3.365-24.756-8.983-94.653-2.299-28.6-4.47-55.615-6.055-72.032-.113-1.172-.568-1.309-.717-1.354-2.169-.655-8.766,4.547-12.448,9.102-.315.39-.887.451-1.278.135-.39-.316-.451-.887-.135-1.278,2.436-3.011,10.373-10.907,14.384-9.699.809.243,1.812.946,2.003,2.919,1.586,16.432,3.757,43.453,6.057,72.061,3.414,42.475,7.281,90.596,8.552,93.626.256.355.224.853-.095,1.172-.177.177-.41.266-.642.266Z" fill="#494949"></path>
        <ellipse cx="566.916" cy="513.458" rx="34.971" ry="25.79" transform="translate(-196.57 467.397) rotate(-38.715)" fill="#48cf48"></ellipse>
        <ellipse cx="566.916" cy="513.458" rx="34.971" ry="25.79" transform="translate(-196.57 467.397) rotate(-38.715)" fill="#fff" opacity=".2"></ellipse>
        <path d="m543.854,538.154c-.102,0-.204-.034-.29-.105-.193-.16-.22-.446-.059-.639l42.948-51.792c.16-.192.446-.22.639-.059.193.16.22.446.059.639l-42.948,51.792c-.09.108-.219.164-.35.164Z" fill="#fff"></path>
        <path d="m610.428,659.3c-.099,0-.2-.016-.298-.051-.474-.165-.724-.682-.559-1.156l16.132-46.396c.968-2.784,3.257-4.859,6.122-5.551,2.866-.693,5.849.111,7.981,2.147l8.529,8.147c.363.346.376.921.029,1.284-.347.362-.921.375-1.284.029l-8.529-8.147c-1.683-1.607-4.037-2.242-6.3-1.695-2.262.546-4.068,2.184-4.833,4.382l-16.132,46.396c-.13.375-.482.61-.858.61Z" fill="#494949"></path>
        <ellipse cx="650.459" cy="614.703" rx="25.79" ry="34.971" transform="translate(-241.073 536.424) rotate(-38.363)" fill="#48cf48"></ellipse>
        <path d="m593.731,667.444c-.411,0-.783-.28-.882-.697l-27.073-113.199c-.384-1.605-1.57-2.796-3.173-3.188-1.603-.39-3.206.121-4.285,1.368l-8.346,9.644c-.328.379-.902.421-1.281.093-.379-.328-.421-.902-.093-1.281l8.346-9.644c1.512-1.747,3.845-2.492,6.089-1.944,2.244.548,3.972,2.283,4.509,4.53l27.073,113.199c.117.488-.184.978-.672,1.094-.071.017-.142.025-.212.025Z" fill="#494949"></path>
        <ellipse cx="558.329" cy="582.124" rx="34.971" ry="25.79" transform="translate(-110.417 1033.099) rotate(-80.189)" fill="#48cf48"></ellipse>
        <path d="m601.062,670.403c-.037,0-.074-.002-.112-.007-.498-.062-.852-.515-.791-1.012l17.288-140.365c.39-3.166,2.525-5.718,5.571-6.662,3.046-.944,6.251-.045,8.361,2.346l19.76,22.38c.332.376.296.95-.08,1.282-.376.332-.95.296-1.282-.079l-19.76-22.38c-1.632-1.848-4.107-2.542-6.462-1.813-2.355.729-4.005,2.702-4.306,5.148l-17.288,140.365c-.057.46-.448.797-.9.797Z" fill="#494949"></path>
        <ellipse cx="640.805" cy="542.593" rx="25.79" ry="34.971" transform="translate(-144.161 840.698) rotate(-61.051)" fill="#48cf48"></ellipse>
        <ellipse cx="650.459" cy="614.703" rx="25.79" ry="34.971" transform="translate(-241.073 536.424) rotate(-38.363)" fill="#fff" opacity=".2"></ellipse>
        <ellipse cx="558.329" cy="582.124" rx="34.971" ry="25.79" transform="translate(-110.417 1033.099) rotate(-80.189)" fill="#fff" opacity=".5"></ellipse>
        <ellipse cx="640.805" cy="542.593" rx="25.79" ry="34.971" transform="translate(-144.161 840.698) rotate(-61.051)" fill="#fff" opacity=".5"></ellipse>
        <polygon points="623.173 789.502 578.948 789.502 571.62 648.005 630.501 648.005 623.173 789.502" fill="#292a2e"></polygon>
        <polygon points="623.173 789.502 578.948 789.502 571.62 648.005 630.501 648.005 623.173 789.502" fill="#fff" opacity=".3"></polygon>
        <path d="m672.164,642.578c-.134,0-.267-.059-.357-.172l-43.41-54.841c-.156-.197-.122-.482.074-.638.198-.156.483-.122.638.074l43.41,54.841c.156.197.122.482-.074.638-.084.066-.183.098-.282.098Z" fill="#fff"></path>
        <path d="m668.519,563.914c-.093,0-.187-.028-.267-.087l-55.55-40.561c-.203-.148-.247-.432-.099-.635.148-.202.432-.247.635-.099l55.55,40.561c.203.148.247.432.099.635-.089.122-.227.186-.367.186Z" fill="#fff"></path>
        <path d="m550.117,615.996c-.039,0-.078-.005-.118-.016-.242-.064-.386-.314-.321-.556l17.684-66.254c.065-.243.318-.385.556-.321.242.064.386.314.321.556l-17.684,66.254c-.054.203-.238.337-.438.337Z" fill="#fff"></path>
      </g>
      <g>
        <g>
          <rect x="209.407" y="47.237" width="330.12" height="673.244" rx="38.05" ry="38.05" fill="#292a2e"></rect>
          <rect x="221.449" y="59.118" width="306.037" height="648.593" rx="26.127" ry="26.127" fill="#fff"></rect>
          <path d="m311.789,54.206h125.357v12.971c0,7.742-6.285,14.027-14.027,14.027h-97.303c-7.742,0-14.027-6.285-14.027-14.027v-12.971h0Z" fill="#292a2e"></path>
        </g>
        <g>
          <rect x="303.159" y="181.537" width="142.617" height="142.617" rx="22.614" ry="22.614" fill="#fff"></rect>
          <path d="m423.161,325.154h-97.388c-13.021,0-23.614-10.594-23.614-23.614v-97.389c0-13.021,10.593-23.614,23.614-23.614h97.388c13.021,0,23.614,10.594,23.614,23.614v97.389c0,13.021-10.593,23.614-23.614,23.614Zm-97.388-142.617c-11.918,0-21.614,9.696-21.614,21.614v97.389c0,11.918,9.696,21.614,21.614,21.614h97.388c11.918,0,21.614-9.696,21.614-21.614v-97.389c0-11.918-9.696-21.614-21.614-21.614h-97.388Z" fill="#292a2e"></path>
        </g>
        <path d="m416.687,440.807v18.64h-137.73c-5.15,0-9.32-4.17-9.32-9.32,0-2.58,1.04-4.9,2.73-6.59,1.68-1.69,4.02-2.73,6.59-2.73h137.73Z" fill="#0066f9" opacity=".6"></path>
        <path d="m469.975,460.449h-191.015c-5.691,0-10.322-4.631-10.322-10.322s4.63-10.321,10.322-10.321h191.015c5.691,0,10.322,4.63,10.322,10.321s-4.63,10.322-10.322,10.322Zm-191.015-18.644c-4.589,0-8.322,3.732-8.322,8.321s3.733,8.322,8.322,8.322h191.015c4.589,0,8.322-3.733,8.322-8.322s-3.733-8.321-8.322-8.321h-191.015Z" fill="#292a2e"></path>
        <g>
          <rect x="293.444" y="523.014" width="162.047" height="66.756" rx="14.249" ry="14.249" fill="#0066f9" opacity=".8"></rect>
          <path d="m455.487,575.524v6.556c0,7.867-6.378,14.246-14.246,14.246h-133.549c-7.867,0-14.246-6.378-14.246-14.246v-6.556c0,7.867,6.378,14.246,14.246,14.246h133.549c7.867,0,14.246-6.378,14.246-14.246Z" fill="#0066f9"></path>
          <path d="m365.564,576.113c-.54,0-1.082-.186-1.523-.563l-15.286-13.1c-.982-.841-1.096-2.32-.254-3.302.842-.982,2.32-1.095,3.302-.254l13.564,11.625,31.561-34.533c.873-.956,2.354-1.021,3.308-.149.954.873,1.021,2.353.149,3.308l-33.091,36.207c-.461.505-1.093.762-1.729.762Z" fill="#fff"></path>
        </g>
        <g>
          <path d="m374.467,288.661c-.552,0-1-.447-1-1v-69.631c0-.553.448-1,1-1s1,.447,1,1v69.631c0,.553-.448,1-1,1Z" fill="#292a2e"></path>
          <path d="m409.283,253.846h-69.631c-.552,0-1-.447-1-1s.448-1,1-1h69.631c.552,0,1,.447,1,1s-.448,1-1,1Z" fill="#292a2e"></path>
        </g>
      </g>
      <g>
        <g>
          <path d="m170.786,297.663l11.162-17.365c1.028-1.599,3.215-2.001,4.753-.813,1.363,1.053,1.582,3.038.651,4.487l-2.393,3.724,12.901-8.255c1.418-.943,3.762-1.193,4.715.468.859,1.292.674,2.97-.349,4.051.011.013.025.022.033.037.007.011.008.024.014.035l2.187-1.454c1.687-1.121,4.035-.469,4.846,1.514.594,1.452-.025,3.125-1.331,3.993l-.931.619c.005.035.005.071-.002.106,1.456-.546,3.158.006,3.98,1.435.871,1.515.298,3.461-1.157,4.429l-2.311,1.536c.094.004.185.047.242.133.032.051.042.107.042.162,1.381-.119,2.786.642,3.351,2.119.551,1.438-.079,3.066-1.361,3.918l-19.506,12.965c-5.582,3.71-12.858,3.663-18.391-.121h0c-4.849-3.316-6.181-9.888-3.004-14.83l1.86-2.894Z" fill="#ff9e85"></path>
          <g fill="none" opacity=".2">
            <path d="m189.496,292.194c.091.135.275.174.413.085l12.259-7.866c.14-.09.181-.276.091-.417-.074-.138-.277-.181-.417-.091l-12.259,7.866c-.14.09-.181.276-.091.417l.004.006Z" fill="#0c0c0c"></path>
          </g>
          <g fill="none" opacity=".2">
            <path d="m192.816,297.696c.091.135.275.174.413.085l13.681-8.779c.14-.09.181-.276.091-.417-.083-.128-.276-.18-.417-.091l-13.681,8.779c-.14.09-.181.276-.091.417l.004.006Z" fill="#0c0c0c"></path>
          </g>
          <g fill="none" opacity=".2">
            <path d="m196.378,303.677c.091.135.275.174.413.085l10.913-7.002c.14-.09.181-.276.091-.417-.094-.14-.276-.18-.417-.091l-10.913,7.002c-.14.09-.181.276-.091.417l.004.006Z" fill="#0c0c0c"></path>
          </g>
        </g>
        <path d="m74.449,269.502l51.652,82.953-32.446-5.276,75.506-58.341,27.514,35.609-75.506,58.341c-9.828,7.594-23.951,5.783-31.544-4.045-.135-.175-.267-.351-.396-.529l-.506-.702-57.107-79.296,42.833-28.712Z" fill="#0066f9"></path>
        <g>
          <g>
            <path d="m59.858,753.219s3.718,19.273,21.764,20.347c18.045,1.074,14.132,15.45,14.132,15.45H26.795v-34.453s33.064-1.344,33.064-1.344Z" fill="#0066f9"></path>
            <path d="m38.588,401.641s.216-5.794.171,7.349c-.171,49.022-1.022,105.017-3.1,137.784-3.341,52.675-11.907,218.745-11.907,218.745l45.314-.381,43.92-365.489-74.397,1.992Z" fill="#262626"></path>
            <path d="m89.76,459.449s1.878,35.575,2.226,43.927c.806,19.315,1.085,39.313,1.085,61.987l7.143-59.44s-5.227-18.628-10.454-46.474Z" fill="#0a0a0a"></path>
            <path d="m140.53,753.219s3.718,19.273,21.764,20.347c18.045,1.074,14.132,15.45,14.132,15.45h-68.959v-34.453s33.064-1.344,33.064-1.344Z" fill="#0066f9"></path>
            <path d="m162.47,405.447s4.014,167.546,3.426,175.735l-16.852,183.067-44.565.824,4.343-190.512s-3.063-52.552-15.761-101.351c-6.515-25.04-10.387-50.693-11.668-76.534h0s81.077,8.771,81.077,8.771Z" fill="#262626"></path>
            <path d="m38.096,401.636l-.148.008s.107-2.858.148-.008Z" fill="#333"></path>
            <path d="m168.849,312.448c-.935,10.979-5.481,79.476-6.379,92.999H38.638c-.699-12.197-3.841-65.531-6.493-89.382-2.532-22.76-2.874-34.539.767-41.268,5.951-10.997,17.585-16.968,28.673-18.469,6.771-.916,16.954-1.574,16.954-1.574,0,0,.862,17.442,21.421,18.413,27.987,1.32,26.118-18.413,26.257-18.413,4.534,0,27.424,2.134,33.262,6.626,12.475,9.598,11.353,27.8,9.37,51.067Z" fill="#0066f9"></path>
          </g>
          <g>
            <path id="h_3_sk" d="m137.568,255.386c-.13-.017-3.703,13.429-31.589,11.337-19.305-1.446-24.012-14.586-24.454-14.586,2.081-.442,5.461-.902,6.386-1.395,3.04-1.633,5.254-3.622,6.369-7.889.872-3.337,1.316-16.183,1.316-22.628l29.706,6.675c-.414,7.27-3.312,24.125,6.845,27.108,1.69.493,3.51.947,5.422,1.378Z" fill="#ff9e85"></path>
            <path d="m124.274,241.193c-11.711.924-26.754-4.02-29.612-19.645l-2.578-14.098c-2.857-15.624,3.032-29.791,17.743-32.481h0c14.711-2.69,28.023,7.964,30.88,23.589l1.141,6.241c1.096,5.995,3.319,34.745-17.575,36.394Z" fill="#ff9e85"></path>
            <path d="m135.132,226.848c-2.102-10.562-3.066-17.609-2.954-25.043,2.961-5.193,2.182-11.154,1.509-13.73,2.902,1.583,4.115,1.756,6.847,1.756,0,0-4.896-19.651-21.539-24.939-3.06-1.191-10.874-2.696-21.249-1.273-8.824,1.21-30.577,7.808-33.684,32.297h-.001s0,.007,0,.014c-.103.812-2.191,23.375-6.355,34.201-5.598,14.553-13.456,19.075-13.257,35.866.254,21.406,52.3,23.641,63.912,22.857,23.949-1.616,37.318-9.49,37.492-25.056.194-17.44-6.513-15.82-10.719-36.951Z" fill="#0a0a0a"></path>
          </g>
        </g>
        <g>
          <rect x="170.074" y="155.325" width="170.592" height="141.622" rx="4.955" ry="4.955" fill="#0066f9"></rect>
          <rect x="170.074" y="155.325" width="170.592" height="141.622" rx="4.955" ry="4.955" fill="#fff" opacity=".3"></rect>
          <circle cx="229.571" cy="199.196" r="12.344" fill="#fff" opacity=".8"></circle>
          <path d="m246.568,256.909l35.784-39.92c4.649-5.186,12.605-5.667,17.845-1.079l40.468,35.432v45.606h-48.917" fill="#fff" opacity=".5"></path>
          <path d="m291.749,296.948l-77.592-68.763c-4.741-4.201-11.851-4.273-16.675-.167l-27.408,23.324v45.606" fill="#fff" opacity=".8"></path>
          <path d="m335.71,297.697h-160.682c-3.146,0-5.705-2.56-5.705-5.705v-131.712c0-3.146,2.559-5.705,5.705-5.705h160.682c3.146,0,5.705,2.56,5.705,5.705v131.712c0,3.146-2.559,5.705-5.705,5.705Zm-160.682-141.622c-2.319,0-4.205,1.887-4.205,4.205v131.712c0,2.318,1.886,4.205,4.205,4.205h160.682c2.319,0,4.205-1.887,4.205-4.205v-131.712c0-2.318-1.886-4.205-4.205-4.205h-160.682Z" fill="#292a2e"></path>
        </g>
        <g>
          <path d="m268.849,297.663l11.162-17.365c1.028-1.599,3.215-2.001,4.753-.813,1.363,1.053,1.582,3.038.651,4.487l-2.393,3.724,12.901-8.255c1.418-.943,3.762-1.193,4.715.468.859,1.292.674,2.97-.349,4.051.011.013.025.022.033.037.007.011.008.024.014.035l2.187-1.454c1.687-1.121,4.035-.469,4.846,1.514.594,1.452-.025,3.125-1.331,3.993l-.931.619c.005.035.005.071-.002.106,1.456-.546,3.158.006,3.98,1.435.871,1.515.298,3.461-1.157,4.429l-2.311,1.536c.094.004.185.047.242.133.032.051.042.107.042.162,1.381-.119,2.786.642,3.351,2.119.551,1.438-.079,3.066-1.361,3.918l-19.506,12.965c-5.582,3.71-12.858,3.663-18.391-.121h0c-4.849-3.316-6.181-9.888-3.004-14.83l1.86-2.894Z" fill="#ff9e85"></path>
          <g fill="none" opacity=".2">
            <path d="m287.559,292.194c.091.135.275.174.413.085l12.259-7.866c.14-.09.181-.276.091-.417-.074-.138-.277-.181-.417-.091l-12.259,7.866c-.14.09-.181.276-.091.417l.004.006Z" fill="#0c0c0c"></path>
          </g>
          <g fill="none" opacity=".2">
            <path d="m290.879,297.696c.091.135.275.174.413.085l13.681-8.779c.14-.09.181-.276.091-.417-.083-.128-.276-.18-.417-.091l-13.681,8.779c-.14.09-.181.276-.091.417l.004.006Z" fill="#0c0c0c"></path>
          </g>
          <g fill="none" opacity=".2">
            <path d="m294.441,303.677c.091.135.275.174.413.085l10.913-7.002c.14-.09.181-.276.091-.417-.094-.14-.276-.18-.417-.091l-10.913,7.002c-.14.09-.181.276-.091.417l.004.006Z" fill="#0c0c0c"></path>
          </g>
        </g>
        <path d="m163.133,265.553l60.342,85.93-31.757-4.304,75.506-58.341,27.514,35.609-75.506,58.341c-9.722,7.512-23.647,5.821-31.297-3.729l-.46-.575-65.595-81.99,41.254-30.94Z" fill="#0066f9"></path>
      </g>
      <path d="m1,790.016h658.139c.552,0,1-.448,1-1,0-.552-.448-1-1-1H1c-.552,0-1,.448-1,1,0,.552.448,1,1,1Z" fill="#262626"></path>
    </g>
  </g>
</svg>