<svg id="Layer_2" data-name="Layer 2" xmlns="http://www.w3.org/2000/svg" viewBox="0 0 957.172 720.959" style="width: 100%; height: 100%;">
  <g id="Layer_1-2" data-name="Layer 1">
    <g>
      <g>
        <g>
          <g>
            <polygon points="537.351 685.731 536.593 688.487 527.888 720.209 517.206 720.209 525.915 688.487 527.418 683.004 537.351 685.731" fill="#fff" stroke="#b7b7b7" stroke-linecap="round" stroke-linejoin="round" stroke-width="1.5"></polygon>
            <polygon points="842.924 720.209 832.241 720.209 823.536 688.487 822.778 685.731 832.711 683.004 834.215 688.487 842.924 720.209" fill="#fff" stroke="#b7b7b7" stroke-linecap="round" stroke-linejoin="round" stroke-width="1.5"></polygon>
          </g>
          <g>
            <rect x="680.271" y="560.863" width="170.967" height="127.831" fill="#fff" stroke="#b7b7b7" stroke-linecap="round" stroke-linejoin="round" stroke-width="1.5"></rect>
            <line x1="745.773" y1="576.517" x2="785.734" y2="576.517" fill="#fff" stroke="#b7b7b7" stroke-linecap="round" stroke-linejoin="round" stroke-width="1.5"></line>
          </g>
          <g>
            <rect x="509.304" y="560.863" width="170.967" height="127.831" fill="#fff" stroke="#b7b7b7" stroke-linecap="round" stroke-linejoin="round" stroke-width="1.5"></rect>
            <line x1="574.807" y1="576.517" x2="614.768" y2="576.517" fill="#fff" stroke="#b7b7b7" stroke-linecap="round" stroke-linejoin="round" stroke-width="1.5"></line>
          </g>
        </g>
        <g>
          <g>
            <path d="m558.318,538.377l-2.987-18.302c-.798-3.34,1.374-6.734,4.499-6.857.076-.003.152-.004.229-.003,1.229.013,2.35.515,3.212,1.337,1.369,1.306,1.919,3.38,1.497,5.327l-3.125,15.462" fill="#fff" stroke="#b7b7b7" stroke-linecap="round" stroke-linejoin="round" stroke-width="1.5"></path>
            <path d="m556.887,540.772l-9.906-11.106c-2.286-2.563-1.981-6.581.713-8.17.065-.039.132-.076.2-.111,1.088-.571,2.313-.66,3.462-.345,1.824.501,3.292,2.067,3.843,3.981l4.16,14.454" fill="#fff" stroke="#b7b7b7" stroke-linecap="round" stroke-linejoin="round" stroke-width="1.5"></path>
            <path d="m557.852,539.369l6.731-13.273c1.553-3.063,5.406-4.244,7.868-2.315.06.047.119.095.177.146.929.805,1.458,1.913,1.583,3.098.199,1.881-.725,3.819-2.306,5.03l-11.943,9.143" fill="#fff" stroke="#b7b7b7" stroke-linecap="round" stroke-linejoin="round" stroke-width="1.5"></path>
          </g>
          <rect x="548.234" y="537.416" width="23.446" height="23.446" fill="#fff" stroke="#b7b7b7" stroke-linecap="round" stroke-linejoin="round" stroke-width="1.5"></rect>
        </g>
        <g>
          <rect x="626.846" y="525.77" width="15.695" height="53.528" transform="translate(82.16 1187.228) rotate(-90)" fill="#fff" stroke="#b7b7b7" stroke-linecap="round" stroke-linejoin="round" stroke-width="1.5"></rect>
          <rect x="637.931" y="512.715" width="10.388" height="53.528" transform="translate(103.646 1182.604) rotate(-90)" fill="#fff" stroke="#b7b7b7" stroke-linecap="round" stroke-linejoin="round" stroke-width="1.5"></rect>
          <g>
            <rect x="601.857" y="509.466" width="10.476" height="53.528" transform="translate(471.831 -262.401) rotate(38.934)" fill="#fff" stroke="#b7b7b7" stroke-linecap="round" stroke-linejoin="round" stroke-width="1.5"></rect>
            <line x1="597.822" y1="539.374" x2="605.971" y2="545.958" fill="#fff" stroke="#b7b7b7" stroke-linecap="round" stroke-linejoin="round" stroke-width="1.5"></line>
            <line x1="591.505" y1="547.193" x2="599.655" y2="553.776" fill="#fff" stroke="#b7b7b7" stroke-linecap="round" stroke-linejoin="round" stroke-width="1.5"></line>
          </g>
        </g>
      </g>
      <g>
        <g>
          <g>
            <rect x="191.184" y=".75" width="577.688" height="449.673" fill="#fff" stroke="#0066f9" stroke-linecap="round" stroke-linejoin="round" stroke-width="1.5"></rect>
            <rect x="191.184" y=".75" width="577.688" height="38.739" fill="#fff" stroke="#0066f9" stroke-linecap="round" stroke-linejoin="round" stroke-width="1.5"></rect>
          </g>
          <circle cx="745.214" cy="20.12" r="9.978" fill="#fff" stroke="#0066f9" stroke-linecap="round" stroke-linejoin="round" stroke-width="1.5"></circle>
        </g>
        <line x1="355.345" y1="39.489" x2="355.345" y2="450.423" fill="#fff" stroke="#0066f9" stroke-linecap="round" stroke-linejoin="round" stroke-width="1.5"></line>
        <g>
          <rect x="210.356" y="60.518" width="126.421" height="95.714" fill="#fff" stroke="#000" stroke-linecap="round" stroke-linejoin="round" stroke-width="1.5"></rect>
          <line x1="210.356" y1="60.518" x2="336.777" y2="156.232" fill="#fff" stroke="#000" stroke-linecap="round" stroke-linejoin="round" stroke-width="1.5"></line>
          <line x1="336.777" y1="60.518" x2="210.356" y2="156.232" fill="#fff" stroke="#000" stroke-linecap="round" stroke-linejoin="round" stroke-width="1.5"></line>
          <rect x="229.484" y="396.321" width="88.165" height="23.833" fill="#fff" stroke="#000" stroke-linecap="round" stroke-linejoin="round" stroke-width="1.5"></rect>
          <line x1="210.356" y1="195.417" x2="336.777" y2="195.417" fill="none" stroke="#000" stroke-linecap="round" stroke-linejoin="round" stroke-width="1.5"></line>
          <line x1="210.356" y1="228.443" x2="336.777" y2="228.443" fill="none" stroke="#000" stroke-linecap="round" stroke-linejoin="round" stroke-width="1.5"></line>
          <line x1="210.356" y1="261.469" x2="336.777" y2="261.469" fill="none" stroke="#000" stroke-linecap="round" stroke-linejoin="round" stroke-width="1.5"></line>
          <line x1="210.356" y1="294.496" x2="268.926" y2="294.496" fill="none" stroke="#000" stroke-linecap="round" stroke-linejoin="round" stroke-width="1.5"></line>
        </g>
        <rect x="377.345" y="60.518" width="367.87" height="199.429" fill="#fff" stroke="#0066f9" stroke-linecap="round" stroke-linejoin="round" stroke-width="1.5"></rect>
        <g>
          <line x1="561.279" y1="123.189" x2="561.279" y2="197.276" fill="#fff" stroke="#000" stroke-linecap="round" stroke-linejoin="round" stroke-width="1.5"></line>
          <line x1="598.323" y1="160.233" x2="524.236" y2="160.233" fill="#fff" stroke="#000" stroke-linecap="round" stroke-linejoin="round" stroke-width="1.5"></line>
        </g>
        <g>
          <line x1="526.992" y1="308.79" x2="745.214" y2="308.79" fill="#fff" stroke="#000" stroke-linecap="round" stroke-linejoin="round" stroke-width="1.5"></line>
          <line x1="526.992" y1="335.323" x2="745.214" y2="335.323" fill="#fff" stroke="#000" stroke-linecap="round" stroke-linejoin="round" stroke-width="1.5"></line>
          <line x1="526.992" y1="361.855" x2="745.214" y2="361.855" fill="#fff" stroke="#000" stroke-linecap="round" stroke-linejoin="round" stroke-width="1.5"></line>
          <line x1="526.992" y1="388.388" x2="623.892" y2="388.388" fill="#fff" stroke="#000" stroke-linecap="round" stroke-linejoin="round" stroke-width="1.5"></line>
        </g>
        <g>
          <rect x="377.345" y="292.746" width="122.044" height="122.044" fill="#fcfcfc" stroke="#000" stroke-linecap="round" stroke-linejoin="round" stroke-width="1.5"></rect>
          <line x1="377.345" y1="292.746" x2="499.388" y2="414.79" fill="#fff" stroke="#000" stroke-linecap="round" stroke-linejoin="round" stroke-width="1.5"></line>
          <line x1="499.388" y1="292.746" x2="377.345" y2="414.79" fill="#fff" stroke="#000" stroke-linecap="round" stroke-linejoin="round" stroke-width="1.5"></line>
        </g>
      </g>
      <line x1=".75" y1="720.209" x2="929.1" y2="720.209" fill="none" stroke="#000" stroke-linecap="round" stroke-linejoin="round" stroke-width="1.5"></line>
      <g>
        <polygon id="sk" points="843.571 641.792 845.218 693.898 878.402 693.898 879.844 642.44 843.571 641.792" fill="#fffdfd" stroke="#000" stroke-linecap="round" stroke-linejoin="round" stroke-width="1.5"></polygon>
        <path id="l" d="m880.837,720.209h-11.994c-1.163-2.689-3.309-5.942-3.309-5.942l-3.83,5.942h-48.8s-6.018-15.724,13.265-16.573c20.379-.898,17.54-26.024,17.54-26.024h14.626l4.487,9.451,5.057-9.451h11.878l1.081,42.596Z" fill="#fff" stroke="#000" stroke-linecap="round" stroke-linejoin="round" stroke-width="1.5"></path>
        <polygon id="sk-2" data-name="sk" points="876.732 641.005 912.291 679.128 937.26 657.273 904.454 617.602 876.732 641.005" fill="#fffdfd" stroke="#000" stroke-linecap="round" stroke-linejoin="round" stroke-width="1.5"></polygon>
        <path id="l-2" data-name="l" d="m956.422,675.466l-9.025,7.9c-2.646-1.257-6.404-2.292-6.404-2.292l1.032,6.994-36.72,32.141s-14.884-7.868-.934-21.207c14.743-14.097-3.941-31.134-3.941-31.134l11.005-9.633,9.601,4.157-2.419-10.442,8.938-7.823,28.869,31.341Z" fill="#fff" stroke="#000" stroke-linecap="round" stroke-linejoin="round" stroke-width="1.5"></path>
        <path id="l-3" data-name="l" d="m770.545,520.347l102.842,141.962,55.376-41.663-96.762-138.802,24.513-149.391-68.473-.831-28.834,143.625c-2.467,15.865,1.663,32.294,11.338,45.101Z" fill="#0066f9"></path>
        <path id="l-4" data-name="l" d="m828.698,427.939l-12.254,46.645c-1.538,10.448,1.215,17.377,7.631,25.764l90.48,129.739" fill="none" stroke="#fdfdfd" stroke-linecap="round" stroke-linejoin="round" stroke-width="1.5"></path>
        <path id="st" d="m849.756,377.97l-17.733,103.885,96.658,138.682-55.216,41.878-102.853-141.976c-9.75-12.856-13.899-29.37-11.382-45.308l28.81-143.509" fill="none" stroke="#000" stroke-linecap="round" stroke-linejoin="round" stroke-width="1.5"></path>
        <polyline id="l-5" data-name="l" points="827.163 331.525 824.43 662.201 893.855 662.288 899.291 331.852" fill="#0066f9"></polyline>
        <line id="l-6" data-name="l" x1="884.441" y1="332.24" x2="877.973" y2="661.492" fill="none" stroke="#fff" stroke-linecap="round" stroke-linejoin="round" stroke-width="1.5"></line>
        <polyline id="st-2" data-name="st" points="825.797 390.798 824.43 662.201 893.855 662.288 899.291 331.852 788.041 331.621" fill="none" stroke="#000" stroke-linecap="round" stroke-linejoin="round" stroke-width="1.5"></polyline>
        <path id="h_6_h" d="m899.078,140.292c1.532,7.37-3.704,10.269-3.975,15.091-.281,4.99,4.658,8.56,2.248,15.444-2.48,7.085-8.309,6.952-11.008,11.068-2.699,4.115-2.07,11.205-5.763,14.507-3.641,3.255-10.596,1.848-15.06,4.094-4.314,2.171-7.302,8.632-12.255,9.662s-10.269-3.704-15.091-3.975c-4.99-.281-10.808,3.782-15.444,2.248-4.703-1.556-6.952-8.309-11.068-11.008s-9.215.105-14.507-5.763c-3.789-4.202-1.848-10.596-4.094-15.06-2.171-4.314-8.045-5.122-9.662-12.255-1.118-4.934,3.704-10.269,3.975-15.091.281-4.99-4.594-8.553-2.248-15.444,2.235-6.564,8.309-6.952,11.008-11.068,2.699-4.115-.623-9.386,5.763-14.507,5.119-4.105,10.596-1.848,15.06-4.094,4.314-2.171,2.624-7.659,12.255-9.662,4.953-1.03,11.12,5.387,15.942,5.658,4.99.281,7.877-5.767,14.593-3.931,7.315,2,6.952,8.309,11.068,11.008,4.115,2.699,10.22.336,14.507,5.763,5.182,6.56,1.579,11.981,3.825,16.445,2.171,4.314,8.559,4.274,9.931,10.871Z" fill="#0066f9" stroke="#000" stroke-linecap="round" stroke-linejoin="round" stroke-width="1.5"></path>
        <path id="h_6_h-2" data-name="h_6_h" d="m857.062,161.665c4.142-.064,7.44-3.535,7.367-7.753-.07-4.036-3.205-7.285-7.105-7.501-3.09-13.569-14.297-23.773-28.518-23.552-10.692.166-14.493,5.998-19.545,14.729-2.674,4.62-1.9,31.715,1.706,37.528,2.411,3.888,6.728,6.496,13.685,7.64l.337,15.783s-.911,15.238,15.65,14.437c16.798-.812,16.631-15.568,16.631-15.568,0,0-.487-33.707-.351-35.747.048,0,.095.006.144.005Z" fill="#fffdfd" stroke="#000" stroke-linecap="round" stroke-linejoin="round" stroke-width="1.5"></path>
        <path id="h_6_sh" d="m838.76,179.889l-13.808,15.685-.301-12.819s4.51.407,8.667-.789,5.443-2.077,5.443-2.077Z" stroke="#000" stroke-linecap="round" stroke-linejoin="round" stroke-width="1.5"></path>
        <path id="h_6_h-3" data-name="h_6_h" d="m805.972,142.77s9.461-3.174,15.061-11.297c0,0,2.41,6.498,13.079,5.446,10.67-1.052,11.295,3.36,13.548,7.182,2.253,3.822,9.455,2.362,9.455,2.362l11.388-10.117-16.6-22.666-41.939,4.638-1.67,13.179-2.323,11.274Z" fill="#0066f9"></path>
        <path id="h_6_st" d="m805.972,142.77s9.461-3.174,15.061-11.297c0,0,2.41,6.498,13.079,5.446,10.67-1.052,11.295,3.36,13.548,7.182,2.253,3.822,9.963,2.333,9.963,2.333" fill="none" stroke="#000" stroke-linecap="round" stroke-linejoin="round" stroke-width="1.5"></path>
        <g id="e_1_eye">
          <path d="m833.592,149.603l-.013-.13c.007-.191-.033-.369-.119-.534-.056-.172-.151-.321-.287-.446-.126-.135-.274-.231-.446-.287-.165-.087-.343-.127-.534-.119l-.368.05c-.235.066-.439.185-.612.356l-.217.281c-.125.216-.188.449-.189.7l.013.13c-.007.191.033.369.119.534.056.172.151.321.287.446.126.135.274.231.446.287.165.087.343.127.534.119l.368-.05c.235-.066.439-.185.612-.356l.217-.281c.125-.216.188-.449.189-.7h0Z"></path>
        </g>
        <g id="e_1_eye-2" data-name="e_1_eye">
          <path d="m817.986,150.63l-.013-.13c.007-.191-.033-.369-.119-.534-.056-.172-.151-.321-.287-.446-.126-.135-.274-.231-.446-.287-.165-.087-.343-.127-.534-.119l-.368.05c-.235.066-.439.185-.612.356l-.217.281c-.125.216-.188.449-.189.7l.013.13c-.007.191.033.369.119.534.056.172.151.321.287.446.126.135.274.231.446.287.165.087.343.127.534.119l.368-.05c.235-.066.439-.185.612-.356l.217-.281c.125-.216.188-.449.189-.7h0Z"></path>
        </g>
        <path id="e_1_st" d="m821.188,156.51l-.78,3.689c-.144.681.447,1.292,1.129,1.167l3.241-.595" fill="none" stroke="#000" stroke-linecap="round" stroke-linejoin="round" stroke-width="1.5"></path>
        <path id="e_1_st-2" data-name="e_1_st" d="m829.163,143.434s4.659-1.642,7.056,1.461" fill="none" stroke="#000" stroke-linecap="round" stroke-linejoin="round" stroke-width="1.5"></path>
        <path id="e_1_st-3" data-name="e_1_st" d="m834.733,164.218s-1.397,5.076-7.777,4.227" fill="none" stroke="#000" stroke-linecap="round" stroke-linejoin="round" stroke-width="1.5"></path>
        <path id="e_1_st-4" data-name="e_1_st" d="m811.343,146.639s3.283-3.279,6.915-1.829" fill="none" stroke="#000" stroke-linecap="round" stroke-linejoin="round" stroke-width="1.5"></path>
        <path id="b" d="m911.922,315.534c-4.223,1.358-8.547,1.423-12.557.444-.037,9.499-.074,15.874-.074,15.874l-111.25-.231.906-20.836-4.334,10.266c-4.232,8.131-13.028,12.363-21.622,11.236l-89.906-13.167,6.311-33.181,70.88.416,28.781-69.783c1.546-3.747,3.751-7.219,6.677-10.023,4.181-4.007,9.484-6.717,14.927-7.318,0,0,2.495-.148,3.419-.092l20.901-.268c-.018,2.236.554,14.83,15.653,14.11,14.073-.675,16.235-11.143,16.567-14.525l24.486-.314c8.418-.092,16.022,2.384,20.43,6.736,4.195,4.14,6.736,10.635,8.602,16.429l15.856,64.431.231.73c3.918,12.141-2.754,25.151-14.886,29.069Z" fill="#fdfdff" stroke="#000" stroke-linecap="round" stroke-linejoin="round" stroke-width="1.5"></path>
        <line id="st-3" data-name="st" x1="838.103" y1="212.97" x2="838.011" y2="331.727" fill="#fff" stroke="#000" stroke-linecap="round" stroke-linejoin="round" stroke-width="1.5"></line>
        <path id="b-2" data-name="b" d="m838.14,213.007s-4.629,10.802-13.13,4.925c-9.878-6.828-.028-19.062-.028-19.062-.018,2.107.49,13.38,13.121,14.1l.037.037Z" fill="#0066f9" stroke="#000" stroke-linecap="round" stroke-linejoin="round" stroke-width="1.5"></path>
        <path id="b-3" data-name="b" d="m851.048,220.27c-10.395,3.289-12.908-7.263-12.908-7.263l.046-.037c.767.046,1.589.046,2.449.009,13.712-.665,16.124-10.617,16.549-14.248l.157-.12c3.132,3.169,4.103,18.378-6.292,21.659Z" fill="#0066f9" stroke="#000" stroke-linecap="round" stroke-linejoin="round" stroke-width="1.5"></path>
        <g id="laptop">
          <path id="bl" d="m624.659,287.793h107.108s-17.235-79.552-17.235-79.552c-.379-1.75-1.927-2.998-3.718-2.998h-99.324c-2.425,0-4.231,2.239-3.718,4.609l16.886,77.941Z" stroke="#000" stroke-linecap="round" stroke-linejoin="round" stroke-width="1.5"></path>
          <path id="b-4" data-name="b" d="m624.935,287.793h97.407c3.022,0,5.273-2.79,4.633-5.744l-15.991-73.808c-.379-1.75-1.927-2.998-3.718-2.998h-100.184c-1.983,0-3.459,1.83-3.039,3.768l16.259,75.046c.472,2.181,2.402,3.737,4.633,3.737Z" fill="#0066f9" stroke="#000" stroke-linecap="round" stroke-linejoin="round" stroke-width="1.5"></path>
          <rect id="bl-2" data-name="bl" x="619.146" y="282.687" width="155.262" height="5.106" rx="2.553" ry="2.553" transform="translate(1393.555 570.48) rotate(180)" stroke="#000" stroke-linecap="round" stroke-linejoin="round" stroke-width="1.5"></rect>
          <rect id="b-5" data-name="b" x="619.146" y="282.687" width="109.147" height="5.106" rx="2.553" ry="2.553" transform="translate(1347.439 570.48) rotate(180)" fill="#0066f9" stroke="#000" stroke-linecap="round" stroke-linejoin="round" stroke-width="1.5"></rect>
          <circle id="b-6" data-name="b" cx="663.833" cy="246.639" r="7.225" fill="#fff" stroke="#000" stroke-linecap="round" stroke-linejoin="round" stroke-width="1.5"></circle>
        </g>
        <g id="ha">
          <path id="sk-3" data-name="sk" d="m678.639,289.935s-14.873-2.51-19.016-4.648c-1.873-.967-5.4-5.337-6.943-7.207-1.543-1.869-4.332-2.71-4.238-.692.016.35.317,1.117.744,2.041-.183-.225-.35-.442-.487-.642-3.629-5.294-6.81-5.27-6.732-3.104.014.382.307,1.168.766,2.167-2.072-2.383-4.21-4.003-5.835-2.528-.689.626.366,2.946,1.901,5.697-.325-.288-.655-.539-.984-.737-1.035-.623-2.213-.361-2.221.419-.028,2.695,4.201,11.635,11.371,17.969,1.206,1.065,3.829,2.752,6.99,4.633-2.378.402-4.81,1.232-5.441,2.939-.951,2.571,1.605,2.8,7.727,2.151,1.719-.182,4.682.074,7.366.401,5.688,3.132,10.291,5.692,10.291,5.692l4.74-24.551Z" fill="#fffdfd"></path>
          <path id="st-4" data-name="st" d="m663.92,308.572s-3.971-.572-7.677-.179c-6.122.65-8.678.42-7.727-2.151,1.327-3.589,10.62-3.305,10.62-3.305" fill="none" stroke="#000" stroke-linecap="round" stroke-linejoin="round" stroke-width="1.5"></path>
          <path id="st-5" data-name="st" d="m673.899,314.485s-22.572-11.963-26.933-15.815c-7.17-6.334-12.192-15.592-11.371-17.969.322-.932,1.186-1.041,2.221-.419.262.157.524.348.783.565" fill="#fff" stroke="#000" stroke-linecap="round" stroke-linejoin="round" stroke-width="1.5"></path>
          <path id="st-6" data-name="st" d="m652.235,297.116s-1.975-1.298-3.239-2.165c-2.33-1.597-4.982-5.041-7.107-8.653-2.666-4.531-6.293-9.672-4.989-10.976,1.632-1.632,3.641-.079,5.835,2.528" fill="none" stroke="#000" stroke-linecap="round" stroke-linejoin="round" stroke-width="1.5"></path>
          <path id="st-7" data-name="st" d="m654.981,293.223s-3.532-2.358-4.923-3.731c-2.559-2.526-8.029-12.096-8.09-13.809-.078-2.166,3.103-2.19,6.732,3.104.138.201.301.416.485.643" fill="none" stroke="#000" stroke-linecap="round" stroke-linejoin="round" stroke-width="1.5"></path>
          <path id="st-8" data-name="st" d="m657.712,289.667s-4.684-3.231-5.577-4.694c-.893-1.463-3.643-6.502-3.693-7.584-.094-2.018,2.695-1.177,4.238.692,1.543,1.869,5.07,6.24,6.943,7.207,4.143,2.138,19.016,4.648,19.016,4.648l-4.74,24.551" fill="none" stroke="#000" stroke-linecap="round" stroke-linejoin="round" stroke-width="1.5"></path>
        </g>
        <line id="st-9" data-name="st" x1="788.942" y1="310.782" x2="791.576" y2="249.746" fill="none" stroke="#000" stroke-linecap="round" stroke-linejoin="round" stroke-width="1.5"></line>
        <g id="ha-2" data-name="ha">
          <path id="sk-4" data-name="sk" d="m767.81,245.991c5.043-.233,8.699-.227,12.98.108-.787,1.045-1.676,2.274-2.376,3.376-.339.534-.52,1.618-.606,2.81-1.927-.301-3.226-.07-4.238,1.183-1.085,1.343,1.056,2.775,4.449,4.382.619,2.955,2.083,3.036,3.131,1.407.794.345,1.614.697,2.45,1.059,3.504,1.519,24.743,15.536,24.743,15.536l24.05-21.172c-5.989-2.294-34.944-13.301-41.541-14.172-12.116-1.601-20.831.98-23.895,2.547-1.44.736-.54,3.001.854,2.936Z" fill="#fffdfd"></path>
          <path id="st-10" data-name="st" d="m777.905,257.797c-3.33-1.587-5.409-3.002-4.335-4.33.999-1.236,2.274-1.479,4.157-1.196" fill="none" stroke="#000" stroke-linecap="round" stroke-linejoin="round" stroke-width="1.5"></path>
          <path id="st-11" data-name="st" d="m780.597,246.08c-4.202-.321-7.817-.319-12.787-.089-1.394.065-2.293-2.2-.854-2.936,3.064-1.568,11.779-4.148,23.895-2.547,6.597.872,35.553,11.878,41.541,14.172l-24.05,21.172s-21.239-14.017-24.743-15.536c-.801-.347-1.59-.686-2.354-1.017" fill="none" stroke="#000" stroke-linecap="round" stroke-linejoin="round" stroke-width="1.5"></path>
          <path id="st-12" data-name="st" d="m782.7,243.649s-2.656,3.262-4.285,5.825c-.855,1.346-.713,6.183-.551,7.461.557,4.386,2.621,4.108,3.733,1.463,1.045-2.486.695-4.698,1.968-6.885" fill="none" stroke="#000" stroke-linecap="round" stroke-linejoin="round" stroke-width="1.5"></path>
          <path id="st-13" data-name="st" d="m787.871,244.29s-2.787,4.02-4.139,6.788c-.7,1.433-.263,5.833.186,7.041.689,1.853,1.417,2.595,2.652,1.887,1.762-1.011.674-5.166,1.947-7.353,1.188-2.041,4.944-7.243,4.944-7.243" fill="none" stroke="#000" stroke-linecap="round" stroke-linejoin="round" stroke-width="1.5"></path>
          <path id="st-14" data-name="st" d="m790.403,249.915c-1.339,4.145-.181,5.815.342,6.746.889,1.584,2.198,1.384,2.717.1.69-1.708,1.119-4.801,1.705-5.65,1.215-1.762,3.77-4.124,3.77-4.124" fill="none" stroke="#000" stroke-linecap="round" stroke-linejoin="round" stroke-width="1.5"></path>
        </g>
        <path id="b-7" data-name="b" d="m899.358,315.992c-.831-.203-1.648-.452-2.448-.744l-91.295-35.892,11.834-36.235,60.536,19.866,21.308,6.794" fill="#fdfdff"></path>
        <path id="st-15" data-name="st" d="m899.358,315.992c-.831-.203-1.648-.452-2.448-.744l-91.295-35.892,11.834-36.235,60.536,19.866,21.308,6.794" fill="none" stroke="#000" stroke-linecap="round" stroke-linejoin="round" stroke-width="1.5"></path>
        <line id="st-16" data-name="st" x1="879.082" y1="263.336" x2="873.561" y2="243.704" fill="none" stroke="#000" stroke-linecap="round" stroke-linejoin="round" stroke-width="1.5"></line>
      </g>
      <g>
        <path id="l-7" data-name="l" d="m100.285,720.209h-51.589s-4.842-6.053-4.842-6.053c0,0-1.245,3.314-2.43,6.053h-12.217s1.101-31.001,1.101-31.001l40.083-.824s3.967,15.797,16.382,16.827c19.592,1.631,13.511,14.998,13.511,14.998Z"></path>
        <path id="l-8" data-name="l" d="m187.358,720.209h-50.648s-4.842-6.053-4.842-6.053c0,0-1.245,3.314-2.43,6.053h-12.217l.16-31.001,37.26-.824s6.791,15.797,19.205,16.827c19.592,1.631,13.511,14.998,13.511,14.998Z"></path>
        <path id="l-9" data-name="l" d="m147.851,331.217l29.754,158.244c1.283,5.048,1.489,10.31.604,15.443l-11.576,188.875-58.831-.591,6.95-192.162-15.993-69.226-15.507,262.917-63.122-.825,15.251-362.808,112.469.133Z" fill="#fff" stroke="#000" stroke-linecap="round" stroke-linejoin="round" stroke-width="1.5"></path>
        <line id="st-17" data-name="st" x1="98.76" y1="431.8" x2="100.51" y2="395.056" fill="none" stroke="#000" stroke-linecap="round" stroke-linejoin="round" stroke-width="1.5"></line>
        <path id="h_4" d="m62.513,134.306c5.01-19.711,17.586-33.607,37.531-33.642s36.143,16.423,36.179,36.761c0,0-.66,20.455-4.331,37.018-3.671,16.563,2.683,18.794,2.683,18.794l-83.424-13.036s5.627-9.019,7.562-23.789q1.935-14.77,3.799-22.106Z" fill="#0066f9" stroke="#000" stroke-linecap="round" stroke-linejoin="round" stroke-width="1.5"></path>
        <path id="h_4_h" d="m78.277,158.103c-4.219-.065-7.578-3.601-7.503-7.897.072-4.111,3.265-7.42,7.237-7.641,3.147-13.821,14.563-24.214,29.048-23.99,10.891.169,14.762,6.109,19.908,15.002,2.723,4.706,1.935,32.304-1.738,38.225-2.456,3.96-6.853,6.616-13.939,7.782l-.344,16.076s.928,15.521-15.941,14.705c-17.11-.827-16.94-15.858-16.94-15.858,0,0,.496-34.333.358-36.411-.049,0-.097.006-.146.005Z" fill="#fffdfd" stroke="#000" stroke-linecap="round" stroke-linejoin="round" stroke-width="1.5"></path>
        <path id="h_4_sh" d="m96.919,176.666l14.065,15.977.307-13.057s-4.594.415-8.827-.804-5.544-2.116-5.544-2.116Z" stroke="#000" stroke-linecap="round" stroke-linejoin="round" stroke-width="1.5"></path>
        <path id="h_4-2" data-name="h_4" d="m111.636,125.567s-3.551,13.704-34.773,17.155l1.631-26.614,48.148,1.23s5.249,22.194,3.231,21.51c-4.409-1.495-16.29-6.135-18.238-13.281Z" fill="#0066f9"></path>
        <path id="h_4-3" data-name="h_4" d="m128.125,138.292c-4.409-1.495-14.542-5.58-16.49-12.725,0,0-3.551,13.704-34.773,17.155" fill="none" stroke="#000" stroke-linecap="round" stroke-linejoin="round" stroke-width="1.5"></path>
        <g id="e_1_eye-3" data-name="e_1_eye">
          <path d="m102.095,145.817l.014-.133c-.008-.207.035-.399.129-.578.06-.186.164-.347.31-.483.136-.146.297-.25.483-.31.179-.094.371-.137.578-.129l.399.054c.254.071.475.2.662.386l.235.304c.136.234.204.486.205.757l-.014.133c.008.207-.035.399-.129.578-.06.186-.164.347-.31.483-.136.146-.297.25-.483.31-.179.094-.371.137-.578.129l-.399-.054c-.254-.071-.475-.2-.662-.386l-.235-.304c-.136-.234-.204-.486-.205-.757h0Z"></path>
        </g>
        <g id="e_1_eye-4" data-name="e_1_eye">
          <path d="m117.991,146.863l.014-.133c-.008-.207.035-.399.129-.578.06-.186.164-.347.31-.483.136-.146.297-.25.483-.31.179-.094.371-.137.578-.129l.399.054c.254.071.475.2.662.386l.235.304c.136.234.204.486.205.757l-.014.133c.008.207-.035.399-.129.578-.06.186-.164.347-.31.483-.136.146-.297.25-.483.31-.179.094-.371.137-.578.129l-.399-.054c-.254-.071-.475-.2-.662-.386l-.235-.304c-.136-.234-.204-.486-.205-.757h0Z"></path>
        </g>
        <path id="e_1_st-5" data-name="e_1_st" d="m114.818,152.853l.795,3.758c.147.694-.455,1.316-1.15,1.189l-3.301-.606" fill="none" stroke="#000" stroke-linecap="round" stroke-linejoin="round" stroke-width="1.5"></path>
        <path id="e_1_st-6" data-name="e_1_st" d="m106.695,139.534s-4.745-1.673-7.187,1.488" fill="none" stroke="#000" stroke-linecap="round" stroke-linejoin="round" stroke-width="1.5"></path>
        <path id="e_1_st-7" data-name="e_1_st" d="m101.022,160.704s1.423,5.17,7.921,4.306" fill="none" stroke="#000" stroke-linecap="round" stroke-linejoin="round" stroke-width="1.5"></path>
        <path id="e_1_st-8" data-name="e_1_st" d="m124.846,142.799s-3.344-3.34-7.043-1.863" fill="none" stroke="#000" stroke-linecap="round" stroke-linejoin="round" stroke-width="1.5"></path>
        <line id="st-18" data-name="st" x1="145.116" y1="257.858" x2="144.732" y2="247.361" fill="none" stroke="#feffff" stroke-linecap="round" stroke-linejoin="round" stroke-width="1.5"></line>
        <line id="st-19" data-name="st" x1="45.477" y1="250.183" x2="33.888" y2="258.393" fill="none" stroke="#feffff" stroke-linecap="round" stroke-linejoin="round" stroke-width="1.5"></line>
        <g>
          <path id="b-8" data-name="b" d="m53.792,195.492l24.174.265c.321,3.401,2.485,14.208,16.948,14.907,15.748.756,16.041-12.668,16.003-14.548l16.409.179c19.066-.563,28.539,11.195,31.009,17.585l12.672,32.784,24.016-50.543,39.561,20.173-45.121,97.954c-2.295,5.921-7.012,10.975-13.402,13.445-10.342,3.997-21.779.139-27.751-8.657l.317,12.829-113.682.331s-1.578-88.072-1.143-97.67c.028-.671-18.44-40.375,19.989-39.034Z"></path>
          <line id="st-20" data-name="st" x1="148.311" y1="319.037" x2="146.597" y2="246.939" fill="none" stroke="#fff" stroke-linecap="round" stroke-linejoin="round" stroke-width="1.5"></line>
          <path id="ha_sk" d="m215.241,185.256s-7.773-.421-12.36-1.087c-4.586-.666-3.598,6.802,2.37,7.478s6.973.545,6.973.545" fill="#fff" stroke="#000" stroke-linecap="round" stroke-linejoin="round" stroke-width="1.5"></path>
          <path id="ha_sk-2" data-name="ha_sk" d="m207.57,187.44c-2.891-1.188,1.067-7.043,4.763-7.764,7.09-1.383,14.584,1.816,19.309,3.576,10.333,3.85,3.772,25.27-.029,31.526,0,0-18.955-9.761-23.315-11.889l1.674-3.15" fill="#fff" stroke="#000" stroke-linecap="round" stroke-linejoin="round" stroke-width="1.5"></path>
          <line id="st-21" data-name="st" x1="171.007" y1="246.665" x2="166.415" y2="255.721" fill="#fff" stroke="#000" stroke-linecap="round" stroke-linejoin="round" stroke-width="1.5"></line>
          <rect x="137.864" y="189.039" width="144.984" height="109.768" fill="#0066f9" stroke="#000" stroke-linecap="round" stroke-linejoin="round" stroke-width="1.5"></rect>
          <polygon points="266.303 275.746 217.142 275.746 241.723 238.83 266.303 275.746" fill="#fff" stroke="#000" stroke-linecap="round" stroke-linejoin="round" stroke-width="1.5"></polygon>
          <polygon points="236.662 275.524 156.662 275.524 196.662 215.451 236.662 275.524" fill="#fff" stroke="#000" stroke-linecap="round" stroke-linejoin="round" stroke-width="1.5"></polygon>
          <g id="ha-3" data-name="ha">
            <path id="sk-5" data-name="sk" d="m230.221,187.669s-3.172,1.896-4.901,3.897c-.833.964-1.678,3.52-2.727,5.504-.789,1.492-4.008,1.613-4.008-1.274,0-.124-.697,2.492-1.068,3.011-1.226,1.713-3.38,1.048-3.742.003-.05-.143-.089-.325-.122-.523-1.014,2.439-5.023,2.392-4.992-.962,0-.031.002-.076.003-.111-.964,1.795-4.132,1.95-4.405-2.858-.088-1.544.139-5.793,1-7.538,1.102-2.236,2.942-4.377,2.942-4.377" fill="#fff" stroke="#000" stroke-linecap="round" stroke-linejoin="round" stroke-width="1.5"></path>
            <path id="st-22" data-name="st" d="m213.838,183.963s-1.118,1.13-3.455,4.054c-1.227,1.536-1.71,7.761-1.724,9.307" fill="#fff" stroke="#000" stroke-linecap="round" stroke-linejoin="round" stroke-width="1.5"></path>
            <path id="st-23" data-name="st" d="m218.57,195.699c.215-.876.34-1.929.785-3.172.613-1.713,4.904-6.28,4.904-6.28" fill="none" stroke="#000" stroke-linecap="round" stroke-linejoin="round" stroke-width="1.5"></path>
            <path id="st-24" data-name="st" d="m218.742,185.105s-2.093,2.68-4.093,5.873c-.947,1.511-1.32,5.575-.988,7.385" fill="none" stroke="#000" stroke-linecap="round" stroke-linejoin="round" stroke-width="1.5"></path>
          </g>
          <g id="ha-4" data-name="ha">
            <path id="sk-6" data-name="sk" d="m113.839,267.127s3.909-.942,6.757-1.609c3.223-.89,6.297-1.952,7.676-3.04,3.512-2.769,7.783-7.002,8.161-3.2.088.884-.163,1.873-.586,2.869.998-.192,1.845-.341,2.469-.428,9.461-1.319,18.095,1.285,20.12,3.058.586.513.91,1.576-.234,1.956-.727.241-1.615.347-2.54.37,3.053.789,5.428,1.719,5.456,2.674.049,1.708-1.449,2.332-3.538,2.472.209.096.387.19.494.275,1.693,1.349.561,3.775-5.811,3.086-.119-.013-.246-.023-.378-.031.772.232,1.371.455,1.605.637,1.59,1.24-.859,2.808-3.279,2.763-2.42-.045-8.025-.212-9.975.58-4.313,1.751-18.225,11.971-18.225,11.971l-8.171-24.403Z" fill="#fff" stroke="#000" stroke-linecap="round" stroke-linejoin="round" stroke-width="1.5"></path>
            <path id="st-25" data-name="st" d="m110.274,267.857s14.487-2.609,17.999-5.378,7.783-7.002,8.161-3.2c.079.791-.196,1.867-.539,2.756" fill="#fff" stroke="#000" stroke-linecap="round" stroke-linejoin="round" stroke-width="1.5"></path>
            <path id="st-26" data-name="st" d="m132,262.937c1.489-.319,2.844-.598,3.982-.816" fill="#fff" stroke="#000" stroke-linecap="round" stroke-linejoin="round" stroke-width="1.5"></path>
            <path id="st-27" data-name="st" d="m135.145,266.723s2.268-.653,3.746-1.049c2.725-.729,7.059-.5,11.178.236,1.879.336,3.846.74,5.592,1.191" fill="#fff" stroke="#000" stroke-linecap="round" stroke-linejoin="round" stroke-width="1.5"></path>
            <path id="st-28" data-name="st" d="m137.238,270.99s4.083-1.145,6.027-1.307c3.578-.298,13.47,1.775,14.808,2.841" fill="#fff" stroke="#000" stroke-linecap="round" stroke-linejoin="round" stroke-width="1.5"></path>
            <path id="st-29" data-name="st" d="m152.403,275.741c-1.95-.65-5.728-1.437-7.062-1.654-1.689-.274-7.183,1.177-7.183,1.177" fill="#fff" stroke="#000" stroke-linecap="round" stroke-linejoin="round" stroke-width="1.5"></path>
          </g>
          <path id="b-9" data-name="b" d="m45.32,196.059c-13.855,2.204-21.764,13.495-23.932,22.672l-7.732,71.018-.179.756c-2.166,12.931,4.847,25.342,17.505,28.331,5.307,1.254,10.632.597,15.232-1.514l81.099-20.441-10.065-35.757-74.092,15.889"></path>
          <path id="st-30" data-name="st" d="m34.73,319.412c4.03.289,6.741-.375,11.989-1.582l80.593-20.947-10.065-35.757-74.092,15.889" fill="none" stroke="#fff" stroke-linecap="round" stroke-linejoin="round" stroke-width="1.5"></path>
          <line id="st-31" data-name="st" x1="51.703" y1="275.182" x2="57.018" y2="243.923" fill="none" stroke="#fff" stroke-linecap="round" stroke-linejoin="round" stroke-width="1.5"></line>
        </g>
      </g>
      <circle cx="238.743" cy="215.512" r="6.307" fill="#fff" stroke="#000" stroke-linecap="round" stroke-linejoin="round" stroke-width="1.5"></circle>
    </g>
  </g>
</svg>